<svg width="70" height="70" viewBox="0 0 70 70" fill="none" xmlns="http://www.w3.org/2000/svg">
<path fill-rule="evenodd" clip-rule="evenodd" d="M19.1983 4.83008C17.5149 4.83008 16.1533 6.19169 16.1533 7.87506V62.1426C16.1533 63.826 17.5149 65.1876 19.1983 65.1876H50.9958C52.6806 65.1876 54.0408 63.8245 54.0408 62.1601V7.87506C54.0408 6.19169 52.6792 4.83008 50.9958 4.83008H19.1983ZM15.2783 7.87506C15.2783 5.70843 17.0317 3.95508 19.1983 3.95508H50.9958C53.1624 3.95508 54.9158 5.70843 54.9158 7.87506V62.1601C54.9158 64.3107 53.161 66.0626 50.9958 66.0626H19.1983C17.0317 66.0626 15.2783 64.3092 15.2783 62.1426V7.87506Z" fill="black"/>
<path fill-rule="evenodd" clip-rule="evenodd" d="M35.1051 57.26C33.9743 57.26 33.0576 58.1767 33.0576 59.3075C33.0576 60.4383 33.9743 61.355 35.1051 61.355C36.2359 61.355 37.1526 60.4383 37.1526 59.3075C37.1526 58.1767 36.2359 57.26 35.1051 57.26ZM32.1826 59.3075C32.1826 57.6935 33.4911 56.385 35.1051 56.385C36.7192 56.385 38.0276 57.6935 38.0276 59.3075C38.0276 60.9216 36.7192 62.23 35.1051 62.23C33.4911 62.23 32.1826 60.9216 32.1826 59.3075Z" fill="black"/>
<path fill-rule="evenodd" clip-rule="evenodd" d="M38.4136 8.33008H31.5186V7.45508H38.4136V8.33008Z" fill="black"/>
<path fill-rule="evenodd" clip-rule="evenodd" d="M67.7074 33.3901C67.7074 27.645 65.5733 22.625 62.3711 19.6769L62.9637 19.0332C66.3765 22.1751 68.5824 27.4453 68.5824 33.3901C68.5824 39.2461 66.4476 44.4434 63.1264 47.6021L62.5234 46.9681C65.6422 44.0018 67.7074 39.0491 67.7074 33.3901Z" fill="black"/>
<path fill-rule="evenodd" clip-rule="evenodd" d="M61.9851 33.3726C61.9851 29.5697 60.5683 26.2474 58.4688 24.3144L59.0614 23.6707C61.3718 25.7977 62.8601 29.3704 62.8601 33.3726C62.8601 37.3206 61.4255 40.8381 59.1716 42.982L58.5686 42.3481C60.6196 40.397 61.9851 37.1245 61.9851 33.3726Z" fill="black"/>
<path fill-rule="evenodd" clip-rule="evenodd" d="M7.47698 19.6721C4.35814 22.6384 2.29297 27.5911 2.29297 33.2501C2.29297 38.9953 4.42706 44.0152 7.62929 46.9633L7.03664 47.607C3.62387 44.4651 1.41797 39.195 1.41797 33.2501C1.41797 27.3941 3.5528 22.1968 6.87396 19.0381L7.47698 19.6721Z" fill="black"/>
<path fill-rule="evenodd" clip-rule="evenodd" d="M11.4322 24.3095C9.38108 26.2605 8.01562 29.5331 8.01562 33.2851C8.01562 37.0879 9.43236 40.4102 11.532 42.3432L10.9393 42.9869C8.62891 40.8599 7.14062 37.2872 7.14062 33.2851C7.14062 29.337 8.57516 25.8195 10.8291 23.6755L11.4322 24.3095Z" fill="black"/>
<path fill-rule="evenodd" clip-rule="evenodd" d="M22.5752 33.32C22.5752 26.4772 28.1224 20.9299 34.9652 20.9299C41.808 20.9299 47.3552 26.4772 47.3552 33.32C47.3552 40.1628 41.808 45.7099 34.9652 45.7099C28.1224 45.7099 22.5752 40.1628 22.5752 33.32Z" fill="#FEDD15"/>
<path fill-rule="evenodd" clip-rule="evenodd" d="M34.9829 27.51C33.2238 27.51 31.7979 28.936 31.7979 30.695C31.7979 32.4541 33.2238 33.88 34.9829 33.88C36.7419 33.88 38.1679 32.4541 38.1679 30.695C38.1679 28.936 36.7419 27.51 34.9829 27.51ZM30.9229 30.695C30.9229 28.4527 32.7406 26.635 34.9829 26.635C37.2251 26.635 39.0429 28.4527 39.0429 30.695C39.0429 32.9373 37.2251 34.755 34.9829 34.755C32.7406 34.755 30.9229 32.9373 30.9229 30.695Z" fill="black"/>
<path fill-rule="evenodd" clip-rule="evenodd" d="M31.7275 36.7324C30.2115 36.7324 28.75 37.5536 27.8066 39.0012L27.8049 39.0038L27.8049 39.0038L26.2649 41.3313L25.5352 40.8485L27.0743 38.5222C28.1609 36.8557 29.8841 35.8574 31.7275 35.8574H38.185C40.0098 35.8574 41.7147 36.837 42.8015 38.4672L42.8019 38.4678L44.3945 40.8654L43.6656 41.3495L42.0735 38.9526C42.0734 38.9524 42.0733 38.9523 42.0732 38.9522C41.1301 37.5376 39.6851 36.7324 38.185 36.7324H31.7275Z" fill="black"/>
</svg>
