<svg width="70" height="71" viewBox="0 0 70 71" fill="none" xmlns="http://www.w3.org/2000/svg">
<g clip-path="url(#clip0)">
<path fill-rule="evenodd" clip-rule="evenodd" d="M31.1691 56.1035C31.2597 56.1337 31.5014 56.0431 31.592 56.0129C31.4108 55.8921 31.0483 55.8619 30.8369 55.7411C30.8671 55.7411 30.1422 55.3182 30.2932 55.6807C30.3234 55.7713 30.4745 55.6807 30.5349 55.7411C30.4443 55.8619 30.4141 55.8317 30.5047 55.8921C30.5047 55.8921 29.7194 55.4693 30.5047 55.4391C29.961 54.9558 30.5349 55.1068 30.3536 54.8048C30.2328 54.5934 30.8067 54.3819 30.5047 54.2007C30.3536 54.1101 30.2026 54.1403 30.0516 54.0195C29.8402 53.8685 30.0516 53.5967 30.2328 53.6269C30.263 53.6269 30.3536 53.1436 30.3839 53.053C30.3234 53.0228 29.9308 52.5395 30.0214 52.4187C30.1422 52.2979 30.6557 52.751 30.8067 52.4187C30.8671 52.2979 30.6255 51.9657 30.6557 51.8449C30.8973 51.8147 32.4679 51.8751 32.196 51.1804C32.1054 50.9388 31.441 50.5461 31.5014 50.3649C31.743 50.3951 32.1054 50.7274 32.3471 50.6065C32.5585 50.5159 32.7095 50.7274 32.9209 50.4857C32.9511 50.4555 33.3136 50.0629 33.1927 50.0025C33.0719 50.0025 33.0115 50.0629 33.0115 50.1837C32.8907 50.0025 33.1021 49.9119 33.2229 49.7911C33.2532 49.8213 33.2834 49.8515 33.3136 49.9119C33.4344 49.7307 34.1592 48.7641 34.1895 48.7641C34.5519 48.3413 34.2499 47.7674 34.6123 47.4352C34.9445 47.1332 35.307 46.9218 35.7298 46.7405C35.8506 46.6801 36.3339 46.4385 36.4245 46.4687C37.1796 46.7103 37.089 45.8042 37.5722 45.3814C38.0555 44.9585 37.693 42.8443 38.1159 42.6933C38.3273 42.6027 38.9918 41.8174 39.324 41.4248C39.6562 41.0925 39.6864 40.6395 39.5656 40.1864C39.3844 39.4918 39.173 39.8844 38.6897 39.5824C38.2971 39.3408 37.9951 38.8877 37.5118 38.7971C37.2098 38.7669 36.9379 38.8575 36.6359 38.7669C36.5151 38.7367 36.1829 38.5253 36.062 38.7065C36.0923 38.6763 35.7902 38.8273 35.8204 38.8273C35.7902 38.7971 35.8204 38.4649 35.7298 38.3743C35.5788 38.2232 35.0653 38.1024 34.8841 38.042C34.4613 37.9212 34.3405 38.4347 34.2499 37.8306C33.8874 37.74 33.5552 37.3171 33.6156 37.2265C33.6458 37.1963 33.0719 35.958 32.9813 36.0788C32.9813 35.656 31.7128 35.1727 31.3806 35.3539C31.0785 35.5654 30.5651 35.1727 30.3839 34.9915C30.1724 34.7801 30.2026 34.5384 29.8402 34.3874C29.6892 34.327 29.4476 34.3572 29.508 34.1156C29.5684 33.8438 28.8737 33.8136 28.8133 33.5417C28.9039 33.5719 28.9945 33.5115 29.0851 33.4813C28.8133 33.5719 28.5113 33.3907 28.2394 33.6021C27.8468 33.9344 27.6354 33.4511 27.2125 33.5417C26.6689 33.6324 27.0313 33.4511 26.6991 33.2397C26.8501 33.3303 26.095 32.9075 26.246 32.9075C26.095 32.8773 26.2762 33.1793 26.095 33.2397C25.8232 33.3303 25.5815 33.4209 25.7628 33.723C26.0648 34.327 25.1285 34.0552 25.5815 33.6324C25.6722 33.5719 25.6722 32.7867 25.7628 32.7867C25.6419 32.7565 24.7963 33.3001 24.7057 33.4209C24.4338 32.9679 23.9808 34.5082 23.7996 34.5082C23.7089 34.1458 23.3465 33.9646 23.0445 33.874C22.7726 33.7834 22.5008 34.4176 22.1686 34.0552C21.5645 33.4209 21.8363 32.4242 22.1384 31.6993C22.2592 31.3671 20.9907 31.2765 20.8396 31.3973C20.5376 31.6389 20.9 30.8839 20.8698 30.8839C20.9 30.5818 20.9907 30.3704 21.1115 30.3704C21.2021 30.1892 21.6551 29.3435 21.6249 29.2227C21.4437 28.7696 20.6282 29.5549 20.5678 29.7663C20.4772 29.9476 20.3262 30.0684 20.2658 30.2496C20.1752 30.4308 20.0544 30.2194 19.9033 30.2798C19.5711 30.461 19.0577 30.3704 19.1483 29.857C19.2087 29.2529 18.9972 28.0448 19.6617 27.6521C19.8731 27.5313 19.9033 26.9272 20.145 26.7158C20.1752 26.6856 20.8698 26.293 20.8094 26.2024C20.9 26.3232 21.4437 26.0816 21.5041 26.2326C21.5645 26.3534 21.8666 26.4742 21.9874 26.4138L22.0478 26.142C22.0478 26.142 21.8363 26.1118 21.8363 26.0514C21.8666 25.9607 22.5008 26.0212 22.531 26.0212C22.8331 26.0514 23.0747 26.293 23.2861 26.142C23.6485 25.9003 23.4371 27.4709 23.5579 27.6219C23.6485 27.7125 23.5881 27.8937 23.7391 27.8635C23.9506 27.8333 24.011 25.8399 24.5244 25.4171C24.9171 25.1151 25.3097 24.8432 25.7326 24.6016C25.8534 24.5412 26.2158 24.36 26.2762 24.2392C26.246 24.1788 26.1856 24.0881 26.1252 24.1788C26.095 24.0579 26.3064 24.1183 26.3366 23.9975C26.3668 23.8767 26.2158 23.8163 26.246 23.7861C26.246 23.7861 26.3668 23.5143 26.3366 23.5445V23.5747C26.548 23.6049 26.2762 23.3935 26.2762 23.3331C26.548 23.4841 26.4272 23.031 26.6991 23.0008C26.5178 23.0914 26.548 23.3029 26.5782 23.4237C26.6387 23.7257 26.8803 23.031 26.8501 23.0612C27.1219 22.9706 27.5145 22.729 27.7864 22.5478C27.726 22.5176 27.6656 22.578 27.575 22.5176C27.8468 22.3968 28.179 22.4572 28.4508 22.3062C28.4508 22.0343 28.6019 21.7323 28.9341 21.6719C29.4173 21.5813 29.9912 21.3095 30.4745 21.1282C30.4141 21.2793 30.5047 21.1584 30.6557 21.2188C30.5047 20.796 29.6288 21.9739 30.0516 21.7323C30.4141 21.5209 31.5618 21.3397 31.743 21.0074C31.743 20.9772 31.6524 20.7658 31.6826 20.7658C31.3806 20.7658 31.3806 21.1282 31.0181 21.1282C30.3839 21.1282 30.7765 20.7356 30.6255 20.5544C30.5047 20.5846 30.4141 20.5544 30.3234 20.4638C30.3838 20.4638 31.1993 20.2825 30.7765 20.1617C30.0818 20.0107 29.6288 20.7658 29.0851 20.7658C29.508 20.494 30.0818 19.9503 30.5953 19.8899C31.1389 19.7993 31.894 20.0711 32.3773 19.7389C32.8001 19.4369 33.1021 19.6483 33.3438 19.1952C33.4344 19.0744 33.0417 18.8932 32.9511 18.8932C32.9813 18.8328 33.0719 18.8932 33.1021 18.8026C32.4679 18.5308 32.3169 18.2287 32.2564 17.5039C31.9242 17.7455 30.8369 18.2589 31.4108 17.4132C31.1993 17.3226 30.5349 16.779 30.2932 17.1414C30.1724 17.3226 29.9912 17.5945 29.81 17.6851C29.3871 17.8965 29.7496 17.8361 29.5986 18.1381C29.3569 18.6214 28.7529 18.561 28.481 18.9838C28.2998 19.2556 28.2394 19.4369 27.9676 19.5577C27.726 19.6785 27.6354 19.3764 27.7562 19.165C27.8468 19.2556 27.9072 19.2858 27.9978 19.1952C28.028 19.0744 27.877 19.1348 27.8166 19.1046C27.9072 18.9536 27.9978 18.8328 28.1186 18.6818C28.0884 18.6516 27.4541 18.561 27.4843 18.4099C27.5145 18.0777 27.0917 18.2589 27.0313 18.1683C27.3635 17.7455 27.3635 17.5643 27.9978 17.232C28.2092 17.1112 29.4476 16.4769 29.6892 16.6582C29.659 16.8092 29.508 16.779 29.4173 16.8394C29.5986 16.8998 30.112 16.93 30.2932 16.8092C30.263 16.779 30.0516 16.4467 30.1422 16.3561C30.112 16.3863 30.5047 16.3561 30.5349 16.3561C30.7463 16.2957 30.9577 16.2957 31.0785 16.0843C31.1691 15.9031 31.8336 15.6615 31.9846 15.7521C32.8303 16.2353 30.8369 16.7488 30.8067 16.6884C30.8369 16.8394 31.3806 16.5978 31.5316 16.9602C31.5618 17.0508 32.1658 17.2622 32.2262 17.1716C32.2564 17.1414 32.045 16.8998 32.045 16.8394C32.6793 17.1414 32.6491 16.9904 32.5585 16.5676C32.4679 16.1447 32.9511 16.5978 32.9511 16.5978C33.0719 16.6582 33.4948 16.3863 33.5552 16.2957C33.4042 16.1749 33.1323 16.1749 32.9813 16.0239C32.8605 15.9031 33.3136 15.8729 33.1625 15.7219C32.9813 15.5708 32.6491 15.6011 32.7699 15.299C32.6491 15.2688 32.5585 15.2688 32.4377 15.3292C32.4679 15.3896 32.5283 15.3292 32.5585 15.3896C32.4377 15.45 32.3169 15.45 32.196 15.45C32.2262 15.3896 32.3471 15.3896 32.3471 15.299C32.0148 15.2688 31.8336 15.45 31.5316 15.5406C31.6222 15.4198 31.743 15.3896 31.8638 15.299C31.5316 15.3292 31.2295 15.45 30.9879 15.6615C31.0181 15.6917 31.0483 15.7219 31.0785 15.7823C30.8369 15.9937 30.5047 16.0541 30.2328 16.2051C30.2932 16.0239 30.4745 16.0541 30.5651 15.9031C30.4443 15.9031 30.3536 15.9333 30.263 15.9635C30.3839 15.9333 30.7463 15.6011 30.8369 15.5104C30.3234 15.45 30.112 16.1145 29.5986 16.0239C29.6892 15.9031 29.9006 15.9635 29.9912 15.7823C29.81 15.8125 29.1153 16.2655 29.0247 16.0239C29.0247 15.9937 30.2932 15.5104 30.4141 15.3292C30.3234 15.3292 30.2328 15.3896 30.1724 15.299C30.2328 15.2386 30.3234 15.2386 30.4141 15.148C29.9912 15.148 28.7831 15.6313 28.8737 15.9333C28.7227 16.0541 28.5415 16.0843 28.3602 16.0239C28.4206 15.9031 28.6925 15.9031 28.481 15.7219C28.0884 15.8729 27.6958 16.0239 27.3031 16.2051C26.397 16.5978 25.5513 17.0508 24.7057 17.5643C23.3465 18.4099 22.1988 19.4067 21.0813 20.5544C20.4772 21.1584 18.212 23.8163 18.212 24.3902C18.212 24.813 17.9703 25.1755 17.8193 25.5379C17.6985 25.8399 17.6683 26.2628 17.5173 26.5346C17.1851 27.1387 17.3361 27.8031 17.1851 28.4978C17.3663 28.3468 17.7589 25.2359 18.0912 25.3567C18.1516 25.3869 17.8797 26.6554 17.8193 26.8064C17.5475 27.4709 17.9099 28.2562 17.7287 28.9207C17.6985 28.9811 17.6079 29.3435 17.6079 29.4039C17.3059 29.6455 17.6985 30.008 17.6985 30.2798C17.6985 30.4308 18.4838 31.1255 18.665 31.2463C18.9972 31.4577 19.0577 31.0953 19.3597 31.1557C19.6315 31.2161 19.7221 31.6994 19.8731 31.941C20.0544 32.243 20.8094 32.2128 20.9605 32.3336C21.0511 32.4544 20.9605 32.9981 21.3229 33.0887C21.3229 33.0585 21.3229 32.8471 21.3531 32.8169C21.4437 32.7565 21.6853 33.1491 21.5947 33.2095C21.4739 33.2397 21.3833 33.2095 21.3229 33.0887C21.3229 33.1491 21.2625 33.874 21.4739 33.7532C21.4739 33.723 21.5041 33.6626 21.5041 33.6021C21.8061 33.723 21.7759 34.1458 21.9572 34.2062C22.229 34.2968 22.4404 34.6291 22.6518 34.7197C22.8331 34.8103 22.7726 34.0552 23.1351 34.025C23.4371 33.9948 23.5881 34.7499 23.6787 34.9311C23.8298 35.2029 23.4673 35.8372 23.6787 36.0486C23.8902 36.26 23.1955 36.7433 23.1351 36.9849C23.1049 37.1359 22.7726 37.2869 22.7726 37.3473C22.8028 37.5286 22.682 37.7702 22.6216 37.9212C22.4404 38.3743 22.531 38.4347 22.8331 38.6461C22.8331 38.6461 22.2592 39.7938 22.5914 40.0656C23.1049 40.4885 23.7996 41.5456 23.9808 42.2101C24.313 43.1162 24.8265 43.69 25.7024 44.1431C26.397 44.5055 26.9105 45.1398 26.9105 45.9855C26.9407 46.4989 26.8501 47.103 27.0615 47.5862C27.2125 47.9185 26.9407 48.4621 27.1521 48.7339C27.3031 48.9152 27.1219 49.036 27.1823 49.187C27.2729 49.3682 27.4541 49.6702 27.4541 49.8817C27.4541 50.2441 27.4541 50.6669 27.4843 51.0294C27.4843 51.1502 27.3635 51.3616 27.4239 51.422C27.5145 51.5126 27.9978 52.7208 27.9978 53.053C27.9978 53.1436 28.3602 53.0228 28.028 52.6906C28.4206 52.4791 28.33 53.4154 28.3602 53.4154C27.9978 53.2946 28.2394 53.3852 28.2696 53.8685C28.2998 54.1403 28.2092 54.0195 28.4206 54.0497C28.7831 54.1403 28.4206 54.3517 28.5415 54.5632C28.8133 54.9558 29.2059 55.288 29.508 55.5901C29.8402 56.0733 30.6255 55.9827 31.1691 56.1035C31.2295 56.1337 31.0483 56.1035 31.1691 56.1035ZM32.6491 18.8932C32.5283 19.014 32.3773 19.014 32.2564 19.0744C32.3471 18.9234 32.4981 18.9234 32.6491 18.8932ZM31.4712 18.8026C31.5618 18.7724 31.6524 18.8026 31.6826 18.863C31.6826 18.8932 31.1993 18.9234 31.1087 19.0442C31.1691 18.8328 31.3504 18.863 31.4712 18.8026C31.5014 18.863 31.3504 18.863 31.4712 18.8026ZM30.263 19.6181C30.3536 19.6483 30.112 19.6181 30.263 19.6181C30.263 19.6181 30.2328 19.6181 30.263 19.6181ZM29.5986 18.3797C29.6288 18.3193 29.6892 18.3495 29.6892 18.4099C29.659 18.4704 29.6288 18.4402 29.5986 18.3797C29.5986 18.3495 29.5986 18.4099 29.5986 18.3797ZM28.9643 20.343C28.7831 20.3127 29.1455 20.343 28.9643 20.343C28.9341 20.343 28.9945 20.343 28.9643 20.343ZM29.1455 19.5879C28.5113 20.1919 28.9945 19.5879 28.8133 19.7691V19.7993C28.7529 19.7389 29.1455 19.5879 29.1455 19.5879C29.0549 19.6483 29.0247 19.5879 29.1455 19.5879ZM28.9039 18.863C28.7831 18.9838 28.7831 18.9838 28.6321 18.9536C28.7227 18.9234 28.8435 18.9234 28.9039 18.863ZM31.743 16.628C31.7128 16.628 31.6524 16.628 31.592 16.628C31.8034 16.4467 31.7732 16.628 31.743 16.628C31.7128 16.628 31.7732 16.628 31.743 16.628ZM32.2262 16.3259C32.1658 16.4165 32.045 16.3561 31.9846 16.3863C32.045 16.2051 32.0752 16.2051 32.2262 16.3259ZM29.6288 16.5373C29.6892 16.4769 29.7496 16.4769 29.81 16.4769C29.9006 16.5676 29.4476 16.5978 29.6288 16.5373C29.659 16.4769 29.6288 16.5373 29.6288 16.5373ZM29.5382 16.4165C29.5986 16.4467 29.5986 16.4769 29.508 16.5071C29.4476 16.4769 29.4476 16.4467 29.5382 16.4165C29.5382 16.4165 29.4778 16.4165 29.5382 16.4165ZM26.1856 22.0947C26.1856 22.0947 25.1889 22.4874 25.2795 22.2458C25.2493 22.3364 25.6117 21.9739 25.5513 22.0041C25.6419 21.9739 26.3064 21.9135 26.4876 21.9437C26.397 22.0041 26.2762 22.0343 26.1856 22.0947C25.9742 22.1551 26.2762 22.0343 26.1856 22.0947ZM27.0011 21.5813C27.8166 21.6719 26.5178 21.9135 26.3668 21.7625C26.548 21.6115 26.7595 21.5511 27.0011 21.5813C27.0615 21.6115 26.7595 21.5511 27.0011 21.5813ZM26.8501 16.4467C27.0615 16.2957 27.3031 16.2051 27.6052 16.1447C27.3937 16.2957 27.1219 16.3863 26.8501 16.4467ZM26.9105 20.9168C26.8803 20.947 26.8501 20.947 26.7897 20.9168C26.8501 20.8866 26.9105 20.8866 26.9105 20.9168C26.9105 20.947 26.9105 20.8866 26.9105 20.9168ZM26.6689 21.4001C26.6387 21.4001 26.5782 21.4001 26.6689 21.4001C26.6689 21.4001 26.6387 21.4001 26.6689 21.4001ZM26.4272 20.9772C26.7293 21.1282 26.548 21.5813 26.3064 21.2188C26.3064 21.4303 25.9138 21.7927 25.7326 21.8531C25.793 21.7625 25.8232 21.6719 25.793 21.5813C25.7326 21.5209 25.6117 21.6719 25.5211 21.6719C25.5513 21.7927 26.0648 20.796 25.6419 21.098C25.4909 21.2188 24.464 22.3062 24.4036 22.2458C24.313 22.1551 24.8567 21.3397 24.8869 21.3095C25.2191 21.0074 25.9742 20.7658 26.4272 20.9772ZM25.8534 17.1414C25.8836 17.1112 26.2158 16.8998 26.2762 16.9602C26.397 17.081 25.7326 17.2622 25.7024 17.2622C25.7326 17.1716 25.793 17.1716 25.8534 17.1414C25.9742 17.081 25.793 17.1716 25.8534 17.1414ZM25.9138 19.8295C25.9138 19.8597 25.793 20.1013 25.7024 19.9805C25.6419 19.9503 25.8836 19.7389 25.9138 19.8295C25.9138 19.9201 25.9138 19.7993 25.9138 19.8295ZM25.1889 17.7757C25.2191 17.7757 25.7628 17.4434 25.793 17.5643C25.793 17.5945 25.1285 17.7757 25.1889 17.7757ZM25.0379 18.3193C25.0077 18.3797 24.9775 18.4099 24.8869 18.4099C24.9171 18.3495 24.9775 18.3495 25.0379 18.3193ZM24.6754 19.6181C24.7359 19.5577 24.9171 19.2858 24.8265 19.165C24.8869 19.2254 24.4942 19.1348 24.6754 19.0744C24.7359 19.0442 25.1587 18.8328 25.2191 18.8932C25.3399 19.014 24.7057 19.6785 24.5546 19.7389C24.5848 19.6785 24.615 19.6483 24.6754 19.6181C24.7661 19.5275 24.615 19.6483 24.6754 19.6181ZM25.0379 20.4638C25.4909 20.3127 25.6722 20.0409 25.944 20.4034C26.0648 20.5242 26.0346 20.8866 25.793 20.796C25.8534 20.8262 25.0379 20.7356 25.1889 20.645C25.0379 20.7356 24.7057 20.8262 24.5244 20.7356C24.6754 20.645 24.8265 20.5242 25.0379 20.4638C25.1587 20.4336 24.8265 20.5242 25.0379 20.4638ZM24.3734 19.5879C24.4036 19.7087 24.3734 19.7691 24.2526 19.7691C24.313 19.7087 24.3432 19.6483 24.3734 19.5879ZM17.8193 29.5549C17.6079 29.5549 18.0005 29.5549 17.8193 29.5549C17.8193 29.5549 17.8495 29.5549 17.8193 29.5549ZM20.4772 31.4577C20.4168 31.4879 20.6282 31.4275 20.4772 31.4577C20.4772 31.4879 20.5074 31.4577 20.4772 31.4577ZM26.9407 33.6021C26.8199 33.5719 27.0615 33.6021 26.9407 33.6021C26.9105 33.6021 26.9407 33.6021 26.9407 33.6021ZM27.9978 52.5395C27.8166 52.5093 28.0884 52.3885 27.9978 52.5395C27.9374 52.5093 27.9978 52.5093 27.9978 52.5395ZM28.4508 43.0557C28.3904 42.9953 28.5113 43.0859 28.4508 43.0557C28.4508 43.0557 28.481 43.0859 28.4508 43.0557ZM28.5415 48.9454C28.4206 49.0058 28.6623 48.9152 28.5415 48.9454C28.5113 48.9756 28.5415 48.9454 28.5415 48.9454ZM29.1455 55.3182C29.0549 55.2578 29.0549 55.2276 29.1455 55.2276C29.2361 55.2578 29.2361 55.288 29.1455 55.3182C29.1153 55.3182 29.1757 55.3182 29.1455 55.3182ZM29.9912 55.6807C29.9006 55.6505 29.9006 55.6203 30.0214 55.5901C30.0818 55.5901 30.0818 55.6505 29.9912 55.6807C29.961 55.6807 29.9912 55.6807 29.9912 55.6807ZM28.2394 53.3248C28.2394 53.3248 28.2092 53.3248 28.2394 53.3248V53.3248ZM22.531 18.9838C22.531 19.014 22.531 19.014 22.531 18.9838V18.9838ZM58.9561 32.9377C58.503 31.3067 58.1708 29.6757 57.5063 28.075C56.6908 26.1722 55.6337 24.3902 54.335 22.7894C53.1268 21.2793 51.7073 19.9201 50.1669 18.7422C49.4119 18.1683 48.6266 17.6549 47.7809 17.2018C47.3882 16.9904 46.9956 16.7488 46.5728 16.5676C46.3915 16.4769 45.7875 16.3259 45.6969 16.1749C45.6969 16.2353 46.0593 16.4165 46.1197 16.4769C45.8781 16.4165 45.2438 16.1447 45.2438 16.1145C45.274 16.0843 45.3042 16.1145 45.3042 16.0541C44.9418 15.8125 43.6128 15.3292 43.341 15.6917C43.4014 15.6011 44.2773 16.628 44.2773 16.8092C44.3377 17.2018 44.9418 17.6247 45.3344 17.7455C45.8781 17.9267 45.4552 17.6851 45.6969 17.5643C45.8479 17.5039 45.9989 17.8059 46.1197 17.7455C46.0895 17.6549 46.0291 17.5945 45.9989 17.5341C45.9687 17.5341 46.9956 18.5912 47.1164 18.3495C46.9956 18.0777 46.8144 17.7455 46.5123 17.4736C46.2707 17.232 45.8479 17.2018 45.576 16.9602C45.425 16.8394 44.9116 16.4467 44.8512 16.2957C45.5458 16.3259 46.3311 17.7757 47.0258 17.2018C46.9352 17.1414 46.8446 17.081 46.754 16.9904C46.8748 17.0206 47.4486 17.2018 47.2674 17.4434C46.7238 17.3528 47.7205 17.8965 47.7507 17.9569C47.6601 17.9569 47.5695 17.8663 47.4789 17.8663C47.5091 18.0475 48.0527 18.2589 48.1131 18.5912C47.7809 18.6516 47.9319 18.3797 47.7205 18.6516C47.6601 18.7422 47.358 18.712 47.207 18.712C46.8144 18.7422 46.3915 18.1079 46.1197 17.8965C46.2405 18.2589 46.4217 18.4099 46.8446 18.6818C47.0258 18.8026 46.5728 18.8328 46.5728 19.014C46.5728 19.014 46.6936 19.0744 46.6936 19.1046C46.6936 19.1348 46.603 19.0442 46.5728 19.014C46.603 18.9838 46.5123 19.6483 46.4821 19.6181C46.7842 19.9805 46.0895 19.8597 46.0593 19.8899C46.1197 19.9805 46.2405 20.0107 46.2405 20.1315C46.0291 20.1315 45.8479 20.1013 45.6667 20.1919C45.9687 20.2825 47.5997 21.0376 47.2372 21.6115C47.1164 21.7927 46.0291 21.5813 45.8177 21.5511C45.3948 21.5209 45.7875 21.9739 45.7875 22.0041C45.8479 22.3364 46.1197 22.4572 46.0895 22.8498C46.0593 23.1216 46.3311 23.1216 46.4217 23.3633C46.5123 23.5445 46.4519 23.5747 46.6634 23.6049C47.0258 23.6653 47.0258 23.6049 47.3278 23.8465C47.5393 24.0277 47.6299 23.6955 47.9017 23.6653C48.5662 23.6351 47.9923 23.5143 48.3245 23.4237C48.7172 23.3029 48.2037 22.6988 48.2339 22.6082C48.2641 22.4572 48.2037 22.276 48.4151 22.2155C48.7474 22.1249 48.3245 21.7927 48.2943 21.7021C48.2339 21.4303 49.2004 21.9437 49.0796 21.249C49.6535 21.4303 50.2273 21.9135 50.7408 22.2155C51.0428 22.3968 51.3449 22.578 51.5865 22.8498C51.8583 23.1821 51.1938 23.0612 51.1636 23.1518C51.1032 23.2727 51.7375 23.5445 51.8281 23.5143C51.8281 23.4539 51.7375 23.1216 51.7375 23.031C51.7073 22.7894 51.3449 22.5478 51.3751 22.3666C51.4959 22.3666 51.5865 22.427 51.6771 22.4874C51.3449 22.0947 50.8012 22.0343 50.4388 21.7625C50.2273 21.5813 49.9253 21.4303 49.7139 21.249C49.7139 21.249 49.3212 20.7356 49.5931 20.8262C50.0159 20.9772 50.4992 21.4303 50.9522 21.6417C51.3147 21.8229 51.3751 21.9437 51.6469 22.2458C51.7375 22.3666 52.2812 23.0008 52.4322 23.031C52.4322 23.031 52.855 23.4237 53.0362 23.4841C52.9456 23.3029 52.8852 23.0612 52.7946 22.9102C52.6738 22.6988 52.1603 22.6082 52.1603 22.3062C52.2812 22.3062 52.2812 22.1853 52.5228 22.2155C52.402 22.2155 52.6738 22.0343 52.6738 22.0645C52.1905 21.7927 51.5563 21.0074 51.4053 20.4638C51.5261 20.4638 51.6167 20.645 51.7375 20.5544C51.7073 20.4638 51.6771 20.3732 51.7073 20.2825C51.7375 20.3127 52.1905 20.7054 52.0999 20.796C51.9791 20.796 51.8885 20.7356 51.7677 20.645C51.8281 20.8866 52.0697 20.8866 52.1603 21.0376C52.1603 20.9772 52.1301 20.9168 52.1905 20.8564C52.5832 21.0074 53.3685 21.6417 53.4893 22.0645C53.3081 22.0947 53.006 21.7323 52.8852 21.8229C52.855 21.9135 52.855 22.0041 52.9154 22.0947C52.855 22.0947 52.8248 22.1249 52.7644 22.1249C52.8248 22.1853 52.855 22.2458 52.8852 22.3062C52.8248 22.3364 52.7644 22.3364 52.704 22.3666C52.7644 22.578 53.9121 23.6955 54.0027 23.5747C54.0329 23.5445 53.9725 23.4237 53.9725 23.3935C54.0329 23.3331 54.2142 23.6351 54.3048 23.5747C54.3954 23.5143 54.2444 23.4237 54.335 23.3935C54.5162 23.3029 55.2109 24.662 55.2713 24.813C55.6035 25.4473 55.3921 25.0546 55.1203 25.1453C55.09 25.2057 55.0598 25.2661 55.0598 25.3567C54.637 25.2661 54.2142 25.0244 53.8819 24.7828C53.3685 24.3902 54.0631 25.8097 53.7309 25.6285C53.5497 25.5379 53.4591 25.3869 53.2477 25.3567C52.9154 25.3265 52.8248 24.9942 52.553 24.8734C52.3114 24.7828 51.3751 24.6922 51.4959 24.2694C51.5865 23.9069 51.1334 23.6049 50.9522 23.4539C50.8616 23.3935 49.8347 23.5143 49.6535 23.5747C49.3817 23.6653 48.8984 23.7559 48.7474 24.0277C48.4756 24.5412 47.8413 23.8767 47.5695 23.9673C47.4486 24.0277 47.5695 24.4506 47.5091 24.5714C47.3882 24.7828 47.1466 24.7828 47.0862 25.0244C46.9654 25.4473 47.2976 25.8097 47.1466 26.2024C47.0258 26.5044 46.4217 26.6554 46.4217 26.897C46.4217 27.0481 46.3915 27.1991 46.2707 27.2595C45.9989 27.4105 46.2707 27.7729 46.1197 27.9542C45.1834 28.8905 46.4217 29.8268 46.2103 30.8537C46.0895 31.4275 46.0291 31.5483 46.2707 32.0618C46.3311 32.1826 46.2707 33.1189 46.754 32.7263C46.8144 33.2699 47.5091 33.3605 47.6299 33.874C47.7809 34.478 48.3547 34.7197 48.838 35.0821C49.0192 35.2331 49.1702 35.4143 49.3816 35.5049C49.7441 35.7164 50.0159 35.4143 50.3784 35.2935C50.7106 35.2029 51.0428 35.2331 51.3449 35.3841C51.5261 35.4747 52.8248 34.5384 53.1873 34.7197C53.4591 34.8405 53.4591 35.1727 53.5799 35.3841C53.7611 35.7164 54.1236 35.2935 54.3652 35.3841C54.788 35.5654 54.9088 37.1359 54.5464 37.438C54.2746 37.6494 54.9088 38.4951 54.9692 38.6763C55.2109 39.1595 55.4223 40.0052 55.3619 40.5489C55.3015 40.9717 55.4223 41.6664 55.1807 42.059C54.939 42.4517 54.788 42.8443 54.5766 43.2974C54.0631 44.4149 54.5464 45.6834 54.1235 46.8613C53.8517 47.4654 53.9121 48.0997 53.7611 48.7037C53.6705 49.0964 53.1872 49.7004 53.3685 50.0931C53.6705 49.8213 54.0933 49.8515 54.4256 49.7004C55.09 49.3682 55.4223 48.5829 55.9055 48.0695C56.1774 47.7976 56.3284 47.4352 56.4794 47.103C56.6304 46.7707 56.9324 46.5593 57.0835 46.2573C57.4157 45.472 57.7479 44.6565 58.0802 43.8712C58.805 42.1497 58.9259 40.4885 59.1675 38.6461C59.3185 36.7131 59.3487 34.8707 58.9561 32.9377ZM57.2647 28.377C57.1741 28.1354 55.9357 26.3534 56.0868 26.2628C56.2378 26.1722 58.8654 30.7631 58.5634 31.4879C58.1708 30.4308 57.6875 29.4341 57.2647 28.377C57.2345 28.377 57.3553 28.5884 57.2647 28.377ZM58.352 36.5319C58.2916 36.411 58.3822 36.2902 58.4124 36.1392C58.4728 36.3204 58.3822 36.411 58.352 36.5319ZM58.2312 37.2567C58.2312 37.1661 58.2312 37.1057 58.2614 37.0755C58.2916 37.1359 58.2614 37.1963 58.2312 37.2567ZM57.8083 43.1766C57.7479 43.1766 57.7177 43.2068 57.6573 43.237C57.5667 43.237 57.8083 43.1162 57.8385 43.1162C57.8083 43.1464 57.8083 43.1464 57.8083 43.1766C57.7479 43.2068 57.8083 43.1464 57.8083 43.1766ZM57.8687 40.7603C57.8687 40.5489 57.8687 40.5187 58.1104 40.3979C58.05 40.5489 57.8687 40.6395 57.8687 40.7603ZM58.1104 39.6428C58.1104 39.2501 58.1104 38.7669 58.1708 38.3743C58.201 39.0689 58.201 39.7334 58.201 40.4281C58.1104 40.3073 58.1104 39.824 58.1104 39.6428C58.1104 39.522 58.1104 39.7938 58.1104 39.6428ZM58.4728 40.9415C58.4728 41.304 58.4124 42.3007 58.1708 42.6027C58.201 41.9986 58.4124 41.4248 58.4124 40.8207C58.4728 40.8509 58.4728 40.8811 58.4728 40.9415C58.4728 40.9717 58.4728 40.8811 58.4728 40.9415ZM58.7446 37.1963C58.654 37.6192 58.7446 37.7702 58.4728 38.0118C58.4728 37.6796 58.352 37.0755 58.6842 36.8641C58.7446 36.9849 58.7748 37.0755 58.7446 37.1963C58.7144 37.3775 58.7748 37.0755 58.7446 37.1963ZM44.4283 58.399C44.4585 58.4594 41.559 59.2749 41.257 59.3353C40.0489 59.5769 38.8407 59.7581 37.6024 59.8185C35.2466 59.9393 32.8001 59.7279 30.5651 59.0332C30.8671 59.0634 31.1993 59.2144 31.5014 59.154C31.2295 58.9728 30.8671 59.0332 30.6255 58.8218C31.5618 58.9728 32.4679 58.9124 33.3136 59.003C33.2229 58.8822 32.4377 58.701 32.4377 58.6104C32.5585 58.6104 33.1625 58.5802 33.1927 58.55C33.4646 58.3386 32.7397 58.3688 32.8001 58.1875C32.8303 58.1573 33.0417 58.2177 33.1021 58.1271C33.2229 57.9761 33.1021 57.8855 33.1323 57.8251C33.1625 57.7647 34.3103 57.5533 34.4311 57.6137C34.2801 57.7043 34.129 57.6137 34.1895 57.8251C34.0686 57.7949 33.7364 57.8251 33.7062 57.9761C33.7062 57.9459 34.0988 58.4594 34.0988 58.4896C34.2499 58.701 34.7029 58.8218 34.7331 59.0634C34.8237 59.4863 36.9681 59.4259 37.3004 59.3957C38.1159 59.3051 38.8709 59.003 39.6562 58.8822C40.1395 58.7916 40.5925 58.6708 41.0758 58.6104C41.2872 58.5802 42.0423 58.3386 42.2235 58.399C42.2839 58.8218 44.0055 58.3386 44.4283 58.399C44.4283 58.4292 44.3377 58.399 44.4283 58.399ZM57.5667 45.8042C57.6573 45.5626 57.7479 45.321 57.8385 45.1096C57.7781 45.3512 57.6573 45.5626 57.5667 45.8042ZM57.9594 44.8679C57.9594 44.8377 57.9896 44.8075 57.9896 44.7773C57.9896 44.8075 57.9594 44.8377 57.9594 44.8679ZM32.9813 14.9668C32.8605 14.9366 32.7397 14.9668 32.5887 14.9366C32.6491 14.8762 33.0417 14.8762 32.8907 14.7554C33.4042 14.4231 34.5217 14.3627 35.1257 14.4533C35.7902 14.5439 36.4849 14.3325 37.1494 14.4231C37.4212 14.4533 37.6628 14.4835 37.9346 14.4835C38.1763 14.5137 37.9044 14.7554 38.1763 14.7856C38.3273 14.8158 38.6595 15.148 38.7803 15.0876C38.7803 15.3292 38.6595 15.148 38.7501 15.3896C38.7803 15.45 39.0522 15.6011 39.022 15.6313C38.9918 15.6615 38.2367 15.6011 38.2669 15.6313C38.2065 15.6313 38.2669 15.7521 38.3273 15.7219C38.4783 15.7521 38.8105 15.7219 38.9616 15.7219C38.5689 16.0843 37.9951 16.0239 37.5722 16.2957C37.3004 16.4769 36.9077 16.4467 36.6359 16.5676C36.6359 16.8696 36.4245 17.2018 36.2131 17.5039C36.062 17.7153 35.0955 17.232 35.0049 17.1112C34.7935 16.8696 34.3103 16.2051 34.8237 15.9937C35.458 15.7521 34.8237 15.9333 34.6425 15.8125C34.7935 15.6011 34.9747 15.6615 35.2164 15.6917C35.0955 15.5104 34.9445 15.4802 34.7633 15.5708C34.7029 15.3896 35.0351 15.2386 34.7331 15.0272C34.6123 14.9366 33.9478 15.0272 33.9176 14.9064C33.8874 14.6043 34.7331 14.7856 34.8841 14.5439C34.2801 14.4231 33.5854 15.0574 32.9813 14.9668C32.8303 14.9366 33.0719 14.9668 32.9813 14.9668ZM45.0022 19.316C45.0928 19.316 44.8512 18.9838 44.821 18.9234C44.8814 18.9234 44.9418 18.9536 45.0324 18.8932C44.972 18.7422 44.3075 18.3495 44.2773 18.3797C44.0357 18.5308 43.7035 17.8361 43.6733 17.7455C44.0961 17.6851 44.3679 18.1381 44.7606 18.3495C45.0928 18.5006 46.2707 19.0744 46.3311 19.4369C46.3613 19.6181 45.425 19.5577 45.3042 19.7389C45.1834 19.4671 45.5458 19.4671 45.5156 19.4067C45.4552 19.316 45.0324 19.316 45.0022 19.316C44.972 19.316 45.123 19.2858 45.0022 19.316ZM32.8303 19.6483C32.7699 19.6785 31.9544 20.4638 31.9846 20.5242C32.0148 20.5846 32.8303 20.5544 32.9511 20.6148C32.9511 20.7054 32.8303 20.6752 32.8303 20.7356C32.9511 20.7356 33.2834 20.5242 33.3136 20.5846C33.3136 20.645 33.3136 20.7054 33.2834 20.7356C33.6458 21.098 33.6156 20.3127 33.6458 20.2825C33.374 20.2523 33.7062 19.8899 33.2834 20.0409C33.3136 20.0409 32.8303 19.8899 32.8303 19.9201C32.8001 19.8899 33.1927 19.5577 33.2229 19.4973C32.9511 19.4671 32.9209 19.5577 32.8303 19.6483C32.6793 19.7389 32.8605 19.6181 32.8303 19.6483ZM33.6156 20.494C33.6458 20.5242 33.5552 20.5242 33.6156 20.494V20.494ZM33.4344 20.4638C33.4646 20.4336 33.5854 20.3732 33.4948 20.4638C33.4948 20.5242 33.374 20.5544 33.4344 20.4638C33.4344 20.4638 33.4344 20.494 33.4344 20.4638ZM32.1356 20.2825C32.1658 20.2825 32.1658 20.2825 32.196 20.3127C32.1658 20.2825 32.0752 20.2825 32.1356 20.2825C32.1658 20.2825 32.1356 20.2825 32.1356 20.2825ZM24.2224 29.7965C24.011 29.8268 24.3734 29.6153 24.3432 29.5549C24.1922 29.2227 23.1653 29.1321 23.0747 28.8602C23.1049 28.83 23.1653 28.7998 23.1653 28.7696C22.8029 28.6186 22.6216 29.0717 22.3196 29.0415C22.9841 27.924 24.6452 29.1925 25.3097 29.7361C24.9171 29.7361 24.5546 29.7663 24.2224 29.7965C24.1922 29.7965 24.4036 29.7663 24.2224 29.7965ZM25.0681 30.4006C24.9171 30.3402 25.6117 30.3402 25.7326 30.31C25.5815 30.0986 25.7326 29.9778 25.4305 29.8872C25.6722 29.5851 26.5178 29.9476 26.7595 30.0684C26.7293 30.0986 26.6991 30.0684 26.6689 30.1288C26.6991 30.159 27.2427 30.612 26.8803 30.461C26.4876 30.2798 26.246 30.5214 25.9742 30.7026C25.7326 30.3402 25.3701 30.5516 25.0681 30.4006C25.0379 30.4006 25.1587 30.4308 25.0681 30.4006ZM44.3981 18.863C44.7908 19.2556 44.1867 19.5879 43.9149 19.316C43.7941 19.165 43.8545 18.863 43.5524 18.7724C43.643 18.7422 43.7035 18.712 43.7941 18.6818C43.6128 18.1683 44.3075 18.7422 44.3981 18.863C44.4887 18.9536 44.3679 18.8328 44.3981 18.863ZM39.3542 16.4165C39.324 16.3259 39.8979 16.3863 40.0187 16.3561C40.1697 16.3259 41.3174 16.4467 40.9248 16.628C40.5925 16.779 40.1395 16.93 39.8374 16.6582C39.7468 16.5978 39.3542 16.4165 39.3542 16.4165C39.3542 16.3561 39.3844 16.5071 39.3542 16.4165ZM49.9253 22.1551C50.0763 22.1551 50.3784 22.6686 50.3482 22.7592C50.1971 23.0008 49.9253 22.3968 49.7743 22.276C49.8045 22.2458 49.8649 22.2155 49.9253 22.1551ZM31.8638 15.1178C32.2564 14.8158 32.3471 14.997 32.8303 15.0574C32.6793 15.1782 32.2866 15.2084 31.8638 15.1178C31.9544 15.0272 32.2866 15.2084 31.8638 15.1178ZM40.5623 14.7856C40.2603 14.695 39.9583 14.695 39.6864 14.5741C40.0187 14.5439 40.4415 14.6648 40.6831 14.7252C40.7435 14.7554 40.5623 14.7856 40.5623 14.7856C40.2905 14.695 40.5925 14.7856 40.5623 14.7856ZM39.6864 14.5741C39.6562 14.5741 39.626 14.5741 39.5958 14.5741C39.626 14.5439 39.6562 14.5439 39.6864 14.5741C39.6562 14.5741 39.6864 14.5741 39.6864 14.5741ZM24.313 30.4308C24.3734 30.4308 24.4036 30.461 24.4338 30.5214C24.4036 30.7026 23.8902 30.461 23.8298 30.3704C23.9808 30.2798 24.162 30.3402 24.313 30.4308ZM27.9676 30.4006C27.726 31.0651 27.0313 29.9476 27.9676 30.4006C27.9374 30.5214 27.8166 30.3402 27.9676 30.4006ZM29.0549 33.6324C29.0549 33.6021 29.0851 33.6021 29.1153 33.6021C29.0851 33.6324 29.0549 33.6324 29.0549 33.6324ZM29.1455 33.6324C29.1455 33.6324 29.2059 33.3605 29.3871 33.3605C29.5986 33.4511 29.2361 33.6324 29.1455 33.6324C29.1153 33.6324 29.3569 33.6626 29.1455 33.6324ZM31.2899 14.9668C31.1087 15.0876 30.8973 14.997 30.6859 15.0876C30.9577 14.9064 31.0785 14.9366 31.2899 14.9668C31.1087 15.0876 31.2597 14.9668 31.2899 14.9668ZM24.4338 28.377C24.3734 28.1052 24.2526 28.1052 24.4338 27.8635C24.5244 28.1052 24.5244 28.2562 24.4338 28.377C24.4036 28.2562 24.5244 28.2562 24.4338 28.377ZM19.4805 37.8004C19.4805 37.891 19.4201 37.9514 19.3295 37.891C19.2993 37.8608 19.2691 37.5286 19.3295 37.4682C19.3899 37.589 19.4503 37.7098 19.4805 37.8004C19.5107 37.8608 19.4503 37.7098 19.4805 37.8004ZM30.9275 19.9503C31.1389 19.9503 31.3201 20.0107 31.5014 20.1617C31.2597 20.1919 31.0785 20.1013 30.9275 19.9503ZM49.8347 22.0645C49.7743 22.0343 49.4119 21.8229 49.5629 21.7021C49.6837 21.6115 49.8347 22.0343 49.8347 22.0645ZM53.6705 23.9673C53.6101 23.8767 53.4591 23.9371 53.3987 23.7861C53.5195 23.8465 53.6705 23.8163 53.7913 23.9069C53.7611 23.9673 53.7007 23.9975 53.6705 23.9673C53.6101 23.8767 53.7007 23.9975 53.6705 23.9673ZM31.6222 15.1178C31.592 15.0574 31.5316 15.0876 31.4712 15.0574C31.592 14.9366 31.7128 14.997 31.8336 14.9366C31.8638 14.9366 31.7128 15.2084 31.6222 15.1178C31.592 15.0574 31.6524 15.148 31.6222 15.1178ZM30.9879 15.2386C30.8067 15.3594 30.6557 15.4802 30.4141 15.4802C30.5651 15.299 30.7765 15.299 30.9879 15.2386ZM30.9275 20.8866C30.9879 20.8866 31.0181 20.8866 31.1087 20.8866C30.8973 21.1584 30.6255 20.7658 30.6859 20.7658C30.6255 20.7658 30.8973 20.8866 30.9275 20.8866C30.9577 20.9168 30.8369 20.8866 30.9275 20.8866ZM31.0181 15.3594C31.1691 15.2386 31.3504 15.2084 31.5618 15.2386C31.3806 15.3292 31.1993 15.3594 31.0181 15.3594ZM48.8682 22.6988C48.687 22.6686 49.2004 22.5176 49.0192 22.7592C48.989 22.729 48.9286 22.729 48.8682 22.6988C48.8682 22.6988 48.9286 22.6988 48.8682 22.6988ZM54.5766 23.9975C54.4558 23.9371 54.4256 23.8767 54.4558 23.7559C54.5464 23.8163 54.6068 23.8767 54.5766 23.9975ZM31.4108 16.1749C31.4712 16.0541 31.5316 16.0239 31.7732 16.0239C31.6524 16.1749 31.5316 16.1749 31.4108 16.1749ZM29.7496 16.9602C29.6288 17.0206 29.508 17.081 29.3871 17.081C29.4778 16.9602 29.5986 16.9602 29.7496 16.9602ZM43.4618 17.8965C43.4316 17.9569 43.4618 17.9871 43.492 18.0173C43.4618 17.9871 43.2806 17.8059 43.4014 17.7757C43.4618 17.7757 43.492 17.8361 43.4618 17.8965C43.4316 17.9267 43.492 17.8663 43.4618 17.8965ZM22.8029 29.0717C22.8029 29.1623 22.7424 29.1925 22.682 29.1925C22.6518 29.1321 22.7726 28.9509 22.8029 29.0717C22.8331 29.1321 22.8029 29.0415 22.8029 29.0717ZM30.5047 52.7812C30.5651 52.8114 30.5953 52.8416 30.5953 52.902C30.5953 53.1134 30.2328 52.8114 30.5047 52.7812C30.5349 52.7812 30.4443 52.8114 30.5047 52.7812ZM29.9912 17.0508C29.961 17.1112 29.9006 17.1414 29.7798 17.1716C29.8402 17.081 29.9006 17.081 29.9912 17.0508ZM19.6617 37.7702C19.6315 38.0118 19.5711 37.5588 19.6617 37.7702C19.6617 37.8004 19.6315 37.74 19.6617 37.7702ZM31.5014 17.4434C31.5014 17.4434 31.5316 17.4434 31.5014 17.4434C31.5014 17.4736 31.441 17.4736 31.5014 17.4434ZM30.4745 15.2688C30.4443 15.2688 30.4141 15.2688 30.4141 15.2688C30.4141 15.2688 30.4443 15.2688 30.4745 15.2688ZM30.3839 15.299C30.3839 15.299 30.4141 15.2688 30.3839 15.299C30.4141 15.2688 30.3839 15.2688 30.3839 15.299ZM30.2932 15.3292C30.3234 15.299 30.3536 15.299 30.3839 15.299C30.3536 15.3292 30.3234 15.3292 30.2932 15.3292ZM31.0181 15.3594C31.0181 15.3896 30.9879 15.3896 30.9577 15.3896C30.9577 15.3594 30.9879 15.3594 31.0181 15.3594ZM22.6216 38.7367C22.5612 38.7065 22.6518 38.7669 22.6216 38.7367C22.5914 38.7367 22.6216 38.7669 22.6216 38.7367ZM47.0258 17.1414C47.1768 17.1716 47.0258 17.1716 47.0258 17.1414C47.0258 17.1414 47.0258 17.1716 47.0258 17.1414ZM43.492 18.0173C43.5222 18.0173 43.5222 18.0173 43.492 18.0173C43.5222 18.0173 43.5222 18.0173 43.492 18.0173C43.492 18.0173 43.5222 18.0173 43.492 18.0173ZM30.8973 15.3896H30.9275C30.9275 15.4198 30.8973 15.4198 30.8973 15.3896ZM33.5854 37.1963C33.4948 37.1359 33.6156 37.1359 33.5854 37.1963C33.5552 37.1661 33.5854 37.1661 33.5854 37.1963ZM44.4283 58.399C44.4283 58.399 44.3981 58.399 44.4283 58.399V58.399ZM26.1856 21.0074C26.1856 21.0074 26.397 20.9772 26.3366 21.0678C26.246 21.1282 26.1856 21.098 26.1856 21.0074C26.1856 21.0074 26.1856 21.0678 26.1856 21.0074ZM24.8265 19.165C24.7661 19.1348 24.7661 19.0744 24.8567 19.0442C24.9473 19.0744 24.9473 19.1046 24.8265 19.165C24.7963 19.165 24.8869 19.1348 24.8265 19.165Z" fill="#FEDD15"/>
<path d="M36.515 13.517C23.5579 13.517 13.017 24.0579 13.017 37.015C13.017 49.9722 23.5579 60.5131 36.515 60.5131C49.4722 60.5131 60.0131 49.9722 60.0131 37.015C60.0131 24.0579 49.4722 13.517 36.515 13.517ZM36.515 59.1842C24.2828 59.1842 14.3459 49.2473 14.3459 37.015C14.3459 24.7828 24.2828 14.8459 36.515 14.8459C48.7473 14.8459 58.6842 24.7828 58.6842 37.015C58.6842 49.2473 48.7171 59.1842 36.515 59.1842Z" fill="black"/>
<path d="M14.3765 22.7592C14.1348 22.3666 13.9234 21.9739 13.712 21.5813L12.5341 22.2156C12.7455 22.6082 12.9871 23.0311 13.2287 23.4539L14.3765 22.7592Z" fill="black"/>
<path d="M10.8423 14.5137C10.7517 14.0909 10.6913 13.668 10.6611 13.2754L9.33215 13.3056C9.36236 13.7888 9.45297 14.3023 9.57378 14.8158L10.8423 14.5137Z" fill="black"/>
<path d="M12.2918 18.7421C12.1106 18.3193 11.9294 17.8964 11.7784 17.5038L10.54 17.9568C10.7213 18.3797 10.9025 18.8327 11.1139 19.2858L12.2918 18.7421Z" fill="black"/>
<path d="M55.2412 63.2918L55.6943 62.0535C55.3016 61.9025 54.8788 61.7213 54.4559 61.54L53.8821 62.7482C54.3653 62.9294 54.8184 63.1408 55.2412 63.2918Z" fill="black"/>
<path d="M59.8928 64.5L59.923 63.1711C59.5303 63.1409 59.1075 63.0805 58.6847 62.9899L58.3524 64.2886C58.9263 64.3792 59.4397 64.4698 59.8928 64.5Z" fill="black"/>
<path d="M51.0131 61.2985L51.6473 60.1205C51.2547 59.9091 50.862 59.6675 50.4694 59.4561L49.8049 60.6038C50.1976 60.8152 50.6204 61.0568 51.0131 61.2985Z" fill="black"/>
<path d="M61.523 11.3726L62.4593 10.4061C58.6235 7.41594 49.7437 12.5807 45.6361 15.2688L46.361 16.3863C54.7877 10.8591 59.6202 10.1342 61.523 11.3726Z" fill="black"/>
<path d="M9.90654 62.9898L10.873 62.0233C9.63471 60.1205 10.3596 55.288 15.8868 46.8915L14.7693 46.1666C12.0812 50.2743 6.91643 59.154 9.90654 62.9898Z" fill="black"/>
<path d="M55.1514 30.0382C54.9098 30.3704 54.638 30.7329 54.3964 31.0651L55.4535 31.8504C55.7253 31.488 55.9669 31.1255 56.2388 30.7933L55.1514 30.0382Z" fill="black"/>
<path d="M52.5231 33.5417C52.2513 33.874 51.9795 34.2062 51.7076 34.5385L52.7346 35.3841C53.0064 35.0519 53.2782 34.6895 53.55 34.3572L52.5231 33.5417Z" fill="black"/>
<path d="M49.714 36.9244C49.4421 37.2567 49.1401 37.5889 48.8683 37.8909L49.865 38.7668C50.167 38.4346 50.4388 38.1024 50.7409 37.7701L49.714 36.9244Z" fill="black"/>
<path d="M61.6443 18.7422C61.4932 19.1046 61.3422 19.4973 61.161 19.8899L62.3691 20.4336C62.5504 20.0107 62.7316 19.5879 62.8826 19.1952L61.6443 18.7422Z" fill="black"/>
<path d="M57.6273 26.4138C57.4159 26.7763 57.1742 27.1085 56.9326 27.4709L58.0501 28.226C58.2918 27.8636 58.5334 27.4709 58.775 27.1085L57.6273 26.4138Z" fill="black"/>
<path d="M62.6714 14.6949C62.6412 15.0574 62.5808 15.45 62.5204 15.8427L63.8191 16.1447C63.9097 15.6312 63.9701 15.1782 64.0003 14.7251L62.6714 14.6949Z" fill="black"/>
<path d="M42.8578 44.2639L43.7941 45.2002C43.9451 45.0492 44.0961 44.8982 44.2471 44.7471C44.3982 44.5961 44.5492 44.4451 44.7002 44.2941L43.7639 43.3578C43.6129 43.5088 43.4619 43.6598 43.3108 43.8108C43.1598 43.9619 43.0088 44.1129 42.8578 44.2639Z" fill="black"/>
<path d="M59.8327 22.6686C59.6515 23.031 59.4401 23.3935 59.2286 23.7861L60.3764 24.4506C60.5878 24.0579 60.8294 23.6653 61.0106 23.2726L59.8327 22.6686Z" fill="black"/>
<path d="M46.7843 40.1864C46.4823 40.4884 46.2105 40.8207 45.9084 41.1227L46.875 42.0288C47.177 41.6966 47.479 41.3945 47.781 41.0623L46.7843 40.1864Z" fill="black"/>
<path d="M22.1688 60.332L22.7729 61.5099C23.1655 61.2985 23.5582 61.087 23.9508 60.8756L23.2863 59.7279C22.8937 59.9393 22.5313 60.1507 22.1688 60.332Z" fill="black"/>
<path d="M18.2424 62.1441L18.6955 63.3825C19.0881 63.2315 19.511 63.0502 19.9338 62.869L19.3902 61.6609C18.9975 61.8421 18.6049 61.9931 18.2424 62.1441Z" fill="black"/>
<path d="M25.9138 58.1271L26.6085 59.2446C26.9709 59.003 27.3334 58.7614 27.726 58.5197L26.9709 57.4022C26.6085 57.6741 26.2763 57.9157 25.9138 58.1271Z" fill="black"/>
<path d="M14.2255 64.5C14.6786 64.4698 15.1618 64.4094 15.6451 64.2886L15.343 62.9899C14.9504 63.0805 14.5578 63.1107 14.1953 63.1409L14.2255 64.5Z" fill="black"/>
<path d="M33.0116 53.0228L33.8271 54.0799C34.1895 53.8081 34.5218 53.5363 34.854 53.2645L34.0083 52.2375C33.6761 52.5094 33.3438 52.751 33.0116 53.0228Z" fill="black"/>
<path d="M36.395 50.2139L37.2709 51.2408C37.6031 50.9689 37.9354 50.6669 38.2676 50.3649L37.3917 49.3682C37.0595 49.6702 36.7273 49.942 36.395 50.2139Z" fill="black"/>
<path d="M29.5386 55.6806L30.3239 56.7679C30.6863 56.5263 31.0185 56.2545 31.381 55.9827L30.5957 54.9255C30.203 55.1672 29.8708 55.4088 29.5386 55.6806Z" fill="black"/>
<path d="M39.6866 47.3144L40.5927 48.2809C40.925 47.9789 41.227 47.6769 41.5592 47.3748L40.6531 46.4083C40.2907 46.7104 39.9887 47.0124 39.6866 47.3144Z" fill="black"/>
<path d="M60.2551 49.3984C56.7213 43.2369 50.8921 35.9278 44.2474 29.2831C37.3007 22.3363 30.0217 16.5675 23.7092 13.0337C17.3968 9.49997 12.8663 8.59387 10.5406 10.4061L11.5072 11.3726C13.3797 10.1342 17.6384 11.1611 23.075 14.2117C29.2364 17.685 36.455 23.3632 43.3111 30.2193C56.6609 43.5692 65.0574 57.8251 62.1579 62.0233L63.0942 62.9596C64.9366 60.6037 63.9399 55.8316 60.2551 49.3984Z" fill="black"/>
</g>
<defs>
<clipPath id="clip0">
<rect width="55" height="55" fill="white" transform="translate(9 9.5)"/>
</clipPath>
</defs>
</svg>
