<svg width="48" height="48" viewBox="0 0 48 48" fill="none" xmlns="http://www.w3.org/2000/svg">
<path d="M20.3399 34.8914C15.4096 34.8914 11.3984 29.3234 11.3984 22.4789C11.3984 15.6344 15.4096 10.0664 20.3399 10.0664C21.1438 10.0671 21.941 10.2138 22.6925 10.4994C22.7719 10.5294 22.8361 10.5897 22.8711 10.667C22.906 10.7444 22.9088 10.8325 22.8788 10.9118C22.8488 10.9912 22.7884 11.0555 22.7111 11.0904C22.6337 11.1253 22.5457 11.1281 22.4663 11.0981C21.787 10.8399 21.0665 10.7072 20.3399 10.7064C15.7639 10.7064 12.0384 15.9864 12.0384 22.4789C12.0384 28.9714 15.7626 34.2514 20.3399 34.2514C24.209 34.2514 27.6192 30.3647 28.4484 25.0095C28.4542 24.9674 28.4683 24.9269 28.4899 24.8903C28.5115 24.8537 28.5402 24.8218 28.5743 24.7964C28.6084 24.7711 28.6472 24.7528 28.6884 24.7425C28.7297 24.7323 28.7725 24.7304 28.8145 24.7369C28.8565 24.7435 28.8967 24.7583 28.9329 24.7805C28.9691 24.8028 29.0005 24.832 29.0253 24.8665C29.0501 24.901 29.0677 24.9401 29.0772 24.9815C29.0868 25.0229 29.0879 25.0658 29.0807 25.1077C28.2029 30.7768 24.5268 34.8914 20.3399 34.8914Z" fill="black"/>
<path d="M23.552 39.8171H17.786C17.7356 39.817 17.686 39.8051 17.6411 39.7824C17.5962 39.7597 17.5573 39.7267 17.5274 39.6862L13.105 33.6398C13.0751 33.5989 13.0554 33.5514 13.0474 33.5013C13.0395 33.4513 13.0435 33.4 13.0593 33.3518L13.8826 30.8437C13.895 30.8029 13.9154 30.765 13.9427 30.7322C13.9699 30.6995 14.0034 30.6725 14.0412 30.6528C14.079 30.6332 14.1203 30.6213 14.1628 30.6178C14.2053 30.6144 14.248 30.6194 14.2885 30.6327C14.329 30.646 14.3664 30.6672 14.3986 30.6951C14.4307 30.7231 14.457 30.7571 14.4758 30.7953C14.4947 30.8336 14.5057 30.8752 14.5082 30.9177C14.5107 30.9602 14.5048 31.0028 14.4906 31.043L13.7185 33.395L17.9482 39.1771H23.3783L27.2183 33.2571L26.2061 31.0773C26.1868 31.039 26.1754 30.9972 26.1726 30.9544C26.1698 30.9116 26.1756 30.8687 26.1897 30.8282C26.2037 30.7877 26.2258 30.7504 26.2546 30.7186C26.2834 30.6868 26.3182 30.6611 26.3571 30.6431C26.396 30.625 26.4381 30.6149 26.481 30.6135C26.5238 30.612 26.5666 30.6192 26.6066 30.6345C26.6466 30.6499 26.6832 30.6732 26.714 30.7029C26.7449 30.7327 26.7695 30.7684 26.7863 30.8078L27.8743 33.148C27.8971 33.1971 27.907 33.2512 27.9032 33.3052C27.8994 33.3592 27.882 33.4113 27.8525 33.4568L23.8205 39.6712C23.7915 39.716 23.7517 39.7528 23.7048 39.7783C23.6579 39.8037 23.6054 39.8171 23.552 39.8171Z" fill="black"/>
<path d="M37.212 44.7993H20.4728C20.388 44.7993 20.3066 44.7656 20.2466 44.7056C20.1865 44.6456 20.1528 44.5642 20.1528 44.4793C20.1528 44.3944 20.1865 44.313 20.2466 44.253C20.3066 44.193 20.388 44.1593 20.4728 44.1593H36.892V39.5932C36.8933 39.1473 36.7615 38.7111 36.5135 38.3406C36.2654 37.97 35.9125 37.6819 35.4997 37.5132C35.4897 37.5093 35.48 37.5047 35.4706 37.4994C33.8322 36.6233 32.1592 35.831 30.5426 35.0642C29.4671 34.5548 28.4511 34.0722 27.4405 33.5676C27.3646 33.5294 27.307 33.4626 27.2803 33.3819C27.2536 33.3013 27.2601 33.2133 27.2983 33.1374C27.3365 33.0614 27.4032 33.0038 27.4839 32.9771C27.5646 32.9505 27.6526 32.9569 27.7285 32.9951C28.7327 33.4982 29.7445 33.9782 30.8178 34.486C32.4379 35.254 34.1138 36.0473 35.7608 36.9276C36.2869 37.1465 36.7361 37.5165 37.0518 37.9909C37.3675 38.4652 37.5354 39.0225 37.5343 39.5922V44.4793C37.5343 44.5215 37.5259 44.5633 37.5097 44.6023C37.4935 44.6412 37.4697 44.6766 37.4397 44.7064C37.4098 44.7361 37.3743 44.7596 37.3352 44.7756C37.2961 44.7915 37.2542 44.7996 37.212 44.7993Z" fill="black"/>
<path d="M20.4728 44.8017H3.73358C3.64871 44.8017 3.56732 44.7679 3.50731 44.7079C3.44729 44.6479 3.41358 44.5665 3.41358 44.4817V39.5956C3.41248 39.0258 3.58042 38.4684 3.89616 37.9941C4.2119 37.5198 4.66125 37.1498 5.18734 36.9309C7.82478 35.5229 10.3425 34.4221 13.0078 33.2589L13.2347 33.1597C13.2734 33.1414 13.3154 33.131 13.3583 33.1292C13.4011 33.1274 13.4438 33.1342 13.4839 33.1492C13.5241 33.1643 13.5608 33.1872 13.5919 33.2167C13.623 33.2462 13.6478 33.2816 13.665 33.3208C13.6821 33.3601 13.6912 33.4024 13.6917 33.4453C13.6922 33.4881 13.6841 33.5306 13.6678 33.5703C13.6515 33.6099 13.6275 33.6459 13.5971 33.6761C13.5667 33.7063 13.5305 33.73 13.4907 33.746L13.2635 33.8455C10.6056 35.0058 8.09518 36.1015 5.47502 37.5028C5.4656 37.5079 5.45587 37.5125 5.4459 37.5165C5.03309 37.6852 4.68003 37.9733 4.43193 38.3438C4.18383 38.7144 4.05197 39.1506 4.05326 39.5965V44.1617H20.4725C20.5573 44.1617 20.6387 44.1954 20.6987 44.2554C20.7587 44.3154 20.7925 44.3968 20.7925 44.4817C20.7925 44.5665 20.7587 44.6479 20.6987 44.7079C20.6387 44.7679 20.5573 44.8017 20.4725 44.8017H20.4728Z" fill="black"/>
<path d="M15.9944 44.8002C15.9431 44.8002 15.8926 44.7878 15.8471 44.7641C15.8016 44.7404 15.7625 44.7061 15.733 44.6642C15.7035 44.6222 15.6845 44.5737 15.6777 44.5229C15.6708 44.4721 15.6763 44.4203 15.6936 44.3721L17.4856 39.3897C17.4903 39.3762 17.496 39.3632 17.5026 39.3506L20.0578 34.4226C20.0835 34.373 20.1218 34.331 20.1689 34.3008C20.2159 34.2705 20.2701 34.2532 20.3259 34.2504C20.3817 34.2476 20.4373 34.2595 20.4871 34.2849C20.5369 34.3103 20.5792 34.3483 20.6098 34.3951L23.821 39.3231C23.8381 39.3493 23.8514 39.3779 23.8603 39.4079L25.3157 44.3906C25.3275 44.431 25.3312 44.4732 25.3266 44.515C25.322 44.5568 25.3093 44.5972 25.2891 44.6341C25.2689 44.6709 25.2416 44.7034 25.2088 44.7297C25.1761 44.756 25.1384 44.7756 25.0981 44.7874C25.0578 44.7992 25.0155 44.8029 24.9737 44.7983C24.932 44.7937 24.8915 44.781 24.8546 44.7608C24.8178 44.7406 24.7853 44.7133 24.759 44.6806C24.7327 44.6478 24.7131 44.6102 24.7013 44.5698L23.2591 39.6328L20.3733 35.2056L18.0802 39.6261L16.2959 44.5884C16.2736 44.6504 16.2327 44.7041 16.1787 44.742C16.1247 44.7799 16.0604 44.8003 15.9944 44.8002Z" fill="black"/>
<path d="M33.0695 26.2328C30.7917 26.2328 28.5651 25.5574 26.6711 24.2919C24.7772 23.0264 23.301 21.2277 22.4294 19.1232C21.5577 17.0188 21.3297 14.7031 21.7741 12.4691C22.2185 10.235 23.3154 8.18295 24.926 6.5723C26.5367 4.96166 28.5889 3.86482 30.8229 3.42048C33.057 2.97613 35.3726 3.20425 37.4771 4.07598C39.5815 4.94771 41.3801 6.4239 42.6456 8.31787C43.911 10.2118 44.5864 12.4385 44.5863 14.7163C44.5829 17.7697 43.3684 20.697 41.2093 22.856C39.0502 25.015 36.1229 26.2294 33.0695 26.2328Z" fill="#FEDD15"/>
<path d="M33.0693 22.4729C31.9981 22.4718 30.9711 22.0456 30.2137 21.2881C29.4563 20.5306 29.0303 19.5035 29.0293 18.4323C29.0293 18.3474 29.063 18.266 29.123 18.206C29.183 18.146 29.2644 18.1123 29.3493 18.1123C29.4342 18.1123 29.5156 18.146 29.5756 18.206C29.6356 18.266 29.6693 18.3474 29.6693 18.4323C29.6683 19.105 29.8669 19.7628 30.24 20.3225C30.613 20.8823 31.1437 21.3188 31.7648 21.5769C32.386 21.835 33.0698 21.903 33.7297 21.7724C34.3895 21.6417 34.9958 21.3183 35.4718 20.843C35.9477 20.3677 36.272 19.7618 36.4036 19.1022C36.5352 18.4425 36.4681 17.7586 36.2109 17.1371C35.9537 16.5155 35.518 15.9842 34.9587 15.6104C34.3995 15.2366 33.742 15.0371 33.0693 15.0371C32.2708 15.0367 31.4903 14.7996 30.8266 14.3558C30.1628 13.9119 29.6455 13.2812 29.3401 12.5434C29.0348 11.8057 28.9549 10.9939 29.1108 10.2108C29.2667 9.42763 29.6512 8.70829 30.2159 8.14367C30.7805 7.57905 31.4998 7.19449 32.283 7.03862C33.0661 6.88275 33.8778 6.96256 34.6156 7.26795C35.3534 7.57335 35.9841 8.09062 36.428 8.75438C36.8718 9.41815 37.1089 10.1986 37.1093 10.9971C37.1093 11.082 37.0756 11.1634 37.0156 11.2234C36.9556 11.2834 36.8742 11.3171 36.7893 11.3171C36.7044 11.3171 36.623 11.2834 36.563 11.2234C36.503 11.1634 36.4693 11.082 36.4693 10.9971C36.4693 10.3246 36.2699 9.66729 35.8963 9.10816C35.5227 8.54903 34.9917 8.11325 34.3704 7.85591C33.7491 7.59857 33.0655 7.53124 32.406 7.66243C31.7465 7.79362 31.1406 8.11744 30.6651 8.59294C30.1896 9.06843 29.8658 9.67426 29.7346 10.3338C29.6034 10.9933 29.6708 11.677 29.9281 12.2982C30.1854 12.9195 30.6212 13.4505 31.1804 13.8241C31.7395 14.1977 32.3968 14.3971 33.0693 14.3971C33.6026 14.3924 34.1315 14.4933 34.6256 14.6941C35.1197 14.8949 35.5691 15.1916 35.9479 15.567C36.3266 15.9424 36.6273 16.3892 36.8325 16.8814C37.0377 17.3737 37.1433 17.9017 37.1433 18.435C37.1433 18.9683 37.0377 19.4964 36.8325 19.9886C36.6273 20.4809 36.3266 20.9276 35.9479 21.3031C35.5691 21.6785 35.1197 21.9752 34.6256 22.176C34.1315 22.3768 33.6026 22.4777 33.0693 22.4729Z" fill="black"/>
<path d="M33.0695 24.107C32.9846 24.107 32.9033 24.0733 32.8432 24.0133C32.7832 23.9533 32.7495 23.8719 32.7495 23.787V5.64812C32.7495 5.56326 32.7832 5.48186 32.8432 5.42185C32.9033 5.36184 32.9846 5.32812 33.0695 5.32812C33.1544 5.32812 33.2358 5.36184 33.2958 5.42185C33.3558 5.48186 33.3895 5.56326 33.3895 5.64812V23.787C33.3895 23.8719 33.3558 23.9533 33.2958 24.0133C33.2358 24.0733 33.1544 24.107 33.0695 24.107Z" fill="black"/>
</svg>
