<svg width="20" height="20" viewBox="0 0 20 20" fill="none" xmlns="http://www.w3.org/2000/svg">
<path d="M16.2516 18.125H16.1454C3.86411 17.4187 2.12036 7.05625 1.87661 3.89375C1.83851 3.39797 1.99891 2.90736 2.32252 2.52983C2.64613 2.1523 3.10646 1.91878 3.60223 1.88063C3.65182 1.87688 3.70161 1.875 3.75161 1.875H7.04536C7.29571 1.87476 7.54036 1.94969 7.74763 2.0901C7.9549 2.23051 8.11523 2.42992 8.20786 2.6625L9.15786 5C9.24933 5.22722 9.27203 5.4763 9.22314 5.71631C9.17425 5.95631 9.05592 6.17667 8.88286 6.35L7.55161 7.69375C7.75871 8.87583 8.32435 9.96562 9.17182 10.8153C10.0193 11.665 11.1076 12.2335 12.2891 12.4438L13.6454 11.1C13.8213 10.9288 14.0437 10.8133 14.2849 10.7677C14.5261 10.7221 14.7754 10.7486 15.0016 10.8438L17.3579 11.7875C17.5869 11.8831 17.7824 12.0446 17.9193 12.2517C18.0562 12.4587 18.1284 12.7018 18.1266 12.95V16.25C18.1266 16.7473 17.9291 17.2242 17.5774 17.5758C17.2258 17.9275 16.7489 18.125 16.2516 18.125ZM3.75161 3.125C3.66953 3.12475 3.58821 3.14068 3.51229 3.17186C3.43637 3.20304 3.36733 3.24887 3.30912 3.30673C3.25091 3.36459 3.20466 3.43336 3.17303 3.50909C3.14139 3.58483 3.12498 3.66605 3.12473 3.74813C3.12473 3.76563 3.12536 3.78292 3.12661 3.8C3.41411 7.5 5.25786 16.25 16.2141 16.875C16.3795 16.8849 16.5421 16.8287 16.6661 16.7188C16.7901 16.6088 16.8654 16.4542 16.8754 16.2887L16.8766 16.25V12.95L14.5204 12.0062L12.7266 13.7875L12.4266 13.75C6.98911 13.0688 6.25161 7.63125 6.25161 7.575L6.21411 7.275L7.98911 5.48125L7.05161 3.125H3.75161Z" fill="#515257"/>
<path d="M16.875 8.125V6.875H14.0087L18.125 2.75875L17.2413 1.875L13.125 5.99125V3.125H11.875V8.125H16.875Z" fill="#3FB17A"/>
</svg>
