<svg width="70" height="71" viewBox="0 0 70 71" fill="none" xmlns="http://www.w3.org/2000/svg">
<path fill-rule="evenodd" clip-rule="evenodd" d="M55.2468 45.1835H56.4627C56.5752 45.1836 56.6841 45.1435 56.7697 45.0705C56.8554 44.9975 56.9122 44.8964 56.93 44.7853L60.6721 21.3949C60.6829 21.3274 60.679 21.2583 60.6605 21.1925C60.6421 21.1266 60.6096 21.0656 60.5652 21.0135C60.5209 20.9615 60.4658 20.9196 60.4038 20.8909C60.3417 20.8622 60.2742 20.8473 60.2058 20.8472H14.3558C14.2303 20.8472 14.11 20.897 14.0213 20.9857C13.9326 21.0744 13.8828 21.1947 13.8828 21.3201C13.8828 21.4456 13.9326 21.5659 14.0213 21.6546C14.11 21.7433 14.2303 21.7931 14.3558 21.7931H59.6543L56.0597 44.2376H50.1088C50.1055 44.2376 50.1023 44.2376 50.0991 44.2377H26.5605H22.6951H17.1956C17.0702 44.2377 16.9499 44.2875 16.8612 44.3762C16.7725 44.4649 16.7227 44.5852 16.7227 44.7106C16.7227 44.8361 16.7725 44.9564 16.8612 45.0451C16.9499 45.1338 17.0702 45.1836 17.1956 45.1836H22.6951H26.5605H55.2369C55.2402 45.1836 55.2435 45.1836 55.2468 45.1835Z" fill="black"/>
<path d="M63.0142 52.6701H20.6481C19.8293 52.6697 19.039 52.3697 18.4261 51.8267C17.8133 51.2837 17.4203 50.5353 17.3212 49.7225L12.6861 11.4969H6.98579C6.86035 11.4969 6.74005 11.447 6.65135 11.3583C6.56265 11.2696 6.51282 11.1493 6.51282 11.0239C6.51282 10.8984 6.56265 10.7781 6.65135 10.6894C6.74005 10.6007 6.86035 10.5509 6.98579 10.5509H13.107C13.2232 10.5501 13.3356 10.592 13.4229 10.6688C13.5101 10.7456 13.566 10.8518 13.58 10.9671L18.2567 49.609C18.3279 50.1923 18.6099 50.7294 19.0498 51.119C19.4896 51.5086 20.0567 51.7239 20.6443 51.7242H63.0142C63.1396 51.7242 63.2599 51.774 63.3486 51.8627C63.4373 51.9514 63.4871 52.0717 63.4871 52.1971C63.4871 52.3226 63.4373 52.4429 63.3486 52.5316C63.2599 52.6203 63.1396 52.6701 63.0142 52.6701Z" fill="black"/>
<path d="M54.5925 65.7703C53.5736 65.7703 52.5776 65.4681 51.7304 64.9021C50.8833 64.336 50.223 63.5314 49.8331 62.5901C49.4432 61.6488 49.3411 60.6129 49.5399 59.6136C49.7387 58.6143 50.2293 57.6964 50.9498 56.9759C51.6703 56.2555 52.5882 55.7648 53.5875 55.566C54.5868 55.3673 55.6226 55.4693 56.564 55.8592C57.5053 56.2491 58.3099 56.9094 58.8759 57.7566C59.442 58.6038 59.7442 59.5998 59.7442 60.6187C59.7427 61.9845 59.1994 63.294 58.2336 64.2597C57.2678 65.2255 55.9584 65.7688 54.5925 65.7703Z" fill="#FEDD15"/>
<path d="M27.4548 65.7703C26.4359 65.7701 25.44 65.4678 24.5929 64.9016C23.7459 64.3354 23.0857 63.5308 22.696 62.5895C22.3062 61.6481 22.2043 60.6123 22.4032 59.6131C22.6021 58.6138 23.0928 57.696 23.8133 56.9756C24.5338 56.2552 25.4517 55.7647 26.451 55.566C27.4503 55.3673 28.4861 55.4693 29.4274 55.8593C30.3686 56.2492 31.1732 56.9095 31.7392 57.7567C32.3052 58.6038 32.6073 59.5998 32.6073 60.6187C32.6058 61.9847 32.0624 63.2943 31.0965 64.2601C30.1305 65.2259 28.8208 65.769 27.4548 65.7703Z" fill="#FEDD15"/>
<path d="M47.0951 39.3784C47.0809 39.3793 47.0667 39.3793 47.0525 39.3784C46.9276 39.3673 46.8121 39.3071 46.7316 39.2109C46.6511 39.1148 46.612 38.9906 46.623 38.8657L47.6759 27.0811C47.687 26.9556 47.7476 26.8398 47.8442 26.7589C47.9408 26.6781 48.0655 26.639 48.1909 26.6502C48.3164 26.6614 48.4322 26.7219 48.5131 26.8185C48.5939 26.9151 48.633 27.0398 48.6218 27.1653L47.5652 38.9498C47.5541 39.0669 47.4999 39.1757 47.4129 39.2549C47.326 39.3342 47.2127 39.3782 47.0951 39.3784Z" fill="black"/>
<path d="M37.6285 39.3786C37.5031 39.3786 37.3827 39.3288 37.294 39.2401C37.2053 39.1514 37.1555 39.0311 37.1555 38.9056V27.1201C37.1555 26.9946 37.2053 26.8743 37.294 26.7856C37.3827 26.6969 37.5031 26.6471 37.6285 26.6471C37.7539 26.6471 37.8742 26.6969 37.9629 26.7856C38.0516 26.8743 38.1015 26.9946 38.1015 27.1201V38.9056C38.1015 39.0311 38.0516 39.1514 37.9629 39.2401C37.8742 39.3288 37.7539 39.3786 37.6285 39.3786Z" fill="black"/>
<path d="M28.1638 39.3785C28.0452 39.379 27.9308 39.3349 27.8432 39.255C27.7556 39.1751 27.7012 39.0652 27.6908 38.9471L26.6418 27.1616C26.6306 27.0362 26.6697 26.9114 26.7505 26.8148C26.8313 26.7182 26.9472 26.6577 27.0726 26.6465C27.1981 26.6354 27.3228 26.6745 27.4194 26.7553C27.516 26.8361 27.5765 26.952 27.5877 27.0774L28.6387 38.8667C28.6497 38.9915 28.6108 39.1156 28.5304 39.2117C28.4501 39.3078 28.3349 39.3682 28.2101 39.3794C28.1947 39.3802 28.1792 39.3799 28.1638 39.3785Z" fill="black"/>
</svg>
