<svg width="50" height="50" viewBox="0 0 50 50" fill="none" xmlns="http://www.w3.org/2000/svg">
<path d="M50 25C50 38.8071 38.8071 50 25 50C11.1929 50 0 38.8071 0 25C0 11.1929 11.1929 0 25 0C38.8071 0 50 11.1929 50 25ZM1.92791 25C1.92791 37.7424 12.2576 48.0721 25 48.0721C37.7424 48.0721 48.0721 37.7424 48.0721 25C48.0721 12.2576 37.7424 1.92791 25 1.92791C12.2576 1.92791 1.92791 12.2576 1.92791 25Z" fill="#EAECEE"/>
<path d="M25 0C29.7523 5.66702e-08 34.4061 1.3545 38.4161 3.90478C42.4261 6.45505 45.6262 10.0954 47.6412 14.3993C49.6563 18.7032 50.403 23.4923 49.7937 28.2053C49.1844 32.9184 47.2444 37.3601 44.201 41.0101C41.1576 44.66 37.137 47.3669 32.6103 48.8135C28.0835 50.2602 23.2382 50.3866 18.6422 49.1781C14.0462 47.9695 9.88985 45.476 6.66024 41.9898C3.43064 38.5036 1.26159 34.1691 0.407279 29.4942L4.86654 28.6793C5.56594 32.5065 7.34169 36.0551 9.98569 38.9091C12.6297 41.7632 16.0324 43.8046 19.795 44.794C23.5577 45.7834 27.5244 45.6799 31.2303 44.4956C34.9363 43.3112 38.2279 41.0952 40.7194 38.107C43.2109 35.1189 44.7991 31.4826 45.298 27.6241C45.7968 23.7657 45.1855 19.845 43.5358 16.3215C41.8861 12.798 39.2663 9.8177 35.9834 7.72986C32.7005 5.64201 28.8906 4.53311 25 4.53311V0Z" fill="#515257"/>
<path d="M0.168632 27.8988C-0.562302 21.6376 1.09905 15.3314 4.82 10.2431L7.57894 12.2606C4.36671 16.6533 2.93249 22.0973 3.56349 27.5025L0.168632 27.8988Z" fill="#515257"/>
<path d="M5.62413 9.20204C8.13185 6.12637 11.3357 3.69187 14.9709 2.09986L16.3422 5.23118C13.2042 6.60549 10.4384 8.70711 8.27354 11.3622L5.62413 9.20204Z" fill="#ADB1B2"/>
<path d="M16.1635 1.61375C18.615 0.687452 21.1969 0.152372 23.8147 0.0281165L23.9759 3.42591C21.7144 3.53326 19.4838 3.99553 17.3658 4.7958L16.1635 1.61375Z" fill="#ADB1B2"/>
<g clip-path="url(#clip0)">
<path d="M24.9349 15.9784C24.9056 15.9837 24.8767 15.9909 24.8484 15.9999C24.6921 16.0349 24.5528 16.1231 24.4542 16.2493C24.3556 16.3756 24.3038 16.5321 24.3077 16.6922V17.3845H18.0769C17.5261 17.3845 16.9978 17.6033 16.6083 17.9928C16.2188 18.3823 16 18.9106 16 19.4614V28.4614C16 29.6079 16.9305 30.5384 18.0769 30.5384H24.3077V30.798L20.5429 32.6804C20.3766 32.7607 20.2489 32.9038 20.1881 33.0783C20.1273 33.2527 20.1382 33.4441 20.2186 33.6105C20.2989 33.7768 20.442 33.9045 20.6165 33.9653C20.7909 34.0261 20.9823 34.0152 21.1487 33.9348L24.3077 32.3557V32.6153C24.3077 32.7989 24.3806 32.975 24.5105 33.1048C24.6403 33.2347 24.8164 33.3076 25 33.3076C25.1836 33.3076 25.3597 33.2347 25.4895 33.1048C25.6194 32.975 25.6923 32.7989 25.6923 32.6153V32.3557L28.8513 33.9348C29.0177 34.0152 29.2091 34.0261 29.3835 33.9653C29.558 33.9045 29.7011 33.7768 29.7814 33.6105C29.8618 33.4441 29.8727 33.2527 29.8119 33.0783C29.7511 32.9038 29.6234 32.7607 29.4571 32.6804L25.6923 30.798V30.5384H31.9231C33.0695 30.5384 34 29.6079 34 28.4614V19.4614C34 18.9106 33.7812 18.3823 33.3917 17.9928C33.0022 17.6033 32.4739 17.3845 31.9231 17.3845H25.6923V16.6922C25.6958 16.5938 25.6782 16.4957 25.6408 16.4046C25.6034 16.3135 25.5469 16.2314 25.4753 16.1638C25.4036 16.0963 25.3183 16.0448 25.2251 16.0128C25.1319 15.9808 25.033 15.9691 24.9349 15.9784ZM17.3846 19.4614H32.6154V28.4614H17.3846V19.4614ZM30.4519 20.1538C30.2968 20.1704 30.1519 20.239 30.0407 20.3483L27.7692 22.6204L26.1901 21.0399C26.1145 20.9623 26.0217 20.9035 25.9192 20.8683C25.8167 20.8331 25.7074 20.8225 25.6 20.8372C25.4927 20.852 25.3903 20.8917 25.3011 20.9533C25.2119 21.0148 25.1384 21.0964 25.0865 21.1915L23.0311 24.7832L22.1872 22.6627C22.1462 22.5532 22.0781 22.4559 21.9894 22.3798C21.9006 22.3037 21.794 22.2513 21.6796 22.2275C21.5651 22.2037 21.4465 22.2093 21.3348 22.2438C21.2231 22.2782 21.1219 22.3404 21.0407 22.4245L18.9638 24.5014C18.8316 24.6336 18.7573 24.8128 18.7572 24.9997C18.7571 25.1866 18.8313 25.3658 18.9634 25.498C19.0955 25.6302 19.2747 25.7045 19.4616 25.7046C19.6485 25.7047 19.8278 25.6305 19.96 25.4984L21.2795 24.1788L22.2751 26.6448C22.3221 26.7685 22.4035 26.8761 22.5098 26.955C22.616 27.0338 22.7426 27.0805 22.8746 27.0896C23.0066 27.0987 23.1384 27.0698 23.2545 27.0063C23.3706 26.9428 23.466 26.8474 23.5295 26.7314L25.8446 22.6855L27.2722 24.1138C27.3367 24.1805 27.4141 24.2337 27.4996 24.2699C27.5851 24.3062 27.677 24.3249 27.7699 24.3249C27.8628 24.3249 27.9548 24.3062 28.0403 24.2699C28.1258 24.2337 28.2031 24.1805 28.2677 24.1138L31.0369 21.3445C31.1463 21.2433 31.2201 21.1094 31.2473 20.9629C31.2745 20.8164 31.2537 20.665 31.188 20.5312C31.1223 20.3975 31.0151 20.2885 30.8825 20.2205C30.7499 20.1525 30.5989 20.1291 30.4519 20.1538Z" fill="#ADB1B2"/>
</g>
<defs>
<clipPath id="clip0">
<rect width="18" height="18" fill="white" transform="translate(16 16)"/>
</clipPath>
</defs>
</svg>
