<svg width="70" height="70" viewBox="0 0 70 70" fill="none" xmlns="http://www.w3.org/2000/svg">
<path d="M36.338 50C32.8526 50 30 52.8255 30 56.3109C30 59.7963 32.8526 62.6218 36.338 62.6218C39.8234 62.6218 42.676 59.7963 42.676 56.3109C42.676 52.8255 39.8234 50 36.338 50ZM41.5737 56.3109C41.5737 59.1902 39.2173 61.5243 36.338 61.5243C33.4588 61.5243 31.1023 59.1902 31.1023 56.3109C31.1023 53.4316 33.4588 51.0975 36.338 51.0975C39.2173 51.0975 41.5737 53.4316 41.5737 56.3109Z" fill="black"/>
<path d="M13.338 50C9.85259 50 7 52.8255 7 56.3109C7 59.7963 9.85259 62.6218 13.338 62.6218C16.8234 62.6218 19.676 59.7963 19.676 56.3109C19.676 52.8255 16.8234 50 13.338 50ZM18.5737 56.3109C18.5737 59.1902 16.2173 61.5243 13.338 61.5243C10.4588 61.5243 8.10226 59.1902 8.10226 56.3109C8.10226 53.4316 10.4588 51.0975 13.338 51.0975C16.2173 51.0975 18.5737 53.4316 18.5737 56.3109Z" fill="black"/>
<path d="M59.338 50C55.8526 50 53 52.8255 53 56.3109C53 59.7963 55.8526 62.6218 59.338 62.6218C62.8234 62.6218 65.676 59.7963 65.676 56.3109C65.676 52.8255 62.8234 50 59.338 50ZM64.5737 56.3109C64.5737 59.1902 62.2173 61.5243 59.338 61.5243C56.4588 61.5243 54.1023 59.1902 54.1023 56.3109C54.1023 53.4316 56.4588 51.0975 59.338 51.0975C62.2173 51.0975 64.5737 53.4316 64.5737 56.3109Z" fill="black"/>
<path d="M36.338 10C32.8526 10 30 12.8255 30 16.3109C30 19.7963 32.8526 22.6218 36.338 22.6218C39.8234 22.6218 42.676 19.7963 42.676 16.3109C42.676 12.8255 39.8234 10 36.338 10ZM41.5737 16.3109C41.5737 19.1902 39.2173 21.5243 36.338 21.5243C33.4588 21.5243 31.1023 19.1902 31.1023 16.3109C31.1023 13.4316 33.4588 11.0975 36.338 11.0975C39.2173 11.0975 41.5737 13.4316 41.5737 16.3109Z" fill="black"/>
<path d="M13.338 10C9.85259 10 7 12.8255 7 16.3109C7 19.7963 9.85259 22.6218 13.338 22.6218C16.8234 22.6218 19.676 19.7963 19.676 16.3109C19.676 12.8255 16.8234 10 13.338 10ZM18.5737 16.3109C18.5737 19.1902 16.2173 21.5243 13.338 21.5243C10.4588 21.5243 8.10226 19.1902 8.10226 16.3109C8.10226 13.4316 10.4588 11.0975 13.338 11.0975C16.2173 11.0975 18.5737 13.4316 18.5737 16.3109Z" fill="black"/>
<path d="M59.338 10C55.8526 10 53 12.8255 53 16.3109C53 19.7963 55.8526 22.6218 59.338 22.6218C62.8234 22.6218 65.676 19.7963 65.676 16.3109C65.676 12.8255 62.8234 10 59.338 10ZM64.5737 16.3109C64.5737 19.1902 62.2173 21.5243 59.338 21.5243C56.4588 21.5243 54.1023 19.1902 54.1023 16.3109C54.1023 13.4316 56.4588 11.0975 59.338 11.0975C62.2173 11.0975 64.5737 13.4316 64.5737 16.3109Z" fill="black"/>
<path d="M60.2266 26.0876H59.1244V31.1999C59.1244 31.6909 58.9213 32.153 58.5732 32.4996C58.2252 32.8462 57.761 33.0484 57.2679 33.0484H56.7168V34.146H57.2679C58.0511 34.146 58.8053 33.8282 59.3564 33.2795C59.9076 32.7307 60.2266 31.9797 60.2266 31.1999V26.0876Z" fill="black"/>
<path d="M58.5732 40.4715C58.9213 40.8181 59.1244 41.2802 59.1244 41.7712V46.8835H60.2266V41.7712C60.2266 40.9914 59.9076 40.2405 59.3564 39.6917C58.8053 39.1429 58.0511 38.8252 57.2679 38.8252H56.7168V39.9227H57.2679C57.761 39.9227 58.2252 40.1249 58.5732 40.4715Z" fill="black"/>
<path d="M15.7595 34.1748H16.3106V33.0773H15.7595C15.2664 33.0773 14.8023 32.8751 14.4542 32.5285C14.1061 32.1819 13.903 31.7198 13.903 31.2288V26.0876H12.8008V31.1999C12.8008 31.9797 13.1199 32.7307 13.671 33.2795C14.2221 33.8571 14.9763 34.1748 15.7595 34.1748Z" fill="black"/>
<path d="M15.7595 39.9227H16.3106V38.8252H15.7595C14.9763 38.8252 14.2221 39.1429 13.671 39.6917C13.1199 40.2405 12.8008 40.9914 12.8008 41.7712V46.8835H13.903V41.7712C13.903 41.2802 14.1061 40.8181 14.4542 40.4715C14.8023 40.1249 15.2664 39.9227 15.7595 39.9227Z" fill="black"/>
<path d="M37.0515 16.9607H35.9492V29.1204H37.0515V16.9607Z" fill="black"/>
<path d="M37.0515 44.1685H35.9492V56.0393H37.0515V44.1685Z" fill="black"/>
<path d="M53.8752 27.8496H19.125V45.1504H53.8752V27.8496Z" fill="#FEDD15"/>
<path d="M32.8744 35.3013H30.4668V37.6985H32.8744V35.3013Z" fill="white"/>
<path d="M37.7181 35.3013H35.3105V37.6985H37.7181V35.3013Z" fill="white"/>
<path d="M42.5326 35.3013H40.125V37.6985H42.5326V35.3013Z" fill="white"/>
</svg>
