<svg width="65" height="49" viewBox="0 0 65 49" fill="none" xmlns="http://www.w3.org/2000/svg">
<path d="M1 34.5H64V42.5H1V34.5Z" fill="#FEDD15"/>
<path fill-rule="evenodd" clip-rule="evenodd" d="M0.500977 0.5C0.500977 0.223858 0.724834 0 1.00098 0H38.9662C43.1083 0 46.4662 3.35786 46.4662 7.5V34.9078C46.4662 35.1839 46.2423 35.4078 45.9662 35.4078H1.00098C0.724834 35.4078 0.500977 35.1839 0.500977 34.9078V0.5ZM1.50098 1V34.4078H45.4662V7.5C45.4662 3.91015 42.556 1 38.9662 1H1.50098Z" fill="black"/>
<path fill-rule="evenodd" clip-rule="evenodd" d="M45.4663 14.9333C45.4663 14.6572 45.6902 14.4333 45.9663 14.4333H56.8355C61.0706 14.4333 64.4996 17.883 64.4996 22.1331V34.9078C64.4996 35.1839 64.2757 35.4078 63.9996 35.4078H45.9663C45.6902 35.4078 45.4663 35.1839 45.4663 34.9078V14.9333ZM46.4663 15.4333V34.4078H63.4996V22.1331C63.4996 18.4306 60.5136 15.4333 56.8355 15.4333H46.4663Z" fill="black"/>
<path fill-rule="evenodd" clip-rule="evenodd" d="M0.5 34.9038C0.5 34.6277 0.723858 34.4038 1 34.4038H64C64.2761 34.4038 64.5 34.6277 64.5 34.9038V42.4103C64.5 42.6865 64.2761 42.9103 64 42.9103H58.1395C57.8634 42.9103 57.6395 42.6865 57.6395 42.4103C57.6395 42.1342 57.8634 41.9103 58.1395 41.9103H63.5V35.4038H1.5V41.9103H9.7907C10.0668 41.9103 10.2907 42.1342 10.2907 42.4103C10.2907 42.6865 10.0668 42.9103 9.7907 42.9103H1C0.723858 42.9103 0.5 42.6865 0.5 42.4103V34.9038ZM18.0814 42.4103C18.0814 42.1342 18.3053 41.9103 18.5814 41.9103H48.6163C48.8924 41.9103 49.1163 42.1342 49.1163 42.4103C49.1163 42.6865 48.8924 42.9103 48.6163 42.9103H18.5814C18.3053 42.9103 18.0814 42.6865 18.0814 42.4103Z" fill="black"/>
<path d="M52.5457 48.5C55.3003 48.5 57.5334 46.2614 57.5334 43.5C57.5334 40.7386 55.3003 38.5 52.5457 38.5C49.7911 38.5 47.5581 40.7386 47.5581 43.5C47.5581 46.2614 49.7911 48.5 52.5457 48.5Z" fill="white"/>
<path fill-rule="evenodd" clip-rule="evenodd" d="M52.5457 39C50.0685 39 48.0581 41.0136 48.0581 43.5C48.0581 45.9864 50.0685 48 52.5457 48C55.023 48 57.0334 45.9864 57.0334 43.5C57.0334 41.0136 55.023 39 52.5457 39ZM47.0581 43.5C47.0581 40.4636 49.5138 38 52.5457 38C55.5776 38 58.0334 40.4636 58.0334 43.5C58.0334 46.5364 55.5776 49 52.5457 49C49.5138 49 47.0581 46.5364 47.0581 43.5Z" fill="black"/>
<path d="M50 20C50 19.7239 50.2239 19.5 50.5 19.5H58C59.1046 19.5 60 20.3954 60 21.5V28C60 28.2761 59.7761 28.5 59.5 28.5H50.5C50.2239 28.5 50 28.2761 50 28V20Z" fill="#FEDD15"/>
<path d="M7 16.8404C7 16.6524 7.22155 16.5 7.49484 16.5H35.5052C35.7785 16.5 36 16.6524 36 16.8404V17.1596C36 17.3476 35.7785 17.5 35.5052 17.5H7.49484C7.22155 17.5 7 17.3476 7 17.1596V16.8404Z" fill="black"/>
<path d="M7 21.8404C7 21.6524 7.22224 21.5 7.49639 21.5H38.5036C38.7778 21.5 39 21.6524 39 21.8404V22.1596C39 22.3476 38.7778 22.5 38.5036 22.5H7.49639C7.22224 22.5 7 22.3476 7 22.1596V21.8404Z" fill="black"/>
<path d="M12.9876 48.5C15.7422 48.5 17.9753 46.2614 17.9753 43.5C17.9753 40.7386 15.7422 38.5 12.9876 38.5C10.233 38.5 8 40.7386 8 43.5C8 46.2614 10.233 48.5 12.9876 48.5Z" fill="white"/>
<path fill-rule="evenodd" clip-rule="evenodd" d="M12.9876 39C10.5103 39 8.5 41.0136 8.5 43.5C8.5 45.9864 10.5103 48 12.9876 48C15.4649 48 17.4753 45.9864 17.4753 43.5C17.4753 41.0136 15.4649 39 12.9876 39ZM7.5 43.5C7.5 40.4636 9.95573 38 12.9876 38C16.0195 38 18.4753 40.4636 18.4753 43.5C18.4753 46.5364 16.0195 49 12.9876 49C9.95573 49 7.5 46.5364 7.5 43.5Z" fill="black"/>
</svg>
