<svg width="202" height="24" viewBox="0 0 202 24" fill="none" xmlns="http://www.w3.org/2000/svg">
<path d="M53.0111 19.7186C53.0111 20.4214 52.8546 20.9796 52.5416 21.396C52.2285 21.8124 51.7974 22.0191 51.2481 22.0191C50.7194 22.0191 50.306 21.8272 50.0107 21.4462L49.9605 21.9364H49.0391V15.5132H50.055V17.8462C50.3473 17.5007 50.7431 17.3265 51.2392 17.3265C51.7915 17.3265 52.2256 17.5302 52.5386 17.9407C52.8546 18.3512 53.0111 18.9241 53.0111 19.6595V19.7186ZM51.9952 19.63C51.9952 19.1397 51.9096 18.7706 51.7353 18.5255C51.5641 18.2803 51.313 18.1563 50.9823 18.1563C50.5422 18.1563 50.2322 18.3483 50.055 18.7351V20.5986C50.2351 20.9914 50.5482 21.1893 50.9911 21.1893C51.3101 21.1893 51.5552 21.0711 51.7265 20.8349C51.8978 20.5986 51.9893 20.2413 51.9952 19.7599V19.63Z" fill="#878E9B"/>
<path d="M55.406 20.4805L56.3274 17.4121H57.4112L55.6127 22.6216C55.3381 23.3835 54.8685 23.7645 54.207 23.7645C54.0593 23.7645 53.8969 23.7409 53.7168 23.6877V22.8992L53.9087 22.911C54.1656 22.911 54.3576 22.8637 54.4875 22.7722C54.6175 22.6777 54.7209 22.5212 54.7947 22.3026L54.9423 21.9128L53.3535 17.4121H54.4492L55.406 20.4805Z" fill="#878E9B"/>
<path d="M63.6487 20.5157H61.289L60.7959 21.9333H59.6973L61.9978 15.8438H62.9458L65.2493 21.9333H64.1448L63.6487 20.5157ZM61.5873 19.6623H63.3533L62.4703 17.1373L61.5873 19.6623Z" fill="#878E9B"/>
<path d="M66.5936 17.4093L66.6231 17.9321C66.9568 17.5275 67.3968 17.3267 67.9402 17.3267C68.8823 17.3267 69.3607 17.8671 69.3785 18.945V21.9337H68.3625V19.0011C68.3625 18.7147 68.3005 18.502 68.1765 18.3632C68.0525 18.2244 67.8487 18.1565 67.5681 18.1565C67.1576 18.1565 66.8534 18.3426 66.6526 18.7117V21.9307H65.6367V17.4064H66.5936V17.4093Z" fill="#878E9B"/>
<path d="M70.2324 19.6389C70.2324 18.9419 70.3949 18.3808 70.7168 17.9585C71.0387 17.5362 71.4728 17.3235 72.0162 17.3235C72.4946 17.3235 72.8844 17.4919 73.1797 17.8256V15.5103H74.1956V21.9335H73.2742L73.224 21.4639C72.9199 21.8331 72.5153 22.0162 72.0073 22.0162C71.4787 22.0162 71.0475 21.8036 70.7227 21.3753C70.3978 20.953 70.2324 20.3712 70.2324 19.6389ZM71.2483 19.7274C71.2483 20.1882 71.3369 20.5455 71.5141 20.8054C71.6913 21.0653 71.9423 21.1922 72.2701 21.1922C72.6865 21.1922 72.9907 21.0062 73.1827 20.637V18.7056C72.9966 18.3424 72.6954 18.1622 72.279 18.1622C71.9512 18.1622 71.6972 18.2922 71.5171 18.5521C71.3369 18.812 71.2483 19.2018 71.2483 19.7274Z" fill="#878E9B"/>
<path d="M77.2565 22.0193C76.6127 22.0193 76.09 21.8156 75.6913 21.411C75.2926 21.0064 75.0918 20.4659 75.0918 19.7896V19.6627C75.0918 19.2108 75.1774 18.8062 75.3517 18.4518C75.5259 18.0974 75.771 17.8198 76.0841 17.622C76.4001 17.4241 76.7515 17.3267 77.1384 17.3267C77.7556 17.3267 78.2311 17.5245 78.5677 17.9173C78.9044 18.3101 79.0727 18.8653 79.0727 19.5859V19.9964H76.1166C76.1461 20.3685 76.2731 20.6668 76.4916 20.8823C76.7102 21.0979 76.9848 21.2072 77.3185 21.2072C77.7851 21.2072 78.1631 21.0182 78.4555 20.6431L79.0019 21.1658C78.8217 21.4375 78.5795 21.6472 78.2754 21.7949C77.9712 21.9425 77.6345 22.0193 77.2565 22.0193ZM77.1354 18.1417C76.8578 18.1417 76.6304 18.2392 76.4591 18.4341C76.2879 18.629 76.1786 18.9007 76.1313 19.2492H78.0686V19.1754C78.045 18.8358 77.9564 18.5788 77.7969 18.4046C77.6375 18.2303 77.4189 18.1417 77.1354 18.1417Z" fill="#878E9B"/>
<path d="M82.2386 18.3396C82.1057 18.316 81.9669 18.3071 81.8252 18.3071C81.3586 18.3071 81.0455 18.4843 80.8831 18.8417V21.9366H79.8672V17.4123H80.8388L80.8624 17.9173C81.1075 17.5245 81.4472 17.3267 81.8842 17.3267C82.0289 17.3267 82.15 17.3473 82.2445 17.3857L82.2386 18.3396Z" fill="#878E9B"/>
<path d="M85.4252 20.7051C85.4252 20.525 85.3514 20.3862 85.2007 20.2917C85.0531 20.1972 84.805 20.1145 84.4595 20.0407C84.114 19.9668 83.8245 19.8753 83.5942 19.7631C83.0862 19.5179 82.8323 19.1636 82.8323 18.697C82.8323 18.3071 82.9976 17.9793 83.3254 17.7194C83.6532 17.4566 84.0726 17.3267 84.5806 17.3267C85.121 17.3267 85.5581 17.4596 85.8918 17.7283C86.2255 17.997 86.3909 18.3426 86.3909 18.7708H85.375C85.375 18.5759 85.3012 18.4134 85.1564 18.2835C85.0117 18.1536 84.8198 18.0886 84.5776 18.0886C84.3561 18.0886 84.173 18.1388 84.0313 18.2422C83.8895 18.3455 83.8216 18.4843 83.8216 18.6556C83.8216 18.8121 83.8866 18.9332 84.0195 19.0189C84.1494 19.1045 84.4152 19.1931 84.8139 19.2787C85.2126 19.3673 85.5256 19.4707 85.753 19.5918C85.9804 19.7129 86.1487 19.8576 86.258 20.0289C86.3673 20.2001 86.4234 20.4069 86.4234 20.649C86.4234 21.0566 86.255 21.3873 85.9184 21.6384C85.5817 21.8894 85.1387 22.0164 84.5924 22.0164C84.2203 22.0164 83.8925 21.9484 83.6001 21.8155C83.3107 21.6827 83.0833 21.4966 82.9238 21.2633C82.7614 21.03 82.6816 20.776 82.6816 20.5073H83.668C83.6828 20.7465 83.7714 20.9325 83.9397 21.0625C84.1081 21.1924 84.3295 21.2574 84.6042 21.2574C84.8729 21.2574 85.0737 21.2072 85.2155 21.1038C85.3543 21.0034 85.4252 20.8705 85.4252 20.7051Z" fill="#878E9B"/>
<path d="M89.3092 22.0193C88.6654 22.0193 88.1427 21.8156 87.744 21.411C87.3453 21.0064 87.1445 20.4659 87.1445 19.7896V19.6627C87.1445 19.2108 87.2302 18.8062 87.4044 18.4518C87.5787 18.0974 87.8238 17.8198 88.1368 17.622C88.4528 17.4241 88.8042 17.3267 89.1911 17.3267C89.8083 17.3267 90.2838 17.5245 90.6205 17.9173C90.9571 18.3101 91.1255 18.8653 91.1255 19.5859V19.9964H88.1693C88.1988 20.3685 88.3258 20.6668 88.5444 20.8823C88.7629 21.0979 89.0375 21.2072 89.3713 21.2072C89.8379 21.2072 90.2159 21.0182 90.5082 20.6431L91.0546 21.1658C90.8744 21.4375 90.6323 21.6472 90.3281 21.7949C90.0239 21.9425 89.6873 22.0193 89.3092 22.0193ZM89.1882 18.1417C88.9106 18.1417 88.6832 18.2392 88.5119 18.4341C88.3406 18.629 88.2313 18.9007 88.1841 19.2492H90.1214V19.1754C90.0977 18.8358 90.0091 18.5788 89.8497 18.4046C89.6902 18.2303 89.4717 18.1417 89.1882 18.1417Z" fill="#878E9B"/>
<path d="M92.8651 17.4093L92.8946 17.9321C93.2283 17.5275 93.6683 17.3267 94.2117 17.3267C95.1538 17.3267 95.6322 17.8671 95.6499 18.945V21.9337H94.634V19.0011C94.634 18.7147 94.572 18.502 94.448 18.3632C94.3239 18.2244 94.1202 18.1565 93.8396 18.1565C93.4291 18.1565 93.1249 18.3426 92.9241 18.7117V21.9307H91.9082V17.4064H92.8651V17.4093Z" fill="#878E9B"/>
<path d="M30.7615 8.20377H24.6602V0.835496C24.6602 0.696694 24.7724 0.584473 24.9112 0.584473H30.5105C30.6493 0.584473 30.7615 0.696694 30.7615 0.835496V8.20377Z" fill="#878E9B"/>
<path d="M18.3199 6.68582H6.35938V0.584473H18.3199C18.4587 0.584473 18.5709 0.696694 18.5709 0.835496V6.43479C18.5709 6.5736 18.4587 6.68582 18.3199 6.68582Z" fill="#878E9B"/>
<path d="M18.3081 21.9334H6.35938V15.832H18.3081C18.4469 15.832 18.5591 15.9443 18.5591 16.0831V21.6824C18.5591 21.8212 18.4469 21.9334 18.3081 21.9334Z" fill="#878E9B"/>
<path d="M42.7136 6.68582H37.1143C36.9755 6.68582 36.8633 6.5736 36.8633 6.43479V0.835496C36.8633 0.696694 36.9755 0.584473 37.1143 0.584473H42.7136C42.8524 0.584473 42.9646 0.696694 42.9646 0.835496V6.43479C42.9646 6.5736 42.8524 6.68582 42.7136 6.68582Z" fill="#BEC2CB"/>
<path d="M42.7136 21.9333H37.1143C36.9755 21.9333 36.8633 21.8211 36.8633 21.6823V14.3081H42.9646V21.6823C42.9646 21.8211 42.8524 21.9333 42.7136 21.9333Z" fill="#878E9B"/>
<path d="M6.35938 8.20947H42.7135C42.8523 8.20947 42.9645 8.32169 42.9645 8.4605V14.3108H6.35938V8.20947Z" fill="#FFDB00"/>
<path d="M30.5105 21.9334H24.9112C24.7724 21.9334 24.6602 21.8212 24.6602 21.6824V16.0831C24.6602 15.9443 24.7724 15.832 24.9112 15.832H30.5105C30.6493 15.832 30.7615 15.9443 30.7615 16.0831V21.6824C30.7615 21.8212 30.6493 21.9334 30.5105 21.9334Z" fill="#BEC2CB"/>
<path d="M6.35916 21.9333H0.508835C0.370034 21.9333 0.257812 21.8211 0.257812 21.6822V0.835496C0.257812 0.696694 0.370034 0.584473 0.508835 0.584473H6.35916V21.9333Z" fill="#BEC2CB"/>
<path d="M73.6545 0.841843V12.5513C73.6545 12.6901 73.5423 12.8024 73.4035 12.8024H70.3882C70.3144 12.8024 70.2435 12.7699 70.1963 12.7138L65.6306 7.25623V12.5513C65.6306 12.6901 65.5184 12.8024 65.3796 12.8024H61.8682C61.7294 12.8024 61.6172 12.6901 61.6172 12.5513V0.841843C61.6172 0.703042 61.7294 0.59082 61.8682 0.59082H64.8834C64.9573 0.59082 65.0281 0.623307 65.0754 0.679418L69.6411 6.13696V0.841843C69.6411 0.703042 69.7533 0.59082 69.8921 0.59082H73.4035C73.5423 0.59082 73.6545 0.703042 73.6545 0.841843Z" fill="#BEC2CB"/>
<path d="M110.061 6.36415H113.136C113.275 6.36415 113.387 6.47637 113.387 6.61518V11.3905C113.387 11.4762 113.345 11.5559 113.275 11.6032C112.578 12.0668 111.777 12.4242 110.874 12.6781C109.92 12.9469 108.984 13.0798 108.065 13.0798C106.763 13.0798 105.593 12.8081 104.56 12.2676C103.523 11.7272 102.714 10.9712 102.126 9.99956C101.538 9.02795 101.246 7.9264 101.246 6.69491C101.246 5.46342 101.538 4.35892 102.126 3.39026C102.714 2.41866 103.535 1.66263 104.586 1.12219C105.64 0.581755 106.828 0.310059 108.154 0.310059C109.353 0.310059 110.425 0.510875 111.373 0.912513C112.241 1.27871 112.973 1.80143 113.576 2.47476C113.667 2.57813 113.655 2.7376 113.552 2.82915L111.29 4.82257C111.187 4.91412 111.033 4.90231 110.939 4.8019C110.206 4.02816 109.35 3.64424 108.366 3.64424C107.46 3.64424 106.739 3.91594 106.205 4.46523C105.67 5.01158 105.401 5.75579 105.401 6.69787C105.401 7.61632 105.667 8.35462 106.196 8.91278C106.724 9.47093 107.43 9.75149 108.316 9.75149C108.839 9.75149 109.341 9.65403 109.816 9.45617V6.62108C109.81 6.47637 109.923 6.36415 110.061 6.36415Z" fill="#BEC2CB"/>
<path d="M141.577 0.599609H145.192C145.331 0.599609 145.443 0.711831 145.443 0.850632V12.5601C145.443 12.6989 145.331 12.8112 145.192 12.8112H141.577C141.438 12.8112 141.326 12.6989 141.326 12.5601V0.850632C141.326 0.711831 141.438 0.599609 141.577 0.599609Z" fill="#BEC2CB"/>
<path d="M150.364 12.2794C149.328 11.7389 148.519 10.9829 147.931 10.0113C147.343 9.03967 147.051 7.93812 147.051 6.70663C147.051 5.47514 147.343 4.37064 147.931 3.40198C148.519 2.43037 149.331 1.67435 150.364 1.13391C151.398 0.593473 152.562 0.321777 153.852 0.321777C155.039 0.321777 156.097 0.531457 157.027 0.950814C157.883 1.33473 158.601 1.87812 159.18 2.57804C159.265 2.6814 159.251 2.83792 159.15 2.92652L156.923 4.91403C156.817 5.00853 156.658 4.99377 156.563 4.88745C155.845 4.06646 155.01 3.65596 154.059 3.65596C153.199 3.65596 152.505 3.93356 151.983 4.48581C151.46 5.03807 151.197 5.77932 151.197 6.70959C151.197 7.63985 151.46 8.38111 151.983 8.93336C152.505 9.48561 153.199 9.76321 154.059 9.76321C155.01 9.76321 155.843 9.35271 156.563 8.53172C156.658 8.4254 156.817 8.41064 156.923 8.50514L159.15 10.4927C159.251 10.5813 159.265 10.7378 159.18 10.8411C158.601 11.541 157.88 12.0815 157.027 12.4684C156.097 12.8877 155.039 13.0974 153.852 13.0974C152.562 13.0915 151.398 12.8198 150.364 12.2794Z" fill="#BEC2CB"/>
<path d="M125.989 3.37866V0.841843C125.989 0.703042 125.877 0.59082 125.738 0.59082H116.087C115.948 0.59082 115.836 0.703042 115.836 0.841843V12.5513C115.836 12.6901 115.948 12.8024 116.087 12.8024H125.738C125.877 12.8024 125.989 12.6901 125.989 12.5513V10.0382C125.989 9.89936 125.877 9.78714 125.738 9.78714H119.885V8.17173H124.796C124.935 8.17173 125.047 8.0595 125.047 7.9207V5.45772C125.047 5.31892 124.935 5.2067 124.796 5.2067H119.885V3.62968H125.738C125.877 3.62968 125.989 3.51746 125.989 3.37866Z" fill="#BEC2CB"/>
<path d="M86.2352 3.37866V0.841843C86.2352 0.703042 86.123 0.59082 85.9842 0.59082H76.3331C76.1943 0.59082 76.082 0.703042 76.082 0.841843V12.5513C76.082 12.6901 76.1943 12.8024 76.3331 12.8024H85.9842C86.123 12.8024 86.2352 12.6901 86.2352 12.5513V10.0382C86.2352 9.89936 86.123 9.78714 85.9842 9.78714H80.1309V8.17173H85.0421C85.1809 8.17173 85.2931 8.0595 85.2931 7.9207V5.45772C85.2931 5.31892 85.1809 5.2067 85.0421 5.2067H80.1309V3.62968H85.9842C86.123 3.62968 86.2352 3.51746 86.2352 3.37866Z" fill="#BEC2CB"/>
<path d="M59.2156 3.37866V0.841843C59.2156 0.703042 59.1034 0.59082 58.9646 0.59082H49.3135C49.1747 0.59082 49.0625 0.703042 49.0625 0.841843V12.5513C49.0625 12.6901 49.1747 12.8024 49.3135 12.8024H58.9646C59.1034 12.8024 59.2156 12.6901 59.2156 12.5513V10.0382C59.2156 9.89936 59.1034 9.78714 58.9646 9.78714H53.1114V8.17173H58.0225C58.1613 8.17173 58.2736 8.0595 58.2736 7.9207V5.45772C58.2736 5.31892 58.1613 5.2067 58.0225 5.2067H53.1114V3.62968H58.9646C59.1034 3.62968 59.2156 3.51746 59.2156 3.37866Z" fill="#BEC2CB"/>
<path d="M139.016 0.578613H128.249C128.11 0.578613 127.998 0.690835 127.998 0.829636V3.37531C127.998 3.51411 128.11 3.62633 128.249 3.62633H131.574V12.5391C131.574 12.6779 131.687 12.7902 131.825 12.7902H135.44C135.579 12.7902 135.691 12.6779 135.691 12.5391V3.62929H139.016C139.155 3.62929 139.268 3.51706 139.268 3.37826V0.83259C139.268 0.690836 139.155 0.578613 139.016 0.578613Z" fill="#BEC2CB"/>
<path d="M100.059 12.3919L97.773 9.03407C98.5172 8.65015 99.0872 8.13334 99.4829 7.48067C99.8787 6.83097 100.077 6.06904 100.077 5.19488C100.077 4.26462 99.8491 3.44953 99.3973 2.75257C98.9425 2.05562 98.2987 1.52108 97.46 1.14898C96.6213 0.776873 95.6378 0.59082 94.5127 0.59082H88.8957C88.7509 0.59082 88.6328 0.708949 88.6328 0.853656V12.5425C88.6328 12.6872 88.7509 12.8053 88.8957 12.8053H92.4897C92.6344 12.8053 92.7526 12.6872 92.7526 12.5425V9.79009H93.8689L95.8682 12.6901C95.9154 12.761 95.9981 12.8053 96.0838 12.8053H99.8462C100.053 12.8024 100.177 12.5661 100.059 12.3919ZM95.4754 6.29348C95.1742 6.56222 94.7253 6.69512 94.1258 6.69512H92.7466V3.62377H94.1258C94.7253 3.62377 95.1742 3.75962 95.4754 4.02541C95.7737 4.29415 95.9243 4.67217 95.9243 5.15649C95.9243 5.64673 95.7737 6.02474 95.4754 6.29348Z" fill="#BEC2CB"/>
<path d="M177.079 11.5738C176.033 10.5608 175.508 9.14326 175.508 7.31818V0.850632C175.508 0.711831 175.62 0.599609 175.759 0.599609H179.374C179.512 0.599609 179.625 0.711831 179.625 0.850632V7.19414C179.625 8.08897 179.784 8.74163 180.106 9.14917C180.425 9.55672 180.889 9.76049 181.494 9.76049C182.099 9.76049 182.56 9.55672 182.882 9.14917C183.201 8.74163 183.363 8.09192 183.363 7.19414V0.850632C183.363 0.711831 183.476 0.599609 183.614 0.599609H187.158C187.297 0.599609 187.409 0.711831 187.409 0.850632V7.31522C187.409 9.14031 186.887 10.5608 185.838 11.5708C184.793 12.5808 183.331 13.0888 181.459 13.0888C179.586 13.0888 178.127 12.5838 177.079 11.5738Z" fill="#878E9B"/>
<path d="M201.142 7.59576C201.538 8.10666 201.736 8.72388 201.736 9.44447C201.736 10.5135 201.293 11.3434 200.41 11.9311C199.527 12.5188 198.248 12.8111 196.57 12.8111H189.946C189.808 12.8111 189.695 12.6989 189.695 12.5601V0.853562C189.695 0.714761 189.808 0.602539 189.946 0.602539H196.219C197.846 0.602539 199.078 0.894907 199.908 1.47669C200.737 2.05847 201.154 2.83222 201.154 3.79792C201.154 4.36789 201.012 4.8788 200.726 5.33359C200.439 5.78839 200.02 6.15459 199.462 6.43219C200.188 6.69502 200.746 7.08485 201.142 7.59576ZM193.744 3.47897V5.29225H195.664C196.559 5.29225 197.007 4.99102 197.007 4.38561C197.007 3.7802 196.559 3.47897 195.664 3.47897H193.744ZM197.583 8.97491C197.583 8.33701 197.129 8.01511 196.222 8.01511H193.744V9.9347H196.222C197.129 9.9347 197.583 9.61576 197.583 8.97491Z" fill="#878E9B"/>
<path d="M169.102 0.850632V5.00876H165.298V0.850632C165.298 0.711831 165.186 0.599609 165.047 0.599609H161.433C161.294 0.599609 161.182 0.711831 161.182 0.850632V12.5601C161.182 12.6989 161.294 12.8112 161.433 12.8112H165.047C165.186 12.8112 165.298 12.6989 165.298 12.5601V8.38724H169.102V12.5601C169.102 12.6989 169.214 12.8112 169.353 12.8112H172.968C173.107 12.8112 173.219 12.6989 173.219 12.5601V0.850632C173.219 0.711831 173.107 0.599609 172.968 0.599609H169.353C169.214 0.599609 169.102 0.711831 169.102 0.850632Z" fill="#878E9B"/>
</svg>
