<svg width="70" height="70" viewBox="0 0 70 70" fill="none" xmlns="http://www.w3.org/2000/svg">
<path d="M35.1223 56.9176C29.4891 56.9082 24.0798 54.7111 20.0356 50.7896C15.9914 46.8682 13.6286 41.5292 13.4457 35.8989C13.4409 35.7754 13.4853 35.655 13.5692 35.5641C13.6531 35.4733 13.7696 35.4195 13.8932 35.4145C13.9548 35.4105 14.0166 35.4191 14.0748 35.4397C14.133 35.4604 14.1864 35.4926 14.2317 35.5345C14.2771 35.5764 14.3134 35.6271 14.3386 35.6835C14.3638 35.7399 14.3772 35.8008 14.3781 35.8625C14.5523 41.2515 16.813 46.3621 20.6832 50.1162C24.5534 53.8703 29.7305 55.9743 35.1223 55.9843C35.2461 55.9843 35.3648 56.0334 35.4523 56.1209C35.5398 56.2085 35.589 56.3272 35.589 56.4509C35.589 56.5747 35.5398 56.6934 35.4523 56.7809C35.3648 56.8684 35.2461 56.9176 35.1223 56.9176Z" fill="black"/>
<path d="M56.3399 34.72C56.2188 34.7201 56.1025 34.6731 56.0154 34.589C55.9283 34.5048 55.8773 34.3902 55.8732 34.2692C55.7387 28.8538 53.4937 23.7053 49.6171 19.9217C45.7405 16.1381 40.539 14.0188 35.1219 14.0159C34.9982 14.0159 34.8795 13.9667 34.792 13.8792C34.7044 13.7917 34.6553 13.673 34.6553 13.5492C34.6553 13.4254 34.7044 13.3067 34.792 13.2192C34.8795 13.1317 34.9982 13.0825 35.1219 13.0825C40.781 13.0849 46.2153 15.2978 50.2661 19.2496C54.3169 23.2014 56.6637 28.5792 56.8061 34.2365C56.8101 34.3601 56.7649 34.4803 56.6804 34.5706C56.5958 34.6609 56.4789 34.714 56.3553 34.7181L56.3399 34.72Z" fill="black"/>
<path d="M56.3686 34.7408C56.2696 34.7409 56.1732 34.7095 56.0932 34.6512L51.2824 31.1386C51.1824 31.0656 51.1155 30.9558 51.0964 30.8335C51.0773 30.7111 51.1076 30.5862 51.1806 30.4862C51.2537 30.3862 51.3634 30.3193 51.4858 30.3002C51.6081 30.2811 51.733 30.3115 51.833 30.3845L56.2664 33.6222L59.5036 29.1889C59.5398 29.1394 59.5854 29.0974 59.6377 29.0655C59.6901 29.0336 59.7482 29.0123 59.8088 29.0029C59.8694 28.9934 59.9312 28.996 59.9908 29.0105C60.0504 29.0249 60.1065 29.051 60.156 29.0871C60.2056 29.1233 60.2475 29.1689 60.2794 29.2212C60.3113 29.2736 60.3326 29.3317 60.342 29.3923C60.3515 29.4529 60.3489 29.5147 60.3344 29.5743C60.32 29.6339 60.2939 29.69 60.2578 29.7395L56.747 34.5495C56.711 34.5991 56.6654 34.6412 56.613 34.6732C56.5607 34.7052 56.5025 34.7266 56.4418 34.7361C56.4176 34.7394 56.3931 34.7409 56.3686 34.7408Z" fill="black"/>
<path d="M10.1186 40.9268C10.0301 40.9267 9.94346 40.9015 9.86876 40.854C9.79406 40.8066 9.7344 40.7388 9.69673 40.6588C9.65906 40.5787 9.64494 40.4895 9.65601 40.4017C9.66709 40.3139 9.7029 40.2311 9.75927 40.1629L13.5584 35.5741C13.6374 35.479 13.7508 35.4191 13.8739 35.4075C13.9349 35.4009 13.9966 35.4068 14.0553 35.4249C14.1139 35.4429 14.1683 35.4728 14.215 35.5125L18.8033 39.3112C18.8505 39.3503 18.8896 39.3983 18.9182 39.4524C18.9469 39.5066 18.9646 39.5659 18.9704 39.6269C18.9762 39.6879 18.9698 39.7494 18.9518 39.808C18.9338 39.8666 18.9044 39.921 18.8653 39.9683C18.8263 40.0155 18.7783 40.0545 18.7241 40.0832C18.67 40.1119 18.6107 40.1296 18.5497 40.1354C18.4887 40.1411 18.4271 40.1348 18.3685 40.1168C18.31 40.0988 18.2555 40.0694 18.2083 40.0303L13.9793 36.5303L10.4793 40.7593C10.4353 40.812 10.3801 40.8544 10.3177 40.8834C10.2554 40.9124 10.1874 40.9272 10.1186 40.9268Z" fill="black"/>
<path d="M19.5096 34.0192C16.6399 34.0192 13.8346 33.1682 11.4485 31.5739C9.06235 29.9795 7.20262 27.7134 6.10444 25.0621C5.00626 22.4108 4.71894 19.4934 5.27884 16.6788C5.83873 13.8642 7.22068 11.2788 9.24993 9.2496C11.2792 7.22042 13.8646 5.83855 16.6792 5.27875C19.4938 4.71894 22.4112 5.00635 25.0625 6.10462C27.7138 7.20289 29.9798 9.06269 31.5741 11.4488C33.1684 13.835 34.0193 16.6403 34.0192 19.5101C34.0149 23.3569 32.4848 27.0449 29.7646 29.765C27.0445 32.485 23.3564 34.015 19.5096 34.0192Z" fill="#FEDD15"/>
<path d="M50.8245 65.3334C47.9548 65.3335 45.1495 64.4826 42.7633 62.8883C40.3771 61.2941 38.5173 59.028 37.4191 56.3767C36.3208 53.7255 36.0334 50.808 36.5932 47.9934C37.153 45.1788 38.5349 42.5934 40.5641 40.5641C42.5932 38.5349 45.1786 37.1529 47.9932 36.593C50.8078 36.0332 53.7252 36.3205 56.3765 37.4186C59.0278 38.5168 61.294 40.3766 62.8883 42.7627C64.4827 45.1488 65.3337 47.9541 65.3337 50.8238C65.3293 54.6706 63.7993 58.3586 61.0793 61.0787C58.3592 63.7989 54.6713 65.329 50.8245 65.3334Z" fill="#FEDD15"/>
<path d="M50.8238 59.8127C47.9818 59.8127 45.6699 57.6899 45.6699 55.0807C45.6699 54.957 45.7191 54.8383 45.8066 54.7507C45.8941 54.6632 46.0128 54.6141 46.1366 54.6141C46.2604 54.6141 46.3791 54.6632 46.4666 54.7507C46.5541 54.8383 46.6033 54.957 46.6033 55.0807C46.6033 57.1756 48.4965 58.8794 50.8238 58.8794C53.1511 58.8794 55.0439 57.1756 55.0439 55.0807C55.0439 52.9859 53.1511 51.2905 50.8238 51.2905C47.9818 51.2905 45.6699 49.1681 45.6699 46.5594C45.6699 43.9507 47.9818 41.8353 50.8238 41.8353C53.6658 41.8353 55.9772 43.9545 55.9772 46.5594C55.9772 46.6832 55.928 46.8019 55.8405 46.8894C55.753 46.9769 55.6343 47.0261 55.5105 47.0261C55.3868 47.0261 55.2681 46.9769 55.1805 46.8894C55.093 46.8019 55.0439 46.6832 55.0439 46.5594C55.0439 44.4692 53.1511 42.7687 50.8238 42.7687C48.4965 42.7687 46.6033 44.4692 46.6033 46.5594C46.6033 48.6496 48.4965 50.3571 50.8238 50.3571C53.6653 50.3571 55.9772 52.4763 55.9772 55.0807C55.9772 57.6852 53.6662 59.8127 50.8238 59.8127Z" fill="black"/>
<path d="M50.8241 61.5535C50.7003 61.5535 50.5816 61.5043 50.4941 61.4168C50.4066 61.3293 50.3574 61.2106 50.3574 61.0868V40.5614C50.3574 40.4376 50.4066 40.3189 50.4941 40.2314C50.5816 40.1439 50.7003 40.0947 50.8241 40.0947C50.9479 40.0947 51.0666 40.1439 51.1541 40.2314C51.2416 40.3189 51.2908 40.4376 51.2908 40.5614V61.0868C51.2908 61.2106 51.2416 61.3293 51.1541 61.4168C51.0666 61.5043 50.9479 61.5535 50.8241 61.5535Z" fill="black"/>
<path d="M14.2129 17.0166C14.2129 18.0127 14.3213 18.7598 14.5381 19.2578C14.7549 19.7559 15.1064 20.0049 15.5928 20.0049C16.5537 20.0049 17.0342 19.0088 17.0342 17.0166C17.0342 15.0361 16.5537 14.0459 15.5928 14.0459C15.1064 14.0459 14.7549 14.292 14.5381 14.7842C14.3213 15.2764 14.2129 16.0205 14.2129 17.0166ZM18.2383 17.0166C18.2383 18.3525 18.0127 19.3633 17.5615 20.0488C17.1162 20.7285 16.46 21.0684 15.5928 21.0684C14.7725 21.0684 14.1338 20.7197 13.6768 20.0225C13.2256 19.3252 13 18.3232 13 17.0166C13 15.6865 13.2168 14.6846 13.6504 14.0107C14.0898 13.3369 14.7373 13 15.5928 13C16.4424 13 17.0957 13.3486 17.5527 14.0459C18.0098 14.7432 18.2383 15.7334 18.2383 17.0166ZM21.9473 22.167C21.9473 23.1689 22.0557 23.9189 22.2725 24.417C22.4893 24.9092 22.8438 25.1553 23.3359 25.1553C23.8281 25.1553 24.1914 24.9121 24.4258 24.4258C24.6602 23.9336 24.7773 23.1807 24.7773 22.167C24.7773 21.165 24.6602 20.4238 24.4258 19.9434C24.1914 19.457 23.8281 19.2139 23.3359 19.2139C22.8438 19.2139 22.4893 19.457 22.2725 19.9434C22.0557 20.4238 21.9473 21.165 21.9473 22.167ZM25.9814 22.167C25.9814 23.4971 25.7559 24.5049 25.3047 25.1904C24.8594 25.8701 24.2031 26.21 23.3359 26.21C22.5039 26.21 21.8623 25.8613 21.4111 25.1641C20.9658 24.4668 20.7432 23.4678 20.7432 22.167C20.7432 20.8369 20.96 19.835 21.3936 19.1611C21.833 18.4873 22.4805 18.1504 23.3359 18.1504C24.168 18.1504 24.8154 18.4961 25.2783 19.1875C25.7471 19.873 25.9814 20.8662 25.9814 22.167ZM23.7139 13.1846L16.5859 26.0342H15.2939L22.4219 13.1846H23.7139Z" fill="black"/>
</svg>
