<svg width="70" height="71" viewBox="0 0 70 71" fill="none" xmlns="http://www.w3.org/2000/svg">
<path d="M44.9962 65.8333C39.6036 65.8278 34.4334 63.6836 30.6199 59.8709C28.3484 57.5999 26.6898 54.0193 25.9999 50.9999C25.3063 47.9643 25.5875 45.4959 25.5875 45.4959L33.0001 43.9999L39.4999 38.9999L44.0001 32.9999L44.9962 25.1539C44.9962 25.1539 55.5641 27.2969 59.3785 31.1113C63.1929 34.9257 65.3359 40.0992 65.3359 45.4936C65.3359 50.888 63.1929 56.0615 59.3785 59.8759C55.5641 63.6903 50.3906 65.8333 44.9962 65.8333Z" fill="#FEDD15"/>
<path d="M25.0057 45.8455C20.983 45.8456 17.0505 44.6528 13.7057 42.418C10.3609 40.1831 7.75389 37.0066 6.21439 33.2901C4.67489 29.5736 4.27204 25.4841 5.05678 21.5386C5.84152 17.5932 7.7786 13.969 10.6231 11.1245C13.4675 8.27997 17.0916 6.3428 21.0371 5.55797C24.9825 4.77314 29.0721 5.1759 32.7886 6.71531C36.5051 8.25472 39.6817 10.8616 41.9166 14.2064C44.1515 17.5512 45.3444 21.4836 45.3444 25.5063C45.3382 30.8986 43.1935 36.0683 39.3806 39.8813C35.5677 43.6943 30.398 45.8392 25.0057 45.8455ZM25.0057 6.10046C21.1676 6.10036 17.4156 7.23842 14.2242 9.37071C11.0329 11.503 8.54553 14.5337 7.07668 18.0797C5.60782 21.6256 5.22345 25.5275 5.97218 29.2919C6.72091 33.0563 8.5691 36.5142 11.283 39.2282C13.997 41.9422 17.4548 43.7905 21.2192 44.5393C24.9835 45.2881 28.8854 44.9038 32.4314 43.4351C35.9774 41.9663 39.0082 39.479 41.1406 36.2877C43.2729 33.0964 44.4111 29.3445 44.4111 25.5063C44.4055 20.3613 42.3593 15.4286 38.7213 11.7904C35.0833 8.15228 30.1507 6.1058 25.0057 6.09999V6.10046Z" fill="black"/>
<path d="M25.0036 37.4157C21.1587 37.4157 18.0311 34.639 18.0311 31.2258C18.0311 31.1021 18.0803 30.9834 18.1678 30.8958C18.2553 30.8083 18.374 30.7592 18.4978 30.7592C18.6216 30.7592 18.7403 30.8083 18.8278 30.8958C18.9153 30.9834 18.9645 31.1021 18.9645 31.2258C18.9645 34.1243 21.6735 36.4824 25.0036 36.4824C28.3337 36.4824 31.0474 34.1243 31.0474 31.2258C31.0474 28.3274 28.3361 25.973 25.0036 25.973C21.1587 25.973 18.0311 23.1964 18.0311 19.7827C18.0311 16.369 21.1578 13.5966 25.0036 13.5966C28.8494 13.5966 31.9807 16.3718 31.9807 19.7827C31.9807 19.9065 31.9316 20.0252 31.844 20.1127C31.7565 20.2002 31.6378 20.2494 31.5141 20.2494C31.3903 20.2494 31.2716 20.2002 31.1841 20.1127C31.0966 20.0252 31.0474 19.9065 31.0474 19.7827C31.0474 16.8866 28.3361 14.5299 25.0036 14.5299C21.6711 14.5299 18.9645 16.8866 18.9645 19.7827C18.9645 22.6788 21.6735 25.0397 25.0036 25.0397C28.8508 25.0397 31.9807 27.8145 31.9807 31.2258C31.9807 34.6372 28.8508 37.4157 25.0036 37.4157Z" fill="black"/>
<path d="M25.0057 39.6068C24.882 39.6068 24.7633 39.5576 24.6757 39.4701C24.5882 39.3826 24.5391 39.2639 24.5391 39.1401V11.8746C24.5391 11.7509 24.5882 11.6322 24.6757 11.5446C24.7633 11.4571 24.882 11.408 25.0057 11.408C25.1295 11.408 25.2482 11.4571 25.3357 11.5446C25.4232 11.6322 25.4724 11.7509 25.4724 11.8746V39.1401C25.4724 39.2639 25.4232 39.3826 25.3357 39.4701C25.2482 39.5576 25.1295 39.6068 25.0057 39.6068Z" fill="black"/>
<path d="M51.5013 40.2357C51.3775 40.2357 51.2588 40.1866 51.1713 40.0991C51.0838 40.0115 51.0346 39.8928 51.0346 39.7691C51.0346 36.8757 48.3279 34.5191 44.9959 34.5191C44.2931 34.5185 43.5943 34.6247 42.9235 34.8341C42.865 34.8525 42.8035 34.8592 42.7424 34.8538C42.6814 34.8484 42.622 34.831 42.5677 34.8027C42.5133 34.7743 42.4651 34.7356 42.4257 34.6886C42.3864 34.6416 42.3566 34.5873 42.3383 34.5289C42.3199 34.4704 42.3132 34.4089 42.3186 34.3478C42.324 34.2868 42.3413 34.2274 42.3697 34.1731C42.398 34.1187 42.4368 34.0705 42.4838 34.0311C42.5307 33.9918 42.585 33.9621 42.6435 33.9437C43.4034 33.7062 44.1951 33.5858 44.9913 33.5867C48.8403 33.5867 51.9679 36.361 51.9679 39.77C51.9677 39.8936 51.9184 40.0121 51.8309 40.0994C51.7434 40.1867 51.6249 40.2357 51.5013 40.2357Z" fill="black"/>
<path d="M44.9958 57.4043C41.1468 57.4043 38.0192 54.6262 38.0192 51.2121C38.0192 51.0883 38.0683 50.9696 38.1558 50.8821C38.2434 50.7946 38.3621 50.7454 38.4858 50.7454C38.6096 50.7454 38.7283 50.7946 38.8158 50.8821C38.9033 50.9696 38.9525 51.0883 38.9525 51.2121C38.9525 54.112 41.6615 56.471 44.9912 56.471C48.3208 56.471 51.0345 54.112 51.0345 51.2121C51.0345 48.3122 48.3278 45.9621 44.9958 45.9621C41.2928 45.9621 38.2371 43.3954 38.0341 40.1199C38.0265 39.9961 38.0684 39.8744 38.1505 39.7815C38.2326 39.6886 38.3483 39.6322 38.4721 39.6245C38.5958 39.6169 38.7176 39.6588 38.8105 39.7409C38.9034 39.8231 38.9598 39.9387 38.9674 40.0625C39.1401 42.8471 41.7866 45.0288 44.993 45.0288C48.8421 45.0288 51.9697 47.8026 51.9697 51.2121C51.9697 54.6216 48.8402 57.4043 44.9958 57.4043Z" fill="black"/>
<path d="M44.9943 59.5935C44.8705 59.5935 44.7518 59.5443 44.6643 59.4568C44.5768 59.3693 44.5276 59.2506 44.5276 59.1269V31.8628C44.5276 31.739 44.5768 31.6203 44.6643 31.5328C44.7518 31.4453 44.8705 31.3961 44.9943 31.3961C45.118 31.3961 45.2367 31.4453 45.3242 31.5328C45.4118 31.6203 45.4609 31.739 45.4609 31.8628V59.1269C45.4609 59.2506 45.4118 59.3693 45.3242 59.4568C45.2367 59.5443 45.118 59.5935 44.9943 59.5935Z" fill="black"/>
</svg>
