<svg width="66" height="66" viewBox="0 0 66 66" fill="none" xmlns="http://www.w3.org/2000/svg">
<path d="M19 26.5L33 12L47 26.5L33 64.5L19 26.5Z" fill="#FEDD15"/>
<path fill-rule="evenodd" clip-rule="evenodd" d="M18.1226 11.8601H47.8944L65.1106 26.3627L32.9997 65.8056L0.888672 26.3625L18.1226 11.8601ZM18.4418 12.7351L2.11076 26.4777L32.9997 64.4197L63.8888 26.4775L47.575 12.7351H18.4418Z" fill="black"/>
<path fill-rule="evenodd" clip-rule="evenodd" d="M64.5 26.8577H1.5V25.9827H64.5V26.8577Z" fill="black"/>
<path fill-rule="evenodd" clip-rule="evenodd" d="M18.8105 26.1135L32.688 11.991L33.3122 12.6042L19.4347 26.7268L18.8105 26.1135Z" fill="black"/>
<path fill-rule="evenodd" clip-rule="evenodd" d="M32.5884 65.2604L18.7109 26.5679L19.5346 26.2725L33.4121 64.965L32.5884 65.2604Z" fill="black"/>
<path fill-rule="evenodd" clip-rule="evenodd" d="M46.8654 26.7299L32.6904 12.6074L33.308 11.9875L47.483 26.1101L46.8654 26.7299Z" fill="black"/>
<path fill-rule="evenodd" clip-rule="evenodd" d="M32.6758 64.7044L46.7627 26.2722L47.5862 26.568L33.4993 65.0001L32.6758 64.7044Z" fill="black"/>
<path fill-rule="evenodd" clip-rule="evenodd" d="M20.892 0.984666L19.072 7.68717L18.2275 7.45787L20.0475 0.755371L20.892 0.984666Z" fill="black"/>
<path fill-rule="evenodd" clip-rule="evenodd" d="M12.1328 1.80469L15.6328 7.80717L14.877 8.24793L11.377 2.24544L12.1328 1.80469Z" fill="black"/>
<path fill-rule="evenodd" clip-rule="evenodd" d="M6.63652 8.44531L13.339 10.2653L13.1097 11.1097L6.40723 9.28974L6.63652 8.44531Z" fill="black"/>
</svg>
