<svg width="50" height="50" viewBox="0 0 50 50" fill="none" xmlns="http://www.w3.org/2000/svg">
<g filter="url(#filter0_d)">
<path d="M16.6667 32.4722C19.1335 34.1204 22.0336 35.0001 25.0003 35C28.9771 34.9954 32.7897 33.4135 35.6017 30.6015C38.4137 27.7894 39.9954 23.9768 40 20C40 17.0333 39.1203 14.1332 37.472 11.6664C35.8238 9.19967 33.4811 7.27708 30.7402 6.14178C27.9993 5.00648 24.9832 4.70945 22.0735 5.28825C19.1638 5.86706 16.4911 7.2957 14.3933 9.39353C12.2955 11.4913 10.8669 14.1641 10.2882 17.0739C9.70945 19.9836 10.0065 22.9996 11.1419 25.7405C12.2773 28.4814 14.1999 30.824 16.6667 32.4722Z" fill="#FEDD15"/>
<path d="M24.9976 28.7832C22.162 28.7832 19.8555 26.7354 19.8555 24.2182C19.8555 24.127 19.8917 24.0394 19.9563 23.9749C20.0208 23.9103 20.1084 23.8741 20.1996 23.8741C20.2909 23.8741 20.3784 23.9103 20.443 23.9749C20.5075 24.0394 20.5438 24.127 20.5438 24.2182C20.5438 26.3558 22.5417 28.0949 24.9976 28.0949C27.4536 28.0949 29.4549 26.3558 29.4549 24.2182C29.4549 22.0806 27.4553 20.3443 24.9976 20.3443C22.162 20.3443 19.8555 18.2966 19.8555 15.779C19.8555 13.2615 22.1614 11.2168 24.9976 11.2168C27.8339 11.2168 30.1432 13.2635 30.1432 15.779C30.1432 15.8703 30.1069 15.9578 30.0424 16.0224C29.9778 16.0869 29.8903 16.1232 29.799 16.1232C29.7077 16.1232 29.6202 16.0869 29.5557 16.0224C29.4911 15.9578 29.4549 15.8703 29.4549 15.779C29.4549 13.6431 27.4553 11.9051 24.9976 11.9051C22.5399 11.9051 20.5438 13.6431 20.5438 15.779C20.5438 17.9149 22.5417 19.656 24.9976 19.656C27.8349 19.656 30.1432 21.7024 30.1432 24.2182C30.1432 26.7341 27.8349 28.7832 24.9976 28.7832Z" fill="#515257" stroke="#515257" stroke-width="0.5"/>
<path d="M25.0004 30.3989C24.9091 30.3989 24.8216 30.3627 24.7571 30.2981C24.6925 30.2336 24.6562 30.146 24.6562 30.0548V9.9467C24.6562 9.85542 24.6925 9.76788 24.7571 9.70334C24.8216 9.6388 24.9091 9.60254 25.0004 9.60254C25.0917 9.60254 25.1792 9.6388 25.2438 9.70334C25.3083 9.76788 25.3446 9.85542 25.3446 9.9467V30.0548C25.3446 30.146 25.3083 30.2336 25.2438 30.2981C25.1792 30.3627 25.0917 30.3989 25.0004 30.3989Z" fill="#515257" stroke="#515257" stroke-width="0.5"/>
</g>
<defs>
<filter id="filter0_d" x="0" y="0" width="50" height="50" filterUnits="userSpaceOnUse" color-interpolation-filters="sRGB">
<feFlood flood-opacity="0" result="BackgroundImageFix"/>
<feColorMatrix in="SourceAlpha" type="matrix" values="0 0 0 0 0 0 0 0 0 0 0 0 0 0 0 0 0 0 127 0" result="hardAlpha"/>
<feOffset dy="5"/>
<feGaussianBlur stdDeviation="5"/>
<feColorMatrix type="matrix" values="0 0 0 0 0.0972222 0 0 0 0 0.116667 0 0 0 0 0.291667 0 0 0 0.08 0"/>
<feBlend mode="normal" in2="BackgroundImageFix" result="effect1_dropShadow"/>
<feBlend mode="normal" in="SourceGraphic" in2="effect1_dropShadow" result="shape"/>
</filter>
</defs>
</svg>
