<svg width="66" height="64" viewBox="0 0 66 64" fill="none" xmlns="http://www.w3.org/2000/svg">
<path fill-rule="evenodd" clip-rule="evenodd" d="M15.9547 35.7974C12.7679 35.7974 10.1797 38.3999 10.1797 41.5899V44.6699H9.30469V41.5899C9.30469 37.9198 12.2815 34.9224 15.9547 34.9224H50.0447C53.7163 34.9224 56.6947 37.9008 56.6947 41.5724V44.6524H55.8197V41.5724C55.8197 38.384 53.2331 35.7974 50.0447 35.7974H15.9547Z" fill="black"/>
<path fill-rule="evenodd" clip-rule="evenodd" d="M32.5625 44.6699V27.0474H33.4375V44.6699H32.5625Z" fill="black"/>
<path fill-rule="evenodd" clip-rule="evenodd" d="M19.6123 14.045C19.6123 6.65125 25.6061 0.657471 32.9998 0.657471C40.3935 0.657471 46.3873 6.65125 46.3873 14.045C46.3873 21.4387 40.3935 27.4324 32.9998 27.4324C25.6061 27.4324 19.6123 21.4387 19.6123 14.045Z" fill="#FEDD15"/>
<path fill-rule="evenodd" clip-rule="evenodd" d="M33.0177 7.34253C31.0943 7.34253 29.5352 8.90168 29.5352 10.825C29.5352 12.7483 31.0943 14.3075 33.0177 14.3075C34.941 14.3075 36.5001 12.7483 36.5001 10.825C36.5001 8.90168 34.941 7.34253 33.0177 7.34253ZM28.6602 10.825C28.6602 8.41843 30.6111 6.46753 33.0177 6.46753C35.4242 6.46753 37.3751 8.41843 37.3751 10.825C37.3751 13.2316 35.4242 15.1825 33.0177 15.1825C30.6111 15.1825 28.6602 13.2316 28.6602 10.825Z" fill="black"/>
<path fill-rule="evenodd" clip-rule="evenodd" d="M29.4648 17.6851C27.8112 17.6851 26.2257 18.5916 25.193 20.1651L23.5307 22.7023L22.7988 22.2228L24.4613 19.6853C25.6337 17.8989 27.4784 16.8101 29.4648 16.8101H36.4648C38.4305 16.8101 40.2567 17.8604 41.4476 19.6281L43.1809 22.2193L42.4536 22.7058L40.7219 20.117C40.7218 20.1168 40.7221 20.1172 40.7219 20.117C39.6728 18.5602 38.1038 17.6851 36.4648 17.6851H29.4648Z" fill="black"/>
<path fill-rule="evenodd" clip-rule="evenodd" d="M9.74251 45.1074C4.94868 45.1074 1.0625 48.9936 1.0625 53.7874C1.0625 58.5812 4.94868 62.4674 9.74251 62.4674C14.5363 62.4674 18.4225 58.5812 18.4225 53.7874C18.4225 48.9936 14.5363 45.1074 9.74251 45.1074ZM0.1875 53.7874C0.1875 48.5103 4.46543 44.2324 9.74251 44.2324C15.0196 44.2324 19.2975 48.5103 19.2975 53.7874C19.2975 59.0645 15.0196 63.3424 9.74251 63.3424C4.46543 63.3424 0.1875 59.0645 0.1875 53.7874Z" fill="black"/>
<path fill-rule="evenodd" clip-rule="evenodd" d="M9.74254 48.8525C8.45709 48.8525 7.41504 49.8946 7.41504 51.18C7.41504 52.4655 8.45709 53.5075 9.74254 53.5075C11.028 53.5075 12.07 52.4655 12.07 51.18C12.07 49.8946 11.028 48.8525 9.74254 48.8525ZM6.54004 51.18C6.54004 49.4113 7.97386 47.9775 9.74254 47.9775C11.5112 47.9775 12.945 49.4113 12.945 51.18C12.945 52.9487 11.5112 54.3825 9.74254 54.3825C7.97386 54.3825 6.54004 52.9487 6.54004 51.18Z" fill="black"/>
<path fill-rule="evenodd" clip-rule="evenodd" d="M4.35029 58.1589C4.35015 58.1591 4.35042 58.1587 4.35029 58.1589L3.1786 59.9426L2.44727 59.4622L3.61978 57.6772C4.47886 56.3791 5.81732 55.6074 7.25793 55.6074H12.1754C13.6172 55.6074 14.9356 56.3787 15.7934 57.6556M15.7934 57.6556L17.0184 59.4756L16.2925 59.9642L15.0675 58.1442C14.3503 57.0763 13.2885 56.4824 12.1754 56.4824H7.25793C6.14375 56.4824 5.0662 57.0774 4.35029 58.1589" fill="black"/>
<path fill-rule="evenodd" clip-rule="evenodd" d="M33.0003 45.1074C28.2065 45.1074 24.3203 48.9936 24.3203 53.7874C24.3203 58.5812 28.2065 62.4674 33.0003 62.4674C37.7941 62.4674 41.6803 58.5812 41.6803 53.7874C41.6803 48.9936 37.7941 45.1074 33.0003 45.1074ZM23.4453 53.7874C23.4453 48.5103 27.7232 44.2324 33.0003 44.2324C38.2774 44.2324 42.5553 48.5103 42.5553 53.7874C42.5553 59.0645 38.2774 63.3424 33.0003 63.3424C27.7232 63.3424 23.4453 59.0645 23.4453 53.7874Z" fill="black"/>
<path fill-rule="evenodd" clip-rule="evenodd" d="M33.0179 48.8525C31.7325 48.8525 30.6904 49.8946 30.6904 51.18C30.6904 52.4655 31.7325 53.5075 33.0179 53.5075C34.3034 53.5075 35.3454 52.4655 35.3454 51.18C35.3454 49.8946 34.3034 48.8525 33.0179 48.8525ZM29.8154 51.18C29.8154 49.4113 31.2492 47.9775 33.0179 47.9775C34.7866 47.9775 36.2204 49.4113 36.2204 51.18C36.2204 52.9487 34.7866 54.3825 33.0179 54.3825C31.2492 54.3825 29.8154 52.9487 29.8154 51.18Z" fill="black"/>
<path fill-rule="evenodd" clip-rule="evenodd" d="M27.6257 58.1589C27.6255 58.1591 27.6258 58.1587 27.6257 58.1589L26.454 59.9426L25.7227 59.4622L26.8952 57.6772C27.7542 56.3791 29.0927 55.6074 30.5333 55.6074H35.4508C36.8927 55.6074 38.2111 56.3788 39.0689 57.6558C39.0689 57.6559 39.0689 57.6558 39.0689 57.6558L40.2938 59.4756L39.5679 59.9642L38.3429 58.1442C37.6256 57.0763 36.5639 56.4824 35.4508 56.4824H30.5333C29.4191 56.4824 28.3416 57.0774 27.6257 58.1589Z" fill="black"/>
<path fill-rule="evenodd" clip-rule="evenodd" d="M56.2747 45.0898C51.4809 45.0898 47.5947 48.976 47.5947 53.7699C47.5947 58.5637 51.4809 62.4499 56.2747 62.4499C61.0686 62.4499 64.9547 58.5637 64.9547 53.7699C64.9547 48.976 61.0686 45.0898 56.2747 45.0898ZM46.7197 53.7699C46.7197 48.4928 50.9976 44.2148 56.2747 44.2148C61.5518 44.2148 65.8297 48.4928 65.8297 53.7699C65.8297 59.047 61.5518 63.3249 56.2747 63.3249C50.9976 63.3249 46.7197 59.047 46.7197 53.7699Z" fill="black"/>
<path fill-rule="evenodd" clip-rule="evenodd" d="M56.2748 48.8523C54.9893 48.8523 53.9473 49.8943 53.9473 51.1798C53.9473 52.4652 54.9893 53.5072 56.2748 53.5072C57.5602 53.5072 58.6023 52.4652 58.6023 51.1798C58.6023 49.8943 57.5602 48.8523 56.2748 48.8523ZM53.0723 51.1798C53.0723 49.4111 54.5061 47.9773 56.2748 47.9773C58.0435 47.9773 59.4773 49.4111 59.4773 51.1798C59.4773 52.9485 58.0435 54.3822 56.2748 54.3822C54.5061 54.3822 53.0723 52.9485 53.0723 51.1798Z" fill="black"/>
<path fill-rule="evenodd" clip-rule="evenodd" d="M50.8825 58.1589C50.8824 58.1591 50.8826 58.1587 50.8825 58.1589L49.7108 59.9426L48.9795 59.4622L50.152 57.6772C51.0111 56.3791 52.3496 55.6074 53.7902 55.6074H58.7077C60.1494 55.6074 61.4678 56.3787 62.3256 57.6556M62.3256 57.6556L63.5506 59.4756L62.8247 59.9642L61.5997 58.1442C60.8825 57.0763 59.8207 56.4824 58.7077 56.4824H53.7902C52.676 56.4824 51.5984 57.0774 50.8825 58.1589" fill="black"/>
</svg>
