<svg width="48" height="45" viewBox="0 0 48 45" fill="none" xmlns="http://www.w3.org/2000/svg">
<g filter="url(#filter0_d)">
<rect x="10" y="5" width="28" height="25" rx="4" fill="white"/>
</g>
<path d="M10 8C10 6.34315 11.3431 5 13 5H35C36.6569 5 38 6.34315 38 8V12H10V8Z" fill="#FEDD15"/>
<rect x="15" y="16" width="3" height="3" rx="1" fill="#515257"/>
<rect x="20" y="16" width="3" height="3" rx="1" fill="#515257"/>
<rect x="25" y="16" width="3" height="3" rx="1" fill="#515257"/>
<rect x="15" y="22" width="3" height="3" rx="1" fill="#515257"/>
<rect x="30" y="16" width="3" height="3" rx="1" fill="#515257"/>
<rect x="30" y="22" width="3" height="3" rx="1" fill="#515257"/>
<rect x="25" y="22" width="3" height="3" rx="1" fill="#515257"/>
<rect x="20" y="22" width="3" height="3" rx="1" fill="#515257"/>
<defs>
<filter id="filter0_d" x="0" y="0" width="48" height="45" filterUnits="userSpaceOnUse" color-interpolation-filters="sRGB">
<feFlood flood-opacity="0" result="BackgroundImageFix"/>
<feColorMatrix in="SourceAlpha" type="matrix" values="0 0 0 0 0 0 0 0 0 0 0 0 0 0 0 0 0 0 127 0" result="hardAlpha"/>
<feOffset dy="5"/>
<feGaussianBlur stdDeviation="5"/>
<feColorMatrix type="matrix" values="0 0 0 0 0.0972222 0 0 0 0 0.116667 0 0 0 0 0.291667 0 0 0 0.09 0"/>
<feBlend mode="normal" in2="BackgroundImageFix" result="effect1_dropShadow"/>
<feBlend mode="normal" in="SourceGraphic" in2="effect1_dropShadow" result="shape"/>
</filter>
</defs>
</svg>
