<svg width="48" height="48" viewBox="0 0 48 48" fill="none" xmlns="http://www.w3.org/2000/svg">
<path d="M13.3802 37.1822C13.0068 37.1822 12.6418 37.0715 12.3313 36.8641C12.0208 36.6566 11.7788 36.3617 11.6359 36.0168C11.493 35.6718 11.4556 35.2922 11.5285 34.9259C11.6013 34.5597 11.7811 34.2233 12.0452 33.9592C12.3092 33.6952 12.6456 33.5154 13.0119 33.4425C13.3781 33.3697 13.7577 33.4071 14.1027 33.55C14.4477 33.6929 14.7425 33.9349 14.95 34.2453C15.1575 34.5558 15.2682 34.9208 15.2682 35.2943C15.2677 35.7948 15.0686 36.2747 14.7146 36.6287C14.3607 36.9827 13.8808 37.1817 13.3802 37.1822ZM13.3802 34.0463C13.1334 34.0463 12.8921 34.1194 12.6868 34.2566C12.4816 34.3937 12.3216 34.5886 12.2272 34.8167C12.1327 35.0447 12.108 35.2956 12.1562 35.5377C12.2043 35.7798 12.3232 36.0022 12.4977 36.1767C12.6723 36.3513 12.8946 36.4701 13.1367 36.5183C13.3788 36.5664 13.6297 36.5417 13.8578 36.4472C14.0858 36.3528 14.2807 36.1928 14.4179 35.9876C14.555 35.7824 14.6282 35.5411 14.6282 35.2943C14.6278 34.9634 14.4961 34.6462 14.2622 34.4122C14.0282 34.1783 13.7111 34.0467 13.3802 34.0463Z" fill="white"/>
<path d="M7.78839 37.1822C7.41498 37.1822 7.04996 37.0715 6.73948 36.8641C6.429 36.6566 6.18701 36.3617 6.04411 36.0168C5.90121 35.6718 5.86382 35.2922 5.93667 34.9259C6.00952 34.5597 6.18933 34.2233 6.45337 33.9592C6.71742 33.6952 7.05383 33.5154 7.42006 33.4425C7.7863 33.3697 8.16591 33.4071 8.5109 33.55C8.85589 33.6929 9.15075 33.9349 9.35821 34.2453C9.56566 34.5558 9.67639 34.9208 9.67639 35.2943C9.6758 35.7948 9.4767 36.2747 9.12275 36.6286C8.76881 36.9826 8.28894 37.1817 7.78839 37.1822ZM7.78839 34.0463C7.54156 34.0463 7.30027 34.1194 7.09504 34.2566C6.88981 34.3937 6.72985 34.5886 6.63539 34.8167C6.54093 35.0447 6.51622 35.2956 6.56437 35.5377C6.61253 35.7798 6.73139 36.0022 6.90592 36.1767C7.08046 36.3513 7.30283 36.4701 7.54492 36.5183C7.78701 36.5664 8.03794 36.5417 8.26598 36.4472C8.49402 36.3528 8.68893 36.1928 8.82607 35.9876C8.9632 35.7824 9.03639 35.5411 9.03639 35.2943C9.03597 34.9634 8.90435 34.6462 8.67039 34.4122C8.43644 34.1783 8.11925 34.0467 7.78839 34.0463Z" fill="white"/>
<path d="M22.2008 38.9934C22.1368 38.9934 22.0702 38.9934 22.0068 38.9902L22.0411 38.3502C22.0936 38.3531 22.1521 38.3541 22.2011 38.3528C24.6762 38.3504 27.1165 37.7689 29.3267 36.6547C31.5369 35.5405 33.4557 33.9246 34.9298 31.9363C36.4038 29.9479 37.3921 27.6422 37.8157 25.2035C38.2392 22.7649 38.0863 20.261 37.3691 17.892L37.9816 17.707C38.7278 20.1716 38.8869 22.7766 38.4462 25.3136C38.0056 27.8507 36.9773 30.2494 35.4438 32.318C33.9102 34.3866 31.9138 36.0676 29.6144 37.2266C27.3149 38.3857 24.7761 38.9905 22.2011 38.9928L22.2008 38.9934Z" fill="black"/>
<path d="M7.45595 29.8941C6.30215 27.6025 5.70435 25.0713 5.71099 22.5056C5.71274 19.9319 6.31665 17.3942 7.47443 15.0956C8.6322 12.797 10.3117 10.8011 12.3787 9.26764C14.4457 7.73414 16.8429 6.70553 19.3784 6.26405C21.914 5.82257 24.5177 5.98047 26.9814 6.72512L26.7952 7.3376C23.8297 6.4404 20.6663 6.43184 17.6959 7.31298C14.7256 8.19412 12.0786 9.92632 10.0821 12.2955C8.08557 14.6647 6.82703 17.567 6.46204 20.6436C6.09706 23.7203 6.64162 26.8365 8.02843 29.607L8.06235 29.6749V29.7507L7.73947 29.7523L7.45595 29.8941Z" fill="black"/>
<path d="M22.2009 38.9957C22.1305 38.9968 22.06 38.9941 21.9897 38.9877L22.0585 38.3515C22.1059 38.3555 22.1534 38.3569 22.2009 38.3557C25.2035 38.3557 27.9561 35.1202 29.3849 29.9119C30.0234 27.4957 30.3418 25.0062 30.3318 22.5071C30.332 21.2879 30.2597 20.0697 30.1152 18.8591L30.7523 18.7852C30.8994 20.0209 30.9731 21.2642 30.9731 22.5087C30.9823 25.0644 30.656 27.6103 30.0025 30.0812C28.4937 35.58 25.5043 38.9957 22.2009 38.9957Z" fill="black"/>
<path d="M14.0485 28.6231C13.6325 26.6106 13.4255 24.5606 13.4309 22.5056C13.4212 19.9494 13.7472 17.4029 14.4005 14.9315C15.9086 9.43425 18.8981 6.01953 22.2021 6.01953C23.5845 6.01953 24.9573 6.63073 26.172 7.78657L25.7285 8.25025C24.6194 7.19425 23.4325 6.65953 22.1998 6.65953C19.1966 6.65953 16.444 9.89409 15.0158 15.1005C14.3772 17.5167 14.0587 20.0064 14.0686 22.5056C14.0634 24.5165 14.2657 26.5225 14.6725 28.4919L14.0485 28.6231Z" fill="black"/>
<path d="M22.2007 31.2773C21.7549 31.2773 21.3079 31.2674 20.8711 31.2479L20.8999 30.6079C21.3268 30.6271 21.7639 30.6367 22.2007 30.6367C24.7011 30.6474 27.1919 30.328 29.6087 29.6866C34.8132 28.2613 38.0464 25.5113 38.0464 22.509C38.0464 21.037 37.2548 19.5884 35.7572 18.317L35.961 18.07L36.1872 17.8438C37.8167 19.2242 38.6864 20.8412 38.6864 22.5045C38.688 25.813 35.273 28.8005 29.778 30.3045C27.306 30.9607 24.7582 31.2878 22.2007 31.2773Z" fill="black"/>
<path d="M11.0502 28.9813C7.6598 27.3343 5.71484 24.9752 5.71484 22.5096C5.71836 19.2005 9.13212 16.212 14.6243 14.708C18.2596 13.7636 22.0388 13.5032 25.7692 13.94L25.6956 14.5755C22.0465 14.1483 18.3498 14.4026 14.7936 15.3256C9.59196 16.7499 6.35868 19.5016 6.35548 22.5067C6.35548 24.7205 8.1686 26.8699 11.3305 28.4059L11.0502 28.9813Z" fill="black"/>
<path d="M21.8804 38.4375H22.5204V38.6753H21.8804V38.4375Z" fill="black"/>
<path d="M21.8804 6.33984H22.5204V32.3043H21.8804V6.33984Z" fill="black"/>
<path d="M6.0332 22.1875H38.3711V22.8275H6.0332V22.1875Z" fill="black"/>
<path d="M20.7728 43.8908C19.3328 43.8908 17.4746 43.5865 16.0867 42.2879C14.6598 42.561 13.1998 42.617 11.7562 42.454C10.0307 42.2765 8.36104 41.7414 6.85379 40.8828C5.30947 39.9762 4.19171 38.7814 3.62179 37.4268C3.34546 36.7776 3.20194 36.0796 3.19971 35.374C3.19971 31.4201 7.76643 28.2031 13.3792 28.2031C18.992 28.2031 23.5607 31.4201 23.5607 35.374C23.5607 37.559 22.1347 39.6335 19.7248 40.9874C20.663 41.902 21.7872 42.6037 23.0208 43.045C23.0838 43.0699 23.1373 43.1141 23.1736 43.1713C23.2099 43.2285 23.2271 43.2958 23.2227 43.3634C23.2183 43.431 23.1926 43.4955 23.1493 43.5475C23.1059 43.5996 23.0472 43.6365 22.9815 43.653C22.2562 43.8133 21.5155 43.893 20.7728 43.8908Z" fill="#FEDD15"/>
<path d="M18.9725 37.1822C18.5991 37.1822 18.234 37.0715 17.9236 36.8641C17.6131 36.6566 17.3711 36.3617 17.2282 36.0168C17.0853 35.6718 17.0479 35.2922 17.1208 34.9259C17.1936 34.5597 17.3734 34.2233 17.6375 33.9592C17.9015 33.6952 18.2379 33.5154 18.6041 33.4425C18.9704 33.3697 19.35 33.4071 19.695 33.55C20.04 33.6929 20.3348 33.9349 20.5423 34.2453C20.7497 34.5558 20.8605 34.9208 20.8605 35.2943C20.86 35.7948 20.6609 36.2747 20.3069 36.6287C19.953 36.9827 19.473 37.1817 18.9725 37.1822Z" fill="white"/>
<path d="M18.9725 37.1822C18.5991 37.1822 18.234 37.0715 17.9236 36.8641C17.6131 36.6566 17.3711 36.3617 17.2282 36.0168C17.0853 35.6718 17.0479 35.2922 17.1208 34.9259C17.1936 34.5597 17.3734 34.2233 17.6375 33.9592C17.9015 33.6952 18.2379 33.5154 18.6041 33.4425C18.9704 33.3697 19.35 33.4071 19.695 33.55C20.04 33.6929 20.3348 33.9349 20.5423 34.2453C20.7497 34.5558 20.8605 34.9208 20.8605 35.2943C20.86 35.7948 20.6609 36.2747 20.3069 36.6287C19.953 36.9827 19.473 37.1817 18.9725 37.1822ZM18.9725 34.0463C18.7256 34.0463 18.4844 34.1194 18.2791 34.2566C18.0739 34.3937 17.9139 34.5886 17.8195 34.8167C17.725 35.0447 17.7003 35.2956 17.7485 35.5377C17.7966 35.7798 17.9155 36.0022 18.09 36.1767C18.2645 36.3513 18.4869 36.4701 18.729 36.5183C18.9711 36.5664 19.222 36.5417 19.4501 36.4472C19.6781 36.3528 19.873 36.1928 20.0101 35.9876C20.1473 35.7824 20.2205 35.5411 20.2205 35.2943C20.2205 34.9633 20.089 34.6458 19.8549 34.4118C19.6209 34.1777 19.3035 34.0463 18.9725 34.0463Z" fill="white"/>
<path d="M13.3802 37.1822C13.0068 37.1822 12.6418 37.0715 12.3313 36.8641C12.0208 36.6566 11.7788 36.3617 11.6359 36.0168C11.493 35.6718 11.4556 35.2922 11.5285 34.9259C11.6013 34.5597 11.7811 34.2233 12.0452 33.9592C12.3092 33.6952 12.6456 33.5154 13.0119 33.4425C13.3781 33.3697 13.7577 33.4071 14.1027 33.55C14.4477 33.6929 14.7425 33.9349 14.95 34.2453C15.1575 34.5558 15.2682 34.9208 15.2682 35.2943C15.2677 35.7948 15.0686 36.2747 14.7146 36.6287C14.3607 36.9827 13.8808 37.1817 13.3802 37.1822Z" fill="white"/>
<path d="M7.78839 37.1822C7.41498 37.1822 7.04996 37.0715 6.73948 36.8641C6.429 36.6566 6.18701 36.3617 6.04411 36.0168C5.90121 35.6718 5.86382 35.2922 5.93667 34.9259C6.00952 34.5597 6.18933 34.2233 6.45337 33.9592C6.71742 33.6952 7.05383 33.5154 7.42006 33.4425C7.7863 33.3697 8.16591 33.4071 8.5109 33.55C8.85589 33.6929 9.15075 33.9349 9.35821 34.2453C9.56566 34.5558 9.67639 34.9208 9.67639 35.2943C9.6758 35.7948 9.4767 36.2747 9.12275 36.6286C8.76881 36.9826 8.28894 37.1817 7.78839 37.1822Z" fill="white"/>
<path d="M27.2263 19.8052C26.4833 19.8081 25.7422 19.7287 25.0167 19.5684C24.951 19.5519 24.8923 19.5149 24.8489 19.4629C24.8056 19.4108 24.7798 19.3463 24.7755 19.2787C24.7711 19.2111 24.7883 19.1439 24.8246 19.0867C24.8608 19.0295 24.9143 18.9852 24.9774 18.9604C26.211 18.519 27.3351 17.8173 28.2734 16.9028C25.8644 15.5479 24.4385 13.4733 24.4385 11.2881C24.4385 7.33415 29.0062 4.11719 34.6199 4.11719C40.2337 4.11719 44.7994 7.33415 44.7994 11.2881C44.7977 11.9939 44.6545 12.6923 44.3783 13.3418C43.8074 14.6957 42.6897 15.8903 41.1463 16.7978C39.6392 17.6567 37.9695 18.1918 36.2439 18.369C34.8003 18.5319 33.3403 18.476 31.9134 18.2033C30.5249 19.5005 28.6654 19.8049 27.2263 19.8052Z" fill="#FEDD15"/>
<path d="M29.0276 13.0963C28.6542 13.0963 28.2892 12.9856 27.9787 12.7781C27.6683 12.5707 27.4263 12.2758 27.2834 11.9308C27.1405 11.5858 27.1031 11.2062 27.1759 10.84C27.2488 10.4737 27.4286 10.1373 27.6926 9.8733C27.9567 9.60925 28.2931 9.42944 28.6593 9.35659C29.0256 9.28374 29.4052 9.32113 29.7502 9.46403C30.0951 9.60693 30.39 9.84892 30.5975 10.1594C30.8049 10.4699 30.9156 10.8349 30.9156 11.2083C30.9151 11.7089 30.7159 12.1887 30.362 12.5427C30.0081 12.8966 29.5282 13.0957 29.0276 13.0963Z" fill="white"/>
<path d="M29.0276 13.0963C28.6542 13.0963 28.2892 12.9856 27.9787 12.7781C27.6683 12.5707 27.4263 12.2758 27.2834 11.9308C27.1405 11.5858 27.1031 11.2062 27.1759 10.84C27.2488 10.4737 27.4286 10.1373 27.6926 9.8733C27.9567 9.60925 28.2931 9.42944 28.6593 9.35659C29.0256 9.28374 29.4052 9.32113 29.7502 9.46403C30.0951 9.60693 30.39 9.84892 30.5975 10.1594C30.8049 10.4699 30.9156 10.8349 30.9156 11.2083C30.9151 11.7089 30.7159 12.1887 30.362 12.5427C30.0081 12.8966 29.5282 13.0957 29.0276 13.0963ZM29.0276 9.96031C28.7808 9.96031 28.5395 10.0335 28.3343 10.1706C28.1291 10.3078 27.9691 10.5027 27.8746 10.7307C27.7802 10.9588 27.7555 11.2097 27.8036 11.4518C27.8518 11.6939 27.9706 11.9162 28.1452 12.0908C28.3197 12.2653 28.5421 12.3842 28.7842 12.4323C29.0263 12.4805 29.2772 12.4558 29.5052 12.3613C29.7333 12.2669 29.9282 12.1069 30.0653 11.9017C30.2025 11.6964 30.2756 11.4551 30.2756 11.2083C30.2753 10.8774 30.1437 10.5601 29.9098 10.3261C29.6758 10.0921 29.3586 9.96042 29.0276 9.95999V9.96031Z" fill="white"/>
<path d="M34.6199 13.0963C34.2465 13.0963 33.8815 12.9856 33.571 12.7781C33.2605 12.5707 33.0185 12.2758 32.8756 11.9308C32.7328 11.5858 32.6954 11.2062 32.7682 10.84C32.8411 10.4737 33.0209 10.1373 33.2849 9.8733C33.549 9.60925 33.8854 9.42944 34.2516 9.35659C34.6178 9.28374 34.9975 9.32113 35.3424 9.46403C35.6874 9.60693 35.9823 9.84892 36.1897 10.1594C36.3972 10.4699 36.5079 10.8349 36.5079 11.2083C36.5073 11.7089 36.3082 12.1887 35.9543 12.5427C35.6004 12.8966 35.1205 13.0957 34.6199 13.0963Z" fill="white"/>
<path d="M34.6199 13.0963C34.2465 13.0963 33.8815 12.9856 33.571 12.7781C33.2605 12.5707 33.0185 12.2758 32.8756 11.9308C32.7328 11.5858 32.6954 11.2062 32.7682 10.84C32.8411 10.4737 33.0209 10.1373 33.2849 9.8733C33.549 9.60925 33.8854 9.42944 34.2516 9.35659C34.6178 9.28374 34.9975 9.32113 35.3424 9.46403C35.6874 9.60693 35.9823 9.84892 36.1897 10.1594C36.3972 10.4699 36.5079 10.8349 36.5079 11.2083C36.5073 11.7089 36.3082 12.1887 35.9543 12.5427C35.6004 12.8966 35.1205 13.0957 34.6199 13.0963ZM34.6199 9.96031C34.3731 9.96031 34.1318 10.0335 33.9266 10.1706C33.7214 10.3078 33.5614 10.5027 33.4669 10.7307C33.3725 10.9588 33.3478 11.2097 33.3959 11.4518C33.4441 11.6939 33.5629 11.9162 33.7375 12.0908C33.912 12.2653 34.1344 12.3842 34.3765 12.4323C34.6185 12.4805 34.8695 12.4558 35.0975 12.3613C35.3256 12.2669 35.5205 12.1069 35.6576 11.9017C35.7947 11.6964 35.8679 11.4551 35.8679 11.2083C35.8676 10.8774 35.736 10.5601 35.502 10.3261C35.2681 10.0921 34.9508 9.96042 34.6199 9.95999V9.96031Z" fill="white"/>
<path d="M40.2117 13.0963C39.8383 13.0963 39.4733 12.9856 39.1628 12.7781C38.8523 12.5707 38.6103 12.2758 38.4674 11.9308C38.3245 11.5858 38.2872 11.2062 38.36 10.84C38.4329 10.4737 38.6127 10.1373 38.8767 9.8733C39.1408 9.60925 39.4772 9.42944 39.8434 9.35659C40.2096 9.28374 40.5893 9.32113 40.9342 9.46403C41.2792 9.60693 41.5741 9.84892 41.7816 10.1594C41.989 10.4699 42.0997 10.8349 42.0997 11.2083C42.0991 11.7089 41.9 12.1887 41.5461 12.5427C41.1922 12.8966 40.7123 13.0957 40.2117 13.0963Z" fill="white"/>
<path d="M40.2117 13.0963C39.8383 13.0963 39.4733 12.9856 39.1628 12.7781C38.8523 12.5707 38.6103 12.2758 38.4674 11.9308C38.3245 11.5858 38.2872 11.2062 38.36 10.84C38.4329 10.4737 38.6127 10.1373 38.8767 9.8733C39.1408 9.60925 39.4772 9.42944 39.8434 9.35659C40.2096 9.28374 40.5893 9.32113 40.9342 9.46403C41.2792 9.60693 41.5741 9.84892 41.7816 10.1594C41.989 10.4699 42.0997 10.8349 42.0997 11.2083C42.0991 11.7089 41.9 12.1887 41.5461 12.5427C41.1922 12.8966 40.7123 13.0957 40.2117 13.0963ZM40.2117 9.96031C39.9649 9.96031 39.7236 10.0335 39.5184 10.1706C39.3131 10.3078 39.1532 10.5027 39.0587 10.7307C38.9643 10.9588 38.9396 11.2097 38.9877 11.4518C39.0359 11.6939 39.1547 11.9162 39.3293 12.0908C39.5038 12.2653 39.7262 12.3842 39.9683 12.4323C40.2103 12.4805 40.4613 12.4558 40.6893 12.3613C40.9174 12.2669 41.1123 12.1069 41.2494 11.9017C41.3865 11.6964 41.4597 11.4551 41.4597 11.2083C41.4594 10.8774 41.3278 10.5601 41.0938 10.3261C40.8599 10.0921 40.5427 9.96042 40.2117 9.95999V9.96031Z" fill="white"/>
</svg>
