<svg width="70" height="71" viewBox="0 0 70 71" fill="none" xmlns="http://www.w3.org/2000/svg">
<path d="M63.4714 65.8334H6.52875C6.03529 65.8322 5.5624 65.6356 5.21348 65.2867C4.86455 64.9378 4.66798 64.4649 4.66675 63.9714V7.02875C4.66798 6.53529 4.86455 6.0624 5.21348 5.71348C5.5624 5.36455 6.03529 5.16798 6.52875 5.16675H63.4714C63.9649 5.16798 64.4378 5.36455 64.7867 5.71348C65.1356 6.0624 65.3322 6.53529 65.3334 7.02875V63.9714C65.3322 64.4649 65.1356 64.9378 64.7867 65.2867C64.4378 65.6356 63.9649 65.8322 63.4714 65.8334ZM6.52875 6.10008C6.28256 6.10045 6.04657 6.19841 5.87249 6.37249C5.69841 6.54657 5.60045 6.78256 5.60008 7.02875V63.9714C5.60045 64.2176 5.69841 64.4536 5.87249 64.6277C6.04657 64.8018 6.28256 64.8997 6.52875 64.9001H63.4714C63.7176 64.8997 63.9536 64.8018 64.1277 64.6277C64.3018 64.4536 64.3997 64.2176 64.4001 63.9714V7.02875C64.3997 6.78256 64.3018 6.54657 64.1277 6.37249C63.9536 6.19841 63.7176 6.10045 63.4714 6.10008H6.52875Z" fill="black"/>
<path d="M64.8668 16.5254H5.13341C5.00965 16.5254 4.89095 16.4762 4.80343 16.3887C4.71591 16.3012 4.66675 16.1825 4.66675 16.0587C4.66675 15.9349 4.71591 15.8162 4.80343 15.7287C4.89095 15.6412 5.00965 15.592 5.13341 15.592H64.8668C64.9905 15.592 65.1092 15.6412 65.1967 15.7287C65.2843 15.8162 65.3334 15.9349 65.3334 16.0587C65.3334 16.1825 65.2843 16.3012 65.1967 16.3887C65.1092 16.4762 64.9905 16.5254 64.8668 16.5254Z" fill="black"/>
<path d="M58.9484 13.3642C58.5801 13.3642 58.2162 13.2843 57.8817 13.1301C57.5473 12.9758 57.2502 12.7509 57.0111 12.4708C56.772 12.1906 56.5964 11.862 56.4966 11.5075C56.3967 11.153 56.3749 10.781 56.4326 10.4172C56.5061 9.95281 56.7065 9.51773 57.0118 9.16011C57.3171 8.8025 57.7154 8.53628 58.1625 8.3909C58.6097 8.24552 59.0884 8.22665 59.5456 8.33636C60.0028 8.44607 60.4208 8.68009 60.7533 9.01255C61.0858 9.34501 61.3199 9.76295 61.4297 10.2202C61.5395 10.6774 61.5207 11.156 61.3754 11.6032C61.2301 12.0504 60.9639 12.4487 60.6063 12.7541C60.2488 13.0594 59.8137 13.2599 59.3493 13.3334C59.2167 13.3538 59.0826 13.3641 58.9484 13.3642ZM58.9484 9.20111C58.8624 9.20104 58.7764 9.20743 58.6913 9.22025C58.357 9.27628 58.0486 9.4352 57.8089 9.67486C57.5693 9.91452 57.4103 10.223 57.3543 10.5572C57.3008 10.8842 57.3489 11.2197 57.4922 11.5184C57.6355 11.8171 57.8671 12.0646 58.1555 12.2275C58.444 12.3903 58.7756 12.4607 59.1053 12.4291C59.4351 12.3975 59.7473 12.2654 59.9996 12.0507C60.2519 11.836 60.4322 11.549 60.5161 11.2286C60.6001 10.9081 60.5836 10.5696 60.469 10.2587C60.3543 9.94791 60.1471 9.67977 59.8751 9.49054C59.6032 9.30131 59.2797 9.20012 58.9484 9.20065V9.20111Z" fill="black"/>
<path d="M49.7167 13.3641C49.3484 13.3641 48.9844 13.2843 48.6499 13.13C48.3154 12.9758 48.0183 12.7509 47.7791 12.4708C47.5399 12.1906 47.3643 11.862 47.2644 11.5074C47.1645 11.1529 47.1427 10.7809 47.2005 10.4171C47.2739 9.95251 47.4744 9.51731 47.7797 9.1596C48.0851 8.80188 48.4834 8.5356 48.9307 8.39019C49.378 8.24478 49.8568 8.22591 50.3141 8.33566C50.7714 8.44542 51.1895 8.67953 51.5221 9.0121C51.8547 9.34467 52.0888 9.76274 52.1985 10.2201C52.3083 10.6774 52.2894 11.1562 52.144 11.6035C51.9986 12.0508 51.7323 12.4491 51.3746 12.7545C51.0169 13.0598 50.5817 13.2603 50.1171 13.3337C49.9846 13.3539 49.8508 13.3641 49.7167 13.3641ZM48.1235 10.5575C48.0688 10.895 48.1225 11.2411 48.2769 11.5462C48.4313 11.8512 48.6784 12.0995 48.9827 12.2552C49.287 12.411 49.6329 12.4663 49.9706 12.4131C50.3084 12.3599 50.6205 12.201 50.8623 11.9593C51.104 11.7175 51.2629 11.4054 51.3161 11.0677C51.3693 10.7299 51.314 10.3841 51.1582 10.0797C51.0025 9.77538 50.7542 9.52826 50.4492 9.37389C50.1441 9.21951 49.798 9.16582 49.4605 9.22053C49.1255 9.27484 48.8161 9.4332 48.5762 9.67317C48.3362 9.91313 48.1778 10.2225 48.1235 10.5575Z" fill="black"/>
<path d="M40.4849 13.3643C40.1166 13.3643 39.7527 13.2845 39.4183 13.1303C39.0838 12.9761 38.7868 12.7512 38.5476 12.4711C38.3085 12.191 38.1329 11.8624 38.0331 11.5079C37.9332 11.1534 37.9114 10.7815 37.9691 10.4177C38.0426 9.9533 38.243 9.51822 38.5483 9.1606C38.8536 8.80299 39.2519 8.53677 39.699 8.39139C40.1462 8.24601 40.6249 8.22713 41.0821 8.33684C41.5393 8.44655 41.9573 8.68058 42.2898 9.01304C42.6223 9.3455 42.8564 9.76344 42.9662 10.2207C43.076 10.6779 43.0572 11.1565 42.9119 11.6037C42.7666 12.0509 42.5004 12.4492 42.1428 12.7546C41.7853 13.0599 41.3502 13.2604 40.8858 13.3339C40.7531 13.3542 40.6191 13.3643 40.4849 13.3643ZM40.4849 9.20113C40.3989 9.20106 40.3129 9.20745 40.2278 9.22027C39.8935 9.2763 39.5851 9.43522 39.3454 9.67488C39.1058 9.91454 38.9468 10.223 38.8908 10.5573C38.8373 10.8842 38.8854 11.2197 39.0287 11.5184C39.172 11.8171 39.4036 12.0646 39.692 12.2275C39.9805 12.3904 40.3121 12.4608 40.6418 12.4292C40.9716 12.3975 41.2838 12.2655 41.5361 12.0508C41.7884 11.8361 41.9687 11.5491 42.0526 11.2286C42.1366 10.9081 42.1201 10.5696 42.0055 10.2588C41.8908 9.94794 41.6836 9.67979 41.4116 9.49056C41.1397 9.30133 40.8162 9.20014 40.4849 9.20067V9.20113Z" fill="black"/>
<path d="M33.4358 11.2822H7.92406C7.8003 11.2822 7.6816 11.233 7.59408 11.1455C7.50656 11.058 7.4574 10.9393 7.4574 10.8155C7.4574 10.6918 7.50656 10.5731 7.59408 10.4856C7.6816 10.398 7.8003 10.3489 7.92406 10.3489H33.4358C33.5596 10.3489 33.6783 10.398 33.7658 10.4856C33.8533 10.5731 33.9025 10.6918 33.9025 10.8155C33.9025 10.9393 33.8533 11.058 33.7658 11.1455C33.6783 11.233 33.5596 11.2822 33.4358 11.2822Z" fill="black"/>
<path d="M36.5178 58.2601H33.2432C33.1374 58.2602 33.0346 58.2243 32.9519 58.1583C32.8691 58.0923 32.8112 58.0002 32.7877 57.897L32.1237 54.9691C30.3713 54.6177 28.7046 53.9272 27.2171 52.9363L24.6817 54.5375C24.5922 54.594 24.486 54.6183 24.3808 54.6065C24.2756 54.5948 24.1774 54.5475 24.1026 54.4726L21.7884 52.1584C21.7135 52.0836 21.6662 51.9855 21.6545 51.8802C21.6427 51.775 21.667 51.6688 21.7235 51.5793L23.3247 49.0439C22.3334 47.5563 21.6424 45.8894 21.2905 44.1369L18.3631 43.4728C18.2599 43.4493 18.1677 43.3914 18.1018 43.3087C18.0358 43.2259 17.9999 43.1232 18 43.0173V39.7432C17.9999 39.6374 18.0358 39.5346 18.1018 39.4519C18.1677 39.3691 18.2599 39.3112 18.3631 39.2877L21.2905 38.6237C21.6424 36.8713 22.3333 35.2046 23.3242 33.7171L21.7231 31.1817C21.6666 31.0922 21.6422 30.986 21.654 30.8808C21.6658 30.7756 21.713 30.6774 21.7879 30.6026L24.1021 28.2889C24.177 28.2139 24.2751 28.1667 24.3803 28.1549C24.4856 28.1431 24.5917 28.1675 24.6813 28.224L27.2167 29.8247C28.7043 28.8336 30.3712 28.1426 32.1237 27.7905L32.7877 24.8631C32.8112 24.7599 32.8691 24.6677 32.9519 24.6018C33.0346 24.5358 33.1374 24.4999 33.2432 24.5H36.5178C36.6237 24.4999 36.7265 24.5359 36.8093 24.6019C36.892 24.668 36.9499 24.7602 36.9733 24.8635L37.6369 27.7905C39.3895 28.1419 41.0566 28.8325 42.5443 29.8233L45.0797 28.2226C45.1693 28.1661 45.2754 28.1417 45.3807 28.1535C45.4859 28.1653 45.584 28.2125 45.6589 28.2875L47.9731 30.6012C48.048 30.676 48.0952 30.7742 48.107 30.8794C48.1188 30.9846 48.0944 31.0908 48.0379 31.1803L46.4368 33.7171C47.4275 35.205 48.1181 36.872 48.4696 38.6246L51.397 39.2887C51.5002 39.3122 51.5923 39.37 51.6583 39.4528C51.7243 39.5356 51.7602 39.6383 51.7601 39.7441V43.0183C51.7602 43.1241 51.7243 43.2268 51.6583 43.3096C51.5923 43.3924 51.5002 43.4502 51.397 43.4737L48.4696 44.1378C48.1181 45.8903 47.4276 47.5572 46.4368 49.0448L48.0379 51.5802C48.0944 51.6698 48.1188 51.7759 48.107 51.8811C48.0952 51.9864 48.048 52.0845 47.9731 52.1593L45.6589 54.4735C45.584 54.5485 45.4859 54.5957 45.3807 54.6075C45.2754 54.6193 45.1693 54.5949 45.0797 54.5384L42.5443 52.9373C41.0565 53.9278 39.3895 54.6181 37.6369 54.9691L36.9733 57.8965C36.9499 57.9998 36.892 58.0921 36.8093 58.1581C36.7265 58.2242 36.6237 58.2601 36.5178 58.2601Z" fill="#FEDD15"/>
<path d="M34.8802 49.9492C32.8978 49.9477 30.9772 49.259 29.4457 48.0004C27.9142 46.7417 26.8664 44.991 26.4809 43.0464C26.0955 41.1019 26.3962 39.0838 27.3317 37.3361C28.2673 35.5884 29.7799 34.2191 31.6119 33.4616C33.4438 32.7041 35.4817 32.6051 37.3784 33.1817C39.2751 33.7582 40.9132 34.9745 42.0137 36.6234C43.1142 38.2722 43.6089 40.2517 43.4136 42.2244C43.2183 44.1971 42.3451 46.0411 40.9426 47.4422C40.1471 48.2389 39.202 48.8704 38.1616 49.3006C37.1212 49.7309 36.006 49.9513 34.8802 49.9492Z" fill="white"/>
<path d="M34.8802 49.9492C32.8978 49.9477 30.9772 49.259 29.4457 48.0004C27.9142 46.7417 26.8664 44.991 26.4809 43.0464C26.0955 41.1019 26.3962 39.0838 27.3317 37.3361C28.2673 35.5884 29.7799 34.2191 31.6119 33.4616C33.4438 32.7041 35.4817 32.6051 37.3784 33.1817C39.2751 33.7582 40.9132 34.9745 42.0137 36.6234C43.1142 38.2722 43.6089 40.2517 43.4136 42.2244C43.2183 44.1971 42.3451 46.0411 40.9426 47.4422C40.1471 48.2389 39.202 48.8704 38.1616 49.3006C37.1212 49.7309 36.006 49.9513 34.8802 49.9492ZM34.8802 33.739C33.1123 33.7384 31.399 34.3508 30.0321 35.4719C28.6652 36.5929 27.7293 38.1532 27.3838 39.887C27.0383 41.6207 27.3047 43.4206 28.1375 44.98C28.9703 46.5393 30.3181 47.7617 31.9511 48.4388C33.5841 49.1158 35.4014 49.2057 37.0933 48.6932C38.7851 48.1806 40.247 47.0972 41.2296 45.6277C42.2123 44.1581 42.655 42.3933 42.4824 40.6339C42.3097 38.8746 41.5324 37.2295 40.2828 35.979C39.5751 35.267 38.7332 34.7024 37.8058 34.3179C36.8785 33.9334 35.8841 33.7366 34.8802 33.739Z" fill="black"/>
</svg>
