<svg width="70" height="70" viewBox="0 0 70 70" fill="none" xmlns="http://www.w3.org/2000/svg">
<path d="M50.75 33.25C50.75 41.9485 43.6985 49 35 49C26.3015 49 19.25 41.9485 19.25 33.25C19.25 24.5515 26.3015 17.5 35 17.5C43.6985 17.5 50.75 24.5515 50.75 33.25Z" fill="#FEDD15"/>
<path fill-rule="evenodd" clip-rule="evenodd" d="M19.2501 4.8125C17.5667 4.8125 16.2051 6.17413 16.2051 7.8575V62.1425C16.2051 63.8259 17.5667 65.1875 19.2501 65.1875H51.0476C52.731 65.1875 54.0926 63.8259 54.0926 62.1425V7.8575C54.0926 6.17413 52.731 4.8125 51.0476 4.8125H19.2501ZM15.3301 7.8575C15.3301 5.69087 17.0835 3.9375 19.2501 3.9375H51.0476C53.2142 3.9375 54.9676 5.69087 54.9676 7.8575V62.1425C54.9676 64.3091 53.2142 66.0625 51.0476 66.0625H19.2501C17.0835 66.0625 15.3301 64.3091 15.3301 62.1425V7.8575Z" fill="black"/>
<path fill-rule="evenodd" clip-rule="evenodd" d="M35.1393 57.26C34.0085 57.26 33.0918 58.1767 33.0918 59.3075C33.0918 60.4383 34.0085 61.355 35.1393 61.355C36.2701 61.355 37.1868 60.4383 37.1868 59.3075C37.1868 58.1767 36.2701 57.26 35.1393 57.26ZM32.2168 59.3075C32.2168 57.6935 33.5252 56.385 35.1393 56.385C36.7533 56.385 38.0618 57.6934 38.0618 59.3075C38.0618 60.9216 36.7533 62.23 35.1393 62.23C33.5252 62.23 32.2168 60.9216 32.2168 59.3075Z" fill="black"/>
<path fill-rule="evenodd" clip-rule="evenodd" d="M38.4479 8.3125H31.5703V7.4375H38.4479V8.3125Z" fill="black"/>
<path fill-rule="evenodd" clip-rule="evenodd" d="M35.0169 21.8049C28.6574 21.8049 23.502 26.9604 23.502 33.3199C23.502 39.6795 28.6574 44.8349 35.0169 44.8349C41.3765 44.8349 46.532 39.6795 46.532 33.3199C46.532 26.9604 41.3765 21.8049 35.0169 21.8049ZM22.627 33.3199C22.627 26.4771 28.1741 20.9299 35.0169 20.9299C41.8597 20.9299 47.407 26.4771 47.407 33.3199C47.407 40.1627 41.8597 45.7099 35.0169 45.7099C28.1741 45.7099 22.627 40.1627 22.627 33.3199Z" fill="black"/>
<path fill-rule="evenodd" clip-rule="evenodd" d="M35.017 27.51C33.258 27.51 31.832 28.936 31.832 30.695C31.832 32.454 33.258 33.88 35.017 33.88C36.776 33.88 38.202 32.454 38.202 30.695C38.202 28.936 36.776 27.51 35.017 27.51ZM30.957 30.695C30.957 28.4527 32.7747 26.635 35.017 26.635C37.2593 26.635 39.077 28.4527 39.077 30.695C39.077 32.9373 37.2593 34.755 35.017 34.755C32.7747 34.755 30.957 32.9373 30.957 30.695Z" fill="black"/>
<path fill-rule="evenodd" clip-rule="evenodd" d="M31.7627 36.7324C30.2467 36.7324 28.7851 37.5536 27.8417 39.0013L27.8401 39.0038L27.84 39.0038L26.3 41.3313L25.5703 40.8485L27.1095 38.5223C28.1961 36.8557 29.9192 35.8574 31.7627 35.8574H38.2202C40.045 35.8574 41.7499 36.837 42.8367 38.4672L42.8371 38.4679L44.4296 40.8654L43.7008 41.3495L42.1087 38.9526C41.1655 37.5378 39.7204 36.7324 38.2202 36.7324H31.7627Z" fill="black"/>
<path fill-rule="evenodd" clip-rule="evenodd" d="M1.52344 33.3901C1.52344 27.4452 3.72935 22.1751 7.14212 19.0332L7.73477 19.6769C4.53254 22.625 2.39844 27.6449 2.39844 33.3901C2.39844 39.0491 4.46362 44.0018 7.58246 46.968L6.97944 47.6021C3.65828 44.4434 1.52344 39.2461 1.52344 33.3901Z" fill="black"/>
<path fill-rule="evenodd" clip-rule="evenodd" d="M3.32617 18.7776H8.06866V23.5201H7.19366V19.6526H3.32617V18.7776Z" fill="black"/>
<path fill-rule="evenodd" clip-rule="evenodd" d="M63.0229 18.8979C66.3441 22.0567 68.4789 27.254 68.4789 33.11C68.4789 39.0548 66.273 44.3249 62.8602 47.4668L62.2676 46.8231C65.4698 43.875 67.6039 38.8551 67.6039 33.11C67.6039 27.451 65.5387 22.4983 62.4199 19.532L63.0229 18.8979Z" fill="black"/>
<path fill-rule="evenodd" clip-rule="evenodd" d="M61.916 42.9624H62.791V46.8474H66.676V47.7224H61.916V42.9624Z" fill="black"/>
</svg>
