<svg width="202" height="24" viewBox="0 0 202 24" fill="none" xmlns="http://www.w3.org/2000/svg">
<path d="M53.0105 19.7186C53.0105 20.4214 52.854 20.9796 52.541 21.396C52.2279 21.8124 51.7967 22.0191 51.2475 22.0191C50.7188 22.0191 50.3054 21.8272 50.0101 21.4462L49.9599 21.9364H49.0385V15.5132H50.0544V17.8462C50.3467 17.5007 50.7425 17.3265 51.2386 17.3265C51.7908 17.3265 52.225 17.5302 52.538 17.9407C52.854 18.3512 53.0105 18.9241 53.0105 19.6595V19.7186ZM51.9946 19.63C51.9946 19.1397 51.909 18.7706 51.7347 18.5255C51.5634 18.2803 51.3124 18.1563 50.9817 18.1563C50.5416 18.1563 50.2315 18.3483 50.0544 18.7351V20.5986C50.2345 20.9914 50.5475 21.1893 50.9905 21.1893C51.3095 21.1893 51.5546 21.0711 51.7259 20.8349C51.8972 20.5986 51.9887 20.2413 51.9946 19.7599V19.63Z" fill="#878E9B"/>
<path d="M55.4054 20.4805L56.3268 17.4121H57.4106L55.6121 22.6216C55.3375 23.3835 54.8679 23.7645 54.2064 23.7645C54.0587 23.7645 53.8963 23.7409 53.7162 23.6877V22.8992L53.9081 22.911C54.165 22.911 54.357 22.8637 54.4869 22.7722C54.6169 22.6777 54.7202 22.5212 54.7941 22.3026L54.9417 21.9128L53.3529 17.4121H54.4485L55.4054 20.4805Z" fill="#878E9B"/>
<path d="M63.6482 20.5157H61.2886L60.7954 21.9333H59.6968L61.9973 15.8438H62.9453L65.2488 21.9333H64.1443L63.6482 20.5157ZM61.5868 19.6623H63.3528L62.4698 17.1373L61.5868 19.6623Z" fill="#878E9B"/>
<path d="M66.5922 17.4093L66.6218 17.9321C66.9555 17.5275 67.3955 17.3267 67.9389 17.3267C68.881 17.3267 69.3594 17.8671 69.3771 18.945V21.9337H68.3612V19.0011C68.3612 18.7147 68.2992 18.502 68.1751 18.3632C68.0511 18.2244 67.8473 18.1565 67.5668 18.1565C67.1563 18.1565 66.8521 18.3426 66.6513 18.7117V21.9307H65.6354V17.4064H66.5922V17.4093Z" fill="#878E9B"/>
<path d="M70.231 19.6389C70.231 18.9419 70.3934 18.3808 70.7153 17.9585C71.0372 17.5362 71.4713 17.3235 72.0147 17.3235C72.4931 17.3235 72.883 17.4919 73.1783 17.8256V15.5103H74.1942V21.9335H73.2728L73.2226 21.4639C72.9184 21.8331 72.5138 22.0162 72.0058 22.0162C71.4772 22.0162 71.046 21.8036 70.7212 21.3753C70.3963 20.953 70.231 20.3712 70.231 19.6389ZM71.2469 19.7274C71.2469 20.1882 71.3355 20.5455 71.5127 20.8054C71.6898 21.0653 71.9409 21.1922 72.2687 21.1922C72.6851 21.1922 72.9893 21.0062 73.1812 20.637V18.7056C72.9952 18.3424 72.6939 18.1622 72.2775 18.1622C71.9497 18.1622 71.6958 18.2922 71.5156 18.5521C71.3355 18.812 71.2469 19.2018 71.2469 19.7274Z" fill="#878E9B"/>
<path d="M77.2566 22.0193C76.6128 22.0193 76.0901 21.8156 75.6914 21.411C75.2927 21.0064 75.0919 20.4659 75.0919 19.7896V19.6627C75.0919 19.2108 75.1776 18.8062 75.3518 18.4518C75.526 18.0974 75.7712 17.8198 76.0842 17.622C76.4002 17.4241 76.7516 17.3267 77.1385 17.3267C77.7557 17.3267 78.2312 17.5245 78.5679 17.9173C78.9045 18.3101 79.0729 18.8653 79.0729 19.5859V19.9964H76.1167C76.1462 20.3685 76.2732 20.6668 76.4918 20.8823C76.7103 21.0979 76.9849 21.2072 77.3186 21.2072C77.7853 21.2072 78.1633 21.0182 78.4556 20.6431L79.002 21.1658C78.8218 21.4375 78.5797 21.6472 78.2755 21.7949C77.9713 21.9425 77.6346 22.0193 77.2566 22.0193ZM77.1356 18.1417C76.8579 18.1417 76.6305 18.2392 76.4593 18.4341C76.288 18.629 76.1787 18.9007 76.1315 19.2492H78.0688V19.1754C78.0451 18.8358 77.9565 18.5788 77.7971 18.4046C77.6376 18.2303 77.4191 18.1417 77.1356 18.1417Z" fill="#878E9B"/>
<path d="M82.2387 18.3396C82.1058 18.316 81.967 18.3071 81.8253 18.3071C81.3587 18.3071 81.0456 18.4843 80.8832 18.8417V21.9366H79.8673V17.4123H80.8389L80.8625 17.9173C81.1077 17.5245 81.4473 17.3267 81.8844 17.3267C82.0291 17.3267 82.1501 17.3473 82.2446 17.3857L82.2387 18.3396Z" fill="#878E9B"/>
<path d="M85.4251 20.7051C85.4251 20.525 85.3512 20.3862 85.2006 20.2917C85.053 20.1972 84.8049 20.1145 84.4594 20.0407C84.1138 19.9668 83.8244 19.8753 83.5941 19.7631C83.0861 19.5179 82.8321 19.1636 82.8321 18.697C82.8321 18.3071 82.9975 17.9793 83.3253 17.7194C83.6531 17.4566 84.0725 17.3267 84.5804 17.3267C85.1209 17.3267 85.558 17.4596 85.8917 17.7283C86.2254 17.997 86.3908 18.3426 86.3908 18.7708H85.3749C85.3749 18.5759 85.301 18.4134 85.1563 18.2835C85.0116 18.1536 84.8197 18.0886 84.5775 18.0886C84.356 18.0886 84.1729 18.1388 84.0311 18.2422C83.8894 18.3455 83.8215 18.4843 83.8215 18.6556C83.8215 18.8121 83.8864 18.9332 84.0193 19.0189C84.1493 19.1045 84.4151 19.1931 84.8137 19.2787C85.2124 19.3673 85.5255 19.4707 85.7529 19.5918C85.9803 19.7129 86.1486 19.8576 86.2579 20.0289C86.3671 20.2001 86.4233 20.4069 86.4233 20.649C86.4233 21.0566 86.2549 21.3873 85.9182 21.6384C85.5816 21.8894 85.1386 22.0164 84.5923 22.0164C84.2201 22.0164 83.8923 21.9484 83.6 21.8155C83.3106 21.6827 83.0832 21.4966 82.9237 21.2633C82.7613 21.03 82.6815 20.776 82.6815 20.5073H83.6679C83.6827 20.7465 83.7713 20.9325 83.9396 21.0625C84.1079 21.1924 84.3294 21.2574 84.6041 21.2574C84.8728 21.2574 85.0736 21.2072 85.2154 21.1038C85.3542 21.0034 85.4251 20.8705 85.4251 20.7051Z" fill="#878E9B"/>
<path d="M89.3083 22.0193C88.6645 22.0193 88.1417 21.8156 87.7431 21.411C87.3444 21.0064 87.1436 20.4659 87.1436 19.7896V19.6627C87.1436 19.2108 87.2292 18.8062 87.4034 18.4518C87.5777 18.0974 87.8228 17.8198 88.1358 17.622C88.4518 17.4241 88.8033 17.3267 89.1901 17.3267C89.8074 17.3267 90.2828 17.5245 90.6195 17.9173C90.9562 18.3101 91.1245 18.8653 91.1245 19.5859V19.9964H88.1683C88.1979 20.3685 88.3248 20.6668 88.5434 20.8823C88.7619 21.0979 89.0366 21.2072 89.3703 21.2072C89.8369 21.2072 90.2149 21.0182 90.5073 20.6431L91.0536 21.1658C90.8735 21.4375 90.6313 21.6472 90.3271 21.7949C90.0229 21.9425 89.6863 22.0193 89.3083 22.0193ZM89.1872 18.1417C88.9096 18.1417 88.6822 18.2392 88.5109 18.4341C88.3396 18.629 88.2303 18.9007 88.1831 19.2492H90.1204V19.1754C90.0968 18.8358 90.0082 18.5788 89.8487 18.4046C89.6892 18.2303 89.4707 18.1417 89.1872 18.1417Z" fill="#878E9B"/>
<path d="M92.8641 17.4093L92.8936 17.9321C93.2273 17.5275 93.6673 17.3267 94.2107 17.3267C95.1528 17.3267 95.6312 17.8671 95.649 18.945V21.9337H94.633V19.0011C94.633 18.7147 94.571 18.502 94.447 18.3632C94.323 18.2244 94.1192 18.1565 93.8386 18.1565C93.4281 18.1565 93.124 18.3426 92.9231 18.7117V21.9307H91.9072V17.4064H92.8641V17.4093Z" fill="#878E9B"/>
<path d="M97.7755 21.9335H96.7596V15.5103H97.7755V21.9335Z" fill="#878E9B"/>
<path d="M101.591 21.9337C101.547 21.8481 101.508 21.7063 101.473 21.5114C101.148 21.8481 100.752 22.0164 100.286 22.0164C99.8309 22.0164 99.4618 21.8864 99.1724 21.6266C98.8859 21.3667 98.7412 21.0477 98.7412 20.6638C98.7412 20.1824 98.9214 19.8103 99.2787 19.5534C99.636 19.2965 100.15 19.1665 100.814 19.1665H101.437V18.8683C101.437 18.635 101.373 18.446 101.24 18.3072C101.107 18.1684 100.909 18.0975 100.64 18.0975C100.41 18.0975 100.221 18.1565 100.07 18.2717C99.9225 18.3869 99.8487 18.5345 99.8487 18.7117H98.8328C98.8328 18.4637 98.9154 18.2304 99.0808 18.0148C99.2462 17.7992 99.4677 17.6279 99.7512 17.5068C100.035 17.3857 100.351 17.3237 100.699 17.3237C101.228 17.3237 101.65 17.4566 101.966 17.7224C102.282 17.9882 102.442 18.3633 102.45 18.8446V20.8853C102.45 21.2929 102.507 21.6177 102.622 21.8599V21.9307H101.591V21.9337ZM100.475 21.2013C100.676 21.2013 100.865 21.1511 101.042 21.0536C101.219 20.9562 101.352 20.8262 101.44 20.6609V19.8074H100.891C100.516 19.8074 100.233 19.8724 100.041 20.0053C99.8516 20.1352 99.7571 20.3212 99.7571 20.5605C99.7571 20.7554 99.8221 20.9119 99.952 21.0271C100.085 21.1452 100.259 21.2013 100.475 21.2013Z" fill="#878E9B"/>
<path d="M107.501 19.7186C107.501 20.4214 107.344 20.9796 107.031 21.396C106.718 21.8124 106.287 22.0191 105.737 22.0191C105.209 22.0191 104.795 21.8272 104.5 21.4462L104.45 21.9364H103.528V15.5132H104.544V17.8462C104.837 17.5007 105.232 17.3265 105.729 17.3265C106.281 17.3265 106.715 17.5302 107.028 17.9407C107.344 18.3512 107.501 18.9241 107.501 19.6595V19.7186ZM106.485 19.63C106.485 19.1397 106.399 18.7706 106.225 18.5255C106.053 18.2803 105.802 18.1563 105.472 18.1563C105.032 18.1563 104.722 18.3483 104.544 18.7351V20.5986C104.724 20.9914 105.038 21.1893 105.481 21.1893C105.799 21.1893 106.045 21.0711 106.216 20.8349C106.387 20.5986 106.479 20.2413 106.485 19.7599V19.63Z" fill="#878E9B"/>
<path d="M30.7608 8.20377H24.6594V0.835496C24.6594 0.696694 24.7716 0.584473 24.9104 0.584473H30.5097C30.6485 0.584473 30.7608 0.696694 30.7608 0.835496V8.20377Z" fill="#878E9B"/>
<path d="M18.3187 6.68582H6.35815V0.584473H18.3187C18.4575 0.584473 18.5697 0.696694 18.5697 0.835496V6.43479C18.5697 6.5736 18.4575 6.68582 18.3187 6.68582Z" fill="#878E9B"/>
<path d="M18.3069 21.9334H6.35815V15.832H18.3069C18.4457 15.832 18.5579 15.9443 18.5579 16.0831V21.6824C18.5579 21.8212 18.4457 21.9334 18.3069 21.9334Z" fill="#878E9B"/>
<path d="M42.7123 6.68582H37.113C36.9742 6.68582 36.8619 6.5736 36.8619 6.43479V0.835496C36.8619 0.696694 36.9742 0.584473 37.113 0.584473H42.7123C42.8511 0.584473 42.9633 0.696694 42.9633 0.835496V6.43479C42.9633 6.5736 42.8511 6.68582 42.7123 6.68582Z" fill="#BEC2CB"/>
<path d="M42.7123 21.9333H37.113C36.9742 21.9333 36.8619 21.8211 36.8619 21.6823V14.3081H42.9633V21.6823C42.9633 21.8211 42.8511 21.9333 42.7123 21.9333Z" fill="#878E9B"/>
<path d="M6.35815 8.20947H42.7122C42.8511 8.20947 42.9633 8.32169 42.9633 8.4605V14.3108H6.35815V8.20947Z" fill="#FFDB00"/>
<path d="M30.5097 21.9334H24.9104C24.7716 21.9334 24.6594 21.8212 24.6594 21.6824V16.0831C24.6594 15.9443 24.7716 15.832 24.9104 15.832H30.5097C30.6485 15.832 30.7608 15.9443 30.7608 16.0831V21.6824C30.7608 21.8212 30.6485 21.9334 30.5097 21.9334Z" fill="#BEC2CB"/>
<path d="M6.3583 21.9333H0.507981C0.36918 21.9333 0.256958 21.8211 0.256958 21.6822V0.835496C0.256958 0.696694 0.36918 0.584473 0.507981 0.584473H6.3583V21.9333Z" fill="#BEC2CB"/>
<path d="M73.6536 0.841843V12.5513C73.6536 12.6901 73.5414 12.8024 73.4026 12.8024H70.3874C70.3135 12.8024 70.2427 12.7699 70.1954 12.7138L65.6298 7.25623V12.5513C65.6298 12.6901 65.5175 12.8024 65.3787 12.8024H61.8673C61.7285 12.8024 61.6163 12.6901 61.6163 12.5513V0.841843C61.6163 0.703042 61.7285 0.59082 61.8673 0.59082H64.8826C64.9564 0.59082 65.0273 0.623307 65.0745 0.679418L69.6402 6.13696V0.841843C69.6402 0.703042 69.7524 0.59082 69.8912 0.59082H73.4026C73.5414 0.59082 73.6536 0.703042 73.6536 0.841843Z" fill="#BEC2CB"/>
<path d="M110.061 6.36415H113.135C113.274 6.36415 113.386 6.47637 113.386 6.61518V11.3905C113.386 11.4762 113.345 11.5559 113.274 11.6032C112.577 12.0668 111.776 12.4242 110.873 12.6781C109.919 12.9469 108.983 13.0798 108.064 13.0798C106.762 13.0798 105.592 12.8081 104.559 12.2676C103.522 11.7272 102.713 10.9712 102.125 9.99956C101.538 9.02795 101.245 7.9264 101.245 6.69491C101.245 5.46342 101.538 4.35892 102.125 3.39026C102.713 2.41866 103.534 1.66263 104.585 1.12219C105.64 0.581755 106.827 0.310059 108.153 0.310059C109.352 0.310059 110.424 0.510875 111.372 0.912513C112.24 1.27871 112.972 1.80143 113.575 2.47476C113.666 2.57813 113.655 2.7376 113.551 2.82915L111.289 4.82257C111.186 4.91412 111.032 4.90231 110.938 4.8019C110.205 4.02816 109.349 3.64424 108.365 3.64424C107.459 3.64424 106.738 3.91594 106.204 4.46523C105.669 5.01158 105.4 5.75579 105.4 6.69787C105.4 7.61632 105.666 8.35462 106.195 8.91278C106.723 9.47093 107.429 9.75149 108.315 9.75149C108.838 9.75149 109.34 9.65403 109.815 9.45617V6.62108C109.81 6.47637 109.922 6.36415 110.061 6.36415Z" fill="#BEC2CB"/>
<path d="M141.577 0.599609H145.192C145.331 0.599609 145.443 0.711831 145.443 0.850632V12.5601C145.443 12.6989 145.331 12.8112 145.192 12.8112H141.577C141.439 12.8112 141.326 12.6989 141.326 12.5601V0.850632C141.326 0.711831 141.439 0.599609 141.577 0.599609Z" fill="#BEC2CB"/>
<path d="M150.363 12.2794C149.327 11.7389 148.518 10.9829 147.93 10.0113C147.342 9.03967 147.05 7.93812 147.05 6.70663C147.05 5.47514 147.342 4.37064 147.93 3.40198C148.518 2.43037 149.33 1.67435 150.363 1.13391C151.397 0.593473 152.561 0.321777 153.851 0.321777C155.038 0.321777 156.096 0.531457 157.026 0.950814C157.882 1.33473 158.6 1.87812 159.179 2.57804C159.264 2.6814 159.25 2.83792 159.149 2.92652L156.922 4.91403C156.816 5.00853 156.657 4.99377 156.562 4.88745C155.845 4.06646 155.009 3.65596 154.058 3.65596C153.198 3.65596 152.504 3.93356 151.982 4.48581C151.459 5.03807 151.196 5.77932 151.196 6.70959C151.196 7.63985 151.459 8.38111 151.982 8.93336C152.504 9.48561 153.198 9.76321 154.058 9.76321C155.009 9.76321 155.842 9.35271 156.562 8.53172C156.657 8.4254 156.816 8.41064 156.922 8.50514L159.149 10.4927C159.25 10.5813 159.264 10.7378 159.179 10.8411C158.6 11.541 157.879 12.0815 157.026 12.4684C156.096 12.8877 155.038 13.0974 153.851 13.0974C152.561 13.0915 151.397 12.8198 150.363 12.2794Z" fill="#BEC2CB"/>
<path d="M125.988 3.37866V0.841843C125.988 0.703042 125.875 0.59082 125.737 0.59082H116.085C115.947 0.59082 115.834 0.703042 115.834 0.841843V12.5513C115.834 12.6901 115.947 12.8024 116.085 12.8024H125.737C125.875 12.8024 125.988 12.6901 125.988 12.5513V10.0382C125.988 9.89936 125.875 9.78714 125.737 9.78714H119.883V8.17173H124.795C124.933 8.17173 125.046 8.0595 125.046 7.9207V5.45772C125.046 5.31892 124.933 5.2067 124.795 5.2067H119.883V3.62968H125.737C125.875 3.62968 125.988 3.51746 125.988 3.37866Z" fill="#BEC2CB"/>
<path d="M86.234 3.37866V0.841843C86.234 0.703042 86.1217 0.59082 85.9829 0.59082H76.3318C76.193 0.59082 76.0808 0.703042 76.0808 0.841843V12.5513C76.0808 12.6901 76.193 12.8024 76.3318 12.8024H85.9829C86.1217 12.8024 86.234 12.6901 86.234 12.5513V10.0382C86.234 9.89936 86.1217 9.78714 85.9829 9.78714H80.1297V8.17173H85.0409C85.1797 8.17173 85.2919 8.0595 85.2919 7.9207V5.45772C85.2919 5.31892 85.1797 5.2067 85.0409 5.2067H80.1297V3.62968H85.9829C86.1217 3.62968 86.234 3.51746 86.234 3.37866Z" fill="#BEC2CB"/>
<path d="M59.2152 3.37866V0.841843C59.2152 0.703042 59.1029 0.59082 58.9641 0.59082H49.313C49.1742 0.59082 49.062 0.703042 49.062 0.841843V12.5513C49.062 12.6901 49.1742 12.8024 49.313 12.8024H58.9641C59.1029 12.8024 59.2152 12.6901 59.2152 12.5513V10.0382C59.2152 9.89936 59.1029 9.78714 58.9641 9.78714H53.1109V8.17173H58.0221C58.1609 8.17173 58.2731 8.0595 58.2731 7.9207V5.45772C58.2731 5.31892 58.1609 5.2067 58.0221 5.2067H53.1109V3.62968H58.9641C59.1029 3.62968 59.2152 3.51746 59.2152 3.37866Z" fill="#BEC2CB"/>
<path d="M139.017 0.578613H128.25C128.111 0.578613 127.999 0.690835 127.999 0.829636V3.37531C127.999 3.51411 128.111 3.62633 128.25 3.62633H131.575V12.5391C131.575 12.6779 131.687 12.7902 131.826 12.7902H135.441C135.579 12.7902 135.692 12.6779 135.692 12.5391V3.62929H139.017C139.156 3.62929 139.268 3.51706 139.268 3.37826V0.83259C139.268 0.690836 139.156 0.578613 139.017 0.578613Z" fill="#BEC2CB"/>
<path d="M100.058 12.3919L97.7722 9.03407C98.5164 8.65015 99.0863 8.13334 99.4821 7.48067C99.8778 6.83097 100.076 6.06904 100.076 5.19488C100.076 4.26462 99.8483 3.44953 99.3964 2.75257C98.9416 2.05562 98.2978 1.52108 97.4591 1.14898C96.6204 0.776873 95.637 0.59082 94.5118 0.59082H88.8948C88.7501 0.59082 88.632 0.708949 88.632 0.853656V12.5425C88.632 12.6872 88.7501 12.8053 88.8948 12.8053H92.4889C92.6336 12.8053 92.7517 12.6872 92.7517 12.5425V9.79009H93.868L95.8673 12.6901C95.9146 12.761 95.9973 12.8053 96.0829 12.8053H99.8453C100.052 12.8024 100.176 12.5661 100.058 12.3919ZM95.4746 6.29348C95.1733 6.56222 94.7244 6.69512 94.1249 6.69512H92.7458V3.62377H94.1249C94.7244 3.62377 95.1733 3.75962 95.4746 4.02541C95.7728 4.29415 95.9234 4.67217 95.9234 5.15649C95.9234 5.64673 95.7728 6.02474 95.4746 6.29348Z" fill="#BEC2CB"/>
<path d="M177.078 11.5738C176.033 10.5608 175.507 9.14326 175.507 7.31818V0.850632C175.507 0.711831 175.619 0.599609 175.758 0.599609H179.373C179.511 0.599609 179.624 0.711831 179.624 0.850632V7.19414C179.624 8.08897 179.783 8.74163 180.105 9.14917C180.424 9.55672 180.888 9.76049 181.493 9.76049C182.098 9.76049 182.559 9.55672 182.881 9.14917C183.2 8.74163 183.362 8.09192 183.362 7.19414V0.850632C183.362 0.711831 183.475 0.599609 183.613 0.599609H187.157C187.296 0.599609 187.408 0.711831 187.408 0.850632V7.31522C187.408 9.14031 186.886 10.5608 185.837 11.5708C184.792 12.5808 183.33 13.0888 181.458 13.0888C179.585 13.0888 178.126 12.5838 177.078 11.5738Z" fill="#878E9B"/>
<path d="M201.141 7.59576C201.536 8.10666 201.734 8.72388 201.734 9.44447C201.734 10.5135 201.291 11.3434 200.408 11.9311C199.525 12.5188 198.247 12.8111 196.569 12.8111H189.945C189.806 12.8111 189.694 12.6989 189.694 12.5601V0.853562C189.694 0.714761 189.806 0.602539 189.945 0.602539H196.218C197.845 0.602539 199.076 0.894907 199.906 1.47669C200.736 2.05847 201.153 2.83222 201.153 3.79792C201.153 4.36789 201.011 4.8788 200.724 5.33359C200.438 5.78839 200.019 6.15459 199.46 6.43219C200.187 6.69502 200.745 7.08485 201.141 7.59576ZM193.743 3.47897V5.29225H195.663C196.557 5.29225 197.006 4.99102 197.006 4.38561C197.006 3.7802 196.557 3.47897 195.663 3.47897H193.743ZM197.582 8.97491C197.582 8.33701 197.127 8.01511 196.221 8.01511H193.743V9.9347H196.221C197.127 9.9347 197.582 9.61576 197.582 8.97491Z" fill="#878E9B"/>
<path d="M169.101 0.850632V5.00876H165.297V0.850632C165.297 0.711831 165.185 0.599609 165.046 0.599609H161.432C161.293 0.599609 161.181 0.711831 161.181 0.850632V12.5601C161.181 12.6989 161.293 12.8112 161.432 12.8112H165.046C165.185 12.8112 165.297 12.6989 165.297 12.5601V8.38724H169.101V12.5601C169.101 12.6989 169.213 12.8112 169.352 12.8112H172.967C173.106 12.8112 173.218 12.6989 173.218 12.5601V0.850632C173.218 0.711831 173.106 0.599609 172.967 0.599609H169.352C169.213 0.599609 169.101 0.711831 169.101 0.850632Z" fill="#878E9B"/>
</svg>
