<svg width="70" height="70" viewBox="0 0 70 70" fill="none" xmlns="http://www.w3.org/2000/svg">
<path d="M35.0001 53.3335C31.3741 53.3328 27.8297 52.2569 24.8152 50.2419C21.8006 48.2268 19.4513 45.3631 18.0642 42.0129C16.6772 38.6626 16.3148 34.9763 17.0228 31.4201C17.7309 27.8639 19.4776 24.5975 22.042 22.0339C24.6064 19.4704 27.8734 17.7249 31.4299 17.0181C34.9864 16.3114 38.6726 16.6751 42.0223 18.0633C45.3721 19.4515 48.235 21.8019 50.2489 24.8172C52.2629 27.8324 53.3375 31.3772 53.3369 35.0032C53.3313 39.8641 51.3974 44.5243 47.9596 47.9608C44.5218 51.3974 39.861 53.3296 35.0001 53.3335ZM35.0001 17.5998C31.559 17.6005 28.1953 18.6215 25.3344 20.5337C22.4734 22.4459 20.2437 25.1634 18.9271 28.3427C17.6106 31.5221 17.2663 35.0204 17.9378 38.3954C18.6093 41.7704 20.2664 44.8705 22.6996 47.3037C25.1329 49.737 28.233 51.3941 31.608 52.0656C34.983 52.7371 38.4813 52.3928 41.6606 51.0762C44.84 49.7597 47.5575 47.5299 49.4697 44.669C51.3819 41.8081 52.4029 38.4444 52.4035 35.0032C52.3992 30.3889 50.5642 25.9648 47.3014 22.702C44.0386 19.4391 39.6145 17.6042 35.0001 17.5998Z" fill="black"/>
<path d="M34.9999 17.5996C34.8761 17.5996 34.7574 17.5504 34.6699 17.4629C34.5824 17.3754 34.5332 17.2567 34.5332 17.1329V11.9413C34.5332 11.8175 34.5824 11.6988 34.6699 11.6113C34.7574 11.5238 34.8761 11.4746 34.9999 11.4746C35.1236 11.4746 35.2423 11.5238 35.3299 11.6113C35.4174 11.6988 35.4665 11.8175 35.4665 11.9413V17.1329C35.4665 17.2567 35.4174 17.3754 35.3299 17.4629C35.2423 17.5504 35.1236 17.5996 34.9999 17.5996Z" fill="black"/>
<path d="M35.0004 12.4083C34.2347 12.4084 33.4863 12.1814 32.8496 11.7561C32.213 11.3308 31.7168 10.7263 31.4237 10.019C31.1306 9.31163 31.0539 8.53329 31.2032 7.78235C31.3525 7.03142 31.7212 6.34163 32.2625 5.80022C32.8039 5.2588 33.4936 4.89008 34.2445 4.74068C34.9955 4.59127 35.7738 4.66791 36.4812 4.96088C37.1885 5.25385 37.7931 5.75001 38.2185 6.3866C38.6439 7.02319 38.8709 7.77163 38.8709 8.53726C38.8703 9.56365 38.4623 10.5478 37.7366 11.2736C37.0109 11.9994 36.0268 12.4075 35.0004 12.4083Z" fill="#FEDD15"/>
<path d="M34.9999 58.5252C34.8761 58.5252 34.7574 58.476 34.6699 58.3885C34.5824 58.301 34.5332 58.1823 34.5332 58.0585V52.8668C34.5332 52.743 34.5824 52.6243 34.6699 52.5368C34.7574 52.4493 34.8761 52.4001 34.9999 52.4001C35.1236 52.4001 35.2423 52.4493 35.3299 52.5368C35.4174 52.6243 35.4665 52.743 35.4665 52.8668V58.0585C35.4665 58.1823 35.4174 58.301 35.3299 58.3885C35.2423 58.476 35.1236 58.5252 34.9999 58.5252Z" fill="black"/>
<path d="M35.0004 65.3335C34.2347 65.3336 33.4862 65.1067 32.8496 64.6814C32.2129 64.256 31.7167 63.6515 31.4237 62.9441C31.1306 62.2368 31.0539 61.4584 31.2033 60.7075C31.3526 59.9565 31.7213 59.2667 32.2627 58.7253C32.8041 58.1839 33.4939 57.8153 34.2448 57.6659C34.9958 57.5166 35.7741 57.5933 36.4815 57.8863C37.1888 58.1794 37.7934 58.6756 38.2187 59.3122C38.644 59.9489 38.871 60.6974 38.8709 61.463C38.8702 62.4893 38.4621 63.4734 37.7364 64.1991C37.0107 64.9248 36.0267 65.3328 35.0004 65.3335Z" fill="#FEDD15"/>
<path d="M47.633 22.8366C47.5407 22.8367 47.4505 22.8094 47.3737 22.7581C47.2969 22.7069 47.237 22.634 47.2016 22.5488C47.1663 22.4635 47.157 22.3696 47.175 22.2791C47.1929 22.1885 47.2374 22.1053 47.3026 22.04L50.9725 18.365C51.0601 18.2775 51.1788 18.2283 51.3027 18.2283C51.364 18.2283 51.4247 18.2403 51.4814 18.2638C51.538 18.2873 51.5895 18.3217 51.6328 18.365C51.6762 18.4084 51.7106 18.4599 51.7341 18.5165C51.7575 18.5732 51.7696 18.6339 51.7696 18.6952C51.7696 18.7565 51.7575 18.8172 51.7341 18.8739C51.7106 18.9305 51.6762 18.982 51.6328 19.0254L47.963 22.6999C47.8755 22.7874 47.7568 22.8366 47.633 22.8366Z" fill="black"/>
<path d="M53.7126 20.1602C52.8164 20.1606 51.9479 19.8501 51.255 19.2818C50.562 18.7135 50.0876 17.9225 49.9125 17.0436C49.7375 16.1647 49.8726 15.2522 50.2948 14.4618C50.7171 13.6713 51.4004 13.0518 52.2283 12.7087C53.0562 12.3656 53.9775 12.3202 54.8351 12.5802C55.6927 12.8402 56.4336 13.3896 56.9316 14.1347C57.4296 14.8798 57.6537 15.7745 57.5659 16.6664C57.4781 17.5583 57.0838 18.3921 56.4501 19.0258C56.0914 19.3864 55.6648 19.6724 55.1949 19.8671C54.7251 20.0618 54.2212 20.1615 53.7126 20.1602Z" fill="#FEDD15"/>
<path d="M18.6931 51.7708C18.6008 51.7708 18.5106 51.7434 18.4339 51.6922C18.3572 51.6409 18.2974 51.568 18.2621 51.4827C18.2268 51.3975 18.2175 51.3037 18.2355 51.2131C18.2535 51.1226 18.298 51.0395 18.3632 50.9742L22.0377 47.2997C22.0808 47.2551 22.1323 47.2196 22.1892 47.1951C22.2461 47.1707 22.3074 47.1578 22.3693 47.1572C22.4313 47.1567 22.4928 47.1685 22.5501 47.192C22.6075 47.2154 22.6596 47.2501 22.7034 47.2939C22.7472 47.3377 22.7819 47.3898 22.8053 47.4472C22.8288 47.5045 22.8406 47.566 22.84 47.6279C22.8395 47.6899 22.8266 47.7511 22.8022 47.8081C22.7777 47.865 22.7422 47.9165 22.6976 47.9596L19.0231 51.6346C18.9355 51.7219 18.8168 51.7709 18.6931 51.7708Z" fill="black"/>
<path d="M16.2877 57.5806C15.3927 57.5799 14.5256 57.269 13.8341 56.7007C13.1427 56.1324 12.6697 55.342 12.4957 54.464C12.3217 53.5861 12.4575 52.675 12.8799 51.886C13.3023 51.097 13.9853 50.4788 14.8123 50.1368C15.6394 49.7948 16.5595 49.7502 17.4158 50.0105C18.2721 50.2709 19.0117 50.82 19.5085 51.5645C20.0053 52.3089 20.2286 53.2026 20.1404 54.0933C20.0522 54.9839 19.6579 55.8164 19.0247 56.4489C18.6655 56.8085 18.2388 57.0936 17.7691 57.2878C17.2994 57.482 16.7959 57.5815 16.2877 57.5806Z" fill="#FEDD15"/>
<path d="M17.1366 35.4665H11.9393C11.8156 35.4665 11.6969 35.4174 11.6093 35.3299C11.5218 35.2423 11.4727 35.1236 11.4727 34.9999C11.4727 34.8761 11.5218 34.7574 11.6093 34.6699C11.6969 34.5824 11.8156 34.5332 11.9393 34.5332H17.1366C17.2604 34.5332 17.379 34.5824 17.4666 34.6699C17.5541 34.7574 17.6033 34.8761 17.6033 34.9999C17.6033 35.1236 17.5541 35.2423 17.4666 35.3299C17.379 35.4174 17.2604 35.4665 17.1366 35.4665Z" fill="black"/>
<path d="M8.53655 38.8705C7.77103 38.8705 7.0227 38.6435 6.3862 38.2182C5.74969 37.7929 5.2536 37.1884 4.96064 36.4811C4.66769 35.7739 4.59104 34.9956 4.74039 34.2448C4.88973 33.494 5.25837 32.8044 5.79967 32.263C6.34097 31.7217 7.03064 31.3531 7.78145 31.2038C8.53226 31.0544 9.31049 31.1311 10.0177 31.424C10.725 31.717 11.3295 32.2131 11.7548 32.8496C12.1801 33.4861 12.4071 34.2344 12.4071 34.9999C12.4063 36.0262 11.9983 37.0103 11.2726 37.736C10.5469 38.4617 9.56285 38.8697 8.53655 38.8705Z" fill="#FEDD15"/>
<path d="M58.056 35.4665H52.869C52.7452 35.4665 52.6265 35.4174 52.539 35.3299C52.4515 35.2423 52.4023 35.1236 52.4023 34.9999C52.4023 34.8761 52.4515 34.7574 52.539 34.6699C52.6265 34.5824 52.7452 34.5332 52.869 34.5332H58.056C58.1798 34.5332 58.2985 34.5824 58.386 34.6699C58.4735 34.7574 58.5227 34.8761 58.5227 34.9999C58.5227 35.1236 58.4735 35.2423 58.386 35.3299C58.2985 35.4174 58.1798 35.4665 58.056 35.4665Z" fill="black"/>
<path d="M61.4623 38.8705C60.6968 38.8705 59.9485 38.6435 59.312 38.2182C58.6755 37.7929 58.1794 37.1884 57.8864 36.4811C57.5935 35.7739 57.5168 34.9956 57.6662 34.2448C57.8155 33.494 58.1841 32.8044 58.7255 32.263C59.2668 31.7217 59.9564 31.3531 60.7072 31.2038C61.458 31.0544 62.2363 31.1311 62.9435 31.424C63.6508 31.717 64.2553 32.2131 64.6806 32.8496C65.1059 33.4861 65.3329 34.2344 65.3329 34.9999C65.3321 36.0262 64.9241 37.0103 64.1984 37.736C63.4727 38.4617 62.4886 38.8697 61.4623 38.8705Z" fill="#FEDD15"/>
<path d="M22.3679 22.8369C22.2441 22.8369 22.1254 22.7877 22.0379 22.7002L18.3634 19.0257C18.32 18.9824 18.2856 18.9309 18.2622 18.8743C18.2387 18.8177 18.2266 18.757 18.2266 18.6957C18.2265 18.6344 18.2386 18.5737 18.262 18.5171C18.2855 18.4604 18.3198 18.4089 18.3632 18.3656C18.4065 18.3222 18.4579 18.2878 18.5145 18.2644C18.5712 18.2409 18.6319 18.2288 18.6932 18.2288C18.7545 18.2287 18.8152 18.2408 18.8718 18.2642C18.9284 18.2877 18.9799 18.322 19.0233 18.3654L22.6978 22.0403C22.763 22.1056 22.8075 22.1888 22.8255 22.2793C22.8435 22.3698 22.8342 22.4636 22.7989 22.5489C22.7636 22.6341 22.7038 22.707 22.6271 22.7583C22.5504 22.8095 22.4601 22.8369 22.3679 22.8369Z" fill="black"/>
<path d="M16.2868 20.1603C15.6502 20.1603 15.0235 20.0033 14.4621 19.7033C13.9007 19.4033 13.422 18.9694 13.0683 18.4401C12.7147 17.9109 12.497 17.3025 12.4347 16.6691C12.3723 16.0356 12.4671 15.3965 12.7107 14.8084C12.9543 14.2203 13.3392 13.7014 13.8313 13.2976C14.3234 12.8938 14.9074 12.6176 15.5318 12.4935C16.1561 12.3694 16.8014 12.4011 17.4105 12.586C18.0196 12.7708 18.5737 13.103 19.0238 13.5532C19.5652 14.0944 19.9339 14.7841 20.0833 15.5349C20.2327 16.2858 20.1561 17.0641 19.8631 17.7713C19.5701 18.4786 19.0739 19.0831 18.4373 19.5083C17.8008 19.9336 17.0523 20.1604 16.2868 20.1603Z" fill="#FEDD15"/>
<path d="M51.3024 51.7711C51.1787 51.7712 51.06 51.7221 50.9725 51.6348L47.3026 47.9598C47.2593 47.9164 47.2249 47.865 47.2015 47.8083C47.178 47.7517 47.166 47.691 47.166 47.6297C47.1661 47.5059 47.2153 47.3872 47.3028 47.2997C47.3904 47.2122 47.5091 47.163 47.6329 47.1631C47.7567 47.1631 47.8754 47.2123 47.9629 47.2999L51.6328 50.9745C51.6981 51.0398 51.7425 51.1229 51.7605 51.2135C51.7785 51.304 51.7692 51.3979 51.7338 51.4832C51.6985 51.5685 51.6386 51.6413 51.5618 51.6926C51.485 51.7438 51.3947 51.7711 51.3024 51.7711Z" fill="black"/>
<path d="M53.7138 57.5807C52.6874 57.5807 51.703 57.173 50.9773 56.4472C50.2515 55.7214 49.8438 54.7371 49.8438 53.7107C49.8438 52.6842 50.2515 51.6999 50.9773 50.9741C51.703 50.2483 52.6874 49.8406 53.7138 49.8406C54.2221 49.8396 54.7256 49.9394 55.1951 50.1341C55.6647 50.3288 56.091 50.6146 56.4494 50.9751C56.9911 51.5161 57.36 52.2057 57.5095 52.9565C57.659 53.7074 57.5824 54.4857 57.2893 55.1929C56.9963 55.9002 56.5 56.5046 55.8633 56.9297C55.2265 57.3547 54.478 57.5813 53.7124 57.5807H53.7138Z" fill="#FEDD15"/>
<path d="M34.9708 37.8524C34.6903 37.8523 34.4112 37.815 34.1406 37.7413C31.7484 37.088 30.8492 34.785 30.6826 34.2945C29.5476 32.8143 29.0866 31.5785 29.311 30.62C29.3849 30.2845 29.5585 29.9792 29.809 29.7441C29.1127 24.6574 32.5544 23.7875 32.5898 23.7791C35.066 23.1314 36.9578 23.2219 38.2001 24.0465C38.7533 24.4033 39.1695 24.9366 39.3812 25.5599C39.4973 25.6325 39.6004 25.7242 39.686 25.8311C40.1484 26.3981 40.309 27.4761 40.1643 29.038C40.2856 29.0836 40.3958 29.1543 40.4877 29.2457C40.9404 29.6895 40.9618 30.5313 40.5558 31.894C40.2997 32.6701 39.8364 33.3616 39.216 33.8937C39.0172 34.5265 38.2248 36.647 36.297 37.557C35.8821 37.7519 35.4292 37.8528 34.9708 37.8524ZM35.5004 24.2892C34.5918 24.3069 33.689 24.4399 32.8138 24.6849C32.6934 24.7153 30.0521 25.4288 30.7722 29.8761C30.7882 29.9753 30.7719 30.077 30.7256 30.1661C30.6793 30.2552 30.6054 30.327 30.515 30.3708C30.4345 30.4281 30.3662 30.5011 30.3145 30.5854C30.2627 30.6696 30.2284 30.7635 30.2136 30.8613C30.1342 31.2472 30.1921 32.1413 31.4703 33.7873C31.506 33.8332 31.5327 33.8855 31.5492 33.9413C31.5557 33.9632 32.2706 36.2643 34.386 36.8407C34.8893 36.9797 35.4257 36.9343 35.8985 36.7128C37.7288 35.8485 38.3578 33.5063 38.3639 33.4825C38.3947 33.3641 38.4708 33.2626 38.5758 33.1997C39.0884 32.7913 39.4683 32.2399 39.6673 31.6154C40.092 30.1883 39.8376 29.913 39.8348 29.9107C39.7567 29.9341 39.674 29.9384 39.5939 29.9232C39.5137 29.9081 39.4384 29.8738 39.3742 29.8234C39.3109 29.7742 39.2607 29.7101 39.2281 29.6369C39.1955 29.5636 39.1816 29.4834 39.1876 29.4034C39.5035 26.8521 38.958 26.3971 38.8954 26.3551C38.8014 26.3357 38.7156 26.2878 38.6498 26.2179C38.584 26.148 38.5414 26.0595 38.5277 25.9645C38.4663 25.7243 38.3581 25.4986 38.2093 25.3002C38.0605 25.1019 37.8741 24.9348 37.6606 24.8086C37.0061 24.4299 36.2556 24.2495 35.5004 24.2892Z" fill="black"/>
<path d="M34.4793 46.6577C28.2726 46.6577 24.438 45.1177 24.2005 45.0202C24.1173 44.9858 24.0457 44.9281 23.9946 44.854C23.9434 44.7799 23.9148 44.6926 23.9121 44.6025C23.9243 42.9631 24.4179 41.3634 25.3317 40.0021C25.8118 39.2503 26.5032 38.6569 27.3192 38.2965L32.4059 36.0238C32.4619 35.9988 32.5222 35.9851 32.5835 35.9835C32.6448 35.9818 32.7058 35.9923 32.7631 36.0142C32.8203 36.0361 32.8727 36.0691 32.9172 36.1113C32.9616 36.1535 32.9974 36.204 33.0224 36.2599C33.0474 36.3159 33.0611 36.3763 33.0627 36.4376C33.0643 36.4988 33.0539 36.5598 33.032 36.6171C33.0101 36.6743 32.9771 36.7267 32.9349 36.7712C32.8927 36.8157 32.8422 36.8514 32.7862 36.8764L27.6996 39.1491C27.0511 39.4348 26.5015 39.9056 26.1194 40.5024C25.371 41.6223 24.9314 42.92 24.845 44.2642C26.4232 44.8181 34.3216 47.2191 45.1552 44.2353C45.0633 42.9011 44.6243 41.6141 43.8817 40.5019C43.4997 39.9051 42.95 39.4344 42.3016 39.1486L37.0268 36.7733C36.971 36.7481 36.9206 36.7121 36.8786 36.6675C36.8366 36.6228 36.8038 36.5703 36.7821 36.513C36.7604 36.4557 36.7502 36.3946 36.752 36.3334C36.7539 36.2721 36.7679 36.2118 36.793 36.1559C36.8182 36.1 36.8542 36.0496 36.8988 36.0076C36.9435 35.9656 36.996 35.9328 37.0533 35.9111C37.1107 35.8894 37.1717 35.8792 37.233 35.8811C37.2942 35.883 37.3546 35.8969 37.4104 35.9221L42.6838 38.2969C43.4992 38.6575 44.1901 39.2507 44.6699 40.0021C45.5837 41.3634 46.0774 42.9631 46.0895 44.6025C46.0867 44.7017 46.0523 44.7974 45.9913 44.8757C45.9304 44.954 45.8461 45.0108 45.7507 45.0379C42.0867 46.097 38.2933 46.6421 34.4793 46.6577Z" fill="black"/>
</svg>
