<svg width="70" height="71" viewBox="0 0 70 71" fill="none" xmlns="http://www.w3.org/2000/svg">
<path fill-rule="evenodd" clip-rule="evenodd" d="M54.5029 64.0449H15.4966C15.3648 64.0449 15.2383 63.9977 15.1451 63.9138C15.0519 63.8299 14.9995 63.7161 14.9995 63.5975V14.4252C14.9995 14.3065 15.0519 14.1927 15.1451 14.1088C15.2383 14.0249 15.3648 13.9778 15.4966 13.9778H23.9863C24.1181 13.9778 24.2446 14.0249 24.3378 14.1088C24.431 14.1927 24.4834 14.3065 24.4834 14.4252C24.4834 14.5439 24.431 14.6577 24.3378 14.7416C24.2446 14.8255 24.1181 14.8726 23.9863 14.8726H15.9938V63.15H54.0058V61.6336L54.0056 61.6216V26.8712C54.0056 26.8664 54.0057 26.8617 54.0059 26.8569V14.8726H46.0223C45.8904 14.8726 45.764 14.8255 45.6707 14.7416C45.5775 14.6577 45.5251 14.5439 45.5251 14.4252C45.5251 14.3065 45.5775 14.1927 45.6707 14.1088C45.764 14.0249 45.8904 13.9778 46.0223 13.9778H54.503C54.6348 13.9778 54.7613 14.0249 54.8545 14.1088C54.9477 14.1927 55.0001 14.3065 55.0001 14.4252V32.3968C55.0001 32.4017 55 32.4066 54.9998 32.4116V55.3354L55 55.3481V63.5975C55 63.7161 54.9477 63.8299 54.8544 63.9138C54.7612 63.9977 54.6348 64.0449 54.5029 64.0449Z" fill="black"/>
<path d="M45.5631 17.5H24.4369C24.3211 17.5 24.2099 17.4491 24.128 17.3584C24.046 17.2678 24 17.1448 24 17.0166V12.1892C24 12.061 24.046 11.9381 24.128 11.8474C24.2099 11.7568 24.3211 11.7058 24.4369 11.7058H29.8751C29.9839 10.286 30.5705 8.96314 31.5188 7.99907C32.4672 7.03499 33.7082 6.5 34.9961 6.5C36.284 6.5 37.525 7.03499 38.4733 7.99907C39.4217 8.96314 40.0083 10.286 40.117 11.7058H45.5631C45.6789 11.7058 45.7901 11.7568 45.872 11.8474C45.954 11.9381 46 12.061 46 12.1892V17.0166C46 17.1448 45.954 17.2678 45.872 17.3584C45.7901 17.4491 45.6789 17.5 45.5631 17.5Z" fill="#FEDD15"/>
<path d="M45.5631 17.5H24.4369C24.3211 17.5 24.2099 17.4491 24.128 17.3584C24.046 17.2678 24 17.1448 24 17.0166V12.1892C24 12.061 24.046 11.9381 24.128 11.8474C24.2099 11.7568 24.3211 11.7058 24.4369 11.7058H29.8751C29.9839 10.286 30.5705 8.96314 31.5188 7.99907C32.4672 7.03499 33.7082 6.5 34.9961 6.5C36.284 6.5 37.525 7.03499 38.4733 7.99907C39.4217 8.96314 40.0083 10.286 40.117 11.7058H45.5631C45.6789 11.7058 45.7901 11.7568 45.872 11.8474C45.954 11.9381 46 12.061 46 12.1892V17.0166C46 17.1448 45.954 17.2678 45.872 17.3584C45.7901 17.4491 45.6789 17.5 45.5631 17.5ZM24.8739 16.5332H45.1261V12.6726H39.6993C39.5834 12.6726 39.4723 12.6217 39.3903 12.5311C39.3084 12.4404 39.2624 12.3174 39.2624 12.1892C39.2624 10.9374 38.8129 9.73684 38.0128 8.85166C37.2127 7.96648 36.1276 7.46919 34.9961 7.46919C33.8646 7.46919 32.7794 7.96648 31.9793 8.85166C31.1793 9.73684 30.7298 10.9374 30.7298 12.1892C30.7298 12.3174 30.6837 12.4404 30.6018 12.5311C30.5199 12.6217 30.4087 12.6726 30.2928 12.6726H24.8748L24.8739 16.5332Z" fill="black"/>
<path d="M32.6857 34.5C32.6033 34.4999 32.5225 34.4759 32.4523 34.4305C32.3821 34.3851 32.3251 34.3202 32.2877 34.243L29.7338 28.9703H25.4473C25.3286 28.9703 25.2149 28.9207 25.131 28.8324C25.0471 28.7441 25 28.6244 25 28.4995C25 28.3747 25.0471 28.2549 25.131 28.1666C25.2149 28.0784 25.3286 28.0288 25.4473 28.0288H30.0093C30.0919 28.0287 30.1728 28.0526 30.2433 28.098C30.3137 28.1434 30.3708 28.2084 30.4083 28.2858L32.6124 32.8382L35.9749 22.8145C36.0056 22.7225 36.0628 22.6428 36.1384 22.5865C36.2141 22.5301 36.3044 22.4999 36.3971 22.5C36.49 22.5007 36.5804 22.5317 36.6557 22.5889C36.7311 22.6461 36.7876 22.7266 36.8175 22.8192L39.5431 31.2404L40.9323 28.0099C40.9678 27.9274 41.0251 27.8573 41.0975 27.8082C41.1698 27.7591 41.2541 27.733 41.3402 27.7331H48.5527C48.6714 27.7331 48.7851 27.7827 48.869 27.871C48.9529 27.9593 49 28.079 49 28.2039C49 28.3287 48.9529 28.4485 48.869 28.5368C48.7851 28.6251 48.6714 28.6747 48.5527 28.6747H41.6291L39.8938 32.7177C39.8585 32.8051 39.7981 32.8787 39.7211 32.9283C39.6442 32.9779 39.5544 33.0011 39.4644 32.9945C39.3747 32.9901 39.2884 32.9574 39.2166 32.9006C39.1448 32.8439 39.0909 32.7657 39.0619 32.6762L36.3873 24.4113L33.1079 34.1865C33.0788 34.2732 33.0261 34.349 32.9565 34.4045C32.8869 34.4601 32.8033 34.4929 32.7161 34.4991L32.6857 34.5Z" fill="black"/>
<path d="M48.5483 41.5H23.4517C23.3319 41.5 23.217 41.4473 23.1323 41.3536C23.0476 41.2598 23 41.1326 23 41C23 40.8674 23.0476 40.7402 23.1323 40.6465C23.217 40.5527 23.3319 40.5 23.4517 40.5H48.5483C48.6681 40.5 48.783 40.5527 48.8677 40.6465C48.9524 40.7402 49 40.8674 49 41C49 41.1326 48.9524 41.2598 48.8677 41.3536C48.783 41.4473 48.6681 41.5 48.5483 41.5Z" fill="black"/>
<path d="M48.5483 48.5H23.4517C23.3319 48.5 23.217 48.4473 23.1323 48.3536C23.0476 48.2598 23 48.1326 23 48C23 47.8674 23.0476 47.7402 23.1323 47.6464C23.217 47.5527 23.3319 47.5 23.4517 47.5H48.5483C48.6681 47.5 48.783 47.5527 48.8677 47.6464C48.9524 47.7402 49 47.8674 49 48C49 48.1326 48.9524 48.2598 48.8677 48.3536C48.783 48.4473 48.6681 48.5 48.5483 48.5Z" fill="black"/>
<path d="M48.5483 55.5H23.4517C23.3319 55.5 23.217 55.4473 23.1323 55.3536C23.0476 55.2598 23 55.1326 23 55C23 54.8674 23.0476 54.7402 23.1323 54.6465C23.217 54.5527 23.3319 54.5 23.4517 54.5H48.5483C48.6681 54.5 48.783 54.5527 48.8677 54.6465C48.9524 54.7402 49 54.8674 49 55C49 55.1326 48.9524 55.2598 48.8677 55.3536C48.783 55.4473 48.6681 55.5 48.5483 55.5Z" fill="black"/>
</svg>
