<svg width="70" height="71" viewBox="0 0 70 71" fill="none" xmlns="http://www.w3.org/2000/svg">
<path d="M42.2856 65.8329H11.3549C10.3206 65.8318 9.32892 65.4204 8.59751 64.689C7.86611 63.9576 7.45473 62.966 7.45361 61.9316V9.06293C7.45534 8.02919 7.86708 7.03835 8.59848 6.30783C9.32988 5.5773 10.3212 5.16675 11.3549 5.16626H42.2856C43.3193 5.16675 44.3107 5.5773 45.0421 6.30783C45.7735 7.03835 46.1852 8.02919 46.1869 9.06293V17.4909C46.1869 17.6147 46.1378 17.7334 46.0503 17.8209C45.9627 17.9084 45.844 17.9576 45.7203 17.9576C45.5965 17.9576 45.4778 17.9084 45.3903 17.8209C45.3028 17.7334 45.2536 17.6147 45.2536 17.4909V9.06293C45.2521 8.27665 44.9388 7.52307 44.3824 6.96752C43.826 6.41198 43.0719 6.09984 42.2856 6.09959H11.3549C10.5687 6.09984 9.81459 6.41198 9.25817 6.96752C8.70175 7.52307 8.38843 8.27665 8.38695 9.06293V61.9316C8.38793 62.7185 8.70095 63.4728 9.25734 64.0292C9.81374 64.5856 10.5681 64.8986 11.3549 64.8996H42.2856C43.0725 64.8986 43.8268 64.5856 44.3832 64.0292C44.9396 63.4728 45.2526 62.7185 45.2536 61.9316V41.5196C45.2536 41.3958 45.3028 41.2771 45.3903 41.1896C45.4778 41.1021 45.5965 41.0529 45.7203 41.0529C45.844 41.0529 45.9627 41.1021 46.0503 41.1896C46.1378 41.2771 46.1869 41.3958 46.1869 41.5196V61.9316C46.1858 62.966 45.7744 63.9576 45.043 64.689C44.3116 65.4204 43.32 65.8318 42.2856 65.8329Z" fill="black"/>
<path d="M45.7193 12.6223H7.9193C7.79554 12.6223 7.67684 12.5731 7.58932 12.4856C7.5018 12.3981 7.45264 12.2794 7.45264 12.1556C7.45264 12.0319 7.5018 11.9132 7.58932 11.8256C7.67684 11.7381 7.79554 11.689 7.9193 11.689H45.7193C45.8431 11.689 45.9618 11.7381 46.0493 11.8256C46.1368 11.9132 46.186 12.0319 46.186 12.1556C46.186 12.2794 46.1368 12.3981 46.0493 12.4856C45.9618 12.5731 45.8431 12.6223 45.7193 12.6223Z" fill="black"/>
<path d="M45.7193 56.602H7.9193C7.79554 56.602 7.67684 56.5529 7.58932 56.4654C7.5018 56.3778 7.45264 56.2591 7.45264 56.1354C7.45264 56.0116 7.5018 55.8929 7.58932 55.8054C7.67684 55.7179 7.79554 55.6687 7.9193 55.6687H45.7193C45.8431 55.6687 45.9618 55.7179 46.0493 55.8054C46.1368 55.8929 46.186 56.0116 46.186 56.1354C46.186 56.2591 46.1368 56.3778 46.0493 56.4654C45.9618 56.5529 45.8431 56.602 45.7193 56.602Z" fill="black"/>
<path d="M30.4108 9.54808H23.2279C23.1041 9.54808 22.9854 9.49891 22.8979 9.41139C22.8104 9.32388 22.7612 9.20518 22.7612 9.08141C22.7612 8.95764 22.8104 8.83895 22.8979 8.75143C22.9854 8.66391 23.1041 8.61475 23.2279 8.61475H30.4108C30.5346 8.61475 30.6533 8.66391 30.7408 8.75143C30.8283 8.83895 30.8775 8.95764 30.8775 9.08141C30.8775 9.20518 30.8283 9.32388 30.7408 9.41139C30.6533 9.49891 30.5346 9.54808 30.4108 9.54808Z" fill="black"/>
<path d="M26.8222 63.7081C26.2467 63.7086 25.6841 63.5385 25.2053 63.2193C24.7266 62.9 24.3533 62.446 24.1326 61.9145C23.9119 61.3831 23.8538 60.7982 23.9656 60.2337C24.0774 59.6692 24.354 59.1506 24.7606 58.7434C25.1672 58.3362 25.6853 58.0587 26.2496 57.946C26.8139 57.8333 27.3989 57.8905 27.9307 58.1103C28.4625 58.3301 28.9172 58.7027 29.2372 59.1809C29.5572 59.6592 29.7282 60.2216 29.7286 60.797C29.7276 61.5679 29.4212 62.3071 28.8765 62.8527C28.3318 63.3983 27.5931 63.7058 26.8222 63.7081ZM26.8222 58.8234C26.4312 58.8229 26.0488 58.9384 25.7234 59.1552C25.3981 59.3721 25.1444 59.6807 24.9945 60.0418C24.8446 60.4029 24.8052 60.8004 24.8813 61.1839C24.9574 61.5675 25.1456 61.9198 25.422 62.1963C25.6985 62.4728 26.0508 62.6611 26.4343 62.7373C26.8178 62.8135 27.2153 62.7742 27.5765 62.6244C27.9376 62.4746 28.2462 62.2209 28.4632 61.8956C28.6801 61.5703 28.7957 61.188 28.7952 60.797C28.794 60.274 28.5857 59.7728 28.216 59.403C27.8463 59.0332 27.3451 58.8248 26.8222 58.8234Z" fill="black"/>
<path d="M33.6684 50.9547C33.6071 50.9549 33.5463 50.9428 33.4897 50.9192C33.4044 50.8839 33.3315 50.824 33.2803 50.7473C33.229 50.6705 33.2017 50.5803 33.2017 50.488V41.9676C32.0329 41.8501 30.9493 41.3029 30.1608 40.4322C29.3723 39.5614 28.935 38.429 28.9336 37.2543V21.7633C28.935 20.5075 29.4344 19.3035 30.3224 18.4154C31.2104 17.5274 32.4144 17.028 33.6703 17.0266H57.8123C59.0681 17.028 60.2721 17.5275 61.16 18.4155C62.0479 19.3035 62.5473 20.5075 62.5485 21.7633V37.2543C62.5468 38.51 62.047 39.7138 61.1587 40.6014C60.2704 41.489 59.0662 41.9879 57.8105 41.9886H42.8263L33.9983 50.8179C33.9108 50.9055 33.7922 50.9546 33.6684 50.9547Z" fill="#FEDD15"/>
<path d="M54.7608 33.0481H36.7162C36.5924 33.0481 36.4737 32.9989 36.3862 32.9114C36.2987 32.8239 36.2495 32.7052 36.2495 32.5814C36.2495 32.4576 36.2987 32.339 36.3862 32.2514C36.4737 32.1639 36.5924 32.1147 36.7162 32.1147H54.7608C54.8845 32.1147 55.0032 32.1639 55.0908 32.2514C55.1783 32.339 55.2274 32.4576 55.2274 32.5814C55.2274 32.7052 55.1783 32.8239 55.0908 32.9114C55.0032 32.9989 54.8845 33.0481 54.7608 33.0481Z" fill="black"/>
<path d="M58.6683 26.8247H32.809C32.6852 26.8247 32.5665 26.7755 32.479 26.688C32.3915 26.6005 32.3423 26.4818 32.3423 26.358C32.3423 26.2343 32.3915 26.1156 32.479 26.028C32.5665 25.9405 32.6852 25.8914 32.809 25.8914H58.6683C58.7921 25.8914 58.9108 25.9405 58.9983 26.028C59.0858 26.1156 59.135 26.2343 59.135 26.358C59.135 26.4818 59.0858 26.6005 58.9983 26.688C58.9108 26.7755 58.7921 26.8247 58.6683 26.8247Z" fill="black"/>
</svg>
