<svg width="70" height="71" viewBox="0 0 70 71" fill="none" xmlns="http://www.w3.org/2000/svg">
<path d="M56.3794 68.5005H25.4487C24.4143 68.4994 23.4227 68.088 22.6913 67.3566C21.9599 66.6252 21.5485 65.6335 21.5474 64.5992V22.4339C21.5474 22.3101 21.5965 22.1914 21.684 22.1039C21.7716 22.0164 21.8903 21.9672 22.014 21.9672C22.1378 21.9672 22.2565 22.0164 22.344 22.1039C22.4315 22.1914 22.4807 22.3101 22.4807 22.4339V64.5992C22.4817 65.3861 22.7947 66.1404 23.3511 66.6968C23.9075 67.2532 24.6618 67.5662 25.4487 67.5672H56.3794C57.1662 67.5662 57.9206 67.2532 58.477 66.6968C59.0334 66.1404 59.3464 65.3861 59.3474 64.5992V11.7305C59.3459 10.9443 59.0326 10.1907 58.4761 9.63512C57.9197 9.07958 57.1656 8.76744 56.3794 8.7672H25.4487C24.6624 8.76744 23.9083 9.07958 23.3519 9.63512C22.7955 10.1907 22.4822 10.9443 22.4807 11.7305V23.1172C22.4807 23.241 22.4315 23.3597 22.344 23.4472C22.2565 23.5347 22.1378 23.5839 22.014 23.5839C21.8903 23.5839 21.7716 23.5347 21.684 23.4472C21.5965 23.3597 21.5474 23.241 21.5474 23.1172V11.7305C21.5491 10.6968 21.9608 9.70596 22.6922 8.97543C23.4236 8.24491 24.415 7.83436 25.4487 7.83386H56.3794C57.4131 7.83436 58.4044 8.24491 59.1358 8.97543C59.8672 9.70596 60.279 10.6968 60.2807 11.7305V64.5992C60.2796 65.6335 59.8682 66.6252 59.1368 67.3566C58.4054 68.088 57.4137 68.4994 56.3794 68.5005Z" fill="black"/>
<path d="M59.8117 15.2908H22.014C21.8903 15.2908 21.7716 15.2416 21.684 15.1541C21.5965 15.0666 21.5474 14.9479 21.5474 14.8241C21.5474 14.7003 21.5965 14.5816 21.684 14.4941C21.7716 14.4066 21.8903 14.3574 22.014 14.3574H59.814C59.9378 14.3574 60.0565 14.4066 60.144 14.4941C60.2315 14.5816 60.2807 14.7003 60.2807 14.8241C60.2807 14.9479 60.2315 15.0666 60.144 15.1541C60.0565 15.2416 59.9378 15.2908 59.814 15.2908H59.8117Z" fill="black"/>
<path d="M59.8117 59.2701H22.014C21.8903 59.2701 21.7716 59.221 21.684 59.1334C21.5965 59.0459 21.5474 58.9272 21.5474 58.8035C21.5474 58.6797 21.5965 58.561 21.684 58.4735C21.7716 58.386 21.8903 58.3368 22.014 58.3368H59.814C59.9378 58.3368 60.0565 58.386 60.144 58.4735C60.2315 58.561 60.2807 58.6797 60.2807 58.8035C60.2807 58.9272 60.2315 59.0459 60.144 59.1334C60.0565 59.221 59.9378 59.2701 59.814 59.2701H59.8117Z" fill="black"/>
<path d="M44.5041 12.2213H37.3212C37.1974 12.2213 37.0787 12.1721 36.9912 12.0846C36.9037 11.9971 36.8545 11.8784 36.8545 11.7546C36.8545 11.6309 36.9037 11.5122 36.9912 11.4246C37.0787 11.3371 37.1974 11.288 37.3212 11.288H44.5041C44.6279 11.288 44.7466 11.3371 44.8341 11.4246C44.9216 11.5122 44.9708 11.6309 44.9708 11.7546C44.9708 11.8784 44.9216 11.9971 44.8341 12.0846C44.7466 12.1721 44.6279 12.2213 44.5041 12.2213Z" fill="black"/>
<path d="M40.9149 66.3779C40.3395 66.3784 39.7768 66.2083 39.2981 65.8891C38.8194 65.5698 38.446 65.1158 38.2254 64.5843C38.0047 64.0529 37.9466 63.468 38.0584 62.9035C38.1701 62.339 38.4468 61.8204 38.8534 61.4132C39.2599 61.006 39.7781 60.7285 40.3424 60.6158C40.9067 60.5031 41.4917 60.5603 42.0235 60.7801C42.5553 60.9999 43.0099 61.3725 43.3299 61.8507C43.65 62.329 43.821 62.8914 43.8213 63.4668C43.8205 64.2378 43.5141 64.977 42.9694 65.5226C42.4247 66.0682 41.6859 66.3758 40.9149 66.3779ZM40.9149 61.4933C40.5239 61.4927 40.1415 61.6082 39.8162 61.825C39.4908 62.0419 39.2372 62.3505 39.0873 62.7116C38.9373 63.0727 38.898 63.4702 38.9741 63.8537C39.0502 64.2373 39.2384 64.5896 39.5148 64.8661C39.7913 65.1426 40.1436 65.3309 40.5271 65.4071C40.9106 65.4833 41.3081 65.444 41.6692 65.2942C42.0304 65.1444 42.339 64.8907 42.5559 64.5654C42.7729 64.2401 42.8885 63.8578 42.888 63.4668C42.8869 62.9438 42.6787 62.4425 42.3089 62.0727C41.9391 61.7028 41.4379 61.4945 40.9149 61.4933Z" fill="black"/>
<path d="M24.2667 8.95628H9.46667C9.3429 8.95628 9.2242 8.90711 9.13668 8.8196C9.04917 8.73208 9 8.61338 9 8.48961C9 8.36585 9.04917 8.24715 9.13668 8.15963C9.2242 8.07212 9.3429 8.02295 9.46667 8.02295H24.2667C24.3904 8.02295 24.5091 8.07212 24.5967 8.15963C24.6842 8.24715 24.7333 8.36585 24.7333 8.48961C24.7333 8.61338 24.6842 8.73208 24.5967 8.8196C24.5091 8.90711 24.3904 8.95628 24.2667 8.95628Z" fill="black"/>
<path d="M21.2667 52.9359H9.46667C9.3429 52.9359 9.2242 52.8867 9.13668 52.7992C9.04917 52.7117 9 52.593 9 52.4692C9 52.3455 9.04917 52.2268 9.13668 52.1393C9.2242 52.0517 9.3429 52.0026 9.46667 52.0026H21.2667C21.3904 52.0026 21.5091 52.0517 21.5967 52.1393C21.6842 52.2268 21.7333 52.3455 21.7333 52.4692C21.7333 52.593 21.6842 52.7117 21.5967 52.7992C21.5091 52.8867 21.3904 52.9359 21.2667 52.9359Z" fill="black"/>
<path fill-rule="evenodd" clip-rule="evenodd" d="M46.801 7.83383V5.39667C46.7995 4.61039 46.4862 3.85681 45.9297 3.30126C45.3733 2.74572 44.6193 2.43358 43.833 2.43333H12.9023C12.116 2.43358 11.362 2.74572 10.8055 3.30126C10.2491 3.85681 9.93579 4.61039 9.93431 5.39667V58.2653C9.9353 59.0522 10.2483 59.8065 10.8047 60.3629C11.3611 60.9193 12.1155 61.2323 12.9023 61.2333H21.5474V62.1667H12.9023C11.868 62.1656 10.8763 61.7542 10.1449 61.0228C9.41348 60.2914 9.00209 59.2997 9.00098 58.2653V5.39667C9.00271 4.36293 9.41444 3.3721 10.1458 2.64157C10.8772 1.91104 11.8686 1.50049 12.9023 1.5H43.833C44.8667 1.50049 45.858 1.91104 46.5894 2.64157C47.3208 3.3721 47.7326 4.36293 47.7343 5.39667V7.83383H46.801Z" fill="black"/>
<path d="M45.6527 43.597C45.6527 46.1404 43.5908 48.2022 41.0474 48.2022C38.504 48.2022 36.4421 46.1404 36.4421 43.597C36.4421 41.0535 38.504 38.9917 41.0474 38.9917C43.5908 38.9917 45.6527 41.0535 45.6527 43.597Z" fill="#FEDD15"/>
<path fill-rule="evenodd" clip-rule="evenodd" d="M32.8564 27.9305C35.2084 26.2427 38.0932 25.3312 41.0573 25.3339C44.0214 25.3366 46.9044 26.2533 49.2529 27.9455C51.6018 29.638 53.2852 32.0126 54.0293 34.7005L53.0655 34.9673C52.385 32.5089 50.8413 30.3226 48.6683 28.7568C46.4947 27.1906 43.8171 26.3364 41.0564 26.3339C38.2958 26.3314 35.6163 27.1807 33.4394 28.743C31.263 30.3048 29.7147 32.4884 29.029 34.9455L28.0658 34.6767C28.8155 31.9902 30.5039 29.6188 32.8564 27.9305Z" fill="#FEDD15"/>
<path fill-rule="evenodd" clip-rule="evenodd" d="M36.031 33.8079C37.4763 32.8476 39.243 32.3323 41.0536 32.3339C42.8641 32.3354 44.6297 32.8536 46.0728 33.8164C47.5167 34.7797 48.5626 36.1389 49.0265 37.6906L48.0684 37.9771C47.6776 36.6698 46.7872 35.4952 45.5179 34.6483C44.2478 33.8009 42.677 33.3352 41.0527 33.3339C39.4284 33.3325 37.8566 33.7955 36.5845 34.6408C35.3131 35.4856 34.42 36.6588 34.0262 37.9655L33.0687 37.677C33.5362 36.1261 34.5851 34.7687 36.031 33.8079Z" fill="#FEDD15"/>
</svg>
