<svg width="70" height="70" viewBox="0 0 70 70" fill="none" xmlns="http://www.w3.org/2000/svg">
<path d="M50.8801 65.3334H5.13464C5.01087 65.3334 4.89217 65.2843 4.80465 65.1967C4.71714 65.1092 4.66797 64.9905 4.66797 64.8668V5.13341C4.66797 5.00965 4.71714 4.89095 4.80465 4.80343C4.89217 4.71591 5.01087 4.66675 5.13464 4.66675H37.3785C37.5009 4.66714 37.6182 4.71557 37.7052 4.80161L51.2068 18.1576C51.2509 18.2009 51.286 18.2525 51.3101 18.3095C51.3341 18.3664 51.3466 18.4276 51.3468 18.4894V64.8668C51.3468 64.9905 51.2976 65.1092 51.2101 65.1967C51.1226 65.2843 51.0039 65.3334 50.8801 65.3334ZM5.6013 64.4001H50.413V18.684L37.1867 5.60008H5.6013V64.4001Z" fill="black"/>
<path d="M50.8809 18.9561H37.3807C37.257 18.9561 37.1383 18.9069 37.0507 18.8194C36.9632 18.7319 36.9141 18.6132 36.9141 18.4894V5.13342C36.9144 5.04164 36.9417 4.95199 36.9927 4.87567C37.0436 4.79935 37.116 4.73976 37.2007 4.70435C37.2853 4.66894 37.3786 4.65928 37.4687 4.67658C37.5588 4.69388 37.6419 4.73737 37.7074 4.80162L51.209 18.1576C51.2747 18.2226 51.3196 18.3056 51.3381 18.3961C51.3565 18.4866 51.3477 18.5806 51.3127 18.6661C51.2778 18.7516 51.2182 18.8248 51.1416 18.8765C51.0649 18.9281 50.9747 18.9558 50.8823 18.9561H50.8809ZM37.846 18.0227H49.746L37.8474 6.25342L37.846 18.0227Z" fill="black"/>
<path d="M65 27.5H56V56.5C57 56 59.3 55 60.5 55C61.7 55 64 55.6667 65 56V27.5Z" fill="#FEDD15"/>
<path d="M30.7536 11.428H10.287C10.1632 11.428 10.0445 11.3788 9.957 11.2913C9.86948 11.2038 9.82031 11.0851 9.82031 10.9613C9.82031 10.8375 9.86948 10.7188 9.957 10.6313C10.0445 10.5438 10.1632 10.4946 10.287 10.4946H30.7536C30.8773 10.4946 30.996 10.5438 31.0836 10.6313C31.1711 10.7188 31.2202 10.8375 31.2202 10.9613C31.2202 11.0851 31.1711 11.2038 31.0836 11.2913C30.996 11.3788 30.8773 11.428 30.7536 11.428Z" fill="black"/>
<path d="M30.7536 20.6601H10.287C10.1632 20.6601 10.0445 20.611 9.957 20.5235C9.86948 20.4359 9.82031 20.3172 9.82031 20.1935C9.82031 20.0697 9.86948 19.951 9.957 19.8635C10.0445 19.776 10.1632 19.7268 10.287 19.7268H30.7536C30.8773 19.7268 30.996 19.776 31.0836 19.8635C31.1711 19.951 31.2202 20.0697 31.2202 20.1935C31.2202 20.3172 31.1711 20.4359 31.0836 20.5235C30.996 20.611 30.8773 20.6601 30.7536 20.6601Z" fill="black"/>
<path d="M46.6202 29.8933H10.287C10.1632 29.8933 10.0445 29.8441 9.957 29.7566C9.86948 29.6691 9.82031 29.5504 9.82031 29.4266C9.82031 29.3029 9.86948 29.1842 9.957 29.0966C10.0445 29.0091 10.1632 28.96 10.287 28.96H46.6202C46.744 28.96 46.8627 29.0091 46.9502 29.0966C47.0377 29.1842 47.0869 29.3029 47.0869 29.4266C47.0869 29.5504 47.0377 29.6691 46.9502 29.7566C46.8627 29.8441 46.744 29.8933 46.6202 29.8933Z" fill="black"/>
<path d="M46.6202 39.1257H10.287C10.1632 39.1257 10.0445 39.0766 9.957 38.989C9.86948 38.9015 9.82031 38.7828 9.82031 38.6591C9.82031 38.5353 9.86948 38.4166 9.957 38.3291C10.0445 38.2415 10.1632 38.1924 10.287 38.1924H46.6202C46.744 38.1924 46.8627 38.2415 46.9502 38.3291C47.0377 38.4166 47.0869 38.5353 47.0869 38.6591C47.0869 38.7828 47.0377 38.9015 46.9502 38.989C46.8627 39.0766 46.744 39.1257 46.6202 39.1257Z" fill="black"/>
<path d="M46.6202 48.3584H10.287C10.1632 48.3584 10.0445 48.3092 9.957 48.2217C9.86948 48.1342 9.82031 48.0155 9.82031 47.8917C9.82031 47.7679 9.86948 47.6493 9.957 47.5617C10.0445 47.4742 10.1632 47.425 10.287 47.425H46.6202C46.744 47.425 46.8627 47.4742 46.9502 47.5617C47.0377 47.6493 47.0869 47.7679 47.0869 47.8917C47.0869 48.0155 47.0377 48.1342 46.9502 48.2217C46.8627 48.3092 46.744 48.3584 46.6202 48.3584Z" fill="black"/>
<path d="M46.6202 57.5906H10.287C10.1632 57.5906 10.0445 57.5414 9.957 57.4539C9.86948 57.3664 9.82031 57.2477 9.82031 57.1239C9.82031 57.0001 9.86948 56.8814 9.957 56.7939C10.0445 56.7064 10.1632 56.6572 10.287 56.6572H46.6202C46.744 56.6572 46.8627 56.7064 46.9502 56.7939C47.0377 56.8814 47.0869 57.0001 47.0869 57.1239C47.0869 57.2477 47.0377 57.3664 46.9502 57.4539C46.8627 57.5414 46.744 57.5906 46.6202 57.5906Z" fill="black"/>
<path d="M60.4896 65.3332C60.4022 65.3334 60.3165 65.3091 60.2423 65.263C60.168 65.2168 60.1082 65.1508 60.0696 65.0723L55.6951 56.1903C55.6639 56.1262 55.648 56.0557 55.6484 55.9845V23.7065C55.6494 22.8357 55.9958 22.0009 56.6115 21.3852C57.2272 20.7695 58.0621 20.4231 58.9328 20.4221H62.0469C62.9178 20.423 63.7527 20.7693 64.3685 21.385C64.9844 22.0008 65.3308 22.8357 65.3318 23.7065V55.9863C65.3323 56.0576 65.3163 56.128 65.2851 56.1921L60.9101 65.0742C60.8713 65.1524 60.8113 65.2181 60.7369 65.2639C60.6626 65.3096 60.5769 65.3337 60.4896 65.3332ZM56.5818 55.8757L60.4896 63.8091L64.398 55.8757V23.7065C64.3972 23.0832 64.1493 22.4856 63.7085 22.0449C63.2678 21.6041 62.6702 21.3562 62.0469 21.3555H58.9328C58.3095 21.3562 57.712 21.6041 57.2712 22.0449C56.8305 22.4856 56.5825 23.0832 56.5818 23.7065V55.8757Z" fill="black"/>
<path d="M64.8686 56.4513C64.7904 56.4515 64.7135 56.4317 64.6451 56.3939C63.3833 55.6798 61.9587 55.3033 60.5089 55.3007C59.059 55.298 57.6331 55.6695 56.3687 56.379C56.2642 56.4452 56.1376 56.4672 56.0168 56.4401C55.896 56.4129 55.791 56.3389 55.7247 56.2343C55.6585 56.1298 55.6366 56.0031 55.6637 55.8824C55.6908 55.7616 55.7648 55.6566 55.8694 55.5903C57.2746 54.7912 58.8628 54.3698 60.4793 54.3672C62.0958 54.3646 63.6853 54.7808 65.0931 55.5754C65.184 55.6252 65.2557 55.7038 65.297 55.7989C65.3382 55.894 65.3466 56.0001 65.3209 56.1005C65.2952 56.2009 65.2368 56.2899 65.1549 56.3534C65.073 56.4169 64.9723 56.4514 64.8686 56.4513Z" fill="black"/>
<path d="M64.8651 28.156H56.1151C55.9913 28.156 55.8726 28.1068 55.7851 28.0193C55.6976 27.9318 55.6484 27.8131 55.6484 27.6893C55.6484 27.5656 55.6976 27.4469 55.7851 27.3593C55.8726 27.2718 55.9913 27.2227 56.1151 27.2227H64.8651C64.9889 27.2227 65.1076 27.2718 65.1951 27.3593C65.2826 27.4469 65.3318 27.5656 65.3318 27.6893C65.3318 27.8131 65.2826 27.9318 65.1951 28.0193C65.1076 28.1068 64.9889 28.156 64.8651 28.156Z" fill="black"/>
<path d="M60.4901 55.3081C60.3663 55.3081 60.2476 55.2589 60.1601 55.1714C60.0726 55.0839 60.0234 54.9652 60.0234 54.8414V27.6893C60.0234 27.5656 60.0726 27.4469 60.1601 27.3593C60.2476 27.2718 60.3663 27.2227 60.4901 27.2227C60.6139 27.2227 60.7326 27.2718 60.8201 27.3593C60.9076 27.4469 60.9568 27.5656 60.9568 27.6893V54.8414C60.9568 54.9652 60.9076 55.0839 60.8201 55.1714C60.7326 55.2589 60.6139 55.3081 60.4901 55.3081Z" fill="black"/>
<path d="M62.7771 60.6923C62.6796 60.6923 62.5846 60.6616 62.5055 60.6045C61.9427 60.1449 61.2395 59.8917 60.5128 59.887C59.7861 59.8822 59.0797 60.1262 58.5109 60.5784C58.4171 60.658 58.2957 60.6974 58.1731 60.6879C58.0505 60.6785 57.9365 60.6211 57.856 60.5281C57.7755 60.4351 57.735 60.3141 57.7432 60.1914C57.7515 60.0687 57.8078 59.9542 57.9 59.8728C58.63 59.2892 59.5356 58.969 60.4702 58.9642C61.4048 58.9593 62.3137 59.2701 63.0497 59.8462C63.1301 59.9038 63.1901 59.9854 63.2211 60.0793C63.2521 60.1732 63.2525 60.2746 63.2221 60.3687C63.1918 60.4628 63.1324 60.5449 63.0524 60.603C62.9724 60.6612 62.876 60.6924 62.7771 60.6923Z" fill="black"/>
</svg>
