<svg width="70" height="70" viewBox="0 0 70 70" fill="none" xmlns="http://www.w3.org/2000/svg">
<path d="M63.8047 60.6667H6.862C6.36855 60.6654 5.89565 60.4689 5.54673 60.1199C5.1978 59.771 5.00123 59.2981 5 58.8047V11.862C5.00123 11.3685 5.1978 10.8957 5.54673 10.5467C5.89565 10.1978 6.36855 10.0012 6.862 10H63.8047C64.2981 10.0012 64.771 10.1978 65.1199 10.5467C65.4689 10.8957 65.6654 11.3685 65.6667 11.862V58.8047C65.6654 59.2981 65.4689 59.771 65.1199 60.1199C64.771 60.4689 64.2981 60.6654 63.8047 60.6667ZM6.862 10.9333C6.61582 10.9337 6.37982 11.0317 6.20574 11.2057C6.03166 11.3798 5.9337 11.6158 5.93333 11.862V58.8047C5.9337 59.0509 6.03166 59.2868 6.20574 59.4609C6.37982 59.635 6.61582 59.733 6.862 59.7333H63.8047C64.0509 59.733 64.2868 59.635 64.4609 59.4609C64.635 59.2868 64.733 59.0509 64.7333 58.8047V11.862C64.733 11.6158 64.635 11.3798 64.4609 11.2057C64.2868 11.0317 64.0509 10.9337 63.8047 10.9333H6.862Z" fill="black"/>
<path fill-rule="evenodd" clip-rule="evenodd" d="M27 51V19H28V51H27Z" fill="black"/>
<path fill-rule="evenodd" clip-rule="evenodd" d="M60 35H10V34H60V35Z" fill="black"/>
<path fill-rule="evenodd" clip-rule="evenodd" d="M43 51V19H44V51H43Z" fill="black"/>
<path d="M26 19H11V33H26V19Z" fill="#FEDD15"/>
<path d="M60 36H45V50H60V36Z" fill="#FEDD15"/>
<path d="M14 26.4286L16.7 29L23 23" stroke="black"/>
<path d="M48 43.4286L50.7 46L57 40" stroke="black"/>
</svg>
