<svg width="70" height="70" viewBox="0 0 70 70" fill="none" xmlns="http://www.w3.org/2000/svg">
<path d="M50.4648 65.3333H19.5341C18.4998 65.3322 17.5081 64.9208 16.7767 64.1894C16.0453 63.458 15.6339 62.4663 15.6328 61.432V43.3907C15.6328 43.2669 15.682 43.1482 15.7695 43.0607C15.857 42.9732 15.9757 42.924 16.0995 42.924C16.2232 42.924 16.3419 42.9732 16.4295 43.0607C16.517 43.1482 16.5661 43.2669 16.5661 43.3907V61.432C16.5671 62.2188 16.8802 62.9732 17.4365 63.5296C17.9929 64.086 18.7473 64.399 19.5341 64.4H50.4648C51.2517 64.399 52.006 64.086 52.5624 63.5296C53.1188 62.9732 53.4318 62.2188 53.4328 61.432V34.4913C53.4328 34.3676 53.482 34.2489 53.5695 34.1613C53.657 34.0738 53.7757 34.0247 53.8995 34.0247C54.0233 34.0247 54.142 34.0738 54.2295 34.1613C54.317 34.2489 54.3662 34.3676 54.3662 34.4913V61.432C54.365 62.4663 53.9537 63.458 53.2223 64.1894C52.4908 64.9208 51.4992 65.3322 50.4648 65.3333Z" fill="black"/>
<path d="M16.0995 25.2747C15.9757 25.2747 15.857 25.2256 15.7695 25.1381C15.682 25.0505 15.6328 24.9319 15.6328 24.8081V8.56342C15.6345 7.52968 16.0463 6.53884 16.7777 5.80832C17.5091 5.07779 18.5004 4.66724 19.5341 4.66675H50.4648C51.4986 4.66724 52.4899 5.07779 53.2213 5.80832C53.9527 6.53884 54.3644 7.52968 54.3662 8.56342V18.3914C54.3662 18.5152 54.317 18.6339 54.2295 18.7214C54.142 18.8089 54.0233 18.8581 53.8995 18.8581C53.7757 18.8581 53.657 18.8089 53.5695 18.7214C53.482 18.6339 53.4328 18.5152 53.4328 18.3914V8.56342C53.4312 7.77718 53.1178 7.02367 52.5615 6.46815C52.0051 5.91263 51.2511 5.60045 50.4648 5.60008H19.5341C18.7479 5.60045 17.9939 5.91263 17.4375 6.46815C16.8811 7.02367 16.5678 7.77718 16.5661 8.56342V24.8081C16.5661 24.9319 16.517 25.0505 16.4295 25.1381C16.3419 25.2256 16.2232 25.2747 16.0995 25.2747Z" fill="black"/>
<path d="M53.8995 12.1203H16.0995C15.9757 12.1203 15.857 12.0712 15.7695 11.9837C15.682 11.8961 15.6328 11.7774 15.6328 11.6537C15.6328 11.5299 15.682 11.4112 15.7695 11.3237C15.857 11.2362 15.9757 11.187 16.0995 11.187H53.8995C54.0233 11.187 54.142 11.2362 54.2295 11.3237C54.317 11.4112 54.3662 11.5299 54.3662 11.6537C54.3662 11.7774 54.317 11.8961 54.2295 11.9837C54.142 12.0712 54.0233 12.1203 53.8995 12.1203Z" fill="black"/>
<path d="M53.8995 56.1003H16.0995C15.9757 56.1003 15.857 56.0512 15.7695 55.9636C15.682 55.8761 15.6328 55.7574 15.6328 55.6337C15.6328 55.5099 15.682 55.3912 15.7695 55.3037C15.857 55.2162 15.9757 55.167 16.0995 55.167H53.8995C54.0233 55.167 54.142 55.2162 54.2295 55.3037C54.317 55.3912 54.3662 55.5099 54.3662 55.6337C54.3662 55.7574 54.317 55.8761 54.2295 55.9636C54.142 56.0512 54.0233 56.1003 53.8995 56.1003Z" fill="black"/>
<path d="M38.591 9.04759H31.4071C31.2833 9.04759 31.1646 8.99842 31.0771 8.91091C30.9896 8.82339 30.9404 8.70469 30.9404 8.58092C30.9404 8.45716 30.9896 8.33846 31.0771 8.25094C31.1646 8.16342 31.2833 8.11426 31.4071 8.11426H38.591C38.7147 8.11426 38.8334 8.16342 38.9209 8.25094C39.0085 8.33846 39.0576 8.45716 39.0576 8.58092C39.0576 8.70469 39.0085 8.82339 38.9209 8.91091C38.8334 8.99842 38.7147 9.04759 38.591 9.04759Z" fill="black"/>
<path d="M34.9999 63.208C34.4245 63.2086 33.8618 63.0385 33.3831 62.7193C32.9043 62.4 32.531 61.946 32.3103 61.4145C32.0897 60.8831 32.0315 60.2982 32.1433 59.7337C32.2551 59.1692 32.5318 58.6506 32.9383 58.2434C33.3449 57.8362 33.8631 57.5587 34.4274 57.446C34.9917 57.3333 35.5767 57.3905 36.1085 57.6103C36.6402 57.8301 37.0949 58.2027 37.4149 58.6809C37.7349 59.1592 37.9059 59.7216 37.9063 60.297C37.9054 61.068 37.5991 61.8072 37.0544 62.3528C36.5096 62.8984 35.7709 63.206 34.9999 63.208ZM34.9999 58.3234C34.6089 58.3229 34.2265 58.4384 33.9012 58.6552C33.5758 58.8721 33.3221 59.1807 33.1722 59.5418C33.0223 59.9029 32.9829 60.3004 33.059 60.6839C33.1351 61.0675 33.3233 61.4198 33.5998 61.6963C33.8762 61.9728 34.2285 62.1611 34.612 62.2373C34.9955 62.3135 35.393 62.2742 35.7542 62.1244C36.1154 61.9746 36.424 61.7209 36.6409 61.3956C36.8579 61.0703 36.9734 60.688 36.973 60.297C36.9719 59.774 36.7636 59.2727 36.3939 58.9029C36.0241 58.533 35.5229 58.3247 34.9999 58.3234Z" fill="black"/>
<path d="M45.8312 40.9641C45.7699 40.9643 45.7091 40.9523 45.6525 40.9287C45.5673 40.8933 45.4944 40.8335 45.4431 40.7567C45.3919 40.68 45.3645 40.5897 45.3646 40.4975V34.9255C44.5712 34.8121 43.8454 34.4166 43.3199 33.8115C42.7945 33.2064 42.5048 32.4322 42.5039 31.6308V21.2521C42.5048 20.3699 42.8556 19.5241 43.4794 18.9003C44.1032 18.2765 44.949 17.9257 45.8312 17.9248H62.0059C62.8881 17.9257 63.7339 18.2765 64.3577 18.9003C64.9815 19.5241 65.3324 20.3699 65.3332 21.2521V31.6308C65.3324 32.513 64.9815 33.3588 64.3577 33.9826C63.7339 34.6064 62.8881 34.9573 62.0059 34.9581H52.0304L46.1612 40.8274C46.0737 40.9149 45.955 40.9641 45.8312 40.9641ZM45.8312 18.8581C45.1965 18.8588 44.5879 19.1112 44.1391 19.56C43.6903 20.0088 43.4379 20.6174 43.4372 21.2521V31.6308C43.4379 32.2655 43.6903 32.8741 44.1391 33.3229C44.5879 33.7718 45.1965 34.0242 45.8312 34.0248C45.955 34.0248 46.0737 34.074 46.1612 34.1615C46.2487 34.249 46.2979 34.3677 46.2979 34.4915V39.3709L51.5073 34.1601C51.5948 34.0726 51.7135 34.0234 51.8372 34.0234H62.0059C62.6404 34.0228 63.2487 33.7705 63.6975 33.322C64.1463 32.8735 64.3989 32.2653 64.3999 31.6308V21.2521C64.3993 20.6174 64.1469 20.0088 63.698 19.56C63.2492 19.1112 62.6406 18.8588 62.0059 18.8581H45.8312Z" fill="black"/>
<path d="M27.1052 50.792C26.9815 50.792 26.8628 50.7428 26.7753 50.6553L19.9792 43.8587H8.43482C7.43565 43.8577 6.47769 43.4604 5.77113 42.7539C5.06457 42.0475 4.66713 41.0895 4.66602 40.0904V28.1101C4.66713 27.1109 5.06455 26.1529 5.7711 25.4464C6.47765 24.7398 7.43561 24.3424 8.43482 24.3413H27.1052C28.1044 24.3424 29.0624 24.7398 29.7689 25.4464C30.4755 26.1529 30.8729 27.1109 30.874 28.1101V40.0904C30.8728 41.0088 30.5368 41.8953 29.929 42.5837C29.3211 43.2721 28.4831 43.7153 27.5719 43.8303V50.3253C27.5719 50.4491 27.5227 50.5678 27.4352 50.6553C27.3477 50.7428 27.229 50.792 27.1052 50.792Z" fill="#FEDD15"/>
<path d="M9.8084 36.9412C9.32383 36.9412 8.85015 36.7976 8.44725 36.5283C8.04435 36.2591 7.73033 35.8765 7.54489 35.4288C7.35946 34.9811 7.31094 34.4885 7.40548 34.0133C7.50001 33.538 7.73335 33.1015 8.07599 32.7588C8.41863 32.4162 8.85517 32.1829 9.33043 32.0883C9.80568 31.9938 10.2983 32.0423 10.746 32.2278C11.1937 32.4132 11.5763 32.7272 11.8455 33.1301C12.1147 33.533 12.2584 34.0067 12.2584 34.4913C12.2577 35.1408 11.9993 35.7635 11.54 36.2228C11.0807 36.6821 10.458 36.9405 9.8084 36.9412ZM9.8084 32.9746C9.50843 32.9746 9.2152 33.0635 8.96578 33.2302C8.71637 33.3968 8.52198 33.6337 8.40718 33.9109C8.29239 34.188 8.26235 34.4929 8.32087 34.7871C8.3794 35.0813 8.52384 35.3516 8.73595 35.5637C8.94806 35.7758 9.21831 35.9203 9.51251 35.9788C9.80672 36.0373 10.1117 36.0073 10.3888 35.8925C10.6659 35.7777 10.9028 35.5833 11.0695 35.3339C11.2361 35.0845 11.3251 34.7912 11.3251 34.4913C11.3246 34.0892 11.1646 33.7037 10.8803 33.4194C10.596 33.135 10.2105 32.9751 9.8084 32.9746Z" fill="black"/>
<path d="M17.7703 36.9412C17.2858 36.9412 16.8121 36.7976 16.4092 36.5283C16.0063 36.2591 15.6922 35.8765 15.5068 35.4288C15.3214 34.9811 15.2729 34.4885 15.3674 34.0133C15.4619 33.538 15.6953 33.1015 16.0379 32.7588C16.3805 32.4162 16.8171 32.1829 17.2923 32.0883C17.7676 31.9938 18.2602 32.0423 18.7079 32.2278C19.1556 32.4132 19.5382 32.7272 19.8074 33.1301C20.0766 33.533 20.2203 34.0067 20.2203 34.4913C20.2196 35.1408 19.9612 35.7635 19.5019 36.2228C19.0426 36.6821 18.4199 36.9405 17.7703 36.9412ZM17.7703 32.9746C17.4703 32.9746 17.1771 33.0635 16.9277 33.2302C16.6783 33.3968 16.4839 33.6337 16.3691 33.9109C16.2543 34.188 16.2243 34.4929 16.2828 34.7871C16.3413 35.0813 16.4858 35.3516 16.6979 35.5637C16.91 35.7758 17.1802 35.9203 17.4744 35.9788C17.7686 36.0373 18.0736 36.0073 18.3507 35.8925C18.6279 35.7777 18.8647 35.5833 19.0314 35.3339C19.198 35.0845 19.287 34.7912 19.287 34.4913C19.2865 34.0892 19.1265 33.7037 18.8422 33.4194C18.5579 33.135 18.1724 32.9751 17.7703 32.9746Z" fill="black"/>
<path d="M25.7332 36.9412C25.2486 36.9412 24.775 36.7976 24.3721 36.5283C23.9692 36.2591 23.6551 35.8765 23.4697 35.4288C23.2843 34.9811 23.2357 34.4885 23.3303 34.0133C23.4248 33.538 23.6582 33.1015 24.0008 32.7588C24.3434 32.4162 24.78 32.1829 25.2552 32.0883C25.7305 31.9938 26.2231 32.0423 26.6708 32.2278C27.1185 32.4132 27.5011 32.7272 27.7703 33.1301C28.0395 33.533 28.1832 34.0067 28.1832 34.4913C28.1825 35.1408 27.9241 35.7635 27.4648 36.2228C27.0055 36.6821 26.3828 36.9405 25.7332 36.9412ZM25.7332 32.9746C25.4332 32.9746 25.14 33.0635 24.8906 33.2302C24.6412 33.3968 24.4468 33.6337 24.332 33.9109C24.2172 34.188 24.1872 34.4929 24.2457 34.7871C24.3042 35.0813 24.4486 35.3516 24.6608 35.5637C24.8729 35.7758 25.1431 35.9203 25.4373 35.9788C25.7315 36.0373 26.0365 36.0073 26.3136 35.8925C26.5907 35.7777 26.8276 35.5833 26.9943 35.3339C27.1609 35.0845 27.2499 34.7912 27.2499 34.4913C27.2494 34.0892 27.0894 33.7037 26.8051 33.4194C26.5208 33.135 26.1353 32.9751 25.7332 32.9746Z" fill="black"/>
<path d="M61.1703 24.1081H47.287C47.1632 24.1081 47.0445 24.059 46.957 23.9715C46.8695 23.8839 46.8203 23.7652 46.8203 23.6415C46.8203 23.5177 46.8695 23.399 46.957 23.3115C47.0445 23.224 47.1632 23.1748 47.287 23.1748H61.1703C61.2941 23.1748 61.4128 23.224 61.5003 23.3115C61.5878 23.399 61.637 23.5177 61.637 23.6415C61.637 23.7652 61.5878 23.8839 61.5003 23.9715C61.4128 24.059 61.2941 24.1081 61.1703 24.1081Z" fill="black"/>
<path d="M61.1703 30.0581H47.287C47.1632 30.0581 47.0445 30.0089 46.957 29.9214C46.8695 29.8339 46.8203 29.7152 46.8203 29.5914C46.8203 29.4677 46.8695 29.349 46.957 29.2614C47.0445 29.1739 47.1632 29.1248 47.287 29.1248H61.1703C61.2941 29.1248 61.4128 29.1739 61.5003 29.2614C61.5878 29.349 61.637 29.4677 61.637 29.5914C61.637 29.7152 61.5878 29.8339 61.5003 29.9214C61.4128 30.0089 61.2941 30.0581 61.1703 30.0581Z" fill="black"/>
</svg>
