<svg width="27" height="90" viewBox="0 0 27 90" fill="none" xmlns="http://www.w3.org/2000/svg">
<path d="M26.8051 2.11251C26.8673 1.84345 26.6995 1.57496 26.4305 1.51282L22.0459 0.500216C21.7768 0.438077 21.5083 0.60582 21.4462 0.87488C21.384 1.14394 21.5518 1.41243 21.8209 1.47457L25.7183 2.37466L24.8182 6.27208C24.756 6.54114 24.9238 6.80963 25.1928 6.87177C25.4619 6.9339 25.7304 6.76616 25.7925 6.4971L26.8051 2.11251ZM26.053 1.57596C11.0948 10.9213 2.4021 27.4485 0.778608 44.3898C-0.844923 61.3315 4.59581 78.758 17.9979 89.8847L18.6367 89.1153C5.53976 78.242 0.175274 61.1685 1.77405 44.4852C3.37286 27.8015 11.93 11.5787 26.5829 2.42404L26.053 1.57596Z" fill="#ADB1B2"/>
</svg>
