<svg width="70" height="71" viewBox="0 0 70 71" fill="none" xmlns="http://www.w3.org/2000/svg">
<path d="M58.9101 65.8341H11.0898C10.9661 65.8341 10.8474 65.785 10.7599 65.6974C10.6723 65.6099 10.6232 65.4912 10.6232 65.3675V8.65673C10.6232 8.53296 10.6723 8.41426 10.7599 8.32675C10.8474 8.23923 10.9661 8.19006 11.0898 8.19006H30.3487C30.4725 8.19006 30.5912 8.23923 30.6787 8.32675C30.7662 8.41426 30.8154 8.53296 30.8154 8.65673C30.8154 8.7805 30.7662 8.8992 30.6787 8.98671C30.5912 9.07423 30.4725 9.1234 30.3487 9.1234H11.5565V64.9008H58.4434V9.1234H39.7156C39.5919 9.1234 39.4732 9.07423 39.3857 8.98671C39.2981 8.8992 39.249 8.7805 39.249 8.65673C39.249 8.53296 39.2981 8.41426 39.3857 8.32675C39.4732 8.23923 39.5919 8.19006 39.7156 8.19006H58.9101C59.0339 8.19006 59.1526 8.23923 59.2401 8.32675C59.3276 8.41426 59.3768 8.53296 59.3768 8.65673V65.3675C59.3768 65.4912 59.3276 65.6099 59.2401 65.6974C59.1526 65.785 59.0339 65.8341 58.9101 65.8341Z" fill="black"/>
<path d="M53.4224 60.4445H16.3425C16.2188 60.4445 16.1001 60.3953 16.0125 60.3078C15.925 60.2203 15.8759 60.1016 15.8759 59.9778V14.4526C15.8759 14.3289 15.925 14.2102 16.0125 14.1226C16.1001 14.0351 16.2188 13.986 16.3425 13.986H23.3794C23.5032 13.986 23.6219 14.0351 23.7094 14.1226C23.7969 14.2102 23.8461 14.3289 23.8461 14.4526C23.8461 14.5764 23.7969 14.6951 23.7094 14.7826C23.6219 14.8701 23.5032 14.9193 23.3794 14.9193H16.8092V59.5112H52.9558V14.9193H46.6091C46.4853 14.9193 46.3666 14.8701 46.2791 14.7826C46.1916 14.6951 46.1424 14.5764 46.1424 14.4526C46.1424 14.3289 46.1916 14.2102 46.2791 14.1226C46.3666 14.0351 46.4853 13.986 46.6091 13.986H53.4224C53.5462 13.986 53.6649 14.0351 53.7524 14.1226C53.8399 14.2102 53.8891 14.3289 53.8891 14.4526V59.9778C53.8891 60.1016 53.8399 60.2203 53.7524 60.3078C53.6649 60.3953 53.5462 60.4445 53.4224 60.4445Z" fill="black"/>
<path d="M46.6097 16.2961H23.38C23.2562 16.2961 23.1375 16.2469 23.05 16.1594C22.9625 16.0719 22.9133 15.9532 22.9133 15.8294V8.65673C22.9133 8.53296 22.9625 8.41426 23.05 8.32675C23.1375 8.23923 23.2562 8.19006 23.38 8.19006H30.3487C30.4725 8.19006 30.5912 8.23923 30.6787 8.32675C30.7662 8.41426 30.8154 8.53296 30.8154 8.65673C30.8154 8.7805 30.7662 8.8992 30.6787 8.98671C30.5912 9.07423 30.4725 9.1234 30.3487 9.1234H23.8467V15.3627H46.143V9.1234H39.7157C39.5919 9.1234 39.4732 9.07423 39.3857 8.98671C39.2982 8.8992 39.249 8.7805 39.249 8.65673C39.249 8.53296 39.2982 8.41426 39.3857 8.32675C39.4732 8.23923 39.5919 8.19006 39.7157 8.19006H46.6097C46.7335 8.19006 46.8522 8.23923 46.9397 8.32675C47.0272 8.41426 47.0764 8.53296 47.0764 8.65673V15.8294C47.0764 15.9532 47.0272 16.0719 46.9397 16.1594C46.8522 16.2469 46.7335 16.2961 46.6097 16.2961Z" fill="black"/>
<path d="M39.7157 12.4032H30.3487C30.225 12.4032 30.1063 12.354 30.0188 12.2665C29.9312 12.179 29.8821 12.0603 29.8821 11.9365V5.6328C29.8821 5.50904 29.9312 5.39034 30.0188 5.30282C30.1063 5.2153 30.225 5.16614 30.3487 5.16614H39.7157C39.8395 5.16614 39.9582 5.2153 40.0457 5.30282C40.1332 5.39034 40.1824 5.50904 40.1824 5.6328V11.9365C40.1824 12.0603 40.1332 12.179 40.0457 12.2665C39.9582 12.354 39.8395 12.4032 39.7157 12.4032ZM30.8154 11.4699H39.249V6.09947H30.8154V11.4699Z" fill="black"/>
<path d="M34.8825 47.6463C32.7122 47.6463 30.5907 47.0028 28.7862 45.7971C26.9816 44.5913 25.5752 42.8776 24.7446 40.8725C23.9141 38.8675 23.6968 36.6611 24.1201 34.5326C24.5435 32.404 25.5885 30.4487 27.1231 28.9141C28.6577 27.3794 30.6129 26.3343 32.7415 25.9109C34.87 25.4874 37.0764 25.7046 39.0814 26.5351C41.0865 27.3656 42.8004 28.772 44.0062 30.5764C45.212 32.3809 45.8556 34.5024 45.8557 36.6727C45.8525 39.582 44.6954 42.3713 42.6382 44.4285C40.5811 46.4858 37.7918 47.643 34.8825 47.6463Z" fill="#FEDD15"/>
<path d="M33.2959 40.9805C33.1721 40.9805 33.0535 40.9313 32.966 40.8438L29.4053 37.2836C29.3203 37.1956 29.2732 37.0777 29.2743 36.9553C29.2754 36.833 29.3245 36.7159 29.411 36.6294C29.4975 36.5429 29.6145 36.4938 29.7369 36.4927C29.8593 36.4917 29.9771 36.5387 30.0652 36.6237L33.2959 39.854L39.7004 33.449C39.7884 33.364 39.9063 33.3169 40.0287 33.318C40.151 33.3191 40.2681 33.3682 40.3546 33.4547C40.4411 33.5412 40.4902 33.6582 40.4913 33.7806C40.4923 33.903 40.4453 34.0208 40.3603 34.1089L33.6258 40.8438C33.5383 40.9313 33.4196 40.9805 33.2959 40.9805Z" fill="black"/>
</svg>
