<svg width="70" height="71" viewBox="0 0 70 71" fill="none" xmlns="http://www.w3.org/2000/svg">
<path d="M16.0001 52H55L55.5001 63H15.5L16.0001 52Z" fill="#FEDD15"/>
<path d="M46 20.7639H53.9646L56 63.5001H15L17.0354 20.7639H25" stroke="black" stroke-linecap="round" stroke-linejoin="round"/>
<path d="M25.25 20.7639H45.75" stroke="black" stroke-linecap="round" stroke-linejoin="round"/>
<path d="M16 51.5L55 51.5" stroke="black" stroke-linecap="round" stroke-linejoin="round"/>
<path d="M25.25 29.6058V17.4481C25.2672 16.1244 25.5433 14.817 26.0626 13.6007C26.5819 12.3843 27.3342 11.2829 28.2765 10.3592C29.2188 9.43545 30.3327 8.7076 31.5545 8.21718C32.7763 7.72675 34.0822 7.48335 35.3975 7.50088H35.6025C36.9178 7.48335 38.2237 7.72675 39.4455 8.21718C40.6673 8.7076 41.7812 9.43545 42.7235 10.3592C43.6658 11.2829 44.4181 12.3843 44.9374 13.6007C45.4567 14.817 45.7328 16.1244 45.75 17.4481V29.6058" stroke="black" stroke-linecap="round" stroke-linejoin="round"/>
<path d="M22.3213 29.6057H28.1784" stroke="black" stroke-linecap="round" stroke-linejoin="round"/>
<path d="M42.8213 29.6057H48.6784" stroke="black" stroke-linecap="round" stroke-linejoin="round"/>
</svg>
