<svg width="70" height="70" viewBox="0 0 70 70" fill="none" xmlns="http://www.w3.org/2000/svg">
<path d="M16 23.5C22 18.7 29.5 19.8333 32.5 21L26.5 27.5L21.5 35C20 34.8333 16.5 34.4 14.5 34C12.5 33.6 7.33333 35.1667 5 36C6.16667 33.8333 10 28.3 16 23.5Z" fill="#FEDD15"/>
<path d="M46.5809 53.517C51.3516 47.4937 50.1818 39.9993 49.0006 37.005L42.5299 43.0366L35.0542 48.073C35.2282 49.5721 35.6785 53.07 36.0883 55.068C36.498 57.066 34.9564 62.2403 34.1345 64.5776C36.2954 63.4004 41.8101 59.5403 46.5809 53.517Z" fill="#FEDD15"/>
<path d="M62.5 16.5026L54 8.00261C57.3333 6.50261 64.2 3.90261 65 5.50261C65.8 7.10261 63.6667 13.5026 62.5 16.5026Z" fill="#FEDD15"/>
<path d="M35.0427 49.072C34.9413 49.072 34.8426 49.0391 34.7616 48.978C34.6806 48.917 34.6216 48.8312 34.5937 48.7337C34.5658 48.6362 34.5705 48.5322 34.6069 48.4376C34.6434 48.3429 34.7097 48.2627 34.7958 48.2091C60.784 32.0821 64.0017 9.38945 64.3587 5.66125C60.6254 6.01498 37.8847 9.21585 21.7698 35.1835C21.7045 35.2887 21.6001 35.3637 21.4795 35.3919C21.359 35.4201 21.2321 35.3993 21.1269 35.334C21.0217 35.2687 20.9468 35.1643 20.9185 35.0438C20.8903 34.9232 20.9111 34.7964 20.9764 34.6912C30.2668 19.7201 41.6857 12.3612 49.6298 8.82385C58.2528 4.98458 64.5836 4.69758 64.8487 4.68778C64.9132 4.68398 64.9778 4.69424 65.038 4.71785C65.0982 4.74146 65.1525 4.77785 65.1973 4.82452C65.2427 4.87006 65.2782 4.92449 65.3016 4.9844C65.3249 5.04431 65.3357 5.1084 65.3331 5.17265C65.3228 5.43772 65.026 11.7583 61.176 20.3711C57.6294 28.3044 50.2598 39.7121 35.2886 49.002C35.2148 49.0478 35.1296 49.072 35.0427 49.072Z" fill="black"/>
<path d="M62.2229 17.0164C62.0991 17.0164 61.9804 16.9672 61.8929 16.8797L53.1425 8.12924C53.0979 8.08619 53.0623 8.0347 53.0379 7.97776C53.0134 7.92083 53.0006 7.85959 53 7.79763C52.9995 7.73566 53.0113 7.67421 53.0348 7.61686C53.0582 7.55951 53.0929 7.5074 53.1367 7.46359C53.1805 7.41977 53.2326 7.38512 53.29 7.36166C53.3473 7.33819 53.4088 7.32638 53.4707 7.32692C53.5327 7.32746 53.5939 7.34033 53.6509 7.36479C53.7078 7.38925 53.7593 7.4248 53.8023 7.46937L62.5528 16.2198C62.6181 16.2851 62.6625 16.3682 62.6805 16.4588C62.6985 16.5493 62.6892 16.6431 62.6539 16.7283C62.6186 16.8136 62.5588 16.8865 62.4821 16.9378C62.4054 16.989 62.3152 17.0164 62.2229 17.0164Z" fill="black"/>
<path d="M46.8828 31.4368C44.9647 31.4355 43.1064 30.7692 41.6245 29.5513C40.1426 28.3335 39.1288 26.6395 38.7559 24.758C38.3829 22.8764 38.674 20.9238 39.5793 19.2328C40.4846 17.5418 41.9483 16.217 43.7209 15.4842C45.4935 14.7513 47.4654 14.6558 49.3006 15.2139C51.1357 15.7719 52.7206 16.949 53.7852 18.5446C54.8497 20.1402 55.3281 22.0555 55.1388 23.9643C54.9495 25.873 54.1042 27.6571 52.747 29.0125C51.9769 29.7823 51.0626 30.3927 50.0564 30.8087C49.0501 31.2247 47.9717 31.4382 46.8828 31.4368Z" fill="#FEDD15"/>
<path d="M46.8808 27.9757C45.7642 27.9747 44.6825 27.5865 43.8201 26.8775C42.9576 26.1684 42.3676 25.1822 42.1506 24.0869C41.9336 22.9916 42.1031 21.855 42.6302 20.8707C43.1572 19.8863 44.0092 19.1151 45.0411 18.6885C46.0729 18.2619 47.2207 18.2062 48.289 18.5309C49.3574 18.8556 50.28 19.5407 50.8999 20.4693C51.5198 21.398 51.7985 22.5129 51.6886 23.624C51.5787 24.7352 51.087 25.7739 50.2972 26.5631C49.8486 27.0117 49.3159 27.3673 48.7297 27.6097C48.1435 27.8521 47.5152 27.9765 46.8808 27.9757Z" fill="white"/>
<path d="M46.8808 27.9757C45.7642 27.9747 44.6825 27.5865 43.8201 26.8775C42.9576 26.1684 42.3676 25.1822 42.1506 24.0869C41.9336 22.9916 42.1031 21.855 42.6302 20.8707C43.1572 19.8863 44.0092 19.1151 45.0411 18.6885C46.0729 18.2619 47.2207 18.2062 48.289 18.5309C49.3574 18.8556 50.28 19.5407 50.8999 20.4693C51.5198 21.398 51.7985 22.5129 51.6886 23.624C51.5787 24.7352 51.087 25.7739 50.2972 26.5631C49.8486 27.0117 49.3159 27.3673 48.7297 27.6097C48.1435 27.8521 47.5152 27.9765 46.8808 27.9757ZM46.8766 19.2435C46.2352 19.244 45.6039 19.4026 45.0385 19.7053C44.4731 20.008 43.9911 20.4454 43.635 20.9789C43.279 21.5123 43.06 22.1253 42.9974 22.7636C42.9348 23.4018 43.0305 24.0457 43.2761 24.6382C43.5217 25.2306 43.9096 25.7534 44.4054 26.1601C44.9013 26.5669 45.4897 26.8452 46.1187 26.9703C46.7478 27.0954 47.3979 27.0634 48.0117 26.8773C48.6254 26.6912 49.1838 26.3567 49.6374 25.9033C50.1828 25.3574 50.5542 24.6621 50.7045 23.9052C50.8548 23.1484 50.7773 22.3639 50.4818 21.6511C50.1863 20.9383 49.686 20.329 49.0443 19.9005C48.4026 19.472 47.6482 19.2433 46.8766 19.2435Z" fill="black"/>
<path d="M15.846 56.9832C15.2238 56.9832 14.5843 56.9578 13.9275 56.9071C13.8197 56.8987 13.7182 56.853 13.6404 56.7781C13.5625 56.7031 13.5131 56.6034 13.5005 56.496C11.9437 43.2226 23.1003 37.113 23.2128 37.0528C23.2669 37.0239 23.3261 37.006 23.3871 37C23.4481 36.9941 23.5097 37.0002 23.5684 37.018C23.627 37.0358 23.6816 37.065 23.729 37.1039C23.7763 37.1429 23.8156 37.1907 23.8444 37.2448C23.8733 37.2989 23.8912 37.3581 23.8972 37.4192C23.9032 37.4802 23.8971 37.5418 23.8792 37.6004C23.8614 37.6591 23.8322 37.7136 23.7933 37.761C23.7543 37.8084 23.7065 37.8476 23.6524 37.8765C23.546 37.9334 24.5005 37.5 28.0005 41.5C32.0005 45 32.4733 46.8626 32.5237 46.7599C32.5517 46.7054 32.5902 46.6569 32.637 46.6172C32.6837 46.5775 32.7378 46.5475 32.7962 46.5287C32.8545 46.5099 32.916 46.5029 32.9771 46.5079C33.0383 46.5129 33.0978 46.5298 33.1523 46.5579C33.2069 46.5859 33.2554 46.6243 33.295 46.6711C33.3347 46.7178 33.3648 46.7719 33.3835 46.8303C33.4023 46.8887 33.4094 46.9502 33.4044 47.0113C33.3994 47.0724 33.3824 47.1319 33.3544 47.1865C31.5503 50.2103 28.9832 52.707 25.9104 54.4264C22.8376 56.1458 19.3669 57.0275 15.846 56.9832Z" fill="#FEDD15"/>
<path d="M35.0437 49.0716C34.9823 49.0718 34.9216 49.0598 34.865 49.0363C34.8083 49.0129 34.7569 48.9784 34.7137 48.9349L21.0451 35.2667C20.9601 35.1787 20.913 35.0608 20.9141 34.9384C20.9151 34.8161 20.9642 34.699 21.0507 34.6125C21.1373 34.526 21.2543 34.4769 21.3767 34.4758C21.499 34.4748 21.6169 34.5218 21.7049 34.6068L35.3745 48.275C35.4398 48.3403 35.4842 48.4234 35.5022 48.514C35.5202 48.6045 35.5109 48.6983 35.4756 48.7835C35.4403 48.8688 35.3805 48.9417 35.3038 48.993C35.2271 49.0442 35.1369 49.0716 35.0446 49.0716H35.0437Z" fill="black"/>
</svg>
