<svg width="70" height="70" viewBox="0 0 70 70" fill="none" xmlns="http://www.w3.org/2000/svg">
<path fill-rule="evenodd" clip-rule="evenodd" d="M35.3754 4.88455L9.13099 20.2246V50.9276L35.3754 66.2676L60.8701 50.9339V20.2183L35.3754 4.88455ZM61.631 19.788L35.381 4L8.37012 19.788V51.3641L35.381 67.1522L61.631 51.3641V19.788Z" fill="black"/>
<path fill-rule="evenodd" clip-rule="evenodd" d="M35.3214 9.44928L12.9357 22.5076V48.6445L35.3214 61.7028L57.0661 48.6508V22.5013L35.3214 9.44928ZM57.827 22.0706L35.327 8.56519L12.1748 22.0706V49.0815L35.327 62.5869L57.827 49.0815V22.0706Z" fill="black"/>
<path d="M8.37109 35.9564C8.37109 35.5362 8.71175 35.1956 9.13196 35.1956H60.8711C61.2913 35.1956 61.632 35.5362 61.632 35.9564V51.1738C61.632 51.594 61.2913 51.9347 60.8711 51.9347H9.13196C8.71175 51.9347 8.37109 51.594 8.37109 51.1738V35.9564Z" fill="#FEDD15"/>
<path fill-rule="evenodd" clip-rule="evenodd" d="M9.13141 51.174V38.2393H0.000976562L4.18576 46.4059L0.000976562 54.2175H14.4575L9.13141 51.174ZM11.5924 53.4566L8.37054 51.6156V39.0001H1.24581L5.04473 46.4138L1.27176 53.4566H11.5924Z" fill="black"/>
<path fill-rule="evenodd" clip-rule="evenodd" d="M60.8705 51.174V38.2393H70.001L65.8162 46.4059L70.001 54.2175H55.5445L60.8705 51.174ZM58.4096 53.4566L61.6314 51.6156V39.0001H68.7561L64.9572 46.4138L68.7302 53.4566H58.4096Z" fill="black"/>
<path d="M27.001 40H41.001V42H27.001V40Z" fill="white"/>
<path d="M18.001 44H50.001V46H18.001V44Z" fill="white"/>
<path d="M26.001 30.251V23.1123H27.5146V30.251H26.001Z" fill="black"/>
<path d="M34.7754 28.2686C34.7754 28.9131 34.5426 29.4209 34.0771 29.792C33.6149 30.1631 32.9704 30.3486 32.1436 30.3486C31.3818 30.3486 30.708 30.2054 30.1221 29.9189V28.5127C30.6038 28.7275 31.0107 28.8789 31.3428 28.9668C31.6781 29.0547 31.984 29.0986 32.2607 29.0986C32.5928 29.0986 32.8467 29.0352 33.0225 28.9082C33.2015 28.7812 33.291 28.5924 33.291 28.3418C33.291 28.2018 33.252 28.0781 33.1738 27.9707C33.0957 27.86 32.9801 27.7542 32.8271 27.6533C32.6774 27.5524 32.3698 27.3913 31.9043 27.1699C31.4681 26.9648 31.141 26.7679 30.9229 26.5791C30.7048 26.3903 30.5306 26.1706 30.4004 25.9199C30.2702 25.6693 30.2051 25.3763 30.2051 25.041C30.2051 24.4095 30.4183 23.9131 30.8447 23.5518C31.2744 23.1904 31.8669 23.0098 32.6221 23.0098C32.9932 23.0098 33.3464 23.0537 33.6816 23.1416C34.0202 23.2295 34.3734 23.3532 34.7412 23.5127L34.2529 24.6895C33.8721 24.5332 33.5563 24.4242 33.3057 24.3623C33.0583 24.3005 32.8141 24.2695 32.5732 24.2695C32.2868 24.2695 32.0671 24.3363 31.9141 24.4697C31.7611 24.6032 31.6846 24.7773 31.6846 24.9922C31.6846 25.1257 31.7155 25.2428 31.7773 25.3438C31.8392 25.4414 31.9368 25.5374 32.0703 25.6318C32.207 25.723 32.5277 25.889 33.0322 26.1299C33.6995 26.4489 34.1569 26.7695 34.4043 27.0918C34.6517 27.4108 34.7754 27.8031 34.7754 28.2686Z" fill="black"/>
<path d="M43.7988 26.6719C43.7988 27.8535 43.5059 28.7617 42.9199 29.3965C42.334 30.0312 41.4941 30.3486 40.4004 30.3486C39.3066 30.3486 38.4668 30.0312 37.8809 29.3965C37.2949 28.7617 37.002 27.8503 37.002 26.6621C37.002 25.474 37.2949 24.5674 37.8809 23.9424C38.4701 23.3141 39.3132 23 40.4102 23C41.5072 23 42.3454 23.3158 42.9248 23.9473C43.5075 24.5788 43.7988 25.487 43.7988 26.6719ZM38.5889 26.6719C38.5889 27.4694 38.7402 28.07 39.043 28.4736C39.3457 28.8773 39.7982 29.0791 40.4004 29.0791C41.6081 29.0791 42.2119 28.2767 42.2119 26.6719C42.2119 25.0638 41.6113 24.2598 40.4102 24.2598C39.8079 24.2598 39.3538 24.4632 39.0479 24.8701C38.7419 25.2738 38.5889 25.8743 38.5889 26.6719Z" fill="black"/>
</svg>
