<svg width="70" height="70" viewBox="0 0 70 70" fill="none" xmlns="http://www.w3.org/2000/svg">
<path d="M35 60.411C30.2586 60.411 25.6238 59.0051 21.6815 56.3709C17.7392 53.7368 14.6666 49.9928 12.8522 45.6123C11.0377 41.2319 10.563 36.4118 11.488 31.7616C12.413 27.1114 14.6961 22.8399 18.0488 19.4872C21.4014 16.1346 25.6729 13.8514 30.3231 12.9265C34.9734 12.0015 39.7935 12.4762 44.1739 14.2906C48.5543 16.1051 52.2983 19.1777 54.9324 23.12C57.5666 27.0622 58.9725 31.6971 58.9725 36.4384C58.9658 42.7943 56.4379 48.8879 51.9436 53.3821C47.4494 57.8764 41.3558 60.4042 35 60.411Z" fill="#FEDD15"/>
<path d="M35.0325 31.7375C32.3588 31.7375 29.745 30.9446 27.5219 29.4591C25.2987 27.9736 23.566 25.8623 22.5427 23.392C21.5195 20.9218 21.2518 18.2036 21.7734 15.5812C22.2951 12.9588 23.5826 10.5499 25.4733 8.6593C27.3639 6.76865 29.7727 5.4811 32.3951 4.95947C35.0175 4.43785 37.7357 4.70556 40.206 5.72878C42.6762 6.75199 44.7876 8.48473 46.2731 10.7079C47.7585 12.9311 48.5514 15.5448 48.5514 18.2186C48.5476 21.8028 47.122 25.2392 44.5876 27.7736C42.0531 30.3081 38.6168 31.7336 35.0325 31.7375ZM35.0325 5.63305C32.5434 5.63305 30.1101 6.37118 28.0404 7.75409C25.9707 9.13701 24.3576 11.1026 23.405 13.4023C22.4525 15.702 22.2032 18.2325 22.6888 20.6739C23.1745 23.1153 24.3731 25.3578 26.1332 27.1179C27.8933 28.878 30.1359 30.0767 32.5772 30.5623C35.0186 31.0479 37.5491 30.7987 39.8488 29.8461C42.1485 28.8935 44.1141 27.2804 45.497 25.2107C46.8799 23.1411 47.6181 20.7078 47.6181 18.2186C47.6142 14.8819 46.287 11.6829 43.9276 9.32349C41.5682 6.96408 38.3693 5.63688 35.0325 5.63305Z" fill="black"/>
<path d="M25.4252 27.519C25.3534 27.5191 25.2825 27.5023 25.2184 27.47C25.1075 27.415 25.023 27.3182 24.9835 27.201C24.9439 27.0837 24.9526 26.9555 25.0075 26.8446C25.9331 24.9767 27.3622 23.4045 29.1336 22.3054C30.905 21.2062 32.9482 20.6238 35.0329 20.6238C37.1176 20.6238 39.1608 21.2062 40.9322 22.3054C42.7036 23.4045 44.1327 24.9767 45.0583 26.8446C45.1133 26.9555 45.122 27.0837 45.0825 27.201C45.043 27.3184 44.9585 27.4152 44.8476 27.4702C44.7367 27.5252 44.6085 27.5339 44.4912 27.4944C44.3739 27.4549 44.2771 27.3704 44.2221 27.2595C43.3738 25.5472 42.0639 24.106 40.4403 23.0984C38.8167 22.0908 36.9438 21.5569 35.0329 21.5569C33.122 21.5569 31.2492 22.0908 29.6255 23.0984C28.0019 24.106 26.6921 25.5472 25.8438 27.2595C25.8051 27.3375 25.7455 27.4031 25.6715 27.4489C25.5975 27.4948 25.5122 27.519 25.4252 27.519Z" fill="black"/>
<path d="M35.0328 18.5116C34.0803 18.5116 33.1491 18.2292 32.3571 17.7C31.5651 17.1708 30.9478 16.4186 30.5833 15.5385C30.2189 14.6585 30.1235 13.6901 30.3094 12.7559C30.4952 11.8217 30.954 10.9636 31.6275 10.29C32.3011 9.61654 33.1593 9.1579 34.0935 8.97212C35.0278 8.78635 35.9961 8.88179 36.8761 9.24637C37.7561 9.61095 38.5082 10.2283 39.0374 11.0204C39.5665 11.8124 39.8489 12.7436 39.8488 13.6961C39.8473 14.9729 39.3394 16.197 38.4366 17.0997C37.5337 18.0025 36.3096 18.5103 35.0328 18.5116ZM35.0328 9.81297C34.2649 9.81297 33.5142 10.0407 32.8758 10.4673C32.2373 10.8939 31.7396 11.5003 31.4457 12.2097C31.1518 12.9191 31.0749 13.6998 31.2247 14.4529C31.3745 15.2061 31.7442 15.8979 32.2872 16.4409C32.8301 16.984 33.5219 17.3538 34.275 17.5036C35.0282 17.6535 35.8088 17.5767 36.5183 17.2829C37.2278 16.9891 37.8342 16.4915 38.2609 15.8531C38.6876 15.2146 38.9154 14.464 38.9155 13.6961C38.9143 12.6667 38.5049 11.6797 37.7771 10.9517C37.0492 10.2237 36.0622 9.81421 35.0328 9.81297Z" fill="black"/>
<path d="M51.8157 65.3002C49.142 65.3002 46.5282 64.5073 44.3051 63.0218C42.0819 61.5364 40.3492 59.425 39.3259 56.9548C38.3027 54.4845 38.035 51.7663 38.5566 49.1439C39.0783 46.5215 40.3658 44.1127 42.2565 42.222C44.1471 40.3314 46.5559 39.0438 49.1783 38.5222C51.8007 38.0006 54.5189 38.2683 56.9892 39.2915C59.4594 40.3147 61.5708 42.0475 63.0563 44.2706C64.5417 46.4938 65.3346 49.1075 65.3346 51.7813C65.3308 55.3656 63.9052 58.8019 61.3708 61.3364C58.8363 63.8708 55.4 65.2963 51.8157 65.3002ZM51.8157 39.1958C49.3266 39.1958 46.8933 39.9339 44.8236 41.3168C42.7539 42.6997 41.1408 44.6653 40.1882 46.965C39.2357 49.2647 38.9864 51.7953 39.472 54.2366C39.9577 56.678 41.1563 58.9205 42.9164 60.6806C44.6765 62.4407 46.9191 63.6394 49.3604 64.125C51.8018 64.6106 54.3323 64.3614 56.632 63.4088C58.9317 62.4563 60.8973 60.8431 62.2802 58.7735C63.6631 56.7038 64.4013 54.2705 64.4013 51.7813C64.3974 48.4446 63.0702 45.2456 60.7108 42.8862C58.3514 40.5268 55.1525 39.1996 51.8157 39.1958Z" fill="black"/>
<path d="M61.4214 61.0815C61.3342 61.0818 61.2486 61.0577 61.1743 61.0118C61.1001 60.9659 61.0402 60.9002 61.0014 60.822C60.1532 59.1097 58.8433 57.6685 57.2197 56.6609C55.596 55.6533 53.7232 55.1194 51.8123 55.1194C49.9014 55.1194 48.0286 55.6533 46.4049 56.6609C44.7813 57.6685 43.4715 59.1097 42.6232 60.822C42.5682 60.9329 42.4713 61.0174 42.354 61.0569C42.2367 61.0964 42.1085 61.0877 41.9976 61.0327C41.8867 60.9777 41.8022 60.8809 41.7627 60.7635C41.7232 60.6462 41.7319 60.518 41.7869 60.4071C42.7125 58.5392 44.1416 56.967 45.913 55.8679C47.6844 54.7687 49.7276 54.1863 51.8123 54.1863C53.897 54.1863 55.9402 54.7687 57.7116 55.8679C59.483 56.967 60.9121 58.5392 61.8377 60.4071C61.8731 60.4784 61.8897 60.5576 61.8859 60.6372C61.8821 60.7167 61.858 60.7939 61.8159 60.8615C61.7738 60.9291 61.7151 60.9848 61.6454 61.0233C61.5757 61.0618 61.4973 61.0818 61.4177 61.0815H61.4214Z" fill="black"/>
<path d="M51.814 52.0749C50.8615 52.0749 49.9304 51.7924 49.1384 51.2632C48.3464 50.734 47.7292 49.9819 47.3646 49.1019C47.0001 48.2219 46.9048 47.2535 47.0906 46.3193C47.2764 45.3851 47.7351 44.527 48.4086 43.8534C49.0822 43.1799 49.9403 42.7212 50.8745 42.5354C51.8087 42.3496 52.777 42.445 53.6571 42.8095C54.5371 43.174 55.2892 43.7913 55.8184 44.5832C56.3476 45.3752 56.63 46.3064 56.63 47.2589C56.6286 48.5357 56.1207 49.7598 55.2178 50.6627C54.315 51.5655 53.0909 52.0734 51.814 52.0749ZM51.814 43.3762C51.0461 43.3762 50.2955 43.6039 49.657 44.0306C49.0185 44.4572 48.5208 45.0636 48.2269 45.773C47.9331 46.4825 47.8562 47.2632 48.006 48.0163C48.1558 48.7695 48.5256 49.4613 49.0686 50.0043C49.6116 50.5473 50.3034 50.9171 51.0566 51.0669C51.8097 51.2168 52.5904 51.1399 53.2999 50.846C54.0093 50.5521 54.6157 50.0545 55.0424 49.416C55.469 48.7775 55.6967 48.0268 55.6967 47.2589C55.6955 46.2295 55.286 45.2427 54.5581 44.5148C53.8303 43.7869 52.8434 43.3774 51.814 43.3762Z" fill="black"/>
<path d="M18.1868 65.3002C15.5131 65.3002 12.8993 64.5073 10.6762 63.0218C8.453 61.5364 6.72025 59.425 5.69704 56.9548C4.67383 54.4845 4.40611 51.7663 4.92774 49.1439C5.44936 46.5215 6.73691 44.1127 8.62756 42.222C10.5182 40.3314 12.927 39.0438 15.5494 38.5222C18.1718 38.0006 20.89 38.2683 23.3603 39.2915C25.8305 40.3147 27.9419 42.0475 29.4274 44.2706C30.9128 46.4938 31.7057 49.1075 31.7057 51.7813C31.7019 55.3656 30.2763 58.8019 27.7419 61.3364C25.2074 63.8708 21.7711 65.2963 18.1868 65.3002ZM18.1868 39.1958C15.6977 39.1958 13.2644 39.9339 11.1947 41.3168C9.12501 42.6997 7.51189 44.6653 6.55932 46.965C5.60676 49.2647 5.35752 51.7953 5.84314 54.2366C6.32875 56.678 7.52741 58.9205 9.28753 60.6806C11.0476 62.4407 13.2902 63.6394 15.7315 64.125C18.1729 64.6106 20.7034 64.3614 23.0031 63.4088C25.3028 62.4563 27.2684 60.8431 28.6513 58.7735C30.0342 56.7038 30.7724 54.2705 30.7724 51.7813C30.7685 48.4446 29.4413 45.2456 27.0819 42.8862C24.7225 40.5268 21.5236 39.1996 18.1868 39.1958Z" fill="black"/>
<path d="M27.7925 61.0815C27.7053 61.0818 27.6197 61.0577 27.5454 61.0118C27.4712 60.9659 27.4113 60.9002 27.3725 60.822C26.5243 59.1097 25.2144 57.6685 23.5908 56.6609C21.9671 55.6533 20.0943 55.1194 18.1834 55.1194C16.2725 55.1194 14.3997 55.6533 12.776 56.6609C11.1524 57.6685 9.84255 59.1097 8.99427 60.822C8.93925 60.9329 8.84244 61.0174 8.72512 61.0569C8.60781 61.0964 8.4796 61.0877 8.3687 61.0327C8.25781 60.9777 8.17331 60.8809 8.13379 60.7635C8.09428 60.6462 8.10299 60.518 8.158 60.4071C9.08363 58.5392 10.5127 56.967 12.2841 55.8679C14.0555 54.7687 16.0987 54.1863 18.1834 54.1863C20.2681 54.1863 22.3113 54.7687 24.0827 55.8679C25.8541 56.967 27.2832 58.5392 28.2088 60.4071C28.2441 60.4782 28.2608 60.5572 28.257 60.6366C28.2533 60.7159 28.2294 60.793 28.1876 60.8605C28.1458 60.928 28.0874 60.9838 28.018 61.0224C27.9487 61.0611 27.8706 61.0814 27.7911 61.0815H27.7925Z" fill="black"/>
<path d="M18.1851 52.0749C17.2326 52.0749 16.3015 51.7924 15.5095 51.2632C14.7175 50.734 14.1003 49.9819 13.7357 49.1019C13.3712 48.2219 13.2759 47.2535 13.4617 46.3193C13.6475 45.3851 14.1062 44.527 14.7797 43.8534C15.4532 43.1799 16.3114 42.7212 17.2456 42.5354C18.1798 42.3496 19.1481 42.445 20.0281 42.8095C20.9082 43.174 21.6603 43.7913 22.1895 44.5832C22.7187 45.3752 23.0011 46.3064 23.0011 47.2589C22.9997 48.5357 22.4918 49.7598 21.5889 50.6627C20.6861 51.5655 19.462 52.0734 18.1851 52.0749ZM18.1851 43.3762C17.4172 43.3762 16.6665 43.6039 16.028 44.0306C15.3895 44.4572 14.8919 45.0636 14.598 45.773C14.3042 46.4825 14.2273 47.2632 14.3771 48.0163C14.5269 48.7695 14.8967 49.4613 15.4397 50.0043C15.9827 50.5473 16.6745 50.9171 17.4277 51.0669C18.1808 51.2168 18.9615 51.1399 19.671 50.846C20.3804 50.5521 20.9868 50.0545 21.4135 49.416C21.8401 48.7775 22.0678 48.0268 22.0678 47.2589C22.0666 46.2295 21.6571 45.2427 20.9292 44.5148C20.2014 43.7869 19.2145 43.3774 18.1851 43.3762Z" fill="black"/>
<path d="M45.9664 40.5805C45.8776 40.5805 45.7905 40.5552 45.7155 40.5075C45.6406 40.4598 45.5808 40.3917 45.5432 40.3112L40.7118 29.9535C40.6858 29.898 40.6711 29.8379 40.6684 29.7766C40.6657 29.7154 40.6751 29.6542 40.6961 29.5966C40.717 29.539 40.7491 29.486 40.7905 29.4408C40.8319 29.3956 40.8818 29.359 40.9374 29.3331C40.9929 29.3072 41.0531 29.2924 41.1143 29.2898C41.1756 29.2871 41.2367 29.2965 41.2943 29.3174C41.352 29.3384 41.4049 29.3705 41.4501 29.4119C41.4953 29.4533 41.5319 29.5032 41.5578 29.5587L46.3864 39.9164C46.4123 39.972 46.427 40.0321 46.4297 40.0933C46.4324 40.1545 46.4229 40.2157 46.402 40.2733C46.381 40.3309 46.3489 40.3838 46.3075 40.429C46.266 40.4741 46.2161 40.5107 46.1606 40.5366C46.0998 40.5652 46.0336 40.5802 45.9664 40.5805Z" fill="black"/>
<path d="M24.0542 40.5898C23.9757 40.5897 23.8985 40.5699 23.8297 40.532C23.7609 40.4942 23.7028 40.4397 23.6607 40.3734C23.6186 40.3072 23.5939 40.2314 23.5889 40.153C23.5838 40.0747 23.5986 39.9963 23.6319 39.9252L28.4894 29.5484C28.5432 29.4385 28.6381 29.3541 28.7535 29.3134C28.8689 29.2727 28.9957 29.279 29.1065 29.3309C29.2174 29.3828 29.3034 29.4762 29.346 29.5909C29.3887 29.7056 29.3846 29.8324 29.3346 29.9442L24.4775 40.32C24.44 40.4007 24.3802 40.4689 24.3052 40.5167C24.2302 40.5644 24.1432 40.5898 24.0542 40.5898Z" fill="black"/>
</svg>
