<svg width="14" height="13" viewBox="0 0 14 13" fill="none" xmlns="http://www.w3.org/2000/svg">
<path d="M13.2573 7.08884L7.4231 0.365209C7.37037 0.304369 7.30517 0.255575 7.23193 0.222134C7.15868 0.188694 7.07911 0.171387 6.99859 0.171387C6.91808 0.171387 6.8385 0.188694 6.76526 0.222134C6.69202 0.255575 6.62682 0.304369 6.57408 0.365209L0.741659 7.08884C0.724034 7.10911 0.712607 7.13401 0.708737 7.16059C0.704868 7.18717 0.708719 7.2143 0.719833 7.23875C0.730947 7.2632 0.748855 7.28394 0.771423 7.2985C0.793992 7.31306 0.82027 7.32083 0.847128 7.32087H2.27096C2.35182 7.32087 2.42916 7.28572 2.48365 7.22419L6.3315 2.78923V12.6875C6.3315 12.7648 6.39478 12.8281 6.47213 12.8281H7.52681C7.60416 12.8281 7.66744 12.7648 7.66744 12.6875V2.78923L11.5153 7.22419C11.568 7.28572 11.6454 7.32087 11.728 7.32087H13.1518C13.2713 7.32087 13.3364 7.18025 13.2573 7.08884Z" fill="#3FB17A"/>
</svg>
