<svg width="180" height="22" viewBox="0 0 180 22" fill="none" xmlns="http://www.w3.org/2000/svg">
<path d="M47.1185 17.5271C47.1185 18.1518 46.9794 18.6479 46.7011 19.0181C46.4229 19.3882 46.0396 19.5719 45.5514 19.5719C45.0815 19.5719 44.714 19.4013 44.4515 19.0627L44.4069 19.4984H43.5879V13.7891H44.4909V15.8628C44.7508 15.5557 45.1025 15.4008 45.5435 15.4008C46.0344 15.4008 46.4203 15.5819 46.6985 15.9468C46.9794 16.3117 47.1185 16.8209 47.1185 17.4746V17.5271ZM46.2155 17.4483C46.2155 17.0126 46.1394 16.6844 45.9845 16.4666C45.8323 16.2487 45.6091 16.1384 45.3151 16.1384C44.924 16.1384 44.6484 16.3091 44.4909 16.6529V18.3093C44.651 18.6584 44.9293 18.8343 45.323 18.8343C45.6065 18.8343 45.8244 18.7293 45.9766 18.5193C46.1289 18.3093 46.2103 17.9917 46.2155 17.5638V17.4483Z" fill="#878E9B"/>
<path d="M49.2462 18.2044L50.0652 15.4771H51.0286L49.43 20.1076C49.1859 20.7848 48.7685 21.1234 48.1805 21.1234C48.0492 21.1234 47.9049 21.1024 47.7448 21.0552V20.3543L47.9154 20.3648C48.1437 20.3648 48.3144 20.3228 48.4299 20.2414C48.5454 20.1574 48.6372 20.0183 48.7029 19.8241L48.8341 19.4775L47.4219 15.4771H48.3957L49.2462 18.2044Z" fill="#878E9B"/>
<path d="M56.5747 18.2358H54.4774L54.039 19.4958H53.0625L55.1074 14.083H55.95L57.9975 19.4958H57.0157L56.5747 18.2358ZM54.7425 17.4771H56.3122L55.5274 15.2328L54.7425 17.4771Z" fill="#878E9B"/>
<path d="M59.1903 15.4744L59.2166 15.939C59.5132 15.5794 59.9043 15.4009 60.3873 15.4009C61.2247 15.4009 61.65 15.8813 61.6657 16.8394V19.4959H60.7627V16.8893C60.7627 16.6346 60.7076 16.4456 60.5974 16.3223C60.4871 16.1989 60.306 16.1385 60.0566 16.1385C59.6917 16.1385 59.4213 16.3039 59.2428 16.632V19.4933H58.3398V15.4718H59.1903V15.4744Z" fill="#878E9B"/>
<path d="M62.4258 17.4564C62.4258 16.8369 62.5702 16.3381 62.8563 15.9627C63.1424 15.5874 63.5283 15.3984 64.0113 15.3984C64.4365 15.3984 64.783 15.548 65.0455 15.8446V13.7866H65.9485V19.496H65.1295L65.0849 19.0786C64.8145 19.4067 64.4549 19.5695 64.0034 19.5695C63.5335 19.5695 63.1503 19.3805 62.8615 18.9999C62.5728 18.6245 62.4258 18.1074 62.4258 17.4564ZM63.3288 17.5351C63.3288 17.9446 63.4075 18.2622 63.565 18.4932C63.7225 18.7242 63.9457 18.8371 64.237 18.8371C64.6072 18.8371 64.8775 18.6717 65.0482 18.3436V16.6269C64.8828 16.304 64.615 16.1439 64.2449 16.1439C63.9535 16.1439 63.7278 16.2594 63.5677 16.4904C63.4075 16.7214 63.3288 17.0679 63.3288 17.5351Z" fill="#878E9B"/>
<path d="M68.6702 19.572C68.098 19.572 67.6333 19.3909 67.279 19.0313C66.9246 18.6716 66.7461 18.1913 66.7461 17.5901V17.4773C66.7461 17.0756 66.8222 16.716 66.9771 16.401C67.132 16.086 67.3498 15.8393 67.6281 15.6634C67.909 15.4875 68.2214 15.4009 68.5652 15.4009C69.1139 15.4009 69.5365 15.5768 69.8357 15.9259C70.135 16.275 70.2846 16.7685 70.2846 17.409V17.7739H67.657C67.6832 18.1046 67.7961 18.3698 67.9904 18.5614C68.1846 18.753 68.4287 18.8501 68.7253 18.8501C69.1401 18.8501 69.4761 18.6821 69.736 18.3488L70.2216 18.8134C70.0615 19.0549 69.8462 19.2413 69.5758 19.3725C69.3055 19.5038 69.0062 19.572 68.6702 19.572ZM68.5626 16.1254C68.3158 16.1254 68.1137 16.212 67.9615 16.3853C67.8092 16.5585 67.7121 16.8 67.6701 17.1098H69.3921V17.0441C69.3711 16.7423 69.2923 16.5139 69.1506 16.359C69.0088 16.2041 68.8146 16.1254 68.5626 16.1254Z" fill="#878E9B"/>
<path d="M73.0981 16.3013C72.98 16.2803 72.8566 16.2724 72.7306 16.2724C72.3159 16.2724 72.0376 16.4299 71.8932 16.7475V19.4985H70.9902V15.477H71.8539L71.8749 15.9259C72.0927 15.5768 72.3946 15.4009 72.7831 15.4009C72.9117 15.4009 73.0194 15.4193 73.1034 15.4534L73.0981 16.3013Z" fill="#878E9B"/>
<path d="M75.9308 18.4039C75.9308 18.2438 75.8652 18.1204 75.7313 18.0364C75.6001 17.9524 75.3796 17.8789 75.0724 17.8133C74.7653 17.7476 74.5081 17.6663 74.3033 17.5665C73.8518 17.3486 73.6261 17.0336 73.6261 16.6189C73.6261 16.2724 73.7731 15.981 74.0644 15.75C74.3558 15.5164 74.7286 15.4009 75.1801 15.4009C75.6604 15.4009 76.0489 15.519 76.3456 15.7579C76.6422 15.9968 76.7892 16.3039 76.7892 16.6845H75.8862C75.8862 16.5113 75.8206 16.3669 75.6919 16.2514C75.5633 16.1359 75.3927 16.0781 75.1774 16.0781C74.9806 16.0781 74.8178 16.1228 74.6918 16.2146C74.5658 16.3065 74.5054 16.4299 74.5054 16.5821C74.5054 16.7213 74.5632 16.8289 74.6813 16.905C74.7968 16.9811 75.0331 17.0599 75.3874 17.136C75.7418 17.2148 76.0201 17.3066 76.2222 17.4143C76.4243 17.5219 76.5739 17.6505 76.6711 17.8028C76.7682 17.955 76.8181 18.1388 76.8181 18.354C76.8181 18.7163 76.6684 19.0103 76.3692 19.2334C76.0699 19.4565 75.6762 19.5694 75.1906 19.5694C74.8598 19.5694 74.5684 19.509 74.3086 19.3909C74.0513 19.2728 73.8492 19.1074 73.7074 18.9C73.5631 18.6926 73.4922 18.4669 73.4922 18.228H74.3689C74.3821 18.4406 74.4608 18.606 74.6104 18.7215C74.7601 18.837 74.9569 18.8948 75.2011 18.8948C75.4399 18.8948 75.6184 18.8501 75.7444 18.7583C75.8678 18.669 75.9308 18.5509 75.9308 18.4039Z" fill="#878E9B"/>
<path d="M79.3831 19.572C78.8109 19.572 78.3462 19.3909 77.9919 19.0313C77.6375 18.6716 77.459 18.1913 77.459 17.5901V17.4773C77.459 17.0756 77.5351 16.716 77.69 16.401C77.8449 16.086 78.0627 15.8393 78.341 15.6634C78.6219 15.4875 78.9342 15.4009 79.2781 15.4009C79.8267 15.4009 80.2494 15.5768 80.5486 15.9259C80.8479 16.275 80.9975 16.7685 80.9975 17.409V17.7739H78.3699C78.3961 18.1046 78.509 18.3698 78.7032 18.5614C78.8975 18.753 79.1416 18.8501 79.4382 18.8501C79.853 18.8501 80.189 18.6821 80.4489 18.3488L80.9345 18.8134C80.7744 19.0549 80.5591 19.2413 80.2887 19.3725C80.0184 19.5038 79.7191 19.572 79.3831 19.572ZM79.2755 16.1254C79.0287 16.1254 78.8266 16.212 78.6744 16.3853C78.5221 16.5585 78.425 16.8 78.383 17.1098H80.105V17.0441C80.084 16.7423 80.0052 16.5139 79.8635 16.359C79.7217 16.2041 79.5275 16.1254 79.2755 16.1254Z" fill="#878E9B"/>
<path d="M82.5419 15.4744L82.5682 15.939C82.8648 15.5794 83.2559 15.4009 83.7389 15.4009C84.5763 15.4009 85.0015 15.8813 85.0173 16.8394V19.4959H84.1143V16.8893C84.1143 16.6346 84.0592 16.4456 83.9489 16.3223C83.8387 16.1989 83.6575 16.1385 83.4082 16.1385C83.0433 16.1385 82.7729 16.3039 82.5944 16.632V19.4933H81.6914V15.4718H82.5419V15.4744Z" fill="#878E9B"/>
<path d="M27.3432 7.29252H21.9199V0.743144C21.9199 0.619769 22.0197 0.52002 22.143 0.52002H27.12C27.2434 0.52002 27.3432 0.619769 27.3432 0.743144V7.29252Z" fill="#878E9B"/>
<path d="M16.2836 5.94327H5.65234V0.52002H16.2836C16.407 0.52002 16.5067 0.619769 16.5067 0.743144V5.72014C16.5067 5.84352 16.407 5.94327 16.2836 5.94327Z" fill="#878E9B"/>
<path d="M16.2731 19.496H5.65234V14.0728H16.2731C16.3965 14.0728 16.4962 14.1725 16.4962 14.2959V19.2729C16.4962 19.3963 16.3965 19.496 16.2731 19.496Z" fill="#878E9B"/>
<path d="M37.9658 5.94327H32.9887C32.8654 5.94327 32.7656 5.84352 32.7656 5.72014V0.743144C32.7656 0.619769 32.8654 0.52002 32.9887 0.52002H37.9658C38.0891 0.52002 38.1889 0.619769 38.1889 0.743144V5.72014C38.1889 5.84352 38.0891 5.94327 37.9658 5.94327Z" fill="#363B43"/>
<path d="M37.9658 19.496H32.9887C32.8654 19.496 32.7656 19.3963 32.7656 19.2729V12.7183H38.1889V19.2729C38.1889 19.3963 38.0891 19.496 37.9658 19.496Z" fill="#878E9B"/>
<path d="M5.65234 7.29785H37.9661C38.0895 7.29785 38.1892 7.3976 38.1892 7.52098V12.7211H5.65234V7.29785Z" fill="#FFDB00"/>
<path d="M27.12 19.496H22.143C22.0197 19.496 21.9199 19.3963 21.9199 19.2729V14.2959C21.9199 14.1725 22.0197 14.0728 22.143 14.0728H27.12C27.2434 14.0728 27.3432 14.1725 27.3432 14.2959V19.2729C27.3432 19.3963 27.2434 19.496 27.12 19.496Z" fill="#363B43"/>
<path d="M5.65176 19.4961H0.45164C0.328265 19.4961 0.228516 19.3964 0.228516 19.273V0.743144C0.228516 0.619769 0.328265 0.52002 0.45164 0.52002H5.65176V19.4961Z" fill="#363B43"/>
<path d="M65.4671 0.748515V11.1566C65.4671 11.28 65.3673 11.3798 65.2439 11.3798H62.5638C62.4982 11.3798 62.4352 11.3509 62.3932 11.301L58.335 6.45002V11.1566C58.335 11.28 58.2352 11.3798 58.1118 11.3798H54.9907C54.8673 11.3798 54.7676 11.28 54.7676 11.1566V0.748515C54.7676 0.62514 54.8673 0.525391 54.9907 0.525391H57.6708C57.7365 0.525391 57.7995 0.554266 57.8415 0.604141L61.8997 5.45514V0.748515C61.8997 0.62514 61.9994 0.525391 62.1228 0.525391H65.2439C65.3673 0.525391 65.4671 0.62514 65.4671 0.748515Z" fill="#363B43"/>
<path d="M97.8278 5.65713H100.56C100.684 5.65713 100.784 5.75688 100.784 5.88025V10.1249C100.784 10.201 100.747 10.2719 100.684 10.3139C100.064 10.726 99.3529 11.0436 98.5497 11.2694C97.7018 11.5083 96.8697 11.6264 96.0533 11.6264C94.8957 11.6264 93.8562 11.3849 92.9374 10.9045C92.0161 10.4241 91.2968 9.75213 90.7744 8.8885C90.2521 8.02488 89.9922 7.04575 89.9922 5.95113C89.9922 4.8565 90.2521 3.87475 90.7744 3.01375C91.2968 2.15013 92.0266 1.47813 92.9611 0.997754C93.8982 0.517379 94.9534 0.275879 96.1321 0.275879C97.1978 0.275879 98.1507 0.454377 98.9933 0.811377C99.7651 1.13688 100.416 1.6015 100.952 2.2C101.033 2.29188 101.022 2.43363 100.931 2.515L98.9198 4.28688C98.8279 4.36825 98.6914 4.35775 98.6074 4.2685C97.9564 3.58075 97.1952 3.2395 96.3211 3.2395C95.5152 3.2395 94.8747 3.481 94.3996 3.96925C93.9244 4.45488 93.6856 5.11638 93.6856 5.95375C93.6856 6.77013 93.9218 7.42638 94.3917 7.9225C94.8616 8.41863 95.4889 8.668 96.2764 8.668C96.7411 8.668 97.1873 8.58138 97.6099 8.4055V5.8855C97.6047 5.75688 97.7044 5.65713 97.8278 5.65713Z" fill="#363B43"/>
<path d="M125.842 0.533203H129.055C129.179 0.533203 129.278 0.632953 129.278 0.756328V11.1645C129.278 11.2878 129.179 11.3876 129.055 11.3876H125.842C125.719 11.3876 125.619 11.2878 125.619 11.1645V0.756328C125.619 0.632953 125.719 0.533203 125.842 0.533203Z" fill="#363B43"/>
<path d="M133.652 10.9152C132.731 10.4349 132.012 9.76287 131.489 8.89925C130.967 8.03562 130.707 7.0565 130.707 5.96187C130.707 4.86725 130.967 3.8855 131.489 3.0245C132.012 2.16087 132.734 1.48887 133.652 1.0085C134.571 0.528121 135.605 0.286621 136.752 0.286621C137.808 0.286621 138.747 0.472997 139.574 0.845747C140.336 1.187 140.973 1.67 141.488 2.29212C141.564 2.384 141.551 2.52312 141.462 2.60187L139.482 4.3685C139.388 4.4525 139.246 4.43937 139.162 4.34487C138.524 3.61512 137.781 3.25025 136.936 3.25025C136.172 3.25025 135.555 3.497 135.091 3.98787C134.626 4.47875 134.393 5.13762 134.393 5.9645C134.393 6.79137 134.626 7.45025 135.091 7.94112C135.555 8.432 136.172 8.67875 136.936 8.67875C137.781 8.67875 138.522 8.31387 139.162 7.58412C139.246 7.48962 139.388 7.4765 139.482 7.5605L141.462 9.32712C141.551 9.40587 141.564 9.545 141.488 9.63687C140.973 10.259 140.333 10.7394 139.574 11.0832C138.747 11.456 137.808 11.6424 136.752 11.6424C135.605 11.6371 134.571 11.3956 133.652 10.9152Z" fill="#363B43"/>
<path d="M111.986 3.00339V0.748515C111.986 0.62514 111.886 0.525391 111.763 0.525391H103.184C103.061 0.525391 102.961 0.62514 102.961 0.748515V11.1566C102.961 11.28 103.061 11.3798 103.184 11.3798H111.763C111.886 11.3798 111.986 11.28 111.986 11.1566V8.92276C111.986 8.79939 111.886 8.69964 111.763 8.69964H106.56V7.26376H110.925C111.049 7.26376 111.148 7.16402 111.148 7.04064V4.85139C111.148 4.72802 111.049 4.62826 110.925 4.62826H106.56V3.22652H111.763C111.886 3.22652 111.986 3.12677 111.986 3.00339Z" fill="#363B43"/>
<path d="M76.6497 3.00339V0.748515C76.6497 0.62514 76.55 0.525391 76.4266 0.525391H67.8481C67.7248 0.525391 67.625 0.62514 67.625 0.748515V11.1566C67.625 11.28 67.7248 11.3798 67.8481 11.3798H76.4266C76.55 11.3798 76.6497 11.28 76.6497 11.1566V8.92276C76.6497 8.79939 76.55 8.69964 76.4266 8.69964H71.2239V7.26376H75.5892C75.7126 7.26376 75.8124 7.16402 75.8124 7.04064V4.85139C75.8124 4.72802 75.7126 4.62826 75.5892 4.62826H71.2239V3.22652H76.4266C76.55 3.22652 76.6497 3.12677 76.6497 3.00339Z" fill="#363B43"/>
<path d="M52.6341 3.00339V0.748515C52.6341 0.62514 52.5344 0.525391 52.411 0.525391H43.8325C43.7091 0.525391 43.6094 0.62514 43.6094 0.748515V11.1566C43.6094 11.28 43.7091 11.3798 43.8325 11.3798H52.411C52.5344 11.3798 52.6341 11.28 52.6341 11.1566V8.92276C52.6341 8.79939 52.5344 8.69964 52.411 8.69964H47.2082V7.26376H51.5736C51.697 7.26376 51.7967 7.16402 51.7967 7.04064V4.85139C51.7967 4.72802 51.697 4.62826 51.5736 4.62826H47.2082V3.22652H52.411C52.5344 3.22652 52.6341 3.12677 52.6341 3.00339Z" fill="#363B43"/>
<path d="M123.567 0.514648H113.997C113.873 0.514648 113.773 0.614398 113.773 0.737773V3.00052C113.773 3.1239 113.873 3.22365 113.997 3.22365H116.952V11.1459C116.952 11.2693 117.052 11.369 117.175 11.369H120.388C120.512 11.369 120.612 11.2693 120.612 11.1459V3.22627H123.567C123.691 3.22627 123.79 3.12652 123.79 3.00315V0.740399C123.79 0.614399 123.691 0.514648 123.567 0.514648Z" fill="#363B43"/>
<path d="M88.9374 11.0149L86.9056 8.03027C87.5671 7.68902 88.0737 7.22964 88.4255 6.64952C88.7772 6.07202 88.9531 5.39476 88.9531 4.61776C88.9531 3.79089 88.751 3.06639 88.3494 2.44689C87.9451 1.82739 87.3729 1.35227 86.6274 1.02152C85.8819 0.690765 85.0078 0.525391 84.0076 0.525391H79.0149C78.8863 0.525391 78.7812 0.63039 78.7812 0.759015V11.1488C78.7812 11.2774 78.8863 11.3824 79.0149 11.3824H82.2095C82.3381 11.3824 82.4431 11.2774 82.4431 11.1488V8.70227H83.4354L85.2125 11.28C85.2545 11.343 85.328 11.3824 85.4041 11.3824H88.7484C88.9321 11.3798 89.0424 11.1698 88.9374 11.0149ZM84.8634 5.59427C84.5956 5.83314 84.1966 5.95127 83.6638 5.95127H82.4379V3.22126H83.6638C84.1966 3.22126 84.5956 3.34202 84.8634 3.57827C85.1285 3.81714 85.2624 4.15314 85.2624 4.58364C85.2624 5.01939 85.1285 5.35539 84.8634 5.59427Z" fill="#363B43"/>
<path d="M157.398 10.2877C156.469 9.38733 156.002 8.12733 156.002 6.50508V0.756328C156.002 0.632953 156.102 0.533203 156.225 0.533203H159.438C159.561 0.533203 159.661 0.632953 159.661 0.756328V6.39483C159.661 7.1902 159.803 7.77033 160.089 8.13258C160.373 8.49483 160.785 8.67595 161.323 8.67595C161.861 8.67595 162.27 8.49483 162.557 8.13258C162.84 7.77033 162.984 7.19283 162.984 6.39483V0.756328C162.984 0.632953 163.084 0.533203 163.208 0.533203H166.358C166.481 0.533203 166.581 0.632953 166.581 0.756328V6.50245C166.581 8.1247 166.116 9.38733 165.184 10.2851C164.255 11.1828 162.956 11.6343 161.291 11.6343C159.627 11.6343 158.33 11.1855 157.398 10.2877Z" fill="#878E9B"/>
<path d="M178.786 6.75164C179.138 7.20577 179.313 7.7544 179.313 8.39489C179.313 9.34514 178.92 10.0828 178.135 10.6051C177.35 11.1275 176.213 11.3874 174.722 11.3874H168.834C168.711 11.3874 168.611 11.2876 168.611 11.1643V0.758769C168.611 0.635394 168.711 0.535645 168.834 0.535645H174.41C175.856 0.535645 176.951 0.795519 177.689 1.31264C178.426 1.82977 178.796 2.51752 178.796 3.37589C178.796 3.88252 178.67 4.33664 178.416 4.74089C178.161 5.14514 177.788 5.47064 177.292 5.71739C177.938 5.95102 178.434 6.29752 178.786 6.75164ZM172.21 3.09239V4.70414H173.916C174.712 4.70414 175.111 4.43639 175.111 3.89827C175.111 3.36014 174.712 3.09239 173.916 3.09239H172.21ZM175.623 7.97752C175.623 7.41052 175.218 7.12439 174.413 7.12439H172.21V8.83064H174.413C175.218 8.83064 175.623 8.54714 175.623 7.97752Z" fill="#878E9B"/>
<path d="M150.308 0.756328V4.45233H146.927V0.756328C146.927 0.632953 146.827 0.533203 146.704 0.533203H143.491C143.367 0.533203 143.268 0.632953 143.268 0.756328V11.1645C143.268 11.2878 143.367 11.3876 143.491 11.3876H146.704C146.827 11.3876 146.927 11.2878 146.927 11.1645V7.45533H150.308V11.1645C150.308 11.2878 150.408 11.3876 150.531 11.3876H153.744C153.867 11.3876 153.967 11.2878 153.967 11.1645V0.756328C153.967 0.632953 153.867 0.533203 153.744 0.533203H150.531C150.408 0.533203 150.308 0.632953 150.308 0.756328Z" fill="#878E9B"/>
</svg>
