<svg width="70" height="71" viewBox="0 0 70 71" fill="none" xmlns="http://www.w3.org/2000/svg">
<path d="M62.5771 59.5801H7.42359C6.69272 59.5791 5.99207 59.2883 5.47531 58.7714C4.95855 58.2546 4.66786 57.5539 4.66699 56.823V44.1045C4.66786 43.3736 4.95855 42.6729 5.47531 42.1561C5.99207 41.6392 6.69272 41.3484 7.42359 41.3474H62.5771C63.3079 41.3484 64.0086 41.6392 64.5253 42.1561C65.0421 42.6729 65.3328 43.3736 65.3337 44.1045V56.823C65.3328 57.5539 65.0421 58.2546 64.5253 58.7714C64.0086 59.2883 63.3079 59.5791 62.5771 59.5801ZM7.42359 42.2807C6.94014 42.2814 6.47667 42.4737 6.13487 42.8156C5.79306 43.1575 5.60082 43.621 5.60033 44.1045V56.823C5.60082 57.3065 5.79306 57.77 6.13487 58.1119C6.47667 58.4538 6.94014 58.6461 7.42359 58.6467H62.5771C63.0605 58.6461 63.524 58.4538 63.8658 58.1119C64.2076 57.77 64.3998 57.3065 64.4003 56.823V44.1045C64.3998 43.621 64.2076 43.1575 63.8658 42.8156C63.524 42.4737 63.0605 42.2814 62.5771 42.2807H7.42359Z" fill="black"/>
<path d="M19.6527 63.0637H12.536C12.4122 63.0637 12.2935 63.0146 12.206 62.927C12.1185 62.8395 12.0693 62.7208 12.0693 62.5971V59.1134C12.0693 58.9896 12.1185 58.8709 12.206 58.7834C12.2935 58.6959 12.4122 58.6467 12.536 58.6467H19.6527C19.7764 58.6467 19.8951 58.6959 19.9827 58.7834C20.0702 58.8709 20.1193 58.9896 20.1193 59.1134V62.5994C20.1187 62.7228 20.0693 62.8409 19.9818 62.9279C19.8944 63.0149 19.776 63.0637 19.6527 63.0637ZM13.0027 62.1304H19.186V59.5801H13.0027V62.1304Z" fill="black"/>
<path d="M57.4642 63.0637H50.3475C50.2238 63.0637 50.1051 63.0146 50.0175 62.927C49.93 62.8395 49.8809 62.7208 49.8809 62.5971V59.1134C49.8809 58.9896 49.93 58.8709 50.0175 58.7834C50.1051 58.6959 50.2238 58.6467 50.3475 58.6467H57.4642C57.588 58.6467 57.7067 58.6959 57.7942 58.7834C57.8817 58.8709 57.9309 58.9896 57.9309 59.1134V62.5994C57.9302 62.7228 57.8808 62.8409 57.7933 62.9279C57.7059 63.0149 57.5876 63.0637 57.4642 63.0637ZM50.8142 62.1304H56.9975V59.5801H50.8142V62.1304Z" fill="black"/>
<path d="M57.3901 42.283H52.1266C52.063 42.2831 52.0001 42.2702 51.9417 42.2452C51.8834 42.2201 51.8307 42.1834 51.787 42.1372C51.7433 42.0911 51.7095 42.0365 51.6876 41.9768C51.6658 41.9172 51.6564 41.8537 51.6599 41.7902L52.8779 20.1691C52.88 20.1075 52.8945 20.047 52.9207 19.9911C52.9468 19.9353 52.984 19.8854 53.0299 19.8443C53.0759 19.8033 53.1297 19.772 53.1881 19.7523C53.2466 19.7327 53.3083 19.7251 53.3698 19.73C53.431 19.7334 53.4909 19.7489 53.5461 19.7755C53.6013 19.8021 53.6507 19.8393 53.6916 19.8851C53.7324 19.9308 53.7638 19.9841 53.784 20.042C53.8042 20.0998 53.8128 20.1611 53.8094 20.2223L52.6194 41.3497H56.8954L55.7008 20.2265C55.6938 20.1027 55.7362 19.9812 55.8188 19.8888C55.9014 19.7963 56.0173 19.7404 56.1411 19.7335C56.2648 19.7265 56.3863 19.7689 56.4788 19.8515C56.5712 19.9341 56.6271 20.05 56.6341 20.1738L57.8572 41.7902C57.8608 41.8537 57.8514 41.9172 57.8295 41.9768C57.8077 42.0365 57.7738 42.0911 57.7301 42.1372C57.6865 42.1834 57.6338 42.2201 57.5754 42.2452C57.517 42.2702 57.4541 42.2831 57.3906 42.283H57.3901Z" fill="black"/>
<path d="M47.782 11.7545C47.6897 11.7545 47.5995 11.7271 47.5228 11.6758C47.4461 11.6245 47.3863 11.5517 47.3509 11.4664C47.3156 11.3812 47.3064 11.2873 47.3244 11.1968C47.3424 11.1063 47.3868 11.0232 47.4521 10.9579C49.3911 9.02312 52.0185 7.93652 54.7577 7.93652C57.497 7.93652 60.1243 9.02312 62.0634 10.9579C62.1484 11.0459 62.1954 11.1638 62.1944 11.2862C62.1933 11.4085 62.1442 11.5256 62.0577 11.6121C61.9712 11.6986 61.8541 11.7477 61.7318 11.7488C61.6094 11.7498 61.4915 11.7028 61.4035 11.6178C59.6394 9.85807 57.2494 8.86985 54.7577 8.86985C52.266 8.86985 49.876 9.85807 48.1119 11.6178C48.0244 11.7053 47.9058 11.7545 47.782 11.7545Z" fill="black"/>
<path d="M59.0935 14.3941C59.0322 14.3943 58.9714 14.3823 58.9148 14.3588C58.8582 14.3353 58.8068 14.3009 58.7635 14.2574C57.7001 13.1968 56.2595 12.6013 54.7577 12.6013C53.2558 12.6013 51.8152 13.1968 50.7518 14.2574C50.6638 14.3424 50.5459 14.3894 50.4235 14.3884C50.3012 14.3873 50.1841 14.3382 50.0976 14.2517C50.0111 14.1652 49.962 14.0481 49.961 13.9258C49.9599 13.8034 50.0069 13.6855 50.0919 13.5975C51.3304 12.3613 53.0088 11.667 54.7586 11.667C56.5085 11.667 58.1868 12.3613 59.4253 13.5975C59.4905 13.6628 59.535 13.7459 59.553 13.8364C59.5709 13.9269 59.5617 14.0208 59.5264 14.106C59.4911 14.1913 59.4313 14.2642 59.3546 14.3154C59.2778 14.3667 59.1876 14.3941 59.0953 14.3941H59.0935Z" fill="black"/>
<path d="M54.7579 21.1289C54.1912 21.1289 53.6372 20.9608 53.166 20.646C52.6948 20.3311 52.3276 19.8836 52.1107 19.36C51.8938 18.8365 51.8371 18.2603 51.9476 17.7045C52.0582 17.1487 52.3311 16.6382 52.7318 16.2374C53.1325 15.8367 53.6431 15.5638 54.1989 15.4533C54.7547 15.3427 55.3308 15.3994 55.8544 15.6163C56.378 15.8332 56.8255 16.2004 57.1403 16.6716C57.4552 17.1428 57.6232 17.6968 57.6232 18.2635C57.6225 19.0232 57.3204 19.7516 56.7832 20.2888C56.246 20.826 55.5176 21.1281 54.7579 21.1289Z" fill="#FEDD15"/>
<path d="M17.8735 42.2829H12.61C12.5464 42.283 12.4835 42.2701 12.4251 42.245C12.3668 42.2199 12.3141 42.1832 12.2704 42.1371C12.2267 42.0909 12.1929 42.0364 12.171 41.9767C12.1492 41.917 12.1398 41.8535 12.1433 41.7901L13.3613 20.1689C13.3629 20.1071 13.377 20.0464 13.403 19.9903C13.429 19.9342 13.4661 19.8841 13.5122 19.8429C13.5583 19.8018 13.6123 19.7705 13.671 19.751C13.7296 19.7316 13.7916 19.7243 13.8532 19.7298C13.9144 19.7332 13.9743 19.7487 14.0295 19.7753C14.0847 19.8019 14.1341 19.8392 14.175 19.8849C14.2158 19.9306 14.2472 19.9839 14.2674 20.0418C14.2876 20.0996 14.2962 20.1609 14.2928 20.2221L13.1028 41.3495H17.3788L16.1856 20.2263C16.1787 20.1029 16.2211 19.9818 16.3034 19.8896C16.3857 19.7973 16.5013 19.7416 16.6247 19.7344C16.7476 19.7299 16.8675 19.773 16.9593 19.8549C17.0511 19.9368 17.1076 20.051 17.117 20.1736L18.3402 41.7901C18.3437 41.8535 18.3343 41.917 18.3124 41.9767C18.2906 42.0364 18.2568 42.0909 18.2131 42.1371C18.1694 42.1832 18.1167 42.2199 18.0583 42.245C18 42.2701 17.9371 42.283 17.8735 42.2829Z" fill="black"/>
<path d="M8.26637 11.7545C8.17409 11.7545 8.08388 11.7271 8.00716 11.6758C7.93043 11.6245 7.87063 11.5517 7.83532 11.4664C7.80001 11.3812 7.79077 11.2873 7.80877 11.1968C7.82676 11.1063 7.87119 11.0232 7.93644 10.9579C9.8755 9.02312 12.5029 7.93652 15.2421 7.93652C17.9813 7.93652 20.6087 9.02312 22.5478 10.9579C22.6352 11.0455 22.6843 11.1643 22.6841 11.2881C22.684 11.4119 22.6347 11.5306 22.5471 11.618C22.4594 11.7054 22.3407 11.7545 22.2169 11.7544C22.0931 11.7542 21.9744 11.7049 21.887 11.6173C20.1229 9.8576 17.7329 8.86938 15.2412 8.86938C12.7495 8.86938 10.3595 9.8576 8.59537 11.6173C8.5523 11.6608 8.50106 11.6953 8.44459 11.7188C8.38812 11.7424 8.32755 11.7545 8.26637 11.7545Z" fill="black"/>
<path d="M19.5778 14.3941C19.5165 14.3943 19.4558 14.3823 19.3992 14.3588C19.3425 14.3353 19.2911 14.3009 19.2479 14.2574C18.1845 13.1968 16.7439 12.6013 15.242 12.6013C13.7402 12.6013 12.2996 13.1968 11.2362 14.2574C11.1482 14.3424 11.0303 14.3894 10.9079 14.3884C10.7856 14.3873 10.6685 14.3382 10.582 14.2517C10.4955 14.1652 10.4464 14.0481 10.4453 13.9258C10.4443 13.8034 10.4913 13.6855 10.5763 13.5975C11.8148 12.3613 13.4931 11.667 15.243 11.667C16.9928 11.667 18.6712 12.3613 19.9096 13.5975C19.9749 13.6628 20.0193 13.7459 20.0373 13.8364C20.0553 13.9269 20.0461 14.0208 20.0108 14.106C19.9754 14.1913 19.9157 14.2642 19.8389 14.3154C19.7622 14.3667 19.672 14.3941 19.5797 14.3941H19.5778Z" fill="black"/>
<path d="M15.2423 21.1289C14.6756 21.1289 14.1216 20.9608 13.6504 20.646C13.1792 20.3311 12.8119 19.8836 12.5951 19.36C12.3782 18.8365 12.3215 18.2603 12.432 17.7045C12.5426 17.1487 12.8155 16.6382 13.2162 16.2374C13.6169 15.8367 14.1275 15.5638 14.6833 15.4533C15.2391 15.3427 15.8152 15.3994 16.3388 15.6163C16.8624 15.8332 17.3099 16.2004 17.6247 16.6716C17.9396 17.1428 18.1076 17.6968 18.1076 18.2635C18.1069 19.0232 17.8048 19.7516 17.2676 20.2888C16.7304 20.826 16.002 21.1281 15.2423 21.1289Z" fill="#FEDD15"/>
<path d="M12.6099 53.8472C11.9407 53.8472 11.2866 53.6488 10.7302 53.277C10.1738 52.9053 9.74018 52.3769 9.4841 51.7586C9.22803 51.1404 9.16103 50.4601 9.29157 49.8038C9.42212 49.1475 9.74435 48.5447 10.2175 48.0715C10.6907 47.5984 11.2935 47.2761 11.9498 47.1456C12.6061 47.015 13.2864 47.082 13.9046 47.3381C14.5229 47.5942 15.0513 48.0278 15.423 48.5842C15.7948 49.1406 15.9932 49.7947 15.9932 50.4639C15.9924 51.361 15.6356 52.221 15.0013 52.8553C14.367 53.4896 13.5069 53.8464 12.6099 53.8472Z" fill="#FEDD15"/>
<path d="M23.1509 53.8472C22.4818 53.8472 21.8276 53.6488 21.2712 53.277C20.7148 52.9053 20.2812 52.3769 20.0251 51.7586C19.769 51.1404 19.702 50.4601 19.8326 49.8038C19.9631 49.1475 20.2854 48.5447 20.7585 48.0715C21.2317 47.5984 21.8346 47.2761 22.4909 47.1456C23.1472 47.015 23.8274 47.082 24.4457 47.3381C25.0639 47.5942 25.5923 48.0278 25.9641 48.5842C26.3358 49.1406 26.5343 49.7947 26.5343 50.4639C26.5333 51.3609 26.1765 52.2209 25.5422 52.8552C24.9079 53.4895 24.0479 53.8462 23.1509 53.8472Z" fill="#FEDD15"/>
</svg>
