<svg width="40" height="40" viewBox="0 0 40 40" fill="none" xmlns="http://www.w3.org/2000/svg">
<path d="M9.70998 11.1001C7.90998 13.5001 6.84998 16.4801 6.84998 19.7101V25.3801H9.17997" stroke="#222220" stroke-width="0.5"/>
<path d="M33.4 25.3801H35.63V19.7101C35.63 11.7601 29.19 5.32007 21.24 5.32007C21.15 5.32007 21.06 5.32007 20.97 5.32007" stroke="#222220" stroke-width="0.5"/>
<path d="M9.17993 23.8801V22.1501C9.17993 21.0001 10.1099 20.0701 11.2599 20.0701C12.4099 20.0701 13.3399 21.0001 13.3399 22.1501V28.5501C13.3399 29.7001 12.4099 30.6301 11.2599 30.6301C10.1099 30.6301 9.17993 29.7001 9.17993 28.5501V26.8801V23.8801Z" stroke="#222220" stroke-width="0.5"/>
<path d="M33.4 23.8801V22.1501C33.4 21.0001 32.47 20.0701 31.32 20.0701C30.17 20.0701 29.24 21.0001 29.24 22.1501V28.5501C29.24 29.7001 30.17 30.6301 31.32 30.6301C32.47 30.6301 33.4 29.7001 33.4 28.5501V26.8801V23.8801Z" stroke="#222220" stroke-width="0.5"/>
<path d="M33.4 28.5801C33.4 33.5501 29.37 37.5801 24.4 37.5801" stroke="#222220" stroke-width="0.5"/>
<path d="M21.58 39.0001H24.41V36.1201H21.58C20.79 36.1201 20.14 36.7601 20.14 37.5601C20.14 38.3501 20.78 39.0001 21.58 39.0001Z" stroke="#222220" stroke-width="0.5"/>
<path d="M6.16 1H19.18C20.17 1 20.97 1.8 20.97 2.79V9.34C20.97 10.33 20.17 11.13 19.18 11.13H19.17V15L15.35 11.12H6.16C5.17 11.12 4.37 10.32 4.37 9.33V2.78C4.37 1.8 5.17 1 6.16 1Z" stroke="#222220" stroke-width="0.5"/>
<path d="M8.74003 7.0699C9.27022 7.0699 9.70003 6.64009 9.70003 6.1099C9.70003 5.57971 9.27022 5.1499 8.74003 5.1499C8.20983 5.1499 7.78003 5.57971 7.78003 6.1099C7.78003 6.64009 8.20983 7.0699 8.74003 7.0699Z" stroke="#222220" stroke-width="0.5"/>
<path d="M12.6701 7.0699C13.2003 7.0699 13.6301 6.64009 13.6301 6.1099C13.6301 5.57971 13.2003 5.1499 12.6701 5.1499C12.1399 5.1499 11.7101 5.57971 11.7101 6.1099C11.7101 6.64009 12.1399 7.0699 12.6701 7.0699Z" stroke="#222220" stroke-width="0.5"/>
<path d="M16.6 7.0699C17.1302 7.0699 17.56 6.64009 17.56 6.1099C17.56 5.57971 17.1302 5.1499 16.6 5.1499C16.0698 5.1499 15.64 5.57971 15.64 6.1099C15.64 6.64009 16.0698 7.0699 16.6 7.0699Z" stroke="#222220" stroke-width="0.5"/>
</svg>

