<svg width="40" height="40" viewBox="0 0 40 40" fill="none" xmlns="http://www.w3.org/2000/svg">
<path d="M6.70996 27.2402V25.4802C6.70996 23.5202 8.29996 21.9202 10.26 21.9202H29.74C31.7 21.9202 33.29 23.5102 33.29 25.4702V27.2302" stroke="#222220" stroke-width="0.5"/>
<path d="M20 17.1702V27.2402" stroke="#222220" stroke-width="0.5"/>
<path d="M20 17.1401C24.0869 17.1401 27.4 13.827 27.4 9.74008C27.4 5.65317 24.0869 2.34009 20 2.34009C15.9131 2.34009 12.6 5.65317 12.6 9.74008C12.6 13.827 15.9131 17.1401 20 17.1401Z" stroke="#222220" stroke-width="0.5"/>
<path d="M20.01 10.1401C21.2471 10.1401 22.25 9.13726 22.25 7.90015C22.25 6.66303 21.2471 5.66016 20.01 5.66016C18.7729 5.66016 17.77 6.66303 17.77 7.90015C17.77 9.13726 18.7729 10.1401 20.01 10.1401Z" stroke="#222220" stroke-width="0.5"/>
<path d="M14.38 14.5501L15.33 13.1001C15.96 12.1401 16.94 11.5701 17.98 11.5701H21.98C23.01 11.5701 23.98 12.1201 24.62 13.0701L25.61 14.5501" stroke="#222220" stroke-width="0.5"/>
<path d="M6.71001 37.66C9.58741 37.66 11.92 35.3274 11.92 32.45C11.92 29.5726 9.58741 27.24 6.71001 27.24C3.8326 27.24 1.5 29.5726 1.5 32.45C1.5 35.3274 3.8326 37.66 6.71001 37.66Z" stroke="#222220" stroke-width="0.5"/>
<path d="M6.71001 32.5399C7.58262 32.5399 8.29 31.8325 8.29 30.9599C8.29 30.0873 7.58262 29.3799 6.71001 29.3799C5.8374 29.3799 5.13 30.0873 5.13 30.9599C5.13 31.8325 5.8374 32.5399 6.71001 32.5399Z" stroke="#222220" stroke-width="0.5"/>
<path d="M2.75 35.83L3.42001 34.81C3.87001 34.13 4.56 33.74 5.29 33.74H8.10001C8.83001 33.74 9.51001 34.13 9.96001 34.8L10.66 35.84" stroke="#222220" stroke-width="0.5"/>
<path d="M20 37.66C22.8774 37.66 25.21 35.3274 25.21 32.45C25.21 29.5726 22.8774 27.24 20 27.24C17.1226 27.24 14.79 29.5726 14.79 32.45C14.79 35.3274 17.1226 37.66 20 37.66Z" stroke="#222220" stroke-width="0.5"/>
<path d="M20.0101 32.5399C20.8827 32.5399 21.5901 31.8325 21.5901 30.9599C21.5901 30.0873 20.8827 29.3799 20.0101 29.3799C19.1374 29.3799 18.4301 30.0873 18.4301 30.9599C18.4301 31.8325 19.1374 32.5399 20.0101 32.5399Z" stroke="#222220" stroke-width="0.5"/>
<path d="M16.05 35.83L16.72 34.81C17.17 34.13 17.86 33.74 18.59 33.74H21.4C22.13 33.74 22.81 34.13 23.26 34.8L23.9601 35.84" stroke="#222220" stroke-width="0.5"/>
<path d="M33.3 37.65C36.1774 37.65 38.51 35.3174 38.51 32.44C38.51 29.5626 36.1774 27.23 33.3 27.23C30.4226 27.23 28.09 29.5626 28.09 32.44C28.09 35.3174 30.4226 37.65 33.3 37.65Z" stroke="#222220" stroke-width="0.5"/>
<path d="M33.3 32.5399C34.1726 32.5399 34.88 31.8325 34.88 30.9599C34.88 30.0873 34.1726 29.3799 33.3 29.3799C32.4274 29.3799 31.72 30.0873 31.72 30.9599C31.72 31.8325 32.4274 32.5399 33.3 32.5399Z" stroke="#222220" stroke-width="0.5"/>
<path d="M29.34 35.83L30.01 34.81C30.46 34.13 31.15 33.74 31.88 33.74H34.69C35.42 33.74 36.1 34.13 36.55 34.8L37.25 35.84" stroke="#222220" stroke-width="0.5"/>
</svg>
