<svg width="40" height="40" viewBox="0 0 40 40" fill="none" xmlns="http://www.w3.org/2000/svg">
<path d="M29.1401 37.5H10.9701C9.8701 37.5 8.9801 36.61 8.9801 35.51V4.5C8.9801 3.4 9.8701 2.51001 10.9701 2.51001H29.1401C30.2401 2.51001 31.1301 3.4 31.1301 4.5V35.52C31.1301 36.61 30.2401 37.5 29.1401 37.5Z" stroke="#222220" stroke-width="0.5"/>
<path d="M20.06 35.31C20.8443 35.31 21.48 34.6742 21.48 33.89C21.48 33.1057 20.8443 32.47 20.06 32.47C19.2758 32.47 18.64 33.1057 18.64 33.89C18.64 34.6742 19.2758 35.31 20.06 35.31Z" stroke="#222220" stroke-width="0.5"/>
<path d="M18.01 4.51001H21.95" stroke="#222220" stroke-width="0.5"/>
<path d="M35.8101 11.0601C37.7001 12.8001 38.9401 15.7401 38.9401 19.0801C38.9401 22.3701 37.7401 25.2701 35.9001 27.0201" stroke="#222220" stroke-width="0.5"/>
<path d="M33.5801 13.71C34.8401 14.87 35.6701 16.84 35.6701 19.07C35.6701 21.27 34.8701 23.21 33.6401 24.38" stroke="#222220" stroke-width="0.5"/>
<path d="M4.19006 27.0201C2.30006 25.2801 1.06006 22.3401 1.06006 19.0001C1.06006 15.7101 2.26006 12.8101 4.10006 11.0601" stroke="#222220" stroke-width="0.5"/>
<path d="M6.42008 24.38C5.16008 23.22 4.33008 21.25 4.33008 19.02C4.33008 16.82 5.13008 14.88 6.36008 13.71" stroke="#222220" stroke-width="0.5"/>
<path d="M19.98 25.87C23.7521 25.87 26.81 22.8121 26.81 19.04C26.81 15.2679 23.7521 12.21 19.98 12.21C16.2079 12.21 13.15 15.2679 13.15 19.04C13.15 22.8121 16.2079 25.87 19.98 25.87Z" stroke="#222220" stroke-width="0.5"/>
<path d="M19.99 19.61C21.1333 19.61 22.06 18.6832 22.06 17.54C22.06 16.3967 21.1333 15.47 19.99 15.47C18.8468 15.47 17.92 16.3967 17.92 17.54C17.92 18.6832 18.8468 19.61 19.99 19.61Z" stroke="#222220" stroke-width="0.5"/>
<path d="M14.8 23.48L15.68 22.15C16.26 21.26 17.1701 20.74 18.1301 20.74H21.82C22.77 20.74 23.67 21.25 24.25 22.12L25.16 23.49" stroke="#222220" stroke-width="0.5"/>
</svg>
