<svg width="40" height="40" viewBox="0 0 40 40" fill="none" xmlns="http://www.w3.org/2000/svg">
<path d="M24.03 19.53L29.29 14.27C31.18 14.88 33.34 14.43 34.84 12.93C36.33 11.44 36.78 9.3 36.19 7.42L32.76 10.85L29.2 7.29L32.65 3.84C30.75 3.23 28.59 3.67001 27.09 5.18001C25.6 6.67001 25.15 8.82 25.74 10.7L10.72 25.71C8.82004 25.1 6.66004 25.54 5.16004 27.05C3.66004 28.56 3.21003 30.71 3.82003 32.61L7.27004 29.16L10.83 32.72L7.40004 36.15C9.28004 36.74 11.42 36.29 12.91 34.8C14.4 33.31 14.85 31.17 14.26 29.29L19.53 24.02" stroke="#222220" stroke-width="0.5"/>
<path d="M8.25009 8.25009L8.1001 5.97009L4.11009 3.84009L3.8501 4.11009L5.97009 8.1001L8.25009 8.25009Z" stroke="#222220" stroke-width="0.5"/>
<path d="M8.25 8.25L20 19.99" stroke="#222220" stroke-width="0.5"/>
<path d="M22.25 17.75L35.51 31.01C36.75 32.25 36.75 34.26 35.51 35.51C34.27 36.75 32.26 36.75 31.01 35.51L17.75 22.25L22.25 17.75Z" stroke="#222220" stroke-width="0.5"/>
</svg>
