<svg width="70" height="70" viewBox="0 0 70 70" fill="none" xmlns="http://www.w3.org/2000/svg">
<path d="M25.8863 47.6C21.5959 47.5968 17.4027 46.3219 13.8365 43.9365C10.2703 41.5511 7.49114 38.1622 5.85021 34.198C4.20927 30.2337 3.78018 25.872 4.61715 21.664C5.45412 17.456 7.51959 13.5905 10.5526 10.5558C12.6175 8.49141 15.0777 6.86481 17.786 5.7734C20.4942 4.68198 23.3949 4.14818 26.3142 4.20396C29.2336 4.25973 32.1117 4.90393 34.7763 6.09799C37.4409 7.29206 39.8372 9.01144 41.8217 11.1532C45.5162 15.1683 47.5688 20.424 47.5732 25.8802C47.5777 31.3364 45.5337 36.5954 41.8458 40.6166C39.8686 42.7728 37.4728 44.5036 34.8047 45.7034C32.1365 46.9031 29.2518 47.5467 26.3267 47.5948C26.1796 47.5983 26.0328 47.6 25.8863 47.6ZM25.8892 5.14251C21.7848 5.14515 17.7733 6.36451 14.3618 8.64646C10.9502 10.9284 8.29178 14.1705 6.7224 17.963C5.15303 21.7555 4.74319 25.9281 5.54469 29.9535C6.34619 33.9789 8.32306 37.6763 11.2254 40.5784C13.2025 42.5551 15.5585 44.1121 18.1521 45.1559C20.7457 46.1997 23.5234 46.7088 26.3186 46.6526C29.1138 46.5964 31.8688 45.9761 34.4184 44.8289C36.968 43.6818 39.2595 42.0313 41.1555 39.9767C44.6828 36.1304 46.6377 31.1001 46.6334 25.8813C46.6292 20.6625 44.666 15.6355 41.1324 11.795C39.2388 9.73803 36.9465 8.0879 34.3949 6.94498C31.8433 5.80206 29.0859 5.19024 26.2904 5.14675C26.1551 5.14251 26.0212 5.14251 25.8892 5.14251Z" fill="black"/>
<path d="M41.7946 47.2391C41.6709 47.2391 41.5522 47.1899 41.4647 47.1024L37.9745 43.6122C37.9299 43.5691 37.8944 43.5176 37.8699 43.4607C37.8455 43.4037 37.8326 43.3425 37.832 43.2805C37.8315 43.2186 37.8433 43.1571 37.8668 43.0998C37.8902 43.0424 37.9249 42.9903 37.9687 42.9465C38.0125 42.9027 38.0646 42.868 38.122 42.8446C38.1793 42.8211 38.2408 42.8093 38.3028 42.8098C38.3647 42.8104 38.426 42.8233 38.4829 42.8477C38.5398 42.8722 38.5913 42.9077 38.6344 42.9523L41.7946 46.1121L46.1127 41.794L42.9529 38.6338C42.8679 38.5457 42.8209 38.4279 42.8219 38.3055C42.823 38.1831 42.8721 38.0661 42.9586 37.9796C43.0451 37.8931 43.1622 37.844 43.2845 37.8429C43.4069 37.8418 43.5248 37.8889 43.6128 37.9739L47.1025 41.4641C47.19 41.5516 47.2392 41.6703 47.2392 41.794C47.2392 41.9178 47.19 42.0364 47.1025 42.124L42.1246 47.1024C42.0371 47.1899 41.9184 47.2391 41.7946 47.2391Z" fill="black"/>
<path d="M57.4468 65.3287C56.7343 65.309 56.058 65.0102 55.5638 64.4966L41.232 50.1666C40.794 49.741 40.5072 49.1838 40.4153 48.58C40.3671 48.2984 40.3857 48.0094 40.4697 47.7363C40.5537 47.4632 40.7007 47.2136 40.8988 47.0078L47.0089 40.8986C47.2143 40.7001 47.4636 40.5527 47.7366 40.4684C48.0095 40.3841 48.2985 40.3652 48.5801 40.4133C49.1839 40.5052 49.7411 40.792 50.1668 41.23L64.4962 55.559C65.459 56.5213 65.6079 57.939 64.829 58.7178L58.7194 64.8279C58.551 64.9915 58.3518 65.1199 58.1333 65.2059C57.9148 65.2918 57.6815 65.3336 57.4468 65.3287ZM48.2857 41.3284C48.1727 41.3238 48.0599 41.3418 47.954 41.3813C47.8481 41.4208 47.7511 41.481 47.6687 41.5585L41.5587 47.6681C41.4635 47.7737 41.3943 47.9 41.3564 48.0369C41.3185 48.1739 41.313 48.3178 41.3403 48.4572C41.4051 48.8579 41.5987 49.2265 41.8919 49.5072L56.2213 63.8367C56.8103 64.4257 57.6521 64.5773 58.0605 64.1699L64.1701 58.0599C64.5779 57.6515 64.4258 56.8092 63.8368 56.2207L49.5079 41.8941C49.2272 41.6006 48.8583 41.4069 48.4574 41.3425C48.4006 41.3337 48.3432 41.329 48.2857 41.3284Z" fill="black"/>
<path d="M25.8955 43.4C23.0181 43.3999 20.1852 42.69 17.6477 41.3332C15.1101 39.9764 12.9463 38.0146 11.3479 35.6215C9.74949 33.2285 8.76582 30.478 8.48402 27.6139C8.20222 24.7497 8.631 21.8603 9.73237 19.2015C10.8337 16.5427 12.5737 14.1966 14.7981 12.3711C17.0226 10.5455 19.6628 9.29692 22.4849 8.73581C25.3071 8.17471 28.224 8.31844 30.9773 9.15428C33.7307 9.99011 36.2354 11.4923 38.2697 13.5276C40.7187 15.9743 42.3868 19.0927 43.063 22.4882C43.7391 25.8836 43.3928 29.4034 42.0679 32.6019C40.7429 35.8004 38.499 38.5337 35.6201 40.4559C32.7412 42.3781 29.3569 43.4027 25.8955 43.4Z" fill="#FEDD15"/>
<path d="M21.9275 34.7704C21.8352 34.7704 21.745 34.743 21.6683 34.6917C21.5916 34.6404 21.5318 34.5676 21.4965 34.4823C21.4611 34.397 21.4519 34.3032 21.4699 34.2127C21.4879 34.1222 21.5323 34.0391 21.5976 33.9738L28.6405 26.9309H22.7736C22.6813 26.9308 22.5911 26.9035 22.5144 26.8522C22.4376 26.8009 22.3778 26.728 22.3425 26.6428C22.3072 26.5575 22.298 26.4637 22.316 26.3732C22.334 26.2827 22.3784 26.1995 22.4436 26.1343L30.929 17.6479C30.9721 17.6034 31.0236 17.5678 31.0805 17.5434C31.1375 17.5189 31.1987 17.506 31.2607 17.5055C31.3226 17.5049 31.3841 17.5167 31.4414 17.5402C31.4988 17.5637 31.5509 17.5983 31.5947 17.6421C31.6385 17.686 31.6732 17.7381 31.6966 17.7954C31.7201 17.8528 31.7319 17.9142 31.7314 17.9762C31.7308 18.0381 31.7179 18.0994 31.6935 18.1563C31.669 18.2133 31.6335 18.2647 31.5889 18.3078L23.8992 25.9975H29.767C29.8593 25.9976 29.9495 26.0249 30.0263 26.0762C30.103 26.1275 30.1628 26.2004 30.1981 26.2856C30.2334 26.3709 30.2426 26.4647 30.2247 26.5552C30.2067 26.6457 30.1622 26.7289 30.097 26.7941L22.257 34.6341C22.1695 34.7214 22.051 34.7704 21.9275 34.7704Z" fill="black"/>
</svg>
