<svg width="70" height="70" viewBox="0 0 70 70" fill="none" xmlns="http://www.w3.org/2000/svg">
<path d="M42.2856 65.3328H11.3549C10.3206 65.3317 9.32892 64.9203 8.59751 64.1889C7.86611 63.4575 7.45473 62.4659 7.45361 61.4315V8.56284C7.45534 7.5291 7.86708 6.53826 8.59848 5.80774C9.32988 5.07721 10.3212 4.66666 11.3549 4.66617H42.2856C43.3193 4.66666 44.3107 5.07721 45.0421 5.80774C45.7735 6.53826 46.1852 7.5291 46.1869 8.56284V16.9908C46.1869 17.1146 46.1378 17.2333 46.0503 17.3208C45.9627 17.4083 45.844 17.4575 45.7203 17.4575C45.5965 17.4575 45.4778 17.4083 45.3903 17.3208C45.3028 17.2333 45.2536 17.1146 45.2536 16.9908V8.56284C45.2521 7.77656 44.9388 7.02298 44.3824 6.46743C43.826 5.91189 43.0719 5.59975 42.2856 5.5995H11.3549C10.5687 5.59975 9.81459 5.91189 9.25817 6.46743C8.70175 7.02298 8.38843 7.77656 8.38695 8.56284V61.4315C8.38793 62.2184 8.70095 62.9727 9.25734 63.5291C9.81374 64.0855 10.5681 64.3985 11.3549 64.3995H42.2856C43.0725 64.3985 43.8268 64.0855 44.3832 63.5291C44.9396 62.9727 45.2526 62.2184 45.2536 61.4315V41.0195C45.2536 40.8957 45.3028 40.777 45.3903 40.6895C45.4778 40.602 45.5965 40.5528 45.7203 40.5528C45.844 40.5528 45.9627 40.602 46.0503 40.6895C46.1378 40.777 46.1869 40.8957 46.1869 41.0195V61.4315C46.1858 62.4659 45.7744 63.4575 45.043 64.1889C44.3116 64.9203 43.32 65.3317 42.2856 65.3328Z" fill="black"/>
<path d="M45.7193 12.1224H7.9193C7.79554 12.1224 7.67684 12.0732 7.58932 11.9857C7.5018 11.8982 7.45264 11.7795 7.45264 11.6557C7.45264 11.532 7.5018 11.4133 7.58932 11.3257C7.67684 11.2382 7.79554 11.1891 7.9193 11.1891H45.7193C45.8431 11.1891 45.9618 11.2382 46.0493 11.3257C46.1368 11.4133 46.186 11.532 46.186 11.6557C46.186 11.7795 46.1368 11.8982 46.0493 11.9857C45.9618 12.0732 45.8431 12.1224 45.7193 12.1224Z" fill="black"/>
<path d="M45.7193 56.1021H7.9193C7.79554 56.1021 7.67684 56.0529 7.58932 55.9654C7.5018 55.8779 7.45264 55.7592 7.45264 55.6354C7.45264 55.5117 7.5018 55.393 7.58932 55.3054C7.67684 55.2179 7.79554 55.1687 7.9193 55.1687H45.7193C45.8431 55.1687 45.9618 55.2179 46.0493 55.3054C46.1368 55.393 46.186 55.5117 46.186 55.6354C46.186 55.7592 46.1368 55.8779 46.0493 55.9654C45.9618 56.0529 45.8431 56.1021 45.7193 56.1021Z" fill="black"/>
<path d="M30.4108 9.04814H23.2279C23.1041 9.04814 22.9854 8.99897 22.8979 8.91146C22.8104 8.82394 22.7612 8.70524 22.7612 8.58147C22.7612 8.45771 22.8104 8.33901 22.8979 8.25149C22.9854 8.16397 23.1041 8.11481 23.2279 8.11481H30.4108C30.5346 8.11481 30.6533 8.16397 30.7408 8.25149C30.8283 8.33901 30.8775 8.45771 30.8775 8.58147C30.8775 8.70524 30.8283 8.82394 30.7408 8.91146C30.6533 8.99897 30.5346 9.04814 30.4108 9.04814Z" fill="black"/>
<path d="M26.8222 63.2081C26.2467 63.2086 25.6841 63.0385 25.2053 62.7193C24.7266 62.4 24.3533 61.946 24.1326 61.4145C23.9119 60.8831 23.8538 60.2982 23.9656 59.7337C24.0774 59.1692 24.354 58.6506 24.7606 58.2434C25.1672 57.8362 25.6853 57.5587 26.2496 57.446C26.8139 57.3333 27.3989 57.3905 27.9307 57.6103C28.4625 57.8301 28.9172 58.2027 29.2372 58.6809C29.5572 59.1592 29.7282 59.7216 29.7286 60.297C29.7276 61.0679 29.4212 61.8071 28.8765 62.3527C28.3318 62.8983 27.5931 63.2058 26.8222 63.2081ZM26.8222 58.3235C26.4312 58.3229 26.0488 58.4384 25.7234 58.6553C25.3981 58.8721 25.1444 59.1807 24.9945 59.5418C24.8446 59.9029 24.8052 60.3004 24.8813 60.6839C24.9574 61.0675 25.1456 61.4198 25.422 61.6963C25.6985 61.9728 26.0508 62.1611 26.4343 62.2373C26.8178 62.3135 27.2153 62.2742 27.5765 62.1244C27.9376 61.9746 28.2462 61.721 28.4632 61.3957C28.6801 61.0704 28.7957 60.688 28.7952 60.297C28.794 59.774 28.5857 59.2728 28.216 58.903C27.8463 58.5332 27.3451 58.3248 26.8222 58.3235Z" fill="black"/>
<path d="M33.6684 50.4546C33.6071 50.4548 33.5463 50.4428 33.4897 50.4192C33.4044 50.3838 33.3315 50.324 33.2803 50.2472C33.229 50.1705 33.2017 50.0802 33.2017 49.988V41.4676C32.0329 41.35 30.9493 40.8029 30.1608 39.9321C29.3723 39.0613 28.935 37.9289 28.9336 36.7542V21.2632C28.935 20.0074 29.4344 18.8034 30.3224 17.9154C31.2104 17.0274 32.4144 16.5279 33.6703 16.5266H57.8123C59.0681 16.5279 60.2721 17.0274 61.16 17.9154C62.0479 18.8034 62.5473 20.0074 62.5485 21.2632V36.7542C62.5468 38.01 62.047 39.2137 61.1587 40.1013C60.2704 40.9889 59.0662 41.4878 57.8105 41.4886H42.8263L33.9983 50.3179C33.9108 50.4054 33.7922 50.4546 33.6684 50.4546Z" fill="#FEDD15"/>
<path d="M54.7608 32.5482H36.7162C36.5924 32.5482 36.4737 32.499 36.3862 32.4115C36.2987 32.324 36.2495 32.2053 36.2495 32.0815C36.2495 31.9577 36.2987 31.839 36.3862 31.7515C36.4737 31.664 36.5924 31.6148 36.7162 31.6148H54.7608C54.8845 31.6148 55.0032 31.664 55.0908 31.7515C55.1783 31.839 55.2274 31.9577 55.2274 32.0815C55.2274 32.2053 55.1783 32.324 55.0908 32.4115C55.0032 32.499 54.8845 32.5482 54.7608 32.5482Z" fill="black"/>
<path d="M58.6683 26.3247H32.809C32.6852 26.3247 32.5665 26.2756 32.479 26.1881C32.3915 26.1005 32.3423 25.9818 32.3423 25.8581C32.3423 25.7343 32.3915 25.6156 32.479 25.5281C32.5665 25.4406 32.6852 25.3914 32.809 25.3914H58.6683C58.7921 25.3914 58.9108 25.4406 58.9983 25.5281C59.0858 25.6156 59.135 25.7343 59.135 25.8581C59.135 25.9818 59.0858 26.1005 58.9983 26.1881C58.9108 26.2756 58.7921 26.3247 58.6683 26.3247Z" fill="black"/>
</svg>
