<svg width="70" height="70" viewBox="0 0 70 70" fill="none" xmlns="http://www.w3.org/2000/svg">
<path d="M63.4712 65.3334H6.5285C6.03505 65.3321 5.56216 65.1356 5.21323 64.7866C4.86431 64.4377 4.66774 63.9648 4.6665 63.4714V6.52869C4.66774 6.03523 4.86431 5.56234 5.21323 5.21342C5.56216 4.86449 6.03505 4.66792 6.5285 4.66669H63.4712C63.9646 4.66792 64.4375 4.86449 64.7864 5.21342C65.1354 5.56234 65.3319 6.03523 65.3332 6.52869V63.4714C65.3319 63.9648 65.1354 64.4377 64.7864 64.7866C64.4375 65.1356 63.9646 65.3321 63.4712 65.3334ZM6.5285 5.60002C6.28232 5.60039 6.04632 5.69835 5.87225 5.87243C5.69817 6.04651 5.60021 6.2825 5.59984 6.52869V63.4714C5.60021 63.7175 5.69817 63.9535 5.87225 64.1276C6.04632 64.3017 6.28232 64.3997 6.5285 64.4H63.4712C63.7174 64.3997 63.9534 64.3017 64.1274 64.1276C64.3015 63.9535 64.3995 63.7175 64.3998 63.4714V6.52869C64.3995 6.2825 64.3015 6.04651 64.1274 5.87243C63.9534 5.69835 63.7174 5.60039 63.4712 5.60002H6.5285Z" fill="black"/>
<path d="M64.8665 16.0253H5.13317C5.0094 16.0253 4.8907 15.9761 4.80319 15.8886C4.71567 15.8011 4.6665 15.6824 4.6665 15.5586C4.6665 15.4349 4.71567 15.3162 4.80319 15.2287C4.8907 15.1411 5.0094 15.092 5.13317 15.092H64.8665C64.9903 15.092 65.109 15.1411 65.1965 15.2287C65.284 15.3162 65.3332 15.4349 65.3332 15.5586C65.3332 15.6824 65.284 15.8011 65.1965 15.8886C65.109 15.9761 64.9903 16.0253 64.8665 16.0253Z" fill="black"/>
<path d="M58.9482 12.8642C58.5799 12.8642 58.2159 12.7843 57.8815 12.63C57.547 12.4758 57.25 12.2508 57.0109 11.9707C56.7717 11.6906 56.5962 11.362 56.4963 11.0074C56.3964 10.6529 56.3746 10.281 56.4324 9.91721C56.5058 9.45278 56.7063 9.0177 57.0116 8.66008C57.3169 8.30247 57.7151 8.03625 58.1623 7.89087C58.6094 7.74549 59.0881 7.72662 59.5453 7.83633C60.0026 7.94604 60.4205 8.18006 60.7531 8.51252C61.0856 8.84498 61.3197 9.26292 61.4294 9.72013C61.5392 10.1773 61.5204 10.656 61.3751 11.1032C61.2298 11.5504 60.9637 11.9487 60.6061 12.254C60.2485 12.5594 59.8135 12.7599 59.3491 12.8334C59.2164 12.8538 59.0824 12.8641 58.9482 12.8642ZM58.9482 8.70108C58.8621 8.70101 58.7762 8.7074 58.6911 8.72022C58.3568 8.77625 58.0483 8.93517 57.8087 9.17483C57.569 9.41449 57.4101 9.72295 57.3541 10.0572C57.3005 10.3842 57.3487 10.7196 57.492 11.0183C57.6353 11.317 57.8668 11.5646 58.1553 11.7274C58.4438 11.8903 58.7753 11.9607 59.1051 11.9291C59.4349 11.8975 59.747 11.7654 59.9993 11.5507C60.2516 11.336 60.4319 11.049 60.5159 10.7285C60.5998 10.4081 60.5834 10.0695 60.4687 9.75871C60.3541 9.44788 60.1468 9.17974 59.8749 8.99051C59.603 8.80128 59.2795 8.70009 58.9482 8.70061V8.70108Z" fill="black"/>
<path d="M49.7167 12.8641C49.3484 12.8642 48.9844 12.7843 48.6499 12.6301C48.3154 12.4759 48.0183 12.2509 47.7791 11.9708C47.5399 11.6907 47.3643 11.362 47.2644 11.0075C47.1645 10.6529 47.1427 10.2809 47.2005 9.91712C47.2739 9.45257 47.4744 9.01737 47.7797 8.65966C48.0851 8.30195 48.4834 8.03566 48.9307 7.89025C49.378 7.74484 49.8568 7.72597 50.3141 7.83572C50.7714 7.94548 51.1895 8.17959 51.5221 8.51216C51.8547 8.84473 52.0888 9.2628 52.1985 9.72014C52.3083 10.1775 52.2894 10.6563 52.144 11.1035C51.9986 11.5508 51.7323 11.9492 51.3746 12.2545C51.0169 12.5599 50.5817 12.7604 50.1171 12.8338C49.9846 12.854 49.8508 12.8641 49.7167 12.8641ZM48.1235 10.0576C48.0688 10.3951 48.1225 10.7412 48.2769 11.0462C48.4313 11.3513 48.6784 11.5995 48.9827 11.7553C49.287 11.9111 49.6329 11.9663 49.9706 11.9132C50.3084 11.86 50.6205 11.7011 50.8623 11.4594C51.104 11.2176 51.2629 10.9054 51.3161 10.5677C51.3693 10.23 51.314 9.88411 51.1582 9.57978C51.0025 9.27544 50.7542 9.02833 50.4492 8.87395C50.1441 8.71957 49.798 8.66588 49.4605 8.72059C49.1255 8.7749 48.8161 8.93326 48.5762 9.17323C48.3362 9.4132 48.1778 9.7226 48.1235 10.0576Z" fill="black"/>
<path d="M40.4848 12.8642C40.1165 12.8642 39.7526 12.7844 39.4181 12.6302C39.0837 12.476 38.7867 12.2511 38.5475 11.971C38.3084 11.6909 38.1328 11.3623 38.0329 11.0078C37.9331 10.6533 37.9113 10.2814 37.969 9.91767C38.0425 9.45324 38.2429 9.01816 38.5482 8.66054C38.8535 8.30293 39.2517 8.03671 39.6989 7.89133C40.1461 7.74595 40.6247 7.72707 41.082 7.83678C41.5392 7.94649 41.9572 8.18052 42.2897 8.51298C42.6222 8.84544 42.8563 9.26338 42.9661 9.72059C43.0759 10.1778 43.0571 10.6565 42.9117 11.1037C42.7664 11.5508 42.5003 11.9491 42.1427 12.2545C41.7852 12.5598 41.3501 12.7604 40.8857 12.8339C40.753 12.8541 40.619 12.8642 40.4848 12.8642ZM40.4848 8.70107C40.3987 8.701 40.3128 8.70739 40.2277 8.72021C39.8934 8.77624 39.585 8.93516 39.3453 9.17482C39.1056 9.41448 38.9467 9.72294 38.8907 10.0572C38.8372 10.3841 38.8853 10.7196 39.0286 11.0183C39.1719 11.317 39.4034 11.5645 39.6919 11.7274C39.9804 11.8903 40.3119 11.9607 40.6417 11.9291C40.9715 11.8975 41.2836 11.7654 41.5359 11.5507C41.7882 11.336 41.9685 11.049 42.0525 10.7285C42.1364 10.4081 42.12 10.0695 42.0054 9.7587C41.8907 9.44787 41.6834 9.17973 41.4115 8.9905C41.1396 8.80127 40.8161 8.70008 40.4848 8.70061V8.70107Z" fill="black"/>
<path d="M33.4359 10.7822H7.92419C7.80042 10.7822 7.68172 10.733 7.5942 10.6455C7.50669 10.558 7.45752 10.4393 7.45752 10.3155C7.45752 10.1917 7.50669 10.073 7.5942 9.98553C7.68172 9.89801 7.80042 9.84885 7.92419 9.84885H33.4359C33.5597 9.84885 33.6784 9.89801 33.7659 9.98553C33.8534 10.073 33.9026 10.1917 33.9026 10.3155C33.9026 10.4393 33.8534 10.558 33.7659 10.6455C33.6784 10.733 33.5597 10.7822 33.4359 10.7822Z" fill="black"/>
<path d="M36.5178 57.7601H33.2432C33.1374 57.7602 33.0346 57.7243 32.9519 57.6583C32.8691 57.5923 32.8112 57.5002 32.7877 57.397L32.1237 54.4691C30.3713 54.1177 28.7046 53.4272 27.2171 52.4363L24.6817 54.0375C24.5922 54.094 24.486 54.1183 24.3808 54.1065C24.2756 54.0948 24.1774 54.0475 24.1026 53.9726L21.7884 51.6584C21.7135 51.5836 21.6662 51.4855 21.6545 51.3802C21.6427 51.275 21.667 51.1688 21.7235 51.0793L23.3247 48.5439C22.3334 47.0563 21.6424 45.3894 21.2905 43.6369L18.3631 42.9728C18.2599 42.9493 18.1677 42.8914 18.1018 42.8087C18.0358 42.7259 17.9999 42.6232 18 42.5173V39.2432C17.9999 39.1374 18.0358 39.0346 18.1018 38.9519C18.1677 38.8691 18.2599 38.8112 18.3631 38.7877L21.2905 38.1237C21.6424 36.3713 22.3333 34.7046 23.3242 33.2171L21.7231 30.6817C21.6666 30.5922 21.6422 30.486 21.654 30.3808C21.6658 30.2756 21.713 30.1774 21.7879 30.1026L24.1021 27.7889C24.177 27.7139 24.2751 27.6667 24.3803 27.6549C24.4856 27.6431 24.5917 27.6675 24.6813 27.724L27.2167 29.3247C28.7043 28.3336 30.3712 27.6426 32.1237 27.2905L32.7877 24.3631C32.8112 24.2599 32.8691 24.1677 32.9519 24.1018C33.0346 24.0358 33.1374 23.9999 33.2432 24H36.5178C36.6237 23.9999 36.7265 24.0359 36.8093 24.1019C36.892 24.168 36.9499 24.2602 36.9733 24.3635L37.6369 27.2905C39.3895 27.6419 41.0566 28.3325 42.5443 29.3233L45.0797 27.7226C45.1693 27.6661 45.2754 27.6417 45.3807 27.6535C45.4859 27.6653 45.584 27.7125 45.6589 27.7875L47.9731 30.1012C48.048 30.176 48.0952 30.2742 48.107 30.3794C48.1188 30.4846 48.0944 30.5908 48.0379 30.6803L46.4368 33.2171C47.4275 34.705 48.1181 36.372 48.4696 38.1246L51.397 38.7887C51.5002 38.8122 51.5923 38.87 51.6583 38.9528C51.7243 39.0356 51.7602 39.1383 51.7601 39.2441V42.5183C51.7602 42.6241 51.7243 42.7268 51.6583 42.8096C51.5923 42.8924 51.5002 42.9502 51.397 42.9737L48.4696 43.6378C48.1181 45.3903 47.4276 47.0572 46.4368 48.5448L48.0379 51.0802C48.0944 51.1698 48.1188 51.2759 48.107 51.3811C48.0952 51.4864 48.048 51.5845 47.9731 51.6593L45.6589 53.9735C45.584 54.0485 45.4859 54.0957 45.3807 54.1075C45.2754 54.1193 45.1693 54.0949 45.0797 54.0384L42.5443 52.4373C41.0565 53.4278 39.3895 54.1181 37.6369 54.4691L36.9733 57.3965C36.9499 57.4998 36.892 57.5921 36.8093 57.6581C36.7265 57.7242 36.6237 57.7601 36.5178 57.7601Z" fill="#FEDD15"/>
<path d="M34.8802 49.4492C32.8978 49.4478 30.9772 48.759 29.4457 47.5004C27.9142 46.2417 26.8664 44.491 26.4809 42.5464C26.0955 40.6019 26.3962 38.5839 27.3317 36.8362C28.2673 35.0884 29.7799 33.7192 31.6119 32.9616C33.4438 32.2041 35.4817 32.1052 37.3784 32.6817C39.2751 33.2582 40.9132 34.4745 42.0137 36.1234C43.1142 37.7723 43.6089 39.7517 43.4136 41.7244C43.2183 43.6972 42.3451 45.5412 40.9426 46.9422C40.1471 47.7389 39.202 48.3705 38.1616 48.8007C37.1212 49.2309 36.006 49.4513 34.8802 49.4492Z" fill="white"/>
<path d="M34.8802 49.4492C32.8978 49.4478 30.9772 48.759 29.4457 47.5004C27.9142 46.2417 26.8664 44.491 26.4809 42.5464C26.0955 40.6019 26.3962 38.5839 27.3317 36.8362C28.2673 35.0884 29.7799 33.7192 31.6119 32.9616C33.4438 32.2041 35.4817 32.1052 37.3784 32.6817C39.2751 33.2582 40.9132 34.4745 42.0137 36.1234C43.1142 37.7723 43.6089 39.7517 43.4136 41.7244C43.2183 43.6972 42.3451 45.5412 40.9426 46.9422C40.1471 47.7389 39.202 48.3705 38.1616 48.8007C37.1212 49.2309 36.006 49.4513 34.8802 49.4492ZM34.8802 33.239C33.1123 33.2385 31.399 33.8509 30.0321 34.9719C28.6652 36.093 27.7293 37.6533 27.3838 39.387C27.0383 41.1208 27.3047 42.9206 28.1375 44.48C28.9703 46.0394 30.3181 47.2617 31.9511 47.9388C33.5841 48.6159 35.4014 48.7058 37.0933 48.1932C38.7851 47.6806 40.247 46.5972 41.2296 45.1277C42.2123 43.6582 42.655 41.8934 42.4824 40.134C42.3097 38.3746 41.5324 36.7295 40.2828 35.479C39.5751 34.767 38.7332 34.2024 37.8058 33.8179C36.8785 33.4334 35.8841 33.2367 34.8802 33.239Z" fill="black"/>
</svg>
