<svg width="70" height="70" viewBox="0 0 70 70" fill="none" xmlns="http://www.w3.org/2000/svg">
<path d="M63.4712 65.3334H6.5285C6.03505 65.3321 5.56216 65.1356 5.21323 64.7866C4.86431 64.4377 4.66774 63.9648 4.6665 63.4714V6.52869C4.66774 6.03523 4.86431 5.56234 5.21323 5.21342C5.56216 4.86449 6.03505 4.66792 6.5285 4.66669H63.4712C63.9646 4.66792 64.4375 4.86449 64.7864 5.21342C65.1354 5.56234 65.3319 6.03523 65.3332 6.52869V63.4714C65.3319 63.9648 65.1354 64.4377 64.7864 64.7866C64.4375 65.1356 63.9646 65.3321 63.4712 65.3334ZM6.5285 5.60002C6.28232 5.60039 6.04632 5.69835 5.87225 5.87243C5.69817 6.04651 5.60021 6.2825 5.59984 6.52869V63.4714C5.60021 63.7175 5.69817 63.9535 5.87225 64.1276C6.04632 64.3017 6.28232 64.3997 6.5285 64.4H63.4712C63.7174 64.3997 63.9534 64.3017 64.1274 64.1276C64.3015 63.9535 64.3995 63.7175 64.3998 63.4714V6.52869C64.3995 6.2825 64.3015 6.04651 64.1274 5.87243C63.9534 5.69835 63.7174 5.60039 63.4712 5.60002H6.5285Z" fill="black"/>
<path d="M64.8665 16.0253H5.13317C5.0094 16.0253 4.8907 15.9761 4.80319 15.8886C4.71567 15.8011 4.6665 15.6824 4.6665 15.5586C4.6665 15.4349 4.71567 15.3162 4.80319 15.2287C4.8907 15.1411 5.0094 15.092 5.13317 15.092H64.8665C64.9903 15.092 65.109 15.1411 65.1965 15.2287C65.284 15.3162 65.3332 15.4349 65.3332 15.5586C65.3332 15.6824 65.284 15.8011 65.1965 15.8886C65.109 15.9761 64.9903 16.0253 64.8665 16.0253Z" fill="black"/>
<path d="M58.9482 12.8642C58.5799 12.8642 58.2159 12.7843 57.8815 12.63C57.547 12.4758 57.25 12.2508 57.0109 11.9707C56.7717 11.6906 56.5962 11.362 56.4963 11.0074C56.3964 10.6529 56.3746 10.281 56.4324 9.91721C56.5058 9.45278 56.7063 9.0177 57.0116 8.66008C57.3169 8.30247 57.7151 8.03625 58.1623 7.89087C58.6094 7.74549 59.0881 7.72662 59.5453 7.83633C60.0026 7.94604 60.4205 8.18006 60.7531 8.51252C61.0856 8.84498 61.3197 9.26292 61.4294 9.72013C61.5392 10.1773 61.5204 10.656 61.3751 11.1032C61.2298 11.5504 60.9637 11.9487 60.6061 12.254C60.2485 12.5594 59.8135 12.7599 59.3491 12.8334C59.2164 12.8538 59.0824 12.8641 58.9482 12.8642ZM58.9482 8.70108C58.8621 8.70101 58.7762 8.7074 58.6911 8.72022C58.3568 8.77625 58.0483 8.93517 57.8087 9.17483C57.569 9.41449 57.4101 9.72295 57.3541 10.0572C57.3005 10.3842 57.3487 10.7196 57.492 11.0183C57.6353 11.317 57.8668 11.5646 58.1553 11.7274C58.4438 11.8903 58.7753 11.9607 59.1051 11.9291C59.4349 11.8975 59.747 11.7654 59.9993 11.5507C60.2516 11.336 60.4319 11.049 60.5159 10.7285C60.5998 10.4081 60.5834 10.0695 60.4687 9.75871C60.3541 9.44788 60.1468 9.17974 59.8749 8.99051C59.603 8.80128 59.2795 8.70009 58.9482 8.70061V8.70108Z" fill="black"/>
<path d="M49.7167 12.8641C49.3484 12.8642 48.9844 12.7843 48.6499 12.6301C48.3154 12.4759 48.0183 12.2509 47.7791 11.9708C47.5399 11.6907 47.3643 11.362 47.2644 11.0075C47.1645 10.6529 47.1427 10.2809 47.2005 9.91712C47.2739 9.45257 47.4744 9.01737 47.7797 8.65966C48.0851 8.30195 48.4834 8.03566 48.9307 7.89025C49.378 7.74484 49.8568 7.72597 50.3141 7.83572C50.7714 7.94548 51.1895 8.17959 51.5221 8.51216C51.8547 8.84473 52.0888 9.2628 52.1985 9.72014C52.3083 10.1775 52.2894 10.6563 52.144 11.1035C51.9986 11.5508 51.7323 11.9492 51.3746 12.2545C51.0169 12.5599 50.5817 12.7604 50.1171 12.8338C49.9846 12.854 49.8508 12.8641 49.7167 12.8641ZM48.1235 10.0576C48.0688 10.3951 48.1225 10.7412 48.2769 11.0462C48.4313 11.3513 48.6784 11.5995 48.9827 11.7553C49.287 11.9111 49.6329 11.9663 49.9706 11.9132C50.3084 11.86 50.6205 11.7011 50.8623 11.4594C51.104 11.2176 51.2629 10.9054 51.3161 10.5677C51.3693 10.23 51.314 9.88411 51.1582 9.57978C51.0025 9.27544 50.7542 9.02833 50.4492 8.87395C50.1441 8.71957 49.798 8.66588 49.4605 8.72059C49.1255 8.7749 48.8161 8.93326 48.5762 9.17323C48.3362 9.4132 48.1778 9.7226 48.1235 10.0576Z" fill="black"/>
<path d="M40.4848 12.8642C40.1165 12.8642 39.7526 12.7844 39.4181 12.6302C39.0837 12.476 38.7867 12.2511 38.5475 11.971C38.3084 11.6909 38.1328 11.3623 38.0329 11.0078C37.9331 10.6533 37.9113 10.2814 37.969 9.91767C38.0425 9.45324 38.2429 9.01816 38.5482 8.66054C38.8535 8.30293 39.2517 8.03671 39.6989 7.89133C40.1461 7.74595 40.6247 7.72707 41.082 7.83678C41.5392 7.94649 41.9572 8.18052 42.2897 8.51298C42.6222 8.84544 42.8563 9.26338 42.9661 9.72059C43.0759 10.1778 43.0571 10.6565 42.9117 11.1037C42.7664 11.5508 42.5003 11.9491 42.1427 12.2545C41.7852 12.5598 41.3501 12.7604 40.8857 12.8339C40.753 12.8541 40.619 12.8642 40.4848 12.8642ZM40.4848 8.70107C40.3987 8.701 40.3128 8.70739 40.2277 8.72021C39.8934 8.77624 39.585 8.93516 39.3453 9.17482C39.1056 9.41448 38.9467 9.72294 38.8907 10.0572C38.8372 10.3841 38.8853 10.7196 39.0286 11.0183C39.1719 11.317 39.4034 11.5645 39.6919 11.7274C39.9804 11.8903 40.3119 11.9607 40.6417 11.9291C40.9715 11.8975 41.2836 11.7654 41.5359 11.5507C41.7882 11.336 41.9685 11.049 42.0525 10.7285C42.1364 10.4081 42.12 10.0695 42.0054 9.7587C41.8907 9.44787 41.6834 9.17973 41.4115 8.9905C41.1396 8.80127 40.8161 8.70008 40.4848 8.70061V8.70107Z" fill="black"/>
<path d="M33.4359 10.7822H7.92419C7.80042 10.7822 7.68172 10.733 7.5942 10.6455C7.50669 10.558 7.45752 10.4393 7.45752 10.3155C7.45752 10.1917 7.50669 10.073 7.5942 9.98553C7.68172 9.89801 7.80042 9.84885 7.92419 9.84885H33.4359C33.5597 9.84885 33.6784 9.89801 33.7659 9.98553C33.8534 10.073 33.9026 10.1917 33.9026 10.3155C33.9026 10.4393 33.8534 10.558 33.7659 10.6455C33.6784 10.733 33.5597 10.7822 33.4359 10.7822Z" fill="black"/>
<path d="M35.0002 50.2731C33.1972 50.2731 31.4348 49.7385 29.9357 48.7369C28.4366 47.7352 27.2682 46.3115 26.5782 44.6459C25.8883 42.9802 25.7077 41.1473 26.0594 39.379C26.4111 37.6107 27.2793 35.9864 28.5541 34.7115C29.8289 33.4366 31.4532 32.5684 33.2214 32.2166C34.9897 31.8648 36.8226 32.0453 38.4883 32.7352C40.154 33.425 41.5778 34.5934 42.5795 36.0924C43.5812 37.5915 44.1159 39.3539 44.116 41.1568C44.1134 43.5737 43.1522 45.8909 41.4432 47.6C39.7342 49.3091 37.4171 50.2704 35.0002 50.2731ZM35.0002 32.9747C33.3818 32.9747 31.7998 33.4546 30.4541 34.3538C29.1085 35.2529 28.0597 36.5309 27.4404 38.026C26.8211 39.5212 26.6591 41.1665 26.9749 42.7538C27.2906 44.341 28.07 45.799 29.2144 46.9434C30.3588 48.0877 31.8168 48.867 33.4041 49.1826C34.9914 49.4983 36.6366 49.3362 38.1318 48.7168C39.627 48.0974 40.9049 47.0486 41.8039 45.7029C42.703 44.3572 43.1828 42.7752 43.1827 41.1568C43.1802 38.9875 42.3173 36.9077 40.7833 35.3738C39.2493 33.8398 37.1695 32.9771 35.0002 32.9747Z" fill="black"/>
<path d="M35.013 60.1257C34.9489 60.1256 34.8854 60.1126 34.8264 60.0874C15.889 51.8764 17.135 29.0163 17.15 28.7862C17.1575 28.6686 17.2092 28.5583 17.2947 28.4773C17.3803 28.3962 17.4932 28.3506 17.611 28.3494C28.8619 28.2337 34.6196 22.3901 34.6766 22.3294C34.7202 22.2842 34.7724 22.2482 34.8302 22.2237C34.8881 22.1991 34.9502 22.1865 35.013 22.1866C35.0763 22.1869 35.1388 22.2 35.1968 22.2252C35.2548 22.2504 35.3071 22.2871 35.3504 22.3331C35.406 22.3919 41.0396 28.2318 52.4127 28.3475C52.5357 28.3487 52.6532 28.3985 52.7397 28.4858C52.8262 28.5732 52.8747 28.6912 52.8747 28.8142C52.8747 29.0531 52.6726 52.7579 35.1913 60.0874C35.1349 60.1115 35.0744 60.1245 35.013 60.1257Z" fill="#FEDD15"/>
<path d="M33.1774 44.7301C33.0536 44.7301 32.9349 44.6809 32.8474 44.5934L30.2808 42.0267C30.2351 41.9839 30.1986 41.9324 30.1733 41.8753C30.1479 41.8181 30.1344 41.7564 30.1334 41.6939C30.1323 41.6314 30.1439 41.5693 30.1674 41.5113C30.1908 41.4533 30.2257 41.4007 30.2699 41.3564C30.3141 41.3122 30.3667 41.2773 30.4247 41.2538C30.4826 41.2303 30.5447 41.2187 30.6072 41.2197C30.6697 41.2207 30.7314 41.2342 30.7886 41.2595C30.8458 41.2847 30.8973 41.3213 30.9402 41.3668L33.1769 43.6036L39.0601 37.7208C39.1482 37.6358 39.266 37.5887 39.3884 37.5898C39.5108 37.5909 39.6278 37.6399 39.7143 37.7265C39.8009 37.813 39.8499 37.93 39.851 38.0524C39.8521 38.1748 39.805 38.2926 39.72 38.3807L33.5068 44.5934C33.4194 44.6808 33.3009 44.73 33.1774 44.7301Z" fill="black"/>
</svg>
