<svg width="70" height="70" viewBox="0 0 70 70" fill="none" xmlns="http://www.w3.org/2000/svg">
<path d="M16 23.5C22 18.7 29.5 19.8333 32.5 21L26.5 27.5L21.5 35C20 34.8333 16.5 34.4 14.5 34C12.5 33.6 7.33333 35.1667 5 36C6.16667 33.8333 10 28.3 16 23.5Z" fill="#FEDD15"/>
<path d="M46.5799 53.5169C51.3507 47.4936 50.1809 39.9992 48.9996 37.0049L42.5289 43.0365L35.0533 48.0729C35.2272 49.572 35.6776 53.0699 36.0873 55.0679C36.497 57.066 34.9555 62.2402 34.1335 64.5775C36.2945 63.4003 41.8091 59.5402 46.5799 53.5169Z" fill="#FEDD15"/>
<path d="M62.5 16.5026L54 8.00261C57.3333 6.50261 64.2 3.90261 65 5.50261C65.8 7.10261 63.6667 13.5026 62.5 16.5026Z" fill="#FEDD15"/>
<path d="M35.0432 49.0719C34.9418 49.072 34.8431 49.039 34.7621 48.9779C34.681 48.9169 34.6221 48.8311 34.5942 48.7336C34.5663 48.6361 34.571 48.5321 34.6074 48.4375C34.6439 48.3428 34.7102 48.2626 34.7963 48.209C60.7845 32.082 64.0022 9.38936 64.3592 5.66116C60.6258 6.01489 37.8852 9.21576 21.7702 35.1834C21.705 35.2886 21.6006 35.3636 21.48 35.3918C21.3594 35.42 21.2326 35.3992 21.1274 35.3339C21.0222 35.2686 20.9473 35.1642 20.919 35.0437C20.8908 34.9231 20.9116 34.7963 20.9769 34.6911C30.2673 19.72 41.6862 12.3611 49.6302 8.82376C58.2533 4.98449 64.5841 4.69749 64.8492 4.68769C64.9137 4.68389 64.9783 4.69415 65.0385 4.71776C65.0987 4.74137 65.153 4.77776 65.1978 4.82443C65.2432 4.86997 65.2787 4.9244 65.302 4.98431C65.3254 5.04421 65.3362 5.10831 65.3336 5.17256C65.3233 5.43763 65.0265 11.7582 61.1765 20.371C57.6298 28.3043 50.2603 39.712 35.2891 49.0019C35.2153 49.0477 35.1301 49.0719 35.0432 49.0719Z" fill="black"/>
<path d="M62.2214 17.0165C62.0977 17.0165 61.979 16.9673 61.8915 16.8798L53.141 8.1293C53.0964 8.08625 53.0609 8.03476 53.0364 7.97782C53.012 7.92089 52.9991 7.85965 52.9986 7.79769C52.998 7.73572 53.0098 7.67427 53.0333 7.61692C53.0568 7.55957 53.0914 7.50747 53.1352 7.46365C53.179 7.41983 53.2311 7.38518 53.2885 7.36172C53.3458 7.33825 53.4073 7.32644 53.4693 7.32698C53.5312 7.32752 53.5925 7.3404 53.6494 7.36485C53.7063 7.38931 53.7578 7.42486 53.8009 7.46943L62.5513 16.2199C62.6166 16.2852 62.661 16.3683 62.679 16.4588C62.697 16.5493 62.6878 16.6431 62.6525 16.7284C62.6171 16.8137 62.5573 16.8865 62.4806 16.9378C62.4039 16.9891 62.3137 17.0165 62.2214 17.0165Z" fill="black"/>
<path d="M46.8814 31.4369C44.9632 31.4356 43.1049 30.7693 41.623 29.5514C40.1411 28.3336 39.1273 26.6396 38.7544 24.758C38.3815 22.8765 38.6725 20.9239 39.5778 19.2329C40.4832 17.5419 41.9469 16.2171 43.7195 15.4843C45.4921 14.7514 47.4639 14.6559 49.2991 15.214C51.1342 15.772 52.7191 16.9491 53.7837 18.5447C54.8483 20.1403 55.3266 22.0556 55.1373 23.9644C54.948 25.8731 54.1027 27.6572 52.7455 29.0126C51.9755 29.7824 51.0612 30.3928 50.0549 30.8088C49.0486 31.2248 47.9702 31.4383 46.8814 31.4369Z" fill="#FEDD15"/>
<path d="M46.8793 27.9759C45.7627 27.9748 44.6811 27.5867 43.8186 26.8776C42.9561 26.1685 42.3661 25.1823 42.1491 24.087C41.9322 22.9917 42.1016 21.8551 42.6287 20.8708C43.1557 19.8864 44.0078 19.1153 45.0396 18.6886C46.0714 18.262 47.2193 18.2063 48.2876 18.531C49.3559 18.8557 50.2786 19.5408 50.8984 20.4695C51.5183 21.3982 51.7971 22.513 51.6872 23.6242C51.5773 24.7353 51.0856 25.774 50.2958 26.5633C49.8472 27.0118 49.3145 27.3674 48.7282 27.6098C48.142 27.8522 47.5137 27.9766 46.8793 27.9759Z" fill="white"/>
<path d="M46.8793 27.9759C45.7627 27.9748 44.6811 27.5867 43.8186 26.8776C42.9561 26.1685 42.3661 25.1823 42.1491 24.087C41.9322 22.9917 42.1016 21.8551 42.6287 20.8708C43.1557 19.8864 44.0078 19.1153 45.0396 18.6886C46.0714 18.262 47.2193 18.2063 48.2876 18.531C49.3559 18.8557 50.2786 19.5408 50.8984 20.4695C51.5183 21.3982 51.7971 22.513 51.6872 23.6242C51.5773 24.7353 51.0856 25.774 50.2958 26.5633C49.8472 27.0118 49.3145 27.3674 48.7282 27.6098C48.142 27.8522 47.5137 27.9766 46.8793 27.9759ZM46.8751 19.2436C46.2338 19.2441 45.6025 19.4027 45.037 19.7054C44.4716 20.0081 43.9896 20.4455 43.6336 20.979C43.2775 21.5124 43.0585 22.1254 42.9959 22.7637C42.9333 23.402 43.0291 24.0458 43.2747 24.6383C43.5203 25.2307 43.9082 25.7535 44.404 26.1603C44.8998 26.567 45.4883 26.8453 46.1173 26.9704C46.7463 27.0955 47.3965 27.0636 48.0102 26.8775C48.6239 26.6913 49.1823 26.3568 49.6359 25.9034C50.1814 25.3576 50.5527 24.6622 50.703 23.9054C50.8533 23.1485 50.7758 22.364 50.4803 21.6512C50.1848 20.9384 49.6846 20.3292 49.0429 19.9006C48.4011 19.4721 47.6468 19.2434 46.8751 19.2436Z" fill="black"/>
<path d="M15.8455 56.9832C15.2232 56.9832 14.5838 56.9578 13.927 56.9071C13.8192 56.8986 13.7177 56.853 13.6398 56.778C13.562 56.703 13.5125 56.6033 13.5 56.496C11.9432 43.2226 23.0998 37.113 23.2123 37.0528C23.2663 37.0239 23.3256 37.006 23.3866 37C23.4476 36.994 23.5092 37.0001 23.5679 37.018C23.6265 37.0358 23.6811 37.065 23.7284 37.1039C23.7758 37.1428 23.815 37.1907 23.8439 37.2448C23.8728 37.2989 23.8907 37.3581 23.8967 37.4191C23.9026 37.4801 23.8965 37.5417 23.8787 37.6004C23.8609 37.659 23.8317 37.7136 23.7927 37.761C23.7538 37.8083 23.706 37.8476 23.6519 37.8764C23.5455 37.9334 24.5 37.5 28 41.5C32 45 32.4728 46.8626 32.5232 46.7599C32.5512 46.7054 32.5897 46.6569 32.6364 46.6172C32.6832 46.5775 32.7373 46.5474 32.7957 46.5287C32.854 46.5099 32.9155 46.5028 32.9766 46.5078C33.0377 46.5128 33.0973 46.5298 33.1518 46.5578C33.2063 46.5858 33.2548 46.6243 33.2945 46.6711C33.3342 46.7178 33.3643 46.7719 33.383 46.8303C33.4018 46.8887 33.4089 46.9501 33.4039 47.0113C33.3989 47.0724 33.3819 47.1319 33.3539 47.1864C31.5498 50.2103 28.9827 52.707 25.9099 54.4264C22.8371 56.1458 19.3663 57.0275 15.8455 56.9832Z" fill="#FEDD15"/>
<path d="M35.0422 49.0718C34.9809 49.0719 34.9202 49.0599 34.8635 49.0365C34.8069 49.013 34.7555 48.9785 34.7123 48.935L21.0436 35.2668C20.9586 35.1788 20.9116 35.0609 20.9126 34.9386C20.9137 34.8162 20.9628 34.6992 21.0493 34.6126C21.1358 34.5261 21.2529 34.477 21.3752 34.476C21.4976 34.4749 21.6154 34.5219 21.7035 34.6069L35.3731 48.2752C35.4383 48.3404 35.4827 48.4236 35.5007 48.5141C35.5187 48.6046 35.5095 48.6984 35.4742 48.7837C35.4389 48.8689 35.3791 48.9418 35.3023 48.9931C35.2256 49.0444 35.1354 49.0717 35.0431 49.0718H35.0422Z" fill="black"/>
</svg>
