<svg width="70" height="70" viewBox="0 0 70 70" fill="none" xmlns="http://www.w3.org/2000/svg">
<path d="M35 31C32.2311 31 29.5243 30.1789 27.222 28.6406C24.9197 27.1022 23.1253 24.9157 22.0657 22.3576C21.0061 19.7994 20.7288 16.9845 21.269 14.2687C21.8092 11.553 23.1426 9.05845 25.1005 7.10051C27.0584 5.14258 29.553 3.80921 32.2687 3.26901C34.9845 2.72882 37.7994 3.00607 40.3576 4.06569C42.9157 5.12532 45.1022 6.91973 46.6406 9.22202C48.1789 11.5243 49 14.2311 49 17C48.996 20.7118 47.5198 24.2705 44.8951 26.8951C42.2705 29.5198 38.7118 30.996 35 31Z" fill="#FEDD15"/>
<path d="M25.4271 26.5187C25.3553 26.5189 25.2845 26.5021 25.2204 26.4697C25.1095 26.4148 25.025 26.318 24.9854 26.2007C24.9459 26.0835 24.9545 25.9553 25.0095 25.8444C25.9351 23.9764 27.3642 22.4043 29.1355 21.3051C30.9069 20.206 32.9502 19.6235 35.0349 19.6235C37.1196 19.6235 39.1628 20.206 40.9342 21.3051C42.7056 22.4043 44.1346 23.9764 45.0603 25.8444C45.1153 25.9553 45.124 26.0835 45.0845 26.2008C45.045 26.3181 44.9605 26.4149 44.8496 26.4699C44.7387 26.525 44.6105 26.5337 44.4931 26.4942C44.3758 26.4546 44.279 26.3701 44.224 26.2592C43.3757 24.547 42.0659 23.1058 40.4422 22.0982C38.8186 21.0906 36.9457 20.5567 35.0349 20.5567C33.124 20.5567 31.2511 21.0906 29.6275 22.0982C28.0038 23.1058 26.694 24.547 25.8457 26.2592C25.8071 26.3372 25.7474 26.4028 25.6734 26.4487C25.5995 26.4945 25.5142 26.5188 25.4271 26.5187Z" fill="black"/>
<path d="M35.0348 17.5116C34.0822 17.5116 33.1511 17.2292 32.3591 16.7C31.5671 16.1708 30.9498 15.4186 30.5853 14.5385C30.2208 13.6585 30.1255 12.6901 30.3113 11.7559C30.4972 10.8217 30.9559 9.96356 31.6295 9.29005C32.3031 8.61654 33.1612 8.1579 34.0955 7.97212C35.0297 7.78635 35.9981 7.88179 36.8781 8.24637C37.7581 8.61095 38.5102 9.22831 39.0393 10.0204C39.5685 10.8124 39.8508 11.7436 39.8508 12.6961C39.8493 13.9729 39.3414 15.197 38.4385 16.0997C37.5356 17.0025 36.3115 17.5103 35.0348 17.5116ZM35.0348 8.81297C34.2669 8.81297 33.5162 9.04068 32.8777 9.46729C32.2392 9.8939 31.7416 10.5003 31.4477 11.2097C31.1538 11.9191 31.0769 12.6998 31.2267 13.4529C31.3764 14.2061 31.7462 14.8979 32.2891 15.4409C32.8321 15.984 33.5239 16.3538 34.277 16.5036C35.0301 16.6535 35.8108 16.5767 36.5203 16.2829C37.2297 15.9891 37.8362 15.4915 38.2628 14.8531C38.6895 14.2146 38.9173 13.464 38.9174 12.6961C38.9163 11.6667 38.5069 10.6797 37.779 9.95171C37.0511 9.22374 36.0642 8.81421 35.0348 8.81297Z" fill="black"/>
<path d="M51.8138 65.3002C49.14 65.3002 46.5263 64.5073 44.3031 63.0219C42.0799 61.5364 40.3472 59.425 39.324 56.9548C38.3008 54.4845 38.0331 51.7663 38.5547 49.1439C39.0763 46.5215 40.3639 44.1127 42.2545 42.2221C44.1452 40.3314 46.554 39.0439 49.1764 38.5222C51.7988 38.0006 54.517 38.2683 56.9872 39.2916C59.4575 40.3148 61.5688 42.0475 63.0543 44.2707C64.5398 46.4938 65.3326 49.1076 65.3326 51.7813C65.3288 55.3656 63.9033 58.802 61.3688 61.3364C58.8344 63.8708 55.398 65.2964 51.8138 65.3002ZM51.8138 39.1958C49.3246 39.1958 46.8913 39.9339 44.8216 41.3169C42.752 42.6998 41.1388 44.6654 40.1863 46.9651C39.2337 49.2648 38.9845 51.7953 39.4701 54.2367C39.9557 56.678 41.1544 58.9205 42.9145 60.6807C44.6746 62.4408 46.9171 63.6394 49.3585 64.125C51.7998 64.6107 54.3304 64.3614 56.6301 63.4089C58.9298 62.4563 60.8954 60.8432 62.2783 58.7735C63.6612 56.7038 64.3993 54.2705 64.3993 51.7813C64.3955 48.4446 63.0683 45.2457 60.7089 42.8863C58.3495 40.5269 55.1505 39.1996 51.8138 39.1958Z" fill="black"/>
<path d="M61.421 61.0816C61.3337 61.0819 61.2481 61.0578 61.1738 61.0119C61.0996 60.9661 61.0397 60.9003 61.001 60.8221C60.1527 59.1098 58.8428 57.6686 57.2192 56.6611C55.5956 55.6535 53.7227 55.1196 51.8118 55.1196C49.9009 55.1196 48.0281 55.6535 46.4044 56.6611C44.7808 57.6686 43.471 59.1098 42.6227 60.8221C42.5677 60.933 42.4709 61.0175 42.3535 61.057C42.2362 61.0965 42.108 61.0878 41.9971 61.0328C41.8862 60.9778 41.8017 60.881 41.7622 60.7637C41.7227 60.6463 41.7314 60.5181 41.7864 60.4072C42.712 58.5393 44.1411 56.9671 45.9125 55.868C47.6839 54.7688 49.7271 54.1864 51.8118 54.1864C53.8965 54.1864 55.9398 54.7688 57.7111 55.868C59.4825 56.9671 60.9116 58.5393 61.8372 60.4072C61.8727 60.4785 61.8893 60.5577 61.8854 60.6373C61.8816 60.7168 61.8575 60.794 61.8154 60.8616C61.7733 60.9292 61.7146 60.9849 61.6449 61.0234C61.5752 61.0619 61.4968 61.0819 61.4172 61.0816H61.421Z" fill="black"/>
<path d="M51.8131 52.0749C50.8606 52.0749 49.9294 51.7925 49.1374 51.2633C48.3455 50.7341 47.7282 49.9819 47.3637 49.1019C46.9992 48.2219 46.9038 47.2536 47.0896 46.3194C47.2754 45.3851 47.7341 44.527 48.4076 43.8535C49.0812 43.1799 49.9393 42.7213 50.8735 42.5354C51.8077 42.3496 52.7761 42.445 53.6561 42.8095C54.5361 43.174 55.2882 43.7913 55.8174 44.5833C56.3466 45.3753 56.6291 46.3064 56.6291 47.2589C56.6276 48.5357 56.1197 49.7598 55.2169 50.6627C54.314 51.5656 53.0899 52.0734 51.8131 52.0749ZM51.8131 43.3762C51.0452 43.3762 50.2945 43.604 49.656 44.0306C49.0175 44.4572 48.5198 45.0636 48.226 45.7731C47.9321 46.4825 47.8552 47.2632 48.005 48.0164C48.1548 48.7695 48.5246 49.4614 49.0676 50.0044C49.6106 50.5474 50.3024 50.9172 51.0556 51.067C51.8088 51.2168 52.5894 51.1399 53.2989 50.846C54.0084 50.5522 54.6148 50.0545 55.0414 49.416C55.468 48.7775 55.6957 48.0268 55.6957 47.2589C55.6945 46.2295 55.285 45.2427 54.5572 44.5148C53.8293 43.7869 52.8424 43.3775 51.8131 43.3762Z" fill="black"/>
<path d="M18.1859 65.3002C15.5121 65.3002 12.8984 64.5073 10.6752 63.0219C8.45202 61.5364 6.71927 59.425 5.69606 56.9548C4.67285 54.4845 4.40513 51.7663 4.92676 49.1439C5.44839 46.5215 6.73594 44.1127 8.62658 42.2221C10.5172 40.3314 12.9261 39.0439 15.5485 38.5222C18.1709 38.0006 20.8891 38.2683 23.3593 39.2916C25.8296 40.3148 27.9409 42.0475 29.4264 44.2707C30.9119 46.4938 31.7047 49.1076 31.7047 51.7813C31.7009 55.3656 30.2754 58.802 27.7409 61.3364C25.2065 63.8708 21.7701 65.2964 18.1859 65.3002ZM18.1859 39.1958C15.6967 39.1958 13.2634 39.9339 11.1937 41.3169C9.12404 42.6998 7.51092 44.6654 6.55835 46.9651C5.60578 49.2648 5.35654 51.7953 5.84216 54.2367C6.32777 56.678 7.52643 58.9205 9.28655 60.6807C11.0467 62.4408 13.2892 63.6394 15.7305 64.125C18.1719 64.6107 20.7024 64.3614 23.0021 63.4089C25.3018 62.4563 27.2674 60.8432 28.6504 58.7735C30.0333 56.7038 30.7714 54.2705 30.7714 51.7813C30.7676 48.4446 29.4404 45.2457 27.081 42.8863C24.7215 40.5269 21.5226 39.1996 18.1859 39.1958Z" fill="black"/>
<path d="M27.7925 61.0816C27.7053 61.0819 27.6197 61.0578 27.5454 61.0119C27.4712 60.9661 27.4113 60.9003 27.3725 60.8221C26.5243 59.1098 25.2144 57.6686 23.5908 56.6611C21.9671 55.6535 20.0943 55.1196 18.1834 55.1196C16.2725 55.1196 14.3997 55.6535 12.776 56.6611C11.1524 57.6686 9.84255 59.1098 8.99427 60.8221C8.93925 60.933 8.84244 61.0175 8.72512 61.057C8.60781 61.0965 8.4796 61.0878 8.3687 61.0328C8.25781 60.9778 8.17331 60.881 8.13379 60.7637C8.09428 60.6463 8.10299 60.5181 8.158 60.4072C9.08363 58.5393 10.5127 56.9671 12.2841 55.868C14.0555 54.7688 16.0987 54.1864 18.1834 54.1864C20.2681 54.1864 22.3113 54.7688 24.0827 55.868C25.8541 56.9671 27.2832 58.5393 28.2088 60.4072C28.2441 60.4784 28.2608 60.5573 28.257 60.6367C28.2533 60.716 28.2294 60.7931 28.1876 60.8606C28.1458 60.9281 28.0874 60.9839 28.018 61.0225C27.9487 61.0612 27.8706 61.0815 27.7911 61.0816H27.7925Z" fill="black"/>
<path d="M18.1851 52.0749C17.2326 52.0749 16.3015 51.7925 15.5095 51.2633C14.7175 50.7341 14.1003 49.9819 13.7357 49.1019C13.3712 48.2219 13.2759 47.2536 13.4617 46.3194C13.6475 45.3851 14.1062 44.527 14.7797 43.8535C15.4532 43.1799 16.3114 42.7213 17.2456 42.5354C18.1798 42.3496 19.1481 42.445 20.0281 42.8095C20.9082 43.174 21.6603 43.7913 22.1895 44.5833C22.7187 45.3753 23.0011 46.3064 23.0011 47.2589C22.9997 48.5357 22.4918 49.7598 21.5889 50.6627C20.6861 51.5656 19.462 52.0734 18.1851 52.0749ZM18.1851 43.3762C17.4172 43.3762 16.6665 43.604 16.028 44.0306C15.3895 44.4572 14.8919 45.0636 14.598 45.7731C14.3042 46.4825 14.2273 47.2632 14.3771 48.0164C14.5269 48.7695 14.8967 49.4614 15.4397 50.0044C15.9827 50.5474 16.6745 50.9172 17.4277 51.067C18.1808 51.2168 18.9615 51.1399 19.671 50.846C20.3804 50.5522 20.9868 50.0545 21.4135 49.416C21.8401 48.7775 22.0678 48.0268 22.0678 47.2589C22.0666 46.2295 21.6571 45.2427 20.9292 44.5148C20.2014 43.7869 19.2145 43.3775 18.1851 43.3762Z" fill="black"/>
<path d="M45.9684 40.5803C45.8795 40.5804 45.7925 40.5551 45.7175 40.5074C45.6425 40.4597 45.5827 40.3916 45.5451 40.311L40.7137 29.9534C40.6878 29.8978 40.6731 29.8377 40.6704 29.7765C40.6677 29.7152 40.6771 29.654 40.698 29.5964C40.719 29.5388 40.7511 29.4859 40.7925 29.4407C40.8339 29.3955 40.8838 29.3589 40.9393 29.3329C40.9949 29.307 41.055 29.2923 41.1163 29.2896C41.1775 29.2869 41.2387 29.2963 41.2963 29.3173C41.3539 29.3382 41.4068 29.3703 41.452 29.4117C41.4972 29.4531 41.5339 29.503 41.5598 29.5586L46.3884 39.9162C46.4143 39.9718 46.429 40.0319 46.4317 40.0931C46.4343 40.1544 46.4249 40.2155 46.4039 40.2731C46.3829 40.3307 46.3508 40.3836 46.3094 40.4288C46.268 40.474 46.2181 40.5106 46.1625 40.5364C46.1018 40.565 46.0355 40.58 45.9684 40.5803Z" fill="black"/>
<path d="M24.0557 40.5897C23.9772 40.5897 23.9 40.5698 23.8312 40.532C23.7624 40.4942 23.7043 40.4396 23.6622 40.3733C23.6201 40.3071 23.5953 40.2313 23.5903 40.153C23.5853 40.0746 23.6001 39.9963 23.6334 39.9252L28.4909 29.5484C28.5447 29.4384 28.6395 29.354 28.7549 29.3133C28.8704 29.2727 28.9971 29.2789 29.108 29.3308C29.2188 29.3827 29.3048 29.4761 29.3475 29.5908C29.3901 29.7055 29.386 29.8324 29.336 29.9441L24.479 40.32C24.4415 40.4006 24.3817 40.4688 24.3067 40.5166C24.2317 40.5644 24.1446 40.5897 24.0557 40.5897Z" fill="black"/>
</svg>
