<svg width="70" height="70" viewBox="0 0 70 70" fill="none" xmlns="http://www.w3.org/2000/svg">
<path d="M62.5766 59.08H7.4231C6.69223 59.079 5.99158 58.7882 5.47482 58.2714C4.95806 57.7545 4.66737 57.0538 4.6665 56.3229V43.6044C4.66737 42.8735 4.95806 42.1728 5.47482 41.656C5.99158 41.1391 6.69223 40.8483 7.4231 40.8474H62.5766C63.3074 40.8483 64.0081 41.1391 64.5249 41.656C65.0416 42.1728 65.3323 42.8735 65.3332 43.6044V56.3229C65.3323 57.0538 65.0416 57.7545 64.5249 58.2714C64.0081 58.7882 63.3074 59.079 62.5766 59.08ZM7.4231 41.7807C6.93965 41.7813 6.47619 41.9737 6.13438 42.3156C5.79257 42.6574 5.60033 43.121 5.59984 43.6044V56.3229C5.60033 56.8064 5.79257 57.2699 6.13438 57.6118C6.47619 57.9537 6.93965 58.1461 7.4231 58.1467H62.5766C63.06 58.1461 63.5235 57.9537 63.8653 57.6118C64.2071 57.2699 64.3993 56.8064 64.3998 56.3229V43.6044C64.3993 43.121 64.2071 42.6574 63.8653 42.3156C63.5235 41.9737 63.06 41.7813 62.5766 41.7807H7.4231Z" fill="black"/>
<path d="M19.6532 62.5637H12.5365C12.4127 62.5637 12.294 62.5146 12.2065 62.427C12.119 62.3395 12.0698 62.2208 12.0698 62.0971V58.6134C12.0698 58.4896 12.119 58.3709 12.2065 58.2834C12.294 58.1959 12.4127 58.1467 12.5365 58.1467H19.6532C19.7769 58.1467 19.8956 58.1959 19.9831 58.2834C20.0707 58.3709 20.1198 58.4896 20.1198 58.6134V62.0994C20.1192 62.2228 20.0698 62.3409 19.9823 62.4279C19.8949 62.5149 19.7765 62.5637 19.6532 62.5637ZM13.0032 61.6304H19.1865V59.0801H13.0032V61.6304Z" fill="black"/>
<path d="M57.4642 62.5637H50.3475C50.2238 62.5637 50.1051 62.5146 50.0175 62.427C49.93 62.3395 49.8809 62.2208 49.8809 62.0971V58.6134C49.8809 58.4896 49.93 58.3709 50.0175 58.2834C50.1051 58.1959 50.2238 58.1467 50.3475 58.1467H57.4642C57.588 58.1467 57.7067 58.1959 57.7942 58.2834C57.8817 58.3709 57.9309 58.4896 57.9309 58.6134V62.0994C57.9302 62.2228 57.8808 62.3409 57.7933 62.4279C57.7059 62.5149 57.5876 62.5637 57.4642 62.5637ZM50.8142 61.6304H56.9975V59.0801H50.8142V61.6304Z" fill="black"/>
<path d="M57.3901 41.7831H52.1266C52.063 41.7832 52.0001 41.7703 51.9417 41.7453C51.8834 41.7202 51.8307 41.6835 51.787 41.6373C51.7433 41.5912 51.7095 41.5366 51.6876 41.4769C51.6658 41.4173 51.6564 41.3538 51.6599 41.2903L52.8779 19.6692C52.88 19.6076 52.8945 19.547 52.9207 19.4912C52.9468 19.4354 52.984 19.3855 53.0299 19.3444C53.0759 19.3034 53.1297 19.2721 53.1881 19.2524C53.2466 19.2328 53.3083 19.2252 53.3698 19.23C53.431 19.2335 53.4909 19.249 53.5461 19.2756C53.6013 19.3022 53.6507 19.3394 53.6916 19.3852C53.7324 19.4309 53.7638 19.4842 53.784 19.542C53.8042 19.5999 53.8128 19.6612 53.8094 19.7224L52.6194 40.8498H56.8954L55.7008 19.7266C55.6938 19.6028 55.7362 19.4813 55.8188 19.3889C55.9014 19.2964 56.0173 19.2405 56.1411 19.2335C56.2648 19.2266 56.3863 19.269 56.4788 19.3516C56.5712 19.4342 56.6271 19.5501 56.6341 19.6738L57.8572 41.2903C57.8608 41.3538 57.8514 41.4173 57.8295 41.4769C57.8077 41.5366 57.7738 41.5912 57.7301 41.6373C57.6865 41.6835 57.6338 41.7202 57.5754 41.7453C57.517 41.7703 57.4541 41.7832 57.3906 41.7831H57.3901Z" fill="black"/>
<path d="M47.7825 11.2546C47.6902 11.2546 47.6 11.2272 47.5233 11.1759C47.4465 11.1246 47.3867 11.0518 47.3514 10.9665C47.3161 10.8812 47.3069 10.7874 47.3249 10.6969C47.3429 10.6064 47.3873 10.5233 47.4526 10.458C49.3916 8.52321 52.019 7.43661 54.7582 7.43661C57.4974 7.43661 60.1248 8.52321 62.0639 10.458C62.1489 10.546 62.1959 10.6639 62.1949 10.7863C62.1938 10.9086 62.1447 11.0257 62.0582 11.1122C61.9717 11.1987 61.8546 11.2478 61.7323 11.2488C61.6099 11.2499 61.492 11.2029 61.404 11.1179C59.6399 9.35816 57.2499 8.36994 54.7582 8.36994C52.2665 8.36994 49.8765 9.35816 48.1124 11.1179C48.0249 11.2054 47.9062 11.2546 47.7825 11.2546Z" fill="black"/>
<path d="M59.094 13.8941C59.0327 13.8943 58.9719 13.8823 58.9153 13.8588C58.8587 13.8353 58.8072 13.8009 58.764 13.7574C57.7006 12.6968 56.26 12.1013 54.7582 12.1013C53.2563 12.1013 51.8157 12.6968 50.7523 13.7574C50.6643 13.8424 50.5464 13.8894 50.424 13.8884C50.3017 13.8873 50.1846 13.8382 50.0981 13.7517C50.0116 13.6652 49.9625 13.5481 49.9614 13.4258C49.9604 13.3034 50.0074 13.1855 50.0924 13.0975C51.3309 11.8613 53.0092 11.167 54.7591 11.167C56.509 11.167 58.1873 11.8613 59.4258 13.0975C59.491 13.1628 59.5354 13.2459 59.5534 13.3364C59.5714 13.4269 59.5622 13.5208 59.5269 13.606C59.4916 13.6913 59.4318 13.7642 59.355 13.8154C59.2783 13.8667 59.1881 13.8941 59.0958 13.8941H59.094Z" fill="black"/>
<path d="M54.7584 20.629C54.1917 20.629 53.6377 20.4609 53.1665 20.1461C52.6953 19.8312 52.328 19.3837 52.1112 18.8601C51.8943 18.3366 51.8376 17.7604 51.9481 17.2046C52.0587 16.6488 52.3316 16.1382 52.7323 15.7375C53.133 15.3368 53.6436 15.0639 54.1994 14.9533C54.7552 14.8428 55.3313 14.8995 55.8549 15.1164C56.3785 15.3333 56.826 15.7005 57.1408 16.1717C57.4557 16.6429 57.6237 17.1969 57.6237 17.7636C57.623 18.5233 57.3209 19.2517 56.7837 19.7889C56.2465 20.3261 55.5181 20.6282 54.7584 20.629Z" fill="#FEDD15"/>
<path d="M54.7584 20.629C54.1917 20.629 53.6377 20.4609 53.1665 20.1461C52.6953 19.8312 52.328 19.3837 52.1112 18.8601C51.8943 18.3366 51.8376 17.7604 51.9481 17.2046C52.0587 16.6488 52.3316 16.1382 52.7323 15.7375C53.133 15.3368 53.6436 15.0639 54.1994 14.9533C54.7552 14.8428 55.3313 14.8995 55.8549 15.1164C56.3785 15.3333 56.826 15.7005 57.1408 16.1717C57.4557 16.6429 57.6237 17.1969 57.6237 17.7636C57.623 18.5233 57.3209 19.2517 56.7837 19.7889C56.2465 20.3261 55.5181 20.6282 54.7584 20.629ZM54.7584 15.8316C54.3763 15.8316 54.0028 15.9449 53.685 16.1572C53.3673 16.3695 53.1197 16.6712 52.9735 17.0243C52.8272 17.3773 52.789 17.7658 52.8635 18.1405C52.9381 18.5153 53.1221 18.8596 53.3923 19.1298C53.6625 19.3999 54.0067 19.584 54.3815 19.6585C54.7563 19.733 55.1447 19.6948 55.4977 19.5486C55.8508 19.4023 56.1525 19.1547 56.3648 18.837C56.5771 18.5193 56.6904 18.1457 56.6904 17.7636C56.6898 17.2514 56.486 16.7604 56.1238 16.3982C55.7617 16.036 55.2706 15.8322 54.7584 15.8316Z" fill="black"/>
<path d="M17.8735 41.7828H12.61C12.5464 41.7829 12.4835 41.77 12.4251 41.745C12.3668 41.7199 12.3141 41.6832 12.2704 41.637C12.2267 41.5909 12.1929 41.5363 12.171 41.4766C12.1492 41.417 12.1398 41.3534 12.1433 41.29L13.3613 19.6689C13.3629 19.6071 13.377 19.5463 13.403 19.4902C13.429 19.4341 13.4661 19.384 13.5122 19.3428C13.5583 19.3017 13.6123 19.2704 13.671 19.251C13.7296 19.2315 13.7916 19.2243 13.8532 19.2297C13.9144 19.2332 13.9743 19.2487 14.0295 19.2753C14.0847 19.3019 14.1341 19.3391 14.175 19.3848C14.2158 19.4306 14.2472 19.4839 14.2674 19.5417C14.2876 19.5996 14.2962 19.6609 14.2928 19.7221L13.1028 40.8495H17.3788L16.1856 19.7263C16.1787 19.6028 16.2211 19.4817 16.3034 19.3895C16.3857 19.2973 16.5013 19.2415 16.6247 19.2344C16.7476 19.2298 16.8675 19.273 16.9593 19.3548C17.0511 19.4367 17.1076 19.5509 17.117 19.6735L18.3402 41.29C18.3437 41.3534 18.3343 41.417 18.3124 41.4766C18.2906 41.5363 18.2568 41.5909 18.2131 41.637C18.1694 41.6832 18.1167 41.7199 18.0583 41.745C18 41.77 17.9371 41.7829 17.8735 41.7828Z" fill="black"/>
<path d="M8.26588 11.2546C8.1736 11.2546 8.08339 11.2272 8.00667 11.1759C7.92995 11.1246 7.87015 11.0518 7.83483 10.9665C7.79952 10.8812 7.79028 10.7874 7.80828 10.6969C7.82628 10.6064 7.87071 10.5233 7.93595 10.458C9.87502 8.52321 12.5024 7.43661 15.2416 7.43661C17.9808 7.43661 20.6082 8.52321 22.5473 10.458C22.6347 10.5456 22.6838 10.6644 22.6836 10.7882C22.6835 10.912 22.6342 11.0307 22.5466 11.1181C22.459 11.2055 22.3402 11.2546 22.2164 11.2545C22.0926 11.2543 21.9739 11.205 21.8865 11.1174C20.1224 9.3577 17.7324 8.36948 15.2407 8.36948C12.749 8.36948 10.359 9.3577 8.59488 11.1174C8.55182 11.1609 8.50057 11.1954 8.4441 11.2189C8.38764 11.2424 8.32706 11.2546 8.26588 11.2546Z" fill="black"/>
<path d="M19.5774 13.8941C19.5161 13.8943 19.4553 13.8823 19.3987 13.8588C19.3421 13.8353 19.2906 13.8009 19.2474 13.7574C18.184 12.6968 16.7434 12.1013 15.2416 12.1013C13.7397 12.1013 12.2991 12.6968 11.2357 13.7574C11.1477 13.8424 11.0298 13.8894 10.9074 13.8884C10.7851 13.8873 10.668 13.8382 10.5815 13.7517C10.495 13.6652 10.4459 13.5481 10.4448 13.4258C10.4438 13.3034 10.4908 13.1855 10.5758 13.0975C11.8143 11.8613 13.4926 11.167 15.2425 11.167C16.9923 11.167 18.6707 11.8613 19.9092 13.0975C19.9744 13.1628 20.0188 13.2459 20.0368 13.3364C20.0548 13.4269 20.0456 13.5208 20.0103 13.606C19.975 13.6913 19.9152 13.7642 19.8384 13.8154C19.7617 13.8667 19.6715 13.8941 19.5792 13.8941H19.5774Z" fill="black"/>
<path d="M15.2418 20.629C14.6751 20.629 14.1211 20.4609 13.6499 20.1461C13.1787 19.8312 12.8114 19.3837 12.5946 18.8601C12.3777 18.3366 12.321 17.7604 12.4315 17.2046C12.5421 16.6488 12.815 16.1382 13.2157 15.7375C13.6164 15.3368 14.127 15.0639 14.6828 14.9533C15.2386 14.8428 15.8147 14.8995 16.3383 15.1164C16.8619 15.3333 17.3094 15.7005 17.6242 16.1717C17.9391 16.6429 18.1071 17.1969 18.1071 17.7636C18.1064 18.5233 17.8043 19.2517 17.2671 19.7889C16.7299 20.3261 16.0015 20.6282 15.2418 20.629Z" fill="#FEDD15"/>
<path d="M15.2418 20.629C14.6751 20.629 14.1211 20.4609 13.6499 20.1461C13.1787 19.8312 12.8114 19.3837 12.5946 18.8601C12.3777 18.3366 12.321 17.7604 12.4315 17.2046C12.5421 16.6488 12.815 16.1382 13.2157 15.7375C13.6164 15.3368 14.127 15.0639 14.6828 14.9533C15.2386 14.8428 15.8147 14.8995 16.3383 15.1164C16.8619 15.3333 17.3094 15.7005 17.6242 16.1717C17.9391 16.6429 18.1071 17.1969 18.1071 17.7636C18.1064 18.5233 17.8043 19.2517 17.2671 19.7889C16.7299 20.3261 16.0015 20.6282 15.2418 20.629ZM15.2418 15.8316C14.8597 15.8316 14.4862 15.9449 14.1684 16.1572C13.8507 16.3695 13.6031 16.6712 13.4569 17.0243C13.3106 17.3773 13.2724 17.7658 13.3469 18.1405C13.4215 18.5153 13.6055 18.8596 13.8757 19.1298C14.1459 19.3999 14.4901 19.584 14.8649 19.6585C15.2397 19.733 15.6281 19.6948 15.9811 19.5486C16.3342 19.4023 16.6359 19.1547 16.8482 18.837C17.0605 18.5193 17.1738 18.1457 17.1738 17.7636C17.1732 17.2514 16.9694 16.7604 16.6072 16.3982C16.2451 16.036 15.754 15.8322 15.2418 15.8316Z" fill="black"/>
<path d="M59.0941 55.097C58.9703 55.097 58.8516 55.0479 58.7641 54.9604C58.6766 54.8728 58.6274 54.7541 58.6274 54.6304V45.297C58.6274 45.1733 58.6766 45.0546 58.7641 44.967C58.8516 44.8795 58.9703 44.8304 59.0941 44.8304C59.2179 44.8304 59.3366 44.8795 59.4241 44.967C59.5116 45.0546 59.5608 45.1733 59.5608 45.297V54.6304C59.5608 54.7541 59.5116 54.8728 59.4241 54.9604C59.3366 55.0479 59.2179 55.097 59.0941 55.097Z" fill="black"/>
<path d="M53.6512 55.097C53.5275 55.097 53.4088 55.0479 53.3213 54.9604C53.2337 54.8728 53.1846 54.7541 53.1846 54.6304V45.297C53.1846 45.1733 53.2337 45.0546 53.3213 44.967C53.4088 44.8795 53.5275 44.8304 53.6512 44.8304C53.775 44.8304 53.8937 44.8795 53.9812 44.967C54.0687 45.0546 54.1179 45.1733 54.1179 45.297V54.6304C54.1179 54.7541 54.0687 54.8728 53.9812 54.9604C53.8937 55.0479 53.775 55.097 53.6512 55.097Z" fill="black"/>
<path d="M48.2064 55.097C48.0826 55.097 47.9639 55.0479 47.8764 54.9604C47.7889 54.8728 47.7397 54.7541 47.7397 54.6304V45.297C47.7397 45.1733 47.7889 45.0546 47.8764 44.967C47.9639 44.8795 48.0826 44.8304 48.2064 44.8304C48.3302 44.8304 48.4489 44.8795 48.5364 44.967C48.6239 45.0546 48.6731 45.1733 48.6731 45.297V54.6304C48.6731 54.7541 48.6239 54.8728 48.5364 54.9604C48.4489 55.0479 48.3302 55.097 48.2064 55.097Z" fill="black"/>
<path d="M42.7645 55.097C42.6408 55.097 42.5221 55.0479 42.4345 54.9604C42.347 54.8728 42.2979 54.7541 42.2979 54.6304V45.297C42.2979 45.1733 42.347 45.0546 42.4345 44.967C42.5221 44.8795 42.6408 44.8304 42.7645 44.8304C42.8883 44.8304 43.007 44.8795 43.0945 44.967C43.182 45.0546 43.2312 45.1733 43.2312 45.297V54.6304C43.2312 54.7541 43.182 54.8728 43.0945 54.9604C43.007 55.0479 42.8883 55.097 42.7645 55.097Z" fill="black"/>
<path d="M12.6094 53.3472C11.9402 53.3472 11.2861 53.1487 10.7297 52.777C10.1733 52.4052 9.73969 51.8768 9.48362 51.2586C9.22754 50.6404 9.16054 49.9601 9.29109 49.3038C9.42163 48.6475 9.74386 48.0446 10.217 47.5715C10.6902 47.0983 11.293 46.7761 11.9494 46.6455C12.6057 46.515 13.2859 46.582 13.9042 46.838C14.5224 47.0941 15.0508 47.5278 15.4225 48.0842C15.7943 48.6405 15.9927 49.2947 15.9927 49.9638C15.9919 50.8609 15.6351 51.721 15.0008 52.3553C14.3665 52.9896 13.5065 53.3463 12.6094 53.3472Z" fill="#FEDD15"/>
<path d="M12.6094 53.3472C11.9402 53.3472 11.2861 53.1487 10.7297 52.777C10.1733 52.4052 9.73969 51.8768 9.48362 51.2586C9.22754 50.6404 9.16054 49.9601 9.29109 49.3038C9.42163 48.6475 9.74386 48.0446 10.217 47.5715C10.6902 47.0983 11.293 46.7761 11.9494 46.6455C12.6057 46.515 13.2859 46.582 13.9042 46.838C14.5224 47.0941 15.0508 47.5278 15.4225 48.0842C15.7943 48.6405 15.9927 49.2947 15.9927 49.9638C15.9919 50.8609 15.6351 51.721 15.0008 52.3553C14.3665 52.9896 13.5065 53.3463 12.6094 53.3472ZM12.6094 47.5138C12.1248 47.5138 11.6512 47.6575 11.2483 47.9267C10.8454 48.1959 10.5313 48.5786 10.3459 49.0263C10.1605 49.4739 10.112 49.9666 10.2065 50.4418C10.301 50.9171 10.5344 51.3536 10.877 51.6963C11.2196 52.0389 11.6562 52.2722 12.1314 52.3668C12.6067 52.4613 13.0993 52.4128 13.547 52.2273C13.9947 52.0419 14.3773 51.7279 14.6465 51.325C14.9157 50.9221 15.0594 50.4484 15.0594 49.9638C15.0587 49.3143 14.8003 48.6916 14.341 48.2322C13.8817 47.7729 13.259 47.5146 12.6094 47.5138Z" fill="black"/>
<path d="M23.1509 53.3472C22.4818 53.3472 21.8276 53.1487 21.2712 52.777C20.7148 52.4052 20.2812 51.8768 20.0251 51.2586C19.769 50.6404 19.702 49.9601 19.8326 49.3038C19.9631 48.6475 20.2854 48.0446 20.7585 47.5715C21.2317 47.0983 21.8346 46.7761 22.4909 46.6455C23.1472 46.515 23.8274 46.582 24.4457 46.838C25.0639 47.0941 25.5923 47.5278 25.9641 48.0842C26.3358 48.6405 26.5343 49.2947 26.5343 49.9638C26.5333 50.8609 26.1765 51.7208 25.5422 52.3551C24.9079 52.9894 24.0479 53.3462 23.1509 53.3472Z" fill="#FEDD15"/>
<path d="M23.1509 53.3472C22.4818 53.3472 21.8276 53.1487 21.2712 52.777C20.7148 52.4052 20.2812 51.8768 20.0251 51.2586C19.769 50.6404 19.702 49.9601 19.8326 49.3038C19.9631 48.6475 20.2854 48.0446 20.7585 47.5715C21.2317 47.0983 21.8346 46.7761 22.4909 46.6455C23.1472 46.515 23.8274 46.582 24.4457 46.838C25.0639 47.0941 25.5923 47.5278 25.9641 48.0842C26.3358 48.6405 26.5343 49.2947 26.5343 49.9638C26.5333 50.8609 26.1765 51.7208 25.5422 52.3551C24.9079 52.9894 24.0479 53.3462 23.1509 53.3472ZM23.1509 47.5138C22.6664 47.5138 22.1927 47.6575 21.7898 47.9267C21.3869 48.1959 21.0728 48.5786 20.8874 49.0263C20.702 49.4739 20.6535 49.9666 20.748 50.4418C20.8425 50.9171 21.0759 51.3536 21.4185 51.6963C21.7611 52.0389 22.1977 52.2722 22.6729 52.3668C23.1482 52.4613 23.6408 52.4128 24.0885 52.2273C24.5362 52.0419 24.9188 51.7279 25.188 51.325C25.4572 50.9221 25.6009 50.4484 25.6009 49.9638C25.6001 49.3143 25.3416 48.6917 24.8824 48.2324C24.4231 47.7731 23.8004 47.5147 23.1509 47.5138Z" fill="black"/>
</svg>
