<svg width="70" height="70" viewBox="0 0 70 70" fill="none" xmlns="http://www.w3.org/2000/svg">
<path d="M35.1223 56.9176C29.4891 56.9082 24.0798 54.711 20.0356 50.7896C15.9914 46.8682 13.6286 41.5291 13.4457 35.8989C13.4409 35.7753 13.4853 35.6549 13.5692 35.5641C13.6531 35.4733 13.7696 35.4195 13.8932 35.4145C13.9548 35.4105 14.0166 35.4191 14.0748 35.4397C14.133 35.4603 14.1864 35.4926 14.2317 35.5345C14.2771 35.5764 14.3134 35.6271 14.3386 35.6835C14.3638 35.7398 14.3772 35.8008 14.3781 35.8625C14.5523 41.2515 16.813 46.3621 20.6832 50.1162C24.5534 53.8702 29.7305 55.9742 35.1223 55.9842C35.2461 55.9842 35.3648 56.0334 35.4523 56.1209C35.5398 56.2084 35.589 56.3271 35.589 56.4509C35.589 56.5747 35.5398 56.6934 35.4523 56.7809C35.3648 56.8684 35.2461 56.9176 35.1223 56.9176Z" fill="black"/>
<path d="M56.3399 34.7199C56.2188 34.72 56.1025 34.673 56.0154 34.5889C55.9283 34.5048 55.8773 34.3901 55.8732 34.2691C55.7387 28.8538 53.4937 23.7053 49.6171 19.9217C45.7405 16.138 40.539 14.0188 35.1219 14.0158C34.9982 14.0158 34.8795 13.9666 34.792 13.8791C34.7044 13.7916 34.6553 13.6729 34.6553 13.5491C34.6553 13.4254 34.7044 13.3067 34.792 13.2192C34.8795 13.1316 34.9982 13.0825 35.1219 13.0825C40.781 13.0848 46.2153 15.2978 50.2661 19.2496C54.3169 23.2013 56.6637 28.5792 56.8061 34.2365C56.8101 34.3601 56.7649 34.4803 56.6804 34.5706C56.5958 34.6609 56.4789 34.7139 56.3553 34.7181L56.3399 34.7199Z" fill="black"/>
<path d="M56.3686 34.7409C56.2696 34.741 56.1732 34.7096 56.0932 34.6513L51.2824 31.1387C51.1824 31.0657 51.1155 30.9559 51.0964 30.8336C51.0773 30.7112 51.1076 30.5863 51.1806 30.4863C51.2537 30.3863 51.3634 30.3194 51.4858 30.3003C51.6081 30.2812 51.733 30.3115 51.833 30.3846L56.2664 33.6223L59.5036 29.1889C59.5398 29.1394 59.5854 29.0975 59.6377 29.0656C59.6901 29.0337 59.7482 29.0124 59.8088 29.003C59.8694 28.9935 59.9312 28.9961 59.9908 29.0106C60.0504 29.025 60.1065 29.0511 60.156 29.0872C60.2056 29.1234 60.2475 29.1689 60.2794 29.2213C60.3113 29.2736 60.3326 29.3318 60.342 29.3923C60.3515 29.4529 60.3489 29.5148 60.3344 29.5744C60.32 29.6339 60.2939 29.6901 60.2578 29.7396L56.747 34.5496C56.711 34.5992 56.6654 34.6413 56.613 34.6733C56.5607 34.7053 56.5025 34.7267 56.4418 34.7362C56.4176 34.7395 56.3931 34.741 56.3686 34.7409Z" fill="black"/>
<path d="M10.1191 40.9268C10.0306 40.9268 9.94394 40.9015 9.86925 40.8541C9.79455 40.8066 9.73488 40.7389 9.69722 40.6588C9.65955 40.5787 9.64543 40.4896 9.6565 40.4018C9.66758 40.314 9.70339 40.2311 9.75976 40.1629L13.5589 35.5742C13.6378 35.479 13.7513 35.4191 13.8744 35.4076C13.9354 35.401 13.9971 35.4069 14.0558 35.4249C14.1144 35.443 14.1688 35.4728 14.2155 35.5126L18.8038 39.3112C18.851 39.3503 18.89 39.3983 18.9187 39.4524C18.9474 39.5066 18.9651 39.5659 18.9709 39.6269C18.9766 39.6879 18.9703 39.7495 18.9523 39.808C18.9343 39.8666 18.9049 39.9211 18.8658 39.9683C18.8268 40.0155 18.7788 40.0546 18.7246 40.0833C18.6705 40.1119 18.6112 40.1296 18.5502 40.1354C18.4891 40.1412 18.4276 40.1349 18.369 40.1168C18.3104 40.0988 18.256 40.0694 18.2088 40.0304L13.9798 36.5304L10.4798 40.7593C10.4358 40.8121 10.3806 40.8545 10.3182 40.8834C10.2558 40.9124 10.1879 40.9272 10.1191 40.9268Z" fill="black"/>
<path d="M19.1756 33.6854C16.3059 33.6854 13.5006 32.8344 11.1145 31.2401C8.72837 29.6457 6.86864 27.3796 5.77045 24.7283C4.67227 22.077 4.38496 19.1595 4.94485 16.3449C5.50475 13.5303 6.8867 10.945 8.91595 8.91579C10.9452 6.8866 13.5306 5.50473 16.3452 4.94493C19.1598 4.38513 22.0773 4.67253 24.7285 5.7708C27.3798 6.86907 29.6459 8.72887 31.2401 11.115C32.8344 13.5012 33.6853 16.3065 33.6852 19.1763C33.6809 23.0231 32.1508 26.7111 29.4307 29.4312C26.7105 32.1512 23.0224 33.6812 19.1756 33.6854Z" fill="#FEDD15"/>
<path d="M50.8245 65.3334C47.9548 65.3335 45.1495 64.4826 42.7633 62.8883C40.3771 61.2941 38.5173 59.028 37.4191 56.3767C36.3208 53.7255 36.0334 50.808 36.5932 47.9934C37.153 45.1788 38.5349 42.5934 40.5641 40.5641C42.5932 38.5349 45.1786 37.1529 47.9932 36.593C50.8078 36.0332 53.7252 36.3205 56.3765 37.4186C59.0278 38.5168 61.294 40.3766 62.8883 42.7627C64.4827 45.1488 65.3337 47.9541 65.3337 50.8238C65.3293 54.6706 63.7993 58.3586 61.0793 61.0787C58.3592 63.7989 54.6713 65.329 50.8245 65.3334Z" fill="#FEDD15"/>
<path d="M50.8243 59.8127C47.9823 59.8127 45.6704 57.6898 45.6704 55.0807C45.6704 54.9569 45.7196 54.8382 45.8071 54.7507C45.8946 54.6632 46.0133 54.614 46.1371 54.614C46.2608 54.614 46.3795 54.6632 46.4671 54.7507C46.5546 54.8382 46.6037 54.9569 46.6037 55.0807C46.6037 57.1755 48.497 58.8793 50.8243 58.8793C53.1515 58.8793 55.0443 57.1755 55.0443 55.0807C55.0443 52.9858 53.1515 51.2904 50.8243 51.2904C47.9823 51.2904 45.6704 49.168 45.6704 46.5593C45.6704 43.9507 47.9823 41.8353 50.8243 41.8353C53.6663 41.8353 55.9777 43.9544 55.9777 46.5593C55.9777 46.6831 55.9285 46.8018 55.841 46.8893C55.7535 46.9768 55.6348 47.026 55.511 47.026C55.3872 47.026 55.2685 46.9768 55.181 46.8893C55.0935 46.8018 55.0443 46.6831 55.0443 46.5593C55.0443 44.4691 53.1515 42.7686 50.8243 42.7686C48.497 42.7686 46.6037 44.4691 46.6037 46.5593C46.6037 48.6495 48.497 50.3571 50.8243 50.3571C53.6658 50.3571 55.9777 52.4762 55.9777 55.0807C55.9777 57.6851 53.6667 59.8127 50.8243 59.8127Z" fill="black"/>
<path d="M50.8241 61.5535C50.7003 61.5535 50.5816 61.5043 50.4941 61.4168C50.4066 61.3293 50.3574 61.2106 50.3574 61.0868V40.5614C50.3574 40.4377 50.4066 40.319 50.4941 40.2314C50.5816 40.1439 50.7003 40.0948 50.8241 40.0948C50.9479 40.0948 51.0666 40.1439 51.1541 40.2314C51.2416 40.319 51.2908 40.4377 51.2908 40.5614V61.0868C51.2908 61.2106 51.2416 61.3293 51.1541 61.4168C51.0666 61.5043 50.9479 61.5535 50.8241 61.5535Z" fill="black"/>
<mask id="path-9-inside-1" fill="white">
<path fill-rule="evenodd" clip-rule="evenodd" d="M20.1826 11.3314C19.5139 10.8895 18.646 10.8895 17.9773 11.3314L11.3922 15.6831C11.3424 15.716 11.3319 15.7848 11.3696 15.8311C11.407 15.877 11.3967 15.9448 11.3516 15.9833C11.1364 16.1667 11 16.4397 11 16.7446V26.4973C11 27.0496 11.4477 27.4973 12 27.4973H26.16C26.7123 27.4973 27.16 27.0496 27.16 26.4973V16.7446C27.16 16.4396 27.0235 16.1666 26.8083 15.9832C26.7632 15.9448 26.7529 15.877 26.7903 15.8311C26.828 15.7848 26.8175 15.7161 26.7677 15.6832L20.1826 11.3314Z"/>
</mask>
<path fill-rule="evenodd" clip-rule="evenodd" d="M20.1826 11.3314C19.5139 10.8895 18.646 10.8895 17.9773 11.3314L11.3922 15.6831C11.3424 15.716 11.3319 15.7848 11.3696 15.8311C11.407 15.877 11.3967 15.9448 11.3516 15.9833C11.1364 16.1667 11 16.4397 11 16.7446V26.4973C11 27.0496 11.4477 27.4973 12 27.4973H26.16C26.7123 27.4973 27.16 27.0496 27.16 26.4973V16.7446C27.16 16.4396 27.0235 16.1666 26.8083 15.9832C26.7632 15.9448 26.7529 15.877 26.7903 15.8311C26.828 15.7848 26.8175 15.7161 26.7677 15.6832L20.1826 11.3314Z" fill="white"/>
<path d="M26.8083 15.9832L26.1597 16.7443L26.8083 15.9832ZM11.3516 15.9833L12.0003 16.7443L11.3516 15.9833ZM26.7677 15.6832L27.319 14.8489L26.7677 15.6832ZM11.3922 15.6831L11.9435 16.5174L11.3922 15.6831ZM11.9435 16.5174L18.5286 12.1657L17.4259 10.4971L10.8409 14.8488L11.9435 16.5174ZM12 16.7446L12.0003 16.7443L10.7028 15.2223C10.2743 15.5876 10 16.1346 10 16.7446H12ZM12 26.4973V16.7446H10V26.4973H12ZM12 26.4973H12H10C10 27.6019 10.8954 28.4973 12 28.4973V26.4973ZM26.16 26.4973H12V28.4973H26.16V26.4973ZM26.16 26.4973V26.4973V28.4973C27.2646 28.4973 28.16 27.6019 28.16 26.4973H26.16ZM26.16 16.7446V26.4973H28.16V16.7446H26.16ZM26.1597 16.7443L26.16 16.7446H28.16C28.16 16.1344 27.8856 15.5874 27.4569 15.2221L26.1597 16.7443ZM19.6313 12.1657L26.2164 16.5174L27.319 14.8489L20.7339 10.4971L19.6313 12.1657ZM27.4569 15.2221C27.7713 15.49 27.9149 16.0339 27.5655 16.4627L26.0151 15.1994C25.5908 15.72 25.7551 16.3995 26.1597 16.7443L27.4569 15.2221ZM10.5944 16.4628C10.245 16.034 10.3885 15.4902 10.7028 15.2223L12.0003 16.7443C12.4048 16.3995 12.569 15.72 12.1448 15.1994L10.5944 16.4628ZM18.5286 12.1657C18.8629 11.9448 19.2969 11.9448 19.6313 12.1657L20.7339 10.4971C19.7309 9.83429 18.429 9.83429 17.4259 10.4971L18.5286 12.1657ZM27.5655 16.4627C27.977 15.9578 27.8624 15.208 27.319 14.8489L26.2164 16.5174C25.7726 16.2242 25.679 15.6118 26.0151 15.1994L27.5655 16.4627ZM10.8409 14.8488C10.2974 15.208 10.1829 15.9578 10.5944 16.4628L12.1448 15.1994C12.4808 15.6118 12.3873 16.2241 11.9435 16.5174L10.8409 14.8488Z" fill="black" mask="url(#path-9-inside-1)"/>
<rect x="17" y="18" width="4" height="6" rx="1" fill="#FEDD15"/>
</svg>
