<svg width="70" height="70" viewBox="0 0 70 70" fill="none" xmlns="http://www.w3.org/2000/svg">
<path d="M58.91 65.3341H11.0897C10.9659 65.3341 10.8472 65.2849 10.7597 65.1974C10.6722 65.1099 10.623 64.9912 10.623 64.8674V8.15667C10.623 8.0329 10.6722 7.9142 10.7597 7.82669C10.8472 7.73917 10.9659 7.69 11.0897 7.69H30.3486C30.4723 7.69 30.591 7.73917 30.6786 7.82669C30.7661 7.9142 30.8152 8.0329 30.8152 8.15667C30.8152 8.28044 30.7661 8.39914 30.6786 8.48665C30.591 8.57417 30.4723 8.62334 30.3486 8.62334H11.5564V64.4007H58.4433V8.62334H39.7155C39.5917 8.62334 39.473 8.57417 39.3855 8.48665C39.298 8.39914 39.2488 8.28044 39.2488 8.15667C39.2488 8.0329 39.298 7.9142 39.3855 7.82669C39.473 7.73917 39.5917 7.69 39.7155 7.69H58.91C59.0337 7.69 59.1524 7.73917 59.24 7.82669C59.3275 7.9142 59.3766 8.0329 59.3766 8.15667V64.8674C59.3766 64.9912 59.3275 65.1099 59.24 65.1974C59.1524 65.2849 59.0337 65.3341 58.91 65.3341Z" fill="black"/>
<path d="M53.4226 59.9445H16.3426C16.2189 59.9445 16.1002 59.8953 16.0127 59.8078C15.9251 59.7203 15.876 59.6016 15.876 59.4778V13.9526C15.876 13.8288 15.9251 13.7101 16.0127 13.6226C16.1002 13.5351 16.2189 13.4859 16.3426 13.4859H23.3795C23.5033 13.4859 23.622 13.5351 23.7095 13.6226C23.797 13.7101 23.8462 13.8288 23.8462 13.9526C23.8462 14.0764 23.797 14.1951 23.7095 14.2826C23.622 14.3701 23.5033 14.4193 23.3795 14.4193H16.8093V59.0111H52.9559V14.4193H46.6092C46.4855 14.4193 46.3668 14.3701 46.2793 14.2826C46.1917 14.1951 46.1426 14.0764 46.1426 13.9526C46.1426 13.8288 46.1917 13.7101 46.2793 13.6226C46.3668 13.5351 46.4855 13.4859 46.6092 13.4859H53.4226C53.5463 13.4859 53.665 13.5351 53.7526 13.6226C53.8401 13.7101 53.8892 13.8288 53.8892 13.9526V59.4778C53.8892 59.6016 53.8401 59.7203 53.7526 59.8078C53.665 59.8953 53.5463 59.9445 53.4226 59.9445Z" fill="black"/>
<path d="M46.61 15.796H23.3802C23.2565 15.796 23.1378 15.7468 23.0503 15.6593C22.9627 15.5718 22.9136 15.4531 22.9136 15.3293V8.15667C22.9136 8.0329 22.9627 7.9142 23.0503 7.82669C23.1378 7.73917 23.2565 7.69 23.3802 7.69H30.349C30.4727 7.69 30.5914 7.73917 30.679 7.82669C30.7665 7.9142 30.8156 8.0329 30.8156 8.15667C30.8156 8.28044 30.7665 8.39914 30.679 8.48665C30.5914 8.57417 30.4727 8.62334 30.349 8.62334H23.8469V14.8627H46.1433V8.62334H39.7159C39.5921 8.62334 39.4734 8.57417 39.3859 8.48665C39.2984 8.39914 39.2492 8.28044 39.2492 8.15667C39.2492 8.0329 39.2984 7.9142 39.3859 7.82669C39.4734 7.73917 39.5921 7.69 39.7159 7.69H46.61C46.7337 7.69 46.8524 7.73917 46.9399 7.82669C47.0275 7.9142 47.0766 8.0329 47.0766 8.15667V15.3293C47.0766 15.4531 47.0275 15.5718 46.9399 15.6593C46.8524 15.7468 46.7337 15.796 46.61 15.796Z" fill="black"/>
<path d="M39.7159 11.9032H30.349C30.2252 11.9032 30.1065 11.8541 30.019 11.7665C29.9315 11.679 29.8823 11.5603 29.8823 11.4366V5.13283C29.8823 5.00907 29.9315 4.89037 30.019 4.80285C30.1065 4.71533 30.2252 4.66617 30.349 4.66617H39.7159C39.8397 4.66617 39.9584 4.71533 40.0459 4.80285C40.1334 4.89037 40.1826 5.00907 40.1826 5.13283V11.4366C40.1826 11.5603 40.1334 11.679 40.0459 11.7665C39.9584 11.8541 39.8397 11.9032 39.7159 11.9032ZM30.8157 10.9699H39.2493V5.5995H30.8157V10.9699Z" fill="black"/>
<path d="M34.8824 47.1464C32.7121 47.1464 30.5906 46.5028 28.7861 45.2971C26.9815 44.0914 25.5751 42.3776 24.7445 40.3726C23.914 38.3675 23.6966 36.1612 24.12 34.0326C24.5434 31.904 25.5884 29.9488 27.123 28.4141C28.6576 26.8795 30.6128 25.8344 32.7413 25.4109C34.8699 24.9875 37.0762 25.2047 39.0813 26.0352C41.0864 26.8656 42.8002 28.272 44.006 30.0765C45.2119 31.881 45.8555 34.0025 45.8556 36.1727C45.8524 39.0821 44.6953 41.8713 42.6381 43.9286C40.5809 45.9858 37.7917 47.1431 34.8824 47.1464Z" fill="#FEDD15"/>
<path d="M33.296 40.4805C33.1723 40.4805 33.0536 40.4313 32.9661 40.3438L29.4054 36.7836C29.3204 36.6956 29.2734 36.5777 29.2744 36.4553C29.2755 36.333 29.3246 36.2159 29.4111 36.1294C29.4976 36.0429 29.6147 35.9938 29.737 35.9927C29.8594 35.9917 29.9773 36.0387 30.0653 36.1237L33.296 39.354L39.7005 32.949C39.7886 32.864 39.9064 32.8169 40.0288 32.818C40.1512 32.819 40.2682 32.8681 40.3547 32.9546C40.4412 33.0412 40.4903 33.1582 40.4914 33.2806C40.4925 33.4029 40.4454 33.5208 40.3604 33.6088L33.6259 40.3438C33.5384 40.4313 33.4198 40.4805 33.296 40.4805Z" fill="black"/>
</svg>
