<svg width="70" height="70" viewBox="0 0 70 70" fill="none" xmlns="http://www.w3.org/2000/svg">
<path d="M44.9963 65.3333C39.6038 65.3279 34.4336 63.1836 30.62 59.3709C28.3485 57.1 26.6899 53.5194 26 50.5C25.3064 47.4644 25.5877 44.996 25.5877 44.996L33.0003 43.5L39.5 38.5L44.0003 32.5L44.9963 24.654C44.9963 24.654 55.5642 26.7969 59.3786 30.6113C63.1931 34.4258 65.336 39.5992 65.336 44.9937C65.336 50.3881 63.1931 55.5615 59.3786 59.376C55.5642 63.1904 50.3907 65.3333 44.9963 65.3333Z" fill="#FEDD15"/>
<path d="M44.9963 65.3333C39.6037 65.3279 34.4335 63.1836 30.62 59.3709C26.8064 55.5583 24.661 50.3885 24.6543 44.996V44.8793C24.6543 44.7556 24.7035 44.6369 24.791 44.5493C24.8785 44.4618 24.9972 44.4127 25.121 44.4127C25.2447 44.4127 25.3634 44.4618 25.4509 44.5493C25.5385 44.6369 25.5876 44.7556 25.5876 44.8793V44.996C25.5881 48.834 26.7266 52.5857 28.8592 55.7767C30.9917 58.9677 34.0226 61.4547 37.5686 62.9232C41.1145 64.3917 45.0163 64.7759 48.7805 64.027C52.5448 63.2781 56.0024 61.4299 58.7163 58.716C61.4302 56.0021 63.2784 52.5445 64.0273 48.7802C64.7762 45.016 64.3921 41.1142 62.9235 37.5683C61.455 34.0223 58.968 30.9914 55.777 28.8589C52.586 26.7263 48.8343 25.5878 44.9963 25.5873H44.8796C44.7559 25.5873 44.6372 25.5382 44.5496 25.4506C44.4621 25.3631 44.413 25.2444 44.413 25.1207C44.413 24.9969 44.4621 24.8782 44.5496 24.7907C44.6372 24.7032 44.7559 24.654 44.8796 24.654H44.9963C50.3907 24.654 55.5642 26.7969 59.3786 30.6113C63.193 34.4258 65.336 39.5992 65.336 44.9937C65.336 50.3881 63.193 55.5615 59.3786 59.376C55.5642 63.1904 50.3907 65.3333 44.9963 65.3333Z" fill="black"/>
<path d="M25.0057 45.3455C20.983 45.3456 17.0505 44.1528 13.7057 41.9179C10.3609 39.6831 7.75389 36.5066 6.21439 32.7901C4.67489 29.0736 4.27204 24.984 5.05678 21.0386C5.84152 17.0932 7.7786 13.469 10.6231 10.6245C13.4675 7.77994 17.0916 5.84277 21.0371 5.05794C24.9825 4.27311 29.0721 4.67587 32.7886 6.21528C36.5051 7.75469 39.6817 10.3616 41.9166 13.7064C44.1515 17.0512 45.3444 20.9836 45.3444 25.0063C45.3382 30.3986 43.1935 35.5683 39.3806 39.3813C35.5677 43.1943 30.398 45.3392 25.0057 45.3455ZM25.0057 5.60043C21.1676 5.60033 17.4156 6.73839 14.2242 8.87068C11.0329 11.003 8.54553 14.0337 7.07668 17.5797C5.60782 21.1256 5.22345 25.0275 5.97218 28.7919C6.72091 32.5563 8.5691 36.0141 11.283 38.7281C13.997 41.4422 17.4548 43.2904 21.2192 44.0392C24.9835 44.7881 28.8854 44.4038 32.4314 42.935C35.9774 41.4663 39.0082 38.979 41.1406 35.7877C43.2729 32.5964 44.4111 28.8444 44.4111 25.0063C44.4055 19.8613 42.3593 14.9286 38.7213 11.2904C35.0833 7.65225 30.1507 5.60577 25.0057 5.59996V5.60043Z" fill="black"/>
<path d="M25.0037 36.9157C21.1588 36.9157 18.0312 34.139 18.0312 30.7258C18.0312 30.6021 18.0804 30.4834 18.1679 30.3958C18.2555 30.3083 18.3741 30.2592 18.4979 30.2592C18.6217 30.2592 18.7404 30.3083 18.8279 30.3958C18.9154 30.4834 18.9646 30.6021 18.9646 30.7258C18.9646 33.6243 21.6736 35.9824 25.0037 35.9824C28.3338 35.9824 31.0475 33.6243 31.0475 30.7258C31.0475 27.8274 28.3362 25.473 25.0037 25.473C21.1588 25.473 18.0312 22.6964 18.0312 19.2827C18.0312 15.869 21.1579 13.0966 25.0037 13.0966C28.8495 13.0966 31.9809 15.8718 31.9809 19.2827C31.9809 19.4065 31.9317 19.5252 31.8442 19.6127C31.7566 19.7002 31.638 19.7494 31.5142 19.7494C31.3904 19.7494 31.2717 19.7002 31.1842 19.6127C31.0967 19.5252 31.0475 19.4065 31.0475 19.2827C31.0475 16.3866 28.3362 14.0299 25.0037 14.0299C21.6712 14.0299 18.9646 16.3866 18.9646 19.2827C18.9646 22.1788 21.6736 24.5397 25.0037 24.5397C28.8509 24.5397 31.9809 27.3145 31.9809 30.7258C31.9809 34.1372 28.8509 36.9157 25.0037 36.9157Z" fill="black"/>
<path d="M25.0057 39.1067C24.882 39.1067 24.7633 39.0575 24.6757 38.97C24.5882 38.8825 24.5391 38.7638 24.5391 38.64V11.3746C24.5391 11.2508 24.5882 11.1321 24.6757 11.0446C24.7633 10.9571 24.882 10.9079 25.0057 10.9079C25.1295 10.9079 25.2482 10.9571 25.3357 11.0446C25.4232 11.1321 25.4724 11.2508 25.4724 11.3746V38.64C25.4724 38.7638 25.4232 38.8825 25.3357 38.97C25.2482 39.0575 25.1295 39.1067 25.0057 39.1067Z" fill="black"/>
<path d="M51.5014 39.7357C51.3776 39.7357 51.2589 39.6865 51.1714 39.599C51.0839 39.5115 51.0347 39.3928 51.0347 39.269C51.0347 36.3757 48.3281 34.019 44.9961 34.019C44.2933 34.0184 43.5945 34.1246 42.9236 34.334C42.8651 34.3524 42.8036 34.3591 42.7426 34.3537C42.6815 34.3483 42.6221 34.331 42.5678 34.3026C42.5134 34.2743 42.4652 34.2355 42.4259 34.1885C42.3865 34.1416 42.3568 34.0873 42.3384 34.0288C42.32 33.9703 42.3133 33.9088 42.3187 33.8478C42.3241 33.7867 42.3414 33.7273 42.3698 33.673C42.3981 33.6187 42.4369 33.5704 42.4839 33.5311C42.5309 33.4917 42.5851 33.462 42.6436 33.4436C43.4035 33.2061 44.1952 33.0857 44.9914 33.0866C48.8405 33.0866 51.9681 35.8609 51.9681 39.27C51.9678 39.3936 51.9185 39.512 51.831 39.5993C51.7436 39.6866 51.625 39.7357 51.5014 39.7357Z" fill="black"/>
<path d="M44.9957 56.9043C41.1466 56.9043 38.019 54.1263 38.019 50.7121C38.019 50.5884 38.0682 50.4697 38.1557 50.3822C38.2432 50.2946 38.3619 50.2455 38.4857 50.2455C38.6095 50.2455 38.7282 50.2946 38.8157 50.3822C38.9032 50.4697 38.9524 50.5884 38.9524 50.7121C38.9524 53.612 41.6614 55.971 44.991 55.971C48.3207 55.971 51.0344 53.612 51.0344 50.7121C51.0344 47.8123 48.3277 45.4621 44.9957 45.4621C41.2927 45.4621 38.237 42.8955 38.034 39.6199C38.0264 39.4962 38.0682 39.3744 38.1504 39.2815C38.2325 39.1886 38.3482 39.1322 38.4719 39.1246C38.5957 39.117 38.7174 39.1588 38.8103 39.241C38.9032 39.3231 38.9597 39.4388 38.9673 39.5625C39.14 42.3471 41.7864 44.5288 44.9929 44.5288C48.842 44.5288 51.9696 47.3027 51.9696 50.7121C51.9696 54.1216 48.8401 56.9043 44.9957 56.9043Z" fill="black"/>
<path d="M44.994 59.0935C44.8702 59.0935 44.7515 59.0443 44.664 58.9568C44.5765 58.8693 44.5273 58.7506 44.5273 58.6269V31.3628C44.5273 31.239 44.5765 31.1203 44.664 31.0328C44.7515 30.9453 44.8702 30.8961 44.994 30.8961C45.1178 30.8961 45.2365 30.9453 45.324 31.0328C45.4115 31.1203 45.4607 31.239 45.4607 31.3628V58.6269C45.4607 58.7506 45.4115 58.8693 45.324 58.9568C45.2365 59.0443 45.1178 59.0935 44.994 59.0935Z" fill="black"/>
</svg>
