<svg width="70" height="70" viewBox="0 0 70 70" fill="none" xmlns="http://www.w3.org/2000/svg">
<path d="M36.338 50C32.8526 50 30 52.8255 30 56.3109C30 59.7963 32.8526 62.6218 36.338 62.6218C39.8234 62.6218 42.676 59.7963 42.676 56.3109C42.676 52.8255 39.8234 50 36.338 50ZM41.5737 56.3109C41.5737 59.1902 39.2173 61.5243 36.338 61.5243C33.4588 61.5243 31.1023 59.1902 31.1023 56.3109C31.1023 53.4316 33.4588 51.0975 36.338 51.0975C39.2173 51.0975 41.5737 53.4316 41.5737 56.3109Z" fill="black"/>
<path d="M13.338 50C9.85259 50 7 52.8255 7 56.3109C7 59.7963 9.85259 62.6218 13.338 62.6218C16.8234 62.6218 19.676 59.7963 19.676 56.3109C19.676 52.8255 16.8234 50 13.338 50ZM18.5737 56.3109C18.5737 59.1902 16.2173 61.5243 13.338 61.5243C10.4588 61.5243 8.10226 59.1902 8.10226 56.3109C8.10226 53.4316 10.4588 51.0975 13.338 51.0975C16.2173 51.0975 18.5737 53.4316 18.5737 56.3109Z" fill="black"/>
<path d="M59.338 50C55.8526 50 53 52.8255 53 56.3109C53 59.7963 55.8526 62.6218 59.338 62.6218C62.8234 62.6218 65.676 59.7963 65.676 56.3109C65.676 52.8255 62.8234 50 59.338 50ZM64.5737 56.3109C64.5737 59.1902 62.2173 61.5243 59.338 61.5243C56.4588 61.5243 54.1023 59.1902 54.1023 56.3109C54.1023 53.4316 56.4588 51.0975 59.338 51.0975C62.2173 51.0975 64.5737 53.4316 64.5737 56.3109Z" fill="black"/>
<path d="M36.338 10C32.8526 10 30 12.8255 30 16.3109C30 19.7963 32.8526 22.6218 36.338 22.6218C39.8234 22.6218 42.676 19.7963 42.676 16.3109C42.676 12.8255 39.8234 10 36.338 10ZM41.5737 16.3109C41.5737 19.1902 39.2173 21.5243 36.338 21.5243C33.4588 21.5243 31.1023 19.1902 31.1023 16.3109C31.1023 13.4316 33.4588 11.0975 36.338 11.0975C39.2173 11.0975 41.5737 13.4316 41.5737 16.3109Z" fill="black"/>
<path d="M13.338 10C9.85259 10 7 12.8255 7 16.3109C7 19.7963 9.85259 22.6218 13.338 22.6218C16.8234 22.6218 19.676 19.7963 19.676 16.3109C19.676 12.8255 16.8234 10 13.338 10ZM18.5737 16.3109C18.5737 19.1902 16.2173 21.5243 13.338 21.5243C10.4588 21.5243 8.10226 19.1902 8.10226 16.3109C8.10226 13.4316 10.4588 11.0975 13.338 11.0975C16.2173 11.0975 18.5737 13.4316 18.5737 16.3109Z" fill="black"/>
<path d="M59.338 10C55.8526 10 53 12.8255 53 16.3109C53 19.7963 55.8526 22.6218 59.338 22.6218C62.8234 22.6218 65.676 19.7963 65.676 16.3109C65.676 12.8255 62.8234 10 59.338 10ZM64.5737 16.3109C64.5737 19.1902 62.2173 21.5243 59.338 21.5243C56.4588 21.5243 54.1023 19.1902 54.1023 16.3109C54.1023 13.4316 56.4588 11.0975 59.338 11.0975C62.2173 11.0975 64.5737 13.4316 64.5737 16.3109Z" fill="black"/>
<path d="M60.2271 26.0877H59.1249V31.2C59.1249 31.691 58.9218 32.1531 58.5737 32.4997C58.2256 32.8463 57.7615 33.0485 57.2684 33.0485H56.7173V34.146H57.2684C58.0516 34.146 58.8058 33.8283 59.3569 33.2795C59.908 32.7308 60.2271 31.9798 60.2271 31.2V26.0877Z" fill="black"/>
<path d="M58.5737 40.4714C58.9218 40.818 59.1249 41.2801 59.1249 41.7711V46.8834H60.2271V41.7711C60.2271 40.9913 59.908 40.2403 59.3569 39.6916C58.8058 39.1428 58.0516 38.8251 57.2684 38.8251H56.7173V39.9226H57.2684C57.7615 39.9226 58.2256 40.1248 58.5737 40.4714Z" fill="black"/>
<path d="M15.76 34.1749H16.3111V33.0774H15.76C15.2669 33.0774 14.8027 32.8752 14.4547 32.5286C14.1066 32.182 13.9035 31.7199 13.9035 31.2289V26.0877H12.8013V31.2C12.8013 31.9798 13.1203 32.7308 13.6715 33.2795C14.2226 33.8572 14.9768 34.1749 15.76 34.1749Z" fill="black"/>
<path d="M15.76 39.9226H16.3111V38.8251H15.76C14.9768 38.8251 14.2226 39.1428 13.6715 39.6916C13.1203 40.2403 12.8013 40.9913 12.8013 41.7711V46.8834H13.9035V41.7711C13.9035 41.2801 14.1066 40.818 14.4547 40.4714C14.8027 40.1248 15.2669 39.9226 15.76 39.9226Z" fill="black"/>
<path d="M37.0505 16.9608H35.9482V29.1204H37.0505V16.9608Z" fill="black"/>
<path d="M37.0505 44.1684H35.9482V56.0392H37.0505V44.1684Z" fill="black"/>
<path d="M53.8748 27.8496H19.1245V45.1504H53.8748V27.8496Z" fill="#FFD703"/>
<path d="M32.8739 35.3014H30.4663V37.6987H32.8739V35.3014Z" fill="white"/>
<path d="M37.7186 35.3014H35.311V37.6987H37.7186V35.3014Z" fill="white"/>
<path d="M42.5326 35.3014H40.125V37.6987H42.5326V35.3014Z" fill="white"/>
</svg>
