<svg width="70" height="70" viewBox="0 0 70 70" fill="none" xmlns="http://www.w3.org/2000/svg">
<g clip-path="url(#clip0)">
<path d="M55.3381 27.5054H19.1597L23.1944 31.5086L19.1597 35.5118H55.3381V27.5054Z" fill="#FEDD15"/>
<path d="M60 29.5512C60 28.8396 59.731 28.2168 59.2379 27.6831C58.7447 27.1938 58.0723 26.9269 57.355 26.9269H55.8756V15.3177L47.5371 7H18.5764V27.1938L11 31.5083L18.5764 35.8229V56.0167H43.9058L50.8994 63V56.0612H55.9204V36.0898H57.3998C58.1171 36.0898 58.7447 35.8229 59.2827 35.3336C59.7758 34.8443 60.0448 34.1771 60.0448 33.4654V29.5512H60ZM47.8509 8.95711L53.903 14.9619H47.8509V8.95711ZM15.2141 32.6203V30.4853L19.0695 28.2613L22.387 31.5528L19.0695 34.7998L15.2141 32.6203ZM23.4181 30.9301L20.5489 28.0834H54.7548V30.9301H23.4181ZM54.7548 32.0866V34.9333H20.5489L23.4181 32.0866H54.7548ZM49.7338 54.9047V60.1978L44.3989 54.9047H19.742V36.0898H54.7548V54.9047H49.7338ZM54.7548 26.7935L54.3962 26.9714H54.3065H19.742V8.15647H46.7301V16.1183H54.7996V26.7935H54.7548ZM58.8792 33.4654C58.8792 33.8658 58.7447 34.2216 58.4309 34.4885C58.1619 34.7554 57.8033 34.9333 57.3998 34.9333H55.9204V28.0834H57.3998C57.8033 28.0834 58.1619 28.2168 58.4309 28.5282C58.6999 28.7951 58.8792 29.1509 58.8792 29.5512V33.4654Z" fill="black"/>
<path d="M36.5977 14.9614H24.6279V16.1179H36.5977V14.9614Z" fill="black"/>
<path d="M49.8676 18.9647H24.6279V20.1212H49.8676V18.9647Z" fill="black"/>
</g>
<defs>
<clipPath id="clip0">
<rect width="49" height="56" fill="white" transform="translate(11 7)"/>
</clipPath>
</defs>
</svg>
