<svg width="70" height="70" viewBox="0 0 70 70" fill="none" xmlns="http://www.w3.org/2000/svg">
<path d="M20.2624 24.6365C14.6181 24.6365 10 29.2151 10 34.8989C10 40.5432 14.5786 45.1612 20.2624 45.1612C25.9067 45.1612 30.5247 40.5827 30.5247 34.8989C30.4852 29.2151 25.9067 24.6365 20.2624 24.6365ZM20.2624 39.3591C17.7757 39.3591 15.7627 37.3461 15.7627 34.8594C15.7627 32.3728 17.7757 30.3598 20.2624 30.3598C22.749 30.3598 24.762 32.3728 24.762 34.8594C24.7225 37.3461 22.7095 39.3591 20.2624 39.3591Z" fill="#FEDD15"/>
<path fill-rule="evenodd" clip-rule="evenodd" d="M40.4583 18.0152C42.6989 18.0152 44.5152 16.1989 44.5152 13.9583C44.5152 11.7178 42.6989 9.90152 40.4583 9.90152C38.2178 9.90152 36.4015 11.7178 36.4015 13.9583C36.4015 16.1989 38.2178 18.0152 40.4583 18.0152ZM40.4583 18.9167C43.1967 18.9167 45.4167 16.6967 45.4167 13.9583C45.4167 11.2199 43.1967 9 40.4583 9C37.7199 9 35.5 11.2199 35.5 13.9583C35.5 16.6967 37.7199 18.9167 40.4583 18.9167Z" fill="black"/>
<path fill-rule="evenodd" clip-rule="evenodd" d="M56.0418 39.2659C58.2823 39.2659 60.0986 37.4496 60.0986 35.2091C60.0986 32.9685 58.2823 31.1522 56.0418 31.1522C53.8013 31.1522 51.985 32.9685 51.985 35.2091C51.985 37.4496 53.8013 39.2659 56.0418 39.2659ZM56.0418 40.1674C58.7802 40.1674 61.0002 37.9475 61.0002 35.2091C61.0002 32.4707 58.7802 30.2507 56.0418 30.2507C53.3034 30.2507 51.0835 32.4707 51.0835 35.2091C51.0835 37.9475 53.3034 40.1674 56.0418 40.1674Z" fill="black"/>
<path fill-rule="evenodd" clip-rule="evenodd" d="M51.5004 35.3884H25.1504V34.411H51.5004V35.3884Z" fill="black"/>
<path fill-rule="evenodd" clip-rule="evenodd" d="M37.7247 18.1307L24.5303 32.3025L23.8149 31.6365L37.0094 17.4647L37.7247 18.1307Z" fill="black"/>
<path fill-rule="evenodd" clip-rule="evenodd" d="M37.6274 52.1602L24.5253 37.9935L23.8149 38.6592L36.9171 52.826L37.6274 52.1602Z" fill="black"/>
<path fill-rule="evenodd" clip-rule="evenodd" d="M20.2608 39.2996C22.6898 39.2996 24.6589 37.3304 24.6589 34.9014C24.6589 32.4724 22.6898 30.5032 20.2608 30.5032C17.8317 30.5032 15.8626 32.4724 15.8626 34.9014C15.8626 37.3304 17.8317 39.2996 20.2608 39.2996ZM20.2608 40.2769C23.2296 40.2769 25.6363 37.8702 25.6363 34.9014C25.6363 31.9326 23.2296 29.5259 20.2608 29.5259C17.292 29.5259 14.8853 31.9326 14.8853 34.9014C14.8853 37.8702 17.292 40.2769 20.2608 40.2769Z" fill="black"/>
<path d="M41.1672 13.2493H39.7505V14.6659H41.1672V13.2493Z" fill="black"/>
<path d="M56.7497 34.5H55.333V35.9167H56.7497V34.5Z" fill="black"/>
<path fill-rule="evenodd" clip-rule="evenodd" d="M40.4583 59.0987C42.6989 59.0987 44.5152 57.2824 44.5152 55.0419C44.5152 52.8014 42.6989 50.9851 40.4583 50.9851C38.2178 50.9851 36.4015 52.8014 36.4015 55.0419C36.4015 57.2824 38.2178 59.0987 40.4583 59.0987ZM40.4583 60.0002C43.1967 60.0002 45.4167 57.7803 45.4167 55.0419C45.4167 52.3035 43.1967 50.0836 40.4583 50.0836C37.7199 50.0836 35.5 52.3035 35.5 55.0419C35.5 57.7803 37.7199 60.0002 40.4583 60.0002Z" fill="black"/>
<path d="M41.1672 54.3329H39.7505V55.7496H41.1672V54.3329Z" fill="black"/>
</svg>
