<svg width="70" height="70" viewBox="0 0 70 70" fill="none" xmlns="http://www.w3.org/2000/svg">
<path d="M40.8925 65.3334H9.96188C8.92752 65.3323 7.93585 64.9209 7.20445 64.1895C6.47305 63.4581 6.06166 62.4664 6.06055 61.432V8.56335C6.06166 7.53024 6.47256 6.53975 7.20308 5.80922C7.93361 5.0787 8.92409 4.6678 9.95721 4.66669H40.8925C41.9263 4.66718 42.9176 5.07773 43.649 5.80826C44.3804 6.53878 44.7921 7.52962 44.7939 8.56335V17.6167C44.7939 17.7405 44.7447 17.8592 44.6572 17.9467C44.5697 18.0342 44.451 18.0834 44.3272 18.0834C44.2034 18.0834 44.0847 18.0342 43.9972 17.9467C43.9097 17.8592 43.8605 17.7405 43.8605 17.6167V8.56335C43.8591 7.77708 43.5457 7.0235 42.9893 6.46795C42.4329 5.9124 41.6788 5.60027 40.8925 5.60002H9.95721C9.17155 5.60089 8.41832 5.91337 7.86278 6.46892C7.30723 7.02446 6.99474 7.77769 6.99388 8.56335V61.432C6.99487 62.2189 7.30788 62.9732 7.86428 63.5296C8.42067 64.086 9.17502 64.399 9.96188 64.4H40.8925C41.6794 64.399 42.4338 64.086 42.9901 63.5296C43.5465 62.9732 43.8596 62.2189 43.8605 61.432V45.9933C43.8605 45.8695 43.9097 45.7508 43.9972 45.6633C44.0847 45.5758 44.2034 45.5266 44.3272 45.5266C44.451 45.5266 44.5697 45.5758 44.6572 45.6633C44.7447 45.7508 44.7939 45.8695 44.7939 45.9933V61.432C44.7928 62.4664 44.3814 63.4581 43.65 64.1895C42.9186 64.9209 41.9269 65.3323 40.8925 65.3334Z" fill="black"/>
<path d="M44.3253 12.1202H6.52526C6.40149 12.1202 6.28279 12.0711 6.19528 11.9835C6.10776 11.896 6.05859 11.7773 6.05859 11.6536C6.05859 11.5298 6.10776 11.4111 6.19528 11.3236C6.28279 11.2361 6.40149 11.1869 6.52526 11.1869H44.3253C44.449 11.1869 44.5677 11.2361 44.6553 11.3236C44.7428 11.4111 44.7919 11.5298 44.7919 11.6536C44.7919 11.7773 44.7428 11.896 44.6553 11.9835C44.5677 12.0711 44.449 12.1202 44.3253 12.1202Z" fill="black"/>
<path d="M44.3253 56.1003H6.52526C6.40149 56.1003 6.28279 56.0512 6.19528 55.9636C6.10776 55.8761 6.05859 55.7574 6.05859 55.6337C6.05859 55.5099 6.10776 55.3912 6.19528 55.3037C6.28279 55.2162 6.40149 55.167 6.52526 55.167H44.3253C44.449 55.167 44.5677 55.2162 44.6553 55.3037C44.7428 55.3912 44.7919 55.5099 44.7919 55.6337C44.7919 55.7574 44.7428 55.8761 44.6553 55.9636C44.5677 56.0512 44.449 56.1003 44.3253 56.1003Z" fill="black"/>
<path d="M29.0173 9.04771H21.8348C21.7111 9.04771 21.5924 8.99855 21.5048 8.91103C21.4173 8.82351 21.3682 8.70481 21.3682 8.58105C21.3682 8.45728 21.4173 8.33858 21.5048 8.25106C21.5924 8.16355 21.7111 8.11438 21.8348 8.11438H29.0173C29.1411 8.11438 29.2598 8.16355 29.3473 8.25106C29.4348 8.33858 29.484 8.45728 29.484 8.58105C29.484 8.70481 29.4348 8.82351 29.3473 8.91103C29.2598 8.99855 29.1411 9.04771 29.0173 9.04771Z" fill="black"/>
<path d="M25.4329 63.2086C25.2081 63.2086 24.984 63.1835 24.7647 63.134C24.2708 63.0191 23.8156 62.7771 23.4442 62.432C23.0727 62.0869 22.7979 61.6508 22.647 61.1667C22.4961 60.6827 22.4743 60.1677 22.5838 59.6726C22.6933 59.1776 22.9303 58.7198 23.2713 58.3446C23.5361 58.053 23.8573 57.8183 24.2155 57.6546C24.5737 57.4909 24.9614 57.4017 25.3551 57.3922C25.7488 57.3828 26.1404 57.4534 26.506 57.5998C26.8716 57.7461 27.2037 57.9652 27.4821 58.2437C27.7606 58.5222 27.9796 58.8544 28.1259 59.22C28.2722 59.5857 28.3427 59.9772 28.3331 60.3709C28.3236 60.7646 28.2343 61.1523 28.0705 61.5104C27.9067 61.8686 27.6719 62.1898 27.3803 62.4545C26.8486 62.941 26.1536 63.2102 25.4329 63.2086ZM25.4269 58.3236C24.9424 58.3233 24.4746 58.5009 24.1125 58.8228C23.7503 59.1446 23.519 59.5882 23.4624 60.0694C23.4058 60.5506 23.5278 61.0358 23.8054 61.4329C24.083 61.83 24.4968 62.1114 24.9681 62.2235C25.2291 62.2858 25.5 62.2944 25.7644 62.2487C26.0288 62.203 26.2811 62.1039 26.506 61.9576C26.7309 61.8112 26.9236 61.6207 27.0725 61.3975C27.2214 61.1742 27.3232 60.9231 27.3719 60.6592C27.4206 60.3954 27.4151 60.1244 27.3557 59.8627C27.2964 59.6011 27.1844 59.3542 27.0265 59.1373C26.8687 58.9203 26.6684 58.7377 26.4377 58.6006C26.2071 58.4635 25.951 58.3748 25.6849 58.3399C25.5992 58.3291 25.5128 58.3237 25.4264 58.3236H25.4269Z" fill="black"/>
<path d="M26.1115 47.5851C25.3079 47.5917 24.5048 47.5418 23.7082 47.4358C23.6119 47.4211 23.5227 47.3766 23.453 47.3087C23.3832 47.2407 23.3365 47.1526 23.3193 47.0568C23.3022 46.961 23.3154 46.8622 23.3572 46.7742C23.3989 46.6863 23.4672 46.6136 23.5523 46.5664C25.8798 45.2922 27.8605 43.4682 29.3217 41.2534C26.3453 38.6158 24.7115 35.2744 24.7115 31.8043C24.7115 23.7244 33.5105 17.151 44.3255 17.151C55.1405 17.151 63.9395 23.7244 63.9395 31.8043C63.9395 39.8842 55.141 46.4614 44.3255 46.4614C41.3734 46.478 38.4418 45.9692 35.6679 44.9587C32.3952 47.1693 28.5433 47.5851 26.1115 47.5851Z" fill="#FEDD15"/>
<path d="M33.5947 36.4728C33.3489 36.4726 33.1036 36.4495 32.862 36.4037C32.1188 36.2585 31.4357 35.8949 30.9002 35.3594C30.3648 34.8238 30.0013 34.1407 29.8562 33.3974C29.7349 32.7812 29.7672 32.1445 29.9501 31.5437C30.1331 30.9429 30.4611 30.3963 30.9053 29.9522C31.3494 29.5081 31.8961 29.1802 32.4969 28.9974C33.0978 28.8146 33.7345 28.7825 34.3507 28.9039C35.0939 29.0491 35.777 29.4127 36.3124 29.9483C36.8479 30.4838 37.2114 31.1669 37.3565 31.9102C37.466 32.4652 37.451 33.0376 37.3125 33.5861C37.174 34.1346 36.9155 34.6455 36.5557 35.082C36.1958 35.5184 35.7435 35.8696 35.2315 36.1101C34.7194 36.3506 34.1604 36.4745 33.5947 36.4728Z" fill="white"/>
<path d="M33.5947 36.4728C33.3489 36.4726 33.1036 36.4495 32.862 36.4037C32.1188 36.2586 31.4357 35.895 30.9002 35.3594C30.3648 34.8239 30.0013 34.1408 29.8562 33.3975C29.7349 32.7812 29.7672 32.1446 29.9501 31.5437C30.1331 30.9429 30.4611 30.3963 30.9053 29.9522C31.3494 29.5082 31.8961 29.1803 32.4969 28.9974C33.0978 28.8146 33.7345 28.7825 34.3507 28.9039C35.0939 29.0491 35.777 29.4128 36.3124 29.9483C36.8479 30.4838 37.2114 31.1669 37.3565 31.9102C37.466 32.4652 37.451 33.0376 37.3125 33.5861C37.174 34.1346 36.9155 34.6455 36.5557 35.082C36.1958 35.5185 35.7435 35.8696 35.2315 36.1101C34.7194 36.3507 34.1604 36.4745 33.5947 36.4728ZM33.6026 29.7659C33.0078 29.7674 32.428 29.9526 31.9426 30.2963C31.4571 30.64 31.0897 31.1253 30.8906 31.6858C30.6915 32.2462 30.6704 32.8546 30.8303 33.4275C30.9902 34.0004 31.3232 34.5099 31.7838 34.8863C32.2444 35.2627 32.81 35.4876 33.4032 35.5302C33.9965 35.5728 34.5885 35.431 35.0981 35.1243C35.6077 34.8176 36.0101 34.3609 36.2502 33.8167C36.4904 33.2725 36.5565 32.6674 36.4395 32.0843C36.3302 31.5246 36.0565 31.0102 35.6533 30.6069C35.2501 30.2037 34.7358 29.9298 34.1762 29.8205C33.9871 29.7844 33.7951 29.7662 33.6026 29.7659Z" fill="black"/>
<path d="M44.4678 36.4728C44.2221 36.4726 43.9769 36.4495 43.7356 36.4037C42.9923 36.2586 42.3092 35.895 41.7737 35.3595C41.2382 34.8239 40.8747 34.1407 40.7298 33.3974C40.6085 32.7812 40.6407 32.1445 40.8237 31.5437C41.0066 30.9429 41.3346 30.3963 41.7788 29.9522C42.223 29.5081 42.7696 29.1802 43.3705 28.9974C43.9714 28.8146 44.608 28.7825 45.2242 28.9039C45.9674 29.0493 46.6503 29.413 47.1857 29.9485C47.7212 30.484 48.0847 31.167 48.23 31.9102C48.3395 32.4652 48.3244 33.0376 48.1858 33.5861C48.0473 34.1346 47.7887 34.6455 47.4288 35.082C47.0689 35.5184 46.6166 35.8696 46.1046 36.1101C45.5925 36.3506 45.0335 36.4745 44.4678 36.4728Z" fill="white"/>
<path d="M44.4678 36.4728C44.2221 36.4726 43.9769 36.4495 43.7356 36.4037C42.9923 36.2586 42.3092 35.895 41.7737 35.3595C41.2382 34.8239 40.8747 34.1408 40.7298 33.3975C40.6085 32.7812 40.6407 32.1446 40.8237 31.5437C41.0066 30.9429 41.3346 30.3963 41.7788 29.9522C42.223 29.5082 42.7696 29.1803 43.3705 28.9974C43.9714 28.8146 44.608 28.7825 45.2242 28.9039C45.9674 29.0493 46.6503 29.413 47.1857 29.9485C47.7212 30.484 48.0847 31.167 48.23 31.9102C48.3395 32.4652 48.3244 33.0376 48.1858 33.5861C48.0473 34.1346 47.7887 34.6455 47.4288 35.082C47.0689 35.5185 46.6166 35.8696 46.1046 36.1101C45.5925 36.3506 45.0335 36.4745 44.4678 36.4728ZM44.4762 29.7659C43.7385 29.7699 43.0306 30.0572 42.4988 30.5685C41.967 31.0798 41.652 31.7758 41.6191 32.5128C41.5861 33.2497 41.8375 33.9712 42.3215 34.5279C42.8055 35.0847 43.4849 35.4342 44.2192 35.5041C44.9536 35.574 45.6868 35.359 46.2671 34.9036C46.8474 34.4481 47.2305 33.7871 47.3372 33.0572C47.4438 32.3272 47.2659 31.5842 46.8401 30.9818C46.4144 30.3794 45.7734 29.9636 45.0497 29.8205C44.8606 29.7844 44.6686 29.7662 44.4762 29.7659Z" fill="black"/>
<path d="M55.3413 36.4728C55.0956 36.4726 54.8504 36.4495 54.6091 36.4037C53.8657 36.2586 53.1825 35.895 52.647 35.3595C52.1115 34.8239 51.7479 34.1408 51.6028 33.3974C51.4815 32.7812 51.5138 32.1445 51.6967 31.5437C51.8797 30.9429 52.2077 30.3963 52.6518 29.9522C53.096 29.5081 53.6427 29.1802 54.2435 28.9974C54.8444 28.8146 55.481 28.7825 56.0973 28.9039C56.8405 29.0491 57.5236 29.4127 58.059 29.9483C58.5945 30.4838 58.958 31.1669 59.1031 31.9102C59.2126 32.4652 59.1976 33.0376 59.0591 33.5861C58.9206 34.1346 58.6621 34.6455 58.3022 35.082C57.9424 35.5184 57.4901 35.8696 56.9781 36.1101C56.466 36.3506 55.907 36.4745 55.3413 36.4728Z" fill="white"/>
<path d="M55.3413 36.4728C55.0956 36.4727 54.8504 36.4495 54.6091 36.4037C53.8657 36.2587 53.1825 35.8951 52.647 35.3595C52.1115 34.824 51.7479 34.1408 51.6028 33.3975C51.4815 32.7812 51.5138 32.1446 51.6967 31.5437C51.8797 30.9429 52.2077 30.3963 52.6518 29.9522C53.096 29.5082 53.6427 29.1803 54.2435 28.9974C54.8444 28.8146 55.481 28.7825 56.0973 28.9039C56.8405 29.0491 57.5236 29.4128 58.059 29.9483C58.5945 30.4838 58.958 31.1669 59.1031 31.9102C59.2126 32.4652 59.1976 33.0376 59.0591 33.5861C58.9206 34.1346 58.6621 34.6455 58.3022 35.082C57.9424 35.5185 57.4901 35.8696 56.9781 36.1101C56.466 36.3507 55.907 36.4745 55.3413 36.4728ZM55.3492 29.7659C54.7544 29.7674 54.1746 29.9526 53.6891 30.2963C53.2037 30.64 52.8362 31.1253 52.6371 31.6858C52.4381 32.2462 52.417 32.8546 52.5769 33.4275C52.7368 34.0004 53.0698 34.5099 53.5304 34.8863C53.9909 35.2627 54.5566 35.4876 55.1498 35.5302C55.7431 35.5728 56.335 35.431 56.8447 35.1243C57.3543 34.8176 57.7567 34.3609 57.9968 33.8167C58.2369 33.2725 58.303 32.6674 58.1861 32.0843C58.0768 31.5246 57.8031 31.0102 57.3999 30.6069C56.9967 30.2037 56.4824 29.9298 55.9227 29.8205C55.7337 29.7844 55.5417 29.7662 55.3492 29.7659Z" fill="black"/>
</svg>
