<svg width="70" height="70" viewBox="0 0 70 70" fill="none" xmlns="http://www.w3.org/2000/svg">
<path d="M64.8665 65.0883H5.13317C5.0094 65.0883 4.8907 65.0391 4.80319 64.9516C4.71567 64.8641 4.6665 64.7454 4.6665 64.6216V31.353C4.6665 31.2292 4.71567 31.1105 4.80319 31.023C4.8907 30.9355 5.0094 30.8863 5.13317 30.8863C5.25694 30.8863 5.37564 30.9355 5.46315 31.023C5.55067 31.1105 5.59984 31.2292 5.59984 31.353V64.155H64.3998V31.353C64.3998 31.2292 64.449 31.1105 64.5365 31.023C64.624 30.9355 64.7427 30.8863 64.8665 30.8863C64.9903 30.8863 65.109 30.9355 65.1965 31.023C65.284 31.1105 65.3332 31.2292 65.3332 31.353V64.6216C65.3332 64.7454 65.284 64.8641 65.1965 64.9516C65.109 65.0391 64.9903 65.0883 64.8665 65.0883Z" fill="black"/>
<path d="M35.4794 5.27399L28.7671 11.5069H41.8921L35.4794 5.27399Z" fill="#FEDD15"/>
<path d="M5.27393 31.1644L14.3835 23.4932V39.3151L5.27393 31.1644Z" fill="#FEDD15"/>
<path d="M56.5752 24.4521V39.3151L65.2053 31.6438L56.5752 24.4521Z" fill="#FEDD15"/>
<path d="M28.574 11.6784C28.4788 11.6782 28.3859 11.649 28.3077 11.5945C28.2296 11.5401 28.17 11.463 28.137 11.3737C28.1039 11.2844 28.0989 11.1872 28.1227 11.095C28.1466 11.0028 28.198 10.9201 28.2702 10.858L35.0602 5.02462C35.1455 4.95127 35.2544 4.91121 35.3669 4.91181C35.4794 4.91241 35.5879 4.95363 35.6725 5.02789L42.2991 10.8612C42.392 10.9431 42.4485 11.0585 42.4562 11.182C42.464 11.3056 42.4223 11.4271 42.3404 11.5199C42.2586 11.6128 42.1432 11.6693 42.0196 11.677C41.8961 11.6847 41.7746 11.6431 41.6817 11.5612L35.3603 5.99716L28.8783 11.5659C28.7935 11.6386 28.6856 11.6785 28.574 11.6784Z" fill="black"/>
<path d="M36.1433 58.177C36.0326 58.1772 35.9255 58.1378 35.8413 58.066L4.83134 31.7082C4.78011 31.6643 4.73898 31.61 4.71077 31.5487C4.68257 31.4875 4.66797 31.4209 4.66797 31.3535C4.66797 31.2861 4.68257 31.2195 4.71077 31.1582C4.73898 31.097 4.78011 31.0426 4.83134 30.9988L14.1787 22.9675C14.2733 22.8937 14.3928 22.8593 14.5122 22.8713C14.6316 22.8833 14.7417 22.9408 14.8198 23.032C14.8979 23.1231 14.9379 23.2408 14.9315 23.3606C14.925 23.4804 14.8727 23.5932 14.7853 23.6754L5.85147 31.3512L36.1316 57.0878L64.1666 31.36L55.9388 24.1155C55.8911 24.0755 55.852 24.0263 55.8236 23.971C55.7952 23.9156 55.7782 23.8551 55.7735 23.793C55.7688 23.731 55.7766 23.6686 55.7964 23.6096C55.8162 23.5506 55.8476 23.4962 55.8887 23.4495C55.9299 23.4028 55.98 23.3648 56.036 23.3378C56.092 23.3107 56.1529 23.2952 56.2151 23.292C56.2772 23.2888 56.3394 23.2981 56.3979 23.3193C56.4564 23.3405 56.5101 23.3732 56.5557 23.4155L65.1751 31.0035C65.2242 31.0468 65.2636 31.0999 65.2909 31.1594C65.3181 31.2189 65.3325 31.2835 65.3332 31.3489C65.3338 31.4143 65.3207 31.4792 65.2947 31.5392C65.2687 31.5993 65.2303 31.6532 65.1821 31.6974L36.4587 58.0534C36.3728 58.1327 36.2602 58.1768 36.1433 58.177Z" fill="black"/>
<path d="M14.4808 39.7623C14.3571 39.7623 14.2384 39.7131 14.1508 39.6256C14.0633 39.5381 14.0142 39.4194 14.0142 39.2956V11.2116C14.0142 11.0879 14.0633 10.9692 14.1508 10.8816C14.2384 10.7941 14.3571 10.745 14.4808 10.745H56.2475C56.3713 10.745 56.49 10.7941 56.5775 10.8816C56.665 10.9692 56.7142 11.0879 56.7142 11.2116V39.2662C56.7142 39.39 56.665 39.5087 56.5775 39.5962C56.49 39.6837 56.3713 39.7329 56.2475 39.7329C56.1237 39.7329 56.005 39.6837 55.9175 39.5962C55.83 39.5087 55.7808 39.39 55.7808 39.2662V11.6783H14.9475V39.2956C14.9475 39.4194 14.8983 39.5381 14.8108 39.6256C14.7233 39.7131 14.6046 39.7623 14.4808 39.7623Z" fill="black"/>
<path d="M51.6974 18.5616H36.764C36.6403 18.5616 36.5216 18.5125 36.434 18.425C36.3465 18.3374 36.2974 18.2187 36.2974 18.095C36.2974 17.9712 36.3465 17.8525 36.434 17.765C36.5216 17.6775 36.6403 17.6283 36.764 17.6283H51.6974C51.8211 17.6283 51.9398 17.6775 52.0273 17.765C52.1149 17.8525 52.164 17.9712 52.164 18.095C52.164 18.2187 52.1149 18.3374 52.0273 18.425C51.9398 18.5125 51.8211 18.5616 51.6974 18.5616Z" fill="black"/>
<path d="M51.6974 25.0134H36.764C36.6403 25.0134 36.5216 24.9642 36.434 24.8767C36.3465 24.7892 36.2974 24.6705 36.2974 24.5467C36.2974 24.4229 36.3465 24.3043 36.434 24.2167C36.5216 24.1292 36.6403 24.08 36.764 24.08H51.6974C51.8211 24.08 51.9398 24.1292 52.0273 24.2167C52.1149 24.3043 52.164 24.4229 52.164 24.5467C52.164 24.6705 52.1149 24.7892 52.0273 24.8767C51.9398 24.9642 51.8211 25.0134 51.6974 25.0134Z" fill="black"/>
<path d="M51.6973 31.4626H19.0306C18.9069 31.4626 18.7882 31.4135 18.7006 31.3259C18.6131 31.2384 18.564 31.1197 18.564 30.996C18.564 30.8722 18.6131 30.7535 18.7006 30.666C18.7882 30.5785 18.9069 30.5293 19.0306 30.5293H51.6973C51.8211 30.5293 51.9398 30.5785 52.0273 30.666C52.1148 30.7535 52.164 30.8722 52.164 30.996C52.164 31.1197 52.1148 31.2384 52.0273 31.3259C51.9398 31.4135 51.8211 31.4626 51.6973 31.4626Z" fill="black"/>
<path d="M51.6973 37.9129H19.0306C18.9069 37.9129 18.7882 37.8637 18.7006 37.7762C18.6131 37.6887 18.564 37.57 18.564 37.4462C18.564 37.3225 18.6131 37.2038 18.7006 37.1163C18.7882 37.0288 18.9069 36.9796 19.0306 36.9796H51.6973C51.8211 36.9796 51.9398 37.0288 52.0273 37.1163C52.1148 37.2038 52.164 37.3225 52.164 37.4462C52.164 37.57 52.1148 37.6887 52.0273 37.7762C51.9398 37.8637 51.8211 37.9129 51.6973 37.9129Z" fill="black"/>
<path d="M37.0908 44.3637H24.4745C24.3507 44.3637 24.232 44.3145 24.1445 44.227C24.057 44.1395 24.0078 44.0208 24.0078 43.897C24.0078 43.7732 24.057 43.6545 24.1445 43.567C24.232 43.4795 24.3507 43.4303 24.4745 43.4303H37.0908C37.2146 43.4303 37.3333 43.4795 37.4208 43.567C37.5083 43.6545 37.5575 43.7732 37.5575 43.897C37.5575 44.0208 37.5083 44.1395 37.4208 44.227C37.3333 44.3145 37.2146 44.3637 37.0908 44.3637Z" fill="black"/>
<path d="M23.7479 24.1168C23.3905 24.1217 23.0356 24.0557 22.7039 23.9224C22.3722 23.7892 22.0702 23.5915 21.8155 23.3408C20.345 21.8698 21.5691 19.8226 21.9713 19.1496C22.0357 19.04 23.6457 16.373 27.9652 16.8569C28.0311 16.8644 28.0947 16.8858 28.1516 16.9198C28.2086 16.9538 28.2577 16.9996 28.2956 17.054C28.3334 17.1085 28.3593 17.1704 28.3714 17.2356C28.3834 17.3008 28.3815 17.3679 28.3656 17.4323C28.2517 17.8962 27.2181 21.9926 26.0971 23.1135C25.4774 23.7452 24.6328 24.1059 23.7479 24.1168ZM26.9465 17.7333C23.9477 17.7333 22.8239 19.5444 22.7735 19.6289C21.6493 21.5091 22.0647 22.2721 22.4753 22.6828C23.229 23.436 24.5576 23.3361 25.4373 22.4555C26.1335 21.7592 26.9362 19.1739 27.3221 17.7422C27.1933 17.7333 27.0669 17.7333 26.9465 17.7333Z" fill="black"/>
<path d="M25.3047 27.5748C24.8817 27.5763 24.4596 27.5357 24.0447 27.4535C22.2965 27.1213 20.7368 26.145 19.6741 24.7178C18.6114 23.2906 18.1233 21.5164 18.3062 19.7464C18.4892 17.9764 19.3299 16.3396 20.662 15.1599C21.9942 13.9802 23.7206 13.3436 25.4997 13.376C28.8644 13.376 31.1361 15.4079 31.5762 18.8113C31.7557 20.1976 31.5019 21.6055 30.8496 22.8419C30.6818 23.1807 30.4234 23.4663 30.1029 23.667C29.7926 23.8563 29.4391 23.9631 29.0759 23.9773C28.7126 23.9915 28.3518 23.9126 28.0277 23.7482C27.6759 23.5751 27.3741 23.3151 27.151 22.9928C26.9279 22.6704 26.7908 22.2964 26.7527 21.9062C26.6384 20.7615 26.8773 19.1744 27.4625 17.1887C27.4782 17.128 27.5059 17.0712 27.544 17.0215C27.5821 16.9717 27.6298 16.9302 27.6843 16.8993C27.7388 16.8684 27.799 16.8488 27.8612 16.8417C27.9234 16.8346 27.9865 16.84 28.0465 16.8578C28.1066 16.8755 28.1625 16.9052 28.2109 16.9449C28.2593 16.9847 28.2991 17.0339 28.3281 17.0894C28.3571 17.1449 28.3746 17.2057 28.3796 17.2682C28.3846 17.3306 28.3769 17.3934 28.3571 17.4528C27.8065 19.3218 27.5792 20.7895 27.6814 21.8138C27.7043 22.0471 27.7865 22.2706 27.9202 22.463C28.0539 22.6555 28.2347 22.8105 28.4453 22.9133C28.6274 23.0086 28.8311 23.055 29.0365 23.048C29.2419 23.0409 29.442 22.9807 29.6171 22.8732C29.7962 22.7592 29.9387 22.5963 30.0278 22.4037C30.5887 21.3385 30.8066 20.126 30.6517 18.9322C30.2714 15.995 28.3945 14.3122 25.5007 14.3122C24.6312 14.2917 23.7672 14.4555 22.9655 14.7926C22.1638 15.1297 21.4424 15.6326 20.8488 16.2682C20.2552 16.9039 19.8027 17.6579 19.5211 18.4808C19.2395 19.3037 19.1352 20.1768 19.2149 21.0428C19.2946 21.9089 19.5567 22.7483 19.9838 23.5059C20.4109 24.2636 20.9934 24.9223 21.6931 25.4389C22.3928 25.9554 23.1938 26.3182 24.0437 26.5032C24.8935 26.6883 25.7728 26.6915 26.6239 26.5127C27.4275 26.3715 28.2027 26.1003 28.919 25.7096C28.9718 25.6784 29.0302 25.6579 29.0909 25.6494C29.1516 25.6408 29.2134 25.6442 29.2728 25.6595C29.3322 25.6748 29.3879 25.7017 29.4369 25.7385C29.4859 25.7754 29.5272 25.8215 29.5583 25.8743C29.5895 25.9271 29.61 25.9855 29.6186 26.0462C29.6271 26.1069 29.6237 26.1687 29.6084 26.2281C29.5931 26.2874 29.5662 26.3432 29.5294 26.3922C29.4925 26.4412 29.4464 26.4825 29.3936 26.5136C28.5874 26.9634 27.7107 27.2729 26.8008 27.4288C26.3078 27.5247 25.8069 27.5736 25.3047 27.5748Z" fill="black"/>
</svg>
