<svg width="70" height="70" viewBox="0 0 70 70" fill="none" xmlns="http://www.w3.org/2000/svg">
<path d="M35 60.411C30.2586 60.411 25.6238 59.005 21.6815 56.3709C17.7392 53.7367 14.6666 49.9927 12.8522 45.6123C11.0377 41.2319 10.563 36.4118 11.488 31.7615C12.413 27.1113 14.6961 22.8398 18.0488 19.4872C21.4014 16.1346 25.6729 13.8514 30.3231 12.9264C34.9734 12.0014 39.7935 12.4761 44.1739 14.2906C48.5543 16.105 52.2983 19.1776 54.9324 23.1199C57.5666 27.0622 58.9725 31.697 58.9725 36.4384C58.9658 42.7942 56.4379 48.8878 51.9436 53.3821C47.4494 57.8763 41.3558 60.4042 35 60.411Z" fill="#FEDD15"/>
<path d="M35.033 31.7376C32.3592 31.7376 29.7455 30.9447 27.5223 29.4592C25.2992 27.9738 23.5664 25.8624 22.5432 23.3922C21.52 20.9219 21.2523 18.2037 21.7739 15.5813C22.2956 12.9589 23.5831 10.5501 25.4737 8.65942C27.3644 6.76877 29.7732 5.48122 32.3956 4.9596C35.018 4.43797 37.7362 4.70569 40.2065 5.7289C42.6767 6.75211 44.7881 8.48486 46.2735 10.708C47.759 12.9312 48.5519 15.5449 48.5519 18.2187C48.5481 21.803 47.1225 25.2393 44.5881 27.7738C42.0536 30.3082 38.6173 31.7337 35.033 31.7376ZM35.033 5.63317C32.5438 5.63317 30.1106 6.3713 28.0409 7.75421C25.9712 9.13713 24.3581 11.1027 23.4055 13.4024C22.4529 15.7021 22.2037 18.2327 22.6893 20.674C23.1749 23.1154 24.3736 25.3579 26.1337 27.118C27.8938 28.8781 30.1364 30.0768 32.5777 30.5624C35.0191 31.048 37.5496 30.7988 39.8493 29.8462C42.149 28.8937 44.1146 27.2805 45.4975 25.2109C46.8804 23.1412 47.6186 20.7079 47.6186 18.2187C47.6147 14.882 46.2875 11.683 43.9281 9.32362C41.5687 6.9642 38.3697 5.637 35.033 5.63317Z" fill="black"/>
<path d="M25.4257 27.5189C25.3539 27.5191 25.283 27.5023 25.2189 27.4699C25.108 27.4149 25.0235 27.3182 24.984 27.2009C24.9444 27.0836 24.953 26.9555 25.008 26.8446C25.9336 24.9766 27.3627 23.4044 29.1341 22.3053C30.9055 21.2061 32.9487 20.6237 35.0334 20.6237C37.1181 20.6237 39.1613 21.2061 40.9327 22.3053C42.7041 23.4044 44.1332 24.9766 45.0588 26.8446C45.1138 26.9555 45.1225 27.0837 45.083 27.201C45.0435 27.3183 44.959 27.4151 44.8481 27.4701C44.7372 27.5251 44.609 27.5338 44.4917 27.4943C44.3744 27.4548 44.2776 27.3703 44.2225 27.2594C43.3743 25.5472 42.0644 24.106 40.4408 23.0984C38.8171 22.0908 36.9443 21.5569 35.0334 21.5569C33.1225 21.5569 31.2497 22.0908 29.626 23.0984C28.0024 24.106 26.6925 25.5472 25.8443 27.2594C25.8056 27.3374 25.7459 27.403 25.672 27.4489C25.598 27.4947 25.5127 27.519 25.4257 27.5189Z" fill="black"/>
<path d="M35.0333 18.5118C34.0807 18.5118 33.1496 18.2293 32.3576 17.7001C31.5656 17.1709 30.9483 16.4187 30.5838 15.5387C30.2193 14.6586 30.124 13.6903 30.3099 12.756C30.4957 11.8218 30.9544 10.9637 31.628 10.2902C32.3016 9.61666 33.1598 9.15802 34.094 8.97224C35.0283 8.78647 35.9966 8.88191 36.8766 9.24649C37.7566 9.61108 38.5087 10.2284 39.0379 11.0205C39.567 11.8125 39.8494 12.7437 39.8493 13.6962C39.8478 14.973 39.3399 16.1971 38.437 17.0999C37.5342 18.0026 36.3101 18.5104 35.0333 18.5118ZM35.0333 9.8131C34.2654 9.8131 33.5147 10.0408 32.8762 10.4674C32.2377 10.894 31.7401 11.5004 31.4462 12.2098C31.1523 12.9193 31.0754 13.6999 31.2252 14.4531C31.375 15.2062 31.7447 15.898 32.2877 16.4411C32.8306 16.9841 33.5224 17.3539 34.2755 17.5038C35.0287 17.6536 35.8093 17.5768 36.5188 17.283C37.2283 16.9892 37.8347 16.4916 38.2614 15.8532C38.6881 15.2148 38.9159 14.4641 38.9159 13.6962C38.9148 12.6668 38.5054 11.6798 37.7775 10.9518C37.0497 10.2239 36.0627 9.81433 35.0333 9.8131Z" fill="black"/>
<path d="M51.8148 65.3002C49.141 65.3002 46.5273 64.5074 44.3041 63.0219C42.0809 61.5364 40.3482 59.4251 39.325 56.9548C38.3018 54.4846 38.034 51.7664 38.5557 49.144C39.0773 46.5216 40.3648 44.1127 42.2555 42.2221C44.1461 40.3315 46.555 39.0439 49.1774 38.5223C51.7998 38.0007 54.518 38.2684 56.9882 39.2916C59.4585 40.3148 61.5698 42.0475 63.0553 44.2707C64.5408 46.4939 65.3336 49.1076 65.3336 51.7814C65.3298 55.3656 63.9043 58.802 61.3698 61.3364C58.8354 63.8709 55.399 65.2964 51.8148 65.3002ZM51.8148 39.1958C49.3256 39.1958 46.8923 39.934 44.8226 41.3169C42.7529 42.6998 41.1398 44.6654 40.1873 46.9651C39.2347 49.2648 38.9854 51.7953 39.4711 54.2367C39.9567 56.678 41.1553 58.9206 42.9155 60.6807C44.6756 62.4408 46.9181 63.6395 49.3595 64.1251C51.8008 64.6107 54.3313 64.3615 56.631 63.4089C58.9307 62.4563 60.8963 60.8432 62.2793 58.7735C63.6622 56.7038 64.4003 54.2706 64.4003 51.7814C64.3965 48.4447 63.0693 45.2457 60.7099 42.8863C58.3504 40.5269 55.1515 39.1997 51.8148 39.1958Z" fill="black"/>
<path d="M61.4224 61.0816C61.3352 61.0819 61.2495 61.0578 61.1753 61.0119C61.1011 60.9661 61.0412 60.9003 61.0024 60.8221C60.1541 59.1098 58.8443 57.6686 57.2207 56.6611C55.597 55.6535 53.7242 55.1196 51.8133 55.1196C49.9024 55.1196 48.0295 55.6535 46.4059 56.6611C44.7823 57.6686 43.4724 59.1098 42.6241 60.8221C42.5691 60.933 42.4723 61.0175 42.355 61.057C42.2377 61.0965 42.1095 61.0878 41.9986 61.0328C41.8877 60.9778 41.8032 60.881 41.7637 60.7637C41.7242 60.6464 41.7329 60.5181 41.7879 60.4072C42.7135 58.5393 44.1426 56.9671 45.914 55.868C47.6854 54.7688 49.7286 54.1864 51.8133 54.1864C53.898 54.1864 55.9412 54.7688 57.7126 55.868C59.484 56.9671 60.9131 58.5393 61.8387 60.4072C61.8741 60.4786 61.8907 60.5577 61.8869 60.6373C61.8831 60.7168 61.859 60.794 61.8169 60.8616C61.7748 60.9292 61.7161 60.9849 61.6464 61.0234C61.5767 61.0619 61.4983 61.0819 61.4187 61.0816H61.4224Z" fill="black"/>
<path d="M51.815 52.0749C50.8625 52.0749 49.9314 51.7924 49.1394 51.2632C48.3474 50.734 47.7301 49.9819 47.3656 49.1019C47.0011 48.2219 46.9057 47.2535 47.0916 46.3193C47.2774 45.3851 47.7361 44.527 48.4096 43.8534C49.0831 43.1799 49.9413 42.7212 50.8755 42.5354C51.8097 42.3496 52.778 42.445 53.658 42.8095C54.538 43.174 55.2902 43.7913 55.8194 44.5832C56.3486 45.3752 56.631 46.3064 56.631 47.2589C56.6295 48.5357 56.1217 49.7598 55.2188 50.6627C54.316 51.5655 53.0919 52.0734 51.815 52.0749ZM51.815 43.3762C51.0471 43.3762 50.2964 43.6039 49.6579 44.0306C49.0194 44.4572 48.5218 45.0636 48.2279 45.773C47.934 46.4825 47.8571 47.2632 48.007 48.0163C48.1568 48.7695 48.5266 49.4613 49.0696 50.0043C49.6126 50.5473 50.3044 50.9171 51.0576 51.0669C51.8107 51.2168 52.5914 51.1399 53.3009 50.846C54.0103 50.5521 54.6167 50.0545 55.0433 49.416C55.47 48.7775 55.6977 48.0268 55.6977 47.2589C55.6965 46.2295 55.287 45.2427 54.5591 44.5148C53.8312 43.7869 52.8444 43.3774 51.815 43.3762Z" fill="black"/>
<path d="M18.1859 65.3002C15.5121 65.3002 12.8984 64.5074 10.6752 63.0219C8.45202 61.5364 6.71927 59.4251 5.69606 56.9548C4.67285 54.4846 4.40513 51.7664 4.92676 49.144C5.44839 46.5216 6.73594 44.1127 8.62658 42.2221C10.5172 40.3315 12.9261 39.0439 15.5485 38.5223C18.1709 38.0007 20.8891 38.2684 23.3593 39.2916C25.8296 40.3148 27.9409 42.0475 29.4264 44.2707C30.9119 46.4939 31.7047 49.1076 31.7047 51.7814C31.7009 55.3656 30.2754 58.802 27.7409 61.3364C25.2065 63.8709 21.7701 65.2964 18.1859 65.3002ZM18.1859 39.1958C15.6967 39.1958 13.2634 39.934 11.1937 41.3169C9.12404 42.6998 7.51092 44.6654 6.55835 46.9651C5.60578 49.2648 5.35654 51.7953 5.84216 54.2367C6.32777 56.678 7.52643 58.9206 9.28655 60.6807C11.0467 62.4408 13.2892 63.6395 15.7305 64.1251C18.1719 64.6107 20.7024 64.3615 23.0021 63.4089C25.3018 62.4563 27.2674 60.8432 28.6504 58.7735C30.0333 56.7038 30.7714 54.2706 30.7714 51.7814C30.7676 48.4447 29.4404 45.2457 27.081 42.8863C24.7215 40.5269 21.5226 39.1997 18.1859 39.1958Z" fill="black"/>
<path d="M27.7935 61.0816C27.7062 61.0819 27.6206 61.0578 27.5464 61.0119C27.4722 60.9661 27.4123 60.9003 27.3735 60.8221C26.5252 59.1098 25.2154 57.6686 23.5918 56.6611C21.9681 55.6535 20.0953 55.1196 18.1844 55.1196C16.2735 55.1196 14.4006 55.6535 12.777 56.6611C11.1534 57.6686 9.84353 59.1098 8.99524 60.8221C8.94023 60.933 8.84342 61.0175 8.7261 61.057C8.60878 61.0965 8.48057 61.0878 8.36968 61.0328C8.25878 60.9778 8.17428 60.881 8.13477 60.7637C8.09525 60.6463 8.10396 60.5181 8.15898 60.4072C9.08461 58.5393 10.5137 56.9671 12.2851 55.868C14.0564 54.7688 16.0997 54.1864 18.1844 54.1864C20.2691 54.1864 22.3123 54.7688 24.0837 55.868C25.8551 56.9671 27.2842 58.5393 28.2098 60.4072C28.2451 60.4784 28.2617 60.5573 28.258 60.6367C28.2543 60.716 28.2304 60.7931 28.1886 60.8606C28.1468 60.9282 28.0884 60.9839 28.019 61.0225C27.9496 61.0612 27.8715 61.0815 27.7921 61.0816H27.7935Z" fill="black"/>
<path d="M18.1861 52.0749C17.2336 52.0749 16.3025 51.7924 15.5105 51.2632C14.7185 50.734 14.1012 49.9819 13.7367 49.1019C13.3722 48.2219 13.2768 47.2535 13.4627 46.3193C13.6485 45.3851 14.1072 44.527 14.7807 43.8534C15.4542 43.1799 16.3124 42.7212 17.2466 42.5354C18.1808 42.3496 19.1491 42.445 20.0291 42.8095C20.9091 43.174 21.6613 43.7913 22.1905 44.5832C22.7197 45.3752 23.0021 46.3064 23.0021 47.2589C23.0006 48.5357 22.4928 49.7598 21.5899 50.6627C20.6871 51.5655 19.4629 52.0734 18.1861 52.0749ZM18.1861 43.3762C17.4182 43.3762 16.6675 43.6039 16.029 44.0306C15.3905 44.4572 14.8929 45.0636 14.599 45.773C14.3051 46.4825 14.2282 47.2632 14.3781 48.0163C14.5279 48.7695 14.8977 49.4613 15.4407 50.0043C15.9837 50.5473 16.6755 50.9171 17.4286 51.0669C18.1818 51.2168 18.9625 51.1399 19.672 50.846C20.3814 50.5521 20.9878 50.0545 21.4144 49.416C21.8411 48.7775 22.0688 48.0268 22.0688 47.2589C22.0675 46.2295 21.6581 45.2427 20.9302 44.5148C20.2023 43.7869 19.2155 43.3774 18.1861 43.3762Z" fill="black"/>
<path d="M45.9664 40.5804C45.8776 40.5805 45.7905 40.5552 45.7155 40.5075C45.6406 40.4598 45.5808 40.3917 45.5432 40.3111L40.7118 29.9535C40.6858 29.8979 40.6711 29.8378 40.6684 29.7766C40.6657 29.7153 40.6751 29.6541 40.6961 29.5965C40.717 29.5389 40.7491 29.486 40.7905 29.4408C40.8319 29.3956 40.8818 29.359 40.9374 29.333C40.9929 29.3071 41.0531 29.2924 41.1143 29.2897C41.1756 29.287 41.2367 29.2964 41.2943 29.3174C41.352 29.3383 41.4049 29.3704 41.4501 29.4118C41.4953 29.4532 41.5319 29.5031 41.5578 29.5587L46.3864 39.9163C46.4123 39.9719 46.427 40.032 46.4297 40.0932C46.4324 40.1545 46.4229 40.2156 46.402 40.2732C46.381 40.3308 46.3489 40.3837 46.3075 40.4289C46.266 40.4741 46.2161 40.5107 46.1606 40.5365C46.0998 40.5651 46.0336 40.5801 45.9664 40.5804Z" fill="black"/>
<path d="M24.0552 40.5897C23.9767 40.5897 23.8995 40.5698 23.8307 40.532C23.7619 40.4942 23.7038 40.4396 23.6617 40.3734C23.6196 40.3071 23.5949 40.2313 23.5898 40.153C23.5848 40.0746 23.5996 39.9963 23.6329 39.9252L28.4904 29.5484C28.5442 29.4384 28.639 29.354 28.7545 29.3133C28.8699 29.2727 28.9967 29.2789 29.1075 29.3308C29.2183 29.3827 29.3043 29.4761 29.347 29.5908C29.3897 29.7055 29.3856 29.8324 29.3356 29.9441L24.4785 40.32C24.441 40.4006 24.3812 40.4688 24.3062 40.5166C24.2312 40.5644 24.1441 40.5897 24.0552 40.5897Z" fill="black"/>
</svg>
