<svg width="70" height="70" viewBox="0 0 70 70" fill="none" xmlns="http://www.w3.org/2000/svg">
<path d="M50.4653 65.3333H19.5346C18.5003 65.3322 17.5086 64.9208 16.7772 64.1894C16.0458 63.458 15.6344 62.4663 15.6333 61.432V43.3906C15.6333 43.2669 15.6825 43.1482 15.77 43.0606C15.8575 42.9731 15.9762 42.924 16.1 42.924C16.2237 42.924 16.3424 42.9731 16.43 43.0606C16.5175 43.1482 16.5666 43.2669 16.5666 43.3906V61.432C16.5676 62.2188 16.8806 62.9732 17.437 63.5296C17.9934 64.0859 18.7478 64.399 19.5346 64.4H50.4653C51.2522 64.399 52.0065 64.0859 52.5629 63.5296C53.1193 62.9732 53.4323 62.2188 53.4333 61.432V34.4913C53.4333 34.3675 53.4825 34.2488 53.57 34.1613C53.6575 34.0738 53.7762 34.0246 53.9 34.0246C54.0237 34.0246 54.1424 34.0738 54.23 34.1613C54.3175 34.2488 54.3666 34.3675 54.3666 34.4913V61.432C54.3655 62.4663 53.9541 63.458 53.2227 64.1894C52.4913 64.9208 51.4997 65.3322 50.4653 65.3333Z" fill="black"/>
<path d="M16.1 25.2747C15.9762 25.2747 15.8575 25.2255 15.77 25.138C15.6825 25.0505 15.6333 24.9318 15.6333 24.808V8.56335C15.635 7.52962 16.0468 6.53878 16.7782 5.80826C17.5096 5.07773 18.5009 4.66718 19.5346 4.66669H50.4653C51.499 4.66718 52.4904 5.07773 53.2218 5.80826C53.9532 6.53878 54.3649 7.52962 54.3666 8.56335V18.3914C54.3666 18.5151 54.3175 18.6338 54.23 18.7213C54.1424 18.8089 54.0237 18.858 53.9 18.858C53.7762 18.858 53.6575 18.8089 53.57 18.7213C53.4825 18.6338 53.4333 18.5151 53.4333 18.3914V8.56335C53.4317 7.77711 53.1183 7.0236 52.5619 6.46809C52.0056 5.91257 51.2515 5.60039 50.4653 5.60002H19.5346C18.7484 5.60039 17.9944 5.91257 17.438 6.46809C16.8816 7.0236 16.5682 7.77711 16.5666 8.56335V24.808C16.5666 24.9318 16.5175 25.0505 16.43 25.138C16.3424 25.2255 16.2237 25.2747 16.1 25.2747Z" fill="black"/>
<path d="M53.9 12.1202H16.1C15.9762 12.1202 15.8575 12.0711 15.77 11.9835C15.6825 11.896 15.6333 11.7773 15.6333 11.6536C15.6333 11.5298 15.6825 11.4111 15.77 11.3236C15.8575 11.2361 15.9762 11.1869 16.1 11.1869H53.9C54.0237 11.1869 54.1424 11.2361 54.23 11.3236C54.3175 11.4111 54.3666 11.5298 54.3666 11.6536C54.3666 11.7773 54.3175 11.896 54.23 11.9835C54.1424 12.0711 54.0237 12.1202 53.9 12.1202Z" fill="black"/>
<path d="M53.9 56.1003H16.1C15.9762 56.1003 15.8575 56.0512 15.77 55.9636C15.6825 55.8761 15.6333 55.7574 15.6333 55.6337C15.6333 55.5099 15.6825 55.3912 15.77 55.3037C15.8575 55.2162 15.9762 55.167 16.1 55.167H53.9C54.0237 55.167 54.1424 55.2162 54.23 55.3037C54.3175 55.3912 54.3666 55.5099 54.3666 55.6337C54.3666 55.7574 54.3175 55.8761 54.23 55.9636C54.1424 56.0512 54.0237 56.1003 53.9 56.1003Z" fill="black"/>
<path d="M38.591 9.04771H31.4071C31.2833 9.04771 31.1646 8.99855 31.0771 8.91103C30.9896 8.82351 30.9404 8.70481 30.9404 8.58105C30.9404 8.45728 30.9896 8.33858 31.0771 8.25106C31.1646 8.16355 31.2833 8.11438 31.4071 8.11438H38.591C38.7147 8.11438 38.8334 8.16355 38.9209 8.25106C39.0085 8.33858 39.0576 8.45728 39.0576 8.58105C39.0576 8.70481 39.0085 8.82351 38.9209 8.91103C38.8334 8.99855 38.7147 9.04771 38.591 9.04771Z" fill="black"/>
<path d="M34.9999 63.2081C34.4245 63.2087 33.8618 63.0386 33.3831 62.7193C32.9043 62.4001 32.531 61.946 32.3103 61.4146C32.0897 60.8832 32.0315 60.2983 32.1433 59.7338C32.2551 59.1693 32.5318 58.6507 32.9383 58.2435C33.3449 57.8363 33.8631 57.5588 34.4274 57.4461C34.9917 57.3334 35.5767 57.3906 36.1085 57.6104C36.6402 57.8302 37.0949 58.2028 37.4149 58.681C37.7349 59.1593 37.9059 59.7216 37.9063 60.2971C37.9054 61.0681 37.5991 61.8073 37.0544 62.3529C36.5096 62.8985 35.7709 63.206 34.9999 63.2081ZM34.9999 58.3235C34.6089 58.323 34.2265 58.4385 33.9012 58.6553C33.5758 58.8722 33.3221 59.1807 33.1722 59.5419C33.0223 59.903 32.9829 60.3005 33.059 60.684C33.1351 61.0675 33.3233 61.4199 33.5998 61.6964C33.8762 61.9729 34.2285 62.1612 34.612 62.2374C34.9955 62.3136 35.393 62.2743 35.7542 62.1245C36.1154 61.9746 36.424 61.721 36.6409 61.3957C36.8579 61.0704 36.9734 60.6881 36.973 60.2971C36.9719 59.7741 36.7636 59.2728 36.3939 58.903C36.0241 58.5331 35.5229 58.3248 34.9999 58.3235Z" fill="black"/>
<path d="M45.8312 40.964C45.7699 40.9642 45.7091 40.9522 45.6525 40.9286C45.5673 40.8932 45.4944 40.8334 45.4431 40.7566C45.3919 40.6799 45.3645 40.5897 45.3646 40.4974V34.9254C44.5712 34.812 43.8454 34.4165 43.3199 33.8114C42.7945 33.2063 42.5048 32.4321 42.5039 31.6307V21.252C42.5048 20.3698 42.8556 19.524 43.4794 18.9002C44.1032 18.2764 44.949 17.9256 45.8312 17.9247H62.0059C62.8881 17.9256 63.7339 18.2764 64.3577 18.9002C64.9815 19.524 65.3324 20.3698 65.3332 21.252V31.6307C65.3324 32.5129 64.9815 33.3587 64.3577 33.9825C63.7339 34.6063 62.8881 34.9572 62.0059 34.958H52.0304L46.1612 40.8273C46.0737 40.9148 45.955 40.964 45.8312 40.964ZM45.8312 18.858C45.1965 18.8587 44.5879 19.1111 44.1391 19.5599C43.6903 20.0087 43.4379 20.6173 43.4372 21.252V31.6307C43.4379 32.2654 43.6903 32.874 44.1391 33.3228C44.5879 33.7717 45.1965 34.0241 45.8312 34.0247C45.955 34.0247 46.0737 34.0739 46.1612 34.1614C46.2487 34.2489 46.2979 34.3676 46.2979 34.4914V39.3708L51.5073 34.16C51.5948 34.0725 51.7135 34.0233 51.8372 34.0233H62.0059C62.6404 34.0227 63.2487 33.7705 63.6975 33.3219C64.1463 32.8734 64.3989 32.2652 64.3999 31.6307V21.252C64.3993 20.6173 64.1469 20.0087 63.698 19.5599C63.2492 19.1111 62.6406 18.8587 62.0059 18.858H45.8312Z" fill="black"/>
<path d="M27.1057 50.7921C26.9819 50.792 26.8633 50.7428 26.7758 50.6553L19.9797 43.8588H8.4353C7.43614 43.8578 6.47818 43.4605 5.77162 42.754C5.06506 42.0475 4.66762 41.0896 4.6665 40.0904V28.1102C4.66762 27.111 5.06504 26.153 5.77159 25.4465C6.47813 24.7399 7.4361 24.3425 8.4353 24.3414H27.1057C28.1049 24.3425 29.0629 24.7399 29.7694 25.4465C30.476 26.153 30.8734 27.111 30.8745 28.1102V40.0904C30.8733 41.0088 30.5373 41.8953 29.9294 42.5838C29.3216 43.2722 28.4836 43.7154 27.5724 43.8303V50.3254C27.5724 50.4492 27.5232 50.5679 27.4357 50.6554C27.3482 50.7429 27.2295 50.7921 27.1057 50.7921Z" fill="#FEDD15"/>
<path d="M9.8084 36.9413C9.32383 36.9413 8.85015 36.7976 8.44725 36.5284C8.04435 36.2592 7.73033 35.8765 7.54489 35.4289C7.35946 34.9812 7.31094 34.4886 7.40548 34.0133C7.50001 33.5381 7.73335 33.1015 8.07599 32.7589C8.41863 32.4162 8.85517 32.1829 9.33043 32.0884C9.80568 31.9938 10.2983 32.0424 10.746 32.2278C11.1937 32.4132 11.5763 32.7272 11.8455 33.1301C12.1147 33.533 12.2584 34.0067 12.2584 34.4913C12.2577 35.1408 11.9993 35.7636 11.54 36.2229C11.0807 36.6822 10.458 36.9405 9.8084 36.9413ZM9.8084 32.9746C9.50843 32.9746 9.2152 33.0636 8.96578 33.2302C8.71637 33.3969 8.52198 33.6338 8.40718 33.9109C8.29239 34.188 8.26235 34.493 8.32087 34.7872C8.3794 35.0814 8.52384 35.3516 8.73595 35.5637C8.94806 35.7758 9.21831 35.9203 9.51251 35.9788C9.80672 36.0373 10.1117 36.0073 10.3888 35.8925C10.6659 35.7777 10.9028 35.5833 11.0695 35.3339C11.2361 35.0845 11.3251 34.7913 11.3251 34.4913C11.3246 34.0892 11.1646 33.7037 10.8803 33.4194C10.596 33.1351 10.2105 32.9751 9.8084 32.9746Z" fill="black"/>
<path d="M17.7708 36.9413C17.2862 36.9413 16.8126 36.7976 16.4097 36.5284C16.0068 36.2592 15.6927 35.8765 15.5073 35.4289C15.3219 34.9812 15.2733 34.4886 15.3679 34.0133C15.4624 33.5381 15.6958 33.1015 16.0384 32.7589C16.381 32.4162 16.8176 32.1829 17.2928 32.0884C17.7681 31.9938 18.2607 32.0424 18.7084 32.2278C19.1561 32.4132 19.5387 32.7272 19.8079 33.1301C20.0771 33.533 20.2208 34.0067 20.2208 34.4913C20.2201 35.1408 19.9617 35.7636 19.5024 36.2229C19.0431 36.6822 18.4204 36.9405 17.7708 36.9413ZM17.7708 32.9746C17.4708 32.9746 17.1776 33.0636 16.9282 33.2302C16.6788 33.3969 16.4844 33.6338 16.3696 33.9109C16.2548 34.188 16.2248 34.493 16.2833 34.7872C16.3418 35.0814 16.4862 35.3516 16.6984 35.5637C16.9105 35.7758 17.1807 35.9203 17.4749 35.9788C17.7691 36.0373 18.0741 36.0073 18.3512 35.8925C18.6283 35.7777 18.8652 35.5833 19.0319 35.3339C19.1985 35.0845 19.2875 34.7913 19.2875 34.4913C19.287 34.0892 19.127 33.7037 18.8427 33.4194C18.5584 33.1351 18.1729 32.9751 17.7708 32.9746Z" fill="black"/>
<path d="M25.7332 36.9413C25.2486 36.9413 24.775 36.7976 24.3721 36.5284C23.9692 36.2592 23.6551 35.8765 23.4697 35.4289C23.2843 34.9812 23.2357 34.4886 23.3303 34.0133C23.4248 33.5381 23.6582 33.1015 24.0008 32.7589C24.3434 32.4162 24.78 32.1829 25.2552 32.0884C25.7305 31.9938 26.2231 32.0424 26.6708 32.2278C27.1185 32.4132 27.5011 32.7272 27.7703 33.1301C28.0395 33.533 28.1832 34.0067 28.1832 34.4913C28.1825 35.1408 27.9241 35.7636 27.4648 36.2229C27.0055 36.6822 26.3828 36.9405 25.7332 36.9413ZM25.7332 32.9746C25.4332 32.9746 25.14 33.0636 24.8906 33.2302C24.6412 33.3969 24.4468 33.6338 24.332 33.9109C24.2172 34.188 24.1872 34.493 24.2457 34.7872C24.3042 35.0814 24.4486 35.3516 24.6608 35.5637C24.8729 35.7758 25.1431 35.9203 25.4373 35.9788C25.7315 36.0373 26.0365 36.0073 26.3136 35.8925C26.5907 35.7777 26.8276 35.5833 26.9943 35.3339C27.1609 35.0845 27.2499 34.7913 27.2499 34.4913C27.2494 34.0892 27.0894 33.7037 26.8051 33.4194C26.5208 33.1351 26.1353 32.9751 25.7332 32.9746Z" fill="black"/>
<path d="M61.1703 24.108H47.287C47.1632 24.108 47.0445 24.0589 46.957 23.9713C46.8695 23.8838 46.8203 23.7651 46.8203 23.6414C46.8203 23.5176 46.8695 23.3989 46.957 23.3114C47.0445 23.2238 47.1632 23.1747 47.287 23.1747H61.1703C61.2941 23.1747 61.4128 23.2238 61.5003 23.3114C61.5878 23.3989 61.637 23.5176 61.637 23.6414C61.637 23.7651 61.5878 23.8838 61.5003 23.9713C61.4128 24.0589 61.2941 24.108 61.1703 24.108Z" fill="black"/>
<path d="M61.1703 30.058H47.287C47.1632 30.058 47.0445 30.0088 46.957 29.9213C46.8695 29.8338 46.8203 29.7151 46.8203 29.5913C46.8203 29.4676 46.8695 29.3489 46.957 29.2613C47.0445 29.1738 47.1632 29.1247 47.287 29.1247H61.1703C61.2941 29.1247 61.4128 29.1738 61.5003 29.2613C61.5878 29.3489 61.637 29.4676 61.637 29.5913C61.637 29.7151 61.5878 29.8338 61.5003 29.9213C61.4128 30.0088 61.2941 30.058 61.1703 30.058Z" fill="black"/>
</svg>
