<svg width="70" height="70" viewBox="0 0 70 70" fill="none" xmlns="http://www.w3.org/2000/svg">
<path d="M53.3515 65.3334H22.4204C21.3861 65.3322 20.3946 64.9207 19.6633 64.1893C18.932 63.4579 18.5206 62.4663 18.5195 61.4321V38.2667C18.5195 38.143 18.5687 38.0243 18.6562 37.9367C18.7437 37.8492 18.8624 37.8001 18.9862 37.8001C19.11 37.8001 19.2287 37.8492 19.3162 37.9367C19.4037 38.0243 19.4529 38.143 19.4529 38.2667V61.4321C19.4539 62.2188 19.7668 62.9731 20.3231 63.5295C20.8794 64.0859 21.6336 64.3989 22.4204 64.4001H53.3515C54.1384 64.3991 54.8927 64.0861 55.4491 63.5297C56.0055 62.9733 56.3185 62.2189 56.3195 61.4321V8.56338C56.318 7.77711 56.0047 7.02353 55.4483 6.46798C54.8919 5.91243 54.1378 5.6003 53.3515 5.60005H22.4204C21.6342 5.60042 20.8802 5.91261 20.3239 6.46814C19.7676 7.02368 19.4543 7.77719 19.4529 8.56338V19.9501C19.4529 20.0738 19.4037 20.1925 19.3162 20.28C19.2287 20.3676 19.11 20.4167 18.9862 20.4167C18.8624 20.4167 18.7437 20.3676 18.6562 20.28C18.5687 20.1925 18.5195 20.0738 18.5195 19.9501V8.56338C18.5213 7.52973 18.9329 6.53896 19.6642 5.80845C20.3955 5.07794 21.3867 4.66733 22.4204 4.66672H53.3515C54.3853 4.66721 55.3766 5.07776 56.108 5.80829C56.8394 6.53881 57.2511 7.52965 57.2529 8.56338V61.4321C57.2518 62.4664 56.8404 63.4581 56.109 64.1895C55.3776 64.9209 54.3859 65.3323 53.3515 65.3334Z" fill="black"/>
<path d="M56.7839 12.1232H18.9862C18.8624 12.1232 18.7437 12.074 18.6562 11.9865C18.5687 11.899 18.5195 11.7803 18.5195 11.6565C18.5195 11.5327 18.5687 11.414 18.6562 11.3265C18.7437 11.239 18.8624 11.1898 18.9862 11.1898H56.7862C56.91 11.1898 57.0287 11.239 57.1162 11.3265C57.2037 11.414 57.2529 11.5327 57.2529 11.6565C57.2529 11.7803 57.2037 11.899 57.1162 11.9865C57.0287 12.074 56.91 12.1232 56.7862 12.1232H56.7839Z" fill="black"/>
<path d="M56.7839 56.1027H18.9862C18.8624 56.1027 18.7437 56.0535 18.6562 55.966C18.5687 55.8785 18.5195 55.7598 18.5195 55.636C18.5195 55.5122 18.5687 55.3935 18.6562 55.306C18.7437 55.2185 18.8624 55.1693 18.9862 55.1693H56.7862C56.91 55.1693 57.0287 55.2185 57.1162 55.306C57.2037 55.3935 57.2529 55.5122 57.2529 55.636C57.2529 55.7598 57.2037 55.8785 57.1162 55.966C57.0287 56.0535 56.91 56.1027 56.7862 56.1027H56.7839Z" fill="black"/>
<path d="M41.4768 9.05339H34.2943C34.1705 9.05339 34.0518 9.00422 33.9643 8.9167C33.8768 8.82919 33.8276 8.71049 33.8276 8.58672C33.8276 8.46295 33.8768 8.34426 33.9643 8.25674C34.0518 8.16922 34.1705 8.12006 34.2943 8.12006H41.4768C41.6005 8.12006 41.7192 8.16922 41.8068 8.25674C41.8943 8.34426 41.9434 8.46295 41.9434 8.58672C41.9434 8.71049 41.8943 8.82919 41.8068 8.9167C41.7192 9.00422 41.6005 9.05339 41.4768 9.05339Z" fill="black"/>
<path d="M37.8871 63.2105C37.3117 63.2111 36.749 63.041 36.2703 62.7217C35.7915 62.4025 35.4182 61.9484 35.1975 61.417C34.9769 60.8855 34.9187 60.3006 35.0305 59.7361C35.1423 59.1717 35.419 58.653 35.8255 58.2458C36.2321 57.8386 36.7503 57.5611 37.3146 57.4484C37.8789 57.3357 38.4639 57.3929 38.9957 57.6127C39.5275 57.8326 39.9821 58.2052 40.3021 58.6834C40.6221 59.1616 40.7931 59.724 40.7935 60.2994C40.7925 61.0704 40.4861 61.8096 39.9414 62.3551C39.3967 62.9007 38.6581 63.2083 37.8871 63.2105ZM37.8871 58.3259C37.4961 58.3253 37.1137 58.4408 36.7884 58.6577C36.463 58.8746 36.2093 59.1831 36.0594 59.5442C35.9095 59.9054 35.8701 60.3029 35.9462 60.6864C36.0223 61.0699 36.2105 61.4222 36.487 61.6988C36.7634 61.9753 37.1157 62.1635 37.4992 62.2397C37.8827 62.3159 38.2802 62.2767 38.6414 62.1268C39.0026 61.977 39.3112 61.7234 39.5281 61.3981C39.7451 61.0728 39.8606 60.6904 39.8602 60.2994C39.8589 59.7765 39.6507 59.2753 39.2809 58.9055C38.9112 58.5356 38.4101 58.3272 37.8871 58.3259Z" fill="black"/>
<path d="M41.6981 41.3744C41.155 41.3739 40.6342 41.158 40.2502 40.774C39.8661 40.39 39.65 39.8693 39.6494 39.3262V32.5698C39.6494 32.446 39.6986 32.3273 39.7861 32.2398C39.8736 32.1523 39.9923 32.1031 40.1161 32.1031H43.2796C43.4034 32.1031 43.5221 32.1523 43.6096 32.2398C43.6971 32.3273 43.7463 32.446 43.7463 32.5698V39.3262C43.7457 39.8692 43.5297 40.3899 43.1457 40.7738C42.7617 41.1578 42.2411 41.3738 41.6981 41.3744ZM40.5828 33.0365V39.3262C40.5887 39.618 40.7088 39.8958 40.9173 40.1001C41.1258 40.3043 41.406 40.4187 41.6979 40.4187C41.9897 40.4187 42.2699 40.3043 42.4784 40.1001C42.6869 39.8958 42.807 39.618 42.813 39.3262V33.0365H40.5828Z" fill="black"/>
<path d="M29.8728 32.0836C29.0058 32.0836 28.1744 31.7393 27.5614 31.1262C26.9484 30.5132 26.604 29.6818 26.604 28.8149C26.604 27.9479 26.9484 27.1165 27.5614 26.5035C28.1744 25.8905 29.0058 25.5461 29.8728 25.5461C29.9965 25.5461 30.1152 25.5953 30.2028 25.6828C30.2903 25.7703 30.3394 25.889 30.3394 26.0128C30.3394 26.1365 30.2903 26.2552 30.2028 26.3428C30.1152 26.4303 29.9965 26.4794 29.8728 26.4794C29.2534 26.4794 28.6593 26.7255 28.2214 27.1635C27.7834 27.6015 27.5373 28.1955 27.5373 28.8149C27.5373 29.4343 27.7834 30.0283 28.2214 30.4663C28.6593 30.9043 29.2534 31.1503 29.8728 31.1503C29.9965 31.1503 30.1152 31.1995 30.2028 31.287C30.2903 31.3745 30.3394 31.4932 30.3394 31.617C30.3394 31.7407 30.2903 31.8594 30.2028 31.947C30.1152 32.0345 29.9965 32.0836 29.8728 32.0836Z" fill="black"/>
<path d="M29.8724 38.6221C29.7487 38.6221 29.63 38.5729 29.5424 38.4854C29.4549 38.3979 29.4058 38.2792 29.4058 38.1554V19.4738C29.4058 19.389 29.4289 19.3058 29.4726 19.2332C29.5164 19.1605 29.5791 19.1012 29.6541 19.0615C29.729 19.0218 29.8134 19.0033 29.8981 19.0079C29.9827 19.0126 30.0645 19.0402 30.1347 19.0879L38.25 24.6118H44.5216C45.0126 24.6125 45.4834 24.8078 45.8306 25.155C46.1778 25.5022 46.3732 25.973 46.3738 26.464V31.1872C46.3739 31.4304 46.3261 31.6714 46.233 31.8961C46.14 32.1209 46.0036 32.3251 45.8316 32.4972C45.6595 32.6692 45.4553 32.8056 45.2305 32.8986C45.0057 32.9917 44.7648 33.0395 44.5216 33.0394H44.516L38.2491 33.0184L30.1347 38.5414C30.0573 38.594 29.966 38.6221 29.8724 38.6221Z" fill="#FEDD15"/>
<path d="M17.3583 39.3035C17.2345 39.3034 17.1158 39.2543 17.0283 39.1667C14.2862 36.4195 12.7461 32.6965 12.7461 28.8149C12.7461 24.9333 14.2862 21.2103 17.0283 18.4631C17.1159 18.3756 17.2346 18.3264 17.3584 18.3265C17.4822 18.3265 17.6009 18.3757 17.6884 18.4633C17.7759 18.5509 17.8251 18.6696 17.825 18.7934C17.825 18.9172 17.7758 19.0359 17.6882 19.1234C15.1212 21.6956 13.6795 25.1812 13.6795 28.8151C13.6795 32.4491 15.1212 35.9347 17.6882 38.5069C17.7534 38.5721 17.7979 38.6553 17.8159 38.7458C17.8339 38.8363 17.8246 38.9301 17.7893 39.0154C17.754 39.1006 17.6942 39.1735 17.6175 39.2248C17.5408 39.2761 17.4505 39.3035 17.3583 39.3035Z" fill="black"/>
<path d="M19.8023 36.8567C19.6787 36.8568 19.56 36.8078 19.4724 36.7205C17.3789 34.6221 16.2031 31.779 16.2031 28.8149C16.2031 25.8508 17.3789 23.0077 19.4724 20.9093C19.5156 20.8659 19.567 20.8313 19.6236 20.8077C19.6802 20.7841 19.7409 20.7718 19.8022 20.7716C19.8635 20.7715 19.9243 20.7834 19.981 20.8067C20.0377 20.83 20.0893 20.8642 20.1327 20.9075C20.1762 20.9507 20.2108 21.0021 20.2344 21.0587C20.258 21.1152 20.2703 21.1759 20.2704 21.2372C20.2706 21.2986 20.2587 21.3593 20.2354 21.416C20.2121 21.4727 20.1778 21.5243 20.1346 21.5678C18.2158 23.4909 17.1382 26.0966 17.1382 28.8133C17.1382 31.5299 18.2158 34.1356 20.1346 36.0587C20.1999 36.124 20.2443 36.2071 20.2623 36.2976C20.2803 36.3882 20.271 36.482 20.2357 36.5672C20.2004 36.6525 20.1406 36.7254 20.0639 36.7766C19.9872 36.8279 19.897 36.8553 19.8047 36.8553L19.8023 36.8567Z" fill="black"/>
<path d="M22.2503 34.4104C22.189 34.4106 22.1283 34.3986 22.0717 34.3751C22.015 34.3517 21.9636 34.3172 21.9204 34.2737C20.474 32.8247 19.6616 30.8611 19.6616 28.8137C19.6616 26.7664 20.474 24.8027 21.9204 23.3537C22.0084 23.2687 22.1263 23.2217 22.2486 23.2227C22.371 23.2238 22.4881 23.2729 22.5746 23.3594C22.6611 23.4459 22.7102 23.563 22.7112 23.6853C22.7123 23.8077 22.6653 23.9256 22.5803 24.0136C21.3094 25.2875 20.5957 27.0134 20.5957 28.8128C20.5957 30.6122 21.3094 32.3381 22.5803 33.612C22.6455 33.6772 22.6899 33.7604 22.7079 33.8509C22.7259 33.9414 22.7167 34.0352 22.6814 34.1205C22.6461 34.2057 22.5863 34.2786 22.5095 34.3299C22.4328 34.3812 22.3426 34.4086 22.2503 34.4086V34.4104Z" fill="black"/>
<path d="M24.6969 31.9642C24.5731 31.9642 24.4545 31.915 24.367 31.8275C23.9712 31.432 23.6573 30.9623 23.4431 30.4454C23.2289 29.9285 23.1187 29.3745 23.1187 28.8149C23.1187 28.2554 23.2289 27.7014 23.4431 27.1844C23.6573 26.6675 23.9712 26.1979 24.367 25.8024C24.4545 25.7146 24.5733 25.6652 24.6972 25.665C24.8211 25.6649 24.94 25.7139 25.0278 25.8014C25.1155 25.8889 25.1649 26.0077 25.1651 26.1316C25.1653 26.2556 25.1162 26.3745 25.0287 26.4622C24.7196 26.7711 24.4745 27.1379 24.3072 27.5416C24.1399 27.9453 24.0538 28.378 24.0538 28.8149C24.0538 29.2519 24.1399 29.6846 24.3072 30.0883C24.4745 30.492 24.7196 30.8587 25.0287 31.1676C25.0939 31.2329 25.1384 31.316 25.1564 31.4065C25.1744 31.4971 25.1651 31.5909 25.1298 31.6761C25.0945 31.7614 25.0347 31.8343 24.958 31.8855C24.8813 31.9368 24.7911 31.9642 24.6988 31.9642H24.6969Z" fill="black"/>
</svg>
