<svg width="70" height="70" viewBox="0 0 70 70" fill="none" xmlns="http://www.w3.org/2000/svg">
<path d="M63.7751 25.1718H6.22452C6.10527 25.1718 5.99091 25.1244 5.90659 25.0401C5.82227 24.9558 5.7749 24.8414 5.7749 24.7222V17.7608C5.77496 17.6706 5.80218 17.5824 5.85302 17.5078C5.90386 17.4333 5.97596 17.3757 6.05996 17.3427L34.8352 6.0304C34.9411 5.98946 35.0585 5.98946 35.1644 6.0304L63.9396 17.3427C64.0236 17.3757 64.0957 17.4333 64.1466 17.5078C64.1974 17.5824 64.2246 17.6706 64.2247 17.7608V24.7222C64.2247 24.8414 64.1773 24.9558 64.093 25.0401C64.0087 25.1244 63.8943 25.1718 63.7751 25.1718ZM6.67413 24.2726H63.3255V18.0675L34.9998 6.93187L6.67413 18.0675V24.2726Z" fill="black"/>
<path d="M63.6989 64H6.30118C6.18193 64 6.06757 63.9526 5.98325 63.8683C5.89893 63.784 5.85156 63.6696 5.85156 63.5504V57.8133C5.85156 57.6941 5.89893 57.5797 5.98325 57.4954C6.06757 57.4111 6.18193 57.3637 6.30118 57.3637H63.6989C63.8181 57.3637 63.9325 57.4111 64.0168 57.4954C64.1011 57.5797 64.1485 57.6941 64.1485 57.8133V63.5504C64.1485 63.6696 64.1011 63.784 64.0168 63.8683C63.9325 63.9526 63.8181 64 63.6989 64ZM6.75079 63.1008H63.2493V58.2629H6.75079V63.1008Z" fill="black"/>
<path d="M56.6652 52.5255H50.2748C50.1556 52.5255 50.0412 52.4781 49.9569 52.3938C49.8726 52.3095 49.8252 52.1951 49.8252 52.0759V24.7223C49.8252 24.603 49.8726 24.4887 49.9569 24.4043C50.0412 24.32 50.1556 24.2726 50.2748 24.2726H56.6652C56.7844 24.2726 56.8988 24.32 56.9831 24.4043C57.0674 24.4887 57.1148 24.603 57.1148 24.7223V52.0759C57.1148 52.1951 57.0674 52.3095 56.9831 52.3938C56.8988 52.4781 56.7844 52.5255 56.6652 52.5255ZM50.7244 51.6262H56.2156V25.1719H50.7244V51.6262Z" fill="black"/>
<path d="M38.5236 52.5255H32.1337C32.0145 52.5255 31.9001 52.4781 31.8158 52.3938C31.7315 52.3095 31.6841 52.1951 31.6841 52.0759V24.7223C31.6841 24.603 31.7315 24.4887 31.8158 24.4043C31.9001 24.32 32.0145 24.2726 32.1337 24.2726H38.5236C38.6429 24.2726 38.7572 24.32 38.8415 24.4043C38.9259 24.4887 38.9732 24.603 38.9732 24.7223V52.0759C38.9732 52.1951 38.9259 52.3095 38.8415 52.3938C38.7572 52.4781 38.6429 52.5255 38.5236 52.5255ZM32.5833 51.6262H38.074V25.1719H32.5833V51.6262Z" fill="black"/>
<path d="M19.7247 52.5255H13.3344C13.2151 52.5255 13.1008 52.4781 13.0165 52.3938C12.9321 52.3095 12.8848 52.1951 12.8848 52.0759V24.7223C12.8848 24.603 12.9321 24.4887 13.0165 24.4043C13.1008 24.32 13.2151 24.2726 13.3344 24.2726H19.7247C19.844 24.2726 19.9583 24.32 20.0427 24.4043C20.127 24.4887 20.1744 24.603 20.1744 24.7223V52.0759C20.1744 52.1951 20.127 52.3095 20.0427 52.3938C19.9583 52.4781 19.844 52.5255 19.7247 52.5255ZM13.784 51.6262H19.2751V25.1719H13.784V51.6262Z" fill="black"/>
<path d="M60.0359 57.263H9.96426C9.84502 57.263 9.73066 57.2156 9.64634 57.1313C9.56202 57.047 9.51465 56.9326 9.51465 56.8134V51.0758C9.51465 50.9566 9.56202 50.8422 9.64634 50.7579C9.73066 50.6736 9.84502 50.6262 9.96426 50.6262H60.0359C60.1552 50.6262 60.2695 50.6736 60.3539 50.7579C60.4382 50.8422 60.4855 50.9566 60.4855 51.0758V56.8134C60.4855 56.9326 60.4382 57.047 60.3539 57.1313C60.2695 57.2156 60.1552 57.263 60.0359 57.263Z" fill="#FEDD15"/>
<path d="M34.9998 21.0239C34.0021 21.0224 33.0272 20.7253 32.1983 20.17C31.3694 19.6146 30.7238 18.8261 30.343 17.9039C29.9622 16.9817 29.8633 15.9674 30.0588 14.989C30.2543 14.0106 30.7354 13.1122 31.4414 12.4072C32.1474 11.7023 33.0465 11.2224 34.0252 11.0283C35.0038 10.8341 36.018 10.9345 36.9396 11.3166C37.8613 11.6987 38.6489 12.3455 39.2031 13.1752C39.7572 14.0048 40.053 14.9801 40.053 15.9778C40.0506 17.3166 39.5172 18.5998 38.5698 19.5458C37.6225 20.4918 36.3386 21.0234 34.9998 21.0239Z" fill="#FEDD15"/>
<path d="M34.9998 21.0238C34.0021 21.0224 33.0272 20.7252 32.1983 20.1699C31.3694 19.6146 30.7238 18.826 30.343 17.9038C29.9622 16.9817 29.8633 15.9673 30.0588 14.9889C30.2543 14.0106 30.7354 13.1121 31.4414 12.4072C32.1474 11.7022 33.0465 11.2223 34.0252 11.0282C35.0038 10.8341 36.018 10.9344 36.9396 11.3166C37.8613 11.6987 38.6489 12.3455 39.2031 13.1751C39.7572 14.0048 40.053 14.9801 40.053 15.9778C40.0506 17.3166 39.5172 18.5998 38.5698 19.5458C37.6225 20.4918 36.3386 21.0233 34.9998 21.0238ZM34.9998 11.8314C34.1799 11.8329 33.3788 12.0773 32.6978 12.5338C32.0168 12.9904 31.4865 13.6385 31.1737 14.3964C30.861 15.1543 30.7799 15.9879 30.9408 16.7918C31.1016 17.5957 31.4972 18.3339 32.0774 18.9131C32.6577 19.4923 33.3966 19.8865 34.2009 20.0459C35.0051 20.2053 35.8385 20.1227 36.5958 19.8085C37.3531 19.4944 38.0003 18.9628 38.4556 18.281C38.9109 17.5991 39.1538 16.7976 39.1537 15.9778C39.1515 14.8775 38.7129 13.823 37.9341 13.0457C37.1554 12.2684 36.1001 11.8317 34.9998 11.8314Z" fill="black"/>
</svg>
