<svg width="70" height="70" viewBox="0 0 70 70" fill="none" xmlns="http://www.w3.org/2000/svg">
<g clip-path="url(#clip0)">
<path d="M17.3721 20.2659L18.2687 21.1834C21.7059 17.9573 26.2191 16.1815 30.9714 16.1815C35.7236 16.1815 40.2368 17.9573 43.674 21.1834L44.5707 20.2955C40.9242 16.7734 36.1122 14.8792 31.0013 14.8792C25.8903 14.8792 21.0783 16.7734 17.3721 20.2659Z" fill="black"/>
<path d="M29.805 67H35.1251V64.6914L35.6033 64.6618C43.5836 64.0699 49.8303 57.4401 49.8303 49.508V47.081L50.189 46.9627C51.0258 46.6667 51.7133 45.986 52.0122 45.1572L52.1317 44.8021H54.9711V34.443C54.9711 28.1092 52.4904 22.1305 47.9473 17.6318C43.4043 13.133 37.3967 10.6764 30.9706 10.6764C24.5745 10.6764 18.537 13.133 14.0238 17.6318C9.48075 22.1601 7 28.1388 7 34.4726V44.8317H9.83941L9.95897 45.1868C10.2579 46.0155 10.9453 46.6963 11.7822 46.9923L12.1408 47.1106V49.5376C12.1408 50.5735 12.5593 51.5502 13.2766 52.2902C14.0238 53.0301 15.0101 53.4149 16.0562 53.4149C17.1023 53.4149 18.0887 53.0005 18.8359 52.2902C19.5831 51.5502 19.9716 50.5735 19.9716 49.5376V38.853C19.9716 37.8171 19.5532 36.8404 18.8359 36.1005C18.0887 35.3605 17.1023 34.9758 16.0562 34.9758C15.0101 34.9758 14.0238 35.3901 13.2766 36.1005C12.5294 36.8404 12.1408 37.8171 12.1408 38.853V41.28L11.7822 41.3984C10.9453 41.6943 10.2579 42.3751 9.95897 43.2038L9.83941 43.559H8.28521V34.4726C8.28521 28.4644 10.6464 22.8113 14.9205 18.5789C19.2244 14.3465 24.9331 12.0083 31.0005 12.0083C37.0679 12.0083 42.7766 14.3465 47.0507 18.5789C51.3247 22.8113 53.6859 28.4644 53.6859 34.4726V43.5294H52.1317L52.0122 43.1742C51.7133 42.3455 51.0258 41.6647 50.189 41.3688L49.8303 41.2504V38.853C49.8303 37.8171 49.4119 36.8404 48.6945 36.1005C47.9473 35.3605 46.961 34.9758 45.9149 34.9758C44.8688 34.9758 43.8825 35.3901 43.1353 36.1005C42.388 36.8404 41.9995 37.8171 41.9995 38.853V49.508C41.9995 50.5439 42.4179 51.5206 43.1353 52.2606C43.8825 53.0005 44.8688 53.3853 45.9149 53.3853C46.3333 53.3853 46.7518 53.3261 47.1702 53.1781L48.1565 52.8525L47.8278 53.8292C46.0643 59.1567 41.3121 62.9156 35.6631 63.3891L35.0952 63.4483V61.1398H29.805C28.1611 61.1398 26.8161 62.4716 26.8161 64.0995C26.846 65.6977 28.191 67 29.805 67ZM13.426 38.853C13.426 38.1723 13.695 37.5211 14.2031 37.018C14.7112 36.5148 15.3688 36.2484 16.0562 36.2484C16.7437 36.2484 17.4012 36.5148 17.9093 37.018C18.4174 37.5211 18.6864 38.1723 18.6864 38.853V49.508C18.6864 50.1888 18.4174 50.8695 17.9093 51.3431C17.4012 51.8166 16.7437 52.1126 16.0562 52.1126C15.3688 52.1126 14.6814 51.8462 14.2031 51.3431C13.695 50.8399 13.426 50.1888 13.426 49.508V47.081L13.7847 46.9627C14.9802 46.5483 15.7573 45.4236 15.7573 44.1805C15.7573 42.9374 14.9504 41.8127 13.7847 41.3984L13.426 41.28V38.853ZM12.7685 42.5231C13.695 42.5231 14.4721 43.263 14.4721 44.2101C14.4721 45.1572 13.7249 45.8972 12.7685 45.8972C11.8121 45.8972 11.0648 45.1572 11.0648 44.2101C11.0648 43.263 11.8419 42.5231 12.7685 42.5231ZM49.2026 42.5231C50.1292 42.5231 50.9063 43.263 50.9063 44.2101C50.9063 45.1572 50.1591 45.8972 49.2026 45.8972C48.2462 45.8972 47.499 45.1572 47.499 44.2101C47.499 43.263 48.2761 42.5231 49.2026 42.5231ZM47.768 51.3431C47.2599 51.8462 46.6023 52.1126 45.9149 52.1126C45.2275 52.1126 44.54 51.8462 44.0618 51.3431C43.5537 50.8399 43.2847 50.1888 43.2847 49.508V38.853C43.2847 38.1723 43.5537 37.4915 44.0618 37.018C44.5699 36.5148 45.2275 36.2484 45.9149 36.2484C46.6023 36.2484 47.2599 36.5148 47.768 37.018C48.2761 37.5211 48.5451 38.1723 48.5451 38.853V41.28L48.1864 41.3984C46.9909 41.8127 46.2138 42.9374 46.2138 44.1805C46.2138 45.4236 47.0208 46.5483 48.1864 46.9627L48.5451 47.081V49.508C48.5451 50.1888 48.2761 50.8399 47.768 51.3431ZM29.805 62.3828H33.8399V65.7273H29.805C28.8784 65.7273 28.1013 64.9874 28.1013 64.0403C28.1013 63.0932 28.8784 62.3828 29.805 62.3828Z" fill="black"/>
<path d="M66.0294 6H31V29.1155H66.0294V6Z" fill="#FFD703"/>
<path d="M34.4976 34.6502V29.1155H40.0867L34.4976 34.6502Z" fill="#FFD703"/>
<path d="M45.9145 11.7715H37.7549V14.0801H45.9145V11.7715Z" fill="white"/>
<path d="M59.2448 16.3887H37.7549V18.6973H59.2448V16.3887Z" fill="white"/>
<path d="M54.343 21.0355H37.7549V23.344H54.343V21.0355Z" fill="white"/>
</g>
<defs>
<clipPath id="clip0">
<rect width="59" height="61" fill="white" transform="translate(7 6)"/>
</clipPath>
</defs>
</svg>
