<svg width="70" height="70" viewBox="0 0 70 70" fill="none" xmlns="http://www.w3.org/2000/svg">
<g clip-path="url(#clip0)">
<path d="M66.5337 13.4L66.267 12.5667L59.7337 19.1L53.9337 13.3L60.467 6.76667L59.6336 6.5C58.6003 6.16667 57.5336 6 56.4337 6C53.6003 6 50.967 7.1 48.967 9.1C46.3336 11.7333 45.3003 15.4667 46.167 19.1L46.267 19.4667L19.467 46.2667L19.1003 46.1667C18.267 45.9667 17.4337 45.8667 16.567 45.8667C13.7337 45.8667 11.1003 46.9667 9.10032 48.9667C6.30032 51.7667 5.30032 55.8333 6.50032 59.6333L6.76698 60.4667L13.3003 53.9333L19.1003 59.7333L12.567 66.2667L13.4003 66.5333C14.4337 66.8667 15.5003 67.0333 16.6003 67.0333C19.4337 67.0333 22.067 65.9333 24.067 63.9333C26.7003 61.3 27.7337 57.5667 26.867 53.9333L26.767 53.5667L53.567 26.7667L53.9337 26.8667C54.767 27.0667 55.6003 27.1667 56.467 27.1667C59.3003 27.1667 61.9337 26.0667 63.9337 24.0667C66.7003 21.2667 67.7003 17.1667 66.5337 13.4ZM63.167 23.3C61.367 25.1 59.0003 26.0667 56.4337 26.0667C55.467 26.0667 54.5003 25.9333 53.567 25.6333L53.267 25.5333L25.567 53.2333L25.667 53.5333C26.7337 56.9333 25.8337 60.6 23.3337 63.1333C21.5337 64.9333 19.167 65.9 16.6003 65.9C16.4003 65.9 16.167 65.9 15.967 65.8667L14.5003 65.7667L20.6003 59.6667L13.3003 52.3667L7.20032 58.5L7.10032 57.0333C6.93365 54.3 7.93365 51.6333 9.86698 49.7C11.667 47.9 14.0337 46.9333 16.6003 46.9333C17.567 46.9333 18.5337 47.0667 19.467 47.3667L19.767 47.4667L47.467 19.7667L47.367 19.4667C46.3003 16.0667 47.2003 12.4 49.7003 9.86667C51.5003 8.06667 53.867 7.1 56.4337 7.1C56.6337 7.1 56.867 7.1 57.067 7.13333L58.5337 7.23333L52.4003 13.3333L59.7003 20.6333L65.8336 14.5333L65.9337 16C66.1003 18.7 65.1003 21.3667 63.167 23.3Z" fill="black"/>
<path d="M59.2002 64.1C58.7669 64.5333 58.2002 64.7667 57.5669 64.7667C56.9335 64.7667 56.3335 64.5 55.9335 64.1L35.7002 43.8667L43.9002 35.6667L64.1335 55.9C64.5668 56.3333 64.8002 56.9 64.8002 57.5334C64.8002 58.1667 64.5335 58.7667 64.1335 59.1667L59.2002 64.1Z" fill="#FFD703"/>
<path d="M39.0546 34.1381L34.1299 39.0657L37.3127 42.2467L42.2375 37.3192L39.0546 34.1381Z" fill="#FFD703"/>
<path d="M57.5326 65.3C58.2993 65.3 58.9993 65 59.5326 64.4667L64.4659 59.5334C64.9993 59 65.2993 58.2667 65.2993 57.5334C65.2993 56.7667 64.9993 56.0667 64.4659 55.5334L43.8659 34.9333L34.9326 43.8667L55.5326 64.4667C56.066 65 56.7993 65.3 57.5326 65.3ZM43.8993 36.4333L63.7326 56.2667C64.0659 56.6 64.2659 57.0667 64.2659 57.5334C64.2659 58 64.0659 58.4667 63.7326 58.8L58.7993 63.7334C58.4659 64.0667 57.9993 64.2334 57.5326 64.2334C57.066 64.2334 56.5993 64.0334 56.2659 63.7334L36.4326 43.9L43.8993 36.4333Z" fill="black"/>
<path d="M43.0668 37.3333L39.0668 33.3333L33.3335 39.0666L37.3335 43.0666L43.0668 37.3333ZM34.9668 39.0666L35.0668 38.9666L39.1002 34.9333L39.2002 35.0333L41.5002 37.3333L41.4002 37.4333L37.3668 41.4333L34.9668 39.0666Z" fill="black"/>
<path d="M7.90039 9.7333L12.1004 16.8L16.3671 17.0666L36.0004 36.6666L36.7671 35.9L17.1004 16.3333L16.8337 12.1L9.73372 7.89996L8.93372 8.69996L15.8004 12.7333L16.0004 15.9666L12.7671 15.7666L12.7004 15.7L8.70039 8.9333L7.90039 9.7333Z" fill="black"/>
<path d="M60.2544 11.0384L58.5576 12.7357L60.2549 14.4325L61.9517 12.7352L60.2544 11.0384Z" fill="black"/>
<path d="M12.7705 58.5548L11.0728 60.2511L12.7691 61.9489L14.4668 60.2525L12.7705 58.5548Z" fill="black"/>
</g>
<defs>
<clipPath id="clip0">
<rect width="61" height="61" fill="white" transform="translate(6 6)"/>
</clipPath>
</defs>
</svg>
