<svg width="70" height="70" viewBox="0 0 70 70" fill="none" xmlns="http://www.w3.org/2000/svg">
<g clip-path="url(#clip0)">
<path d="M48.4852 32.0292H25.0581V24.76C25.0581 23.2584 25.6336 21.7568 26.7847 20.5964C27.9357 19.4361 29.4253 18.8559 30.9149 18.8559H42.6284C44.118 18.8559 45.6076 19.4361 46.7586 20.5964C47.9097 21.7568 48.4852 23.2584 48.4852 24.76V32.0292Z" fill="#FFD703"/>
<path d="M30.9995 26H29.9995V33H30.9995V26Z" fill="white"/>
<path d="M42.9995 26H41.9995V33H42.9995V26Z" fill="white"/>
<path d="M42.6276 10.9041C42.6276 14.1463 40.0208 16.8082 36.7708 16.8082C33.5547 16.8082 30.9141 14.1804 30.9141 10.9041C30.9141 7.62784 33.5208 5 36.7708 5C40.0208 5 42.6276 7.62784 42.6276 10.9041Z" fill="#FFD703"/>
<path d="M42.6276 10.9041C42.6276 14.1463 40.0208 16.8082 36.7708 16.8082C33.5547 16.8082 30.9141 14.1804 30.9141 10.9041C30.9141 7.62784 33.5208 5 36.7708 5C40.0208 5 42.6276 7.62784 42.6276 10.9041Z" fill="#FFD703"/>
<path d="M58.3019 41.8239C57.1509 40.6636 55.6274 40.0152 54.0024 40.0152H37.3462V35.3397H36.229V40.0152H19.5389C17.9139 40.0152 16.3905 40.6636 15.2394 41.8239C14.2238 42.8478 13.6144 44.1446 13.479 45.578H14.5962C14.7316 44.4518 15.2056 43.428 16.0181 42.643C16.966 41.6874 18.1847 41.1755 19.5389 41.1755H36.1952V45.578H37.3123V41.1755H53.9686C55.2889 41.1755 56.5415 41.6874 57.4894 42.643C58.3019 43.428 58.7759 44.4518 58.9113 45.578H60.0285C59.9269 44.1446 59.3176 42.8478 58.3019 41.8239Z" fill="black"/>
<path d="M59.5203 55.3044C57.7938 55.3044 56.4058 56.7037 56.4058 58.4442C56.4058 60.1847 57.7938 61.584 59.5203 61.584C61.2469 61.584 62.6349 60.1847 62.6349 58.4442C62.6349 56.7378 61.2131 55.3044 59.5203 55.3044ZM59.5203 60.4577C58.437 60.4577 57.523 59.5704 57.523 58.4442C57.523 57.3521 58.4032 56.4307 59.5203 56.4307C60.6375 56.4307 61.5177 57.318 61.5177 58.4442C61.4839 59.5363 60.6037 60.4577 59.5203 60.4577Z" fill="black"/>
<path d="M59.5207 48.8884C54.3071 48.8884 50.0415 53.1544 50.0415 58.4442C50.0415 63.6999 54.2733 68 59.5207 68C64.7681 68 68.9998 63.734 68.9998 58.4442C68.9998 53.1885 64.7342 48.8884 59.5207 48.8884ZM62.8384 66.1571C61.7889 66.6349 60.6717 66.8397 59.5207 66.8397C58.3696 66.8397 57.2524 66.6008 56.203 66.1571L55.5597 65.8841L55.9321 65.3039C56.0337 65.1333 56.1353 64.9968 56.2707 64.8944C56.7446 64.4166 57.354 64.1777 58.0311 64.1777H61.0441C61.7212 64.1777 62.3306 64.4507 62.8045 64.8944C62.9061 64.9968 63.0415 65.1333 63.1431 65.3039L63.5155 65.8841L62.8384 66.1571ZM64.9373 64.8261L64.4295 65.2698L64.0571 64.6896C63.9217 64.4507 63.7524 64.246 63.5493 64.0753C62.8722 63.3928 61.9582 63.0173 61.0102 63.0173H57.9972C57.0493 63.0173 56.1353 63.3928 55.4582 64.0753C55.2889 64.246 55.1196 64.4848 54.9504 64.6896L54.578 65.2698L54.0701 64.8261C52.2082 63.2221 51.1587 60.9014 51.1587 58.4442C51.1587 53.8028 54.9165 50.0146 59.4868 50.0146C64.091 50.0146 67.8488 53.8028 67.8488 58.4442C67.8488 60.9014 66.7993 63.2221 64.9373 64.8261Z" fill="black"/>
<path d="M36.8377 55.3044C35.1112 55.3044 33.7231 56.7037 33.7231 58.4442C33.7231 60.1847 35.1112 61.584 36.8377 61.584C38.5643 61.584 39.9523 60.1847 39.9523 58.4442C39.9523 56.7378 38.5304 55.3044 36.8377 55.3044ZM36.8377 60.4577C35.7544 60.4577 34.8403 59.5704 34.8403 58.4442C34.8403 57.3521 35.7205 56.4307 36.8377 56.4307C37.9549 56.4307 38.8351 57.318 38.8351 58.4442C38.8013 59.5363 37.9211 60.4577 36.8377 60.4577Z" fill="black"/>
<path d="M36.8385 48.8884C31.625 48.8884 27.3594 53.1544 27.3594 58.4442C27.3594 63.6999 31.5911 68 36.8385 68C42.0859 68 46.3177 63.734 46.3177 58.4442C46.3177 53.1885 42.0521 48.8884 36.8385 48.8884ZM40.1563 66.1571C39.1068 66.6349 37.9896 66.8397 36.8385 66.8397C35.6875 66.8397 34.5703 66.6008 33.5208 66.1571L32.8776 65.8841L33.25 65.3039C33.3516 65.1333 33.4531 64.9968 33.5885 64.8944C34.0625 64.4166 34.6719 64.1777 35.349 64.1777H38.362C39.0391 64.1777 39.6484 64.4507 40.1224 64.8944C40.224 64.9968 40.3594 65.1333 40.4609 65.3039L40.8333 65.8841L40.1563 66.1571ZM42.2552 64.8261L41.7474 65.2698L41.375 64.6896C41.2396 64.4507 41.0703 64.246 40.8672 64.0753C40.1901 63.3928 39.276 63.0173 38.3281 63.0173H35.3151C34.3672 63.0173 33.4531 63.3928 32.776 64.0753C32.6068 64.246 32.4375 64.4848 32.2682 64.6896L31.8958 65.2698L31.388 64.8261C29.526 63.2221 28.4766 60.9014 28.4766 58.4442C28.4766 53.8028 32.2344 50.0488 36.8385 50.0488C41.4427 50.0488 45.2005 53.837 45.2005 58.4783C45.1667 60.9014 44.1172 63.2221 42.2552 64.8261Z" fill="black"/>
<path d="M13.4784 55.3044C11.7518 55.3044 10.3638 56.7037 10.3638 58.4442C10.3638 60.1847 11.7518 61.584 13.4784 61.584C15.2049 61.584 16.5929 60.1847 16.5929 58.4442C16.5929 56.7378 15.1711 55.3044 13.4784 55.3044ZM13.4784 60.4577C12.395 60.4577 11.481 59.5704 11.481 58.4442C11.481 57.3521 12.3612 56.4307 13.4784 56.4307C14.5955 56.4307 15.4757 57.318 15.4757 58.4442C15.4419 59.5363 14.5617 60.4577 13.4784 60.4577Z" fill="black"/>
<path d="M13.4792 48.8884C8.26562 48.8884 4 53.1544 4 58.4442C4 63.6999 8.23177 68 13.4792 68C18.7266 68 22.9583 63.734 22.9583 58.4442C22.9583 53.1885 18.6927 48.8884 13.4792 48.8884ZM16.7969 66.1571C15.7474 66.6349 14.6302 66.8397 13.4792 66.8397C12.3281 66.8397 11.2109 66.6008 10.1615 66.1571L9.51823 65.8841L9.89062 65.3039C9.99219 65.1333 10.0937 64.9968 10.2292 64.8944C10.7031 64.4166 11.3125 64.1777 11.9896 64.1777H15.0026C15.6797 64.1777 16.2891 64.4507 16.763 64.8944C16.8646 64.9968 17 65.1333 17.1016 65.3039L17.474 65.8841L16.7969 66.1571ZM18.8958 64.8261L18.388 65.2698L18.0156 64.6896C17.8802 64.4507 17.7109 64.246 17.5078 64.0753C16.8307 63.3928 15.9167 63.0173 14.9688 63.0173H11.9557C11.0078 63.0173 10.0938 63.3928 9.41667 64.0753C9.2474 64.246 9.07812 64.4848 8.90885 64.6896L8.53646 65.2698L8.02865 64.8261C6.16667 63.2221 5.11719 60.9014 5.11719 58.4442C5.11719 53.8028 8.875 50.0488 13.4792 50.0488C18.0833 50.0488 21.8411 53.837 21.8411 58.4783C21.8073 60.9014 20.7578 63.2221 18.8958 64.8261Z" fill="black"/>
</g>
<defs>
<clipPath id="clip0">
<rect width="65" height="63" fill="white" transform="translate(4 5)"/>
</clipPath>
</defs>
</svg>
