<svg width="70" height="70" viewBox="0 0 70 70" fill="none" xmlns="http://www.w3.org/2000/svg">
<path d="M24.6411 63H48.3588V61.7829H45.0031V57.9869H43.8086V61.7829H29.1913V57.9869H27.9969V61.7829H24.6411V63Z" fill="black"/>
<path d="M11.5026 10C10.8201 10 10.1944 10.2608 9.7394 10.7534C9.25595 11.2171 9 11.8546 9 12.55V52.2783C9 52.9738 9.25595 53.6113 9.7394 54.0749C10.2229 54.5675 10.8485 54.8283 11.5026 54.8283H61.4974C62.1799 54.8283 62.8056 54.5675 63.2606 54.0749C63.7441 53.5823 64 52.9448 64 52.2783V12.55C64 11.8835 63.7441 11.246 63.2606 10.7534C62.8056 10.2608 62.1799 10 61.4974 10H11.5026ZM62.8056 52.2783C62.8056 52.626 62.6634 52.9738 62.4074 53.2056C62.0946 53.5243 61.6965 53.5823 61.4974 53.5823H11.5026C11.1613 53.5823 10.8201 53.4374 10.5926 53.2056C10.365 52.9738 10.2229 52.626 10.2229 52.2783V48.3663H62.834V52.2783H62.8056ZM62.8056 12.55V47.1493H10.1944V12.55C10.1944 12.2023 10.3366 11.8546 10.5641 11.6227C10.8201 11.3619 11.1329 11.246 11.4741 11.246H61.469C61.668 11.246 62.0662 11.304 62.379 11.6227C62.6634 11.8546 62.8056 12.2023 62.8056 12.55Z" fill="black"/>
<path d="M60.5625 13.4754H12.4375V44.7541H60.5625V13.4754Z" fill="#FFD703"/>
</svg>
