<svg width="70" height="70" viewBox="0 0 70 70" fill="none" xmlns="http://www.w3.org/2000/svg">
<path d="M12.5845 32.1573L36.4997 48.2829L60.3841 32.1573V64.4085H12.5845V32.1573Z" fill="#FFD703"/>
<path d="M54.0754 17.4948V36.3599H55.2758V16.6232L46.8732 8H17.7563V36.3599H18.9567V9.24522H45.9806V17.4948H54.0754ZM47.2118 10.1169L53.2136 16.2496H47.2118V10.1169Z" fill="black"/>
<path d="M49.7042 33.994H40.8091V35.2081H49.7042V33.994Z" fill="black"/>
<path d="M49.7042 29.5112H40.8091V30.7253H49.7042V29.5112Z" fill="black"/>
<path d="M49.7042 25.0284H40.8091V26.2425H49.7042V25.0284Z" fill="black"/>
<path d="M49.7042 20.5456H40.8091V21.7597H49.7042V20.5456Z" fill="black"/>
<path d="M37.762 16.0628H23.2651V17.2769H37.762V16.0628Z" fill="black"/>
<path d="M55.152 27.8924L54.4749 28.8886L59.3072 32.1573L49.9812 38.4456H23.0188L13.6928 32.1573L18.5251 28.8886L17.848 27.8924L12 31.846V65H61V31.846L55.152 27.8924ZM48.196 39.6597L43.3637 42.9284H29.6671L24.8348 39.6597H48.196ZM41.5477 44.1425L36.5 47.5358L31.4523 44.1425H41.5477ZM13.2004 63.7859V33.3091L58.4146 63.7859H13.2004ZM59.7996 63.2567L37.5773 48.2829L59.7996 33.3091V63.2567Z" fill="black"/>
<path d="M38.2239 20.0787H22.8037V35.6751H38.2239V20.0787Z" fill="#FFD703"/>
<path d="M27.3278 26.8028H25.2041V28.9508H27.3278V26.8028Z" fill="white"/>
<path d="M31.5749 26.8028H29.4512V28.9508H31.5749V26.8028Z" fill="white"/>
<path d="M35.823 26.8028H33.6992V28.9508H35.823V26.8028Z" fill="white"/>
</svg>
