<svg width="70" height="70" viewBox="0 0 70 70" fill="none" xmlns="http://www.w3.org/2000/svg">
<g clip-path="url(#clip0)">
<path fill-rule="evenodd" clip-rule="evenodd" d="M31.1691 55.6035C31.2597 55.6337 31.5014 55.5431 31.592 55.5129C31.4108 55.3921 31.0483 55.3619 30.8369 55.2411C30.8671 55.2411 30.1422 54.8182 30.2932 55.1807C30.3234 55.2713 30.4745 55.1807 30.5349 55.2411C30.4443 55.3619 30.4141 55.3317 30.5047 55.3921C30.5047 55.3921 29.7194 54.9693 30.5047 54.9391C29.961 54.4558 30.5349 54.6068 30.3536 54.3048C30.2328 54.0934 30.8067 53.8819 30.5047 53.7007C30.3536 53.6101 30.2026 53.6403 30.0516 53.5195C29.8402 53.3685 30.0516 53.0967 30.2328 53.1269C30.263 53.1269 30.3536 52.6436 30.3839 52.553C30.3234 52.5228 29.9308 52.0395 30.0214 51.9187C30.1422 51.7979 30.6557 52.251 30.8067 51.9187C30.8671 51.7979 30.6255 51.4657 30.6557 51.3449C30.8973 51.3147 32.4679 51.3751 32.196 50.6804C32.1054 50.4388 31.441 50.0461 31.5014 49.8649C31.743 49.8951 32.1054 50.2274 32.3471 50.1065C32.5585 50.0159 32.7095 50.2274 32.9209 49.9857C32.9511 49.9555 33.3136 49.5629 33.1927 49.5025C33.0719 49.5025 33.0115 49.5629 33.0115 49.6837C32.8907 49.5025 33.1021 49.4119 33.2229 49.2911C33.2532 49.3213 33.2834 49.3515 33.3136 49.4119C33.4344 49.2307 34.1592 48.2641 34.1895 48.2641C34.5519 47.8413 34.2499 47.2674 34.6123 46.9352C34.9445 46.6332 35.307 46.4218 35.7298 46.2405C35.8506 46.1801 36.3339 45.9385 36.4245 45.9687C37.1796 46.2103 37.089 45.3042 37.5722 44.8814C38.0555 44.4585 37.693 42.3443 38.1159 42.1933C38.3273 42.1027 38.9918 41.3174 39.324 40.9248C39.6562 40.5925 39.6864 40.1395 39.5656 39.6864C39.3844 38.9918 39.173 39.3844 38.6897 39.0824C38.2971 38.8408 37.9951 38.3877 37.5118 38.2971C37.2098 38.2669 36.9379 38.3575 36.6359 38.2669C36.5151 38.2367 36.1829 38.0253 36.062 38.2065C36.0923 38.1763 35.7902 38.3273 35.8204 38.3273C35.7902 38.2971 35.8204 37.9649 35.7298 37.8743C35.5788 37.7232 35.0653 37.6024 34.8841 37.542C34.4613 37.4212 34.3405 37.9347 34.2499 37.3306C33.8874 37.24 33.5552 36.8171 33.6156 36.7265C33.6458 36.6963 33.0719 35.458 32.9813 35.5788C32.9813 35.156 31.7128 34.6727 31.3806 34.8539C31.0785 35.0654 30.5651 34.6727 30.3839 34.4915C30.1724 34.2801 30.2026 34.0384 29.8402 33.8874C29.6892 33.827 29.4476 33.8572 29.508 33.6156C29.5684 33.3438 28.8737 33.3136 28.8133 33.0417C28.9039 33.0719 28.9945 33.0115 29.0851 32.9813C28.8133 33.0719 28.5113 32.8907 28.2394 33.1021C27.8468 33.4344 27.6354 32.9511 27.2125 33.0417C26.6689 33.1324 27.0313 32.9511 26.6991 32.7397C26.8501 32.8303 26.095 32.4075 26.246 32.4075C26.095 32.3773 26.2762 32.6793 26.095 32.7397C25.8232 32.8303 25.5815 32.9209 25.7628 33.223C26.0648 33.827 25.1285 33.5552 25.5815 33.1324C25.6722 33.0719 25.6722 32.2867 25.7628 32.2867C25.6419 32.2565 24.7963 32.8001 24.7057 32.9209C24.4338 32.4679 23.9808 34.0082 23.7996 34.0082C23.7089 33.6458 23.3465 33.4646 23.0445 33.374C22.7726 33.2834 22.5008 33.9176 22.1686 33.5552C21.5645 32.9209 21.8363 31.9242 22.1384 31.1993C22.2592 30.8671 20.9907 30.7765 20.8396 30.8973C20.5376 31.1389 20.9 30.3839 20.8698 30.3839C20.9 30.0818 20.9907 29.8704 21.1115 29.8704C21.2021 29.6892 21.6551 28.8435 21.6249 28.7227C21.4437 28.2696 20.6282 29.0549 20.5678 29.2663C20.4772 29.4476 20.3262 29.5684 20.2658 29.7496C20.1752 29.9308 20.0544 29.7194 19.9033 29.7798C19.5711 29.961 19.0577 29.8704 19.1483 29.357C19.2087 28.7529 18.9972 27.5448 19.6617 27.1521C19.8731 27.0313 19.9033 26.4272 20.145 26.2158C20.1752 26.1856 20.8698 25.793 20.8094 25.7024C20.9 25.8232 21.4437 25.5816 21.5041 25.7326C21.5645 25.8534 21.8666 25.9742 21.9874 25.9138L22.0478 25.642C22.0478 25.642 21.8363 25.6118 21.8363 25.5514C21.8666 25.4607 22.5008 25.5212 22.531 25.5212C22.8331 25.5514 23.0747 25.793 23.2861 25.642C23.6485 25.4003 23.4371 26.9709 23.5579 27.1219C23.6485 27.2125 23.5881 27.3937 23.7391 27.3635C23.9506 27.3333 24.011 25.3399 24.5244 24.9171C24.9171 24.6151 25.3097 24.3432 25.7326 24.1016C25.8534 24.0412 26.2158 23.86 26.2762 23.7392C26.246 23.6788 26.1856 23.5881 26.1252 23.6788C26.095 23.5579 26.3064 23.6183 26.3366 23.4975C26.3668 23.3767 26.2158 23.3163 26.246 23.2861C26.246 23.2861 26.3668 23.0143 26.3366 23.0445V23.0747C26.548 23.1049 26.2762 22.8935 26.2762 22.8331C26.548 22.9841 26.4272 22.531 26.6991 22.5008C26.5178 22.5914 26.548 22.8029 26.5782 22.9237C26.6387 23.2257 26.8803 22.531 26.8501 22.5612C27.1219 22.4706 27.5145 22.229 27.7864 22.0478C27.726 22.0176 27.6656 22.078 27.575 22.0176C27.8468 21.8968 28.179 21.9572 28.4508 21.8062C28.4508 21.5343 28.6019 21.2323 28.9341 21.1719C29.4173 21.0813 29.9912 20.8095 30.4745 20.6282C30.4141 20.7793 30.5047 20.6584 30.6557 20.7188C30.5047 20.296 29.6288 21.4739 30.0516 21.2323C30.4141 21.0209 31.5618 20.8397 31.743 20.5074C31.743 20.4772 31.6524 20.2658 31.6826 20.2658C31.3806 20.2658 31.3806 20.6282 31.0181 20.6282C30.3839 20.6282 30.7765 20.2356 30.6255 20.0544C30.5047 20.0846 30.4141 20.0544 30.3234 19.9638C30.3838 19.9638 31.1993 19.7825 30.7765 19.6617C30.0818 19.5107 29.6288 20.2658 29.0851 20.2658C29.508 19.994 30.0818 19.4503 30.5953 19.3899C31.1389 19.2993 31.894 19.5711 32.3773 19.2389C32.8001 18.9369 33.1021 19.1483 33.3438 18.6952C33.4344 18.5744 33.0417 18.3932 32.9511 18.3932C32.9813 18.3328 33.0719 18.3932 33.1021 18.3026C32.4679 18.0308 32.3169 17.7287 32.2564 17.0039C31.9242 17.2455 30.8369 17.7589 31.4108 16.9132C31.1993 16.8226 30.5349 16.279 30.2932 16.6414C30.1724 16.8226 29.9912 17.0945 29.81 17.1851C29.3871 17.3965 29.7496 17.3361 29.5986 17.6381C29.3569 18.1214 28.7529 18.061 28.481 18.4838C28.2998 18.7556 28.2394 18.9369 27.9676 19.0577C27.726 19.1785 27.6354 18.8764 27.7562 18.665C27.8468 18.7556 27.9072 18.7858 27.9978 18.6952C28.028 18.5744 27.877 18.6348 27.8166 18.6046C27.9072 18.4536 27.9978 18.3328 28.1186 18.1818C28.0884 18.1516 27.4541 18.061 27.4843 17.9099C27.5145 17.5777 27.0917 17.7589 27.0313 17.6683C27.3635 17.2455 27.3635 17.0643 27.9978 16.732C28.2092 16.6112 29.4476 15.9769 29.6892 16.1582C29.659 16.3092 29.508 16.279 29.4173 16.3394C29.5986 16.3998 30.112 16.43 30.2932 16.3092C30.263 16.279 30.0516 15.9467 30.1422 15.8561C30.112 15.8863 30.5047 15.8561 30.5349 15.8561C30.7463 15.7957 30.9577 15.7957 31.0785 15.5843C31.1691 15.4031 31.8336 15.1615 31.9846 15.2521C32.8303 15.7353 30.8369 16.2488 30.8067 16.1884C30.8369 16.3394 31.3806 16.0978 31.5316 16.4602C31.5618 16.5508 32.1658 16.7622 32.2262 16.6716C32.2564 16.6414 32.045 16.3998 32.045 16.3394C32.6793 16.6414 32.6491 16.4904 32.5585 16.0676C32.4679 15.6447 32.9511 16.0978 32.9511 16.0978C33.0719 16.1582 33.4948 15.8863 33.5552 15.7957C33.4042 15.6749 33.1323 15.6749 32.9813 15.5239C32.8605 15.4031 33.3136 15.3729 33.1625 15.2219C32.9813 15.0708 32.6491 15.1011 32.7699 14.799C32.6491 14.7688 32.5585 14.7688 32.4377 14.8292C32.4679 14.8896 32.5283 14.8292 32.5585 14.8896C32.4377 14.95 32.3169 14.95 32.196 14.95C32.2262 14.8896 32.3471 14.8896 32.3471 14.799C32.0148 14.7688 31.8336 14.95 31.5316 15.0406C31.6222 14.9198 31.743 14.8896 31.8638 14.799C31.5316 14.8292 31.2295 14.95 30.9879 15.1615C31.0181 15.1917 31.0483 15.2219 31.0785 15.2823C30.8369 15.4937 30.5047 15.5541 30.2328 15.7051C30.2932 15.5239 30.4745 15.5541 30.5651 15.4031C30.4443 15.4031 30.3536 15.4333 30.263 15.4635C30.3839 15.4333 30.7463 15.1011 30.8369 15.0104C30.3234 14.95 30.112 15.6145 29.5986 15.5239C29.6892 15.4031 29.9006 15.4635 29.9912 15.2823C29.81 15.3125 29.1153 15.7655 29.0247 15.5239C29.0247 15.4937 30.2932 15.0104 30.4141 14.8292C30.3234 14.8292 30.2328 14.8896 30.1724 14.799C30.2328 14.7386 30.3234 14.7386 30.4141 14.648C29.9912 14.648 28.7831 15.1313 28.8737 15.4333C28.7227 15.5541 28.5415 15.5843 28.3602 15.5239C28.4206 15.4031 28.6925 15.4031 28.481 15.2219C28.0884 15.3729 27.6958 15.5239 27.3031 15.7051C26.397 16.0978 25.5513 16.5508 24.7057 17.0643C23.3465 17.9099 22.1988 18.9067 21.0813 20.0544C20.4772 20.6584 18.212 23.3163 18.212 23.8902C18.212 24.313 17.9703 24.6755 17.8193 25.0379C17.6985 25.3399 17.6683 25.7628 17.5173 26.0346C17.1851 26.6387 17.3361 27.3031 17.1851 27.9978C17.3663 27.8468 17.7589 24.7359 18.0912 24.8567C18.1516 24.8869 17.8797 26.1554 17.8193 26.3064C17.5475 26.9709 17.9099 27.7562 17.7287 28.4207C17.6985 28.4811 17.6079 28.8435 17.6079 28.9039C17.3059 29.1455 17.6985 29.508 17.6985 29.7798C17.6985 29.9308 18.4838 30.6255 18.665 30.7463C18.9972 30.9577 19.0577 30.5953 19.3597 30.6557C19.6315 30.7161 19.7221 31.1994 19.8731 31.441C20.0544 31.743 20.8094 31.7128 20.9605 31.8336C21.0511 31.9544 20.9605 32.4981 21.3229 32.5887C21.3229 32.5585 21.3229 32.3471 21.3531 32.3169C21.4437 32.2565 21.6853 32.6491 21.5947 32.7095C21.4739 32.7397 21.3833 32.7095 21.3229 32.5887C21.3229 32.6491 21.2625 33.374 21.4739 33.2532C21.4739 33.223 21.5041 33.1626 21.5041 33.1021C21.8061 33.223 21.7759 33.6458 21.9572 33.7062C22.229 33.7968 22.4404 34.1291 22.6518 34.2197C22.8331 34.3103 22.7726 33.5552 23.1351 33.525C23.4371 33.4948 23.5881 34.2499 23.6787 34.4311C23.8298 34.7029 23.4673 35.3372 23.6787 35.5486C23.8902 35.76 23.1955 36.2433 23.1351 36.4849C23.1049 36.6359 22.7726 36.7869 22.7726 36.8473C22.8028 37.0286 22.682 37.2702 22.6216 37.4212C22.4404 37.8743 22.531 37.9347 22.8331 38.1461C22.8331 38.1461 22.2592 39.2938 22.5914 39.5656C23.1049 39.9885 23.7996 41.0456 23.9808 41.7101C24.313 42.6162 24.8265 43.19 25.7024 43.6431C26.397 44.0055 26.9105 44.6398 26.9105 45.4855C26.9407 45.9989 26.8501 46.603 27.0615 47.0862C27.2125 47.4185 26.9407 47.9621 27.1521 48.2339C27.3031 48.4152 27.1219 48.536 27.1823 48.687C27.2729 48.8682 27.4541 49.1702 27.4541 49.3817C27.4541 49.7441 27.4541 50.1669 27.4843 50.5294C27.4843 50.6502 27.3635 50.8616 27.4239 50.922C27.5145 51.0126 27.9978 52.2208 27.9978 52.553C27.9978 52.6436 28.3602 52.5228 28.028 52.1906C28.4206 51.9791 28.33 52.9154 28.3602 52.9154C27.9978 52.7946 28.2394 52.8852 28.2696 53.3685C28.2998 53.6403 28.2092 53.5195 28.4206 53.5497C28.7831 53.6403 28.4206 53.8517 28.5415 54.0632C28.8133 54.4558 29.2059 54.788 29.508 55.0901C29.8402 55.5733 30.6255 55.4827 31.1691 55.6035C31.2295 55.6337 31.0483 55.6035 31.1691 55.6035ZM32.6491 18.3932C32.5283 18.514 32.3773 18.514 32.2564 18.5744C32.3471 18.4234 32.4981 18.4234 32.6491 18.3932ZM31.4712 18.3026C31.5618 18.2724 31.6524 18.3026 31.6826 18.363C31.6826 18.3932 31.1993 18.4234 31.1087 18.5442C31.1691 18.3328 31.3504 18.363 31.4712 18.3026C31.5014 18.363 31.3504 18.363 31.4712 18.3026ZM30.263 19.1181C30.3536 19.1483 30.112 19.1181 30.263 19.1181C30.263 19.1181 30.2328 19.1181 30.263 19.1181ZM29.5986 17.8797C29.6288 17.8193 29.6892 17.8495 29.6892 17.9099C29.659 17.9704 29.6288 17.9402 29.5986 17.8797C29.5986 17.8495 29.5986 17.9099 29.5986 17.8797ZM28.9643 19.843C28.7831 19.8127 29.1455 19.843 28.9643 19.843C28.9341 19.843 28.9945 19.843 28.9643 19.843ZM29.1455 19.0879C28.5113 19.6919 28.9945 19.0879 28.8133 19.2691V19.2993C28.7529 19.2389 29.1455 19.0879 29.1455 19.0879C29.0549 19.1483 29.0247 19.0879 29.1455 19.0879ZM28.9039 18.363C28.7831 18.4838 28.7831 18.4838 28.6321 18.4536C28.7227 18.4234 28.8435 18.4234 28.9039 18.363ZM31.743 16.128C31.7128 16.128 31.6524 16.128 31.592 16.128C31.8034 15.9467 31.7732 16.128 31.743 16.128C31.7128 16.128 31.7732 16.128 31.743 16.128ZM32.2262 15.8259C32.1658 15.9165 32.045 15.8561 31.9846 15.8863C32.045 15.7051 32.0752 15.7051 32.2262 15.8259ZM29.6288 16.0373C29.6892 15.9769 29.7496 15.9769 29.81 15.9769C29.9006 16.0676 29.4476 16.0978 29.6288 16.0373C29.659 15.9769 29.6288 16.0373 29.6288 16.0373ZM29.5382 15.9165C29.5986 15.9467 29.5986 15.9769 29.508 16.0071C29.4476 15.9769 29.4476 15.9467 29.5382 15.9165C29.5382 15.9165 29.4778 15.9165 29.5382 15.9165ZM26.1856 21.5947C26.1856 21.5947 25.1889 21.9874 25.2795 21.7458C25.2493 21.8364 25.6117 21.4739 25.5513 21.5041C25.6419 21.4739 26.3064 21.4135 26.4876 21.4437C26.397 21.5041 26.2762 21.5343 26.1856 21.5947C25.9742 21.6551 26.2762 21.5343 26.1856 21.5947ZM27.0011 21.0813C27.8166 21.1719 26.5178 21.4135 26.3668 21.2625C26.548 21.1115 26.7595 21.0511 27.0011 21.0813C27.0615 21.1115 26.7595 21.0511 27.0011 21.0813ZM26.8501 15.9467C27.0615 15.7957 27.3031 15.7051 27.6052 15.6447C27.3937 15.7957 27.1219 15.8863 26.8501 15.9467ZM26.9105 20.4168C26.8803 20.447 26.8501 20.447 26.7897 20.4168C26.8501 20.3866 26.9105 20.3866 26.9105 20.4168C26.9105 20.447 26.9105 20.3866 26.9105 20.4168ZM26.6689 20.9001C26.6387 20.9001 26.5782 20.9001 26.6689 20.9001C26.6689 20.9001 26.6387 20.9001 26.6689 20.9001ZM26.4272 20.4772C26.7293 20.6282 26.548 21.0813 26.3064 20.7188C26.3064 20.9303 25.9138 21.2927 25.7326 21.3531C25.793 21.2625 25.8232 21.1719 25.793 21.0813C25.7326 21.0209 25.6117 21.1719 25.5211 21.1719C25.5513 21.2927 26.0648 20.296 25.6419 20.598C25.4909 20.7188 24.464 21.8062 24.4036 21.7458C24.313 21.6551 24.8567 20.8397 24.8869 20.8095C25.2191 20.5074 25.9742 20.2658 26.4272 20.4772ZM25.8534 16.6414C25.8836 16.6112 26.2158 16.3998 26.2762 16.4602C26.397 16.581 25.7326 16.7622 25.7024 16.7622C25.7326 16.6716 25.793 16.6716 25.8534 16.6414C25.9742 16.581 25.793 16.6716 25.8534 16.6414ZM25.9138 19.3295C25.9138 19.3597 25.793 19.6013 25.7024 19.4805C25.6419 19.4503 25.8836 19.2389 25.9138 19.3295C25.9138 19.4201 25.9138 19.2993 25.9138 19.3295ZM25.1889 17.2757C25.2191 17.2757 25.7628 16.9434 25.793 17.0643C25.793 17.0945 25.1285 17.2757 25.1889 17.2757ZM25.0379 17.8193C25.0077 17.8797 24.9775 17.9099 24.8869 17.9099C24.9171 17.8495 24.9775 17.8495 25.0379 17.8193ZM24.6754 19.1181C24.7359 19.0577 24.9171 18.7858 24.8265 18.665C24.8869 18.7254 24.4942 18.6348 24.6754 18.5744C24.7359 18.5442 25.1587 18.3328 25.2191 18.3932C25.3399 18.514 24.7057 19.1785 24.5546 19.2389C24.5848 19.1785 24.615 19.1483 24.6754 19.1181C24.7661 19.0275 24.615 19.1483 24.6754 19.1181ZM25.0379 19.9638C25.4909 19.8127 25.6722 19.5409 25.944 19.9034C26.0648 20.0242 26.0346 20.3866 25.793 20.296C25.8534 20.3262 25.0379 20.2356 25.1889 20.145C25.0379 20.2356 24.7057 20.3262 24.5244 20.2356C24.6754 20.145 24.8265 20.0242 25.0379 19.9638C25.1587 19.9336 24.8265 20.0242 25.0379 19.9638ZM24.3734 19.0879C24.4036 19.2087 24.3734 19.2691 24.2526 19.2691C24.313 19.2087 24.3432 19.1483 24.3734 19.0879ZM17.8193 29.0549C17.6079 29.0549 18.0005 29.0549 17.8193 29.0549C17.8193 29.0549 17.8495 29.0549 17.8193 29.0549ZM20.4772 30.9577C20.4168 30.9879 20.6282 30.9275 20.4772 30.9577C20.4772 30.9879 20.5074 30.9577 20.4772 30.9577ZM26.9407 33.1021C26.8199 33.0719 27.0615 33.1021 26.9407 33.1021C26.9105 33.1021 26.9407 33.1021 26.9407 33.1021ZM27.9978 52.0395C27.8166 52.0093 28.0884 51.8885 27.9978 52.0395C27.9374 52.0093 27.9978 52.0093 27.9978 52.0395ZM28.4508 42.5557C28.3904 42.4953 28.5113 42.5859 28.4508 42.5557C28.4508 42.5557 28.481 42.5859 28.4508 42.5557ZM28.5415 48.4454C28.4206 48.5058 28.6623 48.4152 28.5415 48.4454C28.5113 48.4756 28.5415 48.4454 28.5415 48.4454ZM29.1455 54.8182C29.0549 54.7578 29.0549 54.7276 29.1455 54.7276C29.2361 54.7578 29.2361 54.788 29.1455 54.8182C29.1153 54.8182 29.1757 54.8182 29.1455 54.8182ZM29.9912 55.1807C29.9006 55.1505 29.9006 55.1203 30.0214 55.0901C30.0818 55.0901 30.0818 55.1505 29.9912 55.1807C29.961 55.1807 29.9912 55.1807 29.9912 55.1807ZM28.2394 52.8248C28.2394 52.8248 28.2092 52.8248 28.2394 52.8248V52.8248ZM22.531 18.4838C22.531 18.514 22.531 18.514 22.531 18.4838V18.4838ZM58.9561 32.4377C58.503 30.8067 58.1708 29.1757 57.5063 27.575C56.6908 25.6722 55.6337 23.8902 54.335 22.2894C53.1268 20.7793 51.7073 19.4201 50.1669 18.2422C49.4119 17.6683 48.6266 17.1549 47.7809 16.7018C47.3882 16.4904 46.9956 16.2488 46.5728 16.0676C46.3915 15.9769 45.7875 15.8259 45.6969 15.6749C45.6969 15.7353 46.0593 15.9165 46.1197 15.9769C45.8781 15.9165 45.2438 15.6447 45.2438 15.6145C45.274 15.5843 45.3042 15.6145 45.3042 15.5541C44.9418 15.3125 43.6128 14.8292 43.341 15.1917C43.4014 15.1011 44.2773 16.128 44.2773 16.3092C44.3377 16.7018 44.9418 17.1247 45.3344 17.2455C45.8781 17.4267 45.4552 17.1851 45.6969 17.0643C45.8479 17.0039 45.9989 17.3059 46.1197 17.2455C46.0895 17.1549 46.0291 17.0945 45.9989 17.0341C45.9687 17.0341 46.9956 18.0912 47.1164 17.8495C46.9956 17.5777 46.8144 17.2455 46.5123 16.9736C46.2707 16.732 45.8479 16.7018 45.576 16.4602C45.425 16.3394 44.9116 15.9467 44.8512 15.7957C45.5458 15.8259 46.3311 17.2757 47.0258 16.7018C46.9352 16.6414 46.8446 16.581 46.754 16.4904C46.8748 16.5206 47.4486 16.7018 47.2674 16.9434C46.7238 16.8528 47.7205 17.3965 47.7507 17.4569C47.6601 17.4569 47.5695 17.3663 47.4789 17.3663C47.5091 17.5475 48.0527 17.7589 48.1131 18.0912C47.7809 18.1516 47.9319 17.8797 47.7205 18.1516C47.6601 18.2422 47.358 18.212 47.207 18.212C46.8144 18.2422 46.3915 17.6079 46.1197 17.3965C46.2405 17.7589 46.4217 17.9099 46.8446 18.1818C47.0258 18.3026 46.5728 18.3328 46.5728 18.514C46.5728 18.514 46.6936 18.5744 46.6936 18.6046C46.6936 18.6348 46.603 18.5442 46.5728 18.514C46.603 18.4838 46.5123 19.1483 46.4821 19.1181C46.7842 19.4805 46.0895 19.3597 46.0593 19.3899C46.1197 19.4805 46.2405 19.5107 46.2405 19.6315C46.0291 19.6315 45.8479 19.6013 45.6667 19.6919C45.9687 19.7825 47.5997 20.5376 47.2372 21.1115C47.1164 21.2927 46.0291 21.0813 45.8177 21.0511C45.3948 21.0209 45.7875 21.4739 45.7875 21.5041C45.8479 21.8364 46.1197 21.9572 46.0895 22.3498C46.0593 22.6216 46.3311 22.6216 46.4217 22.8633C46.5123 23.0445 46.4519 23.0747 46.6634 23.1049C47.0258 23.1653 47.0258 23.1049 47.3278 23.3465C47.5393 23.5277 47.6299 23.1955 47.9017 23.1653C48.5662 23.1351 47.9923 23.0143 48.3245 22.9237C48.7172 22.8029 48.2037 22.1988 48.2339 22.1082C48.2641 21.9572 48.2037 21.776 48.4151 21.7155C48.7474 21.6249 48.3245 21.2927 48.2943 21.2021C48.2339 20.9303 49.2004 21.4437 49.0796 20.749C49.6535 20.9303 50.2273 21.4135 50.7408 21.7155C51.0428 21.8968 51.3449 22.078 51.5865 22.3498C51.8583 22.6821 51.1938 22.5612 51.1636 22.6518C51.1032 22.7727 51.7375 23.0445 51.8281 23.0143C51.8281 22.9539 51.7375 22.6216 51.7375 22.531C51.7073 22.2894 51.3449 22.0478 51.3751 21.8666C51.4959 21.8666 51.5865 21.927 51.6771 21.9874C51.3449 21.5947 50.8012 21.5343 50.4388 21.2625C50.2273 21.0813 49.9253 20.9303 49.7139 20.749C49.7139 20.749 49.3212 20.2356 49.5931 20.3262C50.0159 20.4772 50.4992 20.9303 50.9522 21.1417C51.3147 21.3229 51.3751 21.4437 51.6469 21.7458C51.7375 21.8666 52.2812 22.5008 52.4322 22.531C52.4322 22.531 52.855 22.9237 53.0362 22.9841C52.9456 22.8029 52.8852 22.5612 52.7946 22.4102C52.6738 22.1988 52.1603 22.1082 52.1603 21.8062C52.2812 21.8062 52.2812 21.6853 52.5228 21.7155C52.402 21.7155 52.6738 21.5343 52.6738 21.5645C52.1905 21.2927 51.5563 20.5074 51.4053 19.9638C51.5261 19.9638 51.6167 20.145 51.7375 20.0544C51.7073 19.9638 51.6771 19.8732 51.7073 19.7825C51.7375 19.8127 52.1905 20.2054 52.0999 20.296C51.9791 20.296 51.8885 20.2356 51.7677 20.145C51.8281 20.3866 52.0697 20.3866 52.1603 20.5376C52.1603 20.4772 52.1301 20.4168 52.1905 20.3564C52.5832 20.5074 53.3685 21.1417 53.4893 21.5645C53.3081 21.5947 53.006 21.2323 52.8852 21.3229C52.855 21.4135 52.855 21.5041 52.9154 21.5947C52.855 21.5947 52.8248 21.6249 52.7644 21.6249C52.8248 21.6853 52.855 21.7458 52.8852 21.8062C52.8248 21.8364 52.7644 21.8364 52.704 21.8666C52.7644 22.078 53.9121 23.1955 54.0027 23.0747C54.0329 23.0445 53.9725 22.9237 53.9725 22.8935C54.0329 22.8331 54.2142 23.1351 54.3048 23.0747C54.3954 23.0143 54.2444 22.9237 54.335 22.8935C54.5162 22.8029 55.2109 24.162 55.2713 24.313C55.6035 24.9473 55.3921 24.5546 55.1203 24.6453C55.09 24.7057 55.0598 24.7661 55.0598 24.8567C54.637 24.7661 54.2142 24.5244 53.8819 24.2828C53.3685 23.8902 54.0631 25.3097 53.7309 25.1285C53.5497 25.0379 53.4591 24.8869 53.2477 24.8567C52.9154 24.8265 52.8248 24.4942 52.553 24.3734C52.3114 24.2828 51.3751 24.1922 51.4959 23.7694C51.5865 23.4069 51.1334 23.1049 50.9522 22.9539C50.8616 22.8935 49.8347 23.0143 49.6535 23.0747C49.3817 23.1653 48.8984 23.2559 48.7474 23.5277C48.4756 24.0412 47.8413 23.3767 47.5695 23.4673C47.4486 23.5277 47.5695 23.9506 47.5091 24.0714C47.3882 24.2828 47.1466 24.2828 47.0862 24.5244C46.9654 24.9473 47.2976 25.3097 47.1466 25.7024C47.0258 26.0044 46.4217 26.1554 46.4217 26.397C46.4217 26.5481 46.3915 26.6991 46.2707 26.7595C45.9989 26.9105 46.2707 27.2729 46.1197 27.4542C45.1834 28.3905 46.4217 29.3268 46.2103 30.3537C46.0895 30.9275 46.0291 31.0483 46.2707 31.5618C46.3311 31.6826 46.2707 32.6189 46.754 32.2263C46.8144 32.7699 47.5091 32.8605 47.6299 33.374C47.7809 33.978 48.3547 34.2197 48.838 34.5821C49.0192 34.7331 49.1702 34.9143 49.3816 35.0049C49.7441 35.2164 50.0159 34.9143 50.3784 34.7935C50.7106 34.7029 51.0428 34.7331 51.3449 34.8841C51.5261 34.9747 52.8248 34.0384 53.1873 34.2197C53.4591 34.3405 53.4591 34.6727 53.5799 34.8841C53.7611 35.2164 54.1236 34.7935 54.3652 34.8841C54.788 35.0654 54.9088 36.6359 54.5464 36.938C54.2746 37.1494 54.9088 37.9951 54.9692 38.1763C55.2109 38.6595 55.4223 39.5052 55.3619 40.0489C55.3015 40.4717 55.4223 41.1664 55.1807 41.559C54.939 41.9517 54.788 42.3443 54.5766 42.7974C54.0631 43.9149 54.5464 45.1834 54.1235 46.3613C53.8517 46.9654 53.9121 47.5997 53.7611 48.2037C53.6705 48.5964 53.1872 49.2004 53.3685 49.5931C53.6705 49.3213 54.0933 49.3515 54.4256 49.2004C55.09 48.8682 55.4223 48.0829 55.9055 47.5695C56.1774 47.2976 56.3284 46.9352 56.4794 46.603C56.6304 46.2707 56.9324 46.0593 57.0835 45.7573C57.4157 44.972 57.7479 44.1565 58.0802 43.3712C58.805 41.6497 58.9259 39.9885 59.1675 38.1461C59.3185 36.2131 59.3487 34.3707 58.9561 32.4377ZM57.2647 27.877C57.1741 27.6354 55.9357 25.8534 56.0868 25.7628C56.2378 25.6722 58.8654 30.2631 58.5634 30.9879C58.1708 29.9308 57.6875 28.9341 57.2647 27.877C57.2345 27.877 57.3553 28.0884 57.2647 27.877ZM58.352 36.0319C58.2916 35.911 58.3822 35.7902 58.4124 35.6392C58.4728 35.8204 58.3822 35.911 58.352 36.0319ZM58.2312 36.7567C58.2312 36.6661 58.2312 36.6057 58.2614 36.5755C58.2916 36.6359 58.2614 36.6963 58.2312 36.7567ZM57.8083 42.6766C57.7479 42.6766 57.7177 42.7068 57.6573 42.737C57.5667 42.737 57.8083 42.6162 57.8385 42.6162C57.8083 42.6464 57.8083 42.6464 57.8083 42.6766C57.7479 42.7068 57.8083 42.6464 57.8083 42.6766ZM57.8687 40.2603C57.8687 40.0489 57.8687 40.0187 58.1104 39.8979C58.05 40.0489 57.8687 40.1395 57.8687 40.2603ZM58.1104 39.1428C58.1104 38.7501 58.1104 38.2669 58.1708 37.8743C58.201 38.5689 58.201 39.2334 58.201 39.9281C58.1104 39.8073 58.1104 39.324 58.1104 39.1428C58.1104 39.022 58.1104 39.2938 58.1104 39.1428ZM58.4728 40.4415C58.4728 40.804 58.4124 41.8007 58.1708 42.1027C58.201 41.4986 58.4124 40.9248 58.4124 40.3207C58.4728 40.3509 58.4728 40.3811 58.4728 40.4415C58.4728 40.4717 58.4728 40.3811 58.4728 40.4415ZM58.7446 36.6963C58.654 37.1192 58.7446 37.2702 58.4728 37.5118C58.4728 37.1796 58.352 36.5755 58.6842 36.3641C58.7446 36.4849 58.7748 36.5755 58.7446 36.6963C58.7144 36.8775 58.7748 36.5755 58.7446 36.6963ZM44.4283 57.899C44.4585 57.9594 41.559 58.7749 41.257 58.8353C40.0489 59.0769 38.8407 59.2581 37.6024 59.3185C35.2466 59.4393 32.8001 59.2279 30.5651 58.5332C30.8671 58.5634 31.1993 58.7144 31.5014 58.654C31.2295 58.4728 30.8671 58.5332 30.6255 58.3218C31.5618 58.4728 32.4679 58.4124 33.3136 58.503C33.2229 58.3822 32.4377 58.201 32.4377 58.1104C32.5585 58.1104 33.1625 58.0802 33.1927 58.05C33.4646 57.8386 32.7397 57.8688 32.8001 57.6875C32.8303 57.6573 33.0417 57.7177 33.1021 57.6271C33.2229 57.4761 33.1021 57.3855 33.1323 57.3251C33.1625 57.2647 34.3103 57.0533 34.4311 57.1137C34.2801 57.2043 34.129 57.1137 34.1895 57.3251C34.0686 57.2949 33.7364 57.3251 33.7062 57.4761C33.7062 57.4459 34.0988 57.9594 34.0988 57.9896C34.2499 58.201 34.7029 58.3218 34.7331 58.5634C34.8237 58.9863 36.9681 58.9259 37.3004 58.8957C38.1159 58.8051 38.8709 58.503 39.6562 58.3822C40.1395 58.2916 40.5925 58.1708 41.0758 58.1104C41.2872 58.0802 42.0423 57.8386 42.2235 57.899C42.2839 58.3218 44.0055 57.8386 44.4283 57.899C44.4283 57.9292 44.3377 57.899 44.4283 57.899ZM57.5667 45.3042C57.6573 45.0626 57.7479 44.821 57.8385 44.6096C57.7781 44.8512 57.6573 45.0626 57.5667 45.3042ZM57.9594 44.3679C57.9594 44.3377 57.9896 44.3075 57.9896 44.2773C57.9896 44.3075 57.9594 44.3377 57.9594 44.3679ZM32.9813 14.4668C32.8605 14.4366 32.7397 14.4668 32.5887 14.4366C32.6491 14.3762 33.0417 14.3762 32.8907 14.2554C33.4042 13.9231 34.5217 13.8627 35.1257 13.9533C35.7902 14.0439 36.4849 13.8325 37.1494 13.9231C37.4212 13.9533 37.6628 13.9835 37.9346 13.9835C38.1763 14.0137 37.9044 14.2554 38.1763 14.2856C38.3273 14.3158 38.6595 14.648 38.7803 14.5876C38.7803 14.8292 38.6595 14.648 38.7501 14.8896C38.7803 14.95 39.0522 15.1011 39.022 15.1313C38.9918 15.1615 38.2367 15.1011 38.2669 15.1313C38.2065 15.1313 38.2669 15.2521 38.3273 15.2219C38.4783 15.2521 38.8105 15.2219 38.9616 15.2219C38.5689 15.5843 37.9951 15.5239 37.5722 15.7957C37.3004 15.9769 36.9077 15.9467 36.6359 16.0676C36.6359 16.3696 36.4245 16.7018 36.2131 17.0039C36.062 17.2153 35.0955 16.732 35.0049 16.6112C34.7935 16.3696 34.3103 15.7051 34.8237 15.4937C35.458 15.2521 34.8237 15.4333 34.6425 15.3125C34.7935 15.1011 34.9747 15.1615 35.2164 15.1917C35.0955 15.0104 34.9445 14.9802 34.7633 15.0708C34.7029 14.8896 35.0351 14.7386 34.7331 14.5272C34.6123 14.4366 33.9478 14.5272 33.9176 14.4064C33.8874 14.1043 34.7331 14.2856 34.8841 14.0439C34.2801 13.9231 33.5854 14.5574 32.9813 14.4668C32.8303 14.4366 33.0719 14.4668 32.9813 14.4668ZM45.0022 18.816C45.0928 18.816 44.8512 18.4838 44.821 18.4234C44.8814 18.4234 44.9418 18.4536 45.0324 18.3932C44.972 18.2422 44.3075 17.8495 44.2773 17.8797C44.0357 18.0308 43.7035 17.3361 43.6733 17.2455C44.0961 17.1851 44.3679 17.6381 44.7606 17.8495C45.0928 18.0006 46.2707 18.5744 46.3311 18.9369C46.3613 19.1181 45.425 19.0577 45.3042 19.2389C45.1834 18.9671 45.5458 18.9671 45.5156 18.9067C45.4552 18.816 45.0324 18.816 45.0022 18.816C44.972 18.816 45.123 18.7858 45.0022 18.816ZM32.8303 19.1483C32.7699 19.1785 31.9544 19.9638 31.9846 20.0242C32.0148 20.0846 32.8303 20.0544 32.9511 20.1148C32.9511 20.2054 32.8303 20.1752 32.8303 20.2356C32.9511 20.2356 33.2834 20.0242 33.3136 20.0846C33.3136 20.145 33.3136 20.2054 33.2834 20.2356C33.6458 20.598 33.6156 19.8127 33.6458 19.7825C33.374 19.7523 33.7062 19.3899 33.2834 19.5409C33.3136 19.5409 32.8303 19.3899 32.8303 19.4201C32.8001 19.3899 33.1927 19.0577 33.2229 18.9973C32.9511 18.9671 32.9209 19.0577 32.8303 19.1483C32.6793 19.2389 32.8605 19.1181 32.8303 19.1483ZM33.6156 19.994C33.6458 20.0242 33.5552 20.0242 33.6156 19.994V19.994ZM33.4344 19.9638C33.4646 19.9336 33.5854 19.8732 33.4948 19.9638C33.4948 20.0242 33.374 20.0544 33.4344 19.9638C33.4344 19.9638 33.4344 19.994 33.4344 19.9638ZM32.1356 19.7825C32.1658 19.7825 32.1658 19.7825 32.196 19.8127C32.1658 19.7825 32.0752 19.7825 32.1356 19.7825C32.1658 19.7825 32.1356 19.7825 32.1356 19.7825ZM24.2224 29.2965C24.011 29.3268 24.3734 29.1153 24.3432 29.0549C24.1922 28.7227 23.1653 28.6321 23.0747 28.3602C23.1049 28.33 23.1653 28.2998 23.1653 28.2696C22.8029 28.1186 22.6216 28.5717 22.3196 28.5415C22.9841 27.424 24.6452 28.6925 25.3097 29.2361C24.9171 29.2361 24.5546 29.2663 24.2224 29.2965C24.1922 29.2965 24.4036 29.2663 24.2224 29.2965ZM25.0681 29.9006C24.9171 29.8402 25.6117 29.8402 25.7326 29.81C25.5815 29.5986 25.7326 29.4778 25.4305 29.3872C25.6722 29.0851 26.5178 29.4476 26.7595 29.5684C26.7293 29.5986 26.6991 29.5684 26.6689 29.6288C26.6991 29.659 27.2427 30.112 26.8803 29.961C26.4876 29.7798 26.246 30.0214 25.9742 30.2026C25.7326 29.8402 25.3701 30.0516 25.0681 29.9006C25.0379 29.9006 25.1587 29.9308 25.0681 29.9006ZM44.3981 18.363C44.7908 18.7556 44.1867 19.0879 43.9149 18.816C43.7941 18.665 43.8545 18.363 43.5524 18.2724C43.643 18.2422 43.7035 18.212 43.7941 18.1818C43.6128 17.6683 44.3075 18.2422 44.3981 18.363C44.4887 18.4536 44.3679 18.3328 44.3981 18.363ZM39.3542 15.9165C39.324 15.8259 39.8979 15.8863 40.0187 15.8561C40.1697 15.8259 41.3174 15.9467 40.9248 16.128C40.5925 16.279 40.1395 16.43 39.8374 16.1582C39.7468 16.0978 39.3542 15.9165 39.3542 15.9165C39.3542 15.8561 39.3844 16.0071 39.3542 15.9165ZM49.9253 21.6551C50.0763 21.6551 50.3784 22.1686 50.3482 22.2592C50.1971 22.5008 49.9253 21.8968 49.7743 21.776C49.8045 21.7458 49.8649 21.7155 49.9253 21.6551ZM31.8638 14.6178C32.2564 14.3158 32.3471 14.497 32.8303 14.5574C32.6793 14.6782 32.2866 14.7084 31.8638 14.6178C31.9544 14.5272 32.2866 14.7084 31.8638 14.6178ZM40.5623 14.2856C40.2603 14.195 39.9583 14.195 39.6864 14.0741C40.0187 14.0439 40.4415 14.1648 40.6831 14.2252C40.7435 14.2554 40.5623 14.2856 40.5623 14.2856C40.2905 14.195 40.5925 14.2856 40.5623 14.2856ZM39.6864 14.0741C39.6562 14.0741 39.626 14.0741 39.5958 14.0741C39.626 14.0439 39.6562 14.0439 39.6864 14.0741C39.6562 14.0741 39.6864 14.0741 39.6864 14.0741ZM24.313 29.9308C24.3734 29.9308 24.4036 29.961 24.4338 30.0214C24.4036 30.2026 23.8902 29.961 23.8298 29.8704C23.9808 29.7798 24.162 29.8402 24.313 29.9308ZM27.9676 29.9006C27.726 30.5651 27.0313 29.4476 27.9676 29.9006C27.9374 30.0214 27.8166 29.8402 27.9676 29.9006ZM29.0549 33.1324C29.0549 33.1021 29.0851 33.1021 29.1153 33.1021C29.0851 33.1324 29.0549 33.1324 29.0549 33.1324ZM29.1455 33.1324C29.1455 33.1324 29.2059 32.8605 29.3871 32.8605C29.5986 32.9511 29.2361 33.1324 29.1455 33.1324C29.1153 33.1324 29.3569 33.1626 29.1455 33.1324ZM31.2899 14.4668C31.1087 14.5876 30.8973 14.497 30.6859 14.5876C30.9577 14.4064 31.0785 14.4366 31.2899 14.4668C31.1087 14.5876 31.2597 14.4668 31.2899 14.4668ZM24.4338 27.877C24.3734 27.6052 24.2526 27.6052 24.4338 27.3635C24.5244 27.6052 24.5244 27.7562 24.4338 27.877C24.4036 27.7562 24.5244 27.7562 24.4338 27.877ZM19.4805 37.3004C19.4805 37.391 19.4201 37.4514 19.3295 37.391C19.2993 37.3608 19.2691 37.0286 19.3295 36.9682C19.3899 37.089 19.4503 37.2098 19.4805 37.3004C19.5107 37.3608 19.4503 37.2098 19.4805 37.3004ZM30.9275 19.4503C31.1389 19.4503 31.3201 19.5107 31.5014 19.6617C31.2597 19.6919 31.0785 19.6013 30.9275 19.4503ZM49.8347 21.5645C49.7743 21.5343 49.4119 21.3229 49.5629 21.2021C49.6837 21.1115 49.8347 21.5343 49.8347 21.5645ZM53.6705 23.4673C53.6101 23.3767 53.4591 23.4371 53.3987 23.2861C53.5195 23.3465 53.6705 23.3163 53.7913 23.4069C53.7611 23.4673 53.7007 23.4975 53.6705 23.4673C53.6101 23.3767 53.7007 23.4975 53.6705 23.4673ZM31.6222 14.6178C31.592 14.5574 31.5316 14.5876 31.4712 14.5574C31.592 14.4366 31.7128 14.497 31.8336 14.4366C31.8638 14.4366 31.7128 14.7084 31.6222 14.6178C31.592 14.5574 31.6524 14.648 31.6222 14.6178ZM30.9879 14.7386C30.8067 14.8594 30.6557 14.9802 30.4141 14.9802C30.5651 14.799 30.7765 14.799 30.9879 14.7386ZM30.9275 20.3866C30.9879 20.3866 31.0181 20.3866 31.1087 20.3866C30.8973 20.6584 30.6255 20.2658 30.6859 20.2658C30.6255 20.2658 30.8973 20.3866 30.9275 20.3866C30.9577 20.4168 30.8369 20.3866 30.9275 20.3866ZM31.0181 14.8594C31.1691 14.7386 31.3504 14.7084 31.5618 14.7386C31.3806 14.8292 31.1993 14.8594 31.0181 14.8594ZM48.8682 22.1988C48.687 22.1686 49.2004 22.0176 49.0192 22.2592C48.989 22.229 48.9286 22.229 48.8682 22.1988C48.8682 22.1988 48.9286 22.1988 48.8682 22.1988ZM54.5766 23.4975C54.4558 23.4371 54.4256 23.3767 54.4558 23.2559C54.5464 23.3163 54.6068 23.3767 54.5766 23.4975ZM31.4108 15.6749C31.4712 15.5541 31.5316 15.5239 31.7732 15.5239C31.6524 15.6749 31.5316 15.6749 31.4108 15.6749ZM29.7496 16.4602C29.6288 16.5206 29.508 16.581 29.3871 16.581C29.4778 16.4602 29.5986 16.4602 29.7496 16.4602ZM43.4618 17.3965C43.4316 17.4569 43.4618 17.4871 43.492 17.5173C43.4618 17.4871 43.2806 17.3059 43.4014 17.2757C43.4618 17.2757 43.492 17.3361 43.4618 17.3965C43.4316 17.4267 43.492 17.3663 43.4618 17.3965ZM22.8029 28.5717C22.8029 28.6623 22.7424 28.6925 22.682 28.6925C22.6518 28.6321 22.7726 28.4509 22.8029 28.5717C22.8331 28.6321 22.8029 28.5415 22.8029 28.5717ZM30.5047 52.2812C30.5651 52.3114 30.5953 52.3416 30.5953 52.402C30.5953 52.6134 30.2328 52.3114 30.5047 52.2812C30.5349 52.2812 30.4443 52.3114 30.5047 52.2812ZM29.9912 16.5508C29.961 16.6112 29.9006 16.6414 29.7798 16.6716C29.8402 16.581 29.9006 16.581 29.9912 16.5508ZM19.6617 37.2702C19.6315 37.5118 19.5711 37.0588 19.6617 37.2702C19.6617 37.3004 19.6315 37.24 19.6617 37.2702ZM31.5014 16.9434C31.5014 16.9434 31.5316 16.9434 31.5014 16.9434C31.5014 16.9736 31.441 16.9736 31.5014 16.9434ZM30.4745 14.7688C30.4443 14.7688 30.4141 14.7688 30.4141 14.7688C30.4141 14.7688 30.4443 14.7688 30.4745 14.7688ZM30.3839 14.799C30.3839 14.799 30.4141 14.7688 30.3839 14.799C30.4141 14.7688 30.3839 14.7688 30.3839 14.799ZM30.2932 14.8292C30.3234 14.799 30.3536 14.799 30.3839 14.799C30.3536 14.8292 30.3234 14.8292 30.2932 14.8292ZM31.0181 14.8594C31.0181 14.8896 30.9879 14.8896 30.9577 14.8896C30.9577 14.8594 30.9879 14.8594 31.0181 14.8594ZM22.6216 38.2367C22.5612 38.2065 22.6518 38.2669 22.6216 38.2367C22.5914 38.2367 22.6216 38.2669 22.6216 38.2367ZM47.0258 16.6414C47.1768 16.6716 47.0258 16.6716 47.0258 16.6414C47.0258 16.6414 47.0258 16.6716 47.0258 16.6414ZM43.492 17.5173C43.5222 17.5173 43.5222 17.5173 43.492 17.5173C43.5222 17.5173 43.5222 17.5173 43.492 17.5173C43.492 17.5173 43.5222 17.5173 43.492 17.5173ZM30.8973 14.8896H30.9275C30.9275 14.9198 30.8973 14.9198 30.8973 14.8896ZM33.5854 36.6963C33.4948 36.6359 33.6156 36.6359 33.5854 36.6963C33.5552 36.6661 33.5854 36.6661 33.5854 36.6963ZM44.4283 57.899C44.4283 57.899 44.3981 57.899 44.4283 57.899V57.899ZM26.1856 20.5074C26.1856 20.5074 26.397 20.4772 26.3366 20.5678C26.246 20.6282 26.1856 20.598 26.1856 20.5074C26.1856 20.5074 26.1856 20.5678 26.1856 20.5074ZM24.8265 18.665C24.7661 18.6348 24.7661 18.5744 24.8567 18.5442C24.9473 18.5744 24.9473 18.6046 24.8265 18.665C24.7963 18.665 24.8869 18.6348 24.8265 18.665Z" fill="#FFD703"/>
<path d="M36.5152 13.017C23.558 13.017 13.0171 23.5579 13.0171 36.5151C13.0171 49.4723 23.558 60.0132 36.5152 60.0132C49.4723 60.0132 60.0132 49.4723 60.0132 36.5151C60.0132 23.5579 49.4723 13.017 36.5152 13.017ZM36.5152 58.6842C24.2829 58.6842 14.346 48.7474 14.346 36.5151C14.346 24.2828 24.2829 14.346 36.5152 14.346C48.7475 14.346 58.6843 24.2828 58.6843 36.5151C58.6843 48.7474 48.7173 58.6842 36.5152 58.6842Z" fill="black"/>
<path d="M14.3766 22.2592C14.1349 21.8665 13.9235 21.4739 13.7121 21.0812L12.5342 21.7155C12.7456 22.1081 12.9872 22.531 13.2289 22.9538L14.3766 22.2592Z" fill="black"/>
<path d="M10.8422 14.0137C10.7516 13.5909 10.6912 13.168 10.661 12.7754L9.33203 12.8056C9.36223 13.2888 9.45284 13.8023 9.57366 14.3158L10.8422 14.0137Z" fill="black"/>
<path d="M12.2918 18.2422C12.1106 17.8193 11.9294 17.3965 11.7784 17.0038L10.54 17.4569C10.7213 17.8797 10.9025 18.3328 11.1139 18.7858L12.2918 18.2422Z" fill="black"/>
<path d="M55.241 62.7919L55.694 61.5536C55.3014 61.4025 54.8785 61.2213 54.4557 61.0401L53.8818 62.2482C54.3651 62.4295 54.8181 62.6409 55.241 62.7919Z" fill="black"/>
<path d="M59.8924 64L59.9226 62.6711C59.53 62.6409 59.1071 62.5805 58.6843 62.4899L58.3521 63.7886C58.9259 63.8792 59.4394 63.9698 59.8924 64Z" fill="black"/>
<path d="M51.0128 60.7985L51.6471 59.6205C51.2544 59.4091 50.8618 59.1675 50.4692 58.9561L49.8047 60.1038C50.1973 60.3152 50.6202 60.5568 51.0128 60.7985Z" fill="black"/>
<path d="M61.5231 10.8726L62.4594 9.90611C58.6236 6.916 49.7439 12.0807 45.6362 14.7688L46.3611 15.8863C54.7878 10.3592 59.6203 9.63428 61.5231 10.8726Z" fill="black"/>
<path d="M9.90642 62.4898L10.8729 61.5233C9.63459 59.6205 10.3595 54.788 15.8867 46.3915L14.7691 45.6666C12.081 49.7743 6.9163 58.654 9.90642 62.4898Z" fill="black"/>
<path d="M55.1516 29.5382C54.9099 29.8704 54.6381 30.2329 54.3965 30.5651L55.4536 31.3504C55.7254 30.988 55.967 30.6255 56.2389 30.2933L55.1516 29.5382Z" fill="black"/>
<path d="M52.523 33.0417C52.2512 33.3739 51.9793 33.7062 51.7075 34.0384L52.7344 34.8841C53.0063 34.5518 53.2781 34.1894 53.5499 33.8572L52.523 33.0417Z" fill="black"/>
<path d="M49.7139 36.4245C49.442 36.7567 49.14 37.089 48.8682 37.391L49.8649 38.2669C50.1669 37.9347 50.4387 37.6024 50.7408 37.2702L49.7139 36.4245Z" fill="black"/>
<path d="M61.6444 18.2422C61.4934 18.6046 61.3424 18.9973 61.1611 19.3899L62.3693 19.9336C62.5505 19.5107 62.7317 19.0879 62.8827 18.6952L61.6444 18.2422Z" fill="black"/>
<path d="M57.6273 25.9138C57.4159 26.2762 57.1742 26.6084 56.9326 26.9709L58.0501 27.726C58.2918 27.3635 58.5334 26.9709 58.775 26.6084L57.6273 25.9138Z" fill="black"/>
<path d="M62.6715 14.1949C62.6413 14.5574 62.5809 14.95 62.5205 15.3427L63.8192 15.6447C63.9099 15.1312 63.9703 14.6782 64.0005 14.2251L62.6715 14.1949Z" fill="black"/>
<path d="M42.8579 43.7639L43.7942 44.7002C43.9452 44.5492 44.0962 44.3982 44.2473 44.2471C44.3983 44.0961 44.5493 43.9451 44.7003 43.7941L43.764 42.8578C43.613 43.0088 43.462 43.1598 43.311 43.3108C43.1599 43.4619 43.0089 43.6129 42.8579 43.7639Z" fill="black"/>
<path d="M59.8326 22.1686C59.6514 22.531 59.4399 22.8935 59.2285 23.2861L60.3762 23.9506C60.5877 23.5579 60.8293 23.1653 61.0105 22.7726L59.8326 22.1686Z" fill="black"/>
<path d="M46.7841 39.6865C46.4821 39.9885 46.2102 40.3207 45.9082 40.6228L46.8747 41.5289C47.1767 41.1966 47.4788 40.8946 47.7808 40.5624L46.7841 39.6865Z" fill="black"/>
<path d="M22.1689 59.832L22.773 61.0099C23.1657 60.7985 23.5583 60.587 23.9509 60.3756L23.2865 59.2279C22.8938 59.4393 22.5314 59.6507 22.1689 59.832Z" fill="black"/>
<path d="M18.2422 61.6441L18.6952 62.8825C19.0879 62.7315 19.5107 62.5502 19.9336 62.369L19.3899 61.1609C18.9973 61.3421 18.6046 61.4931 18.2422 61.6441Z" fill="black"/>
<path d="M25.9141 57.6272L26.6087 58.7447C26.9712 58.5031 27.3336 58.2614 27.7263 58.0198L26.9712 56.9023C26.6087 57.1741 26.2765 57.4157 25.9141 57.6272Z" fill="black"/>
<path d="M14.2255 64C14.6786 63.9698 15.1618 63.9094 15.6451 63.7885L15.343 62.4898C14.9504 62.5804 14.5578 62.6106 14.1953 62.6408L14.2255 64Z" fill="black"/>
<path d="M33.0117 52.5228L33.8272 53.5799C34.1896 53.3081 34.5219 53.0362 34.8541 52.7644L34.0084 51.7375C33.6762 52.0093 33.344 52.2509 33.0117 52.5228Z" fill="black"/>
<path d="M36.395 49.7139L37.2709 50.7408C37.6031 50.469 37.9354 50.167 38.2676 49.8649L37.3917 48.8682C37.0595 49.1703 36.7273 49.4421 36.395 49.7139Z" fill="black"/>
<path d="M29.5386 55.1807L30.3239 56.268C30.6863 56.0264 31.0185 55.7545 31.381 55.4827L30.5957 54.4256C30.203 54.6672 29.8708 54.9089 29.5386 55.1807Z" fill="black"/>
<path d="M39.6865 46.8144L40.5926 47.7809C40.9248 47.4788 41.2269 47.1768 41.5591 46.8748L40.653 45.9083C40.2906 46.2103 39.9886 46.5123 39.6865 46.8144Z" fill="black"/>
<path d="M60.255 48.8984C56.7212 42.737 50.892 35.4278 44.2473 28.7831C37.3005 21.8364 30.0216 16.0676 23.7091 12.5338C17.3967 9.00003 12.8662 8.09393 10.5405 9.90612L11.507 10.8726C13.3796 9.63429 17.6383 10.6612 23.0748 13.7117C29.2363 17.1851 36.4549 22.8633 43.311 29.7194C56.6608 43.0692 65.0573 57.3251 62.1578 61.5234L63.0941 62.4597C64.9365 60.1038 63.9398 55.3317 60.255 48.8984Z" fill="black"/>
</g>
<defs>
<clipPath id="clip0">
<rect width="55" height="55" fill="white" transform="translate(9 9)"/>
</clipPath>
</defs>
</svg>
