<svg width="70" height="70" viewBox="0 0 70 70" fill="none" xmlns="http://www.w3.org/2000/svg">
<path d="M37.0203 50.737L32.9383 50.7314C32.8309 50.7312 32.7269 50.694 32.6437 50.6259C32.5606 50.5579 32.5034 50.4633 32.4819 50.3581L31.7553 46.7899C30.7667 46.5205 29.8165 46.1259 28.9278 45.6158L25.8907 47.6164C25.8009 47.6755 25.6935 47.7018 25.5865 47.6909C25.4795 47.6799 25.3796 47.6323 25.3037 47.5562L22.4187 44.6629C22.3427 44.5867 22.2953 44.4866 22.2846 44.3796C22.2739 44.2725 22.3005 44.165 22.3599 44.0753L24.3689 41.042C23.861 40.1521 23.469 39.201 23.2023 38.2117L19.6355 37.4757C19.5301 37.4542 19.4353 37.3969 19.3672 37.3134C19.2992 37.23 19.2621 37.1256 19.2622 37.0179L19.2678 32.936C19.268 32.8286 19.3052 32.7245 19.3733 32.6414C19.4413 32.5582 19.5359 32.5011 19.6411 32.4796L23.2093 31.753C23.4787 30.7644 23.8733 29.8142 24.3834 28.9255L22.3828 25.8884C22.3237 25.7986 22.2974 25.6911 22.3083 25.5841C22.3193 25.4772 22.3669 25.3773 22.443 25.3013L25.3363 22.4164C25.4125 22.3404 25.5126 22.293 25.6196 22.2823C25.7267 22.2716 25.8342 22.2982 25.9239 22.3576L28.9572 24.3666C29.8473 23.8589 30.7986 23.4668 31.788 23.1999L32.5239 19.6332C32.5455 19.5278 32.6027 19.4331 32.6861 19.365C32.7694 19.297 32.8737 19.2599 32.9813 19.2599L37.0632 19.2655C37.1706 19.2657 37.2747 19.3029 37.3578 19.3709C37.441 19.4389 37.4981 19.5336 37.5196 19.6388L38.2462 23.2069C39.2349 23.4764 40.185 23.871 41.0737 24.3811L44.1108 22.3805C44.2006 22.3213 44.3081 22.295 44.4151 22.306C44.522 22.317 44.6219 22.3645 44.6979 22.4407L47.5828 25.334C47.6589 25.4101 47.7062 25.5102 47.717 25.6173C47.7277 25.7244 47.7011 25.8318 47.6416 25.9215L45.6326 28.9549C46.1405 29.8447 46.5326 30.7959 46.7993 31.7852L50.366 32.5211C50.4715 32.5427 50.5663 32.6 50.6343 32.6834C50.7024 32.7669 50.7395 32.8713 50.7394 32.9789L50.7338 37.0609C50.7336 37.1683 50.6963 37.2724 50.6283 37.3555C50.5603 37.4386 50.4657 37.4958 50.3604 37.5173L46.7923 38.2439C46.5228 39.2325 46.1283 40.1827 45.6182 41.0714L47.6188 44.1085C47.6779 44.1983 47.7042 44.3058 47.6932 44.4127C47.6823 44.5197 47.6347 44.6196 47.5586 44.6955L44.6652 47.5805C44.5891 47.6565 44.489 47.7039 44.3819 47.7146C44.2749 47.7253 44.1674 47.6987 44.0777 47.6393L41.0444 45.6303C40.1542 46.138 39.2029 46.5301 38.2135 46.7969L37.4776 50.3637C37.4561 50.4691 37.3988 50.5638 37.3155 50.6318C37.2321 50.6999 37.1279 50.737 37.0203 50.737Z" fill="#FEDD15"/>
<path d="M35 42.827H34.9898C32.9139 42.8256 30.9237 41.9997 29.4568 40.5309C27.9899 39.0621 27.1666 37.0708 27.168 34.9949C27.1693 32.9191 27.9953 30.9288 29.4641 29.462C30.9329 27.9951 32.9242 27.1718 35 27.1731H35.0103C37.0861 27.1745 39.0764 28.0004 40.5433 29.4692C42.0102 30.938 42.8335 32.9294 42.8321 35.0052C42.8307 37.081 42.0048 39.0713 40.536 40.5382C39.0672 42.0051 37.0759 42.8284 35 42.827Z" fill="white"/>
<path d="M35 42.827H34.9898C32.9139 42.8256 30.9237 41.9997 29.4568 40.5309C27.9899 39.0621 27.1666 37.0708 27.168 34.9949C27.1693 32.9191 27.9953 30.9288 29.4641 29.462C30.9329 27.9951 32.9242 27.1718 35 27.1731H35.0103C37.0861 27.1745 39.0764 28.0004 40.5433 29.4692C42.0102 30.938 42.8335 32.9294 42.8321 35.0052C42.8307 37.081 42.0048 39.0713 40.536 40.5382C39.0672 42.0051 37.0759 42.8284 35 42.827ZM34.9902 41.8937H35C35.9053 41.8943 36.8019 41.7166 37.6385 41.3708C38.4751 41.025 39.2354 40.5177 39.876 39.8781C40.5166 39.2384 41.0249 38.4788 41.3719 37.6427C41.719 36.8065 41.8979 35.9103 41.8985 35.005C41.8992 34.0997 41.7215 33.2032 41.3757 32.3665C41.0298 31.5299 40.5226 30.7696 39.8829 30.129C39.2432 29.4884 38.4837 28.9801 37.6475 28.6331C36.8114 28.2861 35.9151 28.1071 35.0098 28.1065H35C34.0948 28.1058 33.1982 28.2835 32.3616 28.6293C31.525 28.9752 30.7647 29.4824 30.1241 30.1221C28.8304 31.414 28.1028 33.1669 28.1015 34.9952C28.1002 36.8235 28.8253 38.5774 30.1172 39.8711C31.409 41.1648 33.1619 41.8924 34.9902 41.8937Z" fill="black"/>
<path d="M15.3534 18.5201C15.2464 18.5204 15.1426 18.4838 15.0594 18.4167C14.9762 18.3495 14.9185 18.2558 14.8961 18.1513C14.8737 18.0467 14.8879 17.9376 14.9363 17.8422C14.9847 17.7469 15.0644 17.671 15.162 17.6274L31.0595 10.5C31.1716 10.4539 31.2973 10.4532 31.4099 10.4981C31.5225 10.543 31.6133 10.63 31.6629 10.7406C31.7125 10.8512 31.7171 10.9768 31.6757 11.0908C31.6344 11.2048 31.5503 11.2982 31.4412 11.3512L15.5428 18.48C15.4831 18.5064 15.4186 18.5201 15.3534 18.5201Z" fill="black"/>
<path d="M58.1224 43.6301C57.9987 43.6301 57.88 43.5809 57.7924 43.4934C57.7049 43.4059 57.6558 43.2872 57.6558 43.1634V24.3521C57.6558 24.2283 57.7049 24.1096 57.7924 24.0221C57.88 23.9346 57.9987 23.8854 58.1224 23.8854C58.2462 23.8854 58.3649 23.9346 58.4524 24.0221C58.5399 24.1096 58.5891 24.2283 58.5891 24.3521V43.1634C58.5891 43.2872 58.5399 43.4059 58.4524 43.4934C58.3649 43.5809 58.2462 43.6301 58.1224 43.6301Z" fill="black"/>
<path d="M31.4068 59.2238C31.3274 59.2238 31.2494 59.2036 31.18 59.165L14.9517 50.1257C14.8981 50.0959 14.851 50.0558 14.8129 50.0078C14.7748 49.9597 14.7466 49.9046 14.7298 49.8457C14.713 49.7867 14.708 49.725 14.715 49.6641C14.7221 49.6033 14.741 49.5443 14.7708 49.4908C14.8007 49.4372 14.8407 49.3901 14.8888 49.352C14.9368 49.3139 14.9919 49.2857 15.0508 49.2689C15.1098 49.2521 15.1715 49.2471 15.2324 49.2541C15.2933 49.2612 15.3522 49.2801 15.4057 49.31L31.6341 58.3493C31.7245 58.3995 31.7956 58.4784 31.8363 58.5735C31.877 58.6685 31.885 58.7744 31.859 58.8745C31.833 58.9746 31.7744 59.0632 31.6926 59.1265C31.6108 59.1897 31.5102 59.2239 31.4068 59.2238Z" fill="black"/>
<path d="M11.8773 43.6301C11.7535 43.6301 11.6348 43.5809 11.5473 43.4934C11.4598 43.4059 11.4106 43.2872 11.4106 43.1634V24.3521C11.4106 24.2283 11.4598 24.1096 11.5473 24.0221C11.6348 23.9346 11.7535 23.8854 11.8773 23.8854C12.0011 23.8854 12.1198 23.9346 12.2073 24.0221C12.2948 24.1096 12.344 24.2283 12.344 24.3521V43.1634C12.344 43.2872 12.2948 43.4059 12.2073 43.4934C12.1198 43.5809 12.0011 43.6301 11.8773 43.6301Z" fill="black"/>
<path d="M38.5931 59.2238C38.4897 59.2239 38.3892 59.1897 38.3074 59.1265C38.2255 59.0632 38.167 58.9746 38.141 58.8745C38.115 58.7744 38.1229 58.6685 38.1636 58.5735C38.2044 58.4784 38.2755 58.3995 38.3659 58.3493L54.5942 49.31C54.6478 49.2801 54.7067 49.2612 54.7676 49.2541C54.8285 49.2471 54.8902 49.2521 54.9491 49.2689C55.0081 49.2857 55.0631 49.3139 55.1112 49.352C55.1592 49.3901 55.1993 49.4372 55.2291 49.4908C55.2589 49.5443 55.2779 49.6033 55.2849 49.6641C55.292 49.725 55.287 49.7867 55.2702 49.8457C55.2534 49.9046 55.2252 49.9597 55.1871 50.0078C55.149 50.0558 55.1018 50.0959 55.0483 50.1257L38.8199 59.165C38.7506 59.2036 38.6725 59.2238 38.5931 59.2238Z" fill="black"/>
<path d="M54.7459 18.3722C54.6816 18.3721 54.6181 18.3588 54.5592 18.333L38.5768 11.3213C38.5188 11.2981 38.4661 11.2634 38.4217 11.2194C38.3773 11.1754 38.3423 11.1229 38.3186 11.0651C38.2949 11.0073 38.283 10.9453 38.2837 10.8828C38.2844 10.8203 38.2977 10.7586 38.3227 10.7013C38.3477 10.6441 38.384 10.5924 38.4293 10.5494C38.4747 10.5064 38.5282 10.473 38.5867 10.4511C38.6452 10.4292 38.7075 10.4192 38.77 10.4218C38.8324 10.4245 38.8937 10.4396 38.9502 10.4664L54.9326 17.478C55.0307 17.521 55.111 17.5964 55.1601 17.6916C55.2092 17.7868 55.2241 17.896 55.2022 18.0009C55.1803 18.1057 55.123 18.1999 55.0399 18.2675C54.9568 18.3351 54.853 18.372 54.7459 18.3722Z" fill="black"/>
<path d="M34.9967 13.817C34.0922 13.817 33.2079 13.5488 32.4559 13.0463C31.7038 12.5438 31.1176 11.8295 30.7715 10.9939C30.4253 10.1582 30.3348 9.23864 30.5112 8.3515C30.6877 7.46436 31.1232 6.64947 31.7628 6.00988C32.4024 5.37029 33.2173 4.93472 34.1045 4.75826C34.9916 4.58179 35.9111 4.67236 36.7468 5.01851C37.5825 5.36465 38.2967 5.95083 38.7993 6.70291C39.3018 7.45499 39.57 8.3392 39.57 9.24372C39.5691 10.4564 39.087 11.6191 38.2296 12.4766C37.3721 13.3341 36.2093 13.8162 34.9967 13.817ZM34.9967 5.59998C34.2768 5.59998 33.5732 5.81341 32.9746 6.21327C32.3761 6.61314 31.9095 7.18149 31.634 7.84648C31.3584 8.51146 31.2862 9.24323 31.4264 9.94925C31.5667 10.6553 31.9132 11.3039 32.422 11.813C32.9308 12.3222 33.5792 12.669 34.2851 12.8098C34.9911 12.9505 35.7229 12.8787 36.388 12.6036C37.0532 12.3284 37.6218 11.8622 38.0221 11.264C38.4223 10.6657 38.6362 9.96214 38.6367 9.24232C38.6365 8.27675 38.2531 7.35073 37.5705 6.66776C36.888 5.98478 35.9622 5.60072 34.9967 5.59998Z" fill="black"/>
<path d="M58.1188 24.8202C57.2144 24.8197 56.3305 24.5511 55.5787 24.0483C54.8269 23.5455 54.2411 22.8311 53.8953 21.9954C53.5495 21.1597 53.4593 20.2402 53.636 19.3532C53.8127 18.4662 54.2485 17.6516 54.8882 17.0122C55.5279 16.3728 56.3428 15.9375 57.2298 15.7612C58.1169 15.585 59.0363 15.6757 59.8719 16.0219C60.7074 16.3681 61.4215 16.9543 61.9239 17.7063C62.4263 18.4583 62.6945 19.3424 62.6945 20.2469C62.6934 21.4598 62.2109 22.6228 61.353 23.4803C60.495 24.3378 59.3318 24.8197 58.1188 24.8202ZM58.1188 16.6027C57.399 16.6031 56.6955 16.817 56.0972 17.2172C55.4989 17.6175 55.0327 18.1861 54.7576 18.8513C54.4824 19.5165 54.4107 20.2483 54.5514 20.9542C54.6921 21.6602 55.039 22.3085 55.5481 22.8174C56.0573 23.3262 56.7059 23.6726 57.4119 23.8129C58.1179 23.9531 58.8497 23.8809 59.5147 23.6054C60.1797 23.3298 60.748 22.8632 61.1479 22.2647C61.5478 21.6661 61.7612 20.9625 61.7612 20.2427C61.7604 19.2771 61.3764 18.3513 60.6934 17.6688C60.0104 16.9862 59.0844 16.6028 58.1188 16.6027Z" fill="black"/>
<path d="M58.1188 51.8494C57.2144 51.8489 56.3305 51.5803 55.5787 51.0775C54.8269 50.5747 54.2411 49.8603 53.8953 49.0246C53.5495 48.1889 53.4593 47.2694 53.636 46.3824C53.8127 45.4954 54.2485 44.6808 54.8882 44.0414C55.5279 43.402 56.3428 42.9667 57.2298 42.7904C58.1169 42.6142 59.0363 42.7049 59.8719 43.0511C60.7074 43.3973 61.4215 43.9835 61.9239 44.7355C62.4263 45.4875 62.6945 46.3716 62.6945 47.2761C62.6935 48.4891 62.2111 49.6521 61.3531 50.5096C60.4951 51.3671 59.3319 51.849 58.1188 51.8494ZM58.1188 43.6323C57.399 43.6328 56.6955 43.8467 56.0972 44.2469C55.4989 44.6472 55.0327 45.2158 54.7576 45.881C54.4824 46.5461 54.4107 47.2779 54.5514 47.9839C54.6921 48.6898 55.039 49.3382 55.5481 49.847C56.0573 50.3558 56.7059 50.7023 57.4119 50.8426C58.1179 50.9828 58.8497 50.9106 59.5147 50.635C60.1797 50.3595 60.748 49.8929 61.1479 49.2944C61.5478 48.6958 61.7612 47.9921 61.7612 47.2723C61.7602 46.3069 61.376 45.3814 60.6931 44.6991C60.0101 44.0167 59.0843 43.6334 58.1188 43.6333V43.6323Z" fill="black"/>
<path d="M11.8742 51.8494C10.9698 51.8489 10.0858 51.5803 9.33405 51.0775C8.58228 50.5747 7.99647 49.8603 7.65068 49.0246C7.30489 48.1889 7.21466 47.2694 7.39138 46.3824C7.56811 45.4954 8.00386 44.6808 8.64355 44.0414C9.28323 43.402 10.0981 42.9667 10.9852 42.7904C11.8723 42.6142 12.7917 42.7049 13.6272 43.0511C14.4628 43.3973 15.1769 43.9835 15.6793 44.7355C16.1817 45.4875 16.4499 46.3716 16.4499 47.2761C16.4489 48.4891 15.9664 49.6521 15.1085 50.5096C14.2505 51.3671 13.0872 51.849 11.8742 51.8494ZM11.8742 43.6323C11.1544 43.6328 10.4509 43.8467 9.85259 44.2469C9.2543 44.6472 8.78811 45.2158 8.51297 45.881C8.23782 46.5461 8.16607 47.2779 8.30678 47.9839C8.4475 48.6898 8.79436 49.3382 9.30351 49.847C9.81267 50.3558 10.4613 50.7023 11.1673 50.8426C11.8733 50.9828 12.6051 50.9106 13.2701 50.635C13.9351 50.3595 14.5034 49.8929 14.9033 49.2944C15.3031 48.6958 15.5166 47.9921 15.5166 47.2723C15.5156 46.3069 15.1314 45.3814 14.4485 44.6991C13.7655 44.0167 12.8396 43.6334 11.8742 43.6333V43.6323Z" fill="black"/>
<path d="M34.9967 65.3333C34.0923 65.3333 33.2081 65.0651 32.4561 64.5627C31.7041 64.0603 31.1179 63.3462 30.7717 62.5106C30.4255 61.6751 30.3348 60.7557 30.511 59.8686C30.6873 58.9815 31.1227 58.1667 31.762 57.527C32.4014 56.8873 33.216 56.4515 34.103 56.2748C34.99 56.0981 35.9095 56.1883 36.7452 56.5341C37.5809 56.8799 38.2953 57.4657 38.7981 58.2175C39.3009 58.9692 39.5695 59.8532 39.57 60.7576C39.5696 61.9707 39.0878 63.1339 38.2302 63.9919C37.3727 64.8498 36.2097 65.3323 34.9967 65.3333ZM34.9967 57.1162C34.2767 57.1162 33.573 57.3297 32.9744 57.7297C32.3758 58.1297 31.9093 58.6982 31.6338 59.3633C31.3583 60.0284 31.2862 60.7603 31.4266 61.4664C31.5671 62.1725 31.9137 62.821 32.4228 63.3301C32.9319 63.8392 33.5805 64.1859 34.2865 64.3263C34.9926 64.4668 35.7245 64.3947 36.3896 64.1192C37.0548 63.8437 37.6233 63.3771 38.0232 62.7785C38.4232 62.1799 38.6367 61.4762 38.6367 60.7562C38.6361 59.791 38.2524 58.8656 37.5699 58.1831C36.8874 57.5006 35.9619 57.1169 34.9967 57.1162Z" fill="black"/>
<path d="M11.8742 24.8202C10.9698 24.8197 10.0858 24.5511 9.33405 24.0483C8.58228 23.5455 7.99647 22.8311 7.65068 21.9954C7.30489 21.1597 7.21466 20.2402 7.39138 19.3532C7.56811 18.4662 8.00386 17.6516 8.64355 17.0122C9.28323 16.3728 10.0981 15.9375 10.9852 15.7612C11.8723 15.585 12.7917 15.6757 13.6272 16.0219C14.4628 16.3681 15.1769 16.9543 15.6793 17.7063C16.1817 18.4583 16.4499 19.3424 16.4499 20.2469C16.4488 21.4598 15.9663 22.6228 15.1083 23.4803C14.2504 24.3378 13.0872 24.8197 11.8742 24.8202ZM11.8742 16.6027C11.1544 16.6031 10.4509 16.817 9.85259 17.2172C9.2543 17.6175 8.78811 18.1861 8.51297 18.8513C8.23782 19.5165 8.16607 20.2483 8.30678 20.9542C8.4475 21.6602 8.79436 22.3085 9.30351 22.8174C9.81267 23.3262 10.4613 23.6726 11.1673 23.8129C11.8733 23.9531 12.6051 23.8809 13.2701 23.6054C13.9351 23.3298 14.5034 22.8632 14.9033 22.2647C15.3031 21.6661 15.5166 20.9625 15.5166 20.2427C15.5158 19.2771 15.1318 18.3513 14.4488 17.6688C13.7658 16.9862 12.8398 16.6028 11.8742 16.6027Z" fill="black"/>
<path d="M50.375 25.9388C50.2737 25.939 50.1751 25.9061 50.0941 25.8453C50.0131 25.7844 49.9541 25.6989 49.926 25.6015C49.8979 25.5042 49.9023 25.4004 49.9384 25.3057C49.9745 25.2111 50.0405 25.1307 50.1263 25.0769L54.5718 22.2843C54.6766 22.2184 54.8032 22.1968 54.9239 22.2243C55.0446 22.2518 55.1494 22.3261 55.2153 22.4309C55.2812 22.5356 55.3028 22.6623 55.2753 22.783C55.2479 22.9037 55.1736 23.0085 55.0688 23.0744L50.6233 25.8674C50.5488 25.9139 50.4628 25.9386 50.375 25.9388Z" fill="black"/>
<path d="M54.7461 45.403C54.6418 45.4031 54.5405 45.3681 54.4586 45.3036L50.5928 42.2703C50.5444 42.2324 50.5039 42.1855 50.4737 42.132C50.4434 42.0786 50.424 42.0197 50.4166 41.9587C50.4091 41.8978 50.4137 41.836 50.4301 41.7768C50.4465 41.7176 50.4744 41.6623 50.5123 41.6139C50.5501 41.5655 50.597 41.525 50.6505 41.4948C50.7039 41.4646 50.7628 41.4452 50.8238 41.4377C50.8847 41.4302 50.9465 41.4348 51.0057 41.4512C51.0649 41.4677 51.1202 41.4956 51.1686 41.5334L55.0349 44.5667C55.1114 44.6267 55.1673 44.709 55.1947 44.8022C55.2221 44.8955 55.2198 44.9949 55.188 45.0867C55.1562 45.1786 55.0965 45.2582 55.0173 45.3144C54.9381 45.3707 54.8433 45.4009 54.7461 45.4007V45.403Z" fill="black"/>
<path d="M19.3803 25.4333C19.2929 25.4329 19.2074 25.408 19.1335 25.3614L15.1029 22.8199C15.0012 22.7525 14.93 22.648 14.9044 22.5288C14.8788 22.4096 14.901 22.2851 14.966 22.1819C15.0311 22.0788 15.134 22.0052 15.2526 21.977C15.3712 21.9487 15.4962 21.968 15.6008 22.0308L19.6295 24.5704C19.7151 24.6244 19.7809 24.7047 19.8169 24.7993C19.8529 24.8939 19.8571 24.9976 19.829 25.0949C19.8009 25.1921 19.7419 25.2775 19.661 25.3383C19.58 25.3991 19.4815 25.4319 19.3803 25.4319V25.4333Z" fill="black"/>
<path d="M15.8041 46.5402C15.6984 46.5404 15.5957 46.5048 15.5129 46.439C15.4301 46.3733 15.3721 46.2814 15.3484 46.1784C15.3246 46.0754 15.3365 45.9673 15.3822 45.872C15.4279 45.7766 15.5045 45.6996 15.5997 45.6535L19.5533 43.7299C19.6647 43.6758 19.793 43.6681 19.9101 43.7086C20.0271 43.7491 20.1233 43.8344 20.1774 43.9458C20.2316 44.0572 20.2393 44.1855 20.1988 44.3026C20.1583 44.4196 20.073 44.5158 19.9616 44.5699L16.0066 46.4931C15.9435 46.5238 15.8743 46.5399 15.8041 46.5402Z" fill="black"/>
</svg>
