<svg width="70" height="70" viewBox="0 0 70 70" fill="none" xmlns="http://www.w3.org/2000/svg">
<path d="M8.53991 65.3334C8.41614 65.3334 8.29744 65.2842 8.20993 65.1967C8.12241 65.1092 8.07324 64.9905 8.07324 64.8667V5.13335C8.07324 5.00959 8.12241 4.89089 8.20993 4.80337C8.29744 4.71585 8.41614 4.66669 8.53991 4.66669C8.66368 4.66669 8.78237 4.71585 8.86989 4.80337C8.95741 4.89089 9.00657 5.00959 9.00657 5.13335V64.8667C9.00657 64.9905 8.95741 65.1092 8.86989 65.1967C8.78237 65.2842 8.66368 65.3334 8.53991 65.3334Z" fill="black"/>
<path d="M64.8665 61.8175H5.13317C5.0094 61.8175 4.8907 61.7683 4.80319 61.6808C4.71567 61.5933 4.6665 61.4746 4.6665 61.3508C4.6665 61.227 4.71567 61.1083 4.80319 61.0208C4.8907 60.9333 5.0094 60.8841 5.13317 60.8841H64.8665C64.9903 60.8841 65.109 60.9333 65.1965 61.0208C65.284 61.1083 65.3332 61.227 65.3332 61.3508C65.3332 61.4746 65.284 61.5933 65.1965 61.6808C65.109 61.7683 64.9903 61.8175 64.8665 61.8175Z" fill="black"/>
<path d="M56.1227 57.4592H50.3715C50.2477 57.4592 50.129 57.41 50.0415 57.3225C49.954 57.235 49.9048 57.1163 49.9048 56.9925V13.0073C49.9048 12.8836 49.954 12.7649 50.0415 12.6774C50.129 12.5898 50.2477 12.5407 50.3715 12.5407H56.1227C56.2464 12.5407 56.3651 12.5898 56.4526 12.6774C56.5402 12.7649 56.5893 12.8836 56.5893 13.0073V56.9925C56.5893 57.1163 56.5402 57.235 56.4526 57.3225C56.3651 57.41 56.2464 57.4592 56.1227 57.4592ZM50.8381 56.5259H55.656V13.474H50.8381V56.5259Z" fill="black"/>
<path d="M44.5826 57.4593H38.8319C38.7081 57.4593 38.5894 57.4101 38.5019 57.3226C38.4144 57.2351 38.3652 57.1164 38.3652 56.9926V33.6425C38.3652 33.5187 38.4144 33.4 38.5019 33.3125C38.5894 33.225 38.7081 33.1758 38.8319 33.1758H44.5826C44.7064 33.1758 44.8251 33.225 44.9126 33.3125C45.0001 33.4 45.0493 33.5187 45.0493 33.6425V56.9926C45.0493 57.1164 45.0001 57.2351 44.9126 57.3226C44.8251 57.4101 44.7064 57.4593 44.5826 57.4593Z" fill="#FEDD15"/>
<path d="M33.0431 57.4592H27.2919C27.1681 57.4592 27.0494 57.41 26.9619 57.3225C26.8744 57.235 26.8252 57.1163 26.8252 56.9925V19.5234C26.8252 19.3996 26.8744 19.2809 26.9619 19.1934C27.0494 19.1059 27.1681 19.0567 27.2919 19.0567H33.0431C33.1668 19.0567 33.2855 19.1059 33.373 19.1934C33.4606 19.2809 33.5097 19.3996 33.5097 19.5234V56.9925C33.5097 57.1163 33.4606 57.235 33.373 57.3225C33.2855 57.41 33.1668 57.4592 33.0431 57.4592ZM27.7585 56.5259H32.5764V19.9901H27.7585V56.5259Z" fill="black"/>
<path d="M21.5021 57.4593H15.7513C15.6276 57.4593 15.5089 57.4102 15.4214 57.3226C15.3338 57.2351 15.2847 57.1164 15.2847 56.9927V44.5028C15.2847 44.379 15.3338 44.2603 15.4214 44.1728C15.5089 44.0853 15.6276 44.0361 15.7513 44.0361H21.5021C21.6258 44.0361 21.7445 44.0853 21.8321 44.1728C21.9196 44.2603 21.9687 44.379 21.9687 44.5028V56.9927C21.9687 57.1164 21.9196 57.2351 21.8321 57.3226C21.7445 57.4102 21.6258 57.4593 21.5021 57.4593Z" fill="#FEDD15"/>
<path d="M13.9447 63.6066C13.8209 63.6066 13.7022 63.5575 13.6147 63.47C13.5272 63.3824 13.478 63.2637 13.478 63.14V61.3527C13.478 61.2289 13.5272 61.1102 13.6147 61.0227C13.7022 60.9352 13.8209 60.886 13.9447 60.886C14.0685 60.886 14.1872 60.9352 14.2747 61.0227C14.3622 61.1102 14.4114 61.2289 14.4114 61.3527V63.14C14.4114 63.2637 14.3622 63.3824 14.2747 63.47C14.1872 63.5575 14.0685 63.6066 13.9447 63.6066Z" fill="black"/>
<path d="M21.2601 63.6066C21.1364 63.6066 21.0177 63.5575 20.9301 63.47C20.8426 63.3824 20.7935 63.2637 20.7935 63.14V61.3527C20.7935 61.2289 20.8426 61.1102 20.9301 61.0227C21.0177 60.9352 21.1364 60.886 21.2601 60.886C21.3839 60.886 21.5026 60.9352 21.5901 61.0227C21.6776 61.1102 21.7268 61.2289 21.7268 61.3527V63.14C21.7268 63.2637 21.6776 63.3824 21.5901 63.47C21.5026 63.5575 21.3839 63.6066 21.2601 63.6066Z" fill="black"/>
<path d="M28.5751 63.6066C28.4513 63.6066 28.3326 63.5575 28.2451 63.47C28.1576 63.3824 28.1084 63.2637 28.1084 63.14V61.3527C28.1084 61.2289 28.1576 61.1102 28.2451 61.0227C28.3326 60.9352 28.4513 60.886 28.5751 60.886C28.6988 60.886 28.8175 60.9352 28.9051 61.0227C28.9926 61.1102 29.0417 61.2289 29.0417 61.3527V63.14C29.0417 63.2637 28.9926 63.3824 28.9051 63.47C28.8175 63.5575 28.6988 63.6066 28.5751 63.6066Z" fill="black"/>
<path d="M35.891 63.6066C35.7672 63.6066 35.6485 63.5575 35.561 63.47C35.4735 63.3824 35.4243 63.2637 35.4243 63.14V61.3527C35.4243 61.2289 35.4735 61.1102 35.561 61.0227C35.6485 60.9352 35.7672 60.886 35.891 60.886C36.0148 60.886 36.1335 60.9352 36.221 61.0227C36.3085 61.1102 36.3577 61.2289 36.3577 61.3527V63.14C36.3577 63.2637 36.3085 63.3824 36.221 63.47C36.1335 63.5575 36.0148 63.6066 35.891 63.6066Z" fill="black"/>
<path d="M43.2059 63.6066C43.0822 63.6066 42.9635 63.5575 42.8759 63.47C42.7884 63.3824 42.7393 63.2637 42.7393 63.14V61.3527C42.7393 61.2289 42.7884 61.1102 42.8759 61.0227C42.9635 60.9352 43.0822 60.886 43.2059 60.886C43.3297 60.886 43.4484 60.9352 43.5359 61.0227C43.6234 61.1102 43.6726 61.2289 43.6726 61.3527V63.14C43.6726 63.2637 43.6234 63.3824 43.5359 63.47C43.4484 63.5575 43.3297 63.6066 43.2059 63.6066Z" fill="black"/>
<path d="M50.5223 63.6066C50.3986 63.6066 50.2799 63.5575 50.1923 63.47C50.1048 63.3824 50.0557 63.2637 50.0557 63.14V61.3527C50.0557 61.2289 50.1048 61.1102 50.1923 61.0227C50.2799 60.9352 50.3986 60.886 50.5223 60.886C50.6461 60.886 50.7648 60.9352 50.8523 61.0227C50.9398 61.1102 50.989 61.2289 50.989 61.3527V63.14C50.989 63.2637 50.9398 63.3824 50.8523 63.47C50.7648 63.5575 50.6461 63.6066 50.5223 63.6066Z" fill="black"/>
<path d="M57.8383 63.6066C57.7145 63.6066 57.5958 63.5575 57.5083 63.47C57.4207 63.3824 57.3716 63.2637 57.3716 63.14V61.3527C57.3716 61.2289 57.4207 61.1102 57.5083 61.0227C57.5958 60.9352 57.7145 60.886 57.8383 60.886C57.962 60.886 58.0807 60.9352 58.1682 61.0227C58.2558 61.1102 58.3049 61.2289 58.3049 61.3527V63.14C58.3049 63.2637 58.2558 63.3824 58.1682 63.47C58.0807 63.5575 57.962 63.6066 57.8383 63.6066Z" fill="black"/>
<path d="M8.54013 11.3866H6.7528C6.62903 11.3866 6.51033 11.3374 6.42282 11.2499C6.3353 11.1624 6.28613 11.0437 6.28613 10.9199C6.28613 10.7962 6.3353 10.6775 6.42282 10.59C6.51033 10.5024 6.62903 10.4533 6.7528 10.4533H8.54013C8.6639 10.4533 8.7826 10.5024 8.87011 10.59C8.95763 10.6775 9.0068 10.7962 9.0068 10.9199C9.0068 11.0437 8.95763 11.1624 8.87011 11.2499C8.7826 11.3374 8.6639 11.3866 8.54013 11.3866Z" fill="black"/>
<path d="M8.54013 18.7008H6.7528C6.62903 18.7008 6.51033 18.6516 6.42282 18.5641C6.3353 18.4766 6.28613 18.3579 6.28613 18.2341C6.28613 18.1103 6.3353 17.9916 6.42282 17.9041C6.51033 17.8166 6.62903 17.7674 6.7528 17.7674H8.54013C8.6639 17.7674 8.7826 17.8166 8.87011 17.9041C8.95763 17.9916 9.0068 18.1103 9.0068 18.2341C9.0068 18.3579 8.95763 18.4766 8.87011 18.5641C8.7826 18.6516 8.6639 18.7008 8.54013 18.7008Z" fill="black"/>
<path d="M8.54013 26.0161H6.7528C6.62903 26.0161 6.51033 25.9669 6.42282 25.8794C6.3353 25.7919 6.28613 25.6732 6.28613 25.5494C6.28613 25.4257 6.3353 25.307 6.42282 25.2194C6.51033 25.1319 6.62903 25.0828 6.7528 25.0828H8.54013C8.6639 25.0828 8.7826 25.1319 8.87011 25.2194C8.95763 25.307 9.0068 25.4257 9.0068 25.5494C9.0068 25.6732 8.95763 25.7919 8.87011 25.8794C8.7826 25.9669 8.6639 26.0161 8.54013 26.0161Z" fill="black"/>
<path d="M8.54013 33.3317H6.7528C6.62903 33.3317 6.51033 33.2825 6.42282 33.195C6.3353 33.1075 6.28613 32.9888 6.28613 32.865C6.28613 32.7412 6.3353 32.6225 6.42282 32.535C6.51033 32.4475 6.62903 32.3983 6.7528 32.3983H8.54013C8.6639 32.3983 8.7826 32.4475 8.87011 32.535C8.95763 32.6225 9.0068 32.7412 9.0068 32.865C9.0068 32.9888 8.95763 33.1075 8.87011 33.195C8.7826 33.2825 8.6639 33.3317 8.54013 33.3317Z" fill="black"/>
<path d="M8.54013 40.6467H6.7528C6.62903 40.6467 6.51033 40.5976 6.42282 40.51C6.3353 40.4225 6.28613 40.3038 6.28613 40.18C6.28613 40.0563 6.3353 39.9376 6.42282 39.8501C6.51033 39.7625 6.62903 39.7134 6.7528 39.7134H8.54013C8.6639 39.7134 8.7826 39.7625 8.87011 39.8501C8.95763 39.9376 9.0068 40.0563 9.0068 40.18C9.0068 40.3038 8.95763 40.4225 8.87011 40.51C8.7826 40.5976 8.6639 40.6467 8.54013 40.6467Z" fill="black"/>
<path d="M8.54013 47.9625H6.7528C6.62903 47.9625 6.51033 47.9133 6.42282 47.8258C6.3353 47.7383 6.28613 47.6196 6.28613 47.4958C6.28613 47.3721 6.3353 47.2534 6.42282 47.1659C6.51033 47.0783 6.62903 47.0292 6.7528 47.0292H8.54013C8.6639 47.0292 8.7826 47.0783 8.87011 47.1659C8.95763 47.2534 9.0068 47.3721 9.0068 47.4958C9.0068 47.6196 8.95763 47.7383 8.87011 47.8258C8.7826 47.9133 8.6639 47.9625 8.54013 47.9625Z" fill="black"/>
<path d="M8.54013 55.2781H6.7528C6.62903 55.2781 6.51033 55.2289 6.42282 55.1414C6.3353 55.0539 6.28613 54.9352 6.28613 54.8114C6.28613 54.6876 6.3353 54.5689 6.42282 54.4814C6.51033 54.3939 6.62903 54.3447 6.7528 54.3447H8.54013C8.6639 54.3447 8.7826 54.3939 8.87011 54.4814C8.95763 54.5689 9.0068 54.6876 9.0068 54.8114C9.0068 54.9352 8.95763 55.0539 8.87011 55.1414C8.7826 55.2289 8.6639 55.2781 8.54013 55.2781Z" fill="black"/>
</svg>
