<svg width="70" height="70" viewBox="0 0 70 70" fill="none" xmlns="http://www.w3.org/2000/svg">
<path d="M29.6626 50.8808C22.4727 50.8808 16.623 42.7608 16.623 32.7793C16.623 22.7978 22.4727 14.6778 29.6626 14.6778C30.8351 14.6788 31.9976 14.8927 33.0936 15.3092C33.2094 15.3529 33.303 15.4409 33.354 15.5537C33.4049 15.6665 33.4089 15.7949 33.3652 15.9107C33.3214 16.0265 33.2335 16.1201 33.1207 16.1711C33.0079 16.222 32.8794 16.226 32.7636 16.1823C31.7731 15.8058 30.7224 15.6122 29.6626 15.6111C22.9893 15.6111 17.5564 23.3111 17.5564 32.7793C17.5564 42.2475 22.9874 49.9475 29.6626 49.9475C35.3051 49.9475 40.2784 44.2794 41.4875 36.4697C41.496 36.4083 41.5166 36.3492 41.5481 36.2959C41.5796 36.2426 41.6215 36.1961 41.6712 36.1591C41.7209 36.1221 41.7775 36.0954 41.8376 36.0805C41.8977 36.0656 41.9602 36.0628 42.0215 36.0723C42.0827 36.0818 42.1414 36.1034 42.1942 36.1359C42.247 36.1683 42.2928 36.2109 42.3289 36.2613C42.365 36.3116 42.3908 36.3686 42.4046 36.429C42.4185 36.4894 42.4202 36.5519 42.4096 36.613C41.1296 44.8804 35.7685 50.8808 29.6626 50.8808Z" fill="black"/>
<path d="M34.347 58.0675H25.9381C25.8647 58.0674 25.7924 58.05 25.7269 58.0169C25.6614 57.9837 25.6046 57.9357 25.5611 57.8766L19.1117 49.059C19.0681 48.9992 19.0394 48.93 19.0278 48.857C19.0162 48.784 19.0221 48.7092 19.045 48.639L20.2457 44.9812C20.2638 44.9218 20.2936 44.8665 20.3333 44.8188C20.373 44.771 20.4219 44.7316 20.477 44.7029C20.5321 44.6743 20.5924 44.6569 20.6543 44.6519C20.7163 44.6468 20.7786 44.6542 20.8376 44.6736C20.8967 44.6929 20.9512 44.7239 20.9982 44.7646C21.0451 44.8053 21.0834 44.855 21.1108 44.9108C21.1383 44.9665 21.1544 45.0272 21.1581 45.0892C21.1618 45.1512 21.153 45.2134 21.1324 45.272L20.0063 48.702L26.1747 57.1342H34.0936L39.6936 48.5008L38.2175 45.3219C38.1894 45.266 38.1728 45.2051 38.1686 45.1427C38.1645 45.0803 38.173 45.0177 38.1935 44.9586C38.2141 44.8996 38.2463 44.8452 38.2882 44.7989C38.3302 44.7525 38.381 44.715 38.4377 44.6887C38.4944 44.6623 38.5559 44.6477 38.6184 44.6455C38.6809 44.6434 38.7432 44.6539 38.8016 44.6763C38.8599 44.6987 38.9132 44.7326 38.9582 44.776C39.0033 44.8194 39.0391 44.8714 39.0636 44.929L40.6503 48.3417C40.6835 48.4133 40.698 48.4922 40.6925 48.571C40.6869 48.6497 40.6615 48.7258 40.6185 48.792L34.7385 57.8547C34.6962 57.92 34.6382 57.9737 34.5698 58.0109C34.5014 58.048 34.4248 58.0675 34.347 58.0675Z" fill="black"/>
<path d="M54.2676 65.3335H29.8563C29.7325 65.3335 29.6138 65.2843 29.5263 65.1968C29.4388 65.1093 29.3896 64.9906 29.3896 64.8668C29.3896 64.7431 29.4388 64.6244 29.5263 64.5369C29.6138 64.4493 29.7325 64.4002 29.8563 64.4002H53.801V57.7413C53.8029 57.091 53.6107 56.455 53.2489 55.9146C52.8872 55.3742 52.3724 54.954 51.7705 54.708C51.7559 54.7022 51.7417 54.6955 51.728 54.6879C49.3387 53.4102 46.899 52.2547 44.5414 51.1366C42.9729 50.3936 41.4912 49.6899 40.0175 48.954C39.9068 48.8983 39.8227 48.8009 39.7838 48.6832C39.7449 48.5655 39.7544 48.4372 39.8101 48.3265C39.8658 48.2158 39.9632 48.1318 40.0808 48.0929C40.1985 48.054 40.3268 48.0634 40.4375 48.1191C41.9019 48.8527 43.3775 49.5527 44.9427 50.2933C47.3054 51.4133 49.7494 52.5702 52.1513 53.854C52.9184 54.1732 53.5736 54.7128 54.034 55.4046C54.4944 56.0963 54.7392 56.909 54.7376 57.7399V64.8668C54.7376 64.9284 54.7254 64.9893 54.7017 65.0462C54.6781 65.103 54.6434 65.1546 54.5997 65.198C54.556 65.2414 54.5042 65.2757 54.4472 65.2989C54.3902 65.3222 54.3292 65.3339 54.2676 65.3335Z" fill="black"/>
<path d="M29.856 65.3334H5.4447C5.32093 65.3334 5.20224 65.2843 5.11472 65.1967C5.0272 65.1092 4.97804 64.9905 4.97804 64.8668V57.7412C4.97643 56.9103 5.22135 56.0975 5.6818 55.4058C6.14226 54.714 6.79755 54.1745 7.56477 53.8553C11.411 51.8019 15.0828 50.1966 18.9696 48.5003L19.3005 48.3556C19.357 48.3289 19.4182 48.3137 19.4807 48.3111C19.5431 48.3085 19.6054 48.3184 19.664 48.3403C19.7225 48.3622 19.776 48.3957 19.8214 48.4387C19.8667 48.4816 19.903 48.5333 19.928 48.5906C19.953 48.6478 19.9662 48.7096 19.9669 48.772C19.9677 48.8345 19.9558 48.8965 19.9321 48.9543C19.9084 49.0122 19.8733 49.0646 19.829 49.1086C19.7846 49.1527 19.7318 49.1873 19.6738 49.2105L19.3425 49.3557C15.4664 51.0478 11.8054 52.6457 7.9843 54.6892C7.97056 54.6967 7.95638 54.7034 7.94183 54.7093C7.33982 54.9553 6.82494 55.3754 6.46313 55.9158C6.10131 56.4562 5.90903 57.0923 5.9109 57.7426V64.4001H29.8556C29.9793 64.4001 30.098 64.4493 30.1856 64.5368C30.2731 64.6243 30.3222 64.743 30.3222 64.8668C30.3222 64.9905 30.2731 65.1092 30.1856 65.1967C30.098 65.2843 29.9793 65.3334 29.8556 65.3334H29.856Z" fill="black"/>
<path d="M23.325 65.3334C23.2502 65.3333 23.1765 65.3152 23.1102 65.2807C23.0438 65.2462 22.9867 65.1962 22.9437 65.135C22.9007 65.0738 22.873 65.0031 22.8631 64.929C22.8531 64.8548 22.8611 64.7794 22.8864 64.709L25.4997 57.443C25.5065 57.4234 25.5148 57.4044 25.5244 57.386L29.2507 50.1994C29.2883 50.127 29.3442 50.0657 29.4128 50.0217C29.4814 49.9776 29.5603 49.9523 29.6417 49.9482C29.7232 49.9442 29.8042 49.9615 29.8769 49.9985C29.9495 50.0356 30.0112 50.091 30.0557 50.1592L34.7387 57.3459C34.7637 57.3842 34.7831 57.4258 34.7961 57.4696L36.9185 64.7361C36.9357 64.7949 36.9411 64.8565 36.9344 64.9174C36.9278 64.9784 36.9092 65.0374 36.8797 65.0911C36.8502 65.1448 36.8105 65.1922 36.7627 65.2306C36.7149 65.269 36.66 65.2976 36.6012 65.3147C36.5424 65.3319 36.4807 65.3373 36.4198 65.3306C36.3589 65.324 36.2999 65.3054 36.2462 65.2759C36.1924 65.2464 36.145 65.2067 36.1066 65.1589C36.0683 65.1111 36.0397 65.0562 36.0225 64.9974L33.9193 57.7976L29.7109 51.3413L26.3667 57.7878L23.7646 65.0244C23.7321 65.115 23.6724 65.1932 23.5937 65.2485C23.5151 65.3038 23.4212 65.3335 23.325 65.3334Z" fill="black"/>
<path d="M48.2265 38.2568C44.9047 38.2568 41.6574 37.2718 38.8955 35.4263C36.1335 33.5808 33.9808 30.9577 32.7096 27.8887C31.4384 24.8197 31.1058 21.4427 31.7539 18.1847C32.402 14.9267 34.0016 11.9341 36.3506 9.58525C38.6995 7.2364 41.6922 5.63684 44.9502 4.98884C48.2082 4.34084 51.5852 4.67351 54.6541 5.94478C57.7231 7.21605 60.3461 9.36882 62.1915 12.1309C64.037 14.8929 65.0219 18.1402 65.0218 21.462C65.0168 25.9148 63.2456 30.1837 60.097 33.3323C56.9483 36.4809 52.6793 38.2519 48.2265 38.2568Z" fill="#FEDD15"/>
<path d="M48.2261 32.7728C46.6639 32.7711 45.1662 32.1497 44.0617 31.0449C42.9571 29.9402 42.336 28.4424 42.3345 26.8802C42.3345 26.7564 42.3836 26.6377 42.4712 26.5502C42.5587 26.4627 42.6774 26.4135 42.8011 26.4135C42.9249 26.4135 43.0436 26.4627 43.1311 26.5502C43.2186 26.6377 43.2678 26.7564 43.2678 26.8802C43.2664 27.8612 43.556 28.8205 44.1 29.6368C44.644 30.4531 45.4179 31.0897 46.3238 31.4661C47.2297 31.8424 48.2269 31.9416 49.1892 31.7511C50.1514 31.5606 51.0356 31.0889 51.7297 30.3957C52.4239 29.7026 52.8968 28.8191 53.0887 27.8571C53.2806 26.8951 53.1828 25.8978 52.8077 24.9913C52.4326 24.0849 51.7971 23.3101 50.9816 22.765C50.166 22.2198 49.2071 21.9289 48.2261 21.9289C47.0617 21.9283 45.9235 21.5825 44.9555 20.9352C43.9875 20.288 43.2332 19.3682 42.7878 18.2923C42.3424 17.2163 42.226 16.0325 42.4534 14.8904C42.6807 13.7484 43.2415 12.6993 44.0649 11.8759C44.8883 11.0525 45.9373 10.4917 47.0794 10.2644C48.2215 10.0371 49.4053 10.1535 50.4812 10.5989C51.5571 11.0442 52.4769 11.7986 53.1242 12.7666C53.7715 13.7346 54.1172 14.8727 54.1178 16.0372C54.1178 16.161 54.0686 16.2797 53.9811 16.3672C53.8936 16.4547 53.7749 16.5039 53.6511 16.5039C53.5274 16.5039 53.4087 16.4547 53.3211 16.3672C53.2336 16.2797 53.1845 16.161 53.1845 16.0372C53.1845 15.0565 52.8937 14.0979 52.3488 13.2825C51.804 12.4671 51.0296 11.8316 50.1236 11.4563C49.2176 11.081 48.2206 10.9828 47.2588 11.1741C46.297 11.3655 45.4135 11.8377 44.7201 12.5311C44.0266 13.2246 43.5544 14.108 43.3631 15.0699C43.1718 16.0317 43.27 17.0286 43.6452 17.9347C44.0205 18.8407 44.656 19.6151 45.4714 20.1599C46.2868 20.7047 47.2455 20.9955 48.2261 20.9955C49.0039 20.9886 49.7752 21.1358 50.4958 21.4286C51.2163 21.7215 51.8716 22.1541 52.424 22.7016C52.9764 23.2491 53.4149 23.9006 53.7141 24.6185C54.0134 25.3364 54.1674 26.1064 54.1674 26.8842C54.1674 27.6619 54.0134 28.432 53.7141 29.1498C53.4149 29.8677 52.9764 30.5192 52.424 31.0667C51.8716 31.6142 51.2163 32.0469 50.4958 32.3397C49.7752 32.6325 49.0039 32.7797 48.2261 32.7728Z" fill="black"/>
<path d="M48.2264 35.1549C48.1027 35.1549 47.984 35.1057 47.8964 35.0182C47.8089 34.9307 47.7598 34.812 47.7598 34.6882V8.23571C47.7598 8.11194 47.8089 7.99324 47.8964 7.90573C47.984 7.81821 48.1027 7.76904 48.2264 7.76904C48.3502 7.76904 48.4689 7.81821 48.5564 7.90573C48.6439 7.99324 48.6931 8.11194 48.6931 8.23571V34.6882C48.6931 34.812 48.6439 34.9307 48.5564 35.0182C48.4689 35.1057 48.3502 35.1549 48.2264 35.1549Z" fill="black"/>
</svg>
