<svg width="70" height="70" viewBox="0 0 70 70" fill="none" xmlns="http://www.w3.org/2000/svg">
<path fill-rule="evenodd" clip-rule="evenodd" d="M55.2468 44.6835H56.4627C56.5752 44.6835 56.6841 44.6435 56.7697 44.5705C56.8554 44.4975 56.9122 44.3963 56.93 44.2852L60.6721 20.8948C60.6829 20.8273 60.679 20.7582 60.6605 20.6924C60.6421 20.6266 60.6096 20.5655 60.5652 20.5135C60.5209 20.4614 60.4658 20.4196 60.4038 20.3908C60.3417 20.3621 60.2742 20.3472 60.2058 20.3471H14.3558C14.2303 20.3471 14.11 20.3969 14.0213 20.4856C13.9326 20.5743 13.8828 20.6946 13.8828 20.8201C13.8828 20.9455 13.9326 21.0658 14.0213 21.1545C14.11 21.2432 14.2303 21.2931 14.3558 21.2931H59.6543L56.0597 43.7375H50.1088C50.1055 43.7375 50.1023 43.7375 50.0991 43.7376H26.5605H22.6951H17.1956C17.0702 43.7376 16.9499 43.7874 16.8612 43.8761C16.7725 43.9648 16.7227 44.0851 16.7227 44.2106C16.7227 44.336 16.7725 44.4563 16.8612 44.545C16.9499 44.6337 17.0702 44.6836 17.1956 44.6836H22.6951H26.5605H55.2369C55.2402 44.6836 55.2435 44.6835 55.2468 44.6835Z" fill="black"/>
<path d="M63.014 52.1701H20.648C19.8292 52.1696 19.0389 51.8696 18.426 51.3267C17.8132 50.7837 17.4202 50.0353 17.3211 49.2225L12.6859 10.9968H6.98567C6.86023 10.9968 6.73993 10.947 6.65123 10.8583C6.56253 10.7696 6.5127 10.6493 6.5127 10.5239C6.5127 10.3984 6.56253 10.2781 6.65123 10.1894C6.73993 10.1007 6.86023 10.0509 6.98567 10.0509H13.1069C13.2231 10.05 13.3355 10.092 13.4228 10.1688C13.51 10.2455 13.5659 10.3517 13.5799 10.4671L18.2566 49.109C18.3278 49.6922 18.6098 50.2293 19.0496 50.6189C19.4894 51.0086 20.0566 51.2238 20.6442 51.2241H63.014C63.1395 51.2241 63.2598 51.274 63.3485 51.3627C63.4372 51.4514 63.487 51.5717 63.487 51.6971C63.487 51.8225 63.4372 51.9428 63.3485 52.0315C63.2598 52.1202 63.1395 52.1701 63.014 52.1701Z" fill="black"/>
<path d="M54.5925 65.2703C53.5736 65.2703 52.5776 64.9682 51.7304 64.4021C50.8833 63.8361 50.223 63.0315 49.8331 62.0902C49.4432 61.1488 49.3411 60.113 49.5399 59.1137C49.7387 58.1144 50.2293 57.1964 50.9498 56.476C51.6703 55.7555 52.5882 55.2649 53.5875 55.0661C54.5868 54.8673 55.6226 54.9693 56.564 55.3592C57.5053 55.7492 58.3099 56.4095 58.8759 57.2566C59.442 58.1038 59.7442 59.0998 59.7442 60.1187C59.7427 61.4846 59.1994 62.794 58.2336 63.7598C57.2678 64.7256 55.9584 65.2688 54.5925 65.2703Z" fill="#FEDD15"/>
<path d="M54.5925 65.2703C53.5736 65.2703 52.5776 64.9682 51.7304 64.4021C50.8833 63.8361 50.223 63.0315 49.8331 62.0902C49.4432 61.1488 49.3411 60.113 49.5399 59.1137C49.7387 58.1144 50.2293 57.1964 50.9498 56.476C51.6703 55.7555 52.5882 55.2649 53.5875 55.0661C54.5868 54.8673 55.6226 54.9693 56.564 55.3592C57.5053 55.7492 58.3099 56.4095 58.8759 57.2566C59.442 58.1038 59.7442 59.0998 59.7442 60.1187C59.7427 61.4846 59.1994 62.794 58.2336 63.7598C57.2678 64.7256 55.9584 65.2688 54.5925 65.2703ZM54.5925 55.9131C53.7607 55.9131 52.9476 56.1597 52.256 56.6218C51.5644 57.084 51.0253 57.7408 50.707 58.5093C50.3887 59.2778 50.3054 60.1234 50.4677 60.9392C50.63 61.755 51.0305 62.5044 51.6187 63.0926C52.2069 63.6808 52.9562 64.0813 53.772 64.2436C54.5879 64.4059 55.4335 64.3226 56.202 64.0043C56.9705 63.6859 57.6273 63.1469 58.0894 62.4553C58.5515 61.7636 58.7982 60.9505 58.7982 60.1187C58.7972 59.0036 58.3538 57.9345 57.5653 57.146C56.7768 56.3575 55.7076 55.9141 54.5925 55.9131Z" fill="black"/>
<path d="M27.4549 65.2704C26.436 65.2702 25.4401 64.9679 24.593 64.4017C23.746 63.8355 23.0858 63.0309 22.6961 62.0895C22.3063 61.1482 22.2044 60.1124 22.4033 59.1131C22.6022 58.1139 23.0929 57.196 23.8134 56.4756C24.5339 55.7553 25.4518 55.2647 26.4511 55.066C27.4504 54.8673 28.4862 54.9694 29.4275 55.3593C30.3688 55.7493 31.1733 56.4096 31.7393 57.2567C32.3053 58.1039 32.6074 59.0999 32.6074 60.1187C32.6059 61.4847 32.0626 62.7943 31.0966 63.7602C30.1306 64.726 28.8209 65.2691 27.4549 65.2704Z" fill="#FEDD15"/>
<path d="M27.4549 65.2704C26.436 65.2702 25.4401 64.9679 24.593 64.4017C23.746 63.8355 23.0858 63.0309 22.6961 62.0895C22.3063 61.1482 22.2044 60.1124 22.4033 59.1131C22.6022 58.1139 23.0929 57.196 23.8134 56.4756C24.5339 55.7553 25.4518 55.2647 26.4511 55.066C27.4504 54.8673 28.4862 54.9694 29.4275 55.3593C30.3688 55.7493 31.1733 56.4096 31.7393 57.2567C32.3053 58.1039 32.6074 59.0999 32.6074 60.1187C32.6059 61.4847 32.0626 62.7943 31.0966 63.7602C30.1306 64.726 28.8209 65.2691 27.4549 65.2704ZM27.4549 55.9131C26.6231 55.9132 25.8101 56.1601 25.1186 56.6223C24.4271 57.0845 23.8882 57.7414 23.57 58.5099C23.2518 59.2784 23.1687 60.124 23.3311 60.9398C23.4935 61.7556 23.8941 62.5048 24.4823 63.0929C25.0705 63.681 25.8199 64.0815 26.6357 64.2437C27.4515 64.4059 28.2971 64.3225 29.0655 64.0042C29.8339 63.6858 30.4907 63.1468 30.9528 62.4552C31.4149 61.7636 31.6615 60.9505 31.6615 60.1187C31.6602 59.0035 31.2166 57.9344 30.428 57.1459C29.6393 56.3574 28.5701 55.9141 27.4549 55.9131Z" fill="black"/>
<path d="M47.0949 38.8784C47.0808 38.8793 47.0666 38.8793 47.0524 38.8784C46.9275 38.8673 46.812 38.8071 46.7315 38.711C46.651 38.6148 46.6119 38.4906 46.6229 38.3657L47.6758 26.5811C47.6869 26.4557 47.7475 26.3398 47.8441 26.259C47.9406 26.1782 48.0654 26.1391 48.1908 26.1502C48.3163 26.1614 48.4321 26.2219 48.5129 26.3185C48.5937 26.4151 48.6329 26.5398 48.6217 26.6653L47.5651 38.4499C47.554 38.567 47.4997 38.6757 47.4128 38.755C47.3259 38.8342 47.2126 38.8782 47.0949 38.8784Z" fill="black"/>
<path d="M37.6287 38.8786C37.5033 38.8786 37.383 38.8288 37.2943 38.7401C37.2056 38.6514 37.1558 38.5311 37.1558 38.4056V26.6201C37.1558 26.4946 37.2056 26.3743 37.2943 26.2856C37.383 26.1969 37.5033 26.1471 37.6287 26.1471C37.7542 26.1471 37.8745 26.1969 37.9632 26.2856C38.0519 26.3743 38.1017 26.4946 38.1017 26.6201V38.4056C38.1017 38.5311 38.0519 38.6514 37.9632 38.7401C37.8745 38.8288 37.7542 38.8786 37.6287 38.8786Z" fill="black"/>
<path d="M28.1635 38.8785C28.045 38.879 27.9306 38.8349 27.843 38.755C27.7554 38.6751 27.701 38.5653 27.6906 38.4472L26.6415 26.6616C26.6304 26.5362 26.6695 26.4114 26.7503 26.3149C26.8311 26.2183 26.947 26.1577 27.0724 26.1466C27.1978 26.1354 27.3226 26.1745 27.4192 26.2553C27.5158 26.3361 27.5763 26.452 27.5875 26.5774L28.6384 38.3668C28.6494 38.4915 28.6105 38.6156 28.5302 38.7117C28.4498 38.8079 28.3347 38.8682 28.2099 38.8795C28.1944 38.8803 28.179 38.88 28.1635 38.8785Z" fill="black"/>
</svg>
