<svg width="70" height="70" viewBox="0 0 70 70" fill="none" xmlns="http://www.w3.org/2000/svg">
<path d="M55.9487 65.3329H25.018C23.9837 65.3318 22.992 64.9204 22.2606 64.189C21.5292 63.4576 21.1178 62.4659 21.1167 61.4316V38.2663C21.1167 38.1425 21.1659 38.0238 21.2534 37.9363C21.3409 37.8488 21.4596 37.7996 21.5834 37.7996C21.7071 37.7996 21.8258 37.8488 21.9133 37.9363C22.0009 38.0238 22.05 38.1425 22.05 38.2663V61.4316C22.051 62.2184 22.364 62.9728 22.9204 63.5292C23.4768 64.0856 24.2312 64.3986 25.018 64.3996H55.9487C56.7356 64.3986 57.4899 64.0856 58.0463 63.5292C58.6027 62.9728 58.9157 62.2184 58.9167 61.4316V8.56293C58.9152 7.77665 58.6019 7.02307 58.0455 6.46752C57.4891 5.91198 56.735 5.59984 55.9487 5.59959H25.018C24.2318 5.59984 23.4777 5.91198 22.9213 6.46752C22.3648 7.02307 22.0515 7.77665 22.05 8.56293V19.9496C22.05 20.0734 22.0009 20.1921 21.9133 20.2796C21.8258 20.3671 21.7071 20.4163 21.5834 20.4163C21.4596 20.4163 21.3409 20.3671 21.2534 20.2796C21.1659 20.1921 21.1167 20.0734 21.1167 19.9496V8.56293C21.1184 7.52919 21.5302 6.53835 22.2616 5.80783C22.993 5.0773 23.9843 4.66675 25.018 4.66626H55.9487C56.9824 4.66675 57.9738 5.0773 58.7052 5.80783C59.4366 6.53835 59.8483 7.52919 59.85 8.56293V61.4316C59.8489 62.4659 59.4375 63.4576 58.7061 64.189C57.9747 64.9204 56.9831 65.3318 55.9487 65.3329Z" fill="black"/>
<path d="M59.381 12.1232H21.5834C21.4596 12.1232 21.3409 12.074 21.2534 11.9865C21.1659 11.899 21.1167 11.7803 21.1167 11.6565C21.1167 11.5328 21.1659 11.4141 21.2534 11.3266C21.3409 11.239 21.4596 11.1899 21.5834 11.1899H59.3834C59.5071 11.1899 59.6258 11.239 59.7133 11.3266C59.8009 11.4141 59.85 11.5328 59.85 11.6565C59.85 11.7803 59.8009 11.899 59.7133 11.9865C59.6258 12.074 59.5071 12.1232 59.3834 12.1232H59.381Z" fill="black"/>
<path d="M59.381 56.1025H21.5834C21.4596 56.1025 21.3409 56.0534 21.2534 55.9659C21.1659 55.8783 21.1167 55.7596 21.1167 55.6359C21.1167 55.5121 21.1659 55.3934 21.2534 55.3059C21.3409 55.2184 21.4596 55.1692 21.5834 55.1692H59.3834C59.5071 55.1692 59.6258 55.2184 59.7133 55.3059C59.8009 55.3934 59.85 55.5121 59.85 55.6359C59.85 55.7596 59.8009 55.8783 59.7133 55.9659C59.6258 56.0534 59.5071 56.1025 59.3834 56.1025H59.381Z" fill="black"/>
<path d="M44.0734 9.05366H36.8905C36.7667 9.05366 36.648 9.0045 36.5605 8.91698C36.473 8.82946 36.4238 8.71076 36.4238 8.587C36.4238 8.46323 36.473 8.34453 36.5605 8.25701C36.648 8.1695 36.7667 8.12033 36.8905 8.12033H44.0734C44.1972 8.12033 44.3159 8.1695 44.4034 8.25701C44.4909 8.34453 44.5401 8.46323 44.5401 8.587C44.5401 8.71076 44.4909 8.82946 44.4034 8.91698C44.3159 9.0045 44.1972 9.05366 44.0734 9.05366Z" fill="black"/>
<path d="M40.4843 63.2103C39.9088 63.2108 39.3462 63.0407 38.8674 62.7215C38.3887 62.4022 38.0154 61.9482 37.7947 61.4167C37.574 60.8853 37.5159 60.3004 37.6277 59.7359C37.7395 59.1715 38.0161 58.6528 38.4227 58.2456C38.8293 57.8384 39.3475 57.5609 39.9117 57.4482C40.476 57.3355 41.061 57.3927 41.5928 57.6125C42.1246 57.8323 42.5793 58.2049 42.8993 58.6832C43.2193 59.1614 43.3903 59.7238 43.3907 60.2992C43.3898 61.0702 43.0835 61.8094 42.5387 62.355C41.994 62.9006 41.2553 63.2082 40.4843 63.2103ZM40.4843 58.3257C40.0933 58.3251 39.7109 58.4406 39.3855 58.6575C39.0602 58.8743 38.8065 59.1829 38.6566 59.544C38.5067 59.9051 38.4673 60.3026 38.5434 60.6861C38.6195 61.0697 38.8077 61.422 39.0842 61.6985C39.3606 61.975 39.7129 62.1633 40.0964 62.2395C40.4799 62.3157 40.8774 62.2764 41.2386 62.1266C41.5997 61.9768 41.9083 61.7232 42.1253 61.3979C42.3422 61.0726 42.4578 60.6902 42.4573 60.2992C42.4562 59.7762 42.248 59.2749 41.8782 58.9051C41.5085 58.5352 41.0073 58.3269 40.4843 58.3257Z" fill="black"/>
<path d="M30.0579 42.9612C29.9344 42.9612 29.8159 42.9122 29.7284 42.8249L25.632 38.7332H13.8319C12.8558 38.732 11.9199 38.3436 11.2297 37.6534C10.5395 36.9631 10.1511 36.0273 10.1499 35.0512V23.1652C10.1511 22.189 10.5395 21.2532 11.2297 20.563C11.9199 19.8727 12.8558 19.4844 13.8319 19.4832H29.6986C30.6747 19.4844 31.6105 19.8727 32.3008 20.563C32.991 21.2532 33.3793 22.189 33.3806 23.1652V35.0512C33.3834 35.8849 33.102 36.6947 32.5828 37.3471C32.0637 37.9995 31.3377 38.4555 30.5246 38.6399V42.4945C30.5246 42.6183 30.4754 42.737 30.3879 42.8245C30.3004 42.912 30.1817 42.9612 30.0579 42.9612Z" fill="#FEDD15"/>
<path d="M21.7626 34.4939C21.5749 34.4943 21.3934 34.4263 21.2521 34.3025L21.057 34.1252C18.7489 32.0341 16.1001 29.3428 16.1001 27.0776C16.1003 26.4213 16.288 25.7786 16.6411 25.2254C16.9942 24.6721 17.4981 24.2312 18.0933 23.9547C18.6886 23.6781 19.3504 23.5774 20.001 23.6644C20.6516 23.7514 21.2637 24.0224 21.7654 24.4456C22.2671 24.0224 22.8793 23.7514 23.5299 23.6644C24.1804 23.5774 24.8423 23.6781 25.4376 23.9547C26.0328 24.2312 26.5367 24.6721 26.8898 25.2254C27.2429 25.7786 27.4306 26.4213 27.4308 27.0776C27.4308 29.5355 24.2005 32.5175 22.6484 33.9502C22.5084 34.079 22.3861 34.1924 22.2867 34.2862C22.1454 34.4206 21.9576 34.495 21.7626 34.4939Z" fill="white"/>
<path d="M21.7626 34.4939C21.5749 34.4943 21.3934 34.4263 21.2521 34.3025L21.057 34.1252C18.7489 32.0341 16.1001 29.3428 16.1001 27.0776C16.1003 26.4213 16.288 25.7786 16.6411 25.2254C16.9942 24.6721 17.4981 24.2312 18.0933 23.9547C18.6886 23.6781 19.3504 23.5774 20.001 23.6644C20.6516 23.7514 21.2637 24.0224 21.7654 24.4456C22.2671 24.0224 22.8793 23.7514 23.5299 23.6644C24.1804 23.5774 24.8423 23.6781 25.4376 23.9547C26.0328 24.2312 26.5367 24.6721 26.8898 25.2254C27.2429 25.7786 27.4306 26.4213 27.4308 27.0776C27.4308 29.5355 24.2005 32.5175 22.6484 33.9502C22.5084 34.079 22.3861 34.1924 22.2867 34.2862C22.1454 34.4206 21.9576 34.495 21.7626 34.4939ZM19.545 24.566C18.8795 24.5668 18.2414 24.8314 17.7707 25.302C17.3 25.7726 17.0352 26.4106 17.0344 27.0762C17.0344 29.2177 20.5344 32.3901 21.6847 33.4327L21.7594 33.5003L22.016 33.2628C23.3572 32.0247 26.4984 29.1258 26.4984 27.0762C26.498 26.5677 26.3433 26.0712 26.0547 25.6525C25.7661 25.2337 25.3572 24.9125 24.882 24.7312C24.4069 24.5499 23.8879 24.5172 23.3937 24.6372C22.8996 24.7573 22.4535 25.0246 22.1145 25.4037C22.0696 25.4508 22.0157 25.4884 21.9559 25.514C21.8961 25.5397 21.8317 25.5529 21.7666 25.5529C21.7015 25.5529 21.6371 25.5397 21.5773 25.514C21.5175 25.4884 21.4636 25.4508 21.4187 25.4037C21.1839 25.1387 20.8952 24.9269 20.5719 24.7827C20.2486 24.6385 19.8981 24.5651 19.5441 24.5674L19.545 24.566Z" fill="black"/>
</svg>
