<svg width="70" height="70" viewBox="0 0 70 70" fill="none" xmlns="http://www.w3.org/2000/svg">
<path d="M63.8047 63.5H6.862C6.36855 63.4988 5.89565 63.3022 5.54673 62.9533C5.1978 62.6043 5.00123 62.1315 5 61.638V15.6953C5.00123 15.2019 5.1978 14.729 5.54673 14.3801C5.89565 14.0311 6.36855 13.8346 6.862 13.8333H63.8047C64.2981 13.8346 64.771 14.0311 65.1199 14.3801C65.4689 14.729 65.6654 15.2019 65.6667 15.6953V61.638C65.6654 62.1315 65.4689 62.6043 65.1199 62.9533C64.771 63.3022 64.2981 63.4988 63.8047 63.5ZM6.862 14.7667C6.61582 14.767 6.37982 14.865 6.20574 15.0391C6.03166 15.2131 5.9337 15.4491 5.93333 15.6953V61.638C5.9337 61.8842 6.03166 62.1202 6.20574 62.2943C6.37982 62.4683 6.61582 62.5663 6.862 62.5667H63.8047C64.0509 62.5663 64.2868 62.4683 64.4609 62.2943C64.635 62.1202 64.733 61.8842 64.7333 61.638V15.6953C64.733 15.4491 64.635 15.2131 64.4609 15.0391C64.2868 14.865 64.0509 14.767 63.8047 14.7667H6.862Z" fill="black"/>
<path fill-rule="evenodd" clip-rule="evenodd" d="M60.6667 14V9.69533C60.6654 9.20187 60.4689 8.72898 60.1199 8.38006C59.771 8.03113 59.2981 7.83456 58.8047 7.83333H1.862C1.36855 7.83456 0.895654 8.03113 0.546728 8.38006C0.197802 8.72898 0.0012321 9.20187 0 9.69533V55.638C0.0012321 56.1315 0.197802 56.6043 0.546728 56.9533C0.895654 57.3022 1.36855 57.4988 1.862 57.5H5V56.5667H1.862C1.61582 56.5663 1.37982 56.4683 1.20574 56.2943C1.03166 56.1202 0.933704 55.8842 0.933333 55.638V9.69533C0.933704 9.44914 1.03166 9.21315 1.20574 9.03907C1.37982 8.86499 1.61582 8.76703 1.862 8.76666H58.8047C59.0509 8.76703 59.2868 8.86499 59.4609 9.03907C59.635 9.21315 59.733 9.44914 59.7333 9.69533V14H60.6667Z" fill="black"/>
<path d="M45.5631 17H24.4369C24.3211 17 24.2099 16.9491 24.128 16.8584C24.046 16.7678 24 16.6448 24 16.5166V11.6892C24 11.561 24.046 11.4381 24.128 11.3474C24.2099 11.2568 24.3211 11.2058 24.4369 11.2058H29.8751C29.9839 9.78602 30.5705 8.46314 31.5188 7.49907C32.4672 6.53499 33.7082 6 34.9961 6C36.284 6 37.525 6.53499 38.4733 7.49907C39.4217 8.46314 40.0083 9.78602 40.117 11.2058H45.5631C45.6789 11.2058 45.7901 11.2568 45.872 11.3474C45.954 11.4381 46 11.561 46 11.6892V16.5166C46 16.6448 45.954 16.7678 45.872 16.8584C45.7901 16.9491 45.6789 17 45.5631 17Z" fill="#FEDD15"/>
<path d="M45.5631 17H24.4369C24.3211 17 24.2099 16.9491 24.128 16.8584C24.046 16.7678 24 16.6448 24 16.5166V11.6892C24 11.561 24.046 11.4381 24.128 11.3474C24.2099 11.2568 24.3211 11.2058 24.4369 11.2058H29.8751C29.9839 9.78602 30.5705 8.46314 31.5188 7.49907C32.4672 6.53499 33.7082 6 34.9961 6C36.284 6 37.525 6.53499 38.4733 7.49907C39.4217 8.46314 40.0083 9.78602 40.117 11.2058H45.5631C45.6789 11.2058 45.7901 11.2568 45.872 11.3474C45.954 11.4381 46 11.561 46 11.6892V16.5166C46 16.6448 45.954 16.7678 45.872 16.8584C45.7901 16.9491 45.6789 17 45.5631 17ZM24.8739 16.0332H45.1261V12.1726H39.6993C39.5834 12.1726 39.4723 12.1217 39.3903 12.0311C39.3084 11.9404 39.2624 11.8174 39.2624 11.6892C39.2624 10.4374 38.8129 9.23684 38.0128 8.35166C37.2127 7.46648 36.1276 6.96919 34.9961 6.96919C33.8646 6.96919 32.7794 7.46648 31.9793 8.35166C31.1793 9.23684 30.7298 10.4374 30.7298 11.6892C30.7298 11.8174 30.6837 11.9404 30.6018 12.0311C30.5199 12.1217 30.4087 12.1726 30.2928 12.1726H24.8748L24.8739 16.0332Z" fill="black"/>
<path d="M40.6264 24.0245C38.9221 24.0245 37.2879 24.7609 36.0739 26.1355L35.0233 27.2892L33.9727 26.111C32.7587 24.7364 31.1478 24 29.4202 24C25.8949 24 23 27.2156 23 31.2166C23 33.1313 23.677 34.9477 24.8677 36.3223L31.3813 43.6371L34.9999 47L38.6186 43.6371L45.1322 36.2978C46.3462 34.9232 46.9999 33.1313 46.9999 31.1921C47.0232 27.2401 44.1516 24.0245 40.6264 24.0245Z" fill="#FFD703"/>
<path d="M31.0452 41C30.9697 40.9999 30.8957 40.9779 30.8313 40.9363C30.7669 40.8947 30.7147 40.8352 30.6804 40.7644L28.3393 35.9311H24.41C24.3013 35.9311 24.197 35.8856 24.1201 35.8047C24.0432 35.7238 24 35.614 24 35.4996C24 35.3851 24.0432 35.2754 24.1201 35.1944C24.197 35.1135 24.3013 35.068 24.41 35.068H28.5919C28.6676 35.0679 28.7418 35.0899 28.8063 35.1315C28.8709 35.1731 28.9232 35.2327 28.9576 35.3036L30.978 39.4767L34.0603 30.2883C34.0885 30.2039 34.1409 30.1309 34.2102 30.0793C34.2795 30.0276 34.3624 29.9999 34.4473 30C34.5325 30.0006 34.6153 30.0291 34.6844 30.0815C34.7535 30.134 34.8053 30.2077 34.8327 30.2926L37.3312 38.012L38.6046 35.0508C38.6371 34.9751 38.6897 34.9109 38.756 34.8659C38.8224 34.8209 38.8996 34.797 38.9785 34.797H45.59C45.6987 34.797 45.803 34.8425 45.8799 34.9234C45.9568 35.0043 46 35.1141 46 35.2286C46 35.343 45.9568 35.4528 45.8799 35.5337C45.803 35.6146 45.6987 35.6601 45.59 35.6601H39.2434L37.6526 39.3662C37.6202 39.4463 37.5649 39.5138 37.4944 39.5593C37.4238 39.6048 37.3416 39.626 37.259 39.6199C37.1768 39.6159 37.0977 39.5859 37.0318 39.5339C36.966 39.4819 36.9166 39.4102 36.89 39.3282L34.4383 31.7521L31.4323 40.7126C31.4055 40.7921 31.3573 40.8615 31.2935 40.9125C31.2296 40.9634 31.153 40.9935 31.0731 40.9991L31.0452 41Z" fill="black"/>
<path d="M57.5483 52H12.4517C12.3319 52 12.217 51.9473 12.1323 51.8536C12.0476 51.7598 12 51.6326 12 51.5C12 51.3674 12.0476 51.2402 12.1323 51.1465C12.217 51.0527 12.3319 51 12.4517 51H57.5483C57.6681 51 57.783 51.0527 57.8677 51.1465C57.9524 51.2402 58 51.3674 58 51.5C58 51.6326 57.9524 51.7598 57.8677 51.8536C57.783 51.9473 57.6681 52 57.5483 52Z" fill="black"/>
<path d="M57.5483 57H12.4517C12.3319 57 12.217 56.9473 12.1323 56.8536C12.0476 56.7598 12 56.6326 12 56.5C12 56.3674 12.0476 56.2402 12.1323 56.1465C12.217 56.0527 12.3319 56 12.4517 56H57.5483C57.6681 56 57.783 56.0527 57.8677 56.1465C57.9524 56.2402 58 56.3674 58 56.5C58 56.6326 57.9524 56.7598 57.8677 56.8536C57.783 56.9473 57.6681 57 57.5483 57Z" fill="black"/>
</svg>
