<svg width="70" height="70" viewBox="0 0 70 70" fill="none" xmlns="http://www.w3.org/2000/svg">
<g clip-path="url(#clip0)">
<path d="M44.4618 16.1861C42.2348 16.1861 40.0993 17.0957 38.513 18.7936L37.1402 20.2186L35.7674 18.7633C34.181 17.0654 32.076 16.1558 29.8185 16.1558C25.212 16.1558 21.4292 20.1276 21.4292 25.0697C21.4292 27.4345 22.3139 29.6782 23.8697 31.376L32.3811 40.4111L37.1097 44.5649L41.8382 40.4111L50.3496 31.3457C51.9359 29.6478 52.7901 27.4345 52.7901 25.0393C52.8206 20.158 49.0683 16.1861 44.4618 16.1861Z" fill="#FFD703"/>
<path d="M57.8854 18.2479C56.1466 12.2144 50.7164 8 44.737 8C42.0219 8 39.3679 8.84894 37.0798 10.4559L36.8968 10.5771L36.7138 10.4559C34.4258 8.84894 31.7717 8 29.0566 8C23.0468 8 17.6471 12.2144 15.9082 18.2479L15.8472 18.4298H17.0064L17.0369 18.3085C18.7453 12.8511 23.5654 9.15213 29.0566 9.15213C31.7412 9.15213 34.3342 10.0314 36.5307 11.7293L36.8968 12.0021L37.2629 11.7293C39.3679 10.0617 42.0219 9.15213 44.737 9.15213C50.2282 9.15213 55.0788 12.8511 56.7262 18.3085L56.7567 18.4298H57.9159L57.8854 18.2479Z" fill="black"/>
<path d="M57.4577 57.2383H40.8315V64.8484H57.4577V57.2383Z" fill="#FFD703"/>
<path d="M64.9019 20.5521C64.2307 19.8548 63.3155 19.4606 62.3088 19.4606C61.3326 19.4606 60.4174 19.8548 59.6852 20.5824C58.9836 21.2495 58.6175 22.1894 58.6175 23.2202V31.7702H59.8072V23.2202C59.8072 22.5229 60.0818 21.8558 60.5394 21.3707C60.997 20.916 61.6681 20.6431 62.3393 20.6431C63.0104 20.6431 63.6816 20.916 64.1392 21.3707C64.5968 21.8255 64.8714 22.5229 64.8714 23.2202V41.2298C64.8714 41.5633 64.8103 41.9271 64.6883 42.2C64.5663 42.5335 64.3832 42.8367 64.1392 43.0489L57.3362 49.9617C56.36 50.9925 55.6583 52.084 55.2007 53.2362C54.8346 54.1761 54.6211 55.0856 54.5296 56.0558L54.4991 56.541H43.7912V49.9314C43.7912 49.2037 43.9438 48.4761 44.2183 47.7484C44.4929 47.0511 44.8895 46.4144 45.4386 45.8686L54.6821 36.4697C55.1397 36.0149 55.8109 35.742 56.482 35.742C57.1532 35.742 57.8243 36.0149 58.2819 36.4697C58.7395 36.9245 59.0141 37.6218 59.0141 38.3191C59.0141 39.0165 58.7395 39.6835 58.2819 40.1383L51.4789 47.0511C51.1738 47.3846 50.7467 47.5968 50.3197 47.7181L50.1976 47.7484V48.9612L50.3807 48.9308C51.0823 48.7792 51.7535 48.4154 52.3026 47.9L59.0751 40.9266C59.7767 40.2596 60.1428 39.3197 60.1428 38.2888C60.1428 37.2883 59.7462 36.3484 59.0446 35.6207C58.3734 34.9234 57.4582 34.5292 56.4515 34.5292C55.4753 34.5292 54.5601 34.9234 53.8584 35.6511L44.6759 44.9894C44.0048 45.717 43.5472 46.4447 43.2116 47.2633C42.8455 48.1122 42.6625 49.0218 42.6625 49.9314V56.6925H40.2524V65H41.3812V57.8144H56.8786V65H58.0073V56.6622H55.5668C55.6278 55.6314 55.8414 54.6612 56.2074 53.7516C56.604 52.7207 57.2447 51.7202 58.0989 50.841L64.9019 43.9282C65.2069 43.5644 65.5425 43.1702 65.695 42.6851L65.5425 42.6245H65.695C65.8781 42.1697 65.9696 41.7149 65.9696 41.1995V23.2202C66.0001 22.2197 65.6035 21.2798 64.9019 20.5521Z" fill="black"/>
<path d="M15.2808 65.3556H31.9069V57.7455H15.2808V65.3556Z" fill="#FFD703"/>
<path d="M8.06938 20.4915C8.74052 19.7942 9.65572 19.4 10.6624 19.4C11.6387 19.4 12.5539 19.7942 13.286 20.5218C13.9877 21.1889 14.3538 22.1287 14.3538 23.1596V31.7096H13.164V23.1596C13.164 22.4623 12.8894 21.7952 12.4318 21.3101C11.9742 20.8553 11.3031 20.5825 10.6319 20.5825C9.96079 20.5825 9.28964 20.8553 8.83204 21.3101C8.37444 21.7649 8.09988 22.4623 8.09988 23.1596V41.1692C8.09988 41.5027 8.1609 41.8665 8.28292 42.1394C8.40495 42.4729 8.58799 42.7761 8.83204 42.9883L15.635 49.9011C16.6113 50.9319 17.3129 52.0234 17.7705 53.1756C18.1366 54.1155 18.3501 55.025 18.4417 55.9952L18.4722 56.4803H29.241V49.8708C29.241 49.1431 29.0885 48.4155 28.8139 47.6878C28.5394 46.9905 28.1428 46.3538 27.5937 45.808L18.3501 36.4091C17.8925 35.9543 17.2214 35.6814 16.5502 35.6814C15.8791 35.6814 15.2079 35.9543 14.7503 36.4091C14.2927 36.8639 14.0182 37.5612 14.0182 38.2585C14.0182 38.9559 14.2927 39.6229 14.7503 40.0777L21.5533 46.9905C21.8584 47.324 22.2855 47.5362 22.7126 47.6575L22.8346 47.6878V48.9006L22.6516 48.8702C21.9499 48.7186 21.2788 48.3548 20.7297 47.8394L13.9572 40.866C13.2555 40.199 12.8894 39.2591 12.8894 38.2282C12.8894 37.2277 13.286 36.2878 13.9877 35.5601C14.6588 34.8628 15.574 34.4686 16.5808 34.4686C17.557 34.4686 18.4722 34.8628 19.1738 35.5905L28.3563 44.9287C29.0275 45.6564 29.4851 46.3841 29.8207 47.2027C30.1867 48.0516 30.3698 48.9612 30.3698 49.8708V56.6319H32.6883V64.9394H31.5595V57.7537H16.0926V64.9394H14.9639V56.6016H17.4044C17.3434 55.5708 17.1299 54.6006 16.7638 53.691C16.3672 52.6601 15.7266 51.6596 14.8724 50.7803L8.06938 43.8676C7.76431 43.5037 7.42873 43.1096 7.2762 42.6245L7.42873 42.5639H7.2762C7.09316 42.1091 7.00164 41.6543 7.00164 41.1389V23.1293C6.97113 22.1591 7.36772 21.2192 8.06938 20.4915Z" fill="black"/>
</g>
<defs>
<clipPath id="clip0">
<rect width="59" height="57" fill="white" transform="translate(7 8)"/>
</clipPath>
</defs>
</svg>
