<svg width="70" height="70" viewBox="0 0 70 70" fill="none" xmlns="http://www.w3.org/2000/svg">
<g clip-path="url(#clip0)">
<path fill-rule="evenodd" clip-rule="evenodd" d="M30.6905 36.7836C30.4046 35.7166 31.0378 34.62 32.1047 34.3341L41.6771 31.7692C42.744 31.4833 43.8407 32.1165 44.1266 33.1834L48.4021 49.14C48.5451 49.6735 48.2285 50.2218 47.695 50.3648L45.7566 50.8842C44.8903 51.1163 44.3762 52.0067 44.6083 52.873C44.8404 53.7393 45.7308 54.2534 46.5971 54.0212L48.5356 53.5018C49.0691 53.3589 49.6174 53.6755 49.7603 54.2089L50.3942 56.5745C50.5371 57.108 50.2205 57.6563 49.6871 57.7992L47.9718 58.2589C47.1055 58.491 46.5914 59.3814 46.8235 60.2477C47.0556 61.114 47.946 61.6281 48.8123 61.3959L50.5277 60.9363C51.0611 60.7934 51.6095 61.11 51.7524 61.6434L52.261 63.5415C52.5469 64.6084 51.9137 65.7051 50.8468 65.991L41.2744 68.5559C40.2075 68.8418 39.1108 68.2086 38.8249 67.1417L30.6905 36.7836Z" fill="#FEDD15"/>
<path fill-rule="evenodd" clip-rule="evenodd" d="M28.4243 0.553514C24.7312 -0.436035 21.067 2.23472 20.8786 6.0534L19.8533 26.836C19.714 29.6586 21.5633 32.1958 24.2931 32.9272L27.089 33.6764C27.6224 33.8193 27.939 34.3677 27.7961 34.9011L20.3833 62.5658C20.0975 63.6327 20.7306 64.7294 21.7976 65.0153L31.4048 67.5895C32.4717 67.8754 33.5684 67.2422 33.8543 66.1753L34.803 62.6345C34.946 62.101 34.6294 61.5526 34.0959 61.4097L30.3269 60.3998C29.4606 60.1677 28.9465 59.2772 29.1786 58.411C29.4107 57.5447 30.3012 57.0306 31.1675 57.2627L34.9365 58.2726C35.47 58.4156 36.0183 58.099 36.1612 57.5655L36.8392 55.0352C36.9822 54.5018 36.6656 53.9534 36.1321 53.8105L32.6053 52.8655C31.7391 52.6334 31.225 51.7429 31.4571 50.8767C31.6892 50.0104 32.5796 49.4963 33.4459 49.7284L36.9727 50.6734C37.5062 50.8164 38.0545 50.4998 38.1974 49.9663L41.267 38.5106C41.4099 37.9772 41.9583 37.6606 42.4917 37.8035L44.5526 38.3558C47.2824 39.0872 50.1525 37.8146 51.4432 35.3005L60.9465 16.7896C62.6927 13.3883 60.8548 9.24326 57.1618 8.25371L28.4243 0.553514Z" fill="white"/>
<path d="M20.8786 6.0534L20.3792 6.02876L20.8786 6.0534ZM19.8533 26.836L20.3527 26.8606L19.8533 26.836ZM30.3269 60.3998L30.1975 60.8828L30.3269 60.3998ZM32.6053 52.8655L32.7348 52.3825L32.6053 52.8655ZM44.5526 38.3558L44.4232 38.8387L44.5526 38.3558ZM51.4432 35.3005L51.888 35.5289L51.4432 35.3005ZM60.9465 16.7896L60.5017 16.5612L60.5017 16.5612L60.9465 16.7896ZM41.267 38.5106L40.784 38.3812L41.267 38.5106ZM42.4917 37.8035L42.6211 37.3206L42.4917 37.8035ZM38.1974 49.9663L38.6804 50.0957L38.1974 49.9663ZM36.1612 57.5655L35.6783 57.4361L36.1612 57.5655ZM36.8392 55.0352L37.3222 55.1646L36.8392 55.0352ZM36.1321 53.8105L36.2615 53.3275L36.1321 53.8105ZM34.0959 61.4097L33.9665 61.8927L34.0959 61.4097ZM21.378 6.07804C21.5507 2.57758 24.9096 0.12939 28.2949 1.03648L28.5537 0.0705515C24.5529 -1.00146 20.5833 1.89186 20.3792 6.02876L21.378 6.07804ZM20.3527 26.8606L21.378 6.07804L20.3792 6.02876L19.3539 26.8114L20.3527 26.8606ZM24.4225 32.4443C21.9202 31.7738 20.225 29.4481 20.3527 26.8606L19.3539 26.8114C19.203 29.8692 21.2064 32.6178 24.1637 33.4102L24.4225 32.4443ZM27.2184 33.1934L24.4225 32.4443L24.1637 33.4102L26.9595 34.1593L27.2184 33.1934ZM20.8663 62.6952L28.279 35.0305L27.3131 34.7717L19.9004 62.4364L20.8663 62.6952ZM21.927 64.5323C21.1268 64.3179 20.6519 63.4954 20.8663 62.6952L19.9004 62.4364C19.543 63.77 20.3345 65.1409 21.6681 65.4982L21.927 64.5323ZM31.5342 67.1065L21.927 64.5323L21.6681 65.4982L31.2754 68.0725L31.5342 67.1065ZM33.3713 66.0459C33.1569 66.8461 32.3344 67.321 31.5342 67.1065L31.2754 68.0725C32.609 68.4298 33.9799 67.6384 34.3372 66.3047L33.3713 66.0459ZM34.3201 62.505L33.3713 66.0459L34.3372 66.3047L35.286 62.7639L34.3201 62.505ZM30.1975 60.8828L33.9665 61.8927L34.2253 60.9267L30.4563 59.9168L30.1975 60.8828ZM28.6957 58.2816C28.3921 59.4146 29.0645 60.5792 30.1975 60.8828L30.4563 59.9168C29.8567 59.7562 29.5009 59.1399 29.6616 58.5404L28.6957 58.2816ZM31.2969 56.7798C30.1638 56.4762 28.9993 57.1485 28.6957 58.2816L29.6616 58.5404C29.8222 57.9408 30.4385 57.585 31.038 57.7457L31.2969 56.7798ZM35.0659 57.7897L31.2969 56.7798L31.038 57.7457L34.8071 58.7556L35.0659 57.7897ZM36.3563 54.9058L35.6783 57.4361L36.6442 57.6949L37.3222 55.1646L36.3563 54.9058ZM32.4759 53.3485L36.0027 54.2935L36.2615 53.3275L32.7348 52.3825L32.4759 53.3485ZM30.9741 50.7473C30.6705 51.8803 31.3429 53.0449 32.4759 53.3485L32.7348 52.3825C32.1352 52.2219 31.7794 51.6056 31.9401 51.0061L30.9741 50.7473ZM33.5753 49.2455C32.4423 48.9419 31.2777 49.6142 30.9741 50.7473L31.9401 51.0061C32.1007 50.4065 32.717 50.0507 33.3165 50.2114L33.5753 49.2455ZM37.1021 50.1904L33.5753 49.2455L33.3165 50.2114L36.8433 51.1564L37.1021 50.1904ZM40.784 38.3812L37.7145 49.8369L38.6804 50.0957L41.7499 38.6401L40.784 38.3812ZM44.682 37.8728L42.6211 37.3206L42.3623 38.2865L44.4232 38.8387L44.682 37.8728ZM50.9984 35.0721C49.8153 37.3767 47.1843 38.5433 44.682 37.8728L44.4232 38.8387C47.3805 39.6311 50.4897 38.2525 51.888 35.5289L50.9984 35.0721ZM60.5017 16.5612L50.9984 35.0721L51.888 35.5289L61.3913 17.0179L60.5017 16.5612ZM57.0324 8.73667C60.4177 9.64376 62.1024 13.4434 60.5017 16.5612L61.3913 17.0179C63.283 13.3332 61.292 8.84276 57.2912 7.77074L57.0324 8.73667ZM28.2949 1.03648L57.0324 8.73667L57.2912 7.77074L28.5537 0.0705515L28.2949 1.03648ZM41.7499 38.6401C41.8214 38.3733 42.0956 38.215 42.3623 38.2865L42.6211 37.3206C41.8209 37.1062 40.9984 37.581 40.784 38.3812L41.7499 38.6401ZM36.8433 51.1564C37.6435 51.3708 38.466 50.8959 38.6804 50.0957L37.7145 49.8369C37.643 50.1036 37.3688 50.2619 37.1021 50.1904L36.8433 51.1564ZM34.8071 58.7556C35.6073 58.97 36.4298 58.4951 36.6442 57.6949L35.6783 57.4361C35.6068 57.7028 35.3326 57.8611 35.0659 57.7897L34.8071 58.7556ZM37.3222 55.1646C37.5366 54.3644 37.0617 53.5419 36.2615 53.3275L36.0027 54.2935C36.2694 54.3649 36.4277 54.6391 36.3563 54.9058L37.3222 55.1646ZM35.286 62.7639C35.5004 61.9637 35.0255 61.1412 34.2253 60.9267L33.9665 61.8927C34.2332 61.9641 34.3915 62.2383 34.3201 62.505L35.286 62.7639ZM26.9595 34.1593C27.2263 34.2308 27.3846 34.505 27.3131 34.7717L28.279 35.0305C28.4934 34.2303 28.0186 33.4078 27.2184 33.1934L26.9595 34.1593Z" fill="black"/>
<path d="M43.4106 23.6388C42.5101 23.3964 41.6794 22.9452 40.9858 22.3218C40.2922 21.6985 39.7552 20.9205 39.4184 20.0509C39.0816 19.1813 38.9544 18.2445 39.0471 17.3166C39.1398 16.3887 39.4498 15.4956 39.952 14.7098C40.4542 13.9241 41.1345 13.2677 41.9377 12.7938C42.7409 12.32 43.6445 12.0421 44.5751 11.9826C45.5058 11.9231 46.4374 12.0837 47.2944 12.4513C48.1514 12.819 48.9097 13.3834 49.5079 14.0988C50.2622 14.9984 50.7328 16.1014 50.8601 17.2685C50.9874 18.4355 50.7658 19.614 50.2232 20.6551C49.6806 21.6961 48.8415 22.5529 47.812 23.1169C46.7824 23.681 45.6087 23.9271 44.4393 23.824C44.0917 23.7923 43.7474 23.7304 43.4106 23.6388Z" fill="white"/>
<circle cx="39.7119" cy="15.9437" r="6" fill="#FEDD15" stroke="black"/>
<circle cx="39.7119" cy="15.9437" r="6" stroke="black"/>
</g>
<defs>
<clipPath id="clip0">
<rect width="70" height="70" fill="white"/>
</clipPath>
</defs>
</svg>
