<svg width="70" height="70" viewBox="0 0 70 70" fill="none" xmlns="http://www.w3.org/2000/svg">
<path d="M19.5126 54.2266C18.9681 54.2266 18.4357 54.0651 17.9829 53.7626C17.5302 53.4601 17.1773 53.0301 16.9689 52.527C16.7605 52.0238 16.7059 51.4702 16.8122 50.9362C16.9184 50.4021 17.1807 49.9115 17.5657 49.5264C17.9508 49.1413 18.4414 48.8791 18.9755 48.7729C19.5096 48.6666 20.0632 48.7212 20.5663 48.9296C21.0694 49.138 21.4994 49.4908 21.8019 49.9436C22.1045 50.3964 22.2659 50.9287 22.2659 51.4733C22.2652 52.2033 21.9749 52.9032 21.4587 53.4194C20.9425 53.9356 20.2426 54.2259 19.5126 54.2266ZM19.5126 49.6533C19.1527 49.6533 18.8008 49.76 18.5015 49.96C18.2022 50.16 17.9689 50.4443 17.8312 50.7768C17.6934 51.1094 17.6574 51.4753 17.7276 51.8284C17.7978 52.1814 17.9711 52.5057 18.2257 52.7602C18.4802 53.0148 18.8045 53.1881 19.1575 53.2583C19.5106 53.3286 19.8765 53.2925 20.2091 53.1548C20.5417 53.017 20.8259 52.7837 21.0259 52.4844C21.2259 52.1851 21.3326 51.8333 21.3326 51.4733C21.332 50.9908 21.14 50.5282 20.7989 50.1871C20.4577 49.8459 19.9951 49.6539 19.5126 49.6533Z" fill="white"/>
<path d="M11.3583 54.2266C10.8138 54.2266 10.2814 54.0651 9.82865 53.7626C9.37586 53.4601 9.02296 53.0301 8.81457 52.527C8.60617 52.0238 8.55165 51.4702 8.65789 50.9362C8.76412 50.4021 9.02635 49.9115 9.41141 49.5264C9.79648 49.1413 10.2871 48.8791 10.8212 48.7729C11.3553 48.6666 11.9089 48.7212 12.412 48.9296C12.9151 49.138 13.3451 49.4908 13.6476 49.9436C13.9502 50.3964 14.1116 50.9287 14.1116 51.4733C14.1108 52.2033 13.8204 52.9031 13.3043 53.4192C12.7881 53.9354 12.0883 54.2258 11.3583 54.2266ZM11.3583 49.6533C10.9984 49.6533 10.6465 49.76 10.3472 49.96C10.0479 50.16 9.81461 50.4443 9.67685 50.7768C9.5391 51.1094 9.50306 51.4753 9.57329 51.8284C9.64351 52.1814 9.81685 52.5057 10.0714 52.7602C10.3259 53.0148 10.6502 53.1881 11.0033 53.2583C11.3563 53.3286 11.7222 53.2925 12.0548 53.1548C12.3874 53.017 12.6716 52.7837 12.8716 52.4844C13.0716 52.1851 13.1783 51.8333 13.1783 51.4733C13.1777 50.9908 12.9857 50.5282 12.6446 50.1871C12.3034 49.8459 11.8408 49.6539 11.3583 49.6533Z" fill="white"/>
<path d="M32.3761 56.8669C32.2827 56.8669 32.1857 56.8669 32.0933 56.8623L32.1432 55.9289C32.2197 55.9331 32.3051 55.9345 32.3765 55.9327C35.9861 55.9292 39.5448 55.0811 42.7681 53.4562C45.9913 51.8314 48.7896 49.4749 50.9392 46.5752C53.0888 43.6755 54.5301 40.313 55.1478 36.7566C55.7655 33.2003 55.5425 29.5487 54.4965 26.094L55.3897 25.8242C56.4779 29.4184 56.71 33.2173 56.0674 36.9172C55.4247 40.6171 53.9252 44.1153 51.6888 47.132C49.4523 50.1486 46.541 52.6001 43.1876 54.2903C39.8342 55.9806 36.1318 56.8626 32.3765 56.866L32.3761 56.8669Z" fill="black"/>
<path d="M10.8734 43.5958C9.1908 40.2539 8.31901 36.5626 8.32869 32.821C8.33124 29.0676 9.21194 25.3669 10.9004 22.0148C12.5888 18.6626 15.0381 15.752 18.0525 13.5156C21.0669 11.2793 24.5627 9.77922 28.2604 9.1354C31.9581 8.49157 35.7552 8.72184 39.348 9.80779L39.0764 10.701C34.7518 9.39258 30.1385 9.3801 25.8068 10.6651C21.4751 11.9501 17.6148 14.4762 14.7032 17.9313C11.7916 21.3863 9.95624 25.6188 9.42397 30.1056C8.8917 34.5924 9.68586 39.1369 11.7083 43.1772L11.7578 43.2762V43.3868L11.2869 43.3891L10.8734 43.5958Z" fill="black"/>
<path d="M32.3764 56.8669C32.2736 56.8685 32.1707 56.8646 32.0684 56.8553L32.1687 55.9275C32.2378 55.9333 32.3071 55.9353 32.3764 55.9336C36.7551 55.9336 40.7694 51.2151 42.853 43.6197C43.7842 40.0961 44.2484 36.4655 44.2339 32.821C44.2342 31.043 44.1287 29.2665 43.9179 27.501L44.8471 27.3932C45.0616 29.1953 45.1691 31.0085 45.1691 32.8233C45.1824 36.5505 44.7066 40.2633 43.7537 43.8665C41.5534 51.8857 37.1938 56.8669 32.3764 56.8669Z" fill="black"/>
<path d="M20.4869 41.7426C19.8803 38.8078 19.5785 35.8182 19.5862 32.8213C19.5721 29.0935 20.0475 25.3799 21.0002 21.7758C23.1996 13.7589 27.5592 8.77911 32.3776 8.77911C34.3936 8.77911 36.3956 9.67045 38.167 11.356L37.5202 12.0322C35.9028 10.4922 34.1719 9.71245 32.3743 9.71245C27.9946 9.71245 23.9804 14.4295 21.8976 22.0222C20.9663 25.5459 20.5019 29.1766 20.5163 32.8213C20.5087 35.7538 20.8038 38.6793 21.3969 41.5512L20.4869 41.7426Z" fill="black"/>
<path d="M32.3765 45.6118C31.7264 45.6118 31.0745 45.5974 30.4375 45.5689L30.4795 44.6356C31.102 44.6636 31.7395 44.6776 32.3765 44.6776C36.0229 44.6932 39.6554 44.2273 43.1798 43.292C50.7697 41.2135 55.4849 37.203 55.4849 32.8247C55.4849 30.678 54.3304 28.5654 52.1464 26.7114L52.4436 26.3511L52.7736 26.0212C55.1498 28.0344 56.4182 30.3924 56.4182 32.8182C56.4206 37.643 51.4403 41.9998 43.4267 44.1932C39.8217 45.15 36.1063 45.627 32.3765 45.6118Z" fill="black"/>
<path d="M16.1147 42.2637C11.1704 39.8617 8.33398 36.4215 8.33398 32.8258C8.33912 28 13.3175 23.6418 21.3269 21.4485C26.6284 20.0712 32.1397 19.6915 37.58 20.3285L37.4727 21.2553C32.151 20.6322 26.7599 21.0031 21.5738 22.3491C13.9881 24.4263 9.27292 28.4391 9.26825 32.8216C9.26825 36.05 11.9124 39.1846 16.5235 41.4246L16.1147 42.2637Z" fill="black"/>
<path d="M31.9092 56.0537H32.8425V56.4005H31.9092V56.0537Z" fill="black"/>
<path d="M31.9092 9.24603H32.8425V47.1109H31.9092V9.24603Z" fill="black"/>
<path d="M8.79834 32.3544H55.9578V33.2877H8.79834V32.3544Z" fill="black"/>
<path d="M30.294 64.0058C28.194 64.0058 25.484 63.562 23.4601 61.6683C21.3792 62.0666 19.25 62.1482 17.1447 61.9105C14.6283 61.6516 12.1934 60.8712 9.99537 59.6191C7.74324 58.2971 6.11317 56.5545 5.28204 54.5791C4.87906 53.6323 4.66977 52.6144 4.6665 51.5855C4.6665 45.8193 11.3263 41.1279 19.5116 41.1279C27.697 41.1279 34.3596 45.8193 34.3596 51.5855C34.3596 54.7719 32.2801 57.7973 28.7656 59.7717C30.1339 61.1054 31.7732 62.1288 33.5723 62.7724C33.6642 62.8087 33.7422 62.8731 33.7951 62.9566C33.848 63.04 33.8731 63.1381 33.8667 63.2366C33.8603 63.3352 33.8228 63.4293 33.7596 63.5052C33.6964 63.5811 33.6107 63.635 33.5149 63.6591C32.4573 63.8928 31.3771 64.0091 30.294 64.0058Z" fill="#FEDD15"/>
<path d="M27.6684 54.2266C27.1238 54.2266 26.5915 54.0652 26.1387 53.7626C25.6859 53.4601 25.333 53.0301 25.1246 52.527C24.9162 52.0238 24.8617 51.4702 24.9679 50.9362C25.0742 50.4021 25.3364 49.9115 25.7215 49.5264C26.1065 49.1413 26.5971 48.8791 27.1312 48.7729C27.6653 48.6666 28.2189 48.7212 28.722 48.9296C29.2251 49.138 29.6551 49.4908 29.9577 49.9436C30.2602 50.3964 30.4217 50.9287 30.4217 51.4733C30.421 52.2033 30.1306 52.9032 29.6145 53.4194C29.0983 53.9356 28.3984 54.2259 27.6684 54.2266Z" fill="white"/>
<path d="M27.6684 54.2266C27.1238 54.2266 26.5915 54.0651 26.1387 53.7626C25.6859 53.4601 25.333 53.0301 25.1246 52.527C24.9162 52.0238 24.8617 51.4702 24.9679 50.9362C25.0742 50.4021 25.3364 49.9115 25.7215 49.5264C26.1065 49.1413 26.5971 48.8791 27.1312 48.7729C27.6653 48.6666 28.2189 48.7212 28.722 48.9296C29.2251 49.138 29.6551 49.4908 29.9577 49.9436C30.2602 50.3964 30.4217 50.9287 30.4217 51.4733C30.421 52.2033 30.1306 52.9032 29.6145 53.4194C29.0983 53.9356 28.3984 54.2259 27.6684 54.2266ZM27.6684 49.6533C27.3084 49.6533 26.9565 49.76 26.6572 49.96C26.3579 50.16 26.1247 50.4443 25.9869 50.7768C25.8492 51.1094 25.8131 51.4753 25.8833 51.8284C25.9536 52.1814 26.1269 52.5057 26.3814 52.7602C26.636 53.0148 26.9603 53.1881 27.3133 53.2583C27.6664 53.3286 28.0323 53.2925 28.3649 53.1548C28.6974 53.017 28.9817 52.7837 29.1816 52.4844C29.3816 52.1851 29.4884 51.8333 29.4884 51.4733C29.4884 50.9906 29.2966 50.5277 28.9553 50.1864C28.614 49.8451 28.1511 49.6533 27.6684 49.6533Z" fill="white"/>
<path d="M19.5126 54.2266C18.9681 54.2266 18.4357 54.0652 17.9829 53.7626C17.5302 53.4601 17.1773 53.0301 16.9689 52.527C16.7605 52.0238 16.7059 51.4702 16.8122 50.9362C16.9184 50.4021 17.1807 49.9115 17.5657 49.5264C17.9508 49.1413 18.4414 48.8791 18.9755 48.7729C19.5096 48.6666 20.0632 48.7212 20.5663 48.9296C21.0694 49.138 21.4994 49.4908 21.8019 49.9436C22.1045 50.3964 22.2659 50.9287 22.2659 51.4733C22.2652 52.2033 21.9749 52.9032 21.4587 53.4194C20.9425 53.9356 20.2426 54.2259 19.5126 54.2266Z" fill="white"/>
<path d="M11.3583 54.2266C10.8138 54.2266 10.2814 54.0652 9.82865 53.7626C9.37586 53.4601 9.02296 53.0301 8.81457 52.527C8.60617 52.0238 8.55165 51.4702 8.65789 50.9362C8.76412 50.4021 9.02635 49.9115 9.41141 49.5264C9.79648 49.1413 10.2871 48.8791 10.8212 48.7729C11.3553 48.6666 11.9089 48.7212 12.412 48.9296C12.9151 49.138 13.3451 49.4908 13.6476 49.9436C13.9502 50.3964 14.1116 50.9287 14.1116 51.4733C14.1108 52.2033 13.8204 52.9031 13.3043 53.4192C12.7881 53.9354 12.0883 54.2258 11.3583 54.2266Z" fill="white"/>
<path d="M39.7052 28.8806C38.6217 28.8848 37.541 28.769 36.4829 28.5352C36.3871 28.5111 36.3014 28.4572 36.2382 28.3813C36.175 28.3054 36.1375 28.2114 36.1311 28.1128C36.1247 28.0142 36.1498 27.9162 36.2027 27.8327C36.2556 27.7493 36.3336 27.6848 36.4255 27.6486C38.2245 27.0049 39.8639 25.9815 41.2322 24.6479C37.7191 22.672 35.6396 19.6466 35.6396 16.4598C35.6396 10.6936 42.3008 6.00223 50.4876 6.00223C58.6743 6.00223 65.3327 10.6936 65.3327 16.4598C65.3302 17.4891 65.1214 18.5075 64.7186 19.4548C63.886 21.4293 62.256 23.1714 60.0052 24.4948C57.8073 25.7473 55.3724 26.5277 52.8559 26.7862C50.7506 27.0236 48.6215 26.9422 46.5405 26.5444C44.5156 28.4363 41.8038 28.8801 39.7052 28.8806Z" fill="#FEDD15"/>
<path d="M42.3319 19.1013C41.7874 19.1013 41.2551 18.9399 40.8023 18.6373C40.3495 18.3348 39.9966 17.9048 39.7882 17.4017C39.5798 16.8985 39.5253 16.3449 39.6315 15.8108C39.7378 15.2768 40 14.7862 40.385 14.4011C40.7701 14.016 41.2607 13.7538 41.7948 13.6476C42.3289 13.5413 42.8825 13.5959 43.3856 13.8043C43.8887 14.0126 44.3187 14.3655 44.6213 14.8183C44.9238 15.2711 45.0853 15.8034 45.0853 16.348C45.0844 17.078 44.7941 17.7778 44.2779 18.2939C43.7617 18.8101 43.0619 19.1005 42.3319 19.1013Z" fill="white"/>
<path d="M42.3319 19.1013C41.7874 19.1013 41.2551 18.9399 40.8023 18.6373C40.3495 18.3348 39.9966 17.9048 39.7882 17.4017C39.5798 16.8985 39.5253 16.3449 39.6315 15.8108C39.7378 15.2768 40 14.7862 40.385 14.4011C40.7701 14.016 41.2607 13.7538 41.7948 13.6476C42.3289 13.5413 42.8825 13.5959 43.3856 13.8043C43.8887 14.0126 44.3187 14.3655 44.6213 14.8183C44.9238 15.2711 45.0853 15.8034 45.0853 16.348C45.0844 17.078 44.7941 17.7778 44.2779 18.2939C43.7617 18.8101 43.0619 19.1005 42.3319 19.1013ZM42.3319 14.528C41.972 14.528 41.6201 14.6347 41.3208 14.8347C41.0215 15.0347 40.7882 15.319 40.6505 15.6515C40.5127 15.9841 40.4767 16.35 40.5469 16.7031C40.6171 17.0561 40.7905 17.3804 41.045 17.6349C41.2995 17.8895 41.6238 18.0628 41.9769 18.133C42.3299 18.2033 42.6959 18.1672 43.0284 18.0295C43.361 17.8917 43.6452 17.6584 43.8452 17.3591C44.0452 17.0598 44.1519 16.708 44.1519 16.348C44.1515 15.8654 43.9596 15.4027 43.6184 15.0614C43.2772 14.7202 42.8145 14.5281 42.3319 14.5275V14.528Z" fill="white"/>
<path d="M50.4872 19.1013C49.9427 19.1013 49.4103 18.9399 48.9575 18.6373C48.5048 18.3348 48.1519 17.9048 47.9435 17.4017C47.7351 16.8985 47.6806 16.3449 47.7868 15.8108C47.893 15.2768 48.1553 14.7862 48.5403 14.4011C48.9254 14.016 49.416 13.7538 49.9501 13.6476C50.4842 13.5413 51.0378 13.5959 51.5409 13.8043C52.044 14.0126 52.474 14.3655 52.7765 14.8183C53.0791 15.2711 53.2406 15.8034 53.2406 16.348C53.2397 17.078 52.9493 17.7778 52.4332 18.2939C51.917 18.8101 51.2172 19.1005 50.4872 19.1013Z" fill="white"/>
<path d="M50.4872 19.1013C49.9427 19.1013 49.4103 18.9399 48.9575 18.6373C48.5048 18.3348 48.1519 17.9048 47.9435 17.4017C47.7351 16.8985 47.6806 16.3449 47.7868 15.8108C47.893 15.2768 48.1553 14.7862 48.5403 14.4011C48.9254 14.016 49.416 13.7538 49.9501 13.6476C50.4842 13.5413 51.0378 13.5959 51.5409 13.8043C52.044 14.0126 52.474 14.3655 52.7765 14.8183C53.0791 15.2711 53.2406 15.8034 53.2406 16.348C53.2397 17.078 52.9493 17.7778 52.4332 18.2939C51.917 18.8101 51.2172 19.1005 50.4872 19.1013ZM50.4872 14.528C50.1273 14.528 49.7754 14.6347 49.4761 14.8347C49.1768 15.0347 48.9435 15.319 48.8058 15.6515C48.668 15.9841 48.632 16.35 48.7022 16.7031C48.7724 17.0561 48.9458 17.3804 49.2003 17.6349C49.4548 17.8895 49.7791 18.0628 50.1322 18.133C50.4852 18.2033 50.8511 18.1672 51.1837 18.0295C51.5163 17.8917 51.8005 17.6584 52.0005 17.3591C52.2005 17.0598 52.3072 16.708 52.3072 16.348C52.3067 15.8654 52.1148 15.4027 51.7736 15.0614C51.4324 14.7202 50.9698 14.5281 50.4872 14.5275V14.528Z" fill="white"/>
<path d="M58.642 19.1013C58.0975 19.1013 57.5651 18.9399 57.1123 18.6373C56.6596 18.3348 56.3067 17.9048 56.0983 17.4017C55.8899 16.8985 55.8353 16.3449 55.9416 15.8108C56.0478 15.2768 56.31 14.7862 56.6951 14.4011C57.0802 14.016 57.5708 13.7538 58.1049 13.6476C58.639 13.5413 59.1926 13.5959 59.6957 13.8043C60.1988 14.0126 60.6288 14.3655 60.9313 14.8183C61.2339 15.2711 61.3954 15.8034 61.3954 16.348C61.3945 17.078 61.1041 17.7778 60.588 18.2939C60.0718 18.8101 59.372 19.1005 58.642 19.1013Z" fill="white"/>
<path d="M58.642 19.1013C58.0975 19.1013 57.5651 18.9399 57.1123 18.6373C56.6596 18.3348 56.3067 17.9048 56.0983 17.4017C55.8899 16.8985 55.8353 16.3449 55.9416 15.8108C56.0478 15.2768 56.31 14.7862 56.6951 14.4011C57.0802 14.016 57.5708 13.7538 58.1049 13.6476C58.639 13.5413 59.1926 13.5959 59.6957 13.8043C60.1988 14.0126 60.6288 14.3655 60.9313 14.8183C61.2339 15.2711 61.3954 15.8034 61.3954 16.348C61.3945 17.078 61.1041 17.7778 60.588 18.2939C60.0718 18.8101 59.372 19.1005 58.642 19.1013ZM58.642 14.528C58.2821 14.528 57.9302 14.6347 57.6309 14.8347C57.3316 15.0347 57.0983 15.319 56.9605 15.6515C56.8228 15.9841 56.7868 16.35 56.857 16.7031C56.9272 17.0561 57.1005 17.3804 57.3551 17.6349C57.6096 17.8895 57.9339 18.0628 58.2869 18.133C58.64 18.2033 59.0059 18.1672 59.3385 18.0295C59.6711 17.8917 59.9553 17.6584 60.1553 17.3591C60.3553 17.0598 60.462 16.708 60.462 16.348C60.4615 15.8654 60.2696 15.4027 59.9284 15.0614C59.5872 14.7202 59.1246 14.5281 58.642 14.5275V14.528Z" fill="white"/>
</svg>
