<svg width="70" height="70" viewBox="0 0 70 70" fill="none" xmlns="http://www.w3.org/2000/svg">
<path d="M8.99977 41.5C9.79977 41.9 20.6664 43 25.9998 43.5V17.5C20.6665 18.3333 9.6 20.1 8 20.5C6 21 5.49977 22 4.99977 30.5C4.49977 39 7.99977 41 8.99977 41.5Z" fill="#FEDD15"/>
<path d="M56 7C54.8 6.6 51.5 8.83334 50 10V51.5C51.5 52.3333 54.8 54 56 54C57.2 54 57.5 53.3333 57.5 53C57.5 39.7506 57.8579 14.3504 57 8C56.8759 7.08107 56.1517 7.05057 56 7Z" fill="#FEDD15"/>
<path d="M55.8188 54.7162C55.4864 54.7158 55.1591 54.6358 54.864 54.4829L54.5308 54.3144C42.4072 48.1688 29.2683 44.2762 15.7536 42.826L10.5269 42.2618C8.9158 42.0889 7.42568 41.3259 6.34363 40.1198C5.26158 38.9137 4.66418 37.3498 4.66651 35.7294V25.6667C4.66451 24.0467 5.26226 22.4833 6.34454 21.2779C7.42682 20.0725 8.91701 19.3104 10.5278 19.1385L15.2911 18.6252C29.1054 17.1412 42.524 13.1049 54.8644 6.72142C55.1819 6.55707 55.5363 6.47718 55.8935 6.48945C56.2507 6.50171 56.5988 6.60571 56.9042 6.79144C57.2096 6.97717 57.4621 7.23838 57.6373 7.54994C57.8126 7.86149 57.9047 8.2129 57.9048 8.57035V52.6302C57.9034 53.1831 57.6833 53.7131 57.2926 54.1042C56.9018 54.4954 56.3722 54.7161 55.8192 54.7181L55.8188 54.7162ZM15.8539 41.8978C29.4802 43.3598 42.7277 47.2842 54.9517 53.48L55.2891 53.6504C55.4647 53.7407 55.6605 53.7844 55.8578 53.7773C56.0551 53.7702 56.2473 53.7126 56.4159 53.6099C56.5845 53.5072 56.724 53.363 56.8208 53.1909C56.9177 53.0189 56.9688 52.8249 56.9691 52.6274V8.56849C56.9691 8.37128 56.9183 8.1774 56.8216 8.00551C56.725 7.83362 56.5857 7.6895 56.4172 7.58702C56.2487 7.48454 56.0567 7.42715 55.8596 7.42038C55.6625 7.41361 55.467 7.45768 55.2919 7.54835C42.8493 13.9851 29.3197 18.0557 15.391 19.5534L10.6282 20.0667C9.24634 20.2141 7.96799 20.8679 7.03953 21.9019C6.11107 22.9359 5.59822 24.277 5.59984 25.6667V35.7294C5.59782 37.1197 6.11048 38.4616 7.03902 39.4964C7.96755 40.5311 9.24624 41.1856 10.6286 41.3336L15.8539 41.8978Z" fill="black"/>
<path d="M49.9125 51.8649C49.7887 51.8649 49.67 51.8157 49.5825 51.7282C49.495 51.6407 49.4458 51.522 49.4458 51.3982V9.80004C49.4458 9.67627 49.495 9.55757 49.5825 9.47006C49.67 9.38254 49.7887 9.33337 49.9125 9.33337C50.0362 9.33337 50.1549 9.38254 50.2424 9.47006C50.33 9.55757 50.3791 9.67627 50.3791 9.80004V51.3968C50.3793 51.4582 50.3674 51.5191 50.344 51.5759C50.3206 51.6326 50.2863 51.6842 50.2429 51.7277C50.1996 51.7712 50.1481 51.8057 50.0914 51.8293C50.0347 51.8528 49.9739 51.8649 49.9125 51.8649Z" fill="black"/>
<path d="M57.4354 38.4971C57.3116 38.4971 57.193 38.4479 57.1054 38.3604C57.0179 38.2729 56.9688 38.1542 56.9688 38.0304C56.9688 37.9066 57.0179 37.7879 57.1054 37.7004C57.193 37.6129 57.3116 37.5637 57.4354 37.5637C58.3548 37.5713 59.2665 37.3967 60.1181 37.0501C60.9696 36.7035 61.7441 36.1917 62.3969 35.5442C63.0497 34.8968 63.5678 34.1265 63.9214 33.2778C64.2749 32.4291 64.457 31.5188 64.457 30.5994C64.457 29.68 64.2749 28.7698 63.9214 27.9211C63.5678 27.0724 63.0497 26.3021 62.3969 25.6547C61.7441 25.0072 60.9696 24.4954 60.1181 24.1488C59.2665 23.8022 58.3548 23.6276 57.4354 23.6351C57.3116 23.6351 57.193 23.586 57.1054 23.4985C57.0179 23.4109 56.9688 23.2922 56.9688 23.1685C56.9688 23.0447 57.0179 22.926 57.1054 22.8385C57.193 22.751 57.3116 22.7018 57.4354 22.7018C58.4777 22.6938 59.5112 22.8922 60.4764 23.2855C61.4416 23.6788 62.3194 24.2592 63.0593 24.9934C63.7991 25.7275 64.3863 26.6009 64.787 27.563C65.1877 28.5252 65.394 29.5572 65.394 30.5994C65.394 31.6417 65.1877 32.6737 64.787 33.6358C64.3863 34.598 63.7991 35.4713 63.0593 36.2055C62.3194 36.9397 61.4416 37.5201 60.4764 37.9134C59.5112 38.3067 58.4777 38.5051 57.4354 38.4971Z" fill="black"/>
<path d="M23.5754 63.5162H19.7081C19.103 63.5192 18.5152 63.314 18.0434 62.9351C17.5715 62.5561 17.2444 62.0264 17.1167 61.4349L12.8631 42.1923C12.8363 42.0715 12.8587 41.9449 12.9253 41.8406C12.9918 41.7362 13.0971 41.6626 13.218 41.6358C13.3388 41.6091 13.4654 41.6315 13.5697 41.698C13.6741 41.7646 13.7477 41.8699 13.7745 41.9907L18.0281 61.2337C18.1109 61.6172 18.323 61.9606 18.6289 62.2062C18.9348 62.4519 19.3158 62.5848 19.7081 62.5829H23.5754C24.0316 62.5824 24.4689 62.4009 24.7915 62.0784C25.1141 61.7558 25.2955 61.3184 25.296 60.8623V17.466C25.296 17.3422 25.3452 17.2235 25.4327 17.136C25.5202 17.0485 25.6389 16.9993 25.7627 16.9993C25.8864 16.9993 26.0051 17.0485 26.0927 17.136C26.1802 17.2235 26.2293 17.3422 26.2293 17.466V60.8623C26.2286 61.5659 25.9488 62.2405 25.4512 62.7381C24.9537 63.2356 24.279 63.5155 23.5754 63.5162Z" fill="black"/>
<path d="M22.3128 22.708H18.0834C17.9596 22.708 17.8409 22.6589 17.7534 22.5713C17.6659 22.4838 17.6167 22.3651 17.6167 22.2414C17.6167 22.1176 17.6659 21.9989 17.7534 21.9114C17.8409 21.8239 17.9596 21.7747 18.0834 21.7747H22.3128C22.4365 21.7747 22.5552 21.8239 22.6428 21.9114C22.7303 21.9989 22.7794 22.1176 22.7794 22.2414C22.7794 22.3651 22.7303 22.4838 22.6428 22.5713C22.5552 22.6589 22.4365 22.708 22.3128 22.708Z" fill="black"/>
<path d="M22.3128 26.887H18.0834C17.9596 26.887 17.8409 26.8378 17.7534 26.7503C17.6659 26.6628 17.6167 26.5441 17.6167 26.4203C17.6167 26.2966 17.6659 26.1779 17.7534 26.0904C17.8409 26.0028 17.9596 25.9537 18.0834 25.9537H22.3128C22.4365 25.9537 22.5552 26.0028 22.6428 26.0904C22.7303 26.1779 22.7794 26.2966 22.7794 26.4203C22.7794 26.5441 22.7303 26.6628 22.6428 26.7503C22.5552 26.8378 22.4365 26.887 22.3128 26.887Z" fill="black"/>
<path d="M22.3128 31.0665H18.0834C17.9596 31.0665 17.8409 31.0173 17.7534 30.9298C17.6659 30.8423 17.6167 30.7236 17.6167 30.5998C17.6167 30.476 17.6659 30.3573 17.7534 30.2698C17.8409 30.1823 17.9596 30.1331 18.0834 30.1331H22.3128C22.4365 30.1331 22.5552 30.1823 22.6428 30.2698C22.7303 30.3573 22.7794 30.476 22.7794 30.5998C22.7794 30.7236 22.7303 30.8423 22.6428 30.9298C22.5552 31.0173 22.4365 31.0665 22.3128 31.0665Z" fill="black"/>
<path d="M22.3128 35.2455H18.0834C17.9596 35.2455 17.8409 35.1963 17.7534 35.1088C17.6659 35.0213 17.6167 34.9026 17.6167 34.7788C17.6167 34.655 17.6659 34.5363 17.7534 34.4488C17.8409 34.3613 17.9596 34.3121 18.0834 34.3121H22.3128C22.4365 34.3121 22.5552 34.3613 22.6428 34.4488C22.7303 34.5363 22.7794 34.655 22.7794 34.7788C22.7794 34.9026 22.7303 35.0213 22.6428 35.1088C22.5552 35.1963 22.4365 35.2455 22.3128 35.2455Z" fill="black"/>
<path d="M22.3128 39.4245H18.0834C17.9596 39.4245 17.8409 39.3753 17.7534 39.2878C17.6659 39.2003 17.6167 39.0816 17.6167 38.9578C17.6167 38.8341 17.6659 38.7154 17.7534 38.6278C17.8409 38.5403 17.9596 38.4911 18.0834 38.4911H22.3128C22.4365 38.4911 22.5552 38.5403 22.6428 38.6278C22.7303 38.7154 22.7794 38.8341 22.7794 38.9578C22.7794 39.0816 22.7303 39.2003 22.6428 39.2878C22.5552 39.3753 22.4365 39.4245 22.3128 39.4245Z" fill="black"/>
<path d="M28.5648 51.088H25.7601C25.6364 51.088 25.5177 51.0388 25.4301 50.9513C25.3426 50.8638 25.2935 50.7451 25.2935 50.6213V47.0509C25.2935 46.9271 25.3426 46.8084 25.4301 46.7209C25.5177 46.6334 25.6364 46.5842 25.7601 46.5842H28.5648C28.6886 46.5842 28.8073 46.6334 28.8948 46.7209C28.9823 46.8084 29.0315 46.9271 29.0315 47.0509V50.6213C29.0315 50.7451 28.9823 50.8638 28.8948 50.9513C28.8073 51.0388 28.6886 51.088 28.5648 51.088ZM26.2268 50.1547H28.0981V47.5175H26.2268V50.1547Z" fill="black"/>
</svg>
