<svg width="70" height="70" viewBox="0 0 70 70" fill="none" xmlns="http://www.w3.org/2000/svg">
<path d="M25.6995 48.1134C25.6101 48.1135 25.5225 48.0878 25.4472 48.0395C19.5 47 17.9706 46 14.5 44C13.6225 43.7402 9.50263 39.8832 9 39.1185C7.60822 37.2781 3.64459 25.3045 4.94688 23.1623C5.0112 23.0565 5.11492 22.9806 5.23523 22.9513C6.21287 22.7069 7.23747 22.723 8.20696 22.9979C9.28599 23.3299 10.2499 23.9586 10.9887 24.8123C11.7275 25.6659 12.2113 26.7101 12.385 27.8256C12.4673 28.6177 12.4653 29.4163 12.379 30.2079C12.3435 30.6844 12.3104 31.1343 12.3132 31.5865C12.3314 33.3468 12.9142 35.0547 13.9759 36.4589C14.3504 37.0487 14.9185 37.4899 15.5826 37.7068C16.1137 37.8328 16.8221 37.5915 16.9742 37.0782C17.1142 36.6055 16.823 36.0016 16.5416 35.4173C16.1571 34.6193 15.6788 33.6263 16.4016 32.8012C16.8249 32.3977 17.3858 32.1703 17.9706 32.1651C19.7925 31.9274 21.6385 32.3623 23.1627 33.3883C24.8002 34.5955 25.5637 36.6517 25.02 38.3886C24.9412 38.6401 24.838 38.8833 24.74 39.1185C24.4899 39.5518 24.3796 40.0518 24.4241 40.5502C24.5947 40.969 24.8759 41.3337 25.2375 41.6053C25.3453 41.7052 25.4517 41.8051 25.5534 41.9068C26.0226 42.3638 26.3949 42.9107 26.6481 43.5147C26.9013 44.1188 27.0302 44.7677 27.0272 45.4227C26.999 46.3521 26.6564 47.2446 26.0556 47.9543C26.0112 48.005 25.9564 48.0454 25.8949 48.0729C25.8335 48.1003 25.7668 48.1142 25.6995 48.1134Z" fill="#FEDD15"/>
<path d="M40.7719 20.2248C40.3523 20.1862 39.9625 19.9909 39.6804 19.6778C39.2791 19.3758 38.9919 18.9468 38.8656 18.4608C38.8287 18.1515 38.8566 17.838 38.9473 17.54C38.9808 17.415 39.0055 17.2878 39.021 17.1592C39.0728 16.5451 38.5763 15.9151 37.5463 15.2879L37.4791 15.2473C36.606 14.7176 35.5191 14.0592 35.2723 12.9032C35.1913 12.4104 35.2159 11.906 35.3446 11.4234C35.6115 10.1599 36.0149 8.92907 36.5477 7.75264C36.5986 7.63982 36.6922 7.55186 36.808 7.5081C36.9238 7.46434 37.0522 7.46837 37.1651 7.51931C37.3907 7.62117 37.5002 7.91108 37.3984 8.13671C38.8656 9 37.8435 8.88924 40.5 10.5C41.4822 11.0987 44.1081 13.219 44 14.5C45.7914 16 44.5 17 45.6584 17.1266L45.7914 18.0506C45.0313 18.1601 44.2699 18.269 43.5071 18.3772C43.0604 18.3855 42.6293 18.5425 42.2821 18.8234C42.1788 18.9543 42.0886 19.0949 42.0128 19.2434C41.9225 19.4879 41.7715 19.7054 41.5742 19.8757C41.3768 20.0459 41.1395 20.1633 40.8844 20.2168C40.8471 20.2216 40.8095 20.2242 40.7719 20.2248Z" fill="#FEDD15"/>
<path d="M17.0859 18.9104C15.8376 18.8918 14.6158 18.5469 13.5421 17.9099C12.1183 17.0792 11.1868 15.927 10.918 14.6656C10.7969 13.9413 10.7924 13.2022 10.9049 12.4765C10.9539 12.0792 10.9802 11.6794 10.9838 11.279C10.9831 11.2178 10.9945 11.1569 11.0173 11.1001C11.0402 11.0432 11.074 10.9914 11.1168 10.9475C11.1597 10.9037 11.2108 10.8688 11.2671 10.8447C11.3235 10.8206 11.384 10.8079 11.4453 10.8072H11.4505C11.5733 10.8072 11.6913 10.8557 11.7786 10.9421C12.5 10 15.5 8.29801 15.5 8.29801C15.5 8.29801 18.4337 6.5 22.3339 5.45341C22.3339 5.45341 22.376 5.20955 22.461 5.11951C22.546 5.02947 22.6632 4.97687 22.787 4.97328C22.9107 4.96969 23.0308 5.01541 23.1209 5.10038C23.2553 5.22731 23.3897 5.34678 23.5241 5.46624C23.6477 5.57171 23.7803 5.68138 23.9128 5.79011C24.4113 6.17058 24.8653 6.6061 25.2661 7.08838C25.564 7.43724 25.7748 7.85181 25.8812 8.29801C25.9877 8.74421 25.9867 9.20929 25.8784 9.65504C25.569 10.6672 24.6819 11.1726 23.8251 11.6617C23.1363 12.0537 22.4867 12.4242 22.2053 13.015C22.0523 13.4271 21.9786 13.8645 21.9883 14.304C21.9799 14.5991 21.954 14.8934 21.9108 15.1855C21.733 16.0498 21.3109 16.8449 20.6945 17.4764C20.0781 18.1078 19.2934 18.549 18.4337 18.7476C17.9929 18.8575 17.5402 18.9122 17.0859 18.9104Z" fill="#FEDD15"/>
<path d="M26.3971 48.1263C22.0993 48.1265 17.8981 46.8521 14.3246 44.4645C10.7512 42.0768 7.96604 38.6831 6.32142 34.7125C4.67679 30.7419 4.24656 26.3727 5.08514 22.1576C5.92371 17.9425 7.99343 14.0707 11.0325 11.0319C13.0471 8.99993 15.4431 7.38583 18.0831 6.28229C20.7231 5.17876 23.5551 4.60751 26.4165 4.60134C29.2778 4.59517 32.1122 5.15421 34.757 6.24635C37.4017 7.3385 39.8047 8.94225 41.828 10.9655C43.8513 12.9888 45.455 15.3918 46.5472 18.0366C47.6393 20.6813 48.1984 23.5157 48.1922 26.3771C48.186 29.2384 47.6148 32.0704 46.5112 34.7104C45.4077 37.3504 43.7936 39.7464 41.7616 41.761C39.7487 43.7853 37.3543 45.3902 34.717 46.4828C32.0796 47.5754 29.2518 48.134 26.3971 48.1263ZM26.3971 5.59993C22.2839 5.59976 18.2631 6.81934 14.8431 9.10444C11.4231 11.3895 8.75752 14.6375 7.18352 18.4376C5.60952 22.2377 5.19777 26.4192 6.00035 30.4533C6.80293 34.4874 8.78379 38.1929 11.6924 41.1011C13.6218 43.0398 15.9146 44.5789 18.4397 45.6302C20.9647 46.6815 23.6723 47.2243 26.4075 47.2277C29.1427 47.231 31.8516 46.6947 34.3792 45.6495C36.9068 44.6043 39.2034 43.0708 41.1374 41.1368C43.0714 39.2027 44.605 36.9062 45.6501 34.3786C46.6953 31.851 47.2316 29.142 47.2283 26.4069C47.225 23.6717 46.6821 20.9641 45.6308 18.4391C44.5795 15.914 43.0405 13.6211 41.1017 11.6918C39.1753 9.75451 36.8837 8.21858 34.3596 7.1729C31.8356 6.12723 29.1292 5.59259 26.3971 5.59993Z" fill="black"/>
<path d="M32.7043 32.1765C32.421 32.1792 32.1386 32.1447 31.8643 32.0738C30.7872 31.785 30.2076 30.9487 30.2309 29.719C30.236 29.5805 30.2479 29.4424 30.2669 29.3051C30.2899 29.1637 30.2985 29.0203 30.2926 28.8772C30.2384 28.3237 29.5706 27.9322 29.286 27.7903C28.8373 27.5788 28.3746 27.3983 27.9013 27.2499C27.5047 27.115 27.0945 26.9755 26.696 26.7996C25.8872 26.443 24.8442 25.7804 24.4713 24.6496C24.1647 23.721 24.4023 22.7536 24.6716 21.8426C24.8653 20.9545 25.2746 20.1276 25.8634 19.4351C26.3191 18.9837 26.8994 18.679 27.5298 18.5602C28.1601 18.4414 28.8116 18.5141 29.4003 18.7687C30.5875 19.3086 31.2067 20.43 31.8059 21.515C32.0281 21.9164 32.2372 22.2953 32.4738 22.6453C33.0157 23.3135 33.6433 23.9074 34.3404 24.4116C36.0904 25.8275 38.2684 27.5892 36.9416 29.9944C36.2631 31.2236 34.3003 32.176 32.7043 32.1765Z" fill="#FEDD15"/>
<path d="M43.0663 48.2011C42.9426 48.2011 42.8239 48.1519 42.7364 48.0644L38.5933 43.9199C38.5128 43.8313 38.4695 43.715 38.4723 43.5952C38.4751 43.4755 38.5239 43.3614 38.6085 43.2766C38.6931 43.1918 38.8071 43.1428 38.9269 43.1397C39.0466 43.1366 39.163 43.1797 39.2518 43.2601L43.0663 47.0746L47.0736 43.0669L43.26 39.2523C43.1805 39.1634 43.1381 39.0475 43.1414 38.9283C43.1448 38.8091 43.1936 38.6957 43.2779 38.6114C43.3623 38.527 43.4757 38.4782 43.5949 38.4749C43.7141 38.4715 43.83 38.5139 43.9189 38.5934L48.0634 42.7379C48.1509 42.8254 48.2 42.9441 48.2 43.0678C48.2 43.1916 48.1509 43.3102 48.0634 43.3977L43.3967 48.0644C43.3534 48.1078 43.3019 48.1422 43.2452 48.1657C43.1885 48.1891 43.1277 48.2012 43.0663 48.2011Z" fill="black"/>
<path d="M57.0738 65.3333C56.8259 65.3339 56.5803 65.2853 56.3513 65.1904C56.1223 65.0955 55.9144 64.9561 55.7396 64.7803L41.8852 50.924C41.5319 50.57 41.3335 50.0902 41.3335 49.5901C41.3335 49.0899 41.5319 48.6101 41.8852 48.2561L48.2561 41.8852C48.6102 41.5319 49.0899 41.3335 49.5901 41.3335C50.0902 41.3335 50.57 41.5319 50.9241 41.8852L64.7803 55.7414C64.9557 55.9166 65.0947 56.1245 65.1896 56.3535C65.2845 56.5824 65.3334 56.8278 65.3334 57.0756C65.3334 57.3234 65.2845 57.5688 65.1896 57.7978C65.0947 58.0267 64.9557 58.2347 64.7803 58.4098L58.4094 64.7803C58.2345 64.9564 58.0264 65.0959 57.7971 65.1908C57.5678 65.2858 57.3219 65.3342 57.0738 65.3333ZM49.5885 42.266C49.4632 42.2659 49.3391 42.2906 49.2234 42.3387C49.1076 42.3867 49.0025 42.4572 48.9141 42.546L42.545 48.916C42.3666 49.0949 42.2664 49.3373 42.2664 49.5901C42.2664 49.8428 42.3666 50.0852 42.545 50.2642L56.4013 64.1199C56.5829 64.2934 56.8243 64.3902 57.0754 64.3902C57.3265 64.3902 57.568 64.2934 57.7495 64.1199L64.1204 57.75C64.2991 57.571 64.3995 57.3285 64.3995 57.0756C64.3995 56.8227 64.2991 56.5802 64.1204 56.4013L50.2642 42.545C50.1758 42.4564 50.0707 42.3862 49.9551 42.3383C49.8394 42.2904 49.7155 42.2658 49.5903 42.266H49.5885Z" fill="black"/>
</svg>
