<svg width="70" height="70" viewBox="0 0 70 70" fill="none" xmlns="http://www.w3.org/2000/svg">
<path fill-rule="evenodd" clip-rule="evenodd" d="M54.5029 63.5448H15.4966C15.3648 63.5448 15.2383 63.4977 15.1451 63.4138C15.0519 63.3299 14.9995 63.2161 14.9995 63.0974V13.9252C14.9995 13.8065 15.0519 13.6927 15.1451 13.6088C15.2383 13.5249 15.3648 13.4778 15.4966 13.4778H23.9863C24.1181 13.4778 24.2446 13.5249 24.3378 13.6088C24.431 13.6927 24.4834 13.8065 24.4834 13.9252C24.4834 14.0438 24.431 14.1576 24.3378 14.2415C24.2446 14.3254 24.1181 14.3726 23.9863 14.3726H15.9938V62.65H54.0058V61.1336L54.0056 61.1215V26.3711C54.0056 26.3664 54.0057 26.3616 54.0059 26.3569V14.3726H46.0223C45.8904 14.3726 45.764 14.3254 45.6707 14.2415C45.5775 14.1576 45.5251 14.0438 45.5251 13.9252C45.5251 13.8065 45.5775 13.6927 45.6707 13.6088C45.764 13.5249 45.8904 13.4778 46.0223 13.4778H54.503C54.6348 13.4778 54.7613 13.5249 54.8545 13.6088C54.9477 13.6927 55.0001 13.8065 55.0001 13.9252V31.8968C55.0001 31.9017 55 31.9066 54.9998 31.9115V54.8354L55 54.8481V63.0974C55 63.2161 54.9477 63.3299 54.8544 63.4138C54.7612 63.4977 54.6348 63.5448 54.5029 63.5448Z" fill="black"/>
<path d="M45.5631 17H24.4369C24.3211 17 24.2099 16.9491 24.128 16.8584C24.046 16.7678 24 16.6448 24 16.5166V11.6892C24 11.561 24.046 11.4381 24.128 11.3474C24.2099 11.2568 24.3211 11.2058 24.4369 11.2058H29.8751C29.9839 9.78602 30.5705 8.46314 31.5188 7.49907C32.4672 6.53499 33.7082 6 34.9961 6C36.284 6 37.525 6.53499 38.4733 7.49907C39.4217 8.46314 40.0083 9.78602 40.117 11.2058H45.5631C45.6789 11.2058 45.7901 11.2568 45.872 11.3474C45.954 11.4381 46 11.561 46 11.6892V16.5166C46 16.6448 45.954 16.7678 45.872 16.8584C45.7901 16.9491 45.6789 17 45.5631 17Z" fill="#FEDD15"/>
<path d="M45.5631 17H24.4369C24.3211 17 24.2099 16.9491 24.128 16.8584C24.046 16.7678 24 16.6448 24 16.5166V11.6892C24 11.561 24.046 11.4381 24.128 11.3474C24.2099 11.2568 24.3211 11.2058 24.4369 11.2058H29.8751C29.9839 9.78602 30.5705 8.46314 31.5188 7.49907C32.4672 6.53499 33.7082 6 34.9961 6C36.284 6 37.525 6.53499 38.4733 7.49907C39.4217 8.46314 40.0083 9.78602 40.117 11.2058H45.5631C45.6789 11.2058 45.7901 11.2568 45.872 11.3474C45.954 11.4381 46 11.561 46 11.6892V16.5166C46 16.6448 45.954 16.7678 45.872 16.8584C45.7901 16.9491 45.6789 17 45.5631 17ZM24.8739 16.0332H45.1261V12.1726H39.6993C39.5834 12.1726 39.4723 12.1217 39.3903 12.0311C39.3084 11.9404 39.2624 11.8174 39.2624 11.6892C39.2624 10.4374 38.8129 9.23684 38.0128 8.35166C37.2127 7.46648 36.1276 6.96919 34.9961 6.96919C33.8646 6.96919 32.7794 7.46648 31.9793 8.35166C31.1793 9.23684 30.7298 10.4374 30.7298 11.6892C30.7298 11.8174 30.6837 11.9404 30.6018 12.0311C30.5199 12.1217 30.4087 12.1726 30.2928 12.1726H24.8748L24.8739 16.0332Z" fill="black"/>
<path d="M32.6857 34C32.6033 33.9999 32.5225 33.9759 32.4523 33.9305C32.3821 33.8851 32.3251 33.8202 32.2877 33.743L29.7338 28.4703H25.4473C25.3286 28.4703 25.2149 28.4207 25.131 28.3324C25.0471 28.2441 25 28.1244 25 27.9995C25 27.8747 25.0471 27.7549 25.131 27.6666C25.2149 27.5784 25.3286 27.5288 25.4473 27.5288H30.0093C30.0919 27.5287 30.1728 27.5526 30.2433 27.598C30.3137 27.6434 30.3708 27.7084 30.4083 27.7858L32.6124 32.3382L35.9749 22.3145C36.0056 22.2225 36.0628 22.1428 36.1384 22.0865C36.2141 22.0301 36.3044 21.9999 36.3971 22C36.49 22.0007 36.5804 22.0317 36.6557 22.0889C36.7311 22.1461 36.7876 22.2266 36.8175 22.3192L39.5431 30.7404L40.9323 27.5099C40.9678 27.4274 41.0251 27.3573 41.0975 27.3082C41.1698 27.2591 41.2541 27.233 41.3402 27.2331H48.5527C48.6714 27.2331 48.7851 27.2827 48.869 27.371C48.9529 27.4593 49 27.579 49 27.7039C49 27.8287 48.9529 27.9485 48.869 28.0368C48.7851 28.1251 48.6714 28.1747 48.5527 28.1747H41.6291L39.8938 32.2177C39.8585 32.3051 39.7981 32.3787 39.7211 32.4283C39.6442 32.4779 39.5544 32.5011 39.4644 32.4945C39.3747 32.4901 39.2884 32.4574 39.2166 32.4006C39.1448 32.3439 39.0909 32.2657 39.0619 32.1762L36.3873 23.9113L33.1079 33.6865C33.0788 33.7732 33.0261 33.849 32.9565 33.9045C32.8869 33.9601 32.8033 33.9929 32.7161 33.9991L32.6857 34Z" fill="black"/>
<path d="M48.5483 41H23.4517C23.3319 41 23.217 40.9473 23.1323 40.8536C23.0476 40.7598 23 40.6326 23 40.5C23 40.3674 23.0476 40.2402 23.1323 40.1465C23.217 40.0527 23.3319 40 23.4517 40H48.5483C48.6681 40 48.783 40.0527 48.8677 40.1465C48.9524 40.2402 49 40.3674 49 40.5C49 40.6326 48.9524 40.7598 48.8677 40.8536C48.783 40.9473 48.6681 41 48.5483 41Z" fill="black"/>
<path d="M48.5483 48H23.4517C23.3319 48 23.217 47.9473 23.1323 47.8536C23.0476 47.7598 23 47.6326 23 47.5C23 47.3674 23.0476 47.2402 23.1323 47.1464C23.217 47.0527 23.3319 47 23.4517 47H48.5483C48.6681 47 48.783 47.0527 48.8677 47.1464C48.9524 47.2402 49 47.3674 49 47.5C49 47.6326 48.9524 47.7598 48.8677 47.8536C48.783 47.9473 48.6681 48 48.5483 48Z" fill="black"/>
<path d="M48.5483 55H23.4517C23.3319 55 23.217 54.9473 23.1323 54.8536C23.0476 54.7598 23 54.6326 23 54.5C23 54.3674 23.0476 54.2402 23.1323 54.1465C23.217 54.0527 23.3319 54 23.4517 54H48.5483C48.6681 54 48.783 54.0527 48.8677 54.1465C48.9524 54.2402 49 54.3674 49 54.5C49 54.6326 48.9524 54.7598 48.8677 54.8536C48.783 54.9473 48.6681 55 48.5483 55Z" fill="black"/>
</svg>
