<svg width="70" height="70" viewBox="0 0 70 70" fill="none" xmlns="http://www.w3.org/2000/svg">
<path d="M40.5863 62H13.0546C12.134 61.999 11.2513 61.6328 10.6002 60.9818C9.9492 60.3308 9.58302 59.4481 9.58203 58.5274V11.4685C9.58357 10.5484 9.95006 9.66643 10.6011 9.01618C11.2521 8.36593 12.1345 8.0005 13.0546 8.00006H40.5863C41.5065 8.0005 42.3888 8.36593 43.0399 9.01618C43.6909 9.66643 44.0574 10.5484 44.0589 11.4685V18.9704C44.0589 19.0805 44.0152 19.1862 43.9373 19.2641C43.8594 19.342 43.7537 19.3857 43.6435 19.3857C43.5334 19.3857 43.4277 19.342 43.3498 19.2641C43.2719 19.1862 43.2282 19.0805 43.2282 18.9704V11.4685C43.2268 10.7686 42.9479 10.0979 42.4527 9.60338C41.9574 9.10888 41.2862 8.83105 40.5863 8.83083H13.0546C12.3548 8.83105 11.6836 9.10888 11.1883 9.60338C10.693 10.0979 10.4141 10.7686 10.4128 11.4685V58.5274C10.4137 59.2278 10.6923 59.8992 11.1875 60.3945C11.6828 60.8897 12.3543 61.1684 13.0546 61.1692H40.5863C41.2867 61.1684 41.9582 60.8897 42.4534 60.3945C42.9487 59.8992 43.2273 59.2278 43.2282 58.5274V40.3585C43.2282 40.2483 43.2719 40.1427 43.3498 40.0648C43.4277 39.9869 43.5334 39.9431 43.6435 39.9431C43.7537 39.9431 43.8594 39.9869 43.9373 40.0648C44.0152 40.1427 44.0589 40.2483 44.0589 40.3585V58.5274C44.0579 59.4481 43.6918 60.3308 43.0407 60.9818C42.3897 61.6328 41.507 61.999 40.5863 62Z" fill="black"/>
<path d="M43.6421 14.6347H9.99595C9.88578 14.6347 9.78013 14.591 9.70223 14.5131C9.62433 14.4352 9.58057 14.3295 9.58057 14.2193C9.58057 14.1092 9.62433 14.0035 9.70223 13.9256C9.78013 13.8477 9.88578 13.804 9.99595 13.804H43.6421C43.7522 13.804 43.8579 13.8477 43.9358 13.9256C44.0137 14.0035 44.0575 14.1092 44.0575 14.2193C44.0575 14.3295 44.0137 14.4352 43.9358 14.5131C43.8579 14.591 43.7522 14.6347 43.6421 14.6347Z" fill="black"/>
<path d="M43.6421 53.7815H9.99595C9.88578 53.7815 9.78013 53.7378 9.70223 53.6599C9.62433 53.582 9.58057 53.4763 9.58057 53.3661C9.58057 53.256 9.62433 53.1503 9.70223 53.0724C9.78013 52.9945 9.88578 52.9507 9.99595 52.9507H43.6421C43.7522 52.9507 43.8579 52.9945 43.9358 53.0724C44.0137 53.1503 44.0575 53.256 44.0575 53.3661C44.0575 53.4763 44.0137 53.582 43.9358 53.6599C43.8579 53.7378 43.7522 53.7815 43.6421 53.7815Z" fill="black"/>
<path d="M30.0165 11.8996H23.6229C23.5127 11.8996 23.4071 11.8559 23.3292 11.778C23.2513 11.7001 23.2075 11.5944 23.2075 11.4843C23.2075 11.3741 23.2513 11.2684 23.3292 11.1905C23.4071 11.1126 23.5127 11.0689 23.6229 11.0689H30.0165C30.1267 11.0689 30.2323 11.1126 30.3102 11.1905C30.3881 11.2684 30.4319 11.3741 30.4319 11.4843C30.4319 11.5944 30.3881 11.7001 30.3102 11.778C30.2323 11.8559 30.1267 11.8996 30.0165 11.8996Z" fill="black"/>
<path d="M26.822 60.1085C26.3098 60.109 25.809 59.9576 25.3828 59.6734C24.9567 59.3893 24.6244 58.9851 24.428 58.5121C24.2315 58.0391 24.1798 57.5184 24.2793 57.016C24.3788 56.5135 24.6251 56.0519 24.987 55.6894C25.3488 55.327 25.8101 55.08 26.3124 54.9796C26.8146 54.8793 27.3354 54.9302 27.8087 55.1259C28.2821 55.3216 28.6868 55.6532 28.9716 56.0789C29.2565 56.5046 29.4087 57.0052 29.409 57.5174C29.4081 58.2036 29.1354 58.8615 28.6506 59.3472C28.1657 59.8328 27.5082 60.1065 26.822 60.1085ZM26.822 55.7607C26.4739 55.7602 26.1336 55.863 25.844 56.056C25.5544 56.2491 25.3286 56.5237 25.1951 56.8451C25.0617 57.1666 25.0266 57.5204 25.0944 57.8618C25.1621 58.2032 25.3297 58.5168 25.5757 58.7629C25.8218 59.009 26.1354 59.1766 26.4767 59.2444C26.8181 59.3123 27.1719 59.2773 27.4934 59.1439C27.8149 59.0106 28.0896 58.7848 28.2827 58.4953C28.4758 58.2057 28.5786 57.8654 28.5782 57.5174C28.5771 57.0519 28.3918 56.6058 28.0626 56.2766C27.7335 55.9474 27.2875 55.7619 26.822 55.7607Z" fill="black"/>
<path d="M33.6684 50.4527C33.6071 50.4529 33.5463 50.4408 33.4897 50.4172C33.4044 50.3818 33.3315 50.322 33.2803 50.2453C33.229 50.1685 33.2017 50.0783 33.2017 49.986V41.4656C32.0329 41.348 30.9493 40.8009 30.1608 39.9301C29.3723 39.0594 28.935 37.927 28.9336 36.7523V21.2613C28.935 20.0054 29.4344 18.8014 30.3224 17.9134C31.2104 17.0254 32.4144 16.526 33.6703 16.5246H57.8123C59.0681 16.526 60.2721 17.0254 61.16 17.9135C62.0479 18.8015 62.5473 20.0055 62.5485 21.2613V36.7523C62.5468 38.008 62.0469 39.2118 61.1586 40.0993C60.2704 40.9869 59.0662 41.4858 57.8105 41.4866H42.8263L33.9983 50.3159C33.9108 50.4034 33.7922 50.4526 33.6684 50.4527ZM33.6684 17.4593C32.6606 17.4609 31.6945 17.862 30.982 18.5747C30.2694 19.2874 29.8684 20.2535 29.8669 21.2613V36.7523C29.8682 37.7605 30.2693 38.7272 30.9823 39.4401C31.6953 40.153 32.662 40.554 33.6703 40.5551C33.794 40.5551 33.9127 40.6043 34.0002 40.6918C34.0878 40.7793 34.1369 40.898 34.1369 41.0218V48.8618L42.3036 40.6951C42.3911 40.6076 42.5098 40.5584 42.6335 40.5584H57.8114C58.8196 40.5572 59.7862 40.1561 60.4991 39.4432C61.212 38.7303 61.613 37.7637 61.6143 36.7555V21.2613C61.6132 20.253 61.2122 19.2863 60.4992 18.5733C59.7863 17.8603 58.8197 17.4592 57.8114 17.4579L33.6684 17.4593Z" fill="black"/>
<path d="M33.6684 50.4527C33.6071 50.4529 33.5463 50.4408 33.4897 50.4172C33.4044 50.3818 33.3315 50.322 33.2803 50.2453C33.229 50.1685 33.2017 50.0783 33.2017 49.986V41.4656C32.0329 41.348 30.9493 40.8009 30.1608 39.9301C29.3723 39.0594 28.935 37.927 28.9336 36.7523V21.2613C28.935 20.0054 29.4344 18.8014 30.3224 17.9134C31.2104 17.0254 32.4144 16.526 33.6703 16.5246H57.8123C59.0681 16.526 60.2721 17.0254 61.16 17.9135C62.0479 18.8015 62.5473 20.0055 62.5485 21.2613V36.7523C62.5468 38.008 62.0469 39.2118 61.1586 40.0993C60.2704 40.9869 59.0662 41.4858 57.8105 41.4866H42.8263L33.9983 50.3159C33.9108 50.4034 33.7922 50.4526 33.6684 50.4527Z" fill="#FEDD15"/>
<path fill-rule="evenodd" clip-rule="evenodd" d="M45.77 36.9224C45.8196 36.9721 45.887 37 45.9572 37C46.0274 37 46.0948 36.9721 46.1445 36.9224C46.1941 36.8728 46.222 36.8054 46.222 36.7352V35.749C48.2814 35.6271 49.9149 34.101 49.9149 32.2447C49.9149 30.3883 48.2814 28.8642 46.222 28.7425V22.7803C47.9891 22.8986 49.3853 24.1863 49.3853 25.7519C49.3853 25.8221 49.4132 25.8894 49.4629 25.9391C49.5125 25.9887 49.5799 26.0166 49.6501 26.0166C49.7203 26.0166 49.7877 25.9887 49.8373 25.9391C49.887 25.8894 49.9149 25.8221 49.9149 25.7519C49.9149 23.8958 48.2807 22.3714 46.222 22.2497V21.2648C46.222 21.1946 46.1941 21.1272 46.1445 21.0775C46.0948 21.0279 46.0274 21 45.9572 21C45.887 21 45.8196 21.0279 45.77 21.0775C45.7203 21.1272 45.6924 21.1946 45.6924 21.2648V22.2495C43.6329 22.3702 41.9999 23.8936 41.9999 25.7519C41.9999 27.6101 43.6333 29.1357 45.6924 29.2565V35.2185C43.9256 35.101 42.5295 33.8121 42.5295 32.2447C42.5295 32.1745 42.5016 32.1071 42.4519 32.0575C42.4023 32.0078 42.3349 31.9799 42.2647 31.9799C42.1945 31.9799 42.1271 32.0078 42.0775 32.0575C42.0278 32.1071 41.9999 32.1745 41.9999 32.2447C41.9999 34.1027 43.6333 35.6283 45.6924 35.7491V36.7352C45.6924 36.8054 45.7203 36.8728 45.77 36.9224ZM45.6924 28.7259V22.7801C43.9245 22.8975 42.5295 24.1857 42.5295 25.7519C42.5295 27.318 43.9256 28.6082 45.6924 28.7259ZM46.222 29.2731V35.2184C47.988 35.0998 49.3853 33.8114 49.3853 32.2447C49.3853 30.6779 47.9891 29.3914 46.222 29.2731Z" fill="black"/>
<path fill-rule="evenodd" clip-rule="evenodd" d="M45.9572 21.1C45.9135 21.1 45.8716 21.1174 45.8407 21.1483C45.8098 21.1792 45.7924 21.2211 45.7924 21.2648V22.3439L45.6983 22.3494C43.6806 22.4675 42.0999 23.9569 42.0999 25.7519C42.0999 27.5469 43.6811 29.0383 45.6983 29.1567L45.7924 29.1622V35.3254L45.6858 35.3183C43.8791 35.1981 42.4295 33.8765 42.4295 32.2447C42.4295 32.201 42.4121 32.1591 42.3812 32.1282C42.3503 32.0973 42.3084 32.0799 42.2647 32.0799C42.221 32.0799 42.1791 32.0973 42.1482 32.1282C42.1173 32.1591 42.0999 32.201 42.0999 32.2447C42.0999 34.0395 43.6811 35.5309 45.6983 35.6493L45.7924 35.6548V36.7352C45.7924 36.7789 45.8098 36.8208 45.8407 36.8517C45.8716 36.8826 45.9135 36.9 45.9572 36.9C46.0009 36.9 46.0428 36.8826 46.0737 36.8517C46.1047 36.8208 46.122 36.7789 46.122 36.7352V35.6547L46.2161 35.6492C48.2336 35.5298 49.8149 34.0378 49.8149 32.2447C49.8149 30.4516 48.2337 28.9615 46.2161 28.8423L46.122 28.8368V22.6734L46.2287 22.6805C48.0355 22.8015 49.4853 24.1218 49.4853 25.7519C49.4853 25.7956 49.5027 25.8375 49.5336 25.8684C49.5645 25.8993 49.6064 25.9166 49.6501 25.9166C49.6938 25.9166 49.7357 25.8993 49.7666 25.8684C49.7975 25.8375 49.8149 25.7956 49.8149 25.7519C49.8149 23.9591 48.233 22.4688 46.2161 22.3495L46.122 22.3439V21.2648C46.122 21.2211 46.1047 21.1792 46.0737 21.1483C46.0428 21.1174 46.0009 21.1 45.9572 21.1ZM45.6993 21.0068C45.7677 20.9384 45.8605 20.9 45.9572 20.9C46.054 20.9 46.1468 20.9384 46.2152 21.0068C46.2836 21.0752 46.322 21.168 46.322 21.2648V22.1564C48.3786 22.3208 50.0149 23.8612 50.0149 25.7519C50.0149 25.8486 49.9765 25.9414 49.9081 26.0098C49.8397 26.0782 49.7469 26.1166 49.6501 26.1166C49.5534 26.1166 49.4606 26.0782 49.3922 26.0098C49.3238 25.9414 49.2853 25.8486 49.2853 25.7519C49.2853 24.2819 47.9976 23.0478 46.322 22.8887V28.6492C48.3792 28.8136 50.0149 30.3538 50.0149 32.2447C50.0149 34.1356 48.3793 35.6777 46.322 35.8423V36.7352C46.322 36.832 46.2836 36.9247 46.2152 36.9932C46.1468 37.0616 46.054 37.1 45.9572 37.1C45.8605 37.1 45.7677 37.0616 45.6993 36.9932C45.6309 36.9247 45.5924 36.832 45.5924 36.7352V35.8424C43.5354 35.6788 41.8999 34.1371 41.8999 32.2447C41.8999 32.1479 41.9383 32.0552 42.0067 31.9867C42.0752 31.9183 42.1679 31.8799 42.2647 31.8799C42.3614 31.8799 42.4542 31.9183 42.5226 31.9867C42.591 32.0552 42.6295 32.1479 42.6295 32.2447C42.6295 33.7166 43.9173 34.9518 45.5924 35.1101V29.3499C43.5354 29.1863 41.8999 27.6446 41.8999 25.7519C41.8999 23.8591 43.535 22.3195 45.5924 22.1562V21.2648C45.5924 21.168 45.6309 21.0752 45.6993 21.0068ZM45.7924 22.6733V28.8328L45.6858 28.8257C43.879 28.7054 42.4295 27.3824 42.4295 25.7519C42.4295 24.1212 43.878 22.8004 45.6858 22.6804L45.7924 22.6733ZM45.5924 22.8885C43.9162 23.0467 42.6295 24.2811 42.6295 25.7519C42.6295 27.2225 43.9173 28.459 45.5924 28.6176V22.8885ZM46.122 29.1662L46.2287 29.1733C48.0355 29.2942 49.4853 30.6134 49.4853 32.2447C49.4853 33.8759 48.0345 35.197 46.2287 35.3181L46.122 35.3253V29.1662ZM46.322 29.3815V35.1099C47.9965 34.9506 49.2853 33.7158 49.2853 32.2447C49.2853 30.7735 47.9976 29.5405 46.322 29.3815Z" fill="black"/>
</svg>
