<svg width="70" height="70" viewBox="0 0 70 70" fill="none" xmlns="http://www.w3.org/2000/svg">
<path d="M49.5398 19H20.7229C20.566 19 20.4156 18.9346 20.3046 18.8182C20.1937 18.7017 20.1313 18.5438 20.1313 18.3792V4.62081C20.1313 4.45616 20.1937 4.29826 20.3046 4.18183C20.4156 4.06541 20.566 4 20.7229 4H49.5398C49.6967 4 49.8471 4.06541 49.9581 4.18183C50.069 4.29826 50.1313 4.45616 50.1313 4.62081V18.3792C50.1313 18.5438 50.069 18.7017 49.9581 18.8182C49.8471 18.9346 49.6967 19 49.5398 19Z" fill="#FEDD15"/>
<path d="M40.8947 63H29.368C29.3052 63 29.245 62.9651 29.2007 62.903C29.1563 62.8409 29.1313 62.7567 29.1313 62.6689V55.3311C29.1313 55.2433 29.1563 55.1591 29.2007 55.097C29.245 55.0349 29.3052 55 29.368 55H40.8947C40.9575 55 41.0177 55.0349 41.062 55.097C41.1064 55.1591 41.1313 55.2433 41.1313 55.3311V62.6689C41.1313 62.7567 41.1064 62.8409 41.062 62.903C41.0177 62.9651 40.9575 63 40.8947 63Z" fill="#FEDD15"/>
<path d="M62.8947 63H51.368C51.3052 63 51.245 62.9651 51.2007 62.903C51.1563 62.8409 51.1313 62.7567 51.1313 62.6689V55.3311C51.1313 55.2433 51.1563 55.1591 51.2007 55.097C51.245 55.0349 51.3052 55 51.368 55H62.8947C62.9575 55 63.0177 55.0349 63.062 55.097C63.1064 55.1591 63.1313 55.2433 63.1313 55.3311V62.6689C63.1313 62.7567 63.1064 62.8409 63.062 62.903C63.0177 62.9651 62.9575 63 62.8947 63Z" fill="#FEDD15"/>
<path d="M18.8947 63H7.36798C7.30522 63 7.24503 62.9651 7.20065 62.903C7.15628 62.8409 7.13135 62.7567 7.13135 62.6689V55.3311C7.13135 55.2433 7.15628 55.1591 7.20065 55.097C7.24503 55.0349 7.30522 55 7.36798 55H18.8947C18.9575 55 19.0177 55.0349 19.062 55.097C19.1064 55.1591 19.1313 55.2433 19.1313 55.3311V62.6689C19.1313 62.7567 19.1064 62.8409 19.062 62.903C19.0177 62.9651 18.9575 63 18.8947 63Z" fill="#FEDD15"/>
<path d="M32.1789 41.7232H9.44616C9.32239 41.7232 9.20369 41.674 9.11618 41.5865C9.02866 41.499 8.97949 41.3803 8.97949 41.2565V30.9133C8.97949 30.7896 9.02866 30.6709 9.11618 30.5833C9.20369 30.4958 9.32239 30.4467 9.44616 30.4467H32.1789C32.3027 30.4467 32.4214 30.4958 32.5089 30.5833C32.5964 30.6709 32.6456 30.7896 32.6456 30.9133V41.2565C32.6456 41.3803 32.5964 41.499 32.5089 41.5865C32.4214 41.674 32.3027 41.7232 32.1789 41.7232ZM9.91283 40.7899H31.7122V31.38H9.91283V40.7899Z" fill="black"/>
<path d="M19.5841 63.3333H7.46667C7.3429 63.3333 7.2242 63.2841 7.13668 63.1966C7.04917 63.1091 7 62.9904 7 62.8666V54.7088C7 54.585 7.04917 54.4663 7.13668 54.3788C7.2242 54.2913 7.3429 54.2421 7.46667 54.2421H19.5841C19.7079 54.2421 19.8266 54.2913 19.9141 54.3788C20.0016 54.4663 20.0508 54.585 20.0508 54.7088V62.8666C20.0508 62.9904 20.0016 63.1091 19.9141 63.1966C19.8266 63.2841 19.7079 63.3333 19.5841 63.3333ZM7.93333 62.4H19.1175V55.1755H7.93333V62.4Z" fill="black"/>
<path d="M41.1897 63.3333H29.0731C28.9493 63.3333 28.8306 63.2841 28.7431 63.1966C28.6556 63.1091 28.6064 62.9904 28.6064 62.8666V54.7088C28.6064 54.585 28.6556 54.4663 28.7431 54.3788C28.8306 54.2913 28.9493 54.2421 29.0731 54.2421H41.1897C41.3134 54.2421 41.4321 54.2913 41.5196 54.3788C41.6072 54.4663 41.6563 54.585 41.6563 54.7088V62.8666C41.6563 62.9904 41.6072 63.1091 41.5196 63.1966C41.4321 63.2841 41.3134 63.3333 41.1897 63.3333ZM29.5398 62.4H40.723V55.1755H29.5398V62.4Z" fill="black"/>
<path d="M62.7965 63.3333H50.6791C50.5553 63.3333 50.4366 63.2841 50.3491 63.1966C50.2616 63.1091 50.2124 62.9904 50.2124 62.8666V54.7088C50.2124 54.585 50.2616 54.4663 50.3491 54.3788C50.4366 54.2913 50.5553 54.2421 50.6791 54.2421H62.7965C62.9203 54.2421 63.039 54.2913 63.1265 54.3788C63.214 54.4663 63.2632 54.585 63.2632 54.7088V62.8666C63.2632 62.9904 63.214 63.1091 63.1265 63.1966C63.039 63.2841 62.9203 63.3333 62.7965 63.3333ZM51.1457 62.4H62.3299V55.1755H51.1457V62.4Z" fill="black"/>
<path d="M60.9533 41.7232H38.2201C38.0963 41.7232 37.9776 41.674 37.8901 41.5865C37.8026 41.499 37.7534 41.3803 37.7534 41.2565V30.9133C37.7534 30.7896 37.8026 30.6709 37.8901 30.5833C37.9776 30.4958 38.0963 30.4467 38.2201 30.4467H60.9533C61.077 30.4467 61.1957 30.4958 61.2833 30.5833C61.3708 30.6709 61.4199 30.7896 61.4199 30.9133V41.2565C61.4199 41.3803 61.3708 41.499 61.2833 41.5865C61.1957 41.674 61.077 41.7232 60.9533 41.7232ZM38.6868 40.7899H60.4866V31.38H38.6868V40.7899Z" fill="black"/>
<path d="M19.5838 31.3801C19.4898 31.3802 19.398 31.3519 19.3204 31.299C19.2427 31.246 19.1829 31.1708 19.1487 31.0832C19.1145 30.9957 19.1075 30.8998 19.1287 30.8083C19.1499 30.7167 19.1983 30.6336 19.2674 30.57L34.9344 19.1327C35.021 19.0529 35.1346 19.0088 35.2524 19.0092C35.3702 19.0096 35.4835 19.0546 35.5695 19.1351L50.998 30.5733C51.0427 30.6152 51.0788 30.6655 51.1042 30.7213C51.1295 30.7771 51.1436 30.8374 51.1456 30.8987C51.1476 30.9599 51.1376 31.021 51.116 31.0784C51.0945 31.1358 51.0618 31.1884 51.0199 31.2331C50.978 31.2779 50.9277 31.314 50.8719 31.3393C50.8161 31.3646 50.7558 31.3787 50.6945 31.3808C50.6332 31.3828 50.5722 31.3728 50.5148 31.3512C50.4574 31.3296 50.4048 31.297 50.36 31.2551L35.2484 20.1123L19.8998 31.2574C19.8136 31.3365 19.7008 31.3803 19.5838 31.3801Z" fill="black"/>
<path d="M56.7377 55.1754C56.6468 55.1756 56.5578 55.1491 56.4817 55.0994C56.4056 55.0497 56.3456 54.9788 56.3093 54.8954L49.4493 42.1174L35.4815 55.0168C35.4377 55.0666 35.3838 55.1065 35.3233 55.1339C35.2629 55.1613 35.1973 55.1754 35.131 55.1754C35.0644 55.1752 34.9987 55.1608 34.9382 55.1331C34.8776 55.1055 34.8237 55.0651 34.7801 55.0149L20.9415 42.1156L13.9509 54.8978C13.9266 54.9546 13.8912 55.006 13.8468 55.049C13.8025 55.0921 13.75 55.1259 13.6925 55.1485C13.635 55.1711 13.5736 55.182 13.5118 55.1807C13.45 55.1794 13.3891 55.1658 13.3326 55.1407C13.2761 55.1157 13.2252 55.0796 13.1827 55.0347C13.1402 54.9898 13.1071 54.9369 13.0853 54.8791C13.0635 54.8213 13.0533 54.7597 13.0555 54.6979C13.0576 54.6362 13.072 54.5755 13.0978 54.5193L20.3843 41.067C20.4162 40.9952 20.4656 40.9327 20.528 40.8852C20.5904 40.8376 20.6638 40.8066 20.7414 40.7949C20.819 40.7832 20.8983 40.7913 20.9719 40.8184C21.0456 40.8454 21.1112 40.8907 21.1627 40.9498L35.131 53.9999L49.236 40.9466C49.2879 40.8875 49.3538 40.8426 49.4277 40.8158C49.5016 40.7891 49.581 40.7814 49.6587 40.7936C49.7363 40.8057 49.8096 40.8373 49.8718 40.8853C49.934 40.9334 49.983 40.9963 50.0144 41.0684L57.1656 54.5207C57.1966 54.5917 57.2094 54.6693 57.2029 54.7465C57.1964 54.8237 57.1708 54.898 57.1284 54.9629C57.086 55.0277 57.0281 55.0809 56.96 55.1178C56.8918 55.1547 56.8156 55.174 56.7381 55.174L56.7377 55.1754Z" fill="black"/>
</svg>
