<svg width="70" height="70" viewBox="0 0 70 70" fill="none" xmlns="http://www.w3.org/2000/svg">
<path d="M50.8786 65.3334H5.13317C5.0094 65.3334 4.8907 65.2842 4.80319 65.1967C4.71567 65.1092 4.6665 64.9905 4.6665 64.8667V5.13335C4.6665 5.00959 4.71567 4.89089 4.80319 4.80337C4.8907 4.71585 5.0094 4.66669 5.13317 4.66669H37.377C37.4994 4.66708 37.6167 4.71551 37.7037 4.80155L51.2053 18.1576C51.2495 18.2008 51.2846 18.2524 51.3086 18.3094C51.3326 18.3664 51.3451 18.4275 51.3453 18.4894V64.8667C51.3453 64.9905 51.2961 65.1092 51.2086 65.1967C51.1211 65.2842 51.0024 65.3334 50.8786 65.3334ZM5.59984 64.4H50.4115V18.684L37.1852 5.60002H5.59984V64.4Z" fill="black"/>
<path d="M50.8804 18.956H37.3802C37.2565 18.956 37.1378 18.9068 37.0503 18.8193C36.9627 18.7318 36.9136 18.6131 36.9136 18.4893V5.13332C36.9139 5.04155 36.9412 4.95189 36.9922 4.87558C37.0432 4.79926 37.1155 4.73967 37.2002 4.70426C37.2848 4.66885 37.3781 4.65919 37.4682 4.67649C37.5583 4.69379 37.6414 4.73728 37.7069 4.80152L51.2085 18.1575C51.2742 18.2225 51.3191 18.3055 51.3376 18.396C51.3561 18.4865 51.3472 18.5805 51.3123 18.666C51.2773 18.7515 51.2177 18.8247 51.1411 18.8764C51.0644 18.928 50.9742 18.9557 50.8818 18.956H50.8804ZM37.8455 18.0227H49.7455L37.8469 6.25332L37.8455 18.0227Z" fill="black"/>
<path d="M65 27.5H56V56.5C57 56 59.3 55 60.5 55C61.7 55 64 55.6667 65 56V27.5Z" fill="#FEDD15"/>
<path d="M30.7536 11.428H10.287C10.1632 11.428 10.0445 11.3788 9.957 11.2913C9.86948 11.2038 9.82031 11.0851 9.82031 10.9613C9.82031 10.8376 9.86948 10.7189 9.957 10.6313C10.0445 10.5438 10.1632 10.4947 10.287 10.4947H30.7536C30.8773 10.4947 30.996 10.5438 31.0836 10.6313C31.1711 10.7189 31.2202 10.8376 31.2202 10.9613C31.2202 11.0851 31.1711 11.2038 31.0836 11.2913C30.996 11.3788 30.8773 11.428 30.7536 11.428Z" fill="black"/>
<path d="M30.7536 20.6601H10.287C10.1632 20.6601 10.0445 20.611 9.957 20.5235C9.86948 20.4359 9.82031 20.3172 9.82031 20.1935C9.82031 20.0697 9.86948 19.951 9.957 19.8635C10.0445 19.776 10.1632 19.7268 10.287 19.7268H30.7536C30.8773 19.7268 30.996 19.776 31.0836 19.8635C31.1711 19.951 31.2202 20.0697 31.2202 20.1935C31.2202 20.3172 31.1711 20.4359 31.0836 20.5235C30.996 20.611 30.8773 20.6601 30.7536 20.6601Z" fill="black"/>
<path d="M46.6202 29.8932H10.287C10.1632 29.8932 10.0445 29.844 9.957 29.7565C9.86948 29.669 9.82031 29.5503 9.82031 29.4265C9.82031 29.3028 9.86948 29.1841 9.957 29.0966C10.0445 29.009 10.1632 28.9599 10.287 28.9599H46.6202C46.744 28.9599 46.8627 29.009 46.9502 29.0966C47.0377 29.1841 47.0869 29.3028 47.0869 29.4265C47.0869 29.5503 47.0377 29.669 46.9502 29.7565C46.8627 29.844 46.744 29.8932 46.6202 29.8932Z" fill="black"/>
<path d="M46.6202 39.1258H10.287C10.1632 39.1258 10.0445 39.0767 9.957 38.9892C9.86948 38.9016 9.82031 38.7829 9.82031 38.6592C9.82031 38.5354 9.86948 38.4167 9.957 38.3292C10.0445 38.2417 10.1632 38.1925 10.287 38.1925H46.6202C46.744 38.1925 46.8627 38.2417 46.9502 38.3292C47.0377 38.4167 47.0869 38.5354 47.0869 38.6592C47.0869 38.7829 47.0377 38.9016 46.9502 38.9892C46.8627 39.0767 46.744 39.1258 46.6202 39.1258Z" fill="black"/>
<path d="M46.6202 48.3584H10.287C10.1632 48.3584 10.0445 48.3093 9.957 48.2218C9.86948 48.1342 9.82031 48.0155 9.82031 47.8918C9.82031 47.768 9.86948 47.6493 9.957 47.5618C10.0445 47.4743 10.1632 47.4251 10.287 47.4251H46.6202C46.744 47.4251 46.8627 47.4743 46.9502 47.5618C47.0377 47.6493 47.0869 47.768 47.0869 47.8918C47.0869 48.0155 47.0377 48.1342 46.9502 48.2218C46.8627 48.3093 46.744 48.3584 46.6202 48.3584Z" fill="black"/>
<path d="M46.6202 57.5906H10.287C10.1632 57.5906 10.0445 57.5414 9.957 57.4539C9.86948 57.3664 9.82031 57.2477 9.82031 57.1239C9.82031 57.0002 9.86948 56.8815 9.957 56.7939C10.0445 56.7064 10.1632 56.6573 10.287 56.6573H46.6202C46.744 56.6573 46.8627 56.7064 46.9502 56.7939C47.0377 56.8815 47.0869 57.0002 47.0869 57.1239C47.0869 57.2477 47.0377 57.3664 46.9502 57.4539C46.8627 57.5414 46.744 57.5906 46.6202 57.5906Z" fill="black"/>
<path d="M60.4911 65.3332C60.4037 65.3334 60.318 65.309 60.2437 65.2629C60.1695 65.2168 60.1097 65.1507 60.0711 65.0723L55.6966 56.1902C55.6654 56.1261 55.6494 56.0557 55.6499 55.9844V23.7065C55.6509 22.8357 55.9973 22.0009 56.613 21.3852C57.2287 20.7694 58.0635 20.4231 58.9343 20.4221H62.0484C62.9192 20.423 63.7542 20.7692 64.37 21.385C64.9858 22.0007 65.3322 22.8356 65.3332 23.7065V55.9863C65.3337 56.0576 65.3178 56.128 65.2866 56.1921L60.9116 65.0742C60.8727 65.1523 60.8127 65.218 60.7384 65.2638C60.6641 65.3096 60.5784 65.3336 60.4911 65.3332ZM56.5832 55.8757L60.4911 63.809L64.3994 55.8757V23.7065C64.3987 23.0832 64.1508 22.4856 63.71 22.0449C63.2693 21.6041 62.6717 21.3562 62.0484 21.3554H58.9343C58.311 21.3562 57.7134 21.6041 57.2727 22.0449C56.8319 22.4856 56.584 23.0832 56.5832 23.7065V55.8757Z" fill="black"/>
<path d="M64.8667 56.4512C64.7885 56.4513 64.7116 56.4316 64.6431 56.3938C63.3814 55.6797 61.9567 55.3032 60.5069 55.3005C59.0571 55.2979 57.6311 55.6693 56.3668 56.3789C56.2622 56.4451 56.1356 56.4671 56.0148 56.4399C55.8941 56.4128 55.789 56.3388 55.7228 56.2342C55.6566 56.1296 55.6346 56.003 55.6617 55.8823C55.6889 55.7615 55.7629 55.6564 55.8675 55.5902C57.2726 54.7911 58.8608 54.3697 60.4773 54.3671C62.0938 54.3645 63.6834 54.7807 65.0911 55.5753C65.182 55.6251 65.2538 55.7037 65.295 55.7988C65.3363 55.8939 65.3447 56 65.319 56.1004C65.2932 56.2008 65.2348 56.2898 65.1529 56.3533C65.071 56.4168 64.9703 56.4513 64.8667 56.4512Z" fill="black"/>
<path d="M64.8666 28.156H56.1166C55.9928 28.156 55.8741 28.1068 55.7866 28.0193C55.6991 27.9318 55.6499 27.8131 55.6499 27.6893C55.6499 27.5655 55.6991 27.4468 55.7866 27.3593C55.8741 27.2718 55.9928 27.2226 56.1166 27.2226H64.8666C64.9903 27.2226 65.109 27.2718 65.1966 27.3593C65.2841 27.4468 65.3332 27.5655 65.3332 27.6893C65.3332 27.8131 65.2841 27.9318 65.1966 28.0193C65.109 28.1068 64.9903 28.156 64.8666 28.156Z" fill="black"/>
<path d="M60.4911 55.308C60.3673 55.308 60.2486 55.2589 60.1611 55.1714C60.0736 55.0838 60.0244 54.9651 60.0244 54.8414V27.6893C60.0244 27.5655 60.0736 27.4468 60.1611 27.3593C60.2486 27.2718 60.3673 27.2226 60.4911 27.2226C60.6149 27.2226 60.7336 27.2718 60.8211 27.3593C60.9086 27.4468 60.9578 27.5655 60.9578 27.6893V54.8414C60.9578 54.9651 60.9086 55.0838 60.8211 55.1714C60.7336 55.2589 60.6149 55.308 60.4911 55.308Z" fill="black"/>
<path d="M62.7771 60.6923C62.6796 60.6923 62.5846 60.6616 62.5055 60.6046C61.9427 60.145 61.2395 59.8917 60.5128 59.887C59.7861 59.8822 59.0797 60.1262 58.5109 60.5784C58.4171 60.658 58.2957 60.6974 58.1731 60.688C58.0505 60.6786 57.9365 60.6211 57.856 60.5281C57.7755 60.4351 57.735 60.3141 57.7432 60.1914C57.7515 60.0687 57.8078 59.9542 57.9 59.8728C58.63 59.2892 59.5356 58.969 60.4702 58.9642C61.4048 58.9594 62.3137 59.2702 63.0497 59.8462C63.1301 59.9038 63.1901 59.9855 63.2211 60.0794C63.2521 60.1733 63.2525 60.2746 63.2221 60.3687C63.1918 60.4628 63.1324 60.5449 63.0524 60.6031C62.9724 60.6612 62.876 60.6925 62.7771 60.6923Z" fill="black"/>
</svg>
