<svg width="10" height="16" viewBox="0 0 10 16" fill="none" xmlns="http://www.w3.org/2000/svg">
<path d="M8.71493 0H1.28507C0.574002 0 0 0.522411 0 1.16551V14.8357C0 15.4782 0.574002 16 1.28507 16H8.71493C9.42471 16 10 15.4782 10 14.8357V1.16551C10 0.522411 9.42471 0 8.71493 0ZM3.16667 0.70782H6.83462C6.92729 0.70782 7.00257 0.833175 7.00257 0.988266C7.00257 1.14336 6.92729 1.2693 6.83462 1.2693H3.16667C3.07336 1.2693 2.99936 1.14336 2.99936 0.988266C2.99936 0.833175 3.07336 0.70782 3.16667 0.70782ZM5.00064 14.8496C4.54826 14.8496 4.18018 14.5161 4.18018 14.1057C4.18018 13.6952 4.54826 13.3629 5.00064 13.3629C5.45174 13.3629 5.81982 13.6952 5.81982 14.1057C5.81982 14.5161 5.45174 14.8496 5.00064 14.8496ZM9.03732 12.3023H0.96332V1.96662H9.03732V12.3023Z" fill="#ADB1B2"/>
</svg>
