<svg width="70" height="70" viewBox="0 0 70 70" fill="none" xmlns="http://www.w3.org/2000/svg">
<path fill-rule="evenodd" clip-rule="evenodd" d="M35.375 4.88455L9.1305 20.2246V50.9276L35.375 66.2676L60.8696 50.9339V20.2183L35.375 4.88455ZM61.6305 19.788L35.3805 4L8.36963 19.788V51.3641L35.3805 67.1522L61.6305 51.3641V19.788Z" fill="black"/>
<path fill-rule="evenodd" clip-rule="evenodd" d="M35.3205 9.44931L12.9347 22.5077V48.6445L35.3205 61.7029L57.0651 48.6508V22.5014L35.3205 9.44931ZM57.826 22.0707L35.326 8.56522L12.1738 22.0707V49.0815L35.326 62.587L57.826 49.0815V22.0707Z" fill="black"/>
<path d="M22.7073 29.4297C22.4418 29.4297 22.2218 29.3762 22.0474 29.2692C21.877 29.1622 21.7423 29.0195 21.6432 28.8412C21.5402 28.6668 21.4689 28.4647 21.4292 28.2349C21.3896 28.0011 21.3698 27.7593 21.3698 27.5097V27.3313C21.3698 27.0856 21.3896 26.8479 21.4292 26.618C21.4728 26.3882 21.5461 26.1841 21.6492 26.0058C21.7483 25.8274 21.883 25.6848 22.0534 25.5778C22.2238 25.4708 22.4398 25.4173 22.7013 25.4173C22.8796 25.4173 23.0441 25.449 23.1947 25.5124C23.3453 25.5718 23.4741 25.6531 23.5811 25.7561C23.6881 25.8591 23.7693 25.982 23.8248 26.1247C23.8803 26.2673 23.904 26.4179 23.8961 26.5764H25.4535C25.4615 26.196 25.398 25.8532 25.2633 25.5481C25.1286 25.239 24.9403 24.9754 24.6986 24.7575C24.4529 24.5435 24.1616 24.377 23.8248 24.2581C23.4879 24.1393 23.1214 24.0798 22.7251 24.0798C22.2297 24.0798 21.7938 24.165 21.4174 24.3354C21.0448 24.5058 20.7318 24.7377 20.4782 25.0309C20.2245 25.3242 20.0343 25.6689 19.9075 26.0652C19.7807 26.4575 19.7173 26.8796 19.7173 27.3313V27.5097C19.7173 27.9614 19.7807 28.3855 19.9075 28.7818C20.0383 29.1741 20.2305 29.5169 20.4841 29.8101C20.7338 30.1034 21.0468 30.3352 21.4233 30.5056C21.7998 30.672 22.2377 30.7553 22.737 30.7553C23.1055 30.7553 23.4543 30.6978 23.7832 30.5829C24.1161 30.464 24.4073 30.3015 24.657 30.0954C24.9067 29.8894 25.1028 29.6437 25.2455 29.3584C25.3921 29.073 25.4615 28.7639 25.4535 28.431H23.8961C23.904 28.5816 23.8763 28.7183 23.8129 28.8412C23.7535 28.964 23.6683 29.0691 23.5573 29.1562C23.4463 29.2434 23.3175 29.3108 23.1709 29.3584C23.0243 29.4059 22.8697 29.4297 22.7073 29.4297Z" fill="black"/>
<path d="M27.9195 27.3551V27.48C27.9195 27.9515 27.9868 28.3875 28.1216 28.7877C28.2563 29.184 28.4544 29.5288 28.716 29.822C28.9736 30.1153 29.2906 30.3451 29.6671 30.5115C30.0475 30.674 30.4795 30.7553 30.9629 30.7553C31.4424 30.7553 31.8704 30.674 32.2469 30.5115C32.6234 30.3451 32.9404 30.1153 33.198 29.822C33.4556 29.5288 33.6517 29.184 33.7865 28.7877C33.9212 28.3875 33.9886 27.9515 33.9886 27.48V27.3551C33.9886 26.8875 33.9212 26.4556 33.7865 26.0593C33.6517 25.659 33.4556 25.3123 33.198 25.019C32.9364 24.7258 32.6174 24.4959 32.241 24.3295C31.8645 24.163 31.4345 24.0798 30.951 24.0798C30.4676 24.0798 30.0376 24.163 29.6611 24.3295C29.2886 24.4959 28.9736 24.7258 28.716 25.019C28.4544 25.3123 28.2563 25.659 28.1216 26.0593C27.9868 26.4556 27.9195 26.8875 27.9195 27.3551ZM29.572 27.48V27.3551C29.572 27.0936 29.5977 26.8459 29.6492 26.6121C29.7008 26.3783 29.782 26.1722 29.893 25.9939C30.0039 25.8156 30.1466 25.6749 30.321 25.5718C30.4953 25.4688 30.7054 25.4173 30.951 25.4173C31.2007 25.4173 31.4127 25.4688 31.5871 25.5718C31.7615 25.6749 31.9041 25.8156 32.0151 25.9939C32.1221 26.1722 32.2013 26.3783 32.2528 26.6121C32.3044 26.8459 32.3301 27.0936 32.3301 27.3551V27.48C32.3301 27.7494 32.3044 28.0031 32.2528 28.2408C32.2013 28.4746 32.1221 28.6787 32.0151 28.8531C31.9041 29.0314 31.7615 29.1721 31.5871 29.2751C31.4127 29.3782 31.2047 29.4297 30.9629 29.4297C30.7133 29.4297 30.4993 29.3782 30.321 29.2751C30.1466 29.1721 30.0039 29.0314 29.893 28.8531C29.782 28.6787 29.7008 28.4746 29.6492 28.2408C29.5977 28.0031 29.572 27.7494 29.572 27.48Z" fill="black"/>
<path d="M36.4545 33.1033H38.107V30.0717C38.1823 30.1549 38.2616 30.2302 38.3448 30.2975C38.428 30.3649 38.5152 30.4263 38.6063 30.4818C38.7609 30.569 38.9273 30.6344 39.1057 30.678C39.288 30.7255 39.4861 30.7493 39.7001 30.7493C40.1043 30.7493 40.4629 30.6661 40.776 30.4997C41.0891 30.3332 41.3526 30.1034 41.5666 29.8101C41.7766 29.5208 41.9352 29.1761 42.0421 28.7758C42.1531 28.3756 42.2086 27.9416 42.2086 27.474V27.3492C42.2086 26.8617 42.1531 26.4179 42.0421 26.0177C41.9352 25.6134 41.7747 25.2667 41.5607 24.9774C41.3467 24.6921 41.0831 24.4721 40.7701 24.3176C40.457 24.1591 40.0964 24.0798 39.6882 24.0798C39.4901 24.0798 39.3038 24.1016 39.1294 24.1452C38.959 24.1848 38.8025 24.2423 38.6598 24.3176C38.541 24.381 38.43 24.4563 38.327 24.5435C38.2239 24.6267 38.1288 24.7218 38.0416 24.8288L37.9822 24.1987H36.4545V33.1033ZM40.5561 27.3492V27.474C40.5561 27.7395 40.5323 27.9912 40.4847 28.2289C40.4372 28.4627 40.3619 28.6688 40.2589 28.8471C40.1558 29.0255 40.0211 29.1662 39.8546 29.2692C39.6922 29.3722 39.494 29.4237 39.2602 29.4237C39.1136 29.4237 38.9808 29.4099 38.862 29.3821C38.7431 29.3504 38.6381 29.3068 38.5469 29.2514C38.4518 29.1919 38.3666 29.1206 38.2913 29.0374C38.22 28.9541 38.1585 28.861 38.107 28.758V26.0712C38.1625 25.9602 38.2279 25.8631 38.3032 25.7799C38.3824 25.6967 38.4736 25.6273 38.5766 25.5718C38.6678 25.5243 38.7688 25.4886 38.8798 25.4648C38.9907 25.4371 39.1136 25.4232 39.2483 25.4232C39.4821 25.4232 39.6803 25.4728 39.8428 25.5718C40.0092 25.6709 40.1459 25.8056 40.2529 25.976C40.356 26.1504 40.4312 26.3565 40.4788 26.5943C40.5303 26.8281 40.5561 27.0797 40.5561 27.3492Z" fill="black"/>
<path d="M47.5634 29.4297C47.2979 29.4297 47.078 29.3762 46.9036 29.2692C46.7332 29.1622 46.5985 29.0195 46.4994 28.8412C46.3964 28.6668 46.3251 28.4647 46.2854 28.2349C46.2458 28.0011 46.226 27.7593 46.226 27.5097V27.3313C46.226 27.0856 46.2458 26.8479 46.2854 26.618C46.329 26.3882 46.4023 26.1841 46.5054 26.0058C46.6044 25.8274 46.7392 25.6848 46.9096 25.5778C47.08 25.4708 47.296 25.4173 47.5575 25.4173C47.7358 25.4173 47.9003 25.449 48.0509 25.5124C48.2015 25.5718 48.3303 25.6531 48.4373 25.7561C48.5443 25.8591 48.6255 25.982 48.681 26.1247C48.7365 26.2673 48.7602 26.4179 48.7523 26.5764H50.3097C50.3176 26.196 50.2542 25.8532 50.1195 25.5481C49.9848 25.239 49.7965 24.9754 49.5548 24.7575C49.3091 24.5435 49.0178 24.377 48.681 24.2581C48.3441 24.1393 47.9776 24.0798 47.5813 24.0798C47.0859 24.0798 46.65 24.165 46.2735 24.3354C45.901 24.5058 45.588 24.7377 45.3343 25.0309C45.0807 25.3242 44.8905 25.6689 44.7637 26.0652C44.6369 26.4575 44.5735 26.8796 44.5735 27.3313V27.5097C44.5735 27.9614 44.6369 28.3855 44.7637 28.7818C44.8945 29.1741 45.0867 29.5169 45.3403 29.8101C45.5899 30.1034 45.903 30.3352 46.2795 30.5056C46.656 30.672 47.0938 30.7553 47.5932 30.7553C47.9617 30.7553 48.3104 30.6978 48.6394 30.5829C48.9722 30.464 49.2635 30.3015 49.5132 30.0954C49.7628 29.8894 49.959 29.6437 50.1017 29.3584C50.2483 29.073 50.3176 28.7639 50.3097 28.431H48.7523C48.7602 28.5816 48.7325 28.7183 48.6691 28.8412C48.6096 28.964 48.5244 29.0691 48.4135 29.1562C48.3025 29.2434 48.1737 29.3108 48.0271 29.3584C47.8805 29.4059 47.7259 29.4297 47.5634 29.4297Z" fill="black"/>
<path d="M8.36963 35.9565C8.36963 35.5363 8.71028 35.1956 9.1305 35.1956H60.8696C61.2898 35.1956 61.6305 35.5363 61.6305 35.9565V51.1739C61.6305 51.5941 61.2898 51.9348 60.8696 51.9348H9.1305C8.71028 51.9348 8.36963 51.5941 8.36963 51.1739V35.9565Z" fill="#FEDD15"/>
<path fill-rule="evenodd" clip-rule="evenodd" d="M9.13043 51.1739V38.2391H0L4.18478 46.4058L0 54.2174H14.4565L9.13043 51.1739ZM11.5914 53.4565L8.36957 51.6155V39H1.24483L5.04375 46.4137L1.27078 53.4565H11.5914Z" fill="black"/>
<path fill-rule="evenodd" clip-rule="evenodd" d="M60.8696 51.1739V38.2391H70L65.8152 46.4058L70 54.2174H55.5435L60.8696 51.1739ZM58.4086 53.4565L61.6304 51.6155V39H68.7552L64.9562 46.4137L68.7292 53.4565H58.4086Z" fill="black"/>
<rect x="27" y="40" width="14" height="2" fill="white"/>
<rect x="18" y="44" width="32" height="2" fill="white"/>
</svg>
