<svg width="70" height="70" viewBox="0 0 70 70" fill="none" xmlns="http://www.w3.org/2000/svg">
<path d="M35.0001 53.3334C31.3741 53.3328 27.8297 52.2569 24.8152 50.2419C21.8006 48.2268 19.4513 45.3631 18.0642 42.0128C16.6772 38.6626 16.3148 34.9763 17.0228 31.4201C17.7309 27.8638 19.4776 24.5974 22.042 22.0339C24.6064 19.4704 27.8734 17.7249 31.4299 17.0181C34.9864 16.3113 38.6726 16.6751 42.0223 18.0633C45.3721 19.4515 48.235 21.8019 50.2489 24.8171C52.2629 27.8324 53.3375 31.3772 53.3369 35.0032C53.3313 39.8641 51.3974 44.5242 47.9596 47.9608C44.5218 51.3974 39.861 53.3296 35.0001 53.3334ZM35.0001 17.5998C31.559 17.6005 28.1953 18.6214 25.3344 20.5336C22.4734 22.4458 20.2437 25.1634 18.9271 28.3427C17.6106 31.522 17.2663 35.0204 17.9378 38.3953C18.6093 41.7703 20.2664 44.8704 22.6996 47.3037C25.1329 49.737 28.233 51.3941 31.608 52.0656C34.983 52.7371 38.4813 52.3928 41.6606 51.0762C44.84 49.7596 47.5575 47.5299 49.4697 44.669C51.3819 41.808 52.4029 38.4444 52.4035 35.0032C52.3992 30.3889 50.5642 25.9648 47.3014 22.7019C44.0386 19.4391 39.6145 17.6041 35.0001 17.5998Z" fill="black"/>
<path d="M34.9999 17.5997C34.8761 17.5997 34.7574 17.5505 34.6699 17.463C34.5824 17.3755 34.5332 17.2568 34.5332 17.133V11.9413C34.5332 11.8176 34.5824 11.6989 34.6699 11.6114C34.7574 11.5238 34.8761 11.4747 34.9999 11.4747C35.1236 11.4747 35.2423 11.5238 35.3299 11.6114C35.4174 11.6989 35.4665 11.8176 35.4665 11.9413V17.133C35.4665 17.2568 35.4174 17.3755 35.3299 17.463C35.2423 17.5505 35.1236 17.5997 34.9999 17.5997Z" fill="black"/>
<path d="M35.0004 12.4082C34.2347 12.4083 33.4863 12.1813 32.8496 11.756C32.213 11.3308 31.7168 10.7262 31.4237 10.0189C31.1306 9.31157 31.0539 8.53322 31.2032 7.78229C31.3525 7.03136 31.7212 6.34157 32.2625 5.80016C32.8039 5.25874 33.4936 4.89002 34.2445 4.74061C34.9955 4.59121 35.7738 4.66784 36.4812 4.96082C37.1885 5.25379 37.7931 5.74995 38.2185 6.38654C38.6439 7.02313 38.8709 7.77157 38.8709 8.5372C38.8703 9.56359 38.4623 10.5478 37.7366 11.2736C37.0109 11.9994 36.0268 12.4075 35.0004 12.4082Z" fill="#FEDD15"/>
<path d="M35.0004 12.4082C34.2347 12.4083 33.4863 12.1813 32.8496 11.756C32.213 11.3308 31.7168 10.7262 31.4237 10.0189C31.1306 9.31157 31.0539 8.53322 31.2032 7.78229C31.3525 7.03136 31.7212 6.34157 32.2625 5.80016C32.8039 5.25874 33.4936 4.89002 34.2445 4.74061C34.9955 4.59121 35.7738 4.66784 36.4812 4.96082C37.1885 5.25379 37.7931 5.74995 38.2185 6.38654C38.6439 7.02313 38.8709 7.77157 38.8709 8.5372C38.8703 9.56359 38.4623 10.5478 37.7366 11.2736C37.0109 11.9994 36.0268 12.4075 35.0004 12.4082ZM35.0004 5.6C34.4193 5.59991 33.8513 5.77213 33.3681 6.09489C32.885 6.41765 32.5084 6.87645 32.2859 7.41326C32.0635 7.95006 32.0053 8.54077 32.1187 9.11066C32.232 9.68056 32.5118 10.204 32.9227 10.6149C33.3335 11.0258 33.857 11.3056 34.4269 11.4189C34.9968 11.5322 35.5875 11.474 36.1243 11.2516C36.6611 11.0292 37.1199 10.6526 37.4427 10.1695C37.7654 9.68629 37.9377 9.11826 37.9376 8.5372C37.9368 7.75844 37.6271 7.01178 37.0765 6.46111C36.5258 5.91043 35.7791 5.60074 35.0004 5.6Z" fill="black"/>
<path d="M34.9999 58.5252C34.8761 58.5252 34.7574 58.476 34.6699 58.3885C34.5824 58.301 34.5332 58.1823 34.5332 58.0585V52.8668C34.5332 52.743 34.5824 52.6243 34.6699 52.5368C34.7574 52.4493 34.8761 52.4001 34.9999 52.4001C35.1236 52.4001 35.2423 52.4493 35.3299 52.5368C35.4174 52.6243 35.4665 52.743 35.4665 52.8668V58.0585C35.4665 58.1823 35.4174 58.301 35.3299 58.3885C35.2423 58.476 35.1236 58.5252 34.9999 58.5252Z" fill="black"/>
<path d="M35.0004 65.3335C34.2347 65.3336 33.4862 65.1066 32.8496 64.6813C32.2129 64.256 31.7167 63.6515 31.4237 62.9441C31.1306 62.2368 31.0539 61.4584 31.2033 60.7074C31.3526 59.9565 31.7213 59.2667 32.2627 58.7253C32.8041 58.1839 33.4939 57.8152 34.2448 57.6659C34.9958 57.5165 35.7741 57.5932 36.4815 57.8863C37.1888 58.1793 37.7934 58.6755 38.2187 59.3122C38.644 59.9489 38.871 60.6973 38.8709 61.463C38.8702 62.4893 38.4621 63.4733 37.7364 64.199C37.0107 64.9247 36.0267 65.3328 35.0004 65.3335Z" fill="#FEDD15"/>
<path d="M35.0004 65.3335C34.2347 65.3336 33.4862 65.1066 32.8496 64.6813C32.2129 64.256 31.7167 63.6515 31.4237 62.9441C31.1306 62.2368 31.0539 61.4584 31.2033 60.7074C31.3526 59.9565 31.7213 59.2667 32.2627 58.7253C32.8041 58.1839 33.4939 57.8152 34.2448 57.6659C34.9958 57.5165 35.7741 57.5932 36.4815 57.8863C37.1888 58.1793 37.7934 58.6755 38.2187 59.3122C38.644 59.9489 38.871 60.6973 38.8709 61.463C38.8702 62.4893 38.4621 63.4733 37.7364 64.199C37.0107 64.9247 36.0267 65.3328 35.0004 65.3335ZM35.0004 58.5253C34.4193 58.5252 33.8513 58.6974 33.3682 59.0202C32.885 59.3429 32.5084 59.8017 32.286 60.3385C32.0636 60.8752 32.0053 61.4659 32.1186 62.0358C32.2319 62.6057 32.5117 63.1292 32.9225 63.5401C33.3333 63.951 33.8568 64.2308 34.4266 64.3442C34.9965 64.4576 35.5872 64.3994 36.124 64.1771C36.6608 63.9547 37.1196 63.5782 37.4425 63.0951C37.7653 62.612 37.9376 62.044 37.9376 61.463C37.9369 60.6841 37.6273 59.9374 37.0766 59.3866C36.5259 58.8358 35.7792 58.5261 35.0004 58.5253Z" fill="black"/>
<path d="M47.633 22.8367C47.5407 22.8368 47.4505 22.8095 47.3737 22.7582C47.2969 22.707 47.237 22.6341 47.2016 22.5488C47.1663 22.4635 47.157 22.3697 47.175 22.2791C47.1929 22.1886 47.2374 22.1054 47.3026 22.0401L50.9725 18.3651C51.0601 18.2775 51.1788 18.2283 51.3027 18.2283C51.364 18.2283 51.4247 18.2404 51.4814 18.2639C51.538 18.2873 51.5895 18.3217 51.6328 18.3651C51.6762 18.4085 51.7106 18.4599 51.7341 18.5166C51.7575 18.5732 51.7696 18.6339 51.7696 18.6953C51.7696 18.7566 51.7575 18.8173 51.7341 18.8739C51.7106 18.9306 51.6762 18.9821 51.6328 19.0254L47.963 22.7C47.8755 22.7875 47.7568 22.8367 47.633 22.8367Z" fill="black"/>
<path d="M53.7131 20.1602C52.8169 20.1605 51.9484 19.8501 51.2554 19.2817C50.5625 18.7134 50.0881 17.9224 49.913 17.0435C49.7379 16.1646 49.8731 15.2522 50.2953 14.4617C50.7176 13.6713 51.4009 13.0517 52.2288 12.7086C53.0567 12.3655 53.978 12.3201 54.8356 12.5801C55.6932 12.8402 56.4341 13.3896 56.9321 14.1347C57.43 14.8798 57.6542 15.7745 57.5664 16.6663C57.4786 17.5582 57.0843 18.392 56.4506 19.0257C56.0919 19.3864 55.6653 19.6723 55.1954 19.867C54.7256 20.0618 54.2217 20.1614 53.7131 20.1602Z" fill="#FEDD15"/>
<path d="M53.7131 20.1602C52.8169 20.1605 51.9484 19.8501 51.2554 19.2817C50.5625 18.7134 50.0881 17.9224 49.913 17.0435C49.7379 16.1646 49.8731 15.2522 50.2953 14.4617C50.7176 13.6713 51.4009 13.0517 52.2288 12.7086C53.0567 12.3655 53.978 12.3201 54.8356 12.5801C55.6932 12.8402 56.4341 13.3896 56.9321 14.1347C57.43 14.8798 57.6542 15.7745 57.5664 16.6663C57.4786 17.5582 57.0843 18.392 56.4506 19.0257C56.0919 19.3864 55.6653 19.6723 55.1954 19.867C54.7256 20.0618 54.2217 20.1614 53.7131 20.1602ZM53.7131 13.3529C52.9406 13.3627 52.203 13.6764 51.6602 14.2261C51.1173 14.7758 50.8129 15.5173 50.8129 16.2899C50.8129 17.0625 51.1173 17.8039 51.6602 18.3537C52.203 18.9034 52.9406 19.2171 53.7131 19.2269C54.0989 19.2276 54.481 19.1519 54.8374 19.0042C55.1937 18.8564 55.5173 18.6394 55.7893 18.3658C56.2005 17.9553 56.4806 17.4321 56.5942 16.8623C56.7078 16.2925 56.6498 15.7018 56.4275 15.165C56.2052 14.6282 55.8286 14.1694 55.3454 13.8467C54.8622 13.5241 54.2941 13.3521 53.7131 13.3524V13.3529Z" fill="black"/>
<path d="M18.6931 51.771C18.6008 51.7709 18.5106 51.7436 18.4339 51.6923C18.3572 51.641 18.2974 51.5681 18.2621 51.4829C18.2268 51.3976 18.2175 51.3038 18.2355 51.2133C18.2535 51.1228 18.298 51.0396 18.3632 50.9744L22.0377 47.2998C22.0808 47.2552 22.1323 47.2197 22.1892 47.1952C22.2461 47.1708 22.3074 47.1579 22.3693 47.1574C22.4313 47.1568 22.4928 47.1686 22.5501 47.1921C22.6075 47.2156 22.6596 47.2502 22.7034 47.294C22.7472 47.3378 22.7819 47.39 22.8053 47.4473C22.8288 47.5047 22.8406 47.5661 22.84 47.6281C22.8395 47.69 22.8266 47.7513 22.8022 47.8082C22.7777 47.8651 22.7422 47.9166 22.6976 47.9597L19.0231 51.6347C18.9355 51.722 18.8168 51.7711 18.6931 51.771Z" fill="black"/>
<path d="M16.2867 57.5806C15.3917 57.58 14.5246 57.269 13.8332 56.7007C13.1417 56.1324 12.6687 55.342 12.4947 54.4641C12.3207 53.5862 12.4565 52.6751 12.8789 51.886C13.3013 51.097 13.9843 50.4788 14.8114 50.1368C15.6385 49.7949 16.5585 49.7502 17.4148 50.0106C18.2711 50.2709 19.0107 50.8201 19.5075 51.5645C20.0043 52.309 20.2276 53.2026 20.1394 54.0933C20.0512 54.9839 19.6569 55.8164 19.0237 56.449C18.6645 56.8086 18.2378 57.0937 17.7681 57.2879C17.2984 57.4821 16.795 57.5816 16.2867 57.5806Z" fill="#FEDD15"/>
<path d="M16.2867 57.5806C15.3917 57.58 14.5246 57.269 13.8332 56.7007C13.1417 56.1324 12.6687 55.342 12.4947 54.4641C12.3207 53.5862 12.4565 52.6751 12.8789 51.886C13.3013 51.097 13.9843 50.4788 14.8114 50.1368C15.6385 49.7949 16.5585 49.7502 17.4148 50.0106C18.2711 50.2709 19.0107 50.8201 19.5075 51.5645C20.0043 52.309 20.2276 53.2026 20.1394 54.0933C20.0512 54.9839 19.6569 55.8164 19.0237 56.449C18.6645 56.8086 18.2378 57.0937 17.7681 57.2879C17.2984 57.4821 16.795 57.5816 16.2867 57.5806ZM16.2867 50.7752C15.8037 50.7752 15.3281 50.8944 14.9021 51.1221C14.4761 51.3498 14.1128 51.679 13.8444 52.0807C13.5761 52.4823 13.4109 52.9439 13.3636 53.4246C13.3163 53.9054 13.3882 54.3903 13.5731 54.8366C13.758 55.2829 14.0501 55.6766 14.4235 55.983C14.7969 56.2895 15.2401 56.499 15.7139 56.5932C16.1877 56.6874 16.6774 56.6633 17.1396 56.5231C17.6018 56.3828 18.0223 56.1307 18.3638 55.7891C18.7754 55.3785 19.0558 54.8549 19.1696 54.2848C19.2834 53.7147 19.2254 53.1236 19.0029 52.5865C18.7805 52.0493 18.4036 51.5903 17.9201 51.2675C17.4365 50.9448 16.8681 50.7728 16.2867 50.7734V50.7752Z" fill="black"/>
<path d="M17.1356 35.4664H11.9383C11.8146 35.4664 11.6959 35.4173 11.6084 35.3298C11.5208 35.2422 11.4717 35.1235 11.4717 34.9998C11.4717 34.876 11.5208 34.7573 11.6084 34.6698C11.6959 34.5823 11.8146 34.5331 11.9383 34.5331H17.1356C17.2594 34.5331 17.3781 34.5823 17.4656 34.6698C17.5531 34.7573 17.6023 34.876 17.6023 34.9998C17.6023 35.1235 17.5531 35.2422 17.4656 35.3298C17.3781 35.4173 17.2594 35.4664 17.1356 35.4664Z" fill="black"/>
<path d="M8.53655 38.8704C7.77103 38.8704 7.0227 38.6434 6.3862 38.2181C5.74969 37.7928 5.2536 37.1883 4.96064 36.4811C4.66769 35.7738 4.59104 34.9956 4.74039 34.2448C4.88973 33.494 5.25837 32.8043 5.79967 32.263C6.34097 31.7217 7.03064 31.3531 7.78145 31.2037C8.53226 31.0544 9.31049 31.131 10.0177 31.424C10.725 31.7169 11.3295 32.213 11.7548 32.8495C12.1801 33.486 12.4071 34.2344 12.4071 34.9999C12.4063 36.0262 11.9983 37.0102 11.2726 37.7359C10.5469 38.4616 9.56285 38.8697 8.53655 38.8704Z" fill="#FEDD15"/>
<path d="M8.53655 38.8704C7.77103 38.8704 7.0227 38.6434 6.3862 38.2181C5.74969 37.7928 5.2536 37.1883 4.96064 36.4811C4.66769 35.7738 4.59104 34.9956 4.74039 34.2448C4.88973 33.494 5.25837 32.8043 5.79967 32.263C6.34097 31.7217 7.03064 31.3531 7.78145 31.2037C8.53226 31.0544 9.31049 31.131 10.0177 31.424C10.725 31.7169 11.3295 32.213 11.7548 32.8495C12.1801 33.486 12.4071 34.2344 12.4071 34.9999C12.4063 36.0262 11.9983 37.0102 11.2726 37.7359C10.5469 38.4616 9.56285 38.8697 8.53655 38.8704ZM8.53655 32.0627C7.95563 32.0627 7.38775 32.2349 6.90473 32.5577C6.42171 32.8804 6.04524 33.3391 5.82293 33.8759C5.60062 34.4126 5.54246 35.0031 5.65579 35.5729C5.76912 36.1426 6.04886 36.666 6.45964 37.0768C6.87041 37.4876 7.39377 37.7673 7.96353 37.8806C8.53329 37.994 9.12387 37.9358 9.66057 37.7135C10.1973 37.4912 10.656 37.1147 10.9787 36.6317C11.3015 36.1487 11.4738 35.5808 11.4738 34.9999C11.473 34.2211 11.1633 33.4744 10.6126 32.9238C10.062 32.3731 9.31532 32.0634 8.53655 32.0627Z" fill="black"/>
<path d="M58.0565 35.4664H52.8695C52.7457 35.4664 52.627 35.4173 52.5395 35.3298C52.452 35.2422 52.4028 35.1235 52.4028 34.9998C52.4028 34.876 52.452 34.7573 52.5395 34.6698C52.627 34.5823 52.7457 34.5331 52.8695 34.5331H58.0565C58.1803 34.5331 58.299 34.5823 58.3865 34.6698C58.474 34.7573 58.5232 34.876 58.5232 34.9998C58.5232 35.1235 58.474 35.2422 58.3865 35.3298C58.299 35.4173 58.1803 35.4664 58.0565 35.4664Z" fill="black"/>
<path d="M61.4628 38.8704C60.6973 38.8704 59.949 38.6434 59.3125 38.2181C58.676 37.7928 58.1799 37.1883 57.8869 36.4811C57.594 35.7738 57.5173 34.9956 57.6667 34.2448C57.816 33.494 58.1846 32.8043 58.7259 32.263C59.2672 31.7217 59.9569 31.3531 60.7077 31.2037C61.4585 31.0544 62.2368 31.131 62.944 31.424C63.6513 31.7169 64.2557 32.213 64.681 32.8495C65.1063 33.486 65.3334 34.2344 65.3334 34.9999C65.3326 36.0262 64.9246 37.0102 64.1989 37.7359C63.4732 38.4616 62.4891 38.8697 61.4628 38.8704Z" fill="#FEDD15"/>
<path d="M61.4628 38.8704C60.6973 38.8704 59.949 38.6434 59.3125 38.2181C58.676 37.7928 58.1799 37.1883 57.8869 36.4811C57.594 35.7738 57.5173 34.9956 57.6667 34.2448C57.816 33.494 58.1846 32.8043 58.7259 32.263C59.2672 31.7217 59.9569 31.3531 60.7077 31.2037C61.4585 31.0544 62.2368 31.131 62.944 31.424C63.6513 31.7169 64.2557 32.213 64.681 32.8495C65.1063 33.486 65.3334 34.2344 65.3334 34.9999C65.3326 36.0262 64.9246 37.0102 64.1989 37.7359C63.4732 38.4616 62.4891 38.8697 61.4628 38.8704ZM61.4628 32.0627C60.8819 32.0627 60.314 32.2349 59.831 32.5577C59.348 32.8804 58.9715 33.3391 58.7492 33.8759C58.5269 34.4126 58.4687 35.0031 58.5821 35.5729C58.6954 36.1426 58.9751 36.666 59.3859 37.0768C59.7967 37.4876 60.32 37.7673 60.8898 37.8806C61.4596 37.994 62.0501 37.9358 62.5868 37.7135C63.1235 37.4912 63.5823 37.1147 63.905 36.6317C64.2278 36.1487 64.4 35.5808 64.4 34.9999C64.3993 34.2211 64.0896 33.4744 63.5389 32.9238C62.9882 32.3731 62.2416 32.0634 61.4628 32.0627Z" fill="black"/>
<path d="M22.3683 22.8369C22.2446 22.8369 22.1259 22.7877 22.0384 22.7002L18.3639 19.0256C18.3205 18.9823 18.2861 18.9309 18.2626 18.8742C18.2392 18.8176 18.2271 18.7569 18.2271 18.6956C18.227 18.6343 18.2391 18.5736 18.2625 18.517C18.286 18.4604 18.3203 18.4089 18.3636 18.3655C18.407 18.3222 18.4584 18.2878 18.515 18.2643C18.5717 18.2408 18.6324 18.2287 18.6936 18.2287C18.7549 18.2287 18.8156 18.2407 18.8723 18.2642C18.9289 18.2876 18.9804 18.322 19.0237 18.3653L22.6983 22.0403C22.7635 22.1056 22.808 22.1887 22.826 22.2792C22.844 22.3697 22.8347 22.4635 22.7994 22.5488C22.7641 22.6341 22.7043 22.7069 22.6276 22.7582C22.5508 22.8095 22.4606 22.8369 22.3683 22.8369Z" fill="black"/>
<path d="M16.2868 20.1602C15.6502 20.1602 15.0235 20.0033 14.4621 19.7032C13.9007 19.4032 13.422 18.9693 13.0683 18.44C12.7147 17.9108 12.497 17.3024 12.4347 16.669C12.3723 16.0355 12.4671 15.3964 12.7107 14.8083C12.9543 14.2202 13.3392 13.7013 13.8313 13.2975C14.3234 12.8937 14.9074 12.6175 15.5318 12.4934C16.1561 12.3693 16.8014 12.401 17.4105 12.5859C18.0196 12.7707 18.5737 13.1029 19.0238 13.5531C19.5652 14.0943 19.9339 14.784 20.0833 15.5348C20.2327 16.2857 20.1561 17.064 19.8631 17.7712C19.5701 18.4785 19.0739 19.083 18.4373 19.5082C17.8008 19.9335 17.0523 20.1603 16.2868 20.1602Z" fill="#FEDD15"/>
<path d="M16.2868 20.1602C15.6502 20.1602 15.0235 20.0033 14.4621 19.7032C13.9007 19.4032 13.422 18.9693 13.0683 18.44C12.7147 17.9108 12.497 17.3025 12.4347 16.669C12.3723 16.0355 12.4671 15.3964 12.7107 14.8083C12.9543 14.2202 13.3392 13.7013 13.8313 13.2975C14.3234 12.8937 14.9074 12.6175 15.5318 12.4934C16.1561 12.3693 16.8014 12.401 17.4105 12.5859C18.0196 12.7707 18.5737 13.1029 19.0238 13.5531C19.5652 14.0943 19.9339 14.784 20.0833 15.5348C20.2327 16.2857 20.1561 17.064 19.8631 17.7712C19.5701 18.4785 19.0739 19.083 18.4373 19.5082C17.8008 19.9335 17.0523 20.1603 16.2868 20.1602ZM16.2868 13.3543C15.6076 13.3549 14.9496 13.5909 14.4249 14.0222C13.9003 14.4535 13.5414 15.0533 13.4094 15.7196C13.2774 16.3858 13.3805 17.0772 13.7011 17.6759C14.0217 18.2747 14.54 18.7437 15.1676 19.0032C15.7953 19.2627 16.4935 19.2965 17.1433 19.0989C17.7931 18.9013 18.3543 18.4845 18.7313 17.9196C19.1082 17.3546 19.2777 16.6764 19.2107 16.0006C19.1437 15.3247 18.8445 14.6929 18.3639 14.213C18.0914 13.9399 17.7676 13.7233 17.4112 13.5756C17.0547 13.4279 16.6726 13.3521 16.2868 13.3524V13.3543Z" fill="black"/>
<path d="M51.3029 51.7711C51.1792 51.7712 51.0605 51.7222 50.973 51.6349L47.3031 47.9598C47.2598 47.9165 47.2254 47.865 47.202 47.8084C47.1785 47.7517 47.1665 47.691 47.1665 47.6297C47.1665 47.506 47.2158 47.3872 47.3033 47.2997C47.3909 47.2122 47.5096 47.1631 47.6334 47.1631C47.7572 47.1632 47.8759 47.2124 47.9634 47.3L51.6333 50.9745C51.6986 51.0398 51.743 51.123 51.761 51.2136C51.779 51.3041 51.7697 51.398 51.7343 51.4832C51.699 51.5685 51.6391 51.6414 51.5623 51.6926C51.4855 51.7439 51.3952 51.7712 51.3029 51.7711Z" fill="black"/>
<path d="M53.7128 57.5806C52.6864 57.5806 51.7021 57.1729 50.9763 56.4471C50.2505 55.7213 49.8428 54.7369 49.8428 53.7105C49.8428 52.6841 50.2505 51.6998 50.9763 50.974C51.7021 50.2482 52.6864 49.8405 53.7128 49.8405C54.2212 49.8395 54.7246 49.9392 55.1942 50.134C55.6637 50.3287 56.09 50.6145 56.4484 50.9749C56.9901 51.516 57.359 52.2056 57.5085 52.9564C57.658 53.7072 57.5814 54.4855 57.2884 55.1928C56.9953 55.9001 56.499 56.5045 55.8623 56.9295C55.2255 57.3546 54.477 57.5812 53.7114 57.5806H53.7128Z" fill="#FEDD15"/>
<path d="M53.7128 57.5806C52.6864 57.5806 51.7021 57.1729 50.9763 56.4471C50.2505 55.7213 49.8428 54.7369 49.8428 53.7105C49.8428 52.6841 50.2505 51.6998 50.9763 50.974C51.7021 50.2482 52.6864 49.8405 53.7128 49.8405C54.2212 49.8395 54.7246 49.9392 55.1942 50.134C55.6637 50.3287 56.09 50.6145 56.4484 50.9749C56.9901 51.516 57.359 52.2056 57.5085 52.9564C57.658 53.7072 57.5814 54.4855 57.2884 55.1928C56.9953 55.9001 56.499 56.5045 55.8623 56.9295C55.2255 57.3546 54.477 57.5812 53.7114 57.5806H53.7128ZM53.7128 50.7738C53.0326 50.7735 52.3733 51.0091 51.8473 51.4405C51.3213 51.8719 50.9612 52.4723 50.8283 53.1394C50.6954 53.8065 50.798 54.4991 51.1185 55.0991C51.439 55.6991 51.9577 56.1694 52.5861 56.4298C53.2145 56.6902 53.9138 56.7247 54.5648 56.5273C55.2157 56.3299 55.7781 55.9129 56.1561 55.3473C56.534 54.7818 56.7042 54.1026 56.6375 53.4256C56.5708 52.7487 56.2715 52.1158 55.7905 51.6348C55.5183 51.361 55.1946 51.1438 54.8379 50.996C54.4813 50.8481 54.0989 50.7724 53.7128 50.7733V50.7738Z" fill="black"/>
<path d="M34.9698 37.8524C34.6894 37.8523 34.4102 37.8149 34.1396 37.7413C31.7475 37.088 30.8482 34.785 30.6816 34.2945C29.5467 32.8142 29.0856 31.5785 29.3101 30.62C29.3839 30.2845 29.5575 29.9791 29.808 29.744C29.1117 24.6574 32.5534 23.7875 32.5889 23.7791C35.065 23.1314 36.9569 23.2219 38.1991 24.0465C38.7523 24.4032 39.1686 24.9366 39.3803 25.5599C39.4964 25.6325 39.5994 25.7241 39.685 25.831C40.1475 26.398 40.308 27.476 40.1633 29.038C40.2846 29.0835 40.3948 29.1543 40.4867 29.2456C40.9394 29.6894 40.9609 30.5313 40.5549 31.894C40.2987 32.6701 39.8355 33.3616 39.2151 33.8936C39.0163 34.5264 38.2239 36.647 36.2961 37.557C35.8811 37.7519 35.4282 37.8528 34.9698 37.8524ZM35.4995 24.2892C34.5908 24.3069 33.688 24.4398 32.8129 24.6849C32.6925 24.7152 30.0511 25.4288 30.7712 29.8761C30.7873 29.9752 30.7709 30.0769 30.7246 30.166C30.6783 30.2552 30.6044 30.327 30.5141 30.3708C30.4335 30.4281 30.3653 30.5011 30.3135 30.5854C30.2617 30.6696 30.2274 30.7634 30.2126 30.8612C30.1333 31.2472 30.1911 32.1413 31.4693 33.7872C31.505 33.8332 31.5317 33.8854 31.5482 33.9412C31.5547 33.9632 32.2697 36.2643 34.3851 36.8406C34.8883 36.9796 35.4247 36.9343 35.8975 36.7128C37.7278 35.8485 38.3569 33.5063 38.3629 33.4825C38.3937 33.3641 38.4698 33.2625 38.5748 33.1997C39.0875 32.7913 39.4673 32.2399 39.6663 31.6154C40.091 30.1883 39.8367 29.913 39.8339 29.9106C39.7557 29.9341 39.6731 29.9384 39.5929 29.9232C39.5127 29.908 39.4374 29.8738 39.3733 29.8234C39.3099 29.7742 39.2597 29.7101 39.2271 29.6368C39.1945 29.5635 39.1806 29.4833 39.1866 29.4034C39.5025 26.8521 38.957 26.3971 38.8945 26.3551C38.8004 26.3357 38.7147 26.2878 38.6489 26.2179C38.583 26.148 38.5404 26.0595 38.5267 25.9645C38.4653 25.7243 38.3571 25.4985 38.2083 25.3002C38.0595 25.1018 37.8731 24.9348 37.6597 24.8086C37.0051 24.4299 36.2546 24.2494 35.4995 24.2892Z" fill="black"/>
<path d="M34.4788 46.6577C28.2722 46.6577 24.4376 45.1177 24.2 45.0202C24.1168 44.9858 24.0452 44.9281 23.9941 44.854C23.9429 44.7798 23.9143 44.6925 23.9116 44.6025C23.9238 42.963 24.4174 41.3633 25.3312 40.0021C25.8113 39.2502 26.5027 38.6569 27.3188 38.2964L32.4054 36.0238C32.4614 35.9988 32.5218 35.9851 32.583 35.9834C32.6443 35.9818 32.7053 35.9922 32.7626 36.0141C32.8198 36.0361 32.8722 36.0691 32.9167 36.1112C32.9612 36.1534 32.9969 36.2039 33.0219 36.2599C33.0469 36.3159 33.0606 36.3762 33.0622 36.4375C33.0639 36.4988 33.0534 36.5598 33.0315 36.617C33.0096 36.6743 32.9766 36.7266 32.9344 36.7711C32.8923 36.8156 32.8417 36.8514 32.7858 36.8764L27.6991 39.149C27.0506 39.4348 26.501 39.9055 26.119 40.5024C25.3705 41.6223 24.9309 42.9199 24.8445 44.2642C26.4228 44.8181 34.3211 47.2191 45.1548 44.2352C45.0628 42.9011 44.6238 41.6141 43.8812 40.5019C43.4992 39.9051 42.9495 39.4343 42.3011 39.1486L37.0264 36.7732C36.9705 36.748 36.9201 36.7121 36.8781 36.6674C36.8361 36.6228 36.8033 36.5703 36.7816 36.5129C36.7599 36.4556 36.7497 36.3946 36.7516 36.3333C36.7534 36.272 36.7674 36.2117 36.7926 36.1558C36.8177 36.0999 36.8537 36.0495 36.8984 36.0076C36.943 35.9656 36.9955 35.9328 37.0528 35.9111C37.1102 35.8893 37.1712 35.8791 37.2325 35.881C37.2938 35.8829 37.3541 35.8968 37.41 35.922L42.6833 38.2969C43.4987 38.6574 44.1896 39.2506 44.6694 40.0021C45.5832 41.3633 46.0769 42.963 46.089 44.6025C46.0862 44.7017 46.0518 44.7973 45.9909 44.8756C45.9299 44.9539 45.8456 45.0107 45.7502 45.0379C42.0862 46.0969 38.2928 46.6421 34.4788 46.6577Z" fill="black"/>
</svg>
