<svg width="70" height="70" viewBox="0 0 70 70" fill="none" xmlns="http://www.w3.org/2000/svg">
<path d="M14.2287 65.2617C13.7374 65.2681 13.258 65.111 12.8656 64.8153C9.86263 62.474 7.60109 59.3139 6.35372 55.7162C6.23482 55.3733 6.20093 55.0067 6.25498 54.6478C6.30902 54.289 6.44938 53.9486 6.66399 53.6559C8.75737 50.8181 13.9932 46.62 17.2766 44.7574C19.8932 43.2606 22.7508 42.2314 25.721 41.7162L37.5539 38.9966C38.3654 38.8464 39.204 38.9966 39.9129 39.4192C40.6219 39.8418 41.1529 40.508 41.4067 41.2934C41.5577 41.7196 41.6202 42.1721 41.5903 42.6233C41.5604 43.0745 41.4389 43.5149 41.233 43.9175C41.0271 44.3201 40.7413 44.6764 40.393 44.9648C40.0448 45.2532 39.6413 45.4675 39.2074 45.5946L31.1924 48.2678C31.0978 48.8077 31.1572 49.3632 31.3638 49.8708C31.5704 50.3784 31.9159 50.8176 32.3606 51.1378C35.0887 52.9985 41.5212 51.012 42.1644 50.7273L53.1184 44.2703C53.1394 44.2552 53.1615 44.242 53.1847 44.2305L58.9266 40.8346C59.452 40.5221 60.0559 40.3664 60.6669 40.3859C61.278 40.4054 61.8707 40.5993 62.3752 40.9446C62.8796 41.29 63.2748 41.7724 63.514 42.335C63.7533 42.8977 63.8266 43.5169 63.7253 44.1199C63.6001 44.9033 63.1869 45.6117 62.5666 46.1063L56.0944 51.2589C55.9961 51.3343 55.8721 51.3681 55.7491 51.353C55.6261 51.3379 55.5139 51.2752 55.4367 51.1783C55.3595 51.0814 55.3234 50.958 55.3362 50.8348C55.349 50.7115 55.4096 50.5982 55.5051 50.5192L61.982 45.3619C62.4348 44.9943 62.7298 44.4673 62.8063 43.8891C62.8828 43.3109 62.7351 42.7253 62.3934 42.2526C62.0574 41.8028 61.5676 41.4924 61.0174 41.3804C60.4672 41.2684 59.8951 41.3627 59.4099 41.6453L53.651 45.0507L53.6302 45.0639L42.6137 51.5588C42.2817 51.7622 35.4103 54.0428 32.056 52.0639C31.4128 51.6784 30.8955 51.1143 30.567 50.4402C30.2385 49.7661 30.113 49.011 30.2057 48.2669C30.2136 48.0636 30.2847 47.8679 30.4089 47.7068C30.5332 47.5458 30.7045 47.4274 30.8991 47.3682L38.8905 44.7026C39.207 44.6136 39.5019 44.4607 39.7569 44.2532C40.0119 44.0457 40.2216 43.788 40.3729 43.4962C40.5243 43.2043 40.6141 42.8845 40.6369 42.5565C40.6597 42.2286 40.6148 41.8994 40.5052 41.5895C40.324 41.0232 39.9431 40.5422 39.4336 40.2359C38.924 39.9296 38.3205 39.819 37.7355 39.9246L25.9112 42.6432C23.04 43.1381 20.2774 44.1305 17.7476 45.5757C14.5456 47.3919 9.45358 51.4708 7.42926 54.2122C7.30677 54.3817 7.22662 54.5781 7.19552 54.785C7.16442 54.9918 7.18326 55.2031 7.25048 55.4012C8.43694 58.8274 10.5894 61.837 13.4483 64.067C13.6224 64.1911 13.823 64.2728 14.0342 64.3057C14.2454 64.3385 14.4613 64.3216 14.6648 64.2562C18.2812 63.1949 24.1867 61.4628 27.7009 62.3643L31.1649 63.2592C33.1421 63.7752 35.243 63.4918 37.0128 62.4703C37.1217 62.4075 37.251 62.3906 37.3723 62.4233C37.4937 62.4559 37.5971 62.5354 37.6598 62.6443C37.7225 62.7532 37.7394 62.8825 37.7068 63.0039C37.6741 63.1252 37.5946 63.2286 37.4857 63.2913C35.5017 64.4351 33.1474 64.7525 30.9313 64.1749L27.4691 63.28C24.2075 62.4447 18.2329 64.1966 15.0233 65.1388C14.7658 65.2181 14.4981 65.2595 14.2287 65.2617Z" fill="black"/>
<path d="M37.2355 63.3845C37.1309 63.385 37.029 63.3508 36.9459 63.2872C36.8628 63.2237 36.8031 63.1343 36.7761 63.0332C36.7492 62.9321 36.7566 62.8249 36.7971 62.7284C36.8376 62.6319 36.909 62.5516 37 62.5L55.5 50.5C55.6089 50.4373 55.7383 50.4204 55.8596 50.453C55.9809 50.4857 56.0843 50.5652 56.1471 50.6741C56.2098 50.7829 56.2267 50.9123 56.194 51.0336C56.1614 51.155 56.0819 51.2584 55.973 51.3211L37.4701 63.322C37.3987 63.3629 37.3178 63.3844 37.2355 63.3845Z" fill="black"/>
<path d="M48.6638 38H44.3404C44.088 37.9998 43.8428 37.916 43.643 37.7617C43.4433 37.6074 43.3003 37.3913 43.2364 37.1471L42.7376 35.2369C41.3357 34.8786 39.9921 34.322 38.7475 33.5839L37.0435 34.5833C36.8259 34.7112 36.5719 34.7633 36.3215 34.7312C36.0711 34.6992 35.8384 34.5848 35.66 34.4062L32.6021 31.3489C32.4236 31.1703 32.3094 30.9375 32.2774 30.687C32.2453 30.4366 32.2972 30.1826 32.4249 29.9647L33.4246 28.2632C32.6847 27.0187 32.1279 25.6741 31.7712 24.2709L29.8531 23.7681C29.6089 23.704 29.3929 23.5611 29.2385 23.3614C29.0842 23.1617 29.0004 22.9166 29 22.6643V18.3325C29.0011 18.0807 29.0853 17.8364 29.2395 17.6373C29.3938 17.4383 29.6095 17.2958 29.8531 17.2319L31.769 16.7333C32.125 15.3322 32.6819 13.9899 33.4225 12.7483L32.4228 11.0405C32.2939 10.823 32.2408 10.5689 32.2719 10.318C32.303 10.0671 32.4166 9.83365 32.5947 9.65421L35.6579 6.59699C35.8365 6.4184 36.0694 6.30412 36.3199 6.27207C36.5705 6.24002 36.8246 6.292 37.0424 6.41988L38.7454 7.41822C39.9896 6.68085 41.3334 6.12627 42.7355 5.77153L43.2343 3.85392C43.2978 3.60947 43.4407 3.39301 43.6405 3.23847C43.8403 3.08393 44.0857 3.00006 44.3383 3H48.6617C48.9143 3.00006 49.1597 3.08393 49.3595 3.23847C49.5593 3.39301 49.7022 3.60947 49.7657 3.85392L50.2645 5.76837C51.6666 6.12311 53.0104 6.67769 54.2546 7.41506L55.9586 6.41672C56.1762 6.28874 56.4302 6.2367 56.6806 6.26876C56.9311 6.30082 57.1637 6.41516 57.3421 6.59382L60.4 9.65105C60.5784 9.82954 60.6926 10.0621 60.7246 10.3124C60.7567 10.5627 60.7048 10.8165 60.5772 11.0342L59.5775 12.742C60.3184 13.9834 60.8754 15.3257 61.231 16.7269L63.1459 17.2256C63.3903 17.2892 63.6067 17.4321 63.7612 17.6318C63.9158 17.8315 63.9998 18.0769 64 18.3294V22.6601C64.0009 22.9123 63.9184 23.1577 63.7652 23.3581C63.6121 23.5586 63.3969 23.7027 63.1533 23.7681L61.2373 24.2667C60.882 25.6685 60.327 27.012 59.5891 28.2559L60.5877 29.9584C60.7153 30.176 60.7672 30.4298 60.7354 30.68C60.7035 30.9302 60.5897 31.1628 60.4116 31.3416L57.3537 34.3988C57.1748 34.5769 56.942 34.6908 56.6916 34.7229C56.4411 34.7549 56.1871 34.7032 55.9691 34.5759L54.2662 33.5765C53.0217 34.3146 51.678 34.8713 50.2761 35.2295L49.7773 37.1397C49.7144 37.3868 49.5706 37.6058 49.3688 37.7617C49.167 37.9176 48.9188 38.0015 48.6638 38Z" fill="#FEDD15"/>
<path d="M46.5293 28.8211C44.8698 28.8209 43.2477 28.3286 41.868 27.4066C40.4883 26.4845 39.413 25.174 38.7781 23.6408C38.1432 22.1076 37.9771 20.4206 38.301 18.793C38.6248 17.1655 39.424 15.6705 40.5975 14.4972C41.771 13.3239 43.266 12.5248 44.8936 12.2011C46.5212 11.8775 48.2082 12.0437 49.7413 12.6788C51.2745 13.3139 52.5848 14.3893 53.5067 15.7691C54.4287 17.1489 54.9207 18.7711 54.9207 20.4305C54.918 22.6552 54.033 24.7879 52.4598 26.3608C50.8867 27.9338 48.7539 28.8186 46.5293 28.8211Z" fill="white"/>
<path d="M46.5293 28.8211C44.8698 28.8209 43.2477 28.3286 41.868 27.4066C40.4883 26.4845 39.413 25.174 38.7781 23.6408C38.1432 22.1076 37.9771 20.4206 38.301 18.793C38.6248 17.1655 39.424 15.6705 40.5975 14.4972C41.771 13.3239 43.266 12.5248 44.8936 12.2011C46.5212 11.8775 48.2082 12.0437 49.7413 12.6788C51.2745 13.3139 52.5848 14.3893 53.5067 15.7691C54.4287 17.1489 54.9207 18.7711 54.9207 20.4305C54.918 22.6552 54.033 24.7879 52.4598 26.3608C50.8867 27.9338 48.7539 28.8186 46.5293 28.8211ZM46.5293 12.9859C45.0569 12.9861 43.6176 13.4229 42.3935 14.241C41.1694 15.0592 40.2153 16.2219 39.652 17.5823C39.0887 18.9426 38.9414 20.4394 39.2288 21.8835C39.5161 23.3275 40.2252 24.6539 41.2664 25.695C42.3076 26.736 43.6341 27.445 45.0782 27.7322C46.5223 28.0193 48.0191 27.8718 49.3793 27.3084C50.7396 26.7449 51.9022 25.7907 52.7202 24.5664C53.5382 23.3422 53.9748 21.9029 53.9748 20.4305C53.9725 18.4566 53.1873 16.5642 51.7915 15.1686C50.3956 13.7729 48.5032 12.9879 46.5293 12.9859Z" fill="black"/>
</svg>
