<svg width="222" height="16" viewBox="0 0 222 16" fill="none" xmlns="http://www.w3.org/2000/svg">
<path d="M1 7C0.447715 7 4.82823e-08 7.44772 0 8C-4.82823e-08 8.55228 0.447715 9 1 9L1 7ZM221.707 8.70713C222.098 8.3166 222.098 7.68344 221.707 7.29291L215.343 0.928951C214.953 0.538427 214.319 0.538426 213.929 0.928951C213.538 1.31948 213.538 1.95264 213.929 2.34316L219.586 8.00002L213.929 13.6569C213.538 14.0474 213.538 14.6806 213.929 15.0711C214.319 15.4616 214.953 15.4616 215.343 15.0711L221.707 8.70713ZM1.5 9C2.05228 9 2.5 8.55228 2.5 8C2.5 7.44772 2.05228 7 1.5 7L1.5 9ZM11.5 7C10.9477 7 10.5 7.44772 10.5 8C10.5 8.55229 10.9477 9 11.5 9L11.5 7ZM12.5 9C13.0523 9 13.5 8.55229 13.5 8C13.5 7.44772 13.0523 7 12.5 7L12.5 9ZM22.5 7C21.9477 7 21.5 7.44772 21.5 8C21.5 8.55229 21.9477 9 22.5 9L22.5 7ZM23.5 9C24.0523 9 24.5 8.55229 24.5 8C24.5 7.44772 24.0523 7 23.5 7L23.5 9ZM33.5 7C32.9477 7 32.5 7.44772 32.5 8C32.5 8.55229 32.9477 9 33.5 9L33.5 7ZM34.5 9C35.0523 9 35.5 8.55229 35.5 8C35.5 7.44772 35.0523 7 34.5 7L34.5 9ZM44.5 7C43.9477 7 43.5 7.44772 43.5 8C43.5 8.55229 43.9477 9 44.5 9L44.5 7ZM45.5 9C46.0523 9 46.5 8.55229 46.5 8C46.5 7.44772 46.0523 7 45.5 7L45.5 9ZM55.5 7C54.9477 7 54.5 7.44772 54.5 8C54.5 8.55229 54.9477 9 55.5 9L55.5 7ZM56.5 9C57.0523 9 57.5 8.55229 57.5 8C57.5 7.44772 57.0523 7 56.5 7L56.5 9ZM66.5 7.00001C65.9477 7.00001 65.5 7.44772 65.5 8.00001C65.5 8.55229 65.9477 9.00001 66.5 9.00001L66.5 7.00001ZM67.5 9.00001C68.0523 9.00001 68.5 8.55229 68.5 8.00001C68.5 7.44772 68.0523 7.00001 67.5 7.00001L67.5 9.00001ZM77.5 7.00001C76.9477 7.00001 76.5 7.44772 76.5 8.00001C76.5 8.55229 76.9477 9.00001 77.5 9.00001L77.5 7.00001ZM78.5 9.00001C79.0523 9.00001 79.5 8.55229 79.5 8.00001C79.5 7.44772 79.0523 7.00001 78.5 7.00001L78.5 9.00001ZM88.5 7.00001C87.9477 7.00001 87.5 7.44772 87.5 8.00001C87.5 8.55229 87.9477 9.00001 88.5 9.00001L88.5 7.00001ZM89.5 9.00001C90.0523 9.00001 90.5 8.55229 90.5 8.00001C90.5 7.44772 90.0523 7.00001 89.5 7.00001L89.5 9.00001ZM99.5 7.00001C98.9477 7.00001 98.5 7.44772 98.5 8.00001C98.5 8.55229 98.9477 9.00001 99.5 9.00001L99.5 7.00001ZM100.5 9.00001C101.052 9.00001 101.5 8.55229 101.5 8.00001C101.5 7.44772 101.052 7.00001 100.5 7.00001L100.5 9.00001ZM110.5 7.00001C109.948 7.00001 109.5 7.44772 109.5 8.00001C109.5 8.55229 109.948 9.00001 110.5 9.00001L110.5 7.00001ZM111.5 9.00001C112.052 9.00001 112.5 8.55229 112.5 8.00001C112.5 7.44772 112.052 7.00001 111.5 7.00001L111.5 9.00001ZM121.5 7.00001C120.948 7.00001 120.5 7.44773 120.5 8.00001C120.5 8.5523 120.948 9.00001 121.5 9.00001L121.5 7.00001ZM122.5 9.00001C123.052 9.00001 123.5 8.5523 123.5 8.00001C123.5 7.44773 123.052 7.00001 122.5 7.00001L122.5 9.00001ZM132.5 7.00001C131.948 7.00001 131.5 7.44773 131.5 8.00001C131.5 8.5523 131.948 9.00001 132.5 9.00001L132.5 7.00001ZM133.5 9.00001C134.052 9.00001 134.5 8.5523 134.5 8.00001C134.5 7.44773 134.052 7.00001 133.5 7.00001L133.5 9.00001ZM143.5 7.00001C142.948 7.00001 142.5 7.44773 142.5 8.00001C142.5 8.5523 142.948 9.00001 143.5 9.00001L143.5 7.00001ZM144.5 9.00001C145.052 9.00001 145.5 8.5523 145.5 8.00001C145.5 7.44773 145.052 7.00001 144.5 7.00001L144.5 9.00001ZM154.5 7.00001C153.948 7.00001 153.5 7.44773 153.5 8.00001C153.5 8.5523 153.948 9.00001 154.5 9.00001L154.5 7.00001ZM155.5 9.00001C156.052 9.00001 156.5 8.5523 156.5 8.00001C156.5 7.44773 156.052 7.00001 155.5 7.00001L155.5 9.00001ZM165.5 7.00001C164.948 7.00001 164.5 7.44773 164.5 8.00001C164.5 8.5523 164.948 9.00001 165.5 9.00001L165.5 7.00001ZM166.5 9.00001C167.052 9.00001 167.5 8.5523 167.5 8.00001C167.5 7.44773 167.052 7.00001 166.5 7.00001L166.5 9.00001ZM176.5 7.00002C175.948 7.00002 175.5 7.44773 175.5 8.00002C175.5 8.5523 175.948 9.00002 176.5 9.00002L176.5 7.00002ZM177.5 9.00002C178.052 9.00002 178.5 8.5523 178.5 8.00002C178.5 7.44773 178.052 7.00002 177.5 7.00002L177.5 9.00002ZM187.5 7.00002C186.948 7.00002 186.5 7.44773 186.5 8.00002C186.5 8.5523 186.948 9.00002 187.5 9.00002L187.5 7.00002ZM188.5 9.00002C189.052 9.00002 189.5 8.5523 189.5 8.00002C189.5 7.44773 189.052 7.00002 188.5 7.00002L188.5 9.00002ZM198.5 7.00002C197.948 7.00002 197.5 7.44773 197.5 8.00002C197.5 8.5523 197.948 9.00002 198.5 9.00002L198.5 7.00002ZM199.5 9.00002C200.052 9.00002 200.5 8.5523 200.5 8.00002C200.5 7.44773 200.052 7.00002 199.5 7.00002L199.5 9.00002ZM209.5 7.00002C208.948 7.00002 208.5 7.44773 208.5 8.00002C208.5 8.5523 208.948 9.00002 209.5 9.00002L209.5 7.00002ZM210.5 9.00002C211.052 9.00002 211.5 8.5523 211.5 8.00002C211.5 7.44773 211.052 7.00002 210.5 7.00002L210.5 9.00002ZM220.5 7.00002C219.948 7.00002 219.5 7.44773 219.5 8.00002C219.5 8.5523 219.948 9.00002 220.5 9.00002L220.5 7.00002ZM1 9L1.5 9L1.5 7L1 7L1 9ZM11.5 9L12.5 9L12.5 7L11.5 7L11.5 9ZM22.5 9L23.5 9L23.5 7L22.5 7L22.5 9ZM33.5 9L34.5 9L34.5 7L33.5 7L33.5 9ZM44.5 9L45.5 9L45.5 7L44.5 7L44.5 9ZM55.5 9L56.5 9L56.5 7L55.5 7L55.5 9ZM66.5 9.00001L67.5 9.00001L67.5 7.00001L66.5 7.00001L66.5 9.00001ZM77.5 9.00001L78.5 9.00001L78.5 7.00001L77.5 7.00001L77.5 9.00001ZM88.5 9.00001L89.5 9.00001L89.5 7.00001L88.5 7.00001L88.5 9.00001ZM99.5 9.00001L100.5 9.00001L100.5 7.00001L99.5 7.00001L99.5 9.00001ZM110.5 9.00001L111.5 9.00001L111.5 7.00001L110.5 7.00001L110.5 9.00001ZM121.5 9.00001L122.5 9.00001L122.5 7.00001L121.5 7.00001L121.5 9.00001ZM132.5 9.00001L133.5 9.00001L133.5 7.00001L132.5 7.00001L132.5 9.00001ZM143.5 9.00001L144.5 9.00001L144.5 7.00001L143.5 7.00001L143.5 9.00001ZM154.5 9.00001L155.5 9.00001L155.5 7.00001L154.5 7.00001L154.5 9.00001ZM165.5 9.00001L166.5 9.00001L166.5 7.00001L165.5 7.00001L165.5 9.00001ZM176.5 9.00002L177.5 9.00002L177.5 7.00002L176.5 7.00002L176.5 9.00002ZM187.5 9.00002L188.5 9.00002L188.5 7.00002L187.5 7.00002L187.5 9.00002ZM198.5 9.00002L199.5 9.00002L199.5 7.00002L198.5 7.00002L198.5 9.00002ZM209.5 9.00002L210.5 9.00002L210.5 7.00002L209.5 7.00002L209.5 9.00002ZM220.5 9.00002L221 9.00002L221 7.00002L220.5 7.00002L220.5 9.00002Z" fill="#D6D8D9"/>
</svg>
