<svg width="70" height="70" viewBox="0 0 70 70" fill="none" xmlns="http://www.w3.org/2000/svg">
<path d="M63.4712 65.3334H6.5285C6.03505 65.3321 5.56216 65.1356 5.21323 64.7866C4.86431 64.4377 4.66774 63.9648 4.6665 63.4714V6.52869C4.66774 6.03523 4.86431 5.56234 5.21323 5.21342C5.56216 4.86449 6.03505 4.66792 6.5285 4.66669H63.4712C63.9646 4.66792 64.4375 4.86449 64.7864 5.21342C65.1354 5.56234 65.3319 6.03523 65.3332 6.52869V63.4714C65.3319 63.9648 65.1354 64.4377 64.7864 64.7866C64.4375 65.1356 63.9646 65.3321 63.4712 65.3334ZM6.5285 5.60002C6.28232 5.60039 6.04632 5.69835 5.87225 5.87243C5.69817 6.04651 5.60021 6.2825 5.59984 6.52869V63.4714C5.60021 63.7175 5.69817 63.9535 5.87225 64.1276C6.04632 64.3017 6.28232 64.3997 6.5285 64.4H63.4712C63.7174 64.3997 63.9534 64.3017 64.1274 64.1276C64.3015 63.9535 64.3995 63.7175 64.3998 63.4714V6.52869C64.3995 6.2825 64.3015 6.04651 64.1274 5.87243C63.9534 5.69835 63.7174 5.60039 63.4712 5.60002H6.5285Z" fill="black"/>
<path d="M64.8665 16.0253H5.13317C5.0094 16.0253 4.8907 15.9761 4.80319 15.8886C4.71567 15.8011 4.6665 15.6824 4.6665 15.5586C4.6665 15.4349 4.71567 15.3162 4.80319 15.2287C4.8907 15.1411 5.0094 15.092 5.13317 15.092H64.8665C64.9903 15.092 65.109 15.1411 65.1965 15.2287C65.284 15.3162 65.3332 15.4349 65.3332 15.5586C65.3332 15.6824 65.284 15.8011 65.1965 15.8886C65.109 15.9761 64.9903 16.0253 64.8665 16.0253Z" fill="black"/>
<path d="M58.9488 12.8642C58.5805 12.8644 58.2165 12.7846 57.8819 12.6304C57.5474 12.4762 57.2503 12.2512 57.0111 11.9711C56.772 11.6909 56.5964 11.3622 56.4966 11.0076C56.3968 10.653 56.3751 10.281 56.433 9.91724C56.5065 9.45281 56.7071 9.01777 57.0124 8.6602C57.3178 8.30263 57.7161 8.03648 58.1633 7.89117C58.6104 7.74587 59.0891 7.72707 59.5463 7.83685C60.0035 7.94663 60.4215 8.18072 60.7539 8.51323C61.0864 8.84575 61.3204 9.26373 61.4301 9.72096C61.5398 10.1782 61.5209 10.6568 61.3756 11.104C61.2302 11.5512 60.964 11.9494 60.6064 12.2547C60.2488 12.56 59.8137 12.7605 59.3492 12.8339C59.2167 12.8542 59.0829 12.8643 58.9488 12.8642Z" fill="#FEDD15"/>
<path d="M58.9488 12.8642C58.5805 12.8643 58.2165 12.7845 57.8819 12.6303C57.5474 12.4761 57.2503 12.2512 57.0111 11.971C56.772 11.6909 56.5964 11.3622 56.4966 11.0076C56.3968 10.653 56.3751 10.281 56.433 9.91721C56.5065 9.45278 56.7071 9.01773 57.0124 8.66017C57.3178 8.3026 57.7161 8.03645 58.1633 7.89114C58.6104 7.74584 59.0891 7.72703 59.5463 7.83682C60.0035 7.9466 60.4215 8.18069 60.7539 8.5132C61.0864 8.84572 61.3204 9.2637 61.4301 9.72092C61.5398 10.1782 61.5209 10.6568 61.3756 11.104C61.2302 11.5512 60.964 11.9494 60.6064 12.2547C60.2488 12.56 59.8137 12.7604 59.3492 12.8339C59.2167 12.8541 59.0829 12.8643 58.9488 12.8642ZM57.3538 10.0577C57.2991 10.3951 57.3529 10.7412 57.5073 11.0462C57.6616 11.3511 57.9087 11.5993 58.213 11.7551C58.5173 11.9108 58.8631 11.9661 59.2008 11.9129C59.5385 11.8598 59.8506 11.701 60.0924 11.4593C60.3341 11.2176 60.4931 10.9056 60.5463 10.5679C60.5996 10.2303 60.5444 9.8844 60.3888 9.58006C60.2332 9.27571 59.9851 9.02854 59.6801 8.87404C59.3752 8.71955 59.0292 8.66569 58.6917 8.72021C58.3565 8.7745 58.0469 8.93289 57.8068 9.17294C57.5667 9.41299 57.4082 9.72252 57.3538 10.0577Z" fill="black"/>
<path d="M49.7167 12.8641C49.06 12.8618 48.4296 12.6054 47.9577 12.1487C47.4857 11.6919 47.2089 11.0702 47.1852 10.4138C47.1616 9.7575 47.3928 9.11747 47.8306 8.62786C48.2683 8.13826 48.8786 7.83709 49.5335 7.78748C50.1884 7.73787 50.8371 7.94366 51.3436 8.36173C51.8501 8.77979 52.1752 9.37768 52.2506 10.0301C52.3261 10.6825 52.1461 11.3388 51.7484 11.8615C51.3506 12.3841 50.7661 12.7326 50.1171 12.8337C49.9846 12.854 49.8508 12.8641 49.7167 12.8641ZM49.7167 8.70094C49.6305 8.70102 49.5444 8.70757 49.4591 8.72054C49.1248 8.77632 48.8162 8.93509 48.5765 9.17469C48.3367 9.41429 48.1777 9.72277 48.1217 10.0571C48.0682 10.384 48.1163 10.7194 48.2596 11.0181C48.4028 11.3168 48.6343 11.5643 48.9227 11.7272C49.2111 11.8901 49.5426 11.9605 49.8724 11.929C50.2021 11.8975 50.5142 11.7655 50.7666 11.5509C51.0189 11.3363 51.1993 11.0494 51.2833 10.729C51.3674 10.4086 51.3511 10.0701 51.2366 9.75922C51.1221 9.44838 50.915 9.18017 50.6432 8.99083C50.3714 8.80149 50.048 8.70014 49.7167 8.70047V8.70094Z" fill="black"/>
<path d="M40.4843 12.8642C40.116 12.8641 39.7521 12.7842 39.4176 12.63C39.0832 12.4757 38.7861 12.2508 38.547 11.9707C38.3079 11.6906 38.1323 11.3619 38.0324 11.0074C37.9326 10.6529 37.9108 10.2809 37.9685 9.91717C38.0419 9.45271 38.2424 9.0176 38.5477 8.65997C38.853 8.30233 39.2513 8.03611 39.6985 7.89073C40.1457 7.74536 40.6244 7.7265 41.0816 7.83623C41.5389 7.94597 41.9569 8.18004 42.2894 8.51254C42.6219 8.84504 42.8559 9.26303 42.9657 9.72028C43.0754 10.1775 43.0565 10.6562 42.9112 11.1034C42.7658 11.5506 42.4996 11.9489 42.1419 12.2542C41.7843 12.5595 41.3492 12.7599 40.8847 12.8334C40.7522 12.8538 40.6184 12.8641 40.4843 12.8642ZM40.4843 8.70104C40.3983 8.70094 40.3123 8.70734 40.2272 8.72017C39.8929 8.7762 39.5845 8.93512 39.3448 9.17478C39.1051 9.41444 38.9462 9.7229 38.8902 10.0572C38.8367 10.3841 38.8848 10.7196 39.0281 11.0183C39.1714 11.317 39.4029 11.5645 39.6914 11.7274C39.9799 11.8903 40.3115 11.9607 40.6412 11.9291C40.971 11.8974 41.2831 11.7654 41.5354 11.5507C41.7877 11.336 41.9681 11.049 42.052 10.7285C42.136 10.408 42.1195 10.0695 42.0049 9.75866C41.8902 9.44784 41.683 9.17969 41.411 8.99046C41.1391 8.80124 40.8156 8.70005 40.4843 8.70057V8.70104Z" fill="black"/>
<path d="M33.4359 10.7822H7.92419C7.80042 10.7822 7.68172 10.733 7.5942 10.6455C7.50669 10.558 7.45752 10.4393 7.45752 10.3155C7.45752 10.1917 7.50669 10.073 7.5942 9.98553C7.68172 9.89801 7.80042 9.84885 7.92419 9.84885H33.4359C33.5597 9.84885 33.6784 9.89801 33.7659 9.98553C33.8534 10.073 33.9026 10.1917 33.9026 10.3155C33.9026 10.4393 33.8534 10.558 33.7659 10.6455C33.6784 10.733 33.5597 10.7822 33.4359 10.7822Z" fill="black"/>
<path d="M50.8125 47.1823H19.1874C18.516 47.1816 17.8723 46.9146 17.3976 46.4399C16.9228 45.9652 16.6556 45.3216 16.6548 44.6502V24.6059C16.6555 23.9345 16.9226 23.2907 17.3974 22.8159C17.8722 22.3411 18.5159 22.0741 19.1874 22.0733H50.8125C51.4839 22.0741 52.1277 22.3411 52.6025 22.8159C53.0772 23.2907 53.3443 23.9345 53.345 24.6059V44.6502C53.3442 45.3216 53.0771 45.9652 52.6023 46.4399C52.1275 46.9146 51.4838 47.1816 50.8125 47.1823Z" fill="#FEDD15"/>
<path d="M50.8125 47.1823H19.1874C18.516 47.1816 17.8723 46.9146 17.3976 46.4399C16.9228 45.9652 16.6556 45.3216 16.6548 44.6502V24.6059C16.6555 23.9344 16.9226 23.2907 17.3974 22.8159C17.8722 22.3411 18.5159 22.074 19.1874 22.0733H50.8125C51.4839 22.074 52.1277 22.3411 52.6025 22.8159C53.0772 23.2907 53.3443 23.9344 53.345 24.6059V44.6502C53.3442 45.3216 53.0771 45.9652 52.6023 46.4399C52.1275 46.9146 51.4838 47.1816 50.8125 47.1823ZM19.1874 23.0066C18.7634 23.0071 18.3569 23.1758 18.0571 23.4756C17.7573 23.7754 17.5886 24.1819 17.5881 24.6059V44.6502C17.5887 45.0741 17.7574 45.4805 18.0572 45.7802C18.357 46.0799 18.7635 46.2485 19.1874 46.249H50.8125C51.2364 46.2485 51.6428 46.0799 51.9426 45.7802C52.2424 45.4805 52.4111 45.0741 52.4117 44.6502V24.6059C52.4112 24.1819 52.2426 23.7754 51.9428 23.4756C51.6429 23.1758 51.2365 23.0071 50.8125 23.0066H19.1874Z" fill="black"/>
<path d="M29.6991 41.9423C29.5753 41.9423 29.4566 41.8932 29.3691 41.8057C29.2816 41.7181 29.2324 41.5994 29.2324 41.4757V27.7799C29.2324 27.696 29.255 27.6136 29.2979 27.5415C29.3407 27.4693 29.4023 27.4101 29.476 27.3699C29.5497 27.3298 29.6328 27.3103 29.7167 27.3135C29.8006 27.3166 29.882 27.3424 29.9525 27.3879L40.5533 34.2358C40.6188 34.2781 40.6726 34.3362 40.7099 34.4046C40.7472 34.4731 40.7668 34.5498 40.7668 34.6278C40.7668 34.7058 40.7472 34.7825 40.7099 34.851C40.6726 34.9195 40.6188 34.9775 40.5533 35.0198L29.9525 41.8677C29.877 41.9164 29.789 41.9424 29.6991 41.9423Z" fill="white"/>
<path d="M29.6991 41.9424C29.5753 41.9424 29.4566 41.8932 29.3691 41.8057C29.2816 41.7182 29.2324 41.5995 29.2324 41.4757V27.78C29.2324 27.696 29.255 27.6137 29.2979 27.5415C29.3407 27.4694 29.4023 27.4101 29.476 27.37C29.5497 27.3298 29.6328 27.3103 29.7167 27.3135C29.8006 27.3167 29.882 27.3424 29.9525 27.388L40.5533 34.2358C40.6188 34.2781 40.6726 34.3362 40.7099 34.4047C40.7472 34.4731 40.7668 34.5499 40.7668 34.6278C40.7668 34.7058 40.7472 34.7825 40.7099 34.851C40.6726 34.9195 40.6188 34.9775 40.5533 35.0198L29.9525 41.8677C29.877 41.9165 29.789 41.9424 29.6991 41.9424ZM30.1658 28.6368V40.6189L39.4412 34.6269L30.1658 28.6368Z" fill="black"/>
<path d="M52.5626 56.14H27.1293C27.0055 56.14 26.8868 56.0908 26.7993 56.0033C26.7118 55.9158 26.6626 55.7971 26.6626 55.6733C26.6626 55.5495 26.7118 55.4308 26.7993 55.3433C26.8868 55.2558 27.0055 55.2066 27.1293 55.2066H52.5626C52.6864 55.2066 52.8051 55.2558 52.8926 55.3433C52.9801 55.4308 53.0293 55.5495 53.0293 55.6733C53.0293 55.7971 52.9801 55.9158 52.8926 56.0033C52.8051 56.0908 52.6864 56.14 52.5626 56.14Z" fill="black"/>
<path d="M22.6962 56.14H17.4369C17.3131 56.14 17.1944 56.0908 17.1069 56.0033C17.0194 55.9158 16.9702 55.7971 16.9702 55.6733C16.9702 55.5495 17.0194 55.4308 17.1069 55.3433C17.1944 55.2558 17.3131 55.2066 17.4369 55.2066H22.6962C22.82 55.2066 22.9387 55.2558 23.0262 55.3433C23.1137 55.4308 23.1629 55.5495 23.1629 55.6733C23.1629 55.7971 23.1137 55.9158 23.0262 56.0033C22.9387 56.0908 22.82 56.14 22.6962 56.14Z" fill="black"/>
<path d="M24.9148 58.3562C24.3841 58.3562 23.8653 58.1988 23.424 57.904C22.9827 57.6091 22.6388 57.19 22.4357 56.6997C22.2326 56.2094 22.1795 55.6699 22.283 55.1494C22.3865 54.6289 22.6421 54.1507 23.0174 53.7755C23.3926 53.4002 23.8708 53.1446 24.3913 53.0411C24.9118 52.9376 25.4513 52.9907 25.9416 53.1938C26.432 53.3969 26.851 53.7408 27.1459 54.1821C27.4407 54.6234 27.5981 55.1422 27.5981 55.6729C27.5974 56.3843 27.3144 57.0664 26.8114 57.5694C26.3083 58.0725 25.6262 58.3555 24.9148 58.3562ZM24.9148 53.9229C24.5687 53.9229 24.2303 54.0255 23.9425 54.2178C23.6547 54.4101 23.4304 54.6834 23.298 55.0032C23.1655 55.3229 23.1309 55.6748 23.1984 56.0143C23.2659 56.3537 23.4326 56.6656 23.6773 56.9103C23.9221 57.155 24.2339 57.3217 24.5734 57.3892C24.9128 57.4568 25.2647 57.4221 25.5845 57.2897C25.9042 57.1572 26.1776 56.9329 26.3699 56.6451C26.5621 56.3573 26.6648 56.019 26.6648 55.6729C26.6643 55.2089 26.4798 54.7641 26.1517 54.436C25.8236 54.1079 25.3788 53.9234 24.9148 53.9229Z" fill="black"/>
</svg>
