<svg width="70" height="70" viewBox="0 0 70 70" fill="none" xmlns="http://www.w3.org/2000/svg">
<path d="M63.4712 65.3334H6.5285C6.03505 65.3321 5.56216 65.1356 5.21323 64.7866C4.86431 64.4377 4.66774 63.9648 4.6665 63.4714V6.52869C4.66774 6.03523 4.86431 5.56234 5.21323 5.21342C5.56216 4.86449 6.03505 4.66792 6.5285 4.66669H63.4712C63.9646 4.66792 64.4375 4.86449 64.7864 5.21342C65.1354 5.56234 65.3319 6.03523 65.3332 6.52869V63.4714C65.3319 63.9648 65.1354 64.4377 64.7864 64.7866C64.4375 65.1356 63.9646 65.3321 63.4712 65.3334ZM6.5285 5.60002C6.28232 5.60039 6.04632 5.69835 5.87225 5.87243C5.69817 6.04651 5.60021 6.2825 5.59984 6.52869V63.4714C5.60021 63.7175 5.69817 63.9535 5.87225 64.1276C6.04632 64.3017 6.28232 64.3997 6.5285 64.4H63.4712C63.7174 64.3997 63.9534 64.3017 64.1274 64.1276C64.3015 63.9535 64.3995 63.7175 64.3998 63.4714V6.52869C64.3995 6.2825 64.3015 6.04651 64.1274 5.87243C63.9534 5.69835 63.7174 5.60039 63.4712 5.60002H6.5285Z" fill="black"/>
<path d="M64.8665 16.0253H5.13317C5.0094 16.0253 4.8907 15.9761 4.80319 15.8886C4.71567 15.8011 4.6665 15.6824 4.6665 15.5586C4.6665 15.4349 4.71567 15.3162 4.80319 15.2287C4.8907 15.1411 5.0094 15.092 5.13317 15.092H64.8665C64.9903 15.092 65.109 15.1411 65.1965 15.2287C65.284 15.3162 65.3332 15.4349 65.3332 15.5586C65.3332 15.6824 65.284 15.8011 65.1965 15.8886C65.109 15.9761 64.9903 16.0253 64.8665 16.0253Z" fill="black"/>
<path d="M58.9488 12.8642C58.5805 12.8644 58.2165 12.7846 57.8819 12.6304C57.5474 12.4762 57.2503 12.2512 57.0111 11.9711C56.772 11.6909 56.5964 11.3622 56.4966 11.0076C56.3968 10.653 56.3751 10.281 56.433 9.91724C56.5065 9.45281 56.7071 9.01777 57.0124 8.6602C57.3178 8.30263 57.7161 8.03648 58.1633 7.89117C58.6104 7.74587 59.0891 7.72707 59.5463 7.83685C60.0035 7.94663 60.4215 8.18072 60.7539 8.51323C61.0864 8.84575 61.3204 9.26373 61.4301 9.72096C61.5398 10.1782 61.5209 10.6568 61.3756 11.104C61.2302 11.5512 60.964 11.9494 60.6064 12.2547C60.2488 12.56 59.8137 12.7605 59.3492 12.8339C59.2167 12.8542 59.0829 12.8643 58.9488 12.8642ZM57.3538 10.0577C57.2991 10.3951 57.3529 10.7412 57.5073 11.0462C57.6616 11.3512 57.9087 11.5994 58.213 11.7551C58.5173 11.9108 58.8631 11.9661 59.2008 11.913C59.5385 11.8598 59.8506 11.701 60.0924 11.4593C60.3341 11.2177 60.4931 10.9056 60.5463 10.5679C60.5996 10.2303 60.5444 9.88444 60.3888 9.58009C60.2332 9.27574 59.9851 9.02857 59.6801 8.87407C59.3752 8.71958 59.0292 8.66572 58.6917 8.72024C58.3565 8.77453 58.0469 8.93292 57.8068 9.17297C57.5667 9.41302 57.4082 9.72255 57.3538 10.0577Z" fill="black"/>
<path d="M49.7167 12.8641C49.06 12.8618 48.4296 12.6054 47.9577 12.1487C47.4857 11.6919 47.2089 11.0702 47.1852 10.4138C47.1616 9.7575 47.3928 9.11747 47.8306 8.62786C48.2683 8.13826 48.8786 7.83709 49.5335 7.78748C50.1884 7.73787 50.8371 7.94366 51.3436 8.36173C51.8501 8.77979 52.1752 9.37768 52.2506 10.0301C52.3261 10.6825 52.1461 11.3388 51.7484 11.8615C51.3506 12.3841 50.7661 12.7326 50.1171 12.8337C49.9846 12.854 49.8508 12.8641 49.7167 12.8641ZM49.7167 8.70094C49.6305 8.70102 49.5444 8.70757 49.4591 8.72054C49.1248 8.77632 48.8162 8.93509 48.5765 9.17469C48.3367 9.41429 48.1777 9.72277 48.1217 10.0571C48.0682 10.384 48.1163 10.7194 48.2596 11.0181C48.4028 11.3168 48.6343 11.5643 48.9227 11.7272C49.2111 11.8901 49.5426 11.9605 49.8724 11.929C50.2021 11.8975 50.5142 11.7655 50.7666 11.5509C51.0189 11.3363 51.1993 11.0494 51.2833 10.729C51.3674 10.4086 51.3511 10.0701 51.2366 9.75922C51.1221 9.44838 50.915 9.18017 50.6432 8.99083C50.3714 8.80149 50.048 8.70014 49.7167 8.70047V8.70094Z" fill="black"/>
<path d="M40.4843 12.8642C40.116 12.8641 39.7521 12.7842 39.4176 12.63C39.0832 12.4757 38.7861 12.2508 38.547 11.9707C38.3079 11.6906 38.1323 11.3619 38.0324 11.0074C37.9326 10.6529 37.9108 10.2809 37.9685 9.91717C38.0419 9.45271 38.2424 9.0176 38.5477 8.65997C38.853 8.30233 39.2513 8.03611 39.6985 7.89073C40.1457 7.74536 40.6244 7.7265 41.0816 7.83623C41.5389 7.94597 41.9569 8.18004 42.2894 8.51254C42.6219 8.84504 42.8559 9.26303 42.9657 9.72028C43.0754 10.1775 43.0565 10.6562 42.9112 11.1034C42.7658 11.5506 42.4996 11.9489 42.1419 12.2542C41.7843 12.5595 41.3492 12.7599 40.8847 12.8334C40.7522 12.8538 40.6184 12.8641 40.4843 12.8642ZM40.4843 8.70104C40.3983 8.70094 40.3123 8.70734 40.2272 8.72017C39.8929 8.7762 39.5845 8.93512 39.3448 9.17478C39.1051 9.41444 38.9462 9.7229 38.8902 10.0572C38.8367 10.3841 38.8848 10.7196 39.0281 11.0183C39.1714 11.317 39.4029 11.5645 39.6914 11.7274C39.9799 11.8903 40.3115 11.9607 40.6412 11.9291C40.971 11.8974 41.2831 11.7654 41.5354 11.5507C41.7877 11.336 41.9681 11.049 42.052 10.7285C42.136 10.408 42.1195 10.0695 42.0049 9.75866C41.8902 9.44784 41.683 9.17969 41.411 8.99046C41.1391 8.80124 40.8156 8.70005 40.4843 8.70057V8.70104Z" fill="black"/>
<path d="M33.4359 10.7822H7.92419C7.80042 10.7822 7.68172 10.733 7.5942 10.6455C7.50669 10.558 7.45752 10.4393 7.45752 10.3155C7.45752 10.1917 7.50669 10.073 7.5942 9.98553C7.68172 9.89801 7.80042 9.84885 7.92419 9.84885H33.4359C33.5597 9.84885 33.6784 9.89801 33.7659 9.98553C33.8534 10.073 33.9026 10.1917 33.9026 10.3155C33.9026 10.4393 33.8534 10.558 33.7659 10.6455C33.6784 10.733 33.5597 10.7822 33.4359 10.7822Z" fill="black"/>
<path d="M22.6474 46.4335H10.7474C10.6237 46.4335 10.505 46.3843 10.4174 46.2968C10.3299 46.2093 10.2808 46.0906 10.2808 45.9668V33.5768C10.2808 33.4531 10.3299 33.3344 10.4174 33.2469C10.505 33.1593 10.6237 33.1102 10.7474 33.1102H22.6474C22.7712 33.1102 22.8899 33.1593 22.9774 33.2469C23.0649 33.3344 23.1141 33.4531 23.1141 33.5768V45.9668C23.1141 46.0906 23.0649 46.2093 22.9774 46.2968C22.8899 46.3843 22.7712 46.4335 22.6474 46.4335Z" fill="#FEDD15"/>
<path d="M40.9497 46.4335H29.0497C28.9259 46.4335 28.8072 46.3843 28.7197 46.2968C28.6322 46.2093 28.583 46.0906 28.583 45.9668V33.5768C28.583 33.4531 28.6322 33.3344 28.7197 33.2469C28.8072 33.1593 28.9259 33.1102 29.0497 33.1102H40.9497C41.0734 33.1102 41.1921 33.1593 41.2797 33.2469C41.3672 33.3344 41.4163 33.4531 41.4163 33.5768V45.9668C41.4163 46.0906 41.3672 46.2093 41.2797 46.2968C41.1921 46.3843 41.0734 46.4335 40.9497 46.4335Z" fill="#FEDD15"/>
<path d="M59.2529 46.4335H47.3529C47.2291 46.4335 47.1104 46.3843 47.0229 46.2968C46.9354 46.2093 46.8862 46.0906 46.8862 45.9668V33.5768C46.8862 33.4531 46.9354 33.3344 47.0229 33.2469C47.1104 33.1593 47.2291 33.1102 47.3529 33.1102H59.2529C59.3767 33.1102 59.4954 33.1593 59.5829 33.2469C59.6704 33.3344 59.7196 33.4531 59.7196 33.5768V45.9668C59.7196 46.0906 59.6704 46.2093 59.5829 46.2968C59.4954 46.3843 59.3767 46.4335 59.2529 46.4335Z" fill="#FEDD15"/>
<path d="M40.6513 26.9389H10.4486C10.3248 26.9389 10.2061 26.8897 10.1186 26.8022C10.0311 26.7147 9.98193 26.596 9.98193 26.4722V21.2497C9.98193 21.126 10.0311 21.0073 10.1186 20.9198C10.2061 20.8322 10.3248 20.7831 10.4486 20.7831H40.6513C40.775 20.7831 40.8937 20.8322 40.9812 20.9198C41.0688 21.0073 41.1179 21.126 41.1179 21.2497V26.4722C41.1179 26.596 41.0688 26.7147 40.9812 26.8022C40.8937 26.8897 40.775 26.9389 40.6513 26.9389ZM10.9153 26.0056H40.1846V21.7164H10.9153V26.0056Z" fill="black"/>
<path d="M59.5517 58.758H29.349C29.2252 58.758 29.1065 58.7088 29.019 58.6213C28.9315 58.5338 28.8823 58.4151 28.8823 58.2913V53.0693C28.8823 52.9455 28.9315 52.8268 29.019 52.7393C29.1065 52.6518 29.2252 52.6026 29.349 52.6026H59.5517C59.6129 52.6026 59.6736 52.6147 59.7302 52.6382C59.7869 52.6616 59.8383 52.696 59.8816 52.7393C59.925 52.7826 59.9593 52.8341 59.9828 52.8907C60.0063 52.9473 60.0183 53.008 60.0183 53.0693V58.2913C60.0183 58.4151 59.9692 58.5338 59.8816 58.6213C59.7941 58.7088 59.6754 58.758 59.5517 58.758ZM29.8157 57.8246H59.085V53.536H29.8157V57.8246Z" fill="black"/>
</svg>
