<svg width="80" height="80" viewBox="0 0 80 80" fill="none" xmlns="http://www.w3.org/2000/svg">
<path fill-rule="evenodd" clip-rule="evenodd" d="M76.1385 61.8185L45.0951 9.92087C42.7757 6.04343 37.2243 6.04343 34.9049 9.92087L3.86154 61.8185C1.45441 65.8427 4.31321 70.9872 8.95661 70.9872H71.0434C75.6868 70.9872 78.5456 65.8427 76.1385 61.8185ZM46.7934 8.87744C43.7009 3.70752 36.2991 3.70752 33.2066 8.87744L2.16319 60.7751C-1.04632 66.1407 2.76542 73 8.95661 73H71.0434C77.2346 73 81.0463 66.1407 77.8368 60.7751L46.7934 8.87744Z" fill="#EA3434"/>
<path d="M41.4863 49.9121H38.9375L38.1758 35H42.2334L41.4863 49.9121ZM38 54.585C38 53.8623 38.1904 53.3154 38.5713 52.9443C38.9521 52.5635 39.4941 52.373 40.1973 52.373C40.8906 52.373 41.4229 52.5684 41.7939 52.959C42.165 53.3496 42.3506 53.8916 42.3506 54.585C42.3506 55.2783 42.1602 55.8301 41.7793 56.2402C41.4082 56.6406 40.8809 56.8408 40.1973 56.8408C39.5039 56.8408 38.9619 56.6455 38.5713 56.2549C38.1904 55.8643 38 55.3076 38 54.585Z" fill="#EA3434"/>
</svg>
