<svg width="41" height="40" viewBox="0 0 41 40" fill="none" xmlns="http://www.w3.org/2000/svg">
<path d="M3.31998 4.12H0.5V6.94H3.31998V4.12Z" stroke="#222220" stroke-width="0.5"/>
<path d="M38.34 4.12H35.52V6.94H38.34V4.12Z" stroke="#222220" stroke-width="0.5"/>
<path d="M3.31998 31.89H0.5V34.71H3.31998V31.89Z" stroke="#222220" stroke-width="0.5"/>
<path d="M39.43 30.73H34.35V35.8L36.2 33.95L38.12 35.87L39.5 34.5L37.58 32.57L39.43 30.73Z" stroke="#222220" stroke-width="0.5"/>
<path d="M1.91 6.94V31.89" stroke="#222220" stroke-width="0.5"/>
<path d="M3.31998 33.3H34.35" stroke="#222220" stroke-width="0.5"/>
<path d="M36.93 6.94V30.73" stroke="#222220" stroke-width="0.5"/>
<path d="M35.52 5.53003H3.31998" stroke="#222220" stroke-width="0.5"/>
<path d="M19.72 28.06C24.4917 28.06 28.36 24.1918 28.36 19.42C28.36 14.6483 24.4917 10.78 19.72 10.78C14.9483 10.78 11.08 14.6483 11.08 19.42C11.08 24.1918 14.9483 28.06 19.72 28.06Z" stroke="#222220" stroke-width="0.5"/>
<path d="M19.72 19.87C21.167 19.87 22.34 18.697 22.34 17.25C22.34 15.803 21.167 14.63 19.72 14.63C18.273 14.63 17.1 15.803 17.1 17.25C17.1 18.697 18.273 19.87 19.72 19.87Z" stroke="#222220" stroke-width="0.5"/>
<path d="M13.15 25.0301L14.26 23.3401C15 22.2201 16.14 21.5601 17.36 21.5601H22.03C23.23 21.5601 24.37 22.2101 25.11 23.3101L26.27 25.04" stroke="#222220" stroke-width="0.5"/>
</svg>
