<svg width="40" height="40" viewBox="0 0 40 40" fill="none" xmlns="http://www.w3.org/2000/svg">
<path d="M37.72 35.51H2.26999C1.83999 35.51 1.48999 35.16 1.48999 34.73V5.26001C1.48999 4.83001 1.83999 4.47998 2.26999 4.47998H37.72C38.15 4.47998 38.5 4.83001 38.5 5.26001V34.73C38.5 35.16 38.15 35.51 37.72 35.51Z" stroke="#222220" stroke-width="0.5"/>
<path d="M1.5 7.63H38.5" stroke="#222220" stroke-width="0.5"/>
<path d="M27.17 14.39C23.21 10.43 16.78 10.43 12.82 14.39C9.32998 17.88 8.90999 23.29 11.58 27.24" stroke="#222220" stroke-width="0.5"/>
<path d="M12.82 28.74C16.78 32.7 23.21 32.7 27.17 28.74C30.73 25.18 31.09 19.62 28.25 15.66" stroke="#222220" stroke-width="0.5"/>
<path d="M27.17 12.33V14.39H25.11" stroke="#222220" stroke-width="0.5"/>
<path d="M12.65 30.63V28.57H14.71" stroke="#222220" stroke-width="0.5"/>
<path d="M20 20.37C21.1101 20.37 22.01 19.4701 22.01 18.36C22.01 17.2499 21.1101 16.35 20 16.35C18.8899 16.35 17.99 17.2499 17.99 18.36C17.99 19.4701 18.8899 20.37 20 20.37Z" stroke="#222220" stroke-width="0.5"/>
<path d="M14.96 24.14L15.81 22.84C16.38 21.98 17.26 21.47 18.19 21.47H21.78C22.71 21.47 23.58 21.97 24.15 22.82L25.04 24.15C25.04 24.15 23.37 26.79 20 26.79C16.63 26.79 14.96 24.14 14.96 24.14Z" stroke="#222220" stroke-width="0.5"/>
</svg>
