<svg width="40" height="40" viewBox="0 0 40 40" fill="none" xmlns="http://www.w3.org/2000/svg">
<path d="M9.03 37.39C13.741 37.39 17.56 33.571 17.56 28.86C17.56 24.149 13.741 20.33 9.03 20.33C4.31901 20.33 0.5 24.149 0.5 28.86C0.5 33.571 4.31901 37.39 9.03 37.39Z" stroke="#222220" stroke-width="0.5"/>
<path d="M9.03998 29.57C10.4704 29.57 11.63 28.4104 11.63 26.98C11.63 25.5496 10.4704 24.39 9.03998 24.39C7.60956 24.39 6.44998 25.5496 6.44998 26.98C6.44998 28.4104 7.60956 29.57 9.03998 29.57Z" stroke="#222220" stroke-width="0.5"/>
<path d="M2.54999 34.41L3.64999 32.74C4.37999 31.63 5.50999 30.98 6.70999 30.98H11.32C12.51 30.98 13.63 31.62 14.36 32.71L15.5 34.42" stroke="#222220" stroke-width="0.5"/>
<path d="M30.97 37.39C35.681 37.39 39.5 33.571 39.5 28.86C39.5 24.149 35.681 20.33 30.97 20.33C26.259 20.33 22.44 24.149 22.44 28.86C22.44 33.571 26.259 37.39 30.97 37.39Z" stroke="#222220" stroke-width="0.5"/>
<path d="M30.97 29.57C32.4004 29.57 33.56 28.4104 33.56 26.98C33.56 25.5496 32.4004 24.39 30.97 24.39C29.5396 24.39 28.38 25.5496 28.38 26.98C28.38 28.4104 29.5396 29.57 30.97 29.57Z" stroke="#222220" stroke-width="0.5"/>
<path d="M24.49 34.41L25.59 32.74C26.32 31.63 27.45 30.98 28.65 30.98H33.26C34.45 30.98 35.57 31.62 36.3 32.71L37.44 34.42" stroke="#222220" stroke-width="0.5"/>
<path d="M29.71 2.62H10.29C9.59998 2.62 9.03998 3.18 9.03998 3.87V13.73C9.03998 14.42 9.59998 14.98 10.29 14.98H11.35V17.29L13.94 14.98H26.07L28.66 17.29V14.98H29.71C30.4 14.98 30.96 14.42 30.96 13.73V3.87C30.96 3.18 30.4 2.62 29.71 2.62Z" stroke="#222220" stroke-width="0.5"/>
<path d="M11.44 6.95001H18.71" stroke="#222220" stroke-width="0.5"/>
<path d="M21.29 10.66H28.56" stroke="#222220" stroke-width="0.5"/>
</svg>
