<svg width="40" height="40" viewBox="0 0 40 40" fill="none" xmlns="http://www.w3.org/2000/svg">
<path d="M29.6064 25.2295H10.5927C10.1569 25.2295 9.80641 24.879 9.80641 24.4432V15.7558C9.80641 15.32 10.1569 14.9695 10.5927 14.9695H29.6159C30.0517 14.9695 30.4022 15.32 30.4022 15.7558V24.4432C30.3927 24.8884 30.0422 25.2295 29.6064 25.2295Z" stroke="#222220" stroke-width="0.5"/>
<path d="M6.37685 11.2178C8.2709 11.2178 9.80632 9.6824 9.80632 7.78836C9.80632 5.89431 8.2709 4.35889 6.37685 4.35889C4.4828 4.35889 2.94737 5.89431 2.94737 7.78836C2.94737 9.6824 4.4828 11.2178 6.37685 11.2178Z" stroke="#222220" stroke-width="0.5"/>
<path d="M20.0948 11.2178C21.9889 11.2178 23.5243 9.6824 23.5243 7.78836C23.5243 5.89431 21.9889 4.35889 20.0948 4.35889C18.2008 4.35889 16.6653 5.89431 16.6653 7.78836C16.6653 9.6824 18.2008 11.2178 20.0948 11.2178Z" stroke="#222220" stroke-width="0.5"/>
<path d="M33.6233 11.2178C35.5173 11.2178 37.0527 9.6824 37.0527 7.78836C37.0527 5.89431 35.5173 4.35889 33.6233 4.35889C31.7292 4.35889 30.1938 5.89431 30.1938 7.78836C30.1938 9.6824 31.7292 11.2178 33.6233 11.2178Z" stroke="#222220" stroke-width="0.5"/>
<path d="M6.37696 35.6412C8.271 35.6412 9.80643 34.1057 9.80643 32.2117C9.80643 30.3176 8.271 28.7822 6.37696 28.7822C4.48291 28.7822 2.94748 30.3176 2.94748 32.2117C2.94748 34.1057 4.48291 35.6412 6.37696 35.6412Z" stroke="#222220" stroke-width="0.5"/>
<path d="M20.0948 35.6412C21.9889 35.6412 23.5243 34.1057 23.5243 32.2117C23.5243 30.3176 21.9889 28.7822 20.0948 28.7822C18.2008 28.7822 16.6653 30.3176 16.6653 32.2117C16.6653 34.1057 18.2008 35.6412 20.0948 35.6412Z" stroke="#222220" stroke-width="0.5"/>
<path d="M33.6233 35.6412C35.5173 35.6412 37.0527 34.1057 37.0527 32.2117C37.0527 30.3176 35.5173 28.7822 33.6233 28.7822C31.7292 28.7822 30.1938 30.3176 30.1938 32.2117C30.1938 34.1057 31.7292 35.6412 33.6233 35.6412Z" stroke="#222220" stroke-width="0.5"/>
<path d="M20.0949 11.2085V15.0074" stroke="#222220" stroke-width="0.5"/>
<path d="M20.1044 25.2581V28.7823" stroke="#222220" stroke-width="0.5"/>
<path d="M9.80654 18.4841H8.05391C7.12549 18.4841 6.37706 17.7357 6.37706 16.8073V11.2178" stroke="#222220" stroke-width="0.5"/>
<path d="M33.6232 11.2085V16.7979C33.6232 17.7264 32.8748 18.4748 31.9464 18.4748H30.3927" stroke="#222220" stroke-width="0.5"/>
<path d="M30.3927 21.6199H31.9464C32.8748 21.6199 33.6232 22.3683 33.6232 23.2967V28.8862" stroke="#222220" stroke-width="0.5"/>
<path d="M6.37706 28.8957V23.3062C6.37706 22.3778 7.12549 21.6294 8.05391 21.6294H9.80654" stroke="#222220" stroke-width="0.5"/>
<path d="M16.4475 21.0042C16.9394 21.0042 17.3381 20.6055 17.3381 20.1137C17.3381 19.6218 16.9394 19.2231 16.4475 19.2231C15.9557 19.2231 15.557 19.6218 15.557 20.1137C15.557 20.6055 15.9557 21.0042 16.4475 21.0042Z" stroke="#222220" stroke-width="0.5"/>
<path d="M20.095 21.0042C20.5868 21.0042 20.9855 20.6055 20.9855 20.1137C20.9855 19.6218 20.5868 19.2231 20.095 19.2231C19.6032 19.2231 19.2045 19.6218 19.2045 20.1137C19.2045 20.6055 19.6032 21.0042 20.095 21.0042Z" stroke="#222220" stroke-width="0.5"/>
<path d="M23.7422 21.0042C24.2341 21.0042 24.6328 20.6055 24.6328 20.1137C24.6328 19.6218 24.2341 19.2231 23.7422 19.2231C23.2504 19.2231 22.8517 19.6218 22.8517 20.1137C22.8517 20.6055 23.2504 21.0042 23.7422 21.0042Z" stroke="#222220" stroke-width="0.5"/>
</svg>
