<svg width="40" height="40" viewBox="0 0 40 40" fill="none" xmlns="http://www.w3.org/2000/svg">
<path d="M8.93001 13.7001V4.58011C8.93001 3.48011 9.82001 2.59009 10.92 2.59009H29.09C30.19 2.59009 31.08 3.48011 31.08 4.58011V8.71011" stroke="#222220" stroke-width="0.5"/>
<path d="M31.08 19.24V35.6C31.08 36.7 30.19 37.59 29.09 37.59H10.92C9.82001 37.59 8.93001 36.7 8.93001 35.6V24.23" stroke="#222220" stroke-width="0.5"/>
<path d="M20 35.3901C20.7843 35.3901 21.42 34.7543 21.42 33.9701C21.42 33.1858 20.7843 32.55 20 32.55C19.2158 32.55 18.58 33.1858 18.58 33.9701C18.58 34.7543 19.2158 35.3901 20 35.3901Z" stroke="#222220" stroke-width="0.5"/>
<path d="M17.96 4.59009H21.89" stroke="#222220" stroke-width="0.5"/>
<path d="M37.12 8.71021H25.78C24.75 8.71021 23.92 9.54019 23.92 10.5702V17.3802C23.92 18.4102 24.75 19.2402 25.78 19.2402H25.79V23.2702L29.76 19.2402H37.11C38.14 19.2402 38.97 18.4102 38.97 17.3802V10.5702C38.98 9.54019 38.14 8.71021 37.12 8.71021Z" stroke="#222220" stroke-width="0.5"/>
<path d="M26.58 13.7002H36.31" stroke="#222220" stroke-width="0.5"/>
<path d="M2.89001 13.7002H14.23C15.26 13.7002 16.09 14.5302 16.09 15.5602V22.3702C16.09 23.4002 15.26 24.2302 14.23 24.2302H14.22V28.2602L10.25 24.2302H2.90001C1.87001 24.2302 1.04001 23.4002 1.04001 22.3702V15.5602C1.03001 14.5302 1.86001 13.7002 2.89001 13.7002Z" stroke="#222220" stroke-width="0.5"/>
<path d="M4.48001 20.0103C5.0323 20.0103 5.48001 19.5625 5.48001 19.0103C5.48001 18.458 5.0323 18.0103 4.48001 18.0103C3.92773 18.0103 3.48001 18.458 3.48001 19.0103C3.48001 19.5625 3.92773 20.0103 4.48001 20.0103Z" stroke="#222220" stroke-width="0.5"/>
<path d="M8.56001 20.0103C9.1123 20.0103 9.56001 19.5625 9.56001 19.0103C9.56001 18.458 9.1123 18.0103 8.56001 18.0103C8.00773 18.0103 7.56001 18.458 7.56001 19.0103C7.56001 19.5625 8.00773 20.0103 8.56001 20.0103Z" stroke="#222220" stroke-width="0.5"/>
<path d="M12.64 20.0103C13.1923 20.0103 13.64 19.5625 13.64 19.0103C13.64 18.458 13.1923 18.0103 12.64 18.0103C12.0877 18.0103 11.64 18.458 11.64 19.0103C11.64 19.5625 12.0877 20.0103 12.64 20.0103Z" stroke="#222220" stroke-width="0.5"/>
</svg>
