<svg width="40" height="40" viewBox="0 0 40 40" fill="none" xmlns="http://www.w3.org/2000/svg">
<path d="M20.03 31.6099V35.8399" stroke="#222220" stroke-width="0.5"/>
<path d="M20.03 4.15991V8.38995" stroke="#222220" stroke-width="0.5"/>
<path d="M20 4.35999C21.0659 4.35999 21.93 3.4959 21.93 2.42999C21.93 1.36408 21.0659 0.5 20 0.5C18.9341 0.5 18.07 1.36408 18.07 2.42999C18.07 3.4959 18.9341 4.35999 20 4.35999Z" stroke="#222220" stroke-width="0.5"/>
<path d="M20 39.5001C21.0659 39.5001 21.93 38.636 21.93 37.5701C21.93 36.5042 21.0659 35.6401 20 35.6401C18.9341 35.6401 18.07 36.5042 18.07 37.5701C18.07 38.636 18.9341 39.5001 20 39.5001Z" stroke="#222220" stroke-width="0.5"/>
<path d="M11.81 28.23L8.81999 31.22" stroke="#222220" stroke-width="0.5"/>
<path d="M31.22 8.81982L28.23 11.8098" stroke="#222220" stroke-width="0.5"/>
<path d="M32.43 9.50989C33.4959 9.50989 34.36 8.6458 34.36 7.5799C34.36 6.51399 33.4959 5.6499 32.43 5.6499C31.3641 5.6499 30.5 6.51399 30.5 7.5799C30.5 8.6458 31.3641 9.50989 32.43 9.50989Z" stroke="#222220" stroke-width="0.5"/>
<path d="M7.57999 34.3497C8.6459 34.3497 9.50999 33.4856 9.50999 32.4197C9.50999 31.3538 8.6459 30.4897 7.57999 30.4897C6.51408 30.4897 5.64999 31.3538 5.64999 32.4197C5.64999 33.4856 6.51408 34.3497 7.57999 34.3497Z" stroke="#222220" stroke-width="0.5"/>
<path d="M28.23 28.2L31.22 31.1799" stroke="#222220" stroke-width="0.5"/>
<path d="M8.81999 8.78979L11.81 11.7698" stroke="#222220" stroke-width="0.5"/>
<path d="M7.57999 9.50989C8.6459 9.50989 9.50999 8.6458 9.50999 7.5799C9.50999 6.51399 8.6459 5.6499 7.57999 5.6499C6.51408 5.6499 5.64999 6.51399 5.64999 7.5799C5.64999 8.6458 6.51408 9.50989 7.57999 9.50989Z" stroke="#222220" stroke-width="0.5"/>
<path d="M32.43 34.3497C33.4959 34.3497 34.36 33.4856 34.36 32.4197C34.36 31.3538 33.4959 30.4897 32.43 30.4897C31.3641 30.4897 30.5 31.3538 30.5 32.4197C30.5 33.4856 31.3641 34.3497 32.43 34.3497Z" stroke="#222220" stroke-width="0.5"/>
<path d="M31.62 19.98H35.84" stroke="#222220" stroke-width="0.5"/>
<path d="M4.17001 19.98H8.39001" stroke="#222220" stroke-width="0.5"/>
<path d="M2.43 21.9301C3.49591 21.9301 4.36 21.066 4.36 20.0001C4.36 18.9342 3.49591 18.0701 2.43 18.0701C1.36409 18.0701 0.5 18.9342 0.5 20.0001C0.5 21.066 1.36409 21.9301 2.43 21.9301Z" stroke="#222220" stroke-width="0.5"/>
<path d="M37.57 21.9301C38.6359 21.9301 39.5 21.066 39.5 20.0001C39.5 18.9342 38.6359 18.0701 37.57 18.0701C36.5041 18.0701 35.64 18.9342 35.64 20.0001C35.64 21.066 36.5041 21.9301 37.57 21.9301Z" stroke="#222220" stroke-width="0.5"/>
<path d="M20.03 31.6101C26.442 31.6101 31.64 26.4121 31.64 20.0001C31.64 13.5881 26.442 8.39014 20.03 8.39014C13.618 8.39014 8.42001 13.5881 8.42001 20.0001C8.42001 26.4121 13.618 31.6101 20.03 31.6101Z" stroke="#222220" stroke-width="0.5"/>
<path d="M20.03 18.48C21.5212 18.48 22.73 17.2713 22.73 15.7801C22.73 14.2889 21.5212 13.0801 20.03 13.0801C18.5389 13.0801 17.33 14.2889 17.33 15.7801C17.33 17.2713 18.5389 18.48 20.03 18.48Z" stroke="#222220" stroke-width="0.5"/>
<path d="M13.26 23.5302L14.41 21.7902C15.17 20.6302 16.35 19.9602 17.6 19.9602H22.41C23.65 19.9602 24.82 20.6302 25.58 21.7702L26.77 23.5502C26.77 23.5502 24.53 27.0902 20.01 27.0902C15.5 27.0802 13.26 23.5302 13.26 23.5302Z" stroke="#222220" stroke-width="0.5"/>
</svg>
