<svg width="40" height="40" viewBox="0 0 40 40" fill="none" xmlns="http://www.w3.org/2000/svg">
<path d="M27.51 23.28L23.68 16.71" stroke="#222220" stroke-width="0.5"/>
<path d="M12.59 23.28L16.43 16.71" stroke="#222220" stroke-width="0.5"/>
<path d="M16.04 30.28H23.94" stroke="#222220" stroke-width="0.5"/>
<path d="M19.98 17.7199C23.9951 17.7199 27.25 14.4651 27.25 10.45C27.25 6.43484 23.9951 3.17993 19.98 3.17993C15.9649 3.17993 12.71 6.43484 12.71 10.45C12.71 14.4651 15.9649 17.7199 19.98 17.7199Z" stroke="#222220" stroke-width="0.5"/>
<path d="M19.99 11.0599C21.2106 11.0599 22.2 10.0704 22.2 8.84988C22.2 7.62933 21.2106 6.63989 19.99 6.63989C18.7695 6.63989 17.78 7.62933 17.78 8.84988C17.78 10.0704 18.7695 11.0599 19.99 11.0599Z" stroke="#222220" stroke-width="0.5"/>
<path d="M14.46 15.18L15.4 13.76C16.02 12.81 16.99 12.26 18.01 12.26H21.94C22.95 12.26 23.91 12.8 24.53 13.74L25.5 15.19" stroke="#222220" stroke-width="0.5"/>
<path d="M31.23 36.82C35.2451 36.82 38.5 33.5652 38.5 29.55C38.5 25.5349 35.2451 22.28 31.23 22.28C27.2149 22.28 23.96 25.5349 23.96 29.55C23.96 33.5652 27.2149 36.82 31.23 36.82Z" stroke="#222220" stroke-width="0.5"/>
<path d="M31.24 30.16C32.4606 30.16 33.45 29.1705 33.45 27.95C33.45 26.7294 32.4606 25.74 31.24 25.74C30.0195 25.74 29.03 26.7294 29.03 27.95C29.03 29.1705 30.0195 30.16 31.24 30.16Z" stroke="#222220" stroke-width="0.5"/>
<path d="M25.71 34.2801L26.65 32.8601C27.27 31.9101 28.24 31.3601 29.26 31.3601H33.19C34.2 31.3601 35.16 31.9001 35.78 32.8401L36.75 34.2901" stroke="#222220" stroke-width="0.5"/>
<path d="M8.78001 36.82C12.7951 36.82 16.05 33.5652 16.05 29.55C16.05 25.5349 12.7951 22.28 8.78001 22.28C4.7649 22.28 1.51001 25.5349 1.51001 29.55C1.51001 33.5652 4.7649 36.82 8.78001 36.82Z" stroke="#222220" stroke-width="0.5"/>
<path d="M8.78001 30.16C10.0006 30.16 10.99 29.1705 10.99 27.95C10.99 26.7294 10.0006 25.74 8.78001 25.74C7.55946 25.74 6.57001 26.7294 6.57001 27.95C6.57001 29.1705 7.55946 30.16 8.78001 30.16Z" stroke="#222220" stroke-width="0.5"/>
<path d="M3.25 34.2801L4.19 32.8601C4.81 31.9101 5.78 31.3601 6.8 31.3601H10.73C11.74 31.3601 12.7 31.9001 13.32 32.8401L14.29 34.2901" stroke="#222220" stroke-width="0.5"/>
</svg>
