<svg width="40" height="40" viewBox="0 0 40 40" fill="none" xmlns="http://www.w3.org/2000/svg">
<path d="M38 20C38 29.9411 29.9411 38 20 38C10.0589 38 2 29.9411 2 20C2 10.0589 10.0589 2 20 2C29.9411 2 38 10.0589 38 20Z" fill="white" fill-opacity="0.25"/>
<path d="M18.3744 21V28H21.2968V21H23.4758L23.8904 18.1043H21.2968V16.2261C21.2968 15.4331 21.6592 14.6609 22.8208 14.6609H24V12.1957C24 12.1957 22.9295 12 21.9067 12C19.7706 12 18.3744 13.3868 18.3744 15.8974V18.1043H16V21H18.3744Z" fill="white"/>
</svg>
