<svg width="40" height="40" viewBox="0 0 40 40" fill="none" xmlns="http://www.w3.org/2000/svg">
<path d="M38 20C38 29.9411 29.9411 38 20 38C10.0589 38 2 29.9411 2 20C2 10.0589 10.0589 2 20 2C29.9411 2 38 10.0589 38 20Z" fill="white" fill-opacity="0.25"/>
<path fill-rule="evenodd" clip-rule="evenodd" d="M12.8705 16.0681V26.9996H16.2698V16.0681H12.8705ZM12.5977 12.6106C12.5977 13.6975 13.4788 14.5786 14.5702 14.5786C15.6571 14.5786 16.5382 13.693 16.5382 12.6106C16.5382 11.5237 15.6571 10.6426 14.5702 10.6426C13.4788 10.6426 12.5977 11.5237 12.5977 12.6106ZM25.5956 26.9996H28.9905V21.0016C28.9905 18.0585 28.3553 15.7952 24.9158 15.7952C23.2653 15.7952 22.156 16.7032 21.7043 17.562H21.6596V16.0681H18.4034V26.9996H21.7937V21.5965C21.7937 20.1696 22.0621 18.7876 23.8289 18.7876C25.5733 18.7876 25.5956 20.4201 25.5956 21.6859V26.9996Z" fill="white"/>
</svg>
