<svg width="40" height="40" viewBox="0 0 40 40" fill="none" xmlns="http://www.w3.org/2000/svg">
<circle cx="20" cy="20" r="18" fill="#BEBEBE" fill-opacity="0.29"/>
<path fill-rule="evenodd" clip-rule="evenodd" d="M12.8695 16.0676V26.9991H16.2689V16.0676H12.8695ZM12.5967 12.6101C12.5967 13.697 13.4778 14.5782 14.5692 14.5782C15.6561 14.5782 16.5372 13.6925 16.5372 12.6101C16.5372 11.5232 15.6561 10.6421 14.5692 10.6421C13.4778 10.6421 12.5967 11.5232 12.5967 12.6101ZM25.5946 26.9991H28.9895V21.0011C28.9895 18.058 28.3544 15.7948 24.9148 15.7948C23.2643 15.7948 22.1551 16.7027 21.7033 17.5615H21.6586V16.0676H18.4024V26.9991H21.7928V21.596C21.7928 20.1692 22.0611 18.7871 23.8279 18.7871C25.5723 18.7871 25.5946 20.4196 25.5946 21.6854V26.9991Z" fill="#162038"/>
</svg>
