<svg width="16" height="17" viewBox="0 0 16 17" fill="none" xmlns="http://www.w3.org/2000/svg">
<g clip-path="url(#clip0)">
<path d="M7.99922 0.999023C4.60513 0.999023 1.84375 3.7604 1.84375 7.15454C1.84375 10.3628 6.95293 15.886 7.53543 16.506L7.99922 16.999L8.46302 16.506C9.04565 15.8866 14.1547 10.3628 14.1547 7.15454C14.155 3.7604 11.3936 0.999023 7.99922 0.999023ZM7.99922 9.70187C6.59482 9.70187 5.45212 8.55917 5.45212 7.15476C5.45212 5.75031 6.59482 4.60766 7.99922 4.60766C9.40394 4.60766 10.5463 5.75036 10.5463 7.15476C10.5463 8.55921 9.40394 9.70187 7.99922 9.70187Z" fill="#FFDB00"/>
</g>
<defs>
<clipPath id="clip0">
<rect width="16" height="16" fill="white" transform="translate(0 1)"/>
</clipPath>
</defs>
</svg>
