<svg width="202" height="24" viewBox="0 0 202 24" fill="none" xmlns="http://www.w3.org/2000/svg">
<path d="M53.0102 19.7186C53.0102 20.4214 52.8536 20.9796 52.5406 21.396C52.2276 21.8124 51.7964 22.0191 51.2471 22.0191C50.7185 22.0191 50.305 21.8272 50.0097 21.4462L49.9595 21.9364H49.0381V15.5132H50.054V17.8462C50.3464 17.5007 50.7421 17.3265 51.2382 17.3265C51.7905 17.3265 52.2246 17.5302 52.5376 17.9407C52.8536 18.3512 53.0102 18.9241 53.0102 19.6595V19.7186ZM51.9942 19.63C51.9942 19.1397 51.9086 18.7706 51.7344 18.5255C51.5631 18.2803 51.3121 18.1563 50.9813 18.1563C50.5413 18.1563 50.2312 18.3483 50.054 18.7351V20.5986C50.2341 20.9914 50.5472 21.1893 50.9902 21.1893C51.3091 21.1893 51.5542 21.0711 51.7255 20.8349C51.8968 20.5986 51.9883 20.2413 51.9942 19.7599V19.63Z" fill="#878E9B"/>
<path d="M55.405 20.4805L56.3264 17.4121H57.4102L55.6117 22.6216C55.3371 23.3835 54.8675 23.7645 54.206 23.7645C54.0584 23.7645 53.8959 23.7409 53.7158 23.6877V22.8992L53.9077 22.911C54.1647 22.911 54.3566 22.8637 54.4866 22.7722C54.6165 22.6777 54.7199 22.5212 54.7937 22.3026L54.9414 21.9128L53.3525 17.4121H54.4482L55.405 20.4805Z" fill="#878E9B"/>
<path d="M63.6477 20.516H61.2881L60.7949 21.9335H59.6963L61.9968 15.844H62.9448L65.2483 21.9335H64.1438L63.6477 20.516ZM61.5863 19.6625H63.3524L62.4693 17.1375L61.5863 19.6625Z" fill="#878E9B"/>
<path d="M66.5921 17.4091L66.6216 17.9318C66.9553 17.5272 67.3954 17.3264 67.9388 17.3264C68.8808 17.3264 69.3593 17.8669 69.377 18.9448V21.9334H68.3611V19.0009C68.3611 18.7144 68.2991 18.5018 68.175 18.363C68.051 18.2242 67.8472 18.1563 67.5667 18.1563C67.1562 18.1563 66.852 18.3423 66.6512 18.7115V21.9305H65.6353V17.4062H66.5921V17.4091Z" fill="#878E9B"/>
<path d="M70.2305 19.6389C70.2305 18.9419 70.3929 18.3808 70.7148 17.9585C71.0367 17.5362 71.4708 17.3235 72.0142 17.3235C72.4926 17.3235 72.8825 17.4919 73.1778 17.8256V15.5103H74.1937V21.9335H73.2723L73.2221 21.4639C72.9179 21.8331 72.5133 22.0162 72.0054 22.0162C71.4767 22.0162 71.0456 21.8036 70.7207 21.3753C70.3959 20.953 70.2305 20.3712 70.2305 19.6389ZM71.2464 19.7274C71.2464 20.1882 71.335 20.5455 71.5122 20.8054C71.6894 21.0653 71.9404 21.1922 72.2682 21.1922C72.6846 21.1922 72.9888 21.0062 73.1807 20.637V18.7056C72.9947 18.3424 72.6935 18.1622 72.277 18.1622C71.9492 18.1622 71.6953 18.2922 71.5151 18.5521C71.335 18.812 71.2464 19.2018 71.2464 19.7274Z" fill="#878E9B"/>
<path d="M77.2565 22.0191C76.6127 22.0191 76.09 21.8153 75.6913 21.4107C75.2926 21.0061 75.0918 20.4657 75.0918 19.7894V19.6624C75.0918 19.2106 75.1774 18.806 75.3517 18.4516C75.5259 18.0972 75.771 17.8196 76.0841 17.6217C76.4001 17.4239 76.7515 17.3264 77.1384 17.3264C77.7556 17.3264 78.2311 17.5243 78.5677 17.9171C78.9044 18.3098 79.0727 18.865 79.0727 19.5856V19.9961H76.1166C76.1461 20.3682 76.2731 20.6665 76.4916 20.8821C76.7102 21.0977 76.9848 21.2069 77.3185 21.2069C77.7851 21.2069 78.1631 21.0179 78.4555 20.6429L79.0019 21.1656C78.8217 21.4373 78.5795 21.647 78.2754 21.7946C77.9712 21.9423 77.6345 22.0191 77.2565 22.0191ZM77.1354 18.1415C76.8578 18.1415 76.6304 18.239 76.4591 18.4339C76.2879 18.6288 76.1786 18.9005 76.1313 19.249H78.0686V19.1751C78.045 18.8355 77.9564 18.5786 77.7969 18.4043C77.6375 18.2301 77.4189 18.1415 77.1354 18.1415Z" fill="#878E9B"/>
<path d="M82.2386 18.3394C82.1057 18.3157 81.9669 18.3069 81.8252 18.3069C81.3586 18.3069 81.0455 18.4841 80.8831 18.8414V21.9364H79.8672V17.4121H80.8388L80.8624 17.9171C81.1075 17.5243 81.4472 17.3264 81.8842 17.3264C82.0289 17.3264 82.15 17.3471 82.2445 17.3855L82.2386 18.3394Z" fill="#878E9B"/>
<path d="M85.4247 20.7049C85.4247 20.5247 85.3509 20.386 85.2003 20.2914C85.0526 20.1969 84.8045 20.1143 84.459 20.0404C84.1135 19.9666 83.824 19.875 83.5937 19.7628C83.0857 19.5177 82.8318 19.1633 82.8318 18.6967C82.8318 18.3069 82.9971 17.9791 83.325 17.7192C83.6528 17.4564 84.0721 17.3264 84.5801 17.3264C85.1205 17.3264 85.5576 17.4593 85.8913 17.7281C86.225 17.9968 86.3904 18.3423 86.3904 18.7705H85.3745C85.3745 18.5756 85.3007 18.4132 85.156 18.2833C85.0112 18.1533 84.8193 18.0883 84.5771 18.0883C84.3556 18.0883 84.1725 18.1386 84.0308 18.2419C83.889 18.3453 83.8211 18.4841 83.8211 18.6554C83.8211 18.8119 83.8861 18.933 84.019 19.0186C84.1489 19.1043 84.4147 19.1928 84.8134 19.2785C85.2121 19.3671 85.5251 19.4705 85.7525 19.5915C85.9799 19.7126 86.1482 19.8573 86.2575 20.0286C86.3668 20.1999 86.4229 20.4066 86.4229 20.6488C86.4229 21.0563 86.2545 21.3871 85.9179 21.6381C85.5812 21.8891 85.1382 22.0161 84.5919 22.0161C84.2198 22.0161 83.892 21.9482 83.5996 21.8153C83.3102 21.6824 83.0828 21.4964 82.9233 21.2631C82.7609 21.0297 82.6812 20.7758 82.6812 20.507H83.6675C83.6823 20.7462 83.7709 20.9323 83.9392 21.0622C84.1076 21.1922 84.3291 21.2571 84.6037 21.2571C84.8724 21.2571 85.0733 21.2069 85.215 21.1036C85.3538 21.0032 85.4247 20.8703 85.4247 20.7049Z" fill="#878E9B"/>
<path d="M89.3078 22.0191C88.664 22.0191 88.1413 21.8153 87.7426 21.4107C87.3439 21.0061 87.1431 20.4657 87.1431 19.7894V19.6624C87.1431 19.2106 87.2287 18.806 87.403 18.4516C87.5772 18.0972 87.8223 17.8196 88.1354 17.6217C88.4513 17.4239 88.8028 17.3264 89.1896 17.3264C89.8069 17.3264 90.2823 17.5243 90.619 17.9171C90.9557 18.3098 91.124 18.865 91.124 19.5856V19.9961H88.1678C88.1974 20.3682 88.3244 20.6665 88.5429 20.8821C88.7614 21.0977 89.0361 21.2069 89.3698 21.2069C89.8364 21.2069 90.2144 21.0179 90.5068 20.6429L91.0531 21.1656C90.873 21.4373 90.6308 21.647 90.3266 21.7946C90.0224 21.9423 89.6858 22.0191 89.3078 22.0191ZM89.1867 18.1415C88.9091 18.1415 88.6817 18.239 88.5104 18.4339C88.3391 18.6288 88.2299 18.9005 88.1826 19.249H90.1199V19.1751C90.0963 18.8355 90.0077 18.5786 89.8482 18.4043C89.6887 18.2301 89.4702 18.1415 89.1867 18.1415Z" fill="#878E9B"/>
<path d="M92.8636 17.4091L92.8931 17.9318C93.2268 17.5272 93.6669 17.3264 94.2103 17.3264C95.1523 17.3264 95.6307 17.8669 95.6485 18.9448V21.9334H94.6326V19.0009C94.6326 18.7144 94.5705 18.5018 94.4465 18.363C94.3225 18.2242 94.1187 18.1563 93.8381 18.1563C93.4276 18.1563 93.1235 18.3423 92.9226 18.7115V21.9305H91.9067V17.4062H92.8636V17.4091Z" fill="#878E9B"/>
<path d="M97.7752 21.9335H96.7593V15.5103H97.7752V21.9335Z" fill="#878E9B"/>
<path d="M101.591 21.9335C101.546 21.8478 101.508 21.7061 101.472 21.5111C101.148 21.8478 100.752 22.0161 100.285 22.0161C99.8305 22.0161 99.4613 21.8862 99.1719 21.6263C98.8854 21.3664 98.7407 21.0475 98.7407 20.6636C98.7407 20.1822 98.9209 19.8101 99.2782 19.5532C99.6355 19.2962 100.149 19.1663 100.814 19.1663H101.437V18.868C101.437 18.6347 101.372 18.4457 101.239 18.3069C101.106 18.1681 100.908 18.0972 100.64 18.0972C100.409 18.0972 100.22 18.1563 100.07 18.2715C99.922 18.3866 99.8482 18.5343 99.8482 18.7115H98.8323C98.8323 18.4634 98.915 18.2301 99.0803 18.0145C99.2457 17.799 99.4672 17.6277 99.7507 17.5066C100.034 17.3855 100.35 17.3235 100.699 17.3235C101.227 17.3235 101.65 17.4564 101.966 17.7222C102.282 17.988 102.441 18.363 102.45 18.8444V20.8851C102.45 21.2926 102.506 21.6175 102.621 21.8596V21.9305H101.591V21.9335ZM100.474 21.2011C100.675 21.2011 100.864 21.1509 101.041 21.0534C101.218 20.9559 101.351 20.826 101.44 20.6606V19.8071H100.891C100.516 19.8071 100.232 19.8721 100.04 20.005C99.8511 20.1349 99.7566 20.321 99.7566 20.5602C99.7566 20.7551 99.8216 20.9116 99.9515 21.0268C100.084 21.1449 100.259 21.2011 100.474 21.2011Z" fill="#878E9B"/>
<path d="M107.5 19.7186C107.5 20.4214 107.343 20.9796 107.03 21.396C106.717 21.8124 106.286 22.0191 105.737 22.0191C105.208 22.0191 104.795 21.8272 104.499 21.4462L104.449 21.9364H103.528V15.5132H104.544V17.8462C104.836 17.5007 105.232 17.3265 105.728 17.3265C106.28 17.3265 106.714 17.5302 107.027 17.9407C107.343 18.3512 107.5 18.9241 107.5 19.6595V19.7186ZM106.484 19.63C106.484 19.1397 106.398 18.7706 106.224 18.5255C106.053 18.2803 105.802 18.1563 105.471 18.1563C105.031 18.1563 104.721 18.3483 104.544 18.7351V20.5986C104.724 20.9914 105.037 21.1893 105.48 21.1893C105.799 21.1893 106.044 21.0711 106.215 20.8349C106.387 20.5986 106.478 20.2413 106.484 19.7599V19.63Z" fill="#878E9B"/>
<path d="M30.7605 8.20401H24.6592V0.83574C24.6592 0.696939 24.7714 0.584717 24.9102 0.584717H30.5095C30.6483 0.584717 30.7605 0.696939 30.7605 0.83574V8.20401Z" fill="#878E9B"/>
<path d="M18.3184 6.68606H6.35791V0.584717H18.3184C18.4572 0.584717 18.5695 0.696939 18.5695 0.83574V6.43504C18.5695 6.57384 18.4572 6.68606 18.3184 6.68606Z" fill="#878E9B"/>
<path d="M18.3066 21.9336H6.35791V15.8323H18.3066C18.4454 15.8323 18.5576 15.9445 18.5576 16.0833V21.6826C18.5576 21.8214 18.4454 21.9336 18.3066 21.9336Z" fill="#878E9B"/>
<path d="M42.7121 6.68606H37.1128C36.974 6.68606 36.8618 6.57384 36.8618 6.43504V0.83574C36.8618 0.696939 36.974 0.584717 37.1128 0.584717H42.7121C42.8509 0.584717 42.9632 0.696939 42.9632 0.83574V6.43504C42.9632 6.57384 42.8509 6.68606 42.7121 6.68606Z" fill="#BEC2CB"/>
<path d="M42.7121 21.9336H37.1128C36.974 21.9336 36.8618 21.8213 36.8618 21.6825V14.3083H42.9632V21.6825C42.9632 21.8213 42.8509 21.9336 42.7121 21.9336Z" fill="#878E9B"/>
<path d="M6.35791 8.20996H42.712C42.8508 8.20996 42.963 8.32218 42.963 8.46098V14.3113H6.35791V8.20996Z" fill="#FFDB00"/>
<path d="M30.5095 21.9336H24.9102C24.7714 21.9336 24.6592 21.8214 24.6592 21.6826V16.0833C24.6592 15.9445 24.7714 15.8323 24.9102 15.8323H30.5095C30.6483 15.8323 30.7605 15.9445 30.7605 16.0833V21.6826C30.7605 21.8214 30.6483 21.9336 30.5095 21.9336Z" fill="#BEC2CB"/>
<path d="M6.35818 21.9335H0.507859C0.369058 21.9335 0.256836 21.8213 0.256836 21.6825V0.83574C0.256836 0.696939 0.369058 0.584717 0.507859 0.584717H6.35818V21.9335Z" fill="#BEC2CB"/>
<path d="M73.6535 0.841599V12.5511C73.6535 12.6899 73.5413 12.8021 73.4025 12.8021H70.3873C70.3134 12.8021 70.2425 12.7696 70.1953 12.7135L65.6296 7.25599V12.5511C65.6296 12.6899 65.5174 12.8021 65.3786 12.8021H61.8672C61.7284 12.8021 61.6162 12.6899 61.6162 12.5511V0.841599C61.6162 0.702798 61.7284 0.590576 61.8672 0.590576H64.8825C64.9563 0.590576 65.0272 0.623062 65.0744 0.679174L69.6401 6.13672V0.841599C69.6401 0.702798 69.7523 0.590576 69.8911 0.590576H73.4025C73.5413 0.590576 73.6535 0.702798 73.6535 0.841599Z" fill="#BEC2CB"/>
<path d="M110.06 6.36415H113.135C113.274 6.36415 113.386 6.47637 113.386 6.61518V11.3905C113.386 11.4762 113.344 11.5559 113.274 11.6032C112.577 12.0668 111.776 12.4242 110.873 12.6781C109.919 12.9469 108.983 13.0798 108.064 13.0798C106.762 13.0798 105.592 12.8081 104.559 12.2676C103.522 11.7272 102.713 10.9712 102.125 9.99956C101.537 9.02795 101.245 7.9264 101.245 6.69491C101.245 5.46342 101.537 4.35892 102.125 3.39026C102.713 2.41866 103.534 1.66263 104.585 1.12219C105.64 0.581755 106.827 0.310059 108.153 0.310059C109.352 0.310059 110.424 0.510875 111.372 0.912513C112.24 1.27871 112.972 1.80143 113.575 2.47476C113.666 2.57813 113.655 2.7376 113.551 2.82915L111.289 4.82257C111.186 4.91412 111.032 4.90231 110.938 4.8019C110.205 4.02816 109.349 3.64424 108.365 3.64424C107.459 3.64424 106.738 3.91594 106.204 4.46523C105.669 5.01158 105.4 5.75579 105.4 6.69787C105.4 7.61632 105.666 8.35462 106.195 8.91278C106.723 9.47093 107.429 9.75149 108.315 9.75149C108.838 9.75149 109.34 9.65403 109.815 9.45617V6.62108C109.809 6.47637 109.922 6.36415 110.06 6.36415Z" fill="#BEC2CB"/>
<path d="M141.578 0.599365H145.192C145.331 0.599365 145.443 0.711587 145.443 0.850388V12.5599C145.443 12.6987 145.331 12.8109 145.192 12.8109H141.578C141.439 12.8109 141.327 12.6987 141.327 12.5599V0.850388C141.327 0.711587 141.439 0.599365 141.578 0.599365Z" fill="#BEC2CB"/>
<path d="M150.363 12.2794C149.327 11.7389 148.518 10.9829 147.93 10.0113C147.342 9.03967 147.05 7.93812 147.05 6.70663C147.05 5.47514 147.342 4.37064 147.93 3.40198C148.518 2.43037 149.33 1.67435 150.363 1.13391C151.397 0.593473 152.561 0.321777 153.851 0.321777C155.038 0.321777 156.096 0.531457 157.026 0.950814C157.882 1.33473 158.6 1.87812 159.179 2.57804C159.264 2.6814 159.25 2.83792 159.149 2.92652L156.922 4.91403C156.816 5.00853 156.657 4.99377 156.562 4.88745C155.845 4.06646 155.009 3.65596 154.058 3.65596C153.198 3.65596 152.504 3.93356 151.982 4.48581C151.459 5.03807 151.196 5.77932 151.196 6.70959C151.196 7.63985 151.459 8.38111 151.982 8.93336C152.504 9.48561 153.198 9.76321 154.058 9.76321C155.009 9.76321 155.842 9.35271 156.562 8.53172C156.657 8.4254 156.816 8.41064 156.922 8.50514L159.149 10.4927C159.25 10.5813 159.264 10.7378 159.179 10.8411C158.6 11.541 157.879 12.0815 157.026 12.4684C156.096 12.8877 155.038 13.0974 153.851 13.0974C152.561 13.0915 151.397 12.8198 150.363 12.2794Z" fill="#BEC2CB"/>
<path d="M125.988 3.37841V0.841599C125.988 0.702798 125.875 0.590576 125.737 0.590576H116.085C115.947 0.590576 115.834 0.702798 115.834 0.841599V12.5511C115.834 12.6899 115.947 12.8021 116.085 12.8021H125.737C125.875 12.8021 125.988 12.6899 125.988 12.5511V10.0379C125.988 9.89911 125.875 9.78689 125.737 9.78689H119.883V8.17148H124.795C124.933 8.17148 125.046 8.05926 125.046 7.92046V5.45748C125.046 5.31868 124.933 5.20645 124.795 5.20645H119.883V3.62944H125.737C125.875 3.62944 125.988 3.51721 125.988 3.37841Z" fill="#BEC2CB"/>
<path d="M86.2342 3.37841V0.841599C86.2342 0.702798 86.122 0.590576 85.9832 0.590576H76.3321C76.1933 0.590576 76.0811 0.702798 76.0811 0.841599V12.5511C76.0811 12.6899 76.1933 12.8021 76.3321 12.8021H85.9832C86.122 12.8021 86.2342 12.6899 86.2342 12.5511V10.0379C86.2342 9.89911 86.122 9.78689 85.9832 9.78689H80.1299V8.17148H85.0411C85.1799 8.17148 85.2921 8.05926 85.2921 7.92046V5.45748C85.2921 5.31868 85.1799 5.20645 85.0411 5.20645H80.1299V3.62944H85.9832C86.122 3.62944 86.2342 3.51721 86.2342 3.37841Z" fill="#BEC2CB"/>
<path d="M59.2152 3.37841V0.841599C59.2152 0.702798 59.1029 0.590576 58.9641 0.590576H49.313C49.1742 0.590576 49.062 0.702798 49.062 0.841599V12.5511C49.062 12.6899 49.1742 12.8021 49.313 12.8021H58.9641C59.1029 12.8021 59.2152 12.6899 59.2152 12.5511V10.0379C59.2152 9.89911 59.1029 9.78689 58.9641 9.78689H53.1109V8.17148H58.0221C58.1609 8.17148 58.2731 8.05926 58.2731 7.92046V5.45748C58.2731 5.31868 58.1609 5.20645 58.0221 5.20645H53.1109V3.62944H58.9641C59.1029 3.62944 59.2152 3.51721 59.2152 3.37841Z" fill="#BEC2CB"/>
<path d="M139.017 0.578857H128.25C128.111 0.578857 127.999 0.691079 127.999 0.82988V3.37555C127.999 3.51435 128.111 3.62658 128.25 3.62658H131.575V12.5394C131.575 12.6782 131.687 12.7904 131.826 12.7904H135.441C135.579 12.7904 135.692 12.6782 135.692 12.5394V3.62953H139.017C139.156 3.62953 139.268 3.51731 139.268 3.37851V0.832834C139.268 0.69108 139.156 0.578857 139.017 0.578857Z" fill="#BEC2CB"/>
<path d="M100.058 12.3916L97.772 9.03382C98.5162 8.6499 99.0862 8.13309 99.4819 7.48043C99.8777 6.83072 100.076 6.06879 100.076 5.19464C100.076 4.26438 99.8482 3.44929 99.3963 2.75233C98.9415 2.05537 98.2977 1.52084 97.459 1.14873C96.6203 0.776629 95.6369 0.590576 94.5117 0.590576H88.8947C88.75 0.590576 88.6318 0.708705 88.6318 0.853412V12.5422C88.6318 12.687 88.75 12.8051 88.8947 12.8051H92.4887C92.6334 12.8051 92.7516 12.687 92.7516 12.5422V9.78985H93.8679L95.8672 12.6899C95.9145 12.7608 95.9972 12.8051 96.0828 12.8051H99.8452C100.052 12.8021 100.176 12.5659 100.058 12.3916ZM95.4744 6.29324C95.1732 6.56198 94.7243 6.69487 94.1248 6.69487H92.7457V3.62353H94.1248C94.7243 3.62353 95.1732 3.75938 95.4744 4.02517C95.7727 4.29391 95.9233 4.67192 95.9233 5.15625C95.9233 5.64648 95.7727 6.02449 95.4744 6.29324Z" fill="#BEC2CB"/>
<path d="M177.078 11.5735C176.033 10.5606 175.507 9.14302 175.507 7.31793V0.850388C175.507 0.711587 175.619 0.599365 175.758 0.599365H179.373C179.511 0.599365 179.624 0.711587 179.624 0.850388V7.1939C179.624 8.08872 179.783 8.74138 180.105 9.14893C180.424 9.55647 180.888 9.76024 181.493 9.76024C182.098 9.76024 182.559 9.55647 182.881 9.14893C183.2 8.74138 183.362 8.09168 183.362 7.1939V0.850388C183.362 0.711587 183.475 0.599365 183.613 0.599365H187.157C187.296 0.599365 187.408 0.711587 187.408 0.850388V7.31498C187.408 9.14007 186.886 10.5606 185.837 11.5706C184.792 12.5806 183.33 13.0885 181.458 13.0885C179.585 13.0885 178.126 12.5835 177.078 11.5735Z" fill="#878E9B"/>
<path d="M201.141 7.59551C201.536 8.10642 201.734 8.72364 201.734 9.44423C201.734 10.5133 201.291 11.3431 200.408 11.9308C199.525 12.5185 198.246 12.8109 196.569 12.8109H189.945C189.806 12.8109 189.694 12.6987 189.694 12.5599V0.853318C189.694 0.714517 189.806 0.602295 189.945 0.602295H196.217C197.845 0.602295 199.076 0.894663 199.906 1.47645C200.736 2.05823 201.152 2.83197 201.152 3.79767C201.152 4.36765 201.011 4.87855 200.724 5.33335C200.438 5.78814 200.018 6.15434 199.46 6.43194C200.187 6.69478 200.745 7.08461 201.141 7.59551ZM193.743 3.47873V5.292H195.662C196.557 5.292 197.006 4.99077 197.006 4.38536C197.006 3.77996 196.557 3.47873 195.662 3.47873H193.743ZM197.582 8.97466C197.582 8.33677 197.127 8.01487 196.22 8.01487H193.743V9.93446H196.22C197.127 9.93446 197.582 9.61551 197.582 8.97466Z" fill="#878E9B"/>
<path d="M169.101 0.850388V5.00852H165.297V0.850388C165.297 0.711587 165.185 0.599365 165.046 0.599365H161.432C161.293 0.599365 161.181 0.711587 161.181 0.850388V12.5599C161.181 12.6987 161.293 12.8109 161.432 12.8109H165.046C165.185 12.8109 165.297 12.6987 165.297 12.5599V8.387H169.101V12.5599C169.101 12.6987 169.213 12.8109 169.352 12.8109H172.967C173.106 12.8109 173.218 12.6987 173.218 12.5599V0.850388C173.218 0.711587 173.106 0.599365 172.967 0.599365H169.352C169.213 0.599365 169.101 0.711587 169.101 0.850388Z" fill="#878E9B"/>
</svg>
