<svg width="40" height="40" viewBox="0 0 40 40" fill="none" xmlns="http://www.w3.org/2000/svg">
<g opacity="0.5">
<g opacity="0.8">
<path fill-rule="evenodd" clip-rule="evenodd" d="M2.93305 14.167C2.86232 14.167 2.7945 14.1389 2.74449 14.0889C2.69448 14.0389 2.66638 13.9711 2.66638 13.9004V9.77156C2.66641 9.71803 2.68256 9.66575 2.71271 9.62152C2.74286 9.57729 2.78563 9.54316 2.83545 9.52356L19.9021 2.81423C19.9649 2.78995 20.0345 2.78995 20.0973 2.81423L37.164 9.52356C37.2138 9.54316 37.2566 9.57729 37.2867 9.62152C37.3169 9.66575 37.333 9.71803 37.333 9.77156V13.9004C37.333 13.9711 37.305 14.0389 37.2549 14.0889C37.2049 14.1389 37.1371 14.167 37.0664 14.167H33.1158V29.8585H34.8474C34.9182 29.8585 34.986 29.8866 35.036 29.9366C35.086 29.9866 35.1141 30.0545 35.1141 30.1252V33.2609H37.0216C37.0923 33.2609 37.1602 33.289 37.2102 33.339C37.2602 33.389 37.2883 33.4568 37.2883 33.5275V36.9302C37.2883 37.0009 37.2602 37.0688 37.2102 37.1188C37.1602 37.1688 37.0923 37.1969 37.0216 37.1969H2.97895C2.90822 37.1969 2.84039 37.1688 2.79039 37.1188C2.74038 37.0688 2.71228 37.0009 2.71228 36.9302V33.5275C2.71228 33.4568 2.74038 33.389 2.79039 33.339C2.84039 33.289 2.90822 33.2609 2.97895 33.2609H4.88318V30.1252C4.88318 30.0545 4.91127 29.9866 4.96128 29.9366C5.01129 29.8866 5.07912 29.8585 5.14985 29.8585H6.8822V14.167H2.93305ZM7.41554 29.8585H10.6723V14.1692H7.41554V29.8585ZM7.14887 30.3927C7.14192 30.3927 7.13501 30.3924 7.12813 30.3919H5.41651V33.2609H34.5808V30.3919H32.8699C32.863 30.3924 32.8561 30.3927 32.8492 30.3927H29.059L29.0482 30.3924L29.0383 30.3919H22.1099C22.103 30.3924 22.0961 30.3927 22.0891 30.3927H18.2993C18.2923 30.3927 18.2854 30.3924 18.2785 30.3919H10.9597C10.9529 30.3924 10.9459 30.3927 10.939 30.3927H7.14887ZM11.2057 14.167V29.8585H18.0326V14.167H11.2057ZM22.3558 14.167V29.8585H28.7924V14.167H22.3558ZM21.8225 29.8585V14.1692H18.5659V29.8585H21.8225ZM32.5825 14.1692V29.8585H29.3257V14.1692H32.5825ZM36.7997 13.6337V9.95343L19.9997 3.3489L3.19972 9.95343V13.6337H36.7997ZM34.8652 33.7942H36.755V36.6635H3.24561V33.7942H5.13206C5.13796 33.7946 5.14389 33.7948 5.14985 33.7948H34.8474C34.8534 33.7948 34.8593 33.7946 34.8652 33.7942ZM18.3381 11.201C18.8297 11.5303 19.4079 11.7066 19.9996 11.7074C20.7937 11.7071 21.5552 11.3919 22.1171 10.8308C22.6789 10.2697 22.9953 9.50865 22.9967 8.7146C22.9967 8.12286 22.8213 7.54441 22.4926 7.05233C22.164 6.56026 21.6968 6.17667 21.1502 5.95002C20.6036 5.72338 20.002 5.66387 19.4216 5.779C18.8412 5.89413 18.3079 6.17874 17.8892 6.59687C17.4705 7.01499 17.1851 7.54786 17.0691 8.12812C16.9532 8.70839 17.0118 9.31001 17.2377 9.85694C17.4636 10.4039 17.8465 10.8716 18.3381 11.201ZM18.6344 6.67199C19.0383 6.40121 19.5134 6.25624 19.9996 6.2554C20.6522 6.25554 21.2781 6.51453 21.74 6.97556C22.2019 7.43659 22.462 8.06201 22.4634 8.7146C22.4634 9.20087 22.3193 9.67624 22.0493 10.0806C21.7793 10.485 21.3954 10.8003 20.9463 10.9866C20.4971 11.173 20.0028 11.2219 19.5258 11.1274C19.0488 11.0329 18.6106 10.7991 18.2664 10.4556C17.9222 10.112 17.6876 9.67421 17.5922 9.19739C17.4968 8.72058 17.5449 8.22618 17.7304 7.77669C17.9159 7.32719 18.2305 6.94276 18.6344 6.67199Z" fill="#515257"/>
<path d="M2.74449 14.0889L3.09804 13.7354L3.09804 13.7354L2.74449 14.0889ZM2.66638 9.77156L2.16638 9.77126V9.77156H2.66638ZM2.71271 9.62152L3.12584 9.90316L3.12584 9.90316L2.71271 9.62152ZM2.83545 9.52356L2.65251 9.05823L2.65245 9.05826L2.83545 9.52356ZM19.9021 2.81423L19.7218 2.34786L19.7192 2.3489L19.9021 2.81423ZM20.0973 2.81423L20.2803 2.34889L20.2776 2.34787L20.0973 2.81423ZM37.164 9.52356L37.347 9.05826L37.3469 9.05823L37.164 9.52356ZM37.2867 9.62152L36.8736 9.90315L36.8736 9.90317L37.2867 9.62152ZM37.333 9.77156H37.833V9.77128L37.333 9.77156ZM37.2549 14.0889L36.9014 13.7354L36.9014 13.7354L37.2549 14.0889ZM33.1158 14.167V13.667H32.6158V14.167H33.1158ZM33.1158 29.8585H32.6158V30.3585H33.1158V29.8585ZM35.036 29.9366L34.6824 30.2902L34.6825 30.2902L35.036 29.9366ZM35.1141 33.2609H34.6141V33.7609H35.1141V33.2609ZM37.2102 33.339L37.5637 32.9854L37.5637 32.9854L37.2102 33.339ZM37.2102 37.1188L36.8566 36.7652L36.8566 36.7652L37.2102 37.1188ZM2.79039 37.1188L3.14394 36.7652L3.14393 36.7652L2.79039 37.1188ZM2.79039 33.339L2.43684 32.9854L2.43683 32.9854L2.79039 33.339ZM4.88318 33.2609V33.7609H5.38318V33.2609H4.88318ZM4.96128 29.9366L4.60773 29.5831L4.60773 29.5831L4.96128 29.9366ZM6.8822 29.8585V30.3585H7.3822V29.8585H6.8822ZM6.8822 14.167H7.3822V13.667H6.8822V14.167ZM10.6723 29.8585V30.3585H11.1723V29.8585H10.6723ZM7.41554 29.8585H6.91554V30.3585H7.41554V29.8585ZM10.6723 14.1692H11.1723V13.6692H10.6723V14.1692ZM7.41554 14.1692V13.6692H6.91554V14.1692H7.41554ZM7.12813 30.3919L7.167 29.8934L7.14759 29.8919H7.12813V30.3919ZM5.41651 30.3919V29.8919H4.91651V30.3919H5.41651ZM5.41651 33.2609H4.91651V33.7609H5.41651V33.2609ZM34.5808 33.2609V33.7609H35.0808V33.2609H34.5808ZM34.5808 30.3919H35.0808V29.8919H34.5808V30.3919ZM32.8699 30.3919V29.8919H32.8504L32.831 29.8934L32.8699 30.3919ZM29.059 30.3927L29.0488 30.8927H29.059V30.3927ZM29.0482 30.3924L29.0185 30.8916L29.0283 30.8921L29.038 30.8923L29.0482 30.3924ZM29.0383 30.3919L29.0679 29.8927L29.0531 29.8919H29.0383V30.3919ZM22.1099 30.3919V29.8919H22.0904L22.071 29.8934L22.1099 30.3919ZM18.2785 30.3919L18.3174 29.8934L18.298 29.8919H18.2785V30.3919ZM10.9597 30.3919V29.8919H10.9403L10.9209 29.8934L10.9597 30.3919ZM11.2057 29.8585H10.7057V30.3585H11.2057V29.8585ZM11.2057 14.167V13.667H10.7057V14.167H11.2057ZM18.0326 29.8585V30.3585H18.5326V29.8585H18.0326ZM18.0326 14.167H18.5326V13.667H18.0326V14.167ZM22.3558 29.8585H21.8558V30.3585H22.3558V29.8585ZM22.3558 14.167V13.667H21.8558V14.167H22.3558ZM28.7924 29.8585V30.3585H29.2924V29.8585H28.7924ZM28.7924 14.167H29.2924V13.667H28.7924V14.167ZM21.8225 14.1692H22.3225V13.6692H21.8225V14.1692ZM21.8225 29.8585V30.3585H22.3225V29.8585H21.8225ZM18.5659 14.1692V13.6692H18.0659V14.1692H18.5659ZM18.5659 29.8585H18.0659V30.3585H18.5659V29.8585ZM32.5825 29.8585V30.3585H33.0825V29.8585H32.5825ZM32.5825 14.1692H33.0825V13.6692H32.5825V14.1692ZM29.3257 29.8585H28.8257V30.3585H29.3257V29.8585ZM29.3257 14.1692V13.6692H28.8257V14.1692H29.3257ZM36.7997 9.95343H37.2997V9.61274L36.9827 9.4881L36.7997 9.95343ZM36.7997 13.6337V14.1337H37.2997V13.6337H36.7997ZM19.9997 3.3489L20.1827 2.88356L19.9997 2.81165L19.8168 2.88356L19.9997 3.3489ZM3.19972 9.95343L3.01678 9.4881L2.69972 9.61274V9.95343H3.19972ZM3.19972 13.6337H2.69972V14.1337H3.19972V13.6337ZM36.755 33.7942H37.255V33.2942H36.755V33.7942ZM34.8652 33.7942V33.2942H34.8485L34.8319 33.2953L34.8652 33.7942ZM36.755 36.6635V37.1635H37.255V36.6635H36.755ZM3.24561 36.6635H2.74561V37.1635H3.24561V36.6635ZM3.24561 33.7942V33.2942H2.74561V33.7942H3.24561ZM5.13206 33.7942L5.16544 33.2953L5.14877 33.2942H5.13206V33.7942ZM19.9996 11.7074L19.9989 12.2074H19.9998L19.9996 11.7074ZM22.1171 10.8308L22.4704 11.1846V11.1846L22.1171 10.8308ZM22.9967 8.7146L23.4967 8.71549V8.7146H22.9967ZM22.4926 7.05233L22.9084 6.77462V6.77462L22.4926 7.05233ZM21.1502 5.95002L21.3417 5.48815L21.1502 5.95002ZM17.8892 6.59687L18.2425 6.95067V6.95067L17.8892 6.59687ZM17.0691 8.12812L16.5788 8.03014L17.0691 8.12812ZM17.2377 9.85694L16.7756 10.0478V10.0478L17.2377 9.85694ZM19.9996 6.2554L19.9997 5.7554L19.9988 5.7554L19.9996 6.2554ZM18.6344 6.67199L18.356 6.25668V6.25668L18.6344 6.67199ZM21.74 6.97556L21.3868 7.32944V7.32944L21.74 6.97556ZM22.4634 8.7146L22.9634 8.71455L22.9634 8.71357L22.4634 8.7146ZM22.0493 10.0806L21.6335 9.80298V9.80298L22.0493 10.0806ZM20.9463 10.9866L21.1378 11.4485H21.1379L20.9463 10.9866ZM19.5258 11.1274L19.623 10.637L19.623 10.637L19.5258 11.1274ZM18.2664 10.4556L17.9132 10.8095L17.9132 10.8095L18.2664 10.4556ZM17.5922 9.19739L17.102 9.29549L17.102 9.29549L17.5922 9.19739ZM17.7304 7.77669L17.2682 7.58596V7.58596L17.7304 7.77669ZM2.39093 14.4425C2.53471 14.5863 2.72972 14.667 2.93305 14.667V13.667C2.99493 13.667 3.05428 13.6916 3.09804 13.7354L2.39093 14.4425ZM2.16638 13.9004C2.16638 14.1037 2.24715 14.2987 2.39094 14.4425L3.09804 13.7354C3.1418 13.7791 3.16638 13.8385 3.16638 13.9004H2.16638ZM2.16638 9.77156V13.9004H3.16638V9.77156H2.16638ZM2.29958 9.33988C2.21289 9.46704 2.16648 9.61735 2.16638 9.77126L3.16638 9.77187C3.16635 9.81871 3.15223 9.86446 3.12584 9.90316L2.29958 9.33988ZM2.65245 9.05826C2.50923 9.11458 2.38627 9.21271 2.29958 9.33988L3.12584 9.90316C3.09946 9.94186 3.06204 9.97173 3.01845 9.98887L2.65245 9.05826ZM19.7192 2.3489L2.65251 9.05823L3.01838 9.9889L20.0851 3.27956L19.7192 2.3489ZM20.2776 2.34787C20.0988 2.27874 19.9006 2.27874 19.7218 2.34787L20.0824 3.28059C20.0292 3.30116 19.9702 3.30116 19.917 3.28059L20.2776 2.34787ZM37.3469 9.05823L20.2802 2.3489L19.9144 3.27956L36.981 9.9889L37.3469 9.05823ZM37.6999 9.33989C37.6132 9.2127 37.4902 9.11458 37.347 9.05826L36.981 9.98887C36.9374 9.97173 36.9 9.94187 36.8736 9.90315L37.6999 9.33989ZM37.833 9.77128C37.833 9.61736 37.7865 9.46703 37.6998 9.33987L36.8736 9.90317C36.8472 9.86447 36.8331 9.81871 36.833 9.77185L37.833 9.77128ZM37.833 13.9004V9.77156H36.833V13.9004H37.833ZM37.6085 14.4425C37.7523 14.2987 37.833 14.1037 37.833 13.9004H36.833C36.833 13.8385 36.8576 13.7791 36.9014 13.7354L37.6085 14.4425ZM37.0664 14.667C37.2697 14.667 37.4647 14.5863 37.6085 14.4425L36.9014 13.7354C36.9451 13.6916 37.0045 13.667 37.0664 13.667V14.667ZM33.1158 14.667H37.0664V13.667H33.1158V14.667ZM33.6158 29.8585V14.167H32.6158V29.8585H33.6158ZM34.8474 29.3585H33.1158V30.3585H34.8474V29.3585ZM35.3896 29.5831C35.2458 29.4393 35.0508 29.3585 34.8474 29.3585V30.3585C34.7856 30.3585 34.7262 30.3339 34.6824 30.2902L35.3896 29.5831ZM35.6141 30.1252C35.6141 29.9218 35.5333 29.7268 35.3896 29.5831L34.6825 30.2902C34.6387 30.2464 34.6141 30.1871 34.6141 30.1252H35.6141ZM35.6141 33.2609V30.1252H34.6141V33.2609H35.6141ZM37.0216 32.7609H35.1141V33.7609H37.0216V32.7609ZM37.5637 32.9854C37.42 32.8416 37.225 32.7609 37.0216 32.7609V33.7609C36.9597 33.7609 36.9004 33.7363 36.8566 33.6925L37.5637 32.9854ZM37.7883 33.5275C37.7883 33.3242 37.7075 33.1292 37.5637 32.9854L36.8566 33.6925C36.8129 33.6488 36.7883 33.5894 36.7883 33.5275H37.7883ZM37.7883 36.9302V33.5275H36.7883V36.9302H37.7883ZM37.5637 37.4723C37.7075 37.3285 37.7883 37.1335 37.7883 36.9302H36.7883C36.7883 36.8683 36.8129 36.809 36.8566 36.7652L37.5637 37.4723ZM37.0216 37.6969C37.225 37.6969 37.42 37.6161 37.5637 37.4723L36.8566 36.7652C36.9004 36.7215 36.9597 36.6969 37.0216 36.6969V37.6969ZM2.97895 37.6969H37.0216V36.6969H2.97895V37.6969ZM2.43683 37.4723C2.58061 37.6161 2.77561 37.6969 2.97895 37.6969V36.6969C3.04083 36.6969 3.10018 36.7215 3.14394 36.7652L2.43683 37.4723ZM2.21228 36.9302C2.21228 37.1335 2.29305 37.3285 2.43684 37.4723L3.14393 36.7652C3.1877 36.809 3.21228 36.8683 3.21228 36.9302H2.21228ZM2.21228 33.5275V36.9302H3.21228V33.5275H2.21228ZM2.43683 32.9854C2.29306 33.1292 2.21228 33.3242 2.21228 33.5275H3.21228C3.21228 33.5894 3.1877 33.6488 3.14394 33.6925L2.43683 32.9854ZM2.97895 32.7609C2.77561 32.7609 2.58061 32.8416 2.43684 32.9854L3.14394 33.6925C3.10018 33.7363 3.04083 33.7609 2.97895 33.7609V32.7609ZM4.88318 32.7609H2.97895V33.7609H4.88318V32.7609ZM4.38318 30.1252V33.2609H5.38318V30.1252H4.38318ZM4.60773 29.5831C4.46396 29.7268 4.38318 29.9218 4.38318 30.1252H5.38318C5.38318 30.1871 5.35859 30.2464 5.31484 30.2902L4.60773 29.5831ZM5.14985 29.3585C4.9465 29.3585 4.7515 29.4393 4.60773 29.5831L5.31483 30.2902C5.27108 30.3339 5.21174 30.3585 5.14985 30.3585V29.3585ZM6.8822 29.3585H5.14985V30.3585H6.8822V29.3585ZM6.3822 14.167V29.8585H7.3822V14.167H6.3822ZM2.93305 14.667H6.8822V13.667H2.93305V14.667ZM10.6723 29.3585H7.41554V30.3585H10.6723V29.3585ZM10.1723 14.1692V29.8585H11.1723V14.1692H10.1723ZM7.41554 14.6692H10.6723V13.6692H7.41554V14.6692ZM7.91554 29.8585V14.1692H6.91554V29.8585H7.91554ZM7.08927 30.8903C7.10904 30.8919 7.12892 30.8927 7.14887 30.8927V29.8927C7.15493 29.8927 7.16097 29.8929 7.167 29.8934L7.08927 30.8903ZM5.41651 30.8919H7.12813V29.8919H5.41651V30.8919ZM5.91651 33.2609V30.3919H4.91651V33.2609H5.91651ZM34.5808 32.7609H5.41651V33.7609H34.5808V32.7609ZM34.0808 30.3919V33.2609H35.0808V30.3919H34.0808ZM32.8699 30.8919H34.5808V29.8919H32.8699V30.8919ZM32.8492 30.8927C32.8691 30.8927 32.889 30.8919 32.9088 30.8903L32.831 29.8934C32.8371 29.8929 32.8431 29.8927 32.8492 29.8927V30.8927ZM29.059 30.8927H32.8492V29.8927H29.059V30.8927ZM29.038 30.8923L29.0488 30.8926L29.0692 29.8928L29.0583 29.8925L29.038 30.8923ZM29.0087 30.891L29.0185 30.8916L29.0778 29.8933L29.0679 29.8927L29.0087 30.891ZM22.1099 30.8919H29.0383V29.8919H22.1099V30.8919ZM22.0891 30.8927C22.1091 30.8927 22.129 30.8919 22.1487 30.8903L22.071 29.8934C22.077 29.8929 22.0831 29.8927 22.0891 29.8927V30.8927ZM18.2993 30.8927H22.0891V29.8927H18.2993V30.8927ZM18.2397 30.8903C18.2594 30.8919 18.2793 30.8927 18.2993 30.8927V29.8927C18.3053 29.8927 18.3114 29.8929 18.3174 29.8934L18.2397 30.8903ZM10.9597 30.8919H18.2785V29.8919H10.9597V30.8919ZM10.939 30.8927C10.959 30.8927 10.9788 30.8919 10.9986 30.8903L10.9209 29.8934C10.9269 29.8929 10.9329 29.8927 10.939 29.8927V30.8927ZM7.14887 30.8927H10.939V29.8927H7.14887V30.8927ZM11.7057 29.8585V14.167H10.7057V29.8585H11.7057ZM18.0326 29.3585H11.2057V30.3585H18.0326V29.3585ZM17.5326 14.167V29.8585H18.5326V14.167H17.5326ZM11.2057 14.667H18.0326V13.667H11.2057V14.667ZM22.8558 29.8585V14.167H21.8558V29.8585H22.8558ZM28.7924 29.3585H22.3558V30.3585H28.7924V29.3585ZM28.2924 14.167V29.8585H29.2924V14.167H28.2924ZM22.3558 14.667H28.7924V13.667H22.3558V14.667ZM21.3225 14.1692V29.8585H22.3225V14.1692H21.3225ZM18.5659 14.6692H21.8225V13.6692H18.5659V14.6692ZM19.0659 29.8585V14.1692H18.0659V29.8585H19.0659ZM21.8225 29.3585H18.5659V30.3585H21.8225V29.3585ZM33.0825 29.8585V14.1692H32.0825V29.8585H33.0825ZM29.3257 30.3585H32.5825V29.3585H29.3257V30.3585ZM28.8257 14.1692V29.8585H29.8257V14.1692H28.8257ZM32.5825 13.6692H29.3257V14.6692H32.5825V13.6692ZM36.2997 9.95343V13.6337H37.2997V9.95343H36.2997ZM19.8168 3.81423L36.6168 10.4188L36.9827 9.4881L20.1827 2.88356L19.8168 3.81423ZM3.38265 10.4188L20.1827 3.81423L19.8168 2.88356L3.01678 9.4881L3.38265 10.4188ZM3.69972 13.6337V9.95343H2.69972V13.6337H3.69972ZM36.7997 13.1337H3.19972V14.1337H36.7997V13.1337ZM36.755 33.2942H34.8652V34.2942H36.755V33.2942ZM37.255 36.6635V33.7942H36.255V36.6635H37.255ZM3.24561 37.1635H36.755V36.1635H3.24561V37.1635ZM2.74561 33.7942V36.6635H3.74561V33.7942H2.74561ZM5.13206 33.2942H3.24561V34.2942H5.13206V33.2942ZM5.14985 33.2948C5.155 33.2948 5.1602 33.295 5.16544 33.2953L5.09869 34.2931C5.11572 34.2942 5.13278 34.2948 5.14985 34.2948V33.2948ZM34.8474 33.2948H5.14985V34.2948H34.8474V33.2948ZM34.8319 33.2953C34.8371 33.295 34.8423 33.2948 34.8474 33.2948V34.2948C34.8645 34.2948 34.8816 34.2942 34.8986 34.2931L34.8319 33.2953ZM20.0004 11.2074C19.5075 11.2067 19.0259 11.0599 18.6164 10.7856L18.0598 11.6163C18.6335 12.0007 19.3083 12.2064 19.9989 12.2074L20.0004 11.2074ZM21.7638 10.477C21.2956 10.9445 20.6611 11.2072 19.9995 11.2074L19.9998 12.2074C20.9263 12.2071 21.8148 11.8392 22.4704 11.1846L21.7638 10.477ZM22.4967 8.71371C22.4955 9.37534 22.2319 10.0095 21.7638 10.477L22.4704 11.1846C23.1259 10.5299 23.4951 9.64196 23.4967 8.71549L22.4967 8.71371ZM22.0768 7.33005C22.3506 7.73991 22.4967 8.22172 22.4967 8.7146H23.4967C23.4967 8.024 23.292 7.3489 22.9084 6.77462L22.0768 7.33005ZM20.9587 6.4119C21.414 6.60067 21.8031 6.92018 22.0768 7.33005L22.9084 6.77462C22.5248 6.20034 21.9796 5.75266 21.3417 5.48815L20.9587 6.4119ZM19.5189 6.26944C20.0024 6.17354 20.5034 6.22312 20.9587 6.4119L21.3417 5.48815C20.7038 5.22364 20.0017 5.15419 19.3243 5.28855L19.5189 6.26944ZM18.2425 6.95067C18.5913 6.6024 19.0354 6.36534 19.5189 6.26944L19.3243 5.28855C18.6469 5.42292 18.0246 5.75508 17.5359 6.24306L18.2425 6.95067ZM17.5594 8.22611C17.656 7.74278 17.8937 7.29894 18.2425 6.95067L17.5359 6.24306C17.0472 6.73104 16.7142 7.35293 16.5788 8.03014L17.5594 8.22611ZM17.6998 9.6661C17.5117 9.21054 17.4629 8.70943 17.5594 8.22611L16.5788 8.03014C16.4435 8.70735 16.512 9.40948 16.7756 10.0478L17.6998 9.6661ZM18.6164 10.7856C18.2069 10.5112 17.888 10.1217 17.6998 9.6661L16.7756 10.0478C17.0392 10.6861 17.4861 11.2319 18.0598 11.6163L18.6164 10.7856ZM19.9988 5.7554C19.4137 5.75642 18.842 5.93086 18.356 6.25668L18.9128 7.0873C19.2346 6.87157 19.6131 6.75607 20.0005 6.7554L19.9988 5.7554ZM22.0932 6.62169C21.5376 6.06711 20.7848 5.75557 19.9997 5.7554L19.9995 6.7554C20.5197 6.75551 21.0186 6.96196 21.3868 7.32944L22.0932 6.62169ZM22.9634 8.71357C22.9618 7.92857 22.6488 7.17626 22.0932 6.62169L21.3868 7.32944C21.7549 7.69693 21.9623 8.19545 21.9634 8.71563L22.9634 8.71357ZM22.4651 10.3583C22.7901 9.87168 22.9634 9.29967 22.9634 8.71455L21.9634 8.71466C21.9634 9.10207 21.8486 9.48079 21.6335 9.80298L22.4651 10.3583ZM21.1379 11.4485C21.6783 11.2243 22.1402 10.8449 22.4651 10.3583L21.6335 9.80298C21.4183 10.1252 21.1125 10.3764 20.7547 10.5248L21.1379 11.4485ZM19.4286 11.6179C20.0026 11.7316 20.5974 11.6727 21.1378 11.4485L20.7547 10.5248C20.3968 10.6732 20.003 10.7123 19.623 10.637L19.4286 11.6179ZM17.9132 10.8095C18.3273 11.2228 18.8547 11.5041 19.4286 11.6179L19.623 10.637C19.243 10.5616 18.8938 10.3754 18.6196 10.1017L17.9132 10.8095ZM17.102 9.29549C17.2168 9.86924 17.4991 10.3961 17.9132 10.8095L18.6196 10.1017C18.3454 9.82801 18.1585 9.47918 18.0825 9.0993L17.102 9.29549ZM17.2682 7.58596C17.045 8.12684 16.9872 8.72174 17.102 9.29549L18.0825 9.0993C18.0065 8.71942 18.0448 8.32553 18.1926 7.96741L17.2682 7.58596ZM18.356 6.25668C17.8699 6.5825 17.4914 7.04508 17.2682 7.58596L18.1926 7.96741C18.3404 7.6093 18.591 7.30302 18.9128 7.0873L18.356 6.25668Z" fill="#515257"/>
</g>
</g>
</svg>
