<svg width="40" height="40" viewBox="0 0 40 40" fill="none" xmlns="http://www.w3.org/2000/svg">
<g opacity="0.5">
<path fill-rule="evenodd" clip-rule="evenodd" d="M19.8839 27.5456C19.8586 27.5613 19.8362 27.5812 19.8176 27.6041L17.9857 29.436L10.5523 22.0019L12.4011 20.1531C12.4192 20.1351 12.4344 20.1147 12.4466 20.0925C18.1736 10.8693 25.3632 6.67517 30.4939 4.77359L35.2293 9.50891C33.322 14.6331 29.1189 21.8148 19.8839 27.5456ZM18.1376 12.0798C16.0663 14.1134 14.001 16.6056 12.0897 19.6565C7.94671 18.5926 5.01318 19.4403 3.64754 20.0307C7.33234 14.1299 11.0766 12.2827 13.6147 11.7859C15.7824 11.3618 17.4499 11.8264 18.1376 12.0798ZM28.3605 5.03969C25.5904 6.27315 22.0809 8.31975 18.5597 11.6717C18.0087 11.4346 16.1305 10.7602 13.5499 11.2555C10.7833 11.7859 6.65528 13.8315 2.70328 20.5622C2.67289 20.6141 2.66095 20.6747 2.66939 20.7343C2.67783 20.7939 2.70616 20.8488 2.74978 20.8902C2.79339 20.9317 2.84974 20.9571 2.90965 20.9625C2.96956 20.9678 3.02953 20.9528 3.07981 20.9198C3.11261 20.8984 6.35181 18.8315 11.6931 20.1075L9.98647 21.8142C9.93648 21.8642 9.9084 21.932 9.9084 22.0027C9.9084 22.0734 9.93648 22.1412 9.98647 22.1912L10.9352 23.1402C9.66778 23.9481 4.91316 27.4496 5.68937 34.0676C5.69653 34.129 5.72477 34.1859 5.76928 34.2288C5.81378 34.2716 5.87178 34.2977 5.93337 34.3025C6.30866 34.3315 6.67408 34.346 7.02963 34.346C9.04157 34.3713 11.0248 33.8675 12.7807 32.885C14.4323 31.9608 15.8282 30.6437 16.8462 29.0526L17.7963 30.003C17.8463 30.053 17.9142 30.081 17.9849 30.081C18.0556 30.081 18.1234 30.053 18.1734 30.003L19.8801 28.2963C21.1561 33.6387 19.0894 36.8766 19.0678 36.9096C19.0413 36.9499 19.0262 36.9965 19.0241 37.0446C19.022 37.0927 19.033 37.1405 19.0558 37.1829C19.0787 37.2253 19.1126 37.2607 19.154 37.2853C19.1953 37.31 19.2426 37.323 19.2907 37.323C19.3381 37.3229 19.3846 37.3102 19.4254 37.2862C26.1561 33.3339 28.2014 29.2064 28.7321 26.4395C29.2273 23.8589 28.5531 21.9816 28.3159 21.4302C31.6709 17.9109 33.7214 14.4048 34.9583 11.6381C37.1583 6.71649 37.3279 3.10476 37.3338 2.95329C37.3353 2.91657 37.3291 2.87995 37.3158 2.84572C37.3024 2.81148 37.2821 2.78038 37.2562 2.75436C37.2306 2.72769 37.1996 2.70689 37.1652 2.6934C37.1308 2.67991 37.0939 2.67405 37.057 2.67622C36.9055 2.68182 33.2879 2.84582 28.3605 5.03969ZM16.465 28.6713L11.3218 23.5269C10.352 24.1212 5.56166 27.4001 6.19523 33.7863C12.8146 34.1982 15.9035 29.614 16.465 28.6713ZM20.3303 27.8959C23.3805 25.9852 25.873 23.9212 27.9077 21.8518C28.1613 22.5394 28.6265 24.207 28.2017 26.3747C27.7054 28.9118 25.8574 32.6563 19.9569 36.3408C20.5474 34.9736 21.3946 32.0394 20.3303 27.8959ZM36.777 3.23249C36.7045 3.9896 36.4255 6.11537 35.4295 8.955L31.0485 4.574C33.8908 3.58139 36.0192 3.30429 36.777 3.23249ZM25.095 15.3177C25.6312 15.7584 26.3037 15.9995 26.9977 16C27.3917 16.0005 27.7819 15.9233 28.146 15.7727C28.5102 15.6222 28.841 15.4013 29.1196 15.1228C29.6107 14.6323 29.9166 13.9868 29.9851 13.2961C30.0536 12.6054 29.8805 11.9123 29.4953 11.335C29.1101 10.7576 28.5366 10.3317 27.8726 10.1298C27.2085 9.92784 26.495 9.96241 25.8536 10.2276C25.2122 10.4928 24.6826 10.9721 24.355 11.584C24.0274 12.1959 23.9221 12.9024 24.057 13.5833C24.1919 14.2641 24.5588 14.8771 25.095 15.3177ZM25.3045 10.9404C25.7811 10.5491 26.3786 10.3351 26.9952 10.335C27.345 10.3344 27.6915 10.403 28.0148 10.5367C28.338 10.6705 28.6317 10.8667 28.8788 11.1143C29.3151 11.55 29.5868 12.1236 29.6477 12.7372C29.7085 13.3508 29.5546 13.9665 29.2123 14.4794C28.87 14.9923 28.3605 15.3706 27.7705 15.5498C27.1805 15.7291 26.5466 15.6983 25.9769 15.4625C25.4071 15.2268 24.9367 14.8008 24.6458 14.2571C24.355 13.7134 24.2616 13.0857 24.3817 12.4809C24.5019 11.8761 24.828 11.3316 25.3045 10.9404Z" fill="#515257"/>
<path d="M19.8176 27.6041L20.1712 27.9576L20.1897 27.9392L20.2061 27.9189L19.8176 27.6041ZM19.8839 27.5456L19.6203 27.1207L19.6197 27.1211L19.8839 27.5456ZM17.9857 29.436L17.6321 29.7896L17.9857 30.1432L18.3392 29.7896L17.9857 29.436ZM10.5523 22.0019L10.1988 21.6484L9.84525 22.0019L10.1988 22.3554L10.5523 22.0019ZM12.4011 20.1531L12.0477 19.7994L12.0476 19.7996L12.4011 20.1531ZM12.4466 20.0925L12.0218 19.8288L12.0146 19.8404L12.008 19.8524L12.4466 20.0925ZM30.4939 4.77359L30.8475 4.42004L30.6208 4.19334L30.3202 4.30476L30.4939 4.77359ZM35.2293 9.50891L35.6979 9.68333L35.8099 9.3824L35.5828 9.15536L35.2293 9.50891ZM12.0897 19.6565L11.9654 20.1408L12.3194 20.2317L12.5134 19.9219L12.0897 19.6565ZM18.1376 12.0798L18.4879 12.4366L19.0511 11.8836L18.3105 11.6107L18.1376 12.0798ZM3.64754 20.0307L3.22344 19.7659L2.37414 21.1259L3.84595 20.4897L3.64754 20.0307ZM13.6147 11.7859L13.5187 11.2952L13.5187 11.2952L13.6147 11.7859ZM18.5597 11.6717L18.362 12.131L18.6653 12.2615L18.9044 12.0339L18.5597 11.6717ZM28.3605 5.03969L28.1571 4.58292L28.1571 4.58293L28.3605 5.03969ZM13.5499 11.2555L13.6441 11.7466L13.6442 11.7465L13.5499 11.2555ZM2.70328 20.5622L2.27211 20.309L2.27176 20.3096L2.70328 20.5622ZM2.66939 20.7343L3.16444 20.6641L3.16444 20.6641L2.66939 20.7343ZM2.74978 20.8902L2.40546 21.2528H2.40546L2.74978 20.8902ZM2.90965 20.9625L2.95422 20.4645H2.9542L2.90965 20.9625ZM3.07981 20.9198L2.80719 20.5006L2.80532 20.5019L3.07981 20.9198ZM11.6931 20.1075L12.0467 20.4611L12.6788 19.8289L11.8093 19.6212L11.6931 20.1075ZM9.98647 21.8142L9.63292 21.4606L9.63286 21.4607L9.98647 21.8142ZM9.98647 22.1912L9.63287 22.5447L9.63288 22.5448L9.98647 22.1912ZM10.9352 23.1402L11.2039 23.5618L11.729 23.227L11.2888 22.7866L10.9352 23.1402ZM5.68937 34.0676L6.186 34.0096L6.18596 34.0094L5.68937 34.0676ZM5.76928 34.2288L6.11607 33.8686H6.11607L5.76928 34.2288ZM5.93337 34.3025L5.89423 34.801L5.89487 34.801L5.93337 34.3025ZM7.02963 34.346L7.03593 33.846H7.02963V34.346ZM12.7807 32.885L13.0249 33.3213L12.7807 32.885ZM16.8462 29.0526L17.1997 28.699L16.7601 28.2593L16.425 28.7831L16.8462 29.0526ZM17.7963 30.003L17.4427 30.3565L17.4428 30.3566L17.7963 30.003ZM18.1734 30.003L18.5269 30.3566L18.527 30.3565L18.1734 30.003ZM19.8801 28.2963L20.3664 28.1802L20.1587 27.3106L19.5265 27.9428L19.8801 28.2963ZM19.0678 36.9096L19.4854 37.1847L19.4864 37.1831L19.0678 36.9096ZM19.0558 37.1829L18.6157 37.4202L18.6157 37.4203L19.0558 37.1829ZM19.154 37.2853L19.41 36.8559L19.41 36.8559L19.154 37.2853ZM19.2907 37.323L19.2911 37.823H19.2917L19.2907 37.323ZM19.4254 37.2862L19.1722 36.855L19.172 36.8552L19.4254 37.2862ZM28.7321 26.4395L28.241 26.3453L28.241 26.3453L28.7321 26.4395ZM28.3159 21.4302L27.954 21.0852L27.7261 21.3243L27.8566 21.6277L28.3159 21.4302ZM34.9583 11.6381L35.4148 11.8422L35.4148 11.8421L34.9583 11.6381ZM37.3338 2.95329L36.8342 2.9333L36.8342 2.93394L37.3338 2.95329ZM37.2562 2.75436L36.8952 3.10048L36.9021 3.10734L37.2562 2.75436ZM37.1652 2.6934L37.3478 2.22794L37.3477 2.22793L37.1652 2.6934ZM37.057 2.67622L37.0755 3.176L37.0864 3.17536L37.057 2.67622ZM16.465 28.6713L16.8946 28.9272L17.0937 28.5929L16.8186 28.3178L16.465 28.6713ZM11.3218 23.5269L11.6754 23.1734L11.3967 22.8946L11.0605 23.1006L11.3218 23.5269ZM6.19523 33.7863L5.69768 33.8356L5.73967 34.2589L6.16418 34.2853L6.19523 33.7863ZM27.9077 21.8518L28.3768 21.6788L28.104 20.939L27.5512 21.5013L27.9077 21.8518ZM20.3303 27.8959L20.0649 27.4722L19.7551 27.6662L19.846 28.0203L20.3303 27.8959ZM28.2017 26.3747L27.711 26.2786L27.711 26.2787L28.2017 26.3747ZM19.9569 36.3408L19.4979 36.1426L18.8625 37.6137L20.2217 36.7649L19.9569 36.3408ZM35.4295 8.955L35.0759 9.30856L35.6381 9.87076L35.9013 9.1205L35.4295 8.955ZM36.777 3.23249L37.2747 3.28015L37.3324 2.67762L36.7298 2.73472L36.777 3.23249ZM31.0485 4.574L30.8836 4.10196L30.1319 4.3645L30.6949 4.92756L31.0485 4.574ZM26.9977 16L26.9983 15.5H26.9981L26.9977 16ZM25.095 15.3177L25.4125 14.9314L25.4125 14.9314L25.095 15.3177ZM29.1196 15.1228L28.7663 14.769L28.7661 14.7692L29.1196 15.1228ZM29.9851 13.2961L30.4827 13.3454V13.3454L29.9851 13.2961ZM29.4953 11.335L29.0794 11.6125V11.6125L29.4953 11.335ZM25.8536 10.2276L26.0446 10.6897H26.0446L25.8536 10.2276ZM24.355 11.584L24.7958 11.82L24.7958 11.82L24.355 11.584ZM24.057 13.5833L23.5665 13.6805V13.6805L24.057 13.5833ZM26.9952 10.335L26.9953 10.835L26.996 10.835L26.9952 10.335ZM25.3045 10.9404L24.9872 10.5539V10.5539L25.3045 10.9404ZM28.0148 10.5367L27.8236 10.9987L27.8236 10.9987L28.0148 10.5367ZM28.8788 11.1143L28.525 11.4676L28.5255 11.4681L28.8788 11.1143ZM29.6477 12.7372L30.1452 12.6879L29.6477 12.7372ZM29.2123 14.4794L29.6282 14.7569V14.7569L29.2123 14.4794ZM25.9769 15.4625L25.7857 15.9246L25.9769 15.4625ZM24.6458 14.2571L25.0867 14.0213L24.6458 14.2571ZM24.3817 12.4809L24.8722 12.5783L24.8722 12.5783L24.3817 12.4809ZM20.2061 27.9189C20.1899 27.9389 20.1703 27.9562 20.1481 27.9701L19.6197 27.1211C19.5468 27.1664 19.4825 27.2234 19.4292 27.2893L20.2061 27.9189ZM18.3392 29.7896L20.1712 27.9576L19.4641 27.2505L17.6321 29.0825L18.3392 29.7896ZM10.1988 22.3554L17.6321 29.7896L18.3392 29.0825L10.9059 21.6484L10.1988 22.3554ZM12.0476 19.7996L10.1988 21.6484L10.9059 22.3555L12.7547 20.5067L12.0476 19.7996ZM12.008 19.8524C12.0186 19.8331 12.0319 19.8152 12.0477 19.7994L12.7546 20.5068C12.8064 20.455 12.8503 20.3963 12.8851 20.3326L12.008 19.8524ZM30.3202 4.30476C25.1038 6.23809 17.817 10.4957 12.0218 19.8288L12.8713 20.3563C18.5302 11.2428 25.6227 7.11224 30.6677 5.24243L30.3202 4.30476ZM35.5828 9.15536L30.8475 4.42004L30.1404 5.12714L34.8757 9.86247L35.5828 9.15536ZM20.1476 27.9704C29.492 22.1717 33.7587 14.8932 35.6979 9.68333L34.7607 9.3345C32.8853 14.3729 28.7459 21.4578 19.6203 27.1207L20.1476 27.9704ZM12.5134 19.9219C14.4035 16.9049 16.444 14.4433 18.4879 12.4366L17.7873 11.723C15.6886 13.7836 13.5985 16.3063 11.666 19.391L12.5134 19.9219ZM3.84595 20.4897C5.1291 19.9349 7.94851 19.1093 11.9654 20.1408L12.2141 19.1722C7.9449 18.0759 4.89726 18.9457 3.44913 19.5718L3.84595 20.4897ZM13.5187 11.2952C10.823 11.8229 6.96901 13.7678 3.22344 19.7659L4.07164 20.2955C7.69568 14.4921 11.3303 12.7425 13.7108 12.2766L13.5187 11.2952ZM18.3105 11.6107C17.5662 11.3363 15.8027 10.8483 13.5187 11.2952L13.7108 12.2766C15.7621 11.8752 17.3337 12.3164 17.9646 12.5489L18.3105 11.6107ZM18.9044 12.0339C22.3786 8.72671 25.8382 6.71011 28.5638 5.49645L28.1571 4.58293C25.3425 5.83618 21.7833 7.9128 18.2149 11.3096L18.9044 12.0339ZM13.6442 11.7465C16.0958 11.276 17.8694 11.9189 18.362 12.131L18.7573 11.2124C18.148 10.9502 16.1652 10.2444 13.4557 10.7645L13.6442 11.7465ZM3.13444 20.8153C7.02665 14.1865 11.0423 12.2454 13.6441 11.7466L13.4558 10.7644C10.5243 11.3265 6.2839 13.4765 2.27211 20.309L3.13444 20.8153ZM3.16444 20.6641C3.17183 20.7162 3.16138 20.7693 3.13479 20.8148L2.27176 20.3096C2.1844 20.4588 2.15007 20.6332 2.17434 20.8045L3.16444 20.6641ZM3.0941 20.5277C3.13226 20.5639 3.15705 20.612 3.16444 20.6641L2.17434 20.8045C2.19861 20.9757 2.28006 21.1337 2.40546 21.2528L3.0941 20.5277ZM2.9542 20.4645C3.00664 20.4692 3.05594 20.4914 3.0941 20.5277L2.40546 21.2528C2.53085 21.3719 2.69283 21.4451 2.8651 21.4605L2.9542 20.4645ZM2.80532 20.5019C2.84932 20.473 2.90179 20.4598 2.95422 20.4645L2.86508 21.4605C3.03734 21.4759 3.20974 21.4326 3.35429 21.3377L2.80532 20.5019ZM11.8093 19.6212C6.29097 18.3029 2.91085 20.4332 2.80719 20.5006L3.35243 21.3389C3.31436 21.3637 6.41264 19.3601 11.577 20.5938L11.8093 19.6212ZM10.34 22.1677L12.0467 20.4611L11.3396 19.754L9.63292 21.4606L10.34 22.1677ZM10.4084 22.0027C10.4084 22.0646 10.3838 22.1239 10.3401 22.1677L9.63286 21.4607C9.48914 21.6044 9.4084 21.7994 9.4084 22.0027H10.4084ZM10.3401 21.8377C10.3838 21.8815 10.4084 21.9408 10.4084 22.0027H9.4084C9.4084 22.206 9.48914 22.401 9.63287 22.5447L10.3401 21.8377ZM11.2888 22.7866L10.3401 21.8377L9.63288 22.5448L10.5816 23.4937L11.2888 22.7866ZM6.18596 34.0094C5.44501 27.6919 9.97667 24.3442 11.2039 23.5618L10.6664 22.7185C9.3589 23.5521 4.38131 27.2072 5.19277 34.1258L6.18596 34.0094ZM6.11607 33.8686C6.15501 33.9061 6.17973 33.9559 6.186 34.0096L5.19274 34.1256C5.21333 34.302 5.29453 34.4658 5.42248 34.589L6.11607 33.8686ZM5.9725 33.8041C6.02638 33.8083 6.07713 33.8311 6.11607 33.8686L5.42248 34.589C5.55043 34.7122 5.71717 34.7871 5.89423 34.801L5.9725 33.8041ZM7.02963 33.846C6.68765 33.846 6.33508 33.8321 5.97186 33.804L5.89487 34.801C6.28223 34.831 6.66051 34.846 7.02963 34.846V33.846ZM12.5366 32.4486C10.8571 33.3884 8.96025 33.8703 7.03593 33.846L7.02334 34.846C9.12289 34.8724 11.1925 34.3466 13.0249 33.3213L12.5366 32.4486ZM16.425 28.7831C15.4514 30.305 14.1163 31.5647 12.5366 32.4486L13.0249 33.3213C14.7484 32.3569 16.2051 30.9825 17.2673 29.322L16.425 28.7831ZM18.1499 29.6495L17.1997 28.699L16.4926 29.4061L17.4427 30.3565L18.1499 29.6495ZM17.9849 29.581C18.0468 29.581 18.1061 29.6056 18.1498 29.6494L17.4428 30.3566C17.5866 30.5003 17.7816 30.581 17.9849 30.581V29.581ZM17.8199 29.6494C17.8637 29.6056 17.923 29.581 17.9849 29.581V30.581C18.1882 30.581 18.3831 30.5003 18.5269 30.3566L17.8199 29.6494ZM19.5265 27.9428L17.8199 29.6494L18.527 30.3565L20.2336 28.6499L19.5265 27.9428ZM19.4864 37.1831C19.5549 37.0783 21.6846 33.6993 20.3664 28.1802L19.3938 28.4125C20.6275 33.5781 18.6239 36.6749 18.6492 36.6362L19.4864 37.1831ZM19.5236 37.0665C19.5218 37.1086 19.5086 37.1495 19.4854 37.1847L18.6502 36.6346C18.5741 36.7503 18.5307 36.8844 18.5246 37.0227L19.5236 37.0665ZM19.4959 36.9455C19.5159 36.9826 19.5255 37.0244 19.5236 37.0665L18.5246 37.0227C18.5185 37.161 18.55 37.2984 18.6157 37.4202L19.4959 36.9455ZM19.41 36.8559C19.4462 36.8775 19.4759 36.9085 19.4959 36.9455L18.6157 37.4203C18.6815 37.5421 18.779 37.6439 18.8979 37.7148L19.41 36.8559ZM19.2903 36.823C19.3324 36.8229 19.3738 36.8343 19.41 36.8559L18.8979 37.7148C19.0168 37.7857 19.1527 37.8231 19.2911 37.823L19.2903 36.823ZM19.172 36.8552C19.2077 36.8342 19.2483 36.8231 19.2898 36.823L19.2917 37.823C19.4279 37.8227 19.5615 37.7862 19.6789 37.7172L19.172 36.8552ZM28.241 26.3453C27.742 28.9474 25.8011 32.9625 19.1722 36.855L19.6786 37.7173C26.5111 33.7053 28.6608 29.4655 29.2231 26.5337L28.241 26.3453ZM27.8566 21.6277C28.0687 22.121 28.7115 23.8936 28.241 26.3453L29.2231 26.5337C29.7431 23.8241 29.0374 21.8423 28.7752 21.2326L27.8566 21.6277ZM34.5019 11.434C33.2848 14.1564 31.2643 17.6128 27.954 21.0852L28.6778 21.7752C32.0775 18.209 34.1581 14.6532 35.4148 11.8422L34.5019 11.434ZM36.8342 2.93394C36.8301 3.04005 36.6692 6.58542 34.5019 11.434L35.4148 11.8421C37.6474 6.84756 37.8258 3.16946 37.8334 2.97264L36.8342 2.93394ZM36.85 3.02744C36.8383 2.99744 36.8329 2.96538 36.8342 2.9333L37.8334 2.97327C37.8376 2.86776 37.82 2.76246 37.7816 2.66399L36.85 3.02744ZM36.9021 3.10734C36.8794 3.08459 36.8617 3.05739 36.85 3.02744L37.7816 2.66399C37.7432 2.56557 37.6849 2.47617 37.6103 2.40137L36.9021 3.10734ZM36.9826 3.15887C36.9496 3.14593 36.9198 3.12599 36.8953 3.10042L37.6171 2.4083C37.5414 2.32939 37.4495 2.26785 37.3478 2.22794L36.9826 3.15887ZM37.0864 3.17536C37.051 3.17744 37.0156 3.17182 36.9826 3.15888L37.3477 2.22793C37.246 2.18801 37.1367 2.17066 37.0276 2.17709L37.0864 3.17536ZM28.5638 5.49646C33.4182 3.33514 36.9694 3.1798 37.0755 3.17588L37.0385 2.17656C36.8417 2.18384 33.1576 2.35651 28.1571 4.58292L28.5638 5.49646ZM16.8186 28.3178L11.6754 23.1734L10.9682 23.8804L16.1114 29.0248L16.8186 28.3178ZM11.0605 23.1006C10.0572 23.7155 5.03376 27.1437 5.69768 33.8356L6.69279 33.7369C6.08956 27.6566 10.6468 24.527 11.5831 23.9532L11.0605 23.1006ZM6.16418 34.2853C13.0681 34.715 16.3005 29.9246 16.8946 28.9272L16.0354 28.4154C15.5065 29.3035 12.561 33.6815 6.22629 33.2872L6.16418 34.2853ZM27.5512 21.5013C25.5434 23.5434 23.0813 25.5826 20.0649 27.4722L20.5957 28.3196C23.6797 26.3877 26.2027 24.2991 28.2642 22.2023L27.5512 21.5013ZM28.6923 26.4709C29.14 24.1867 28.6513 22.423 28.3768 21.6788L27.4386 22.0248C27.6713 22.6558 28.113 24.2273 27.711 26.2786L28.6923 26.4709ZM20.2217 36.7649C26.2195 33.0197 28.1653 29.1655 28.6924 26.4707L27.711 26.2787C27.2456 28.6581 25.4953 32.2929 19.692 35.9167L20.2217 36.7649ZM19.846 28.0203C20.8779 32.0377 20.0528 34.8577 19.4979 36.1426L20.4159 36.5391C21.042 35.0894 21.9113 32.0412 20.8146 27.7715L19.846 28.0203ZM35.9013 9.1205C36.9133 6.23551 37.1992 4.06897 37.2747 3.28015L36.2793 3.18483C36.2098 3.91022 35.9378 5.99522 34.9577 8.7895L35.9013 9.1205ZM30.6949 4.92756L35.0759 9.30856L35.783 8.60145L31.402 4.22045L30.6949 4.92756ZM36.7298 2.73472C35.9403 2.80952 33.7713 3.09352 30.8836 4.10196L31.2133 5.04605C34.0104 4.06926 36.098 3.79906 36.8242 3.73026L36.7298 2.73472ZM26.9981 15.5C26.4197 15.4996 25.8593 15.2987 25.4125 14.9314L24.7775 15.704C25.4031 16.2181 26.1876 16.4994 26.9974 16.5L26.9981 15.5ZM27.955 15.3107C27.6517 15.4361 27.3266 15.5004 26.9983 15.5L26.9971 16.5C27.4568 16.5006 27.9122 16.4104 28.3371 16.2348L27.955 15.3107ZM28.7661 14.7692C28.534 15.0012 28.2584 15.1852 27.955 15.3107L28.3371 16.2348C28.762 16.0591 29.148 15.8014 29.4731 15.4764L28.7661 14.7692ZM29.4875 13.2467C29.4305 13.8223 29.1756 14.3603 28.7663 14.769L29.4729 15.4766C30.0459 14.9044 30.4027 14.1512 30.4827 13.3454L29.4875 13.2467ZM29.0794 11.6125C29.4004 12.0936 29.5446 12.6712 29.4875 13.2467L30.4827 13.3454C30.5626 12.5396 30.3606 11.7311 29.9112 11.0575L29.0794 11.6125ZM27.7271 10.6081C28.2805 10.7764 28.7584 11.1314 29.0794 11.6125L29.9112 11.0575C29.4618 10.3839 28.7927 9.88698 28.018 9.6514L27.7271 10.6081ZM26.0446 10.6897C26.5791 10.4687 27.1737 10.4399 27.7271 10.6081L28.018 9.6514C27.2433 9.41582 26.4109 9.45615 25.6626 9.76551L26.0446 10.6897ZM24.7958 11.82C25.0688 11.3101 25.5101 10.9106 26.0446 10.6897L25.6626 9.76551C24.9143 10.0749 24.2964 10.6341 23.9142 11.348L24.7958 11.82ZM24.5475 13.4861C24.435 12.9187 24.5228 12.3299 24.7958 11.82L23.9142 11.348C23.532 12.0619 23.4091 12.8862 23.5665 13.6805L24.5475 13.4861ZM25.4125 14.9314C24.9656 14.5642 24.6599 14.0534 24.5475 13.4861L23.5665 13.6805C23.724 14.4748 24.152 15.1899 24.7775 15.704L25.4125 14.9314ZM26.9951 9.83502C26.2628 9.83516 25.5532 10.0892 24.9872 10.5539L25.6218 11.3268C26.009 11.0089 26.4944 10.8351 26.9953 10.835L26.9951 9.83502ZM28.2059 10.0747C27.8218 9.91577 27.41 9.83432 26.9943 9.83502L26.996 10.835C27.28 10.8345 27.5612 10.8902 27.8236 10.9987L28.2059 10.0747ZM29.2327 10.7611C28.939 10.4669 28.59 10.2336 28.2059 10.0747L27.8236 10.9987C28.086 11.1073 28.3244 11.2666 28.525 11.4676L29.2327 10.7611ZM30.1452 12.6879C30.073 11.9591 29.7503 11.278 29.2322 10.7605L28.5255 11.4681C28.88 11.8221 29.1007 12.288 29.1501 12.7865L30.1452 12.6879ZM29.6282 14.7569C30.0347 14.1478 30.2174 13.4166 30.1452 12.6879L29.1501 12.7865C29.1995 13.285 29.0745 13.7852 28.7964 14.2018L29.6282 14.7569ZM27.9159 16.0282C28.6165 15.8153 29.2217 15.366 29.6282 14.7569L28.7964 14.2018C28.5184 14.6185 28.1044 14.9258 27.6251 15.0714L27.9159 16.0282ZM25.7857 15.9246C26.4624 16.2045 27.2152 16.2412 27.9159 16.0282L27.6251 15.0714C27.1459 15.2171 26.6309 15.192 26.168 15.0005L25.7857 15.9246ZM24.205 14.493C24.5504 15.1387 25.1091 15.6446 25.7857 15.9246L26.168 15.0005C25.7051 14.809 25.323 14.4629 25.0867 14.0213L24.205 14.493ZM23.8913 12.3835C23.7487 13.1018 23.8595 13.8473 24.205 14.493L25.0867 14.0213C24.8504 13.5796 24.7746 13.0696 24.8722 12.5783L23.8913 12.3835ZM24.9872 10.5539C24.4213 11.0186 24.034 11.6652 23.8913 12.3835L24.8722 12.5783C24.9697 12.0869 25.2347 11.6447 25.6218 11.3268L24.9872 10.5539Z" fill="#515257"/>
</g>
</svg>
