<svg width="1024" height="670" viewBox="0 0 1024 670" fill="none" xmlns="http://www.w3.org/2000/svg">
<path opacity="0.1" d="M764.754 564H382.377V843.572C382.377 898.801 427.149 943.572 482.377 943.572H764.754V564Z" fill="#ADB1B2"/>
<path opacity="0.2" d="M0 465C0 520.229 44.7715 565 100 565H382.377V285.428C382.377 230.199 337.605 185.428 282.377 185.428H0V465Z" fill="#D6D8D9"/>
<path opacity="0.1" d="M767 184.57H1149.38V-95.0018C1149.38 -150.23 1104.61 -195.002 1049.38 -195.002H767V184.57Z" fill="#ADB1B2"/>
<path opacity="0.5" d="M1149.38 564.57H767V284.998C767 229.77 811.772 184.998 867 184.998H1149.38V564.57Z" fill="#E0E3E6"/>
<path d="M0 664C0 608.772 44.7715 564 100 564H382.777V942.376H0V664Z" fill="#E0E3E6"/>
</svg>
