<svg width="41" height="40" viewBox="0 0 41 40" fill="none" xmlns="http://www.w3.org/2000/svg">
<path d="M1 20.2199C1 21.8699 2.21 23.2799 3.84 23.5299C7.01 23.9999 12.24 24.9599 15.97 25.9899C21.42 27.4899 27 29.6099 29.61 30.8599C30.23 31.1599 30.95 30.6999 30.95 30.0099V4.65994C30.95 3.96994 30.23 3.50993 29.61 3.80993C27 5.04993 21.75 7.14991 15.97 8.78991C12.25 9.84991 7.01 10.6599 3.84 11.1299C2.2 11.3699 1 12.7799 1 14.4399V20.2199Z" stroke="#222220" stroke-width="0.5"/>
<path d="M12.57 9.63989V34.6599C12.57 35.5599 11.84 36.2899 10.94 36.2899H9.06C8.27 36.2899 7.58998 35.7299 7.44998 34.9499L5.38998 23.6799" stroke="#222220" stroke-width="0.5"/>
<path d="M30.96 13.1099C33.29 13.1099 35.17 14.9999 35.17 17.3199C35.17 19.6499 33.28 21.5299 30.96 21.5299" stroke="#222220" stroke-width="0.5"/>
<path d="M37.81 17.3199H41" stroke="#222220" stroke-width="0.5"/>
<path d="M36.8 14.1199L39.23 11.6899" stroke="#222220" stroke-width="0.5"/>
<path d="M39.23 22.9499L36.8 20.5299" stroke="#222220" stroke-width="0.5"/>
<path d="M4.88998 14.34H8.97998" stroke="#222220" stroke-width="0.5"/>
<path d="M4.88998 17.3199H8.97998" stroke="#222220" stroke-width="0.5"/>
<path d="M4.88998 20.3099H8.97998" stroke="#222220" stroke-width="0.5"/>
</svg>
