<svg width="40" height="40" viewBox="0 0 40 40" fill="none" xmlns="http://www.w3.org/2000/svg">
<path d="M19.92 4.70996H28.18V38.39H3.5V4.70996H11.76" stroke="#222220" stroke-width="0.5"/>
<path d="M17.25 3.01999C17.25 2.23999 16.62 1.60999 15.84 1.60999C15.06 1.60999 14.43 2.23999 14.43 3.01999H11.76V6.44998H19.92V3.01999H17.25Z" stroke="#222220" stroke-width="0.5"/>
<path d="M19.45 12.21H22.89" stroke="#222220" stroke-width="0.5"/>
<path d="M8.50998 12.5L9.95999 13.64L12.24 10.61" stroke="#222220" stroke-width="0.5"/>
<path d="M19.45 18.7899H22.89" stroke="#222220" stroke-width="0.5"/>
<path d="M8.50998 19.09L9.95999 20.23L12.24 17.2" stroke="#222220" stroke-width="0.5"/>
<path d="M19.45 25.38H22.89" stroke="#222220" stroke-width="0.5"/>
<path d="M8.50998 25.67L9.95999 26.81L12.24 23.78" stroke="#222220" stroke-width="0.5"/>
<path d="M19.45 31.96H22.89" stroke="#222220" stroke-width="0.5"/>
<path d="M8.50998 32.26L9.95999 33.4L12.24 30.37" stroke="#222220" stroke-width="0.5"/>
<path d="M36.5 31.31L34.66 34.5L32.82 31.31V9.50998C32.82 9.00998 33.23 8.59998 33.73 8.59998H35.59C36.09 8.59998 36.5 9.00998 36.5 9.50998V31.31V31.31Z" stroke="#222220" stroke-width="0.5"/>
<path d="M32.82 31.3099H36.5" stroke="#222220" stroke-width="0.5"/>
</svg>
