<svg width="40" height="40" viewBox="0 0 40 40" fill="none" xmlns="http://www.w3.org/2000/svg">
<path d="M29.17 37.5H11C9.9 37.5 9.00998 36.61 9.00998 35.51V4.49C9.00998 3.39 9.9 2.5 11 2.5H29.17C30.27 2.5 31.16 3.39 31.16 4.49V35.51C31.16 36.61 30.27 37.5 29.17 37.5Z" stroke="#222220" stroke-width="0.5"/>
<path d="M20.08 35.31C20.8642 35.31 21.5 34.6742 21.5 33.89C21.5 33.1057 20.8642 32.47 20.08 32.47C19.2957 32.47 18.66 33.1057 18.66 33.89C18.66 34.6742 19.2957 35.31 20.08 35.31Z" stroke="#222220" stroke-width="0.5"/>
<path d="M18.04 4.5H21.97" stroke="#222220" stroke-width="0.5"/>
<path d="M20.01 25.87C23.7821 25.87 26.84 22.8121 26.84 19.04C26.84 15.2679 23.7821 12.21 20.01 12.21C16.2379 12.21 13.18 15.2679 13.18 19.04C13.18 22.8121 16.2379 25.87 20.01 25.87Z" stroke="#222220" stroke-width="0.5"/>
<path d="M20.01 19.61C21.1532 19.61 22.08 18.6832 22.08 17.54C22.08 16.3967 21.1532 15.47 20.01 15.47C18.8667 15.47 17.94 16.3967 17.94 17.54C17.94 18.6832 18.8667 19.61 20.01 19.61Z" stroke="#222220" stroke-width="0.5"/>
<path d="M14.82 23.48L15.7 22.15C16.28 21.26 17.19 20.74 18.15 20.74H21.84C22.79 20.74 23.69 21.25 24.27 22.12L25.18 23.49" stroke="#222220" stroke-width="0.5"/>
<path d="M4.25 11.0599C2.36 12.7999 1.12 15.7399 1.12 19.0799C1.12 22.3699 2.32 25.2699 4.16 27.0199" stroke="#222220" stroke-width="0.5"/>
<path d="M4.35999 13.44V10.98H1.89999" stroke="#222220" stroke-width="0.5"/>
<path d="M35.75 26.94C37.64 25.2 38.88 22.26 38.88 18.92C38.88 15.63 37.68 12.73 35.84 10.98" stroke="#222220" stroke-width="0.5"/>
<path d="M35.63 24.5499V27.0199H38.1" stroke="#222220" stroke-width="0.5"/>
</svg>
