<svg width="40" height="40" viewBox="0 0 40 40" fill="none" xmlns="http://www.w3.org/2000/svg">
<path d="M0.5 3.38H3.07999C3.96999 3.38 4.71999 4.05001 4.82999 4.93001L7.56 27.27C7.67 28.21 8.46998 28.91 9.41998 28.91H33.91" stroke="#222220" stroke-width="0.5"/>
<path d="M32.99 15.41L31.77 22.78C31.63 23.63 30.89 24.26 30.03 24.26H7.19" stroke="#222220" stroke-width="0.5"/>
<path d="M5.41998 9.82007H27.47" stroke="#222220" stroke-width="0.5"/>
<path d="M12.67 36.61C14.2329 36.61 15.5 35.3429 15.5 33.78C15.5 32.217 14.2329 30.95 12.67 30.95C11.107 30.95 9.84 32.217 9.84 33.78C9.84 35.3429 11.107 36.61 12.67 36.61Z" stroke="#222220" stroke-width="0.5"/>
<path d="M28.43 36.61C29.993 36.61 31.26 35.3429 31.26 33.78C31.26 32.217 29.993 30.95 28.43 30.95C26.867 30.95 25.6 32.217 25.6 33.78C25.6 35.3429 26.867 36.61 28.43 36.61Z" stroke="#222220" stroke-width="0.5"/>
<path d="M33.49 15.4C36.8092 15.4 39.5 12.7092 39.5 9.39001C39.5 6.07078 36.8092 3.38 33.49 3.38C30.1708 3.38 27.48 6.07078 27.48 9.39001C27.48 12.7092 30.1708 15.4 33.49 15.4Z" stroke="#222220" stroke-width="0.5"/>
<path d="M33.49 6.43005V12.3601" stroke="#222220" stroke-width="0.5"/>
<path d="M30.52 9.39001H36.45" stroke="#222220" stroke-width="0.5"/>
<path d="M19.46 9.82007V24.2501" stroke="#222220" stroke-width="0.5"/>
</svg>
