<svg width="16" height="16" viewBox="0 0 16 16" fill="none" xmlns="http://www.w3.org/2000/svg">
<path d="M11.7149 0H4.28507C3.574 0 3 0.522411 3 1.16551V14.8357C3 15.4782 3.574 16 4.28507 16H11.7149C12.4247 16 13 15.4782 13 14.8357V1.16551C13 0.522411 12.4247 0 11.7149 0ZM6.16667 0.70782H9.83462C9.92729 0.70782 10.0026 0.833175 10.0026 0.988266C10.0026 1.14336 9.92729 1.2693 9.83462 1.2693H6.16667C6.07336 1.2693 5.99936 1.14336 5.99936 0.988266C5.99936 0.833175 6.07336 0.70782 6.16667 0.70782ZM8.00064 14.8496C7.54826 14.8496 7.18018 14.5161 7.18018 14.1057C7.18018 13.6952 7.54826 13.3629 8.00064 13.3629C8.45174 13.3629 8.81982 13.6952 8.81982 14.1057C8.81982 14.5161 8.45174 14.8496 8.00064 14.8496ZM12.0373 12.3023H3.96332V1.96662H12.0373V12.3023Z" fill="#ADB1B2"/>
</svg>