<svg width="50" height="50" viewBox="0 0 50 50" fill="none" xmlns="http://www.w3.org/2000/svg">
<path d="M18.4901 34C15.4255 33.9977 12.4303 33.0871 9.88302 31.3832C7.33574 29.6794 5.35064 27.2587 4.17855 24.4271C3.00645 21.5955 2.69996 18.48 3.2978 15.4743C3.89563 12.4686 5.37096 9.70747 7.53739 7.53989C9.01234 6.0653 10.7696 4.90344 12.7041 4.12386C14.6386 3.34427 16.7104 2.96299 18.7957 3.00283C20.881 3.04267 22.9368 3.50281 24.84 4.35571C26.7433 5.20862 28.455 6.43675 29.8725 7.9666C32.5114 10.8345 33.9775 14.5886 33.9807 18.4859C33.9839 22.3831 32.5239 26.1396 29.8897 29.0118C28.4774 30.552 26.7661 31.7883 24.8603 32.6453C22.9545 33.5022 20.894 33.9619 18.8046 33.9963C18.6996 33.9988 18.5947 34 18.4901 34V34ZM18.4921 3.67322C15.5604 3.67511 12.6951 4.54608 10.2582 6.17605C7.82143 7.80602 5.92253 10.1218 4.80155 12.8307C3.68056 15.5397 3.38782 18.5201 3.96033 21.3954C4.53283 24.2706 5.94487 26.9116 8.01798 28.9845C9.43016 30.3965 11.113 31.5087 12.9656 32.2542C14.8182 32.9998 16.8023 33.3634 18.7988 33.3233C20.7954 33.2831 22.7633 32.8401 24.5844 32.0207C26.4055 31.2013 28.0423 30.0224 29.3966 28.5548C31.9161 25.8074 33.3125 22.2144 33.3094 18.4867C33.3064 14.759 31.9041 11.1682 29.3801 8.42497C28.0275 6.95574 26.3902 5.77708 24.5676 4.9607C22.7451 4.14433 20.7755 3.70732 18.7787 3.67626C18.682 3.67322 18.5864 3.67322 18.4921 3.67322V3.67322Z" fill="black"/>
<path d="M29.8535 33.7423C29.7651 33.7423 29.6804 33.7072 29.6179 33.6447L27.1249 31.1517C27.093 31.1209 27.0676 31.0841 27.0502 31.0435C27.0327 31.0028 27.0235 30.9591 27.0231 30.9148C27.0227 30.8705 27.0311 30.8266 27.0479 30.7857C27.0647 30.7447 27.0894 30.7075 27.1207 30.6762C27.152 30.6449 27.1892 30.6201 27.2302 30.6034C27.2712 30.5866 27.3151 30.5782 27.3593 30.5786C27.4036 30.579 27.4473 30.5882 27.488 30.6056C27.5287 30.6231 27.5654 30.6485 27.5962 30.6803L29.8535 32.9373L32.9379 29.853L30.6809 27.5957C30.6201 27.5328 30.5865 27.4486 30.5873 27.3612C30.5881 27.2738 30.6231 27.1902 30.6849 27.1284C30.7467 27.0666 30.8303 27.0315 30.9177 27.0308C31.0051 27.03 31.0893 27.0636 31.1522 27.1243L33.6449 29.6173C33.7074 29.6798 33.7425 29.7646 33.7425 29.853C33.7425 29.9414 33.7074 30.0262 33.6449 30.0887L30.0892 33.6447C30.0267 33.7072 29.9419 33.7423 29.8535 33.7423V33.7423Z" fill="black"/>
<path d="M41.0332 46.6634C40.5243 46.6494 40.0412 46.4359 39.6882 46.069L29.4512 35.8334C29.1384 35.5293 28.9335 35.1313 28.8679 34.7C28.8334 34.4989 28.8467 34.2925 28.9067 34.0974C28.9667 33.9023 29.0717 33.7241 29.2132 33.577L33.5775 29.2134C33.7243 29.0716 33.9023 28.9663 34.0973 28.906C34.2923 28.8458 34.4987 28.8323 34.6999 28.8667C35.1312 28.9323 35.5292 29.1372 35.8332 29.45L46.0685 39.685C46.7562 40.3724 46.8625 41.385 46.3062 41.9414L41.9422 46.3057C41.8219 46.4225 41.6796 46.5143 41.5236 46.5757C41.3675 46.6371 41.2008 46.6669 41.0332 46.6634V46.6634ZM34.4895 29.5204C34.4088 29.5171 34.3283 29.5299 34.2526 29.5581C34.177 29.5863 34.1077 29.6294 34.0489 29.6847L29.6845 34.0487C29.6166 34.1241 29.5671 34.2143 29.5401 34.3121C29.513 34.41 29.509 34.5128 29.5285 34.6124C29.5748 34.8986 29.7132 35.1619 29.9225 35.3624L40.1579 45.5977C40.5785 46.0184 41.1799 46.1267 41.4715 45.8357L45.8355 41.4714C46.1269 41.1797 46.0182 40.578 45.5975 40.1577L35.3625 29.9244C35.1621 29.7148 34.8986 29.5764 34.6122 29.5304C34.5716 29.5241 34.5306 29.5208 34.4895 29.5204V29.5204Z" fill="black"/>
<path d="M18.4968 31C16.4416 30.9999 14.4181 30.4929 12.6056 29.5237C10.793 28.5546 9.24746 27.1533 8.10573 25.444C6.96401 23.7346 6.26138 21.77 6.0601 19.7242C5.85881 17.6784 6.16508 15.6145 6.95178 13.7153C7.73847 11.8162 8.9813 10.1404 10.5702 8.83647C12.1591 7.53253 14.0449 6.64066 16.0607 6.23987C18.0766 5.83908 20.1601 5.94175 22.1267 6.53877C24.0934 7.1358 25.8825 8.20876 27.3356 9.66259C29.0849 11.4102 30.2764 13.6377 30.7593 16.063C31.2423 18.4883 30.9949 21.0024 30.0485 23.2871C29.1022 25.5717 27.4994 27.5241 25.443 28.8971C23.3867 30.2701 20.9693 31.0019 18.4968 31Z" fill="#FEDD15"/>
<path d="M15.6623 24.836C15.5964 24.836 15.532 24.8164 15.4772 24.7798C15.4224 24.7432 15.3797 24.6911 15.3544 24.6302C15.3292 24.5693 15.3226 24.5023 15.3355 24.4377C15.3483 24.373 15.3801 24.3136 15.4267 24.267L20.4573 19.2363H16.2667C16.2008 19.2363 16.1363 19.2168 16.0815 19.1801C16.0267 19.1435 15.984 19.0915 15.9588 19.0306C15.9336 18.9697 15.927 18.9026 15.9398 18.838C15.9527 18.7733 15.9844 18.714 16.031 18.6673L22.092 12.6057C22.1228 12.5738 22.1595 12.5484 22.2002 12.531C22.2409 12.5135 22.2846 12.5043 22.3289 12.5039C22.3731 12.5035 22.417 12.512 22.458 12.5287C22.499 12.5455 22.5362 12.5702 22.5675 12.6015C22.5988 12.6328 22.6235 12.6701 22.6403 12.711C22.657 12.752 22.6655 12.7959 22.6651 12.8401C22.6647 12.8844 22.6555 12.9281 22.638 12.9688C22.6206 13.0095 22.5952 13.0463 22.5633 13.077L17.0707 18.5697H21.262C21.3279 18.5697 21.3924 18.5892 21.4472 18.6259C21.502 18.6625 21.5447 18.7146 21.5699 18.7755C21.5951 18.8364 21.6017 18.9034 21.5889 18.968C21.576 19.0327 21.5443 19.0921 21.4977 19.1387L15.8977 24.7387C15.8352 24.801 15.7506 24.836 15.6623 24.836V24.836Z" fill="black"/>
</svg>
