<svg width="57" height="57" viewBox="0 0 57 57" fill="none" xmlns="http://www.w3.org/2000/svg">
<ellipse cx="28.0003" cy="22.2342" rx="22.7498" ry="22.2337" fill="white" fill-opacity="0.25"/>
<path d="M14.1163 17.2088V12.4927H1.49805V17.2088H4.39296V27.2968H1.49805V32.0129H14.1163V27.2968H11.2213V17.2088H14.1163Z" fill="#ADB1B2"/>
<path d="M28.0429 19.9806C27.263 19.7593 23.25 18.6388 22.5552 18.4175C21.8603 18.1962 21.2931 17.878 21.2931 17.4769C21.2931 17.0757 21.9312 16.6469 23.2216 16.6469C27.2914 16.6469 29.2464 19.0953 29.2464 19.0953C29.2464 19.0953 29.4667 19.3816 29.5406 19.4843H33.467V12.8044H29.2519V14.0196C28.9299 13.8028 26.5531 12.2896 22.8671 12.2896C18.0033 12.2896 15.2949 14.7518 15.2949 18.4313C15.2949 22.1108 18.7123 23.6325 19.6624 24.0198C20.6125 24.4071 24.3277 25.4307 25.9159 25.9149C27.5041 26.399 28.0855 26.7448 28.0855 26.9938C28.0855 27.2428 27.3906 27.893 25.4054 27.893C21.9474 27.893 20.1666 25.9037 19.854 25.5185V25.5155C19.7546 25.3856 19.638 25.2319 19.5984 25.174C19.5526 25.107 19.4463 24.9584 19.3726 24.8557H15.4461V31.9891H19.854V30.4995C20.3669 30.8325 22.9923 32.4301 26.1428 32.4301C29.6595 32.4301 34.1404 30.9362 34.1404 26.2745C34.1404 21.6129 28.8228 20.2019 28.0429 19.9806Z" fill="#ADB1B2"/>
<path d="M45.3317 12.2231C39.4692 12.2231 34.6611 15.0824 34.6611 22.3814C34.6611 29.6804 39.8807 32.4143 45.3573 32.4143C50.8339 32.4143 56.0021 29.7054 56.0021 22.4568C56.0021 15.2082 50.8342 12.2231 45.3317 12.2231ZM45.3832 27.5484C43.3775 27.5484 42.0919 27.0968 42.0919 22.3564C42.0919 17.6158 43.0433 17.1142 45.4602 17.1142C46.9258 17.1142 48.7 17.2145 48.7 22.2059C48.7 27.1973 47.3888 27.5484 45.3832 27.5484Z" fill="#ADB1B2"/>
<path d="M9.90048 10.3382C11.2183 8.43992 12.839 6.75718 14.6968 5.35973C15.448 5.90154 16.2465 6.39299 17.086 6.83099C15.6795 8.36035 14.4194 10.0547 14.2107 10.3382H15.0546C15.5611 9.67225 16.6088 8.33257 17.7136 7.14483C18.9212 7.72393 20.2046 8.19756 21.5437 8.55832C21.1872 9.296 20.9178 9.94105 20.7597 10.3382H21.4928C21.6613 9.92921 21.9081 9.35875 22.2161 8.72841C23.9243 9.13554 25.7142 9.36373 27.5453 9.39847V10.3383H28.2259V9.40168C30.0436 9.38874 31.8236 9.18667 33.5258 8.80698C33.816 9.40578 34.0496 9.94636 34.211 10.3382H34.9442C34.7922 9.95677 34.5378 9.34702 34.2019 8.64553C35.5649 8.2996 36.8728 7.83835 38.1045 7.26833C39.167 8.42453 40.1603 9.69538 40.6494 10.3382H41.4931C41.2909 10.0634 40.096 8.45629 38.7382 6.96246C39.6717 6.49181 40.5568 5.95632 41.3841 5.35973C43.242 6.75718 44.8627 8.43992 46.1804 10.3382H46.9991C42.9733 4.27712 35.9792 0.258301 28.0403 0.258301C20.1015 0.258301 13.1074 4.27712 9.08154 10.3382H9.90048ZM21.8473 7.95112C20.5736 7.61548 19.3515 7.17549 18.1994 6.63722C18.356 6.47853 18.5124 6.32482 18.667 6.1793C20.2446 4.69521 22.8395 3.06559 23.4083 2.71479C23.8699 2.96212 24.3736 3.17127 24.9094 3.33726C24.4933 3.86955 23.6762 4.95006 22.7865 6.32062C22.4402 6.85401 22.1247 7.41463 21.8473 7.95112ZM27.5453 8.73428C25.8214 8.70064 24.1359 8.49126 22.5248 8.11855C22.7768 7.63805 23.0579 7.14361 23.3616 6.67595C24.3866 5.09713 25.3114 3.91171 25.6195 3.52606C26.2342 3.66693 26.8803 3.75601 27.5453 3.78512V8.73428ZM28.2259 8.7376V3.79264C28.882 3.7818 29.5238 3.71407 30.1381 3.59356C30.4902 4.03787 31.3714 5.18035 32.3424 6.67595C32.6618 7.16807 32.9564 7.68973 33.2184 8.1938C31.613 8.54018 29.9372 8.7252 28.2259 8.7376ZM33.9007 8.03655C33.6129 7.47439 33.282 6.88234 32.9173 6.32062C32.0735 5.02077 31.2949 3.98165 30.8619 3.42369C31.4317 3.26755 31.9696 3.06459 32.4635 2.81903C33.2621 3.31834 35.5813 4.81007 37.0368 6.1793C37.23 6.36112 37.4258 6.55533 37.6214 6.75674C36.4452 7.28648 35.1985 7.7153 33.9007 8.03655ZM40.8142 4.94464C40.0157 5.50692 39.1625 6.01065 38.2641 6.45352C38.0131 6.19081 37.7599 5.93706 37.5093 5.70135C36.1479 4.42065 34.1208 3.0771 33.1276 2.44621C33.465 2.23285 33.7736 1.99692 34.0487 1.74007C36.5071 2.42529 38.7894 3.52096 40.8142 4.94464ZM28.0406 0.922276C29.8379 0.922276 31.5848 1.13619 33.2575 1.53656C31.9881 2.54238 30.086 3.13243 28.0406 3.13243C25.9858 3.13243 24.089 2.54426 22.8212 1.53712C24.4945 1.13641 26.2422 0.922276 28.0406 0.922276ZM22.0321 1.74007C22.2561 1.94945 22.5012 2.14532 22.7668 2.32592C21.867 2.89074 19.6507 4.33168 18.1946 5.70124C17.985 5.89844 17.7737 6.10848 17.5631 6.3256C16.7578 5.91426 15.9898 5.45358 15.2671 4.94464C17.2915 3.52096 19.5737 2.42541 22.0321 1.74007Z" fill="#ADB1B2"/>
<path d="M46.181 34.2235C44.8912 36.0819 43.3109 37.7334 41.5023 39.1131C40.641 38.4812 39.7164 37.9164 38.7387 37.4231C39.9165 36.127 40.9719 34.7457 41.3626 34.2236H40.5149C39.9924 34.9042 39.0778 36.0587 38.1049 37.1174C36.8731 36.5472 35.5654 36.0856 34.2022 35.7398C34.4904 35.1377 34.7181 34.6041 34.873 34.2236H34.1377C33.9818 34.5945 33.7746 35.0652 33.5256 35.579C31.8244 35.1999 30.0446 34.9979 28.2255 34.9851V34.2236H27.5448V34.9881C25.7123 35.0227 23.9225 35.2507 22.2154 35.6572C21.9494 35.1131 21.729 34.6133 21.5653 34.2236H20.8299C20.9922 34.6224 21.2345 35.1895 21.5426 35.8271C20.2032 36.188 18.9194 36.661 17.7119 37.2404C16.6973 36.1494 15.7311 34.9306 15.1881 34.2235H14.3405C14.7441 34.763 15.8589 36.2217 17.0854 37.5552C16.202 38.0167 15.3633 38.5367 14.5777 39.113C12.769 37.7333 11.1887 36.0817 9.899 34.2234H9.08154C13.1075 40.2845 20.1014 44.3033 28.0401 44.3033C35.9788 44.3033 42.9728 40.2846 46.9987 34.2234H46.181V34.2235ZM33.9005 36.3491C35.1987 36.6702 36.4455 37.099 37.6217 37.6289C37.4258 37.8305 37.2299 38.0251 37.0364 38.2072C35.5853 39.572 33.2735 41.0603 32.469 41.5636C31.9751 41.3171 31.4364 41.1141 30.8648 40.958C31.2986 40.399 32.0752 39.3619 32.9167 38.0657C33.2817 37.5039 33.6126 36.9115 33.9005 36.3491ZM28.2254 35.6489C29.938 35.6613 31.6138 35.8458 33.2182 36.1917C32.9561 36.6961 32.6615 37.2179 32.3417 37.7105C31.3721 39.204 30.4923 40.3452 30.1391 40.7909C29.5265 40.6718 28.8847 40.6046 28.2253 40.594V35.6489H28.2254ZM27.5447 35.6523V40.6009C26.8772 40.6297 26.2305 40.7177 25.6166 40.8576C25.3063 40.4691 24.3845 39.287 23.361 37.7105C23.0571 37.2425 22.7758 36.7477 22.5237 36.2668C24.1339 35.8945 25.8194 35.6858 27.5447 35.6523ZM21.8464 36.4348C22.1239 36.9716 22.4396 37.5322 22.786 38.0658C23.675 39.4353 24.4914 40.5151 24.9079 41.0478C24.3713 41.2137 23.8682 41.4231 23.4068 41.6711C22.8359 41.3187 20.2433 39.6903 18.6666 38.2072C18.5117 38.0616 18.3553 37.9077 18.1985 37.7489C19.3504 37.2104 20.5724 36.7703 21.8464 36.4348ZM15.1432 39.5293C15.9018 38.9853 16.7106 38.4948 17.5615 38.0601C17.7723 38.2774 17.9841 38.4878 18.194 38.6852C19.6496 40.0544 21.8653 41.495 22.7654 42.0601C22.4447 42.2791 22.1524 42.5199 21.8926 42.7812C19.4375 42.0794 17.1602 40.9684 15.1432 39.5293ZM28.04 43.6394C26.1838 43.6394 24.3809 43.412 22.6587 42.9859C23.9163 41.9078 25.9133 41.2541 28.04 41.2541C30.1641 41.2541 32.163 41.9082 33.4208 42.986C31.6986 43.4121 29.896 43.6394 28.04 43.6394ZM34.187 42.7812C33.8782 42.4708 33.5252 42.1878 33.1315 41.9373C34.1264 41.3053 36.1494 39.9639 37.5087 38.6851C37.7595 38.4493 38.0127 38.1954 38.2639 37.9325C39.2081 38.3984 40.1029 38.9313 40.9367 39.5292C38.9196 40.9685 36.6422 42.0795 34.187 42.7812Z" fill="#ADB1B2"/>
<path d="M1.06078 55.4856H0V49.4565H1.06078V55.4856Z" fill="#ADB1B2"/>
<path d="M5.57332 53.9328C5.57332 53.6678 5.47791 53.4635 5.28708 53.3199C5.09906 53.1764 4.75809 53.0315 4.26418 52.8852C3.77027 52.7388 3.37739 52.576 3.08553 52.3965C2.52708 52.0515 2.24785 51.6015 2.24785 51.0466C2.24785 50.5607 2.4485 50.1604 2.8498 49.8457C3.25391 49.531 3.77729 49.3737 4.41993 49.3737C4.84649 49.3737 5.22674 49.451 5.56069 49.6056C5.89464 49.7602 6.15703 49.981 6.34786 50.2681C6.53869 50.5524 6.6341 50.8685 6.6341 51.2164H5.57332C5.57332 50.9017 5.47229 50.656 5.27024 50.4793C5.07099 50.2999 4.78475 50.2101 4.41151 50.2101C4.06353 50.2101 3.79272 50.2833 3.59909 50.4296C3.40826 50.5759 3.31284 50.7802 3.31284 51.0425C3.31284 51.2633 3.41668 51.4483 3.62434 51.5973C3.83201 51.7436 4.17438 51.8872 4.65145 52.028C5.12852 52.166 5.51158 52.3248 5.80063 52.5042C6.08968 52.6809 6.30156 52.8852 6.43626 53.117C6.57096 53.3462 6.63831 53.6153 6.63831 53.9245C6.63831 54.4269 6.44187 54.8272 6.04899 55.1254C5.65891 55.4208 5.12852 55.5685 4.45781 55.5685C4.01442 55.5685 3.6061 55.4884 3.23286 55.3283C2.86243 55.1654 2.57338 54.9418 2.36571 54.6575C2.16085 54.3731 2.05842 54.0418 2.05842 53.6636H3.12342C3.12342 54.006 3.23848 54.271 3.46859 54.4587C3.69871 54.6464 4.02845 54.7403 4.45781 54.7403C4.82825 54.7403 5.10607 54.6671 5.29129 54.5208C5.47931 54.3717 5.57332 54.1757 5.57332 53.9328Z" fill="#ADB1B2"/>
<path d="M12.4642 52.6284C12.4642 53.2192 12.3604 53.7382 12.1527 54.1854C11.945 54.6298 11.6476 54.9722 11.2603 55.2123C10.8758 55.4497 10.4324 55.5685 9.93011 55.5685C9.43339 55.5685 8.99 55.4497 8.59992 55.2123C8.21265 54.9722 7.91238 54.6312 7.6991 54.1895C7.48862 53.7478 7.38198 53.2385 7.37918 52.6615V52.322C7.37918 51.734 7.48441 51.215 7.69489 50.765C7.90817 50.315 8.20704 49.9713 8.5915 49.7339C8.97877 49.4938 9.42217 49.3737 9.92169 49.3737C10.4212 49.3737 10.8632 49.4924 11.2477 49.7298C11.6349 49.9644 11.9338 50.304 12.1443 50.7485C12.3548 51.1901 12.4614 51.705 12.4642 52.293V52.6284ZM11.3992 52.3137C11.3992 51.6456 11.2701 51.1336 11.0119 50.7774C10.7566 50.4213 10.3931 50.2433 9.92169 50.2433C9.46146 50.2433 9.10085 50.4213 8.83986 50.7774C8.58168 51.1308 8.44978 51.6318 8.44417 52.2806V52.6284C8.44417 53.291 8.57466 53.803 8.83565 54.1647C9.09944 54.5263 9.46426 54.7071 9.93011 54.7071C10.4016 54.7071 10.7636 54.5305 11.0161 54.1771C11.2715 53.8238 11.3992 53.3075 11.3992 52.6284V52.3137Z" fill="#ADB1B2"/>
<path d="M13.7144 56.0032H12.9104L15.3224 49.4565H16.1264L13.7144 56.0032Z" fill="#ADB1B2"/>
<path d="M18.0586 55.4856H16.9978V49.4565H18.0586V55.4856Z" fill="#ADB1B2"/>
<path d="M22.95 52.7941H20.4327V54.6492H23.3751V55.4856H19.3677V49.4565H23.3456V50.3012H20.4327V51.9659H22.95V52.7941Z" fill="#ADB1B2"/>
<path d="M28.919 53.5228C28.8572 54.1661 28.6159 54.6685 28.1949 55.0301C27.774 55.389 27.2141 55.5685 26.5154 55.5685C26.0271 55.5685 25.5963 55.4553 25.2231 55.2289C24.8526 54.9998 24.5664 54.6754 24.3643 54.2558C24.1623 53.8362 24.057 53.3489 24.0486 52.7941V52.2309C24.0486 51.6622 24.1511 51.1612 24.3559 50.7277C24.5608 50.2943 24.854 49.9603 25.2357 49.7256C25.6202 49.491 26.0636 49.3737 26.5659 49.3737C27.2422 49.3737 27.7866 49.5545 28.1992 49.9161C28.6117 50.2778 28.8516 50.7885 28.919 51.4483H27.8582C27.8077 51.0148 27.6786 50.7029 27.4709 50.5124C27.2661 50.3192 26.9644 50.2226 26.5659 50.2226C26.1028 50.2226 25.7464 50.3896 25.4967 50.7236C25.2497 51.0549 25.1234 51.5421 25.1178 52.1853V52.7195C25.1178 53.371 25.2357 53.8679 25.4714 54.2102C25.71 54.5526 26.0579 54.7237 26.5154 54.7237C26.9335 54.7237 27.2478 54.6312 27.4583 54.4463C27.6688 54.2613 27.8021 53.9535 27.8582 53.5228H28.919Z" fill="#ADB1B2"/>
<path d="M32.3578 54.4039C32.5544 54.0088 32.9381 53.6496 33.5088 53.3266L34.3604 52.8464C34.7419 52.63 35.0095 52.4452 35.1633 52.2921C35.4056 52.0522 35.527 51.7777 35.527 51.4684C35.527 51.1071 35.4161 50.8202 35.1944 50.6078C34.9726 50.3954 34.6769 50.2892 34.3073 50.2892C33.7602 50.2892 33.3817 50.4918 33.1718 50.8968C33.0594 51.1138 32.9973 51.4146 32.9855 51.7993H32.1738C32.1827 51.2599 32.2847 50.82 32.4798 50.4797C32.8257 49.8797 33.4363 49.5797 34.3116 49.5797C35.039 49.5797 35.5706 49.7716 35.9062 50.1551C36.2417 50.5388 36.4096 50.9657 36.4096 51.4359C36.4096 51.932 36.2307 52.3561 35.873 52.7079C35.6659 52.9128 35.2948 53.1608 34.7596 53.4521L34.1519 53.781C33.8621 53.9368 33.6345 54.0854 33.469 54.2266C33.1732 54.4775 32.9869 54.7559 32.91 55.0617H36.3786V55.7972H32.0186C32.048 55.2636 32.1612 54.7991 32.3578 54.4039Z" fill="#ADB1B2"/>
<path d="M37.1845 50.3559V49.6229H41.4976V50.2161C41.0734 50.637 40.6522 51.1963 40.2341 51.894C39.819 52.5917 39.4978 53.3092 39.2706 54.0465C39.107 54.5662 39.0025 55.1354 38.957 55.754H38.1162C38.1253 55.2653 38.2283 54.675 38.4253 53.9829C38.6222 53.2908 38.904 52.6242 39.2706 51.983C39.6402 51.3389 40.0326 50.7966 40.4477 50.3559H37.1845Z" fill="#ADB1B2"/>
<path d="M46.401 50.4016C46.6972 50.9344 46.8453 51.6644 46.8453 52.5914C46.8453 53.4703 46.7111 54.1971 46.4426 54.7722C46.0539 55.5969 45.4181 56.0092 44.5358 56.0092C43.7396 56.0092 43.1472 55.6722 42.7585 54.9979C42.4344 54.435 42.2724 53.6795 42.2724 52.7314C42.2724 51.997 42.3697 51.3664 42.564 50.8395C42.9281 49.8583 43.5869 49.3677 44.5403 49.3677C45.3981 49.3677 46.0183 49.7124 46.401 50.4016ZM45.5626 54.7088C45.8191 54.3357 45.9474 53.6404 45.9474 52.623C45.9474 51.8885 45.8546 51.2842 45.6692 50.8102C45.4838 50.3361 45.1236 50.0991 44.589 50.0991C44.0975 50.0991 43.7382 50.3241 43.5111 50.7742C43.2839 51.2241 43.1704 51.887 43.1704 52.763C43.1704 53.4222 43.243 53.952 43.3882 54.3523C43.6107 54.9634 43.9909 55.2689 44.5286 55.2689C44.9614 55.2688 45.3059 55.0821 45.5626 54.7088Z" fill="#ADB1B2"/>
<path d="M51.7487 50.4016C52.0449 50.9344 52.193 51.6644 52.193 52.5914C52.193 53.4703 52.0588 54.1971 51.7904 54.7722C51.4016 55.5969 50.7658 56.0092 49.8835 56.0092C49.0874 56.0092 48.4949 55.6722 48.1062 54.9979C47.7822 54.435 47.6202 53.6795 47.6202 52.7314C47.6202 51.997 47.7174 51.3664 47.9118 50.8395C48.2758 49.8583 48.9346 49.3677 49.888 49.3677C50.7459 49.3677 51.3661 49.7124 51.7487 50.4016ZM50.9103 54.7088C51.1668 54.3357 51.2951 53.6404 51.2951 52.623C51.2951 51.8885 51.2023 51.2842 51.0169 50.8102C50.8315 50.3361 50.4714 50.0991 49.9367 50.0991C49.4453 50.0991 49.086 50.3241 48.8589 50.7742C48.6316 51.2241 48.5181 51.887 48.5181 52.763C48.5181 53.4222 48.5907 53.952 48.7359 54.3523C48.9584 54.9634 49.3387 55.2689 49.8764 55.2689C50.3091 55.2688 50.6537 55.0821 50.9103 54.7088Z" fill="#ADB1B2"/>
<path d="M52.9679 51.3295V50.7064C53.5696 50.6492 53.9892 50.5537 54.2268 50.4197C54.4644 50.2858 54.6417 49.969 54.7591 49.4693H55.4163V55.9076H54.5276V51.3295L52.9679 51.3295Z" fill="#ADB1B2"/>
</svg>
