<svg width="56" height="56" viewBox="0 0 56 56" fill="none" xmlns="http://www.w3.org/2000/svg">
<circle cx="26.8791" cy="21.8405" r="21.84" fill="white" fill-opacity="0.25"/>
<g clip-path="url(#clip0)">
<path d="M13.4366 16.928V12.2178H1.12012V16.928H3.94582V27.0033H1.12012V31.7136H13.4366V27.0033H10.6109V16.928H13.4366Z" fill="#ADB1B2"/>
<path d="M27.0286 19.6983C26.2674 19.4772 22.3503 18.3582 21.6721 18.1371C20.9939 17.9161 20.4403 17.5983 20.4403 17.1977C20.4403 16.797 21.0631 16.3687 22.3227 16.3687C26.2951 16.3687 28.2034 18.8141 28.2034 18.8141C28.2034 18.8141 28.4184 19.1 28.4905 19.2026H32.323V12.531H28.2087V13.7448C27.8944 13.5282 25.5744 12.0168 21.9766 12.0168C17.2291 12.0168 14.5854 14.476 14.5854 18.1509C14.5854 21.8258 17.9212 23.3456 18.8485 23.7324C19.7759 24.1192 23.4023 25.1416 24.9525 25.6251C26.5027 26.1087 27.0702 26.454 27.0702 26.7027C27.0702 26.9514 26.3919 27.6007 24.4542 27.6007C21.0788 27.6007 19.3406 25.6139 19.0355 25.2292V25.2262C18.9385 25.0965 18.8247 24.943 18.7861 24.8852C18.7413 24.8183 18.6376 24.6698 18.5656 24.5673H14.7331V31.6918H19.0355V30.204C19.5362 30.5366 22.0988 32.1322 25.1739 32.1322C28.6065 32.1322 32.9803 30.6401 32.9803 25.9843C32.9803 21.3285 27.7899 19.9193 27.0286 19.6983Z" fill="#ADB1B2"/>
<path d="M43.9047 11.9514C38.1824 11.9514 33.4893 14.8071 33.4893 22.097C33.4893 29.3868 38.584 32.1173 43.9297 32.1173C49.2754 32.1173 54.32 29.4118 54.32 22.1722C54.32 14.9327 49.2756 11.9514 43.9047 11.9514ZM43.9549 27.2574C41.9973 27.2574 40.7424 26.8065 40.7424 22.072C40.7424 17.3374 41.671 16.8364 44.0301 16.8364C45.4606 16.8364 47.1924 16.9365 47.1924 21.9217C47.1924 26.9069 45.9126 27.2574 43.9549 27.2574Z" fill="#ADB1B2"/>
<path d="M9.3267 10.0678C10.613 8.17186 12.1949 6.49123 14.0083 5.09554C14.7416 5.63666 15.521 6.1275 16.3404 6.56495C14.9676 8.09239 13.7376 9.78463 13.5339 10.0678H14.3576C14.852 9.40266 15.8747 8.06465 16.9531 6.8784C18.1318 7.45677 19.3845 7.92981 20.6915 8.29012C20.3436 9.02688 20.0806 9.67112 19.9263 10.0678H20.6419C20.8063 9.65929 21.0473 9.08954 21.3479 8.46C23.0153 8.86662 24.7624 9.09452 26.5496 9.12922V10.0679H27.214V9.13243C28.9882 9.11949 30.7257 8.91768 32.3872 8.53847C32.6704 9.13652 32.8984 9.67643 33.056 10.0678H33.7716C33.6232 9.68681 33.375 9.07783 33.0471 8.37722C34.3775 8.03172 35.6541 7.57105 36.8564 7.00174C37.8935 8.1565 38.8631 9.42576 39.3404 10.0678H40.164C39.9666 9.79336 38.8003 8.18822 37.475 6.69626C38.3861 6.2262 39.2501 5.69137 40.0576 5.09554C41.871 6.49123 43.453 8.17186 44.7392 10.0678H45.5384C41.6088 4.01428 34.7819 0.000488281 27.0329 0.000488281C19.2838 0.000488281 12.4569 4.01428 8.52734 10.0678H9.3267V10.0678ZM20.9879 7.68368C19.7447 7.34846 18.5518 6.90901 17.4272 6.37143C17.58 6.21293 17.7327 6.05942 17.8836 5.91408C19.4235 4.43184 21.9564 2.80426 22.5116 2.4539C22.9621 2.70092 23.4538 2.90981 23.9767 3.0756C23.5706 3.60722 22.7731 4.68638 21.9047 6.05522C21.5666 6.58794 21.2587 7.14786 20.9879 7.68368ZM26.5496 8.46586C24.867 8.43226 23.2218 8.22314 21.6492 7.8509C21.8951 7.371 22.1695 6.87718 22.4659 6.41011C23.4665 4.83326 24.3692 3.64933 24.6699 3.26415C25.2699 3.40485 25.9005 3.49382 26.5496 3.52289V8.46586ZM27.214 8.46917V3.5304C27.8544 3.51957 28.4809 3.45193 29.0805 3.33157C29.4242 3.77533 30.2843 4.91638 31.232 6.41011C31.5439 6.90161 31.8314 7.42262 32.0871 7.92606C30.5201 8.272 28.8844 8.45679 27.214 8.46917ZM32.7531 7.769C32.4722 7.20754 32.1492 6.61624 31.7932 6.05522C30.9696 4.757 30.2096 3.71918 29.7869 3.16192C30.3431 3.00597 30.8682 2.80327 31.3503 2.55801C32.1297 3.0567 34.3935 4.54656 35.8142 5.91408C36.0028 6.09567 36.1939 6.28964 36.3848 6.49079C35.2368 7.01987 34.0199 7.44815 32.7531 7.769ZM39.5013 4.68096C38.7219 5.24253 37.8891 5.74564 37.0122 6.18796C36.7672 5.92557 36.52 5.67214 36.2754 5.43672C34.9466 4.15763 32.9679 2.81576 31.9985 2.18566C32.3278 1.97257 32.629 1.73693 32.8975 1.48041C35.2971 2.16477 37.5249 3.25907 39.5013 4.68096ZM27.0331 0.663632C28.7875 0.663632 30.4926 0.877275 32.1253 1.27715C30.8862 2.2817 29.0296 2.87102 27.0331 2.87102C25.0274 2.87102 23.1759 2.28358 21.9385 1.2777C23.5718 0.877496 25.2777 0.663632 27.0331 0.663632ZM21.1683 1.48041C21.3869 1.68952 21.6262 1.88514 21.8854 2.06552C21.0071 2.62963 18.8438 4.06877 17.4226 5.43661C17.2179 5.63357 17.0116 5.84334 16.8061 6.06019C16.0201 5.64937 15.2704 5.18926 14.565 4.68096C16.541 3.25907 18.7687 2.16488 21.1683 1.48041Z" fill="#ADB1B2"/>
<path d="M44.7403 33.9225C43.4813 35.7785 41.9388 37.428 40.1735 38.806C39.3327 38.1749 38.4303 37.6108 37.4759 37.1181C38.6256 35.8236 39.6557 34.444 40.037 33.9226H39.2097C38.6997 34.6023 37.8069 35.7554 36.8572 36.8128C35.6549 36.2433 34.3785 35.7823 33.0478 35.4369C33.3292 34.8355 33.5514 34.3026 33.7027 33.9226H32.9849C32.8328 34.2931 32.6305 34.7631 32.3874 35.2763C30.7269 34.8976 28.9897 34.6959 27.2141 34.6831V33.9226H26.5497V34.6861C24.761 34.7207 23.014 34.9484 21.3476 35.3544C21.0881 34.811 20.8729 34.3117 20.7131 33.9226H19.9953C20.1537 34.3209 20.3903 34.8872 20.691 35.5241C19.3836 35.8845 18.1305 36.3569 16.9519 36.9356C15.9615 35.8459 15.0184 34.6287 14.4884 33.9225H13.661C14.055 34.4613 15.1431 35.9182 16.3403 37.25C15.4781 37.7109 14.6594 38.2303 13.8926 38.8059C12.1271 37.4279 10.5846 35.7784 9.32575 33.9224H8.52783C12.4575 39.9759 19.2842 43.9897 27.0331 43.9897C34.782 43.9897 41.6087 39.976 45.5384 33.9224H44.7403V33.9225ZM32.7534 36.0454C34.0206 36.3662 35.2375 36.7943 36.3856 37.3236C36.1944 37.525 36.0032 37.7193 35.8143 37.9012C34.3979 39.2643 32.1414 40.7508 31.3561 41.2534C30.874 41.0072 30.3482 40.8045 29.7903 40.6485C30.2137 40.0903 30.9718 39.0544 31.7931 37.7599C32.1494 37.1987 32.4724 36.6071 32.7534 36.0454ZM27.2139 35.3461C28.8856 35.3585 30.5213 35.5428 32.0874 35.8883C31.8316 36.392 31.544 36.9131 31.2319 37.4051C30.2855 38.8967 29.4266 40.0365 29.0819 40.4816C28.484 40.3627 27.8575 40.2956 27.2138 40.285V35.3461H27.2139ZM26.5496 35.3494V40.2919C25.898 40.3207 25.2668 40.4086 24.6675 40.5483C24.3647 40.1602 23.4649 38.9796 22.4659 37.4051C22.1692 36.9377 21.8946 36.4435 21.6486 35.9632C23.2203 35.5914 24.8655 35.3829 26.5496 35.3494ZM20.9875 36.131C21.2584 36.6671 21.5665 37.227 21.9046 37.76C22.7724 39.1277 23.5693 40.2062 23.9758 40.7383C23.452 40.9039 22.9609 41.1131 22.5106 41.3607C21.9533 41.0088 19.4227 39.3825 17.8837 37.9012C17.7325 37.7558 17.5798 37.602 17.4268 37.4434C18.5512 36.9056 19.7439 36.4661 20.9875 36.131ZM14.4445 39.2217C15.185 38.6783 15.9745 38.1885 16.8051 37.7542C17.0108 37.9713 17.2175 38.1814 17.4224 38.3786C18.8433 39.7461 21.0059 41.1849 21.8845 41.7492C21.5715 41.968 21.2862 42.2085 21.0326 42.4695C18.6362 41.7686 16.4133 40.6589 14.4445 39.2217ZM27.033 43.3266C25.2211 43.3266 23.4614 43.0995 21.7803 42.6739C23.0079 41.5971 24.9572 40.9443 27.033 40.9443C29.1063 40.9443 31.0575 41.5976 32.2851 42.674C30.6041 43.0996 28.8447 43.3266 27.033 43.3266ZM33.033 42.4695C32.7316 42.1595 32.3871 41.8768 32.0028 41.6267C32.9739 40.9955 34.9485 39.6557 36.2754 38.3785C36.5201 38.1429 36.7672 37.8894 37.0125 37.6268C37.9341 38.0921 38.8075 38.6244 39.6214 39.2215C37.6525 40.659 35.4295 41.7687 33.033 42.4695Z" fill="#ADB1B2"/>
<path d="M27.9052 53.3533C27.9347 53.902 28.1468 54.2812 28.5415 54.4909C28.7444 54.6015 28.9731 54.6566 29.2276 54.6566C29.7034 54.6566 30.1091 54.4588 30.4449 54.063C30.7805 53.6672 31.0184 52.8636 31.1586 51.6524C30.9373 52.0021 30.6634 52.2479 30.337 52.3896C30.0106 52.5314 29.6592 52.6022 29.283 52.6022C28.5194 52.6022 27.9154 52.365 27.4709 51.8906C27.0263 51.4162 26.8042 50.8056 26.8042 50.0589C26.8042 49.3419 27.0237 48.711 27.4626 48.1666C27.9015 47.6223 28.549 47.3501 29.4047 47.3501C30.5591 47.3501 31.3559 47.8689 31.7949 48.9065C32.0384 49.4768 32.1601 50.1906 32.1601 51.0479C32.1601 52.0155 32.0143 52.8728 31.723 53.6198C31.2397 54.8634 30.4208 55.4852 29.2664 55.4852C28.4917 55.4852 27.9033 55.2826 27.5014 54.8777C27.0993 54.4727 26.8982 53.9646 26.8982 53.3534H27.9052V53.3533ZM30.4975 51.3409C30.8239 51.0817 30.9871 50.6287 30.9871 49.9817C30.9871 49.4009 30.8405 48.9681 30.5472 48.6831C30.254 48.3983 29.8805 48.2558 29.4268 48.2558C28.9399 48.2558 28.5535 48.4185 28.2676 48.7438C27.9817 49.0691 27.8387 49.5039 27.8387 50.0479C27.8387 50.5625 27.9641 50.9715 28.215 51.2748C28.4658 51.5781 28.866 51.7296 29.4156 51.7296C29.8104 51.7296 30.171 51.6001 30.4975 51.3409Z" fill="#ADB1B2"/>
<path d="M37.9916 48.6258C38.3457 49.2775 38.5227 50.1704 38.5227 51.3044C38.5227 52.3794 38.3623 53.2685 38.0414 53.9719C37.5767 54.9806 36.8166 55.485 35.7618 55.485C34.8101 55.485 34.1019 55.0728 33.6371 54.248C33.2498 53.5595 33.0562 52.6353 33.0562 51.4756C33.0562 50.5772 33.1724 49.8059 33.4047 49.1614C33.8399 47.9612 34.6275 47.3611 35.7672 47.3611C36.7927 47.3611 37.5341 47.7827 37.9916 48.6258ZM36.9894 53.8944C37.296 53.4379 37.4493 52.5874 37.4493 51.3429C37.4493 50.4446 37.3384 49.7054 37.1168 49.1256C36.8951 48.5457 36.4646 48.2558 35.8255 48.2558C35.238 48.2558 34.8084 48.531 34.5369 49.0815C34.2653 49.6319 34.1296 50.4427 34.1296 51.5142C34.1296 52.3205 34.2164 52.9686 34.39 53.4583C34.656 54.2057 35.1105 54.5794 35.7533 54.5794C36.2706 54.5793 36.6825 54.351 36.9894 53.8944Z" fill="#ADB1B2"/>
<path d="M44.2948 48.6258C44.6489 49.2775 44.826 50.1704 44.826 51.3044C44.826 52.3794 44.6655 53.2685 44.3446 53.9719C43.8799 54.9806 43.1198 55.485 42.065 55.485C41.1133 55.485 40.4051 55.0728 39.9404 54.248C39.553 53.5595 39.3594 52.6353 39.3594 51.4756C39.3594 50.5772 39.4756 49.8059 39.708 49.1614C40.1431 47.9612 40.9307 47.3611 42.0705 47.3611C43.096 47.3611 43.8374 47.7827 44.2948 48.6258ZM43.2926 53.8944C43.5992 53.4379 43.7526 52.5874 43.7526 51.3429C43.7526 50.4446 43.6416 49.7054 43.42 49.1256C43.1984 48.5457 42.7678 48.2558 42.1287 48.2558C41.5412 48.2558 41.1117 48.531 40.8402 49.0815C40.5685 49.6319 40.4328 50.4427 40.4328 51.5142C40.4328 52.3205 40.5196 52.9686 40.6932 53.4583C40.9592 54.2057 41.4137 54.5794 42.0565 54.5794C42.5738 54.5793 42.9858 54.351 43.2926 53.8944Z" fill="#ADB1B2"/>
<path d="M46.3911 49.6695V48.9073C47.1104 48.8374 47.612 48.7206 47.896 48.5566C48.18 48.3928 48.3921 48.0054 48.5324 47.394H49.318V55.2695H48.2557V49.6694H46.3911V49.6695Z" fill="#ADB1B2"/>
<path d="M7.23612 55.2596H5.87158V47.4573H7.23612V55.2596Z" fill="#ADB1B2"/>
<path d="M13.0408 53.2501C13.0408 52.9071 12.9181 52.6427 12.6726 52.457C12.4308 52.2712 11.9922 52.0837 11.3568 51.8943C10.7215 51.705 10.2161 51.4942 9.84066 51.262C9.12229 50.8154 8.76311 50.2331 8.76311 49.515C8.76311 48.8863 9.02122 48.3683 9.53743 47.961C10.0573 47.5537 10.7305 47.3501 11.5572 47.3501C12.1059 47.3501 12.595 47.4501 13.0246 47.6502C13.4542 47.8502 13.7917 48.136 14.0372 48.5076C14.2826 48.8756 14.4054 49.2846 14.4054 49.7347H13.0408C13.0408 49.3275 12.9109 49.0095 12.651 48.7809C12.3947 48.5487 12.0265 48.4326 11.5463 48.4326C11.0987 48.4326 10.7504 48.5272 10.5013 48.7166C10.2558 48.9059 10.1331 49.1703 10.1331 49.5097C10.1331 49.7955 10.2666 50.0348 10.5338 50.2277C10.8009 50.4171 11.2413 50.6029 11.855 50.7851C12.4687 50.9637 12.9614 51.1691 13.3332 51.4013C13.7051 51.6299 13.9776 51.8943 14.1509 52.1944C14.3242 52.4909 14.4108 52.8392 14.4108 53.2394C14.4108 53.8895 14.1581 54.4076 13.6527 54.7934C13.1509 55.1756 12.4687 55.3668 11.6059 55.3668C11.0355 55.3668 10.5103 55.2632 10.0302 55.056C9.55368 54.8452 9.18186 54.5558 8.91472 54.1879C8.6512 53.8199 8.51944 53.3912 8.51944 52.9018H9.8894C9.8894 53.3447 10.0374 53.6877 10.3334 53.9306C10.6294 54.1736 11.0536 54.295 11.6059 54.295C12.0824 54.295 12.4398 54.2004 12.678 54.011C12.9199 53.8181 13.0408 53.5645 13.0408 53.2501Z" fill="#ADB1B2"/>
<path d="M21.9049 51.5621C21.9049 52.3266 21.7714 52.9982 21.5042 53.577C21.2371 54.1521 20.8545 54.5951 20.3563 54.9059C19.8617 55.2132 19.2914 55.3668 18.6452 55.3668C18.0062 55.3668 17.4359 55.2132 16.9341 54.9059C16.4359 54.5951 16.0497 54.1539 15.7753 53.5823C15.5046 53.0107 15.3674 52.3516 15.3638 51.6049V51.1655C15.3638 50.4046 15.4992 49.733 15.7699 49.1506C16.0443 48.5683 16.4287 48.1235 16.9233 47.8163C17.4214 47.5055 17.9918 47.3501 18.6344 47.3501C19.2769 47.3501 19.8455 47.5037 20.34 47.8109C20.8382 48.1146 21.2227 48.554 21.4934 49.1292C21.7641 49.7008 21.9013 50.3671 21.9049 51.128V51.5621ZM20.535 51.1548C20.535 50.2903 20.3689 49.6276 20.0368 49.1667C19.7083 48.7059 19.2408 48.4754 18.6344 48.4754C18.0423 48.4754 17.5785 48.7059 17.2428 49.1667C16.9106 49.624 16.741 50.2724 16.7338 51.1119V51.5621C16.7338 52.4195 16.9016 53.0822 17.2373 53.5502C17.5767 54.0182 18.046 54.2522 18.6452 54.2522C19.2517 54.2522 19.7173 54.0235 20.0422 53.5662C20.3707 53.109 20.535 52.4409 20.535 51.5621V51.1548Z" fill="#ADB1B2"/>
</g>
<defs>
<clipPath id="clip0">
<rect width="56" height="56" fill="white" transform="translate(0 0.000488281)"/>
</clipPath>
</defs>
</svg>
