<svg width="140" height="64" viewBox="0 0 140 64" fill="none" xmlns="http://www.w3.org/2000/svg">
<path d="M4 47H33.3487V18.1392H4V47Z" fill="url(#paint0_linear)"/>
<path d="M6.29278 18.6567C5.72339 18.6567 5.35139 19.137 5.26305 19.8106C5.17471 20.4842 4.53009 23.6631 4.53009 31.8437C4.53009 40.0284 5.26305 45.3834 5.26305 45.3834C5.33069 46.0308 5.72339 46.5367 6.29278 46.5367H31.6958C32.2631 46.5367 32.7145 46.0867 32.7241 45.3834C32.7338 44.6801 32.4419 39.1112 32.4419 32.9852C32.4419 26.8586 32.7241 19.8106 32.7241 19.8106C32.7379 19.1839 32.2631 18.6567 31.6958 18.6567H6.29278Z" fill="url(#paint1_linear)"/>
<path d="M20.559 21.5982C21.3603 21.9343 24.5806 23.6756 24.9754 24.2319C23.3548 24.4458 20.1766 25.2733 18.465 26.1064L18.3649 26.3079C20.2525 25.8924 22.8911 25.675 24.7103 25.5763C24.0312 26.5729 23.5812 27.0478 22.548 28.1755L22.4521 28.3943C24.4212 27.2113 24.9754 27.1264 26.7905 26.0636C27.4758 27.0774 27.6408 29.4137 27.667 31.2654C28.2578 30.0907 28.9749 25.6654 28.6767 24.8655C29.8804 24.0393 30.0433 23.374 30.0433 23.374C28.9397 23.4692 28.331 23.4879 27.736 23.6756C26.326 22.8108 23.0926 21.67 20.6521 21.3939L20.559 21.5982Z" fill="url(#paint2_linear)"/>
<path d="M8.53591 35.353C8.37648 36.8272 8.3123 37.8818 8.52349 39.0613C7.92649 39.2262 7.40334 39.2497 6.9223 39.4547L6.83051 39.6569C7.5959 40.1289 8.21912 40.4906 9.08459 40.8943C9.5477 41.8889 10.026 42.5597 10.8017 43.3258L10.8963 43.1208C10.7569 42.5556 10.576 42.0883 10.6444 41.4706C11.6065 41.7508 12.4319 41.8992 13.5286 41.9324L13.6211 41.7274C12.6569 41.3533 11.6934 41.0586 10.9135 40.3229C11.1585 39.641 11.4394 39.1061 11.8977 38.4298L11.9943 38.2227C11.1661 38.3476 10.4152 38.6506 9.69884 38.79C9.13429 37.7976 8.91481 36.44 8.63046 35.1466L8.53591 35.353Z" fill="url(#paint3_linear)"/>
<path d="M13.4506 28.6249C13.4506 28.6249 12.8309 28.5656 11.8053 28.5966C10.9384 28.6367 9.64573 28.7139 9.01699 28.8989L8.92519 29.1004C9.92456 29.1432 11.2938 29.4117 11.8177 29.9376C12.3415 30.4635 10.3007 31.3062 8.79682 34.3016C7.29295 37.2969 11.523 31.7438 12.7046 31.1095C13.8861 30.4753 13.3229 33.169 13.7522 34.2001L13.8468 33.9944C13.9655 33.3319 14.2616 31.5347 14.764 30.4352C15.2665 29.3358 14.9421 30.3269 15.8138 30.242C16.6875 30.164 17.9229 30.1178 20.2688 30.5298L20.364 30.3283C19.8285 30.0122 17.6938 29.097 15.4342 28.7926H15.508C15.8179 27.8802 16.2058 27.1921 16.2058 27.1921C15.7268 27.2598 14.363 27.8975 13.4506 28.6249Z" fill="url(#paint4_linear)"/>
<path d="M19.1607 41.2604C19.1257 40.8644 19.0993 40.4676 19.0814 40.0705C18.6427 40.672 18.1746 41.2515 17.6789 41.807C17.1261 41.9609 16.4939 41.9547 15.9176 41.9485C15.7009 41.9444 15.4842 41.9449 15.2675 41.9498L15.1743 42.1548C15.7106 42.4309 16.2372 42.6007 16.799 42.7159C16.3435 43.1307 15.7347 43.4461 15.3068 43.7353L15.213 43.9368C16.1295 43.7201 17.3366 43.3309 18.2359 42.8001C18.7038 42.8208 19.1407 42.7898 19.4616 42.7263C19.7826 42.6628 19.5576 42.5172 19.5576 42.522C19.4989 42.3149 19.3146 42.1886 19.2608 41.8988C20.1035 41.2445 20.7143 40.6482 21.419 39.9394L21.517 39.7337C20.8206 40.2141 19.9751 40.8746 19.1607 41.2604Z" fill="url(#paint5_linear)"/>
<path d="M26.8846 25.8578C25.0736 26.9227 24.5187 27.0124 22.549 28.1912C23.696 26.9468 24.095 26.4168 24.8045 25.3753C22.9886 25.472 20.3501 25.6901 18.466 26.1076C20.1058 25.2318 23.3572 24.258 25.0736 24.0261C24.6754 23.4767 21.4544 21.7319 20.6531 21.3958C23.2033 21.5939 26.3201 22.547 27.8315 23.4712C28.4258 23.2855 29.0442 23.2765 30.1505 23.1778C29.8689 23.6616 29.8565 23.9419 28.7709 24.6617C29.0718 25.4657 28.3533 29.889 27.7598 31.0603C27.7384 29.2099 27.5769 26.873 26.8846 25.8578ZM13.6224 41.7261C12.5816 41.3403 11.8321 40.891 11.0066 40.1194C11.2537 39.4375 11.536 38.9047 11.9956 38.2214C11.2603 38.3262 10.5272 38.4461 9.79675 38.581C9.20321 37.543 8.93405 36.5402 8.63175 35.1454C8.47025 36.6237 8.40883 37.6797 8.61726 38.8564C7.94779 39.0427 7.47434 39.2049 6.92358 39.4527C7.69519 39.9248 8.31772 40.2885 9.17974 40.6902C9.64216 41.684 10.1211 42.3542 10.8983 43.1196C10.7161 42.4673 10.6677 41.949 10.7423 41.2651C11.7051 41.5453 12.5291 41.693 13.6224 41.7261ZM16.332 27.0152C16.0076 27.4362 15.6314 28.2202 15.53 28.5846C18.2127 28.949 20.3653 30.3266 20.3653 30.3266C18.0187 29.9104 16.7833 29.9622 15.9082 30.0409C15.0386 30.1223 14.8591 30.2245 14.8591 30.2245C14.2269 31.6117 13.8474 33.9928 13.8474 33.9928C13.4208 32.9637 12.8038 30.9029 12.8038 30.9029C11.6202 31.5351 8.89746 34.0963 8.89746 34.0963C10.3944 31.0989 11.9135 29.7344 11.9135 29.7344C11.391 29.2051 10.0204 28.9407 9.01755 28.8966C9.53794 28.684 10.8734 28.4355 11.899 28.3886C12.926 28.3589 13.5471 28.4176 13.5471 28.4176C14.463 27.6943 15.8523 27.0856 16.332 27.0145V27.0152ZM19.1775 39.8675C18.7383 40.4689 18.2691 41.0477 17.7716 41.6019C16.9588 41.8397 16.1153 41.9567 15.2684 41.949C15.7821 42.2115 16.3298 42.4013 16.8958 42.5129C16.4037 42.9661 15.8725 43.3749 15.3084 43.7345C16.2257 43.5171 17.4314 43.1278 18.3293 42.5971C18.7986 42.615 19.2369 42.5847 19.5578 42.5212C19.4743 42.2493 19.4232 42.0463 19.3549 41.693C20.2003 41.038 20.8139 40.4452 21.5179 39.7329C20.8052 40.2405 20.0482 40.6828 19.2562 41.0546C19.2197 40.6596 19.1935 40.2638 19.1775 39.8675Z" fill="white"/>
<path d="M44.0566 29.2012C45.8531 29.2163 46.5108 29.5814 46.5108 30.5594C46.5108 30.8293 46.428 31.0688 46.2693 31.2517C45.9249 31.6658 45.2547 31.8797 44.4003 31.8259H44.3561L43.8544 33.133H44.3561C45.3479 33.1054 46.2099 33.4174 46.653 33.9585C46.8573 34.2049 46.9601 34.5017 46.9601 34.8039C46.9601 35.8268 46.0595 36.3548 44.283 36.3548C43.9841 36.3548 43.4976 36.3548 43.1953 36.3451C43.1526 35.0894 43.128 33.8332 43.1214 32.5768C43.1214 31.9322 43.1635 30.4966 43.1953 29.2709C43.4002 29.2281 43.7405 29.2019 44.0566 29.2019V29.2012ZM40.73 28.2612C40.7852 29.2308 40.8411 31.6823 40.8411 32.5761C40.8411 33.4001 40.8411 36.1581 40.6962 37.3472L40.6872 37.4404H44.9959C47.1147 37.4404 49.3536 36.782 49.3536 34.9006C49.3536 33.7238 48.5013 32.8535 46.907 32.3773C48.0899 32.0598 48.8774 31.2523 48.8774 30.3275C48.8774 28.7919 47.114 28.2142 45.4563 28.1742H40.7045L40.73 28.2612ZM59.2983 28.1742H57.2015L57.2864 30.5111C57.3278 31.6657 57.3665 32.8535 57.4479 34.0068C57.3127 33.6452 57.1864 33.4595 56.5486 32.5319C56.5466 32.4995 54.3677 29.1473 53.6106 28.1956L53.5899 28.1742H51.1564V28.2612C51.2337 29.2308 51.2647 31.683 51.2647 32.5768C51.2647 33.4008 51.2647 36.1581 51.1488 37.3472L51.1281 37.4411H53.2959V37.3472C53.1723 35.0855 53.1723 32.8032 53.1723 30.5891C53.2483 30.8576 53.3435 31.0881 53.6851 31.594C53.7134 31.654 57.4479 37.0905 57.6294 37.4017L57.6481 37.4411H59.3852L59.3825 37.3472C59.25 36.1581 59.2389 33.4008 59.2389 32.5768C59.2389 31.683 59.2983 29.2308 59.3549 28.2612L59.3825 28.1742H59.2983ZM64.9853 29.2923C66.193 29.2702 67.0371 29.5145 67.4381 30.0218C67.6217 30.2399 67.7231 30.5277 67.7231 30.8576C67.7231 32.1986 66.2144 32.4898 64.9535 32.4898L64.4414 32.4608L64.2309 32.4401C64.2219 32.1295 64.2219 31.721 64.2219 31.2627C64.2219 30.6795 64.2219 29.9873 64.2488 29.3461C64.4929 29.3122 64.7389 29.2943 64.9853 29.2923ZM61.8056 28.2612C61.8905 29.2308 61.923 31.6823 61.923 32.5768C61.923 33.4001 61.923 36.1587 61.796 37.3472V37.4411H64.3751L64.3641 37.3472C64.2758 36.4914 64.2309 34.8598 64.2219 33.6134L64.7092 33.6376L65.0736 33.6452C68.4665 33.6452 70.1166 32.7479 70.1166 30.8576C70.1166 28.7077 67.8018 28.2142 65.8721 28.1742H61.8056V28.2612ZM78.2151 29.2923C79.4263 29.2702 80.269 29.5145 80.6748 30.0218C80.8612 30.2399 80.9544 30.5277 80.9544 30.8576C80.9544 32.1986 79.4477 32.4898 78.2027 32.4898L77.6919 32.4608C77.6919 32.4608 77.5567 32.4491 77.478 32.4401C77.4642 32.1295 77.4642 31.7189 77.4642 31.2627C77.4642 30.674 77.4642 29.9873 77.4876 29.3461C77.6491 29.3226 77.928 29.2923 78.2151 29.2923ZM75.0403 28.2612C75.1217 29.2308 75.1687 31.6823 75.1687 32.5768C75.1687 33.4001 75.1604 36.1587 75.0265 37.3472V37.4411H77.6077L77.5925 37.3472C77.5104 36.4914 77.4635 34.8598 77.4635 33.6134C77.5836 33.6189 77.928 33.6376 77.928 33.6376L78.302 33.6452C81.6935 33.6452 83.3582 32.7479 83.3582 30.8576C83.3582 28.7077 81.0303 28.2142 79.093 28.1742H75.0403V28.2612ZM87.4357 30.9031C87.6407 31.3448 88.1735 32.5768 88.7726 34.0468C88.6801 34.051 88.5642 34.051 88.5642 34.051L87.4357 34.0662C87.4357 34.0662 86.268 34.051 86.0726 34.0468C86.5599 32.8715 87.0423 31.8093 87.4357 30.9031ZM86.8084 28.1742H86.7745L86.7566 28.2204C86.2762 29.5393 83.1822 36.2913 82.6922 37.3251L82.6515 37.4411H84.8483L84.8669 37.39C85.0602 36.7544 85.3204 36.038 85.6033 35.2733C85.691 35.2733 87.4357 35.247 87.4357 35.247L88.9534 35.2581C88.9534 35.2581 89.1977 35.2733 89.2709 35.2733C89.6615 36.2692 89.9617 37.0201 90.0922 37.4017L90.117 37.4411H92.6631L88.5503 28.1742H88.4993H86.8084ZM93.6976 28.2612C93.7715 29.2308 93.8087 31.683 93.8087 32.5768C93.8087 33.4008 93.8087 36.1581 93.6679 37.3472V37.4411H96.263L96.2519 37.3472C96.1146 36.1498 96.1049 33.4008 96.1049 32.5768C96.1049 31.9328 96.1256 30.4973 96.1891 29.3364C96.3865 29.3226 96.686 29.2923 96.889 29.2923C98.0898 29.2702 98.9388 29.5179 99.3349 30.0218C99.5254 30.2406 99.611 30.5346 99.611 30.8569C99.611 31.928 98.6123 32.4705 97.6813 32.5188C97.3693 32.5319 97.1374 32.4912 97.1374 32.4912L96.9566 32.4608L97.056 32.6306C97.9774 33.9744 99.3549 36.3009 99.9243 37.4017L99.9402 37.4411H102.713L102.644 37.3162C102.53 37.1602 100.725 34.5023 99.9574 33.367C99.9574 33.367 99.9243 33.3346 99.8905 33.298C101.312 32.8715 101.999 32.0764 101.999 30.8576C101.999 28.7236 99.6841 28.2156 97.7296 28.1742H93.69L93.6976 28.2612ZM106.382 28.1742H103.911L103.925 28.2612C103.988 29.2308 104.038 31.683 104.038 32.5768C104.038 33.3967 104.027 36.1498 103.91 37.3472L103.9 37.4411H106.462L106.449 37.3472C106.35 36.1498 106.32 33.3967 106.32 32.5768C106.32 31.683 106.382 29.2308 106.449 28.2612V28.1742H106.382ZM112.124 29.2012C113.933 29.2163 114.592 29.5814 114.592 30.5594C114.592 30.8293 114.509 31.0688 114.344 31.2517C114.018 31.6658 113.321 31.8797 112.472 31.8259H112.431L111.932 33.133H112.43C113.425 33.1054 114.28 33.4174 114.722 33.9585C114.938 34.2049 115.041 34.5017 115.041 34.8039C115.041 35.8268 114.137 36.3548 112.35 36.3548C112.064 36.3548 111.581 36.3548 111.278 36.3451C111.204 34.9799 111.204 33.133 111.204 32.5768C111.204 31.9322 111.227 30.4966 111.278 29.2709C111.474 29.2281 111.812 29.2019 112.124 29.2019V29.2012ZM108.798 28.2612C108.872 29.2308 108.917 31.6823 108.917 32.5761C108.917 33.4001 108.917 36.1581 108.787 37.3472L108.766 37.4404H113.082C115.192 37.4404 117.439 36.782 117.439 34.9006C117.439 33.7238 116.584 32.8535 114.976 32.3773C116.161 32.0598 116.958 31.2523 116.958 30.3275C116.958 28.7919 115.192 28.2142 113.549 28.1742H108.787L108.798 28.2612ZM122.718 30.8983C122.925 31.3296 123.454 32.5637 124.054 34.0372C123.963 34.0372 123.851 34.0468 123.851 34.0468L122.718 34.062C122.718 34.062 121.536 34.0372 121.361 34.0372C121.793 32.9821 122.245 31.9356 122.718 30.8983ZM123.784 28.1742H122.049L122.039 28.2156C121.52 29.6187 118.252 36.7268 117.977 37.3162L117.929 37.4404H120.137L120.151 37.3852C120.335 36.7502 120.592 36.038 120.879 35.2581C120.95 35.2581 122.704 35.2305 122.704 35.2305L124.224 35.2546L124.547 35.2581C124.946 36.254 125.242 37.0111 125.371 37.3859L125.395 37.4411H127.95L123.84 28.1742H123.784ZM128.673 30.5705C128.673 32.1986 130.303 32.8535 131.747 33.4526C132.872 33.9005 134.048 34.3719 134.048 35.1483C134.048 35.383 134.001 35.5804 133.87 35.7191C133.6 36.038 133.052 36.1719 132.183 36.1235C131.324 36.089 130.353 35.8178 129.261 35.3147L128.833 35.109V37.1277L129.125 37.2023L129.294 37.2313C129.833 37.3652 130.875 37.6102 131.909 37.6102C134.631 37.6102 136.255 36.5245 136.255 34.7301C136.255 33.0447 134.578 32.3897 133.097 31.799C132.005 31.3566 130.876 30.9183 130.876 30.1957C130.876 29.9873 130.876 29.3792 132.286 29.3792C133.324 29.3792 134.334 29.8023 134.908 30.0211L135.431 30.2406L135.427 29.8927V28.2142L134.908 28.1204C134.379 28.0134 133.497 27.8374 132.589 27.8374C130.241 27.8374 128.673 28.9465 128.673 30.5705" fill="black"/>
<defs>
<linearGradient id="paint0_linear" x1="18.6744" y1="17.418" x2="18.6744" y2="48.3994" gradientUnits="userSpaceOnUse">
<stop stop-color="#007348"/>
<stop offset="0.6" stop-color="#8DC9AB"/>
<stop offset="1" stop-color="#00925B"/>
</linearGradient>
<linearGradient id="paint1_linear" x1="18.6282" y1="10.8495" x2="18.6282" y2="45.6641" gradientUnits="userSpaceOnUse">
<stop stop-color="#00925B"/>
<stop offset="0.3" stop-color="#8DC9AB"/>
<stop offset="0.55" stop-color="#00925B"/>
<stop offset="0.835" stop-color="#007348"/>
<stop offset="1" stop-color="#009C6D"/>
</linearGradient>
<linearGradient id="paint2_linear" x1="24.2044" y1="43.7388" x2="24.2044" y2="21.2096" gradientUnits="userSpaceOnUse">
<stop stop-color="#00A678"/>
<stop offset="1" stop-color="#00925B"/>
</linearGradient>
<linearGradient id="paint3_linear" x1="10.2261" y1="43.7427" x2="10.2261" y2="21.2067" gradientUnits="userSpaceOnUse">
<stop stop-color="#00A678"/>
<stop offset="1" stop-color="#00925B"/>
</linearGradient>
<linearGradient id="paint4_linear" x1="14.5811" y1="43.7382" x2="14.5811" y2="21.2171" gradientUnits="userSpaceOnUse">
<stop stop-color="#00A678"/>
<stop offset="1" stop-color="#00925B"/>
</linearGradient>
<linearGradient id="paint5_linear" x1="18.3449" y1="43.7401" x2="18.3449" y2="21.2112" gradientUnits="userSpaceOnUse">
<stop stop-color="#00A678"/>
<stop offset="1" stop-color="#00925B"/>
</linearGradient>
</defs>
</svg>
