<svg width="40" height="40" viewBox="0 0 40 40" fill="none" xmlns="http://www.w3.org/2000/svg">
<g opacity="0.5">
<g opacity="0.8">
<rect x="4.17773" y="2.46429" width="27.0714" height="27.0714" rx="13.5357" stroke="#515257" stroke-width="1.5"/>
<path d="M24.3923 16C24.3923 19.8495 23.5793 23.2974 22.3011 25.7555C21.0037 28.2505 19.3434 29.5357 17.7137 29.5357C16.0841 29.5357 14.4238 28.2505 13.1263 25.7555C11.8481 23.2974 11.0352 19.8495 11.0352 16C11.0352 12.1505 11.8481 8.7026 13.1263 6.2445C14.4238 3.74949 16.0841 2.46429 17.7137 2.46429C19.3434 2.46429 21.0037 3.74949 22.3011 6.2445C23.5793 8.7026 24.3923 12.1505 24.3923 16Z" stroke="#515257" stroke-width="1.5"/>
<mask id="path-3-inside-1" fill="white">
<rect x="18" y="14.9995" width="20" height="23" rx="1"/>
</mask>
<rect x="18" y="14.9995" width="20" height="23" rx="1" fill="white" stroke="#515257" stroke-width="3" mask="url(#path-3-inside-1)"/>
<mask id="path-4-inside-2" fill="white">
<rect x="25" y="27.9995" width="6" height="10" rx="1"/>
</mask>
<rect x="25" y="27.9995" width="6" height="10" rx="1" fill="white" stroke="#515257" stroke-width="3" mask="url(#path-4-inside-2)"/>
<path d="M9.75 22.9995C9.75 22.8614 9.86193 22.7495 10 22.7495H18.5C18.6381 22.7495 18.75 22.8614 18.75 22.9995V36.9995C18.75 37.1375 18.6381 37.2495 18.5 37.2495H10C9.86193 37.2495 9.75 37.1375 9.75 36.9995V22.9995Z" fill="white" stroke="#515257" stroke-width="1.5"/>
<path d="M4 16C4.15429 16 14.35 16 19.4286 16" stroke="#515257" stroke-width="1.5"/>
<path d="M5.42773 9.42859C5.66773 9.42859 21.8134 9.42859 29.7134 9.42859" stroke="#515257" stroke-width="1.5"/>
<path d="M5.71289 22.8588C5.84842 22.8588 14.966 22.8588 19.4272 22.8588" stroke="#515257" stroke-width="1.5"/>
</g>
</g>
</svg>
