<svg width="140" height="64" viewBox="0 0 140 64" fill="none" xmlns="http://www.w3.org/2000/svg">
<path d="M75.5723 25.5225L75.4688 25.6288L75.3683 25.5196C70.0084 19.673 63.4128 17.7147 58.8267 17.102C55.4769 16.6554 53.1352 16.9221 53.1134 16.9249C47.2639 17.3417 40.8344 17.0911 33.9933 16.176C28.0869 15.3863 23.5714 14.316 22 13.9188C28.8163 19.27 52.296 23.8585 52.5386 23.9051C66.5224 26.2743 70.9505 31.6255 70.9942 31.6801C72.1869 32.9084 73.3933 33.6165 74.5728 33.774C76.8224 34.0735 78.2462 32.2434 78.2629 32.2244C88.6221 21.122 90.716 19.831 91.0402 19.6839C93.3847 17.5296 111.598 11.7209 117.099 10C94.0768 12.9768 90.885 14.297 90.8551 14.3108C85.4166 15.542 75.67 25.4219 75.5723 25.5225Z" fill="#FF9933"/>
<path d="M45.8645 40.8894V53.5909H49.0534V40.8894H45.8645ZM36.3985 43.8225H39.1408V53.5909H42.3026V43.8225H45.0587V40.8975H36.4008V43.8225H36.3985ZM28.92 53.5909H32.1308V48.9012L34.8075 48.8961L34.8046 45.971H32.1331L32.1308 43.8305H35.5702V40.8923L28.92 40.8952V53.5909Z" fill="#87888A"/>
<path d="M59.0577 53.6699C55.2941 53.6699 52.9088 51.3961 52.9088 47.4445C52.9088 43.6809 55.0711 40.7914 59.4497 40.7914C60.6045 40.7914 61.7046 40.9765 62.8593 41.3306L62.5978 42.2428C61.5166 41.8151 60.3619 41.6082 59.2808 41.6082C55.4792 41.6082 53.9704 44.3671 53.9704 47.2537C53.9704 50.8512 56.0212 52.8256 59.2451 52.8256C60.3073 52.8256 61.2034 52.6756 62.0581 52.3951V47.2887H63.0657V52.9911C61.7971 53.4469 60.305 53.6699 59.0577 53.6699Z" fill="#87888A"/>
<path d="M72.7761 53.5232L67.9312 47.4662H67.6887V53.5227H66.6811V40.9442C67.4082 40.9063 68.0784 40.8896 69.3636 40.8896C71.5615 40.8896 73.3503 41.6523 73.3503 43.9095C73.3503 46.2948 71.2994 47.4881 69.0831 47.4881C69.4561 47.8967 69.9027 48.3813 70.2378 48.7733L74.132 53.5255H72.7761V53.5232ZM69.0291 41.6903C68.506 41.6903 68.1169 41.7092 67.6864 41.7449V46.6466C67.91 46.6655 68.3209 46.6845 68.9526 46.6845C71.096 46.6845 72.3076 45.6034 72.3076 44.1135C72.3105 42.2869 71.1178 41.6903 69.0291 41.6903Z" fill="#87888A"/>
<path d="M81.1232 53.67C77.4142 53.67 75.6249 51.1186 75.6249 47.352C75.6249 43.1038 78.2528 40.7915 81.4198 40.7915C85.1289 40.7915 86.9181 43.3429 86.9181 47.1095C86.9187 51.3605 84.2908 53.67 81.1232 53.67ZM81.2732 41.6307C78.8333 41.6307 76.7066 43.624 76.7066 47.1101C76.7066 50.465 78.2154 52.8124 81.2732 52.8124C83.7132 52.8124 85.8399 50.8381 85.8399 47.3331C85.8376 43.997 84.3288 41.6307 81.2732 41.6307Z" fill="#87888A"/>
<path d="M94.2642 53.6736C90.389 53.6736 89.7166 51.4756 89.7166 49.4254V40.9451H90.7241V49.2949C90.7241 51.1957 91.3777 52.8539 94.3567 52.8539C96.8542 52.8539 98.1204 51.8107 98.1204 48.9023V40.9451H99.109V48.7908C99.109 51.9417 97.5077 53.6736 94.2642 53.6736Z" fill="#87888A"/>
<path d="M105.616 48.3979C104.851 48.3979 104.18 48.3244 104.18 48.3244V53.5232H103.173V40.9442C103.173 40.9442 104.738 40.8896 105.967 40.8896C108.687 40.8896 110.18 42.3438 110.18 44.3561C110.182 46.8156 108.355 48.3979 105.616 48.3979ZM105.727 41.7288C104.888 41.7288 104.18 41.7667 104.18 41.7667V47.4312C104.18 47.4312 104.907 47.5616 105.765 47.5616C108.039 47.5616 109.12 46.35 109.12 44.5607C109.117 42.6955 108.001 41.7288 105.727 41.7288Z" fill="#87888A"/>
</svg>
