<svg width="56" height="56" viewBox="0 0 56 56" fill="none" xmlns="http://www.w3.org/2000/svg">
<circle cx="28" cy="28.0005" r="28" fill="#D3D3D3" fill-opacity="0.35"/>
<g clip-path="url(#clip0)">
<path d="M27.7479 2.80054L28.4664 5.01172H30.7913L28.9104 6.37831L29.6289 8.5895L27.7479 7.22291L25.867 8.5895L26.5854 6.37831L24.7045 5.01172H27.0295L27.7479 2.80054Z" fill="#ADB1B2"/>
<path d="M27.7479 46.8005L28.4664 49.0117H30.7913L28.9104 50.3783L29.6289 52.5895L27.7479 51.2229L25.867 52.5895L26.5854 50.3783L24.7045 49.0117H27.0295L27.7479 46.8005Z" fill="#ADB1B2"/>
<path d="M38.7489 5.74856L39.4673 7.95975L41.7923 7.95976L39.9114 9.32634L40.6298 11.5375L38.7489 10.1709L36.8679 11.5375L37.5864 9.32632L35.7054 7.95972L38.0304 7.95974L38.7489 5.74856Z" fill="#ADB1B2"/>
<path d="M16.7278 43.8534L17.4602 46.06L19.7851 46.0454L17.9128 47.4238L18.6452 49.6304L16.7557 48.2757L14.8834 49.6541L15.5879 47.4384L13.6984 46.0837L16.0233 46.0691L16.7278 43.8534Z" fill="#ADB1B2"/>
<path d="M49.8843 16.1475L47.9447 17.4294L48.5645 19.6702L46.7459 18.2216L44.8063 19.5035L45.622 17.3264L43.8034 15.8778L46.1261 15.9808L46.9418 13.8036L47.5616 16.0445L49.8843 16.1475Z" fill="#ADB1B2"/>
<path d="M11.7576 38.0665L9.85254 39.3993L10.5314 41.6229L8.67516 40.223L6.7701 41.5557L7.52794 39.3577L5.6717 37.9578L7.99631 37.9993L8.75414 35.8013L9.43299 38.025L11.7576 38.0665Z" fill="#ADB1B2"/>
<path d="M48.6662 41.5992L46.7919 40.2236L44.9044 41.5811L45.6334 39.3734L43.7591 37.9978L46.084 38.009L46.8131 35.8013L47.5209 38.0159L49.8459 38.0271L47.9584 39.3846L48.6662 41.5992Z" fill="#ADB1B2"/>
<path d="M10.586 19.5842L8.69934 18.2255L6.82415 19.6L7.53332 17.3858L5.64665 16.0271L7.97161 16.0174L8.68077 13.8032L9.40851 16.0113L11.7335 16.0016L9.85828 17.376L10.586 19.5842Z" fill="#ADB1B2"/>
<path d="M40.6185 49.6515L38.7436 48.2765L36.8565 49.6345L37.5849 47.4267L35.7101 46.0516L38.0351 46.0621L38.7635 43.8542L39.472 46.0686L41.797 46.079L39.9099 47.4371L40.6185 49.6515Z" fill="#ADB1B2"/>
<path d="M18.6597 11.5185L16.7627 10.1743L14.8981 11.5631L15.5903 9.34355L13.6932 7.99936L16.018 7.97178L16.7102 5.75221L17.4548 7.95473L19.7796 7.92714L17.9151 9.31596L18.6597 11.5185Z" fill="#ADB1B2"/>
<path d="M2.70396 27.0147L5.02893 27.013L5.74579 24.8013L6.46584 27.012L8.79081 27.0104L6.91085 28.3783L7.6309 30.589L5.74898 29.2237L3.86902 30.5916L4.58588 28.3799L2.70396 27.0147Z" fill="#ADB1B2"/>
<path d="M46.7181 26.9762L49.0429 27.004L49.7878 24.8016L50.4797 27.0212L52.8046 27.049L50.9074 28.393L51.5993 30.6126L49.7349 29.2236L47.8377 30.5676L48.5826 28.3652L46.7181 26.9762Z" fill="#ADB1B2"/>
<path d="M20.2027 30.9494C19.9128 31.2613 19.4887 31.5126 18.9304 31.7033C18.3721 31.8939 17.7601 31.9893 17.0944 31.9893C16.0709 31.9893 15.2531 31.686 14.6411 31.0793C14.0291 30.4727 13.7016 29.6287 13.6587 28.5472L13.6533 27.892C13.6533 27.1468 13.7893 26.4968 14.0613 25.9422C14.3333 25.3841 14.7216 24.956 15.2262 24.6579C15.7344 24.3564 16.3214 24.2056 16.987 24.2056C17.9605 24.2056 18.7157 24.4222 19.2525 24.8555C19.7929 25.2853 20.1078 25.9283 20.1973 26.7845H18.3828C18.3184 26.3616 18.1788 26.0601 17.9641 25.8798C17.7494 25.6996 17.4451 25.6094 17.0515 25.6094C16.5791 25.6094 16.214 25.8036 15.9563 26.1918C15.6987 26.58 15.568 27.1346 15.5644 27.8556V28.3132C15.5644 29.0689 15.6969 29.6373 15.9617 30.0186C16.2301 30.3965 16.6506 30.5854 17.2233 30.5854C17.7136 30.5854 18.0786 30.4797 18.3184 30.2682V29.0931H17.0085V27.84H20.2027V30.9494Z" fill="#ADB1B2"/>
<path d="M21.2978 31.8853V24.3148H23.8156C24.5063 24.3148 25.1272 24.4673 25.6784 24.7723C26.2295 25.0739 26.659 25.502 26.9668 26.0566C27.2781 26.6078 27.4356 27.2265 27.4392 27.9128V28.2612C27.4392 28.9545 27.2871 29.5767 26.9829 30.1278C26.6822 30.6755 26.2564 31.1053 25.7052 31.4173C25.1576 31.7258 24.5457 31.8818 23.8692 31.8853H21.2978ZM23.1821 25.7238V30.4814H23.837C24.3774 30.4814 24.7926 30.296 25.0825 29.9251C25.3724 29.5507 25.5173 28.9961 25.5173 28.2612V27.9336C25.5173 27.2022 25.3724 26.6511 25.0825 26.2802C24.7926 25.9093 24.3703 25.7238 23.8156 25.7238H23.1821Z" fill="#ADB1B2"/>
<path d="M30.2898 29.3167V31.8853H28.4055V24.3148H31.5245C32.1221 24.3148 32.65 24.4222 33.1081 24.6371C33.5698 24.8486 33.9259 25.1519 34.1764 25.547C34.4305 25.9387 34.5576 26.3842 34.5576 26.8833C34.5576 27.6217 34.2838 28.2127 33.7362 28.6564C33.1922 29.0966 32.4442 29.3167 31.4923 29.3167H30.2898ZM30.2898 27.9076H31.5245C31.8895 27.9076 32.1669 27.8192 32.3566 27.6425C32.5498 27.4657 32.6465 27.2161 32.6465 26.8937C32.6465 26.5402 32.548 26.2576 32.3512 26.0462C32.1544 25.8348 31.8859 25.7273 31.5459 25.7238H30.2898V27.9076Z" fill="#ADB1B2"/>
<path d="M38.4711 29.2127H37.4511V31.8853H35.5668V24.3148H38.6429C39.5698 24.3148 40.2945 24.5141 40.817 24.9127C41.3396 25.3113 41.6008 25.8746 41.6008 26.6026C41.6008 27.1294 41.4899 27.5662 41.268 27.9128C41.0497 28.2595 40.7061 28.5402 40.2373 28.7552L41.8692 31.8073V31.8853H39.8507L38.4711 29.2127ZM37.4511 27.8036H38.6429C39.0008 27.8036 39.2692 27.7135 39.4481 27.5333C39.6306 27.3496 39.7219 27.0948 39.7219 26.7689C39.7219 26.4431 39.6306 26.1883 39.4481 26.0046C39.2656 25.8174 38.9972 25.7238 38.6429 25.7238H37.4511V27.8036Z" fill="#ADB1B2"/>
</g>
<defs>
<clipPath id="clip0">
<rect width="50.4" height="50.4" fill="white" transform="translate(2.7998 2.80054)"/>
</clipPath>
</defs>
</svg>
