<svg width="140" height="64" viewBox="0 0 140 64" fill="none" xmlns="http://www.w3.org/2000/svg">
<path d="M16.1201 43.476L28.7932 24.6273C28.8392 24.4014 28.8854 24.1753 28.9544 23.9494V23.9268L15.1753 42.5268C15.4749 42.8433 15.7975 43.1596 16.1201 43.476Z" fill="#00AB4E"/>
<path d="M13.0885 39.3276C13.2879 39.7249 13.5095 40.1221 13.731 40.496L28.9077 23.0863C29.0406 22.7826 29.1957 22.4788 29.3729 22.2217L13.0885 39.3276Z" fill="#00AB4E"/>
<path d="M41.8983 24.5961C41.7472 24.223 41.5744 23.8732 41.38 23.5L38.3563 26.7185C38.2915 26.9284 38.2268 27.1382 38.1404 27.3249L41.8983 24.5961Z" fill="#00AB4E"/>
<path d="M36.4719 29.1882L43.5475 32.425C43.5703 31.9826 43.5703 31.4004 43.5703 31.3305L36.6767 29.0251C36.6085 29.0717 36.5402 29.1416 36.4719 29.1882Z" fill="#00AB4E"/>
<path d="M42.9227 27.3234L37.5337 27.9383C37.4652 28.0106 37.3967 28.101 37.3054 28.1733L43.1511 28.1552C43.1053 27.866 43.014 27.5946 42.9227 27.3234Z" fill="#00AB4E"/>
<path d="M39.8109 21.0513C39.5402 20.7054 39.2469 20.3825 38.9536 20.0596L38.57 23.6112L36.72 18.0993C36.2913 17.7995 35.8627 17.4997 35.4115 17.223L36.9908 20.8668L32.9072 16.0237C32.3657 15.8162 31.8017 15.6317 31.2377 15.4933L35.3664 19.9212L28.598 15.0552C28.1467 15.009 27.4699 14.986 26.8833 15.009L33.9901 19.6215L24.3113 15.2396C23.7924 15.3319 23.2735 15.4472 22.7771 15.6086L32.9522 19.6445L20.1825 16.6234C19.7088 16.854 19.2575 17.1077 18.8063 17.3844L32.1175 19.8059L16.5727 19.068C16.1666 19.437 15.783 19.8059 15.422 20.198L31.4632 20.0827L13.7525 22.3428C13.4592 22.781 13.2111 23.2191 12.9628 23.6804L30.854 20.4517L11.7671 26.494C11.6318 26.9321 11.519 27.3703 11.4062 27.8085L30.2223 20.9591L11.0226 30.6682C11 31.0602 11 31.6137 11 32.052L29.6809 21.5587L11.3385 34.9808C11.4288 35.419 11.5415 35.8341 11.6543 36.2492L29.6132 21.9738C30.5382 20.8207 31.937 20.0827 33.4938 20.0827C36.2688 20.0827 38.5024 22.3658 38.5024 25.2025C38.5024 25.5022 38.4798 25.779 38.4347 26.0558L39.8109 21.0513Z" fill="#00AB4E"/>
<path d="M28.5384 25.7751C28.516 25.5917 28.4936 25.3852 28.4936 25.2018L18.5172 45.3838C18.8535 45.6132 19.2122 45.8196 19.5708 46.026L28.5384 25.7751Z" fill="#00AB4E"/>
<path d="M34.2126 30.3C34.1226 30.3228 34.0326 30.3228 33.9651 30.3228L40.8509 40.4997C41.0759 40.159 41.2784 39.7955 41.481 39.4547L34.2126 30.3Z" fill="#00AB4E"/>
<path d="M35.4498 29.8767C35.3804 29.8996 35.2879 29.9454 35.2185 29.9683L42.8281 36.6764C42.9438 36.3101 43.0594 35.9438 43.1519 35.5775L35.4498 29.8767Z" fill="#00AB4E"/>
<path d="M38.9749 42.6202L33.0161 30.3451C32.9074 30.3225 32.8204 30.3225 32.7117 30.3L38.1703 43.4746C38.4312 43.1823 38.714 42.9125 38.9749 42.6202Z" fill="#00AB4E"/>
<path d="M27.6459 48.1493L29.369 28.0994C29.2817 27.983 29.2163 27.8665 29.1509 27.7501L26.4462 48.126C26.817 48.1494 27.4059 48.1493 27.6459 48.1493Z" fill="#00AB4E"/>
<path d="M31.7616 29.9898C31.6692 29.9446 31.5769 29.8993 31.4615 29.8767L34.9236 46.0261C35.316 45.8225 35.6853 45.619 36.0546 45.3928L31.7616 29.9898Z" fill="#00AB4E"/>
<path d="M28.9517 27.3453C28.8828 27.2113 28.8369 27.0549 28.7909 26.8984L22.2709 46.9625C22.6841 47.0966 23.0974 47.2083 23.5106 47.2977L28.9517 27.3453Z" fill="#00AB4E"/>
<path d="M30.457 29.2502C30.3735 29.1827 30.29 29.0927 30.2065 29.0251L30.7075 47.2994C31.1042 47.2094 31.48 47.0969 31.8767 46.9619L30.457 29.2502Z" fill="#00AB4E"/>
<path d="M49.47 25.3668H50.6382V37.7128H49.47V25.3668Z" fill="#717171"/>
<path d="M53.8064 25.3668H54.9745V30.6481H61.5561V25.3668H62.7243V37.7128H61.5561V31.7456H54.9745V37.7128H53.8064V25.3668Z" fill="#717171"/>
<path d="M64.9494 34.6695L65.9827 34.2808C66.5218 35.9955 67.7572 36.8871 69.4644 36.8871C71.2839 36.8871 72.4744 36.0412 72.4744 34.6466C72.4744 33.3663 71.8679 32.7032 69.2847 31.8802C66.679 31.0571 65.3536 30.3255 65.3536 28.2907C65.3536 26.5302 66.9037 25.1128 69.1275 25.1128C71.3962 25.1128 72.7216 26.3017 73.2831 27.9478L72.2948 28.405C71.6882 26.8046 70.6325 26.1645 69.105 26.1645C67.4877 26.1645 66.4993 27.0561 66.4993 28.1764C66.4993 29.5711 67.308 30.0283 69.8687 30.8514C72.3846 31.6745 73.6425 32.5204 73.6425 34.5323C73.6425 36.59 71.8455 37.8931 69.4195 37.8931C67.1283 37.9389 65.5334 36.6814 64.9494 34.6695Z" fill="#717171"/>
<path d="M79.9739 25.3668H81.4789L85.5447 36.181H85.5672L89.6105 25.3668H91.1605V37.7128H89.9924V27.3788H89.9699C89.8127 27.9275 89.5207 28.7506 89.2062 29.5507L86.0614 37.7356H85.0056L81.8608 29.5507C81.5688 28.7505 81.3666 28.2247 81.0971 27.3559H81.0746V37.7128H79.9964V25.3668H79.9739Z" fill="#717171"/>
<path d="M93.5425 35.6548C93.5425 33.9172 95.0026 32.6597 99.4053 31.9739V31.5166C99.4053 30.3049 98.7763 29.7104 97.6532 29.7104C96.2829 29.7104 95.3171 30.3049 94.4185 31.1051L93.812 30.3963C94.8453 29.4361 96.0358 28.7502 97.743 28.7502C99.6748 28.7502 100.506 29.8019 100.506 31.5624V35.5405C100.506 36.6151 100.573 37.2552 100.753 37.7125H99.585C99.4727 37.3466 99.3828 36.958 99.3828 36.455C98.3719 37.3695 97.2713 37.8497 95.9684 37.8497C94.441 37.8725 93.5425 37.0265 93.5425 35.6548ZM99.3829 35.5176V32.7741C95.6765 33.4143 94.6432 34.3516 94.6432 35.4948C94.6432 36.4093 95.2497 36.8894 96.2156 36.8894C97.451 36.9123 98.5068 36.3864 99.3829 35.5176Z" fill="#717171"/>
<path d="M103.156 28.9103H104.28V30.6479H104.302C104.976 29.5733 106.032 28.7502 107.739 28.7502H107.941L107.829 29.8248C107.829 29.8248 107.514 29.8019 107.492 29.8019C106.077 29.8019 104.976 30.6021 104.302 31.9968V37.7125H103.179V28.9103H103.156Z" fill="#717171"/>
<path d="M109.605 25.3668H110.728V33.5517L114.838 28.9106H116.164L113.333 32.02L116.501 37.7128H115.288L112.592 32.9116L110.728 34.9464V37.7128H109.605V25.3668H109.605Z" fill="#717171"/>
<path d="M118.297 25.6375H119.488V26.872H118.297V25.6375ZM118.342 28.9068H119.465V37.709H118.342V28.9068Z" fill="#717171"/>
<path d="M122.903 35.6515V29.8901H121.398V28.907H122.903V25.752H124.027V28.907H126.273V29.8901H124.027V35.4229C124.027 36.3603 124.319 36.8633 125.397 36.8633C125.734 36.8633 126.048 36.8404 126.295 36.749V37.7321C126.026 37.7779 125.577 37.8236 125.172 37.8236C123.532 37.8235 122.903 37.1834 122.903 35.6515Z" fill="#717171"/>
<path d="M127.641 29.0662H127.147V28.929H128.293V29.0662H127.798V30.5065H127.641V29.0662H127.641Z" fill="#717171"/>
<path d="M128.562 28.9082H128.764L129.281 30.3029L129.797 28.9082H129.999V30.4858H129.842V29.1597C129.82 29.2283 129.775 29.3426 129.752 29.4341L129.348 30.4858H129.213L128.809 29.4341C128.764 29.3426 128.742 29.2741 128.719 29.1597V30.4858H128.584V28.9082H128.562Z" fill="#717171"/>
</svg>
