<svg width="202" height="24" viewBox="0 0 202 24" fill="none" xmlns="http://www.w3.org/2000/svg">
<path d="M53.0106 19.7186C53.0106 20.4214 52.8541 20.9796 52.5411 21.396C52.228 21.8124 51.7969 22.0191 51.2476 22.0191C50.719 22.0191 50.3055 21.8272 50.0102 21.4462L49.96 21.9364H49.0386V15.5132H50.0545V17.8462C50.3468 17.5007 50.7426 17.3265 51.2387 17.3265C51.791 17.3265 52.2251 17.5302 52.5381 17.9407C52.8541 18.3512 53.0106 18.9241 53.0106 19.6595V19.7186ZM51.9947 19.63C51.9947 19.1397 51.9091 18.7706 51.7349 18.5255C51.5636 18.2803 51.3125 18.1563 50.9818 18.1563C50.5418 18.1563 50.2317 18.3483 50.0545 18.7351V20.5986C50.2346 20.9914 50.5477 21.1893 50.9906 21.1893C51.3096 21.1893 51.5547 21.0711 51.726 20.8349C51.8973 20.5986 51.9888 20.2413 51.9947 19.7599V19.63Z" fill="#878E9B"/>
<path d="M55.4055 20.4805L56.3269 17.4121H57.4107L55.6122 22.6216C55.3376 23.3835 54.868 23.7645 54.2065 23.7645C54.0588 23.7645 53.8964 23.7409 53.7163 23.6877V22.8992L53.9082 22.911C54.1652 22.911 54.3571 22.8637 54.4871 22.7722C54.617 22.6777 54.7204 22.5212 54.7942 22.3026L54.9419 21.9128L53.353 17.4121H54.4487L55.4055 20.4805Z" fill="#878E9B"/>
<path d="M63.6482 20.5157H61.2886L60.7954 21.9333H59.6968L61.9973 15.8438H62.9453L65.2488 21.9333H64.1443L63.6482 20.5157ZM61.5868 19.6623H63.3528L62.4698 17.1373L61.5868 19.6623Z" fill="#878E9B"/>
<path d="M66.5923 17.4093L66.6219 17.9321C66.9556 17.5275 67.3956 17.3267 67.939 17.3267C68.8811 17.3267 69.3595 17.8671 69.3772 18.945V21.9337H68.3613V19.0011C68.3613 18.7147 68.2993 18.502 68.1753 18.3632C68.0512 18.2244 67.8475 18.1565 67.5669 18.1565C67.1564 18.1565 66.8522 18.3426 66.6514 18.7117V21.9307H65.6355V17.4064H66.5923V17.4093Z" fill="#878E9B"/>
<path d="M70.231 19.6389C70.231 18.9419 70.3934 18.3808 70.7153 17.9585C71.0372 17.5362 71.4713 17.3235 72.0147 17.3235C72.4931 17.3235 72.883 17.4919 73.1783 17.8256V15.5103H74.1942V21.9335H73.2728L73.2226 21.4639C72.9184 21.8331 72.5138 22.0162 72.0058 22.0162C71.4772 22.0162 71.046 21.8036 70.7212 21.3753C70.3963 20.953 70.231 20.3712 70.231 19.6389ZM71.2469 19.7274C71.2469 20.1882 71.3355 20.5455 71.5127 20.8054C71.6898 21.0653 71.9409 21.1922 72.2687 21.1922C72.6851 21.1922 72.9893 21.0062 73.1812 20.637V18.7056C72.9952 18.3424 72.6939 18.1622 72.2775 18.1622C71.9497 18.1622 71.6958 18.2922 71.5156 18.5521C71.3355 18.812 71.2469 19.2018 71.2469 19.7274Z" fill="#878E9B"/>
<path d="M77.2568 22.0193C76.613 22.0193 76.0902 21.8156 75.6915 21.411C75.2929 21.0064 75.092 20.4659 75.092 19.7896V19.6627C75.092 19.2108 75.1777 18.8062 75.3519 18.4518C75.5262 18.0974 75.7713 17.8198 76.0843 17.622C76.4003 17.4241 76.7518 17.3267 77.1386 17.3267C77.7559 17.3267 78.2313 17.5245 78.568 17.9173C78.9047 18.3101 79.073 18.8653 79.073 19.5859V19.9964H76.1168C76.1463 20.3685 76.2733 20.6668 76.4919 20.8823C76.7104 21.0979 76.9851 21.2072 77.3188 21.2072C77.7854 21.2072 78.1634 21.0182 78.4558 20.6431L79.0021 21.1658C78.822 21.4375 78.5798 21.6472 78.2756 21.7949C77.9714 21.9425 77.6348 22.0193 77.2568 22.0193ZM77.1357 18.1417C76.8581 18.1417 76.6307 18.2392 76.4594 18.4341C76.2881 18.629 76.1788 18.9007 76.1316 19.2492H78.0689V19.1754C78.0453 18.8358 77.9567 18.5788 77.7972 18.4046C77.6377 18.2303 77.4192 18.1417 77.1357 18.1417Z" fill="#878E9B"/>
<path d="M82.2389 18.3396C82.106 18.316 81.9672 18.3071 81.8254 18.3071C81.3588 18.3071 81.0458 18.4843 80.8833 18.8417V21.9366H79.8674V17.4123H80.839L80.8627 17.9173C81.1078 17.5245 81.4474 17.3267 81.8845 17.3267C82.0292 17.3267 82.1503 17.3473 82.2448 17.3857L82.2389 18.3396Z" fill="#878E9B"/>
<path d="M85.4252 20.7051C85.4252 20.525 85.3514 20.3862 85.2007 20.2917C85.0531 20.1972 84.805 20.1145 84.4595 20.0407C84.114 19.9668 83.8245 19.8753 83.5942 19.7631C83.0862 19.5179 82.8323 19.1636 82.8323 18.697C82.8323 18.3071 82.9976 17.9793 83.3254 17.7194C83.6532 17.4566 84.0726 17.3267 84.5806 17.3267C85.121 17.3267 85.5581 17.4596 85.8918 17.7283C86.2255 17.997 86.3909 18.3426 86.3909 18.7708H85.375C85.375 18.5759 85.3012 18.4134 85.1564 18.2835C85.0117 18.1536 84.8198 18.0886 84.5776 18.0886C84.3561 18.0886 84.173 18.1388 84.0313 18.2422C83.8895 18.3455 83.8216 18.4843 83.8216 18.6556C83.8216 18.8121 83.8866 18.9332 84.0195 19.0189C84.1494 19.1045 84.4152 19.1931 84.8139 19.2787C85.2126 19.3673 85.5256 19.4707 85.753 19.5918C85.9804 19.7129 86.1487 19.8576 86.258 20.0289C86.3673 20.2001 86.4234 20.4069 86.4234 20.649C86.4234 21.0566 86.255 21.3873 85.9184 21.6384C85.5817 21.8894 85.1387 22.0164 84.5924 22.0164C84.2203 22.0164 83.8925 21.9484 83.6001 21.8155C83.3107 21.6827 83.0833 21.4966 82.9238 21.2633C82.7614 21.03 82.6816 20.776 82.6816 20.5073H83.668C83.6828 20.7465 83.7714 20.9325 83.9397 21.0625C84.1081 21.1924 84.3295 21.2574 84.6042 21.2574C84.8729 21.2574 85.0737 21.2072 85.2155 21.1038C85.3543 21.0034 85.4252 20.8705 85.4252 20.7051Z" fill="#878E9B"/>
<path d="M89.3085 22.0193C88.6647 22.0193 88.142 21.8156 87.7433 21.411C87.3446 21.0064 87.1438 20.4659 87.1438 19.7896V19.6627C87.1438 19.2108 87.2294 18.8062 87.4037 18.4518C87.5779 18.0974 87.823 17.8198 88.1361 17.622C88.4521 17.4241 88.8035 17.3267 89.1904 17.3267C89.8076 17.3267 90.2831 17.5245 90.6197 17.9173C90.9564 18.3101 91.1247 18.8653 91.1247 19.5859V19.9964H88.1686C88.1981 20.3685 88.3251 20.6668 88.5436 20.8823C88.7622 21.0979 89.0368 21.2072 89.3705 21.2072C89.8371 21.2072 90.2151 21.0182 90.5075 20.6431L91.0539 21.1658C90.8737 21.4375 90.6315 21.6472 90.3274 21.7949C90.0232 21.9425 89.6865 22.0193 89.3085 22.0193ZM89.1874 18.1417C88.9098 18.1417 88.6824 18.2392 88.5111 18.4341C88.3399 18.629 88.2306 18.9007 88.1833 19.2492H90.1206V19.1754C90.097 18.8358 90.0084 18.5788 89.8489 18.4046C89.6895 18.2303 89.4709 18.1417 89.1874 18.1417Z" fill="#878E9B"/>
<path d="M92.8643 17.4093L92.8938 17.9321C93.2276 17.5275 93.6676 17.3267 94.211 17.3267C95.1531 17.3267 95.6315 17.8671 95.6492 18.945V21.9337H94.6333V19.0011C94.6333 18.7147 94.5713 18.502 94.4472 18.3632C94.3232 18.2244 94.1194 18.1565 93.8389 18.1565C93.4284 18.1565 93.1242 18.3426 92.9234 18.7117V21.9307H91.9075V17.4064H92.8643V17.4093Z" fill="#878E9B"/>
<path d="M97.7757 21.9335H96.7598V15.5103H97.7757V21.9335Z" fill="#878E9B"/>
<path d="M101.591 21.9337C101.547 21.8481 101.509 21.7063 101.473 21.5114C101.148 21.8481 100.753 22.0164 100.286 22.0164C99.8312 22.0164 99.462 21.8864 99.1726 21.6266C98.8862 21.3667 98.7415 21.0477 98.7415 20.6638C98.7415 20.1824 98.9216 19.8103 99.2789 19.5534C99.6363 19.2965 100.15 19.1665 100.815 19.1665H101.438V18.8683C101.438 18.635 101.373 18.446 101.24 18.3072C101.107 18.1684 100.909 18.0975 100.64 18.0975C100.41 18.0975 100.221 18.1565 100.07 18.2717C99.9227 18.3869 99.8489 18.5345 99.8489 18.7117H98.833C98.833 18.4637 98.9157 18.2304 99.0811 18.0148C99.2465 17.7992 99.4679 17.6279 99.7514 17.5068C100.035 17.3857 100.351 17.3237 100.699 17.3237C101.228 17.3237 101.65 17.4566 101.966 17.7224C102.282 17.9882 102.442 18.3633 102.451 18.8446V20.8853C102.451 21.2929 102.507 21.6177 102.622 21.8599V21.9307H101.591V21.9337ZM100.475 21.2013C100.676 21.2013 100.865 21.1511 101.042 21.0536C101.219 20.9562 101.352 20.8262 101.441 20.6609V19.8074H100.891C100.516 19.8074 100.233 19.8724 100.041 20.0053C99.8519 20.1352 99.7574 20.3212 99.7574 20.5605C99.7574 20.7554 99.8223 20.9119 99.9523 21.0271C100.085 21.1452 100.259 21.2013 100.475 21.2013Z" fill="#878E9B"/>
<path d="M107.501 19.7186C107.501 20.4214 107.344 20.9796 107.031 21.396C106.718 21.8124 106.287 22.0191 105.738 22.0191C105.209 22.0191 104.795 21.8272 104.5 21.4462L104.45 21.9364H103.529V15.5132H104.544V17.8462C104.837 17.5007 105.233 17.3265 105.729 17.3265C106.281 17.3265 106.715 17.5302 107.028 17.9407C107.344 18.3512 107.501 18.9241 107.501 19.6595V19.7186ZM106.485 19.63C106.485 19.1397 106.399 18.7706 106.225 18.5255C106.054 18.2803 105.803 18.1563 105.472 18.1563C105.032 18.1563 104.722 18.3483 104.544 18.7351V20.5986C104.725 20.9914 105.038 21.1893 105.481 21.1893C105.8 21.1893 106.045 21.0711 106.216 20.8349C106.387 20.5986 106.479 20.2413 106.485 19.7599V19.63Z" fill="#878E9B"/>
<path d="M30.761 8.20377H24.6597V0.835496C24.6597 0.696694 24.7719 0.584473 24.9107 0.584473H30.51C30.6488 0.584473 30.761 0.696694 30.761 0.835496V8.20377Z" fill="#878E9B"/>
<path d="M18.3189 6.68582H6.3584V0.584473H18.3189C18.4577 0.584473 18.5699 0.696694 18.5699 0.835496V6.43479C18.5699 6.5736 18.4577 6.68582 18.3189 6.68582Z" fill="#878E9B"/>
<path d="M18.3071 21.9334H6.3584V15.832H18.3071C18.4459 15.832 18.5581 15.9443 18.5581 16.0831V21.6824C18.5581 21.8212 18.4459 21.9334 18.3071 21.9334Z" fill="#878E9B"/>
<path d="M42.7124 6.68582H37.1131C36.9743 6.68582 36.8621 6.5736 36.8621 6.43479V0.835496C36.8621 0.696694 36.9743 0.584473 37.1131 0.584473H42.7124C42.8512 0.584473 42.9634 0.696694 42.9634 0.835496V6.43479C42.9634 6.5736 42.8512 6.68582 42.7124 6.68582Z" fill="#BEC2CB"/>
<path d="M42.7124 21.9333H37.1131C36.9743 21.9333 36.8621 21.8211 36.8621 21.6823V14.3081H42.9634V21.6823C42.9634 21.8211 42.8512 21.9333 42.7124 21.9333Z" fill="#878E9B"/>
<path d="M6.3584 8.20947H42.7125C42.8513 8.20947 42.9635 8.32169 42.9635 8.4605V14.3108H6.3584V8.20947Z" fill="#FFDB00"/>
<path d="M30.51 21.9334H24.9107C24.7719 21.9334 24.6597 21.8212 24.6597 21.6824V16.0831C24.6597 15.9443 24.7719 15.832 24.9107 15.832H30.51C30.6488 15.832 30.761 15.9443 30.761 16.0831V21.6824C30.761 21.8212 30.6488 21.9334 30.51 21.9334Z" fill="#BEC2CB"/>
<path d="M6.35842 21.9333H0.508103C0.369302 21.9333 0.25708 21.8211 0.25708 21.6822V0.835496C0.25708 0.696694 0.369302 0.584473 0.508103 0.584473H6.35842V21.9333Z" fill="#BEC2CB"/>
<path d="M73.6535 0.841843V12.5513C73.6535 12.6901 73.5413 12.8024 73.4025 12.8024H70.3873C70.3134 12.8024 70.2425 12.7699 70.1953 12.7138L65.6296 7.25623V12.5513C65.6296 12.6901 65.5174 12.8024 65.3786 12.8024H61.8672C61.7284 12.8024 61.6162 12.6901 61.6162 12.5513V0.841843C61.6162 0.703042 61.7284 0.59082 61.8672 0.59082H64.8825C64.9563 0.59082 65.0272 0.623307 65.0744 0.679418L69.6401 6.13696V0.841843C69.6401 0.703042 69.7523 0.59082 69.8911 0.59082H73.4025C73.5413 0.59082 73.6535 0.703042 73.6535 0.841843Z" fill="#BEC2CB"/>
<path d="M110.06 6.36415H113.135C113.274 6.36415 113.386 6.47637 113.386 6.61518V11.3905C113.386 11.4762 113.344 11.5559 113.274 11.6032C112.577 12.0668 111.776 12.4242 110.873 12.6781C109.919 12.9469 108.983 13.0798 108.064 13.0798C106.762 13.0798 105.592 12.8081 104.559 12.2676C103.522 11.7272 102.713 10.9712 102.125 9.99956C101.537 9.02795 101.245 7.9264 101.245 6.69491C101.245 5.46342 101.537 4.35892 102.125 3.39026C102.713 2.41866 103.534 1.66263 104.585 1.12219C105.64 0.581755 106.827 0.310059 108.153 0.310059C109.352 0.310059 110.424 0.510875 111.372 0.912513C112.24 1.27871 112.972 1.80143 113.575 2.47476C113.666 2.57813 113.655 2.7376 113.551 2.82915L111.289 4.82257C111.186 4.91412 111.032 4.90231 110.938 4.8019C110.205 4.02816 109.349 3.64424 108.365 3.64424C107.459 3.64424 106.738 3.91594 106.204 4.46523C105.669 5.01158 105.4 5.75579 105.4 6.69787C105.4 7.61632 105.666 8.35462 106.195 8.91278C106.723 9.47093 107.429 9.75149 108.315 9.75149C108.838 9.75149 109.34 9.65403 109.815 9.45617V6.62108C109.809 6.47637 109.922 6.36415 110.06 6.36415Z" fill="#BEC2CB"/>
<path d="M141.577 0.599609H145.192C145.331 0.599609 145.443 0.711831 145.443 0.850632V12.5601C145.443 12.6989 145.331 12.8112 145.192 12.8112H141.577C141.439 12.8112 141.326 12.6989 141.326 12.5601V0.850632C141.326 0.711831 141.439 0.599609 141.577 0.599609Z" fill="#BEC2CB"/>
<path d="M150.363 12.2794C149.327 11.7389 148.518 10.9829 147.93 10.0113C147.342 9.03967 147.05 7.93812 147.05 6.70663C147.05 5.47514 147.342 4.37064 147.93 3.40198C148.518 2.43037 149.33 1.67435 150.363 1.13391C151.397 0.593473 152.561 0.321777 153.851 0.321777C155.038 0.321777 156.096 0.531457 157.026 0.950814C157.882 1.33473 158.6 1.87812 159.179 2.57804C159.264 2.6814 159.25 2.83792 159.149 2.92652L156.922 4.91403C156.816 5.00853 156.657 4.99377 156.562 4.88745C155.845 4.06646 155.009 3.65596 154.058 3.65596C153.198 3.65596 152.504 3.93356 151.982 4.48581C151.459 5.03807 151.196 5.77932 151.196 6.70959C151.196 7.63985 151.459 8.38111 151.982 8.93336C152.504 9.48561 153.198 9.76321 154.058 9.76321C155.009 9.76321 155.842 9.35271 156.562 8.53172C156.657 8.4254 156.816 8.41064 156.922 8.50514L159.149 10.4927C159.25 10.5813 159.264 10.7378 159.179 10.8411C158.6 11.541 157.879 12.0815 157.026 12.4684C156.096 12.8877 155.038 13.0974 153.851 13.0974C152.561 13.0915 151.397 12.8198 150.363 12.2794Z" fill="#BEC2CB"/>
<path d="M125.988 3.37866V0.841843C125.988 0.703042 125.875 0.59082 125.737 0.59082H116.085C115.947 0.59082 115.834 0.703042 115.834 0.841843V12.5513C115.834 12.6901 115.947 12.8024 116.085 12.8024H125.737C125.875 12.8024 125.988 12.6901 125.988 12.5513V10.0382C125.988 9.89936 125.875 9.78714 125.737 9.78714H119.883V8.17173H124.795C124.933 8.17173 125.046 8.0595 125.046 7.9207V5.45772C125.046 5.31892 124.933 5.2067 124.795 5.2067H119.883V3.62968H125.737C125.875 3.62968 125.988 3.51746 125.988 3.37866Z" fill="#BEC2CB"/>
<path d="M86.234 3.37866V0.841843C86.234 0.703042 86.1217 0.59082 85.9829 0.59082H76.3318C76.193 0.59082 76.0808 0.703042 76.0808 0.841843V12.5513C76.0808 12.6901 76.193 12.8024 76.3318 12.8024H85.9829C86.1217 12.8024 86.234 12.6901 86.234 12.5513V10.0382C86.234 9.89936 86.1217 9.78714 85.9829 9.78714H80.1297V8.17173H85.0409C85.1797 8.17173 85.2919 8.0595 85.2919 7.9207V5.45772C85.2919 5.31892 85.1797 5.2067 85.0409 5.2067H80.1297V3.62968H85.9829C86.1217 3.62968 86.234 3.51746 86.234 3.37866Z" fill="#BEC2CB"/>
<path d="M59.2152 3.37866V0.841843C59.2152 0.703042 59.1029 0.59082 58.9641 0.59082H49.313C49.1742 0.59082 49.062 0.703042 49.062 0.841843V12.5513C49.062 12.6901 49.1742 12.8024 49.313 12.8024H58.9641C59.1029 12.8024 59.2152 12.6901 59.2152 12.5513V10.0382C59.2152 9.89936 59.1029 9.78714 58.9641 9.78714H53.1109V8.17173H58.0221C58.1609 8.17173 58.2731 8.0595 58.2731 7.9207V5.45772C58.2731 5.31892 58.1609 5.2067 58.0221 5.2067H53.1109V3.62968H58.9641C59.1029 3.62968 59.2152 3.51746 59.2152 3.37866Z" fill="#BEC2CB"/>
<path d="M139.017 0.578613H128.25C128.111 0.578613 127.999 0.690835 127.999 0.829636V3.37531C127.999 3.51411 128.111 3.62633 128.25 3.62633H131.575V12.5391C131.575 12.6779 131.687 12.7902 131.826 12.7902H135.441C135.579 12.7902 135.692 12.6779 135.692 12.5391V3.62929H139.017C139.156 3.62929 139.268 3.51706 139.268 3.37826V0.83259C139.268 0.690836 139.156 0.578613 139.017 0.578613Z" fill="#BEC2CB"/>
<path d="M100.058 12.3919L97.7723 9.03407C98.5165 8.65015 99.0865 8.13334 99.4822 7.48067C99.8779 6.83097 100.076 6.06904 100.076 5.19488C100.076 4.26462 99.8484 3.44953 99.3966 2.75257C98.9418 2.05562 98.298 1.52108 97.4592 1.14898C96.6205 0.776873 95.6371 0.59082 94.5119 0.59082H88.8949C88.7502 0.59082 88.6321 0.708949 88.6321 0.853656V12.5425C88.6321 12.6872 88.7502 12.8053 88.8949 12.8053H92.489C92.6337 12.8053 92.7518 12.6872 92.7518 12.5425V9.79009H93.8681L95.8675 12.6901C95.9147 12.761 95.9974 12.8053 96.083 12.8053H99.8454C100.052 12.8024 100.176 12.5661 100.058 12.3919ZM95.4747 6.29348C95.1735 6.56222 94.7246 6.69512 94.1251 6.69512H92.7459V3.62377H94.1251C94.7246 3.62377 95.1735 3.75962 95.4747 4.02541C95.773 4.29415 95.9236 4.67217 95.9236 5.15649C95.9236 5.64673 95.773 6.02474 95.4747 6.29348Z" fill="#BEC2CB"/>
<path d="M177.078 11.5738C176.033 10.5608 175.507 9.14326 175.507 7.31818V0.850632C175.507 0.711831 175.619 0.599609 175.758 0.599609H179.373C179.511 0.599609 179.624 0.711831 179.624 0.850632V7.19414C179.624 8.08897 179.783 8.74163 180.105 9.14917C180.424 9.55672 180.888 9.76049 181.493 9.76049C182.098 9.76049 182.559 9.55672 182.881 9.14917C183.2 8.74163 183.362 8.09192 183.362 7.19414V0.850632C183.362 0.711831 183.475 0.599609 183.613 0.599609H187.157C187.296 0.599609 187.408 0.711831 187.408 0.850632V7.31522C187.408 9.14031 186.886 10.5608 185.837 11.5708C184.792 12.5808 183.33 13.0888 181.458 13.0888C179.585 13.0888 178.126 12.5838 177.078 11.5738Z" fill="#878E9B"/>
<path d="M201.141 7.59576C201.536 8.10666 201.734 8.72388 201.734 9.44447C201.734 10.5135 201.291 11.3434 200.408 11.9311C199.525 12.5188 198.247 12.8111 196.569 12.8111H189.945C189.806 12.8111 189.694 12.6989 189.694 12.5601V0.853562C189.694 0.714761 189.806 0.602539 189.945 0.602539H196.218C197.845 0.602539 199.076 0.894907 199.906 1.47669C200.736 2.05847 201.153 2.83222 201.153 3.79792C201.153 4.36789 201.011 4.8788 200.724 5.33359C200.438 5.78839 200.019 6.15459 199.46 6.43219C200.187 6.69502 200.745 7.08485 201.141 7.59576ZM193.743 3.47897V5.29225H195.663C196.557 5.29225 197.006 4.99102 197.006 4.38561C197.006 3.7802 196.557 3.47897 195.663 3.47897H193.743ZM197.582 8.97491C197.582 8.33701 197.127 8.01511 196.221 8.01511H193.743V9.9347H196.221C197.127 9.9347 197.582 9.61576 197.582 8.97491Z" fill="#878E9B"/>
<path d="M169.101 0.850632V5.00876H165.297V0.850632C165.297 0.711831 165.185 0.599609 165.046 0.599609H161.432C161.293 0.599609 161.181 0.711831 161.181 0.850632V12.5601C161.181 12.6989 161.293 12.8112 161.432 12.8112H165.046C165.185 12.8112 165.297 12.6989 165.297 12.5601V8.38724H169.101V12.5601C169.101 12.6989 169.213 12.8112 169.352 12.8112H172.967C173.106 12.8112 173.218 12.6989 173.218 12.5601V0.850632C173.218 0.711831 173.106 0.599609 172.967 0.599609H169.352C169.213 0.599609 169.101 0.711831 169.101 0.850632Z" fill="#878E9B"/>
</svg>
