<svg width="50" height="50" viewBox="0 0 50 50" fill="none" xmlns="http://www.w3.org/2000/svg">
<path d="M30.2041 46.6663H8.11076C7.37194 46.6656 6.6636 46.3717 6.14117 45.8493C5.61874 45.3268 5.32489 44.6185 5.3241 43.8797V6.11634C5.32533 5.37796 5.61943 4.67022 6.14186 4.14841C6.66429 3.62661 7.37238 3.33336 8.11076 3.33301H30.2041C30.9425 3.33336 31.6506 3.62661 32.173 4.14841C32.6954 4.67022 32.9895 5.37796 32.9908 6.11634V12.1363C32.9908 12.2247 32.9556 12.3095 32.8931 12.372C32.8306 12.4346 32.7458 12.4697 32.6574 12.4697C32.569 12.4697 32.4842 12.4346 32.4217 12.372C32.3592 12.3095 32.3241 12.2247 32.3241 12.1363V6.11634C32.323 5.55471 32.0992 5.01644 31.7018 4.61962C31.3043 4.22281 30.7657 3.99985 30.2041 3.99967H8.11076C7.54914 3.99985 7.01051 4.22281 6.61307 4.61962C6.21563 5.01644 5.99182 5.55471 5.99076 6.11634V43.8797C5.99147 44.4417 6.21505 44.9805 6.61248 45.378C7.0099 45.7754 7.54872 45.999 8.11076 45.9997H30.2041C30.7661 45.999 31.305 45.7754 31.7024 45.378C32.0998 44.9805 32.3234 44.4417 32.3241 43.8797V29.2997C32.3241 29.2113 32.3592 29.1265 32.4217 29.064C32.4842 29.0015 32.569 28.9663 32.6574 28.9663C32.7458 28.9663 32.8306 29.0015 32.8931 29.064C32.9556 29.1265 32.9908 29.2113 32.9908 29.2997V43.8797C32.99 44.6185 32.6961 45.3268 32.1737 45.8493C31.6513 46.3717 30.9429 46.6656 30.2041 46.6663Z" fill="black"/>
<path d="M32.6566 8.65885H5.65658C5.56817 8.65885 5.48339 8.62373 5.42087 8.56122C5.35836 8.49871 5.32324 8.41393 5.32324 8.32552C5.32324 8.23711 5.35836 8.15233 5.42087 8.08982C5.48339 8.02731 5.56817 7.99219 5.65658 7.99219H32.6566C32.745 7.99219 32.8298 8.02731 32.8923 8.08982C32.9548 8.15233 32.9899 8.23711 32.9899 8.32552C32.9899 8.41393 32.9548 8.49871 32.8923 8.56122C32.8298 8.62373 32.745 8.65885 32.6566 8.65885Z" fill="black"/>
<path d="M32.6566 40.0729H5.65658C5.56817 40.0729 5.48339 40.0378 5.42087 39.9753C5.35836 39.9128 5.32324 39.828 5.32324 39.7396C5.32324 39.6512 5.35836 39.5664 5.42087 39.5039C5.48339 39.4414 5.56817 39.4062 5.65658 39.4062H32.6566C32.745 39.4062 32.8298 39.4414 32.8923 39.5039C32.9548 39.5664 32.9899 39.6512 32.9899 39.7396C32.9899 39.828 32.9548 39.9128 32.8923 39.9753C32.8298 40.0378 32.745 40.0729 32.6566 40.0729Z" fill="black"/>
<path d="M21.7222 6.46305H16.5916C16.5032 6.46305 16.4184 6.42793 16.3559 6.36542C16.2934 6.30291 16.2582 6.21813 16.2582 6.12972C16.2582 6.04131 16.2934 5.95653 16.3559 5.89402C16.4184 5.83151 16.5032 5.79639 16.5916 5.79639H21.7222C21.8106 5.79639 21.8954 5.83151 21.9579 5.89402C22.0205 5.95653 22.0556 6.04131 22.0556 6.12972C22.0556 6.21813 22.0205 6.30291 21.9579 6.36542C21.8954 6.42793 21.8106 6.46305 21.7222 6.46305Z" fill="black"/>
<path d="M19.1584 45.1487C18.7474 45.1491 18.3455 45.0276 18.0036 44.7995C17.6616 44.5715 17.3949 44.2472 17.2373 43.8676C17.0797 43.488 17.0382 43.0702 17.118 42.667C17.1979 42.2638 17.3955 41.8934 17.6859 41.6025C17.9763 41.3116 18.3464 41.1134 18.7495 41.0329C19.1525 40.9524 19.5704 40.9933 19.9503 41.1503C20.3301 41.3073 20.6549 41.5734 20.8834 41.915C21.112 42.2566 21.2342 42.6583 21.2344 43.0693C21.2337 43.62 21.0149 44.148 20.6258 44.5377C20.2367 44.9274 19.7091 45.1471 19.1584 45.1487ZM19.1584 41.6597C18.8791 41.6593 18.606 41.7418 18.3736 41.8967C18.1412 42.0516 17.96 42.272 17.8529 42.5299C17.7459 42.7879 17.7177 43.0718 17.7721 43.3457C17.8265 43.6197 17.9609 43.8713 18.1584 44.0689C18.3558 44.2664 18.6074 44.4009 18.8814 44.4553C19.1553 44.5097 19.4392 44.4816 19.6972 44.3746C19.9552 44.2676 20.1756 44.0865 20.3306 43.8541C20.4856 43.6217 20.5681 43.3486 20.5678 43.0693C20.5669 42.6958 20.4181 42.3378 20.154 42.0736C19.8899 41.8095 19.532 41.6606 19.1584 41.6597V41.6597Z" fill="black"/>
<path d="M24.0491 36.039C24.0052 36.0392 23.9618 36.0305 23.9214 36.0137C23.8605 35.9884 23.8084 35.9457 23.7718 35.8909C23.7352 35.8361 23.7157 35.7716 23.7157 35.7057V29.6197C22.8808 29.5357 22.1068 29.1449 21.5436 28.5229C20.9804 27.901 20.668 27.0921 20.6671 26.253V15.188C20.668 14.291 21.0248 13.431 21.6591 12.7967C22.2934 12.1624 23.1534 11.8057 24.0504 11.8047H41.2947C42.1917 11.8057 43.0517 12.1624 43.6859 12.7967C44.3202 13.431 44.6768 14.291 44.6777 15.188V26.253C44.6765 27.15 44.3195 28.0098 43.685 28.6438C43.0505 29.2778 42.1904 29.6342 41.2934 29.6347H30.5904L24.2847 35.9413C24.2222 36.0039 24.1375 36.039 24.0491 36.039Z" fill="#FEDD15"/>
<path d="M39.1149 23.2487H26.2259C26.1375 23.2487 26.0527 23.2136 25.9902 23.1511C25.9277 23.0886 25.8926 23.0038 25.8926 22.9154C25.8926 22.827 25.9277 22.7422 25.9902 22.6797C26.0527 22.6172 26.1375 22.582 26.2259 22.582H39.1149C39.2033 22.582 39.2881 22.6172 39.3506 22.6797C39.4131 22.7422 39.4482 22.827 39.4482 22.9154C39.4482 23.0038 39.4131 23.0886 39.3506 23.1511C39.2881 23.2136 39.2033 23.2487 39.1149 23.2487Z" fill="black"/>
<path d="M41.9059 18.8034H23.4349C23.3465 18.8034 23.2617 18.7683 23.1992 18.7058C23.1367 18.6432 23.1016 18.5585 23.1016 18.4701C23.1016 18.3816 23.1367 18.2969 23.1992 18.2344C23.2617 18.1718 23.3465 18.1367 23.4349 18.1367H41.9059C41.9943 18.1367 42.0791 18.1718 42.1416 18.2344C42.2041 18.2969 42.2392 18.3816 42.2392 18.4701C42.2392 18.5585 42.2041 18.6432 42.1416 18.7058C42.0791 18.7683 41.9943 18.8034 41.9059 18.8034Z" fill="black"/>
</svg>
