<svg width="180" height="22" viewBox="0 0 180 22" fill="none" xmlns="http://www.w3.org/2000/svg">
<path d="M47.2367 17.5711C47.2367 18.1974 47.0973 18.6948 46.8183 19.0658C46.5394 19.4369 46.1552 19.6211 45.6657 19.6211C45.1946 19.6211 44.8262 19.45 44.5631 19.1106L44.5183 19.5474H43.6973V13.8237H44.6025V15.9027C44.8631 15.5948 45.2157 15.4395 45.6578 15.4395C46.1499 15.4395 46.5367 15.6211 46.8157 15.9869C47.0973 16.3527 47.2367 16.8632 47.2367 17.5185V17.5711ZM46.3315 17.4922C46.3315 17.0553 46.2552 16.7264 46.0999 16.5079C45.9473 16.2895 45.7236 16.179 45.4288 16.179C45.0367 16.179 44.7604 16.35 44.6025 16.6948V18.3553C44.7631 18.7053 45.042 18.8816 45.4367 18.8816C45.7209 18.8816 45.9394 18.7764 46.092 18.5658C46.2446 18.3553 46.3262 18.0369 46.3315 17.6079V17.4922Z" fill="#878E9B"/>
<path d="M49.37 18.2503L50.191 15.5161H51.1568L49.5542 20.1582C49.3094 20.8372 48.891 21.1766 48.3015 21.1766C48.17 21.1766 48.0252 21.1556 47.8647 21.1082V20.4056L48.0358 20.4161C48.2647 20.4161 48.4357 20.374 48.5515 20.2924C48.6673 20.2082 48.7594 20.0687 48.8252 19.874L48.9568 19.5266L47.541 15.5161H48.5173L49.37 18.2503Z" fill="#878E9B"/>
<path d="M56.7163 18.2818H54.6137L54.1742 19.545H53.1953L55.2453 14.1187H56.09L58.1427 19.545H57.1585L56.7163 18.2818ZM54.8795 17.5213H56.4532L55.6664 15.2713L54.8795 17.5213Z" fill="#878E9B"/>
<path d="M59.339 15.5131L59.3653 15.9789C59.6626 15.6184 60.0547 15.4395 60.539 15.4395C61.3784 15.4395 61.8048 15.921 61.8205 16.8816V19.5447H60.9153V16.9316C60.9153 16.6763 60.86 16.4868 60.7495 16.3631C60.639 16.2395 60.4574 16.1789 60.2074 16.1789C59.8416 16.1789 59.5705 16.3447 59.3916 16.6737V19.5421H58.4863V15.5105H59.339V15.5131Z" fill="#878E9B"/>
<path d="M62.582 17.5002C62.582 16.8792 62.7268 16.3792 63.0136 16.0029C63.3005 15.6266 63.6873 15.4371 64.1715 15.4371C64.5978 15.4371 64.9452 15.5871 65.2084 15.8844V13.8213H66.1136V19.545H65.2926L65.2478 19.1266C64.9768 19.4555 64.6162 19.6187 64.1636 19.6187C63.6926 19.6187 63.3083 19.4292 63.0189 19.0476C62.7294 18.6713 62.582 18.1529 62.582 17.5002ZM63.4873 17.5792C63.4873 17.9897 63.5662 18.3081 63.7241 18.5397C63.882 18.7713 64.1057 18.8844 64.3978 18.8844C64.7689 18.8844 65.0399 18.7187 65.211 18.3897V16.6687C65.0452 16.345 64.7768 16.1844 64.4057 16.1844C64.1136 16.1844 63.8873 16.3002 63.7268 16.5318C63.5662 16.7634 63.4873 17.1108 63.4873 17.5792Z" fill="#878E9B"/>
<path d="M68.843 19.621C68.2693 19.621 67.8035 19.4395 67.4483 19.0789C67.093 18.7184 66.9141 18.2368 66.9141 17.6342V17.521C66.9141 17.1184 66.9904 16.7579 67.1456 16.4421C67.3009 16.1263 67.5193 15.8789 67.7983 15.7026C68.0799 15.5263 68.393 15.4395 68.7378 15.4395C69.2878 15.4395 69.7114 15.6158 70.0114 15.9658C70.3114 16.3158 70.4614 16.8105 70.4614 17.4526V17.8184H67.8272C67.8535 18.15 67.9667 18.4158 68.1614 18.6079C68.3562 18.8 68.6009 18.8973 68.8983 18.8973C69.3141 18.8973 69.6509 18.7289 69.9114 18.3947L70.3983 18.8605C70.2378 19.1026 70.022 19.2895 69.7509 19.421C69.4799 19.5526 69.1799 19.621 68.843 19.621ZM68.7351 16.1658C68.4878 16.1658 68.2851 16.2526 68.1325 16.4263C67.9799 16.6 67.8825 16.8421 67.8404 17.1526H69.5667V17.0868C69.5457 16.7842 69.4667 16.5552 69.3246 16.4C69.1825 16.2447 68.9878 16.1658 68.7351 16.1658Z" fill="#878E9B"/>
<path d="M73.2811 16.3421C73.1627 16.321 73.039 16.3131 72.9127 16.3131C72.4969 16.3131 72.218 16.471 72.0732 16.7895V19.5473H71.168V15.5158H72.0338L72.0548 15.9658C72.2732 15.6158 72.5759 15.4395 72.9653 15.4395C73.0943 15.4395 73.2022 15.4579 73.2864 15.4921L73.2811 16.3421Z" fill="#878E9B"/>
<path d="M76.1205 18.45C76.1205 18.2895 76.0547 18.1658 75.9205 18.0816C75.7889 17.9973 75.5679 17.9237 75.26 17.8579C74.9521 17.7921 74.6942 17.7105 74.4889 17.6105C74.0363 17.3921 73.81 17.0763 73.81 16.6605C73.81 16.3131 73.9574 16.021 74.2495 15.7895C74.5416 15.5552 74.9153 15.4395 75.3679 15.4395C75.8495 15.4395 76.2389 15.5579 76.5363 15.7973C76.8337 16.0368 76.9811 16.3447 76.9811 16.7263H76.0758C76.0758 16.5526 76.01 16.4079 75.8811 16.2921C75.7521 16.1763 75.5811 16.1184 75.3653 16.1184C75.1679 16.1184 75.0047 16.1631 74.8784 16.2552C74.7521 16.3473 74.6916 16.471 74.6916 16.6237C74.6916 16.7631 74.7495 16.871 74.8679 16.9473C74.9837 17.0237 75.2205 17.1026 75.5758 17.1789C75.931 17.2579 76.21 17.35 76.4126 17.4579C76.6153 17.5658 76.7653 17.6947 76.8626 17.8474C76.96 18 77.01 18.1842 77.01 18.4C77.01 18.7631 76.86 19.0579 76.56 19.2816C76.26 19.5052 75.8653 19.6184 75.3784 19.6184C75.0468 19.6184 74.7547 19.5579 74.4942 19.4395C74.2363 19.321 74.0337 19.1552 73.8916 18.9473C73.7468 18.7395 73.6758 18.5131 73.6758 18.2737H74.5547C74.5679 18.4868 74.6468 18.6526 74.7968 18.7684C74.9468 18.8842 75.1442 18.9421 75.3889 18.9421C75.6284 18.9421 75.8074 18.8973 75.9337 18.8052C76.0574 18.7158 76.1205 18.5973 76.1205 18.45Z" fill="#878E9B"/>
<path d="M79.5813 19.621C79.0076 19.621 78.5418 19.4395 78.1866 19.0789C77.8313 18.7184 77.6523 18.2368 77.6523 17.6342V17.521C77.6523 17.1184 77.7287 16.7579 77.8839 16.4421C78.0392 16.1263 78.2576 15.8789 78.5366 15.7026C78.8181 15.5263 79.1313 15.4395 79.476 15.4395C80.026 15.4395 80.4497 15.6158 80.7497 15.9658C81.0497 16.3158 81.1997 16.8105 81.1997 17.4526V17.8184H78.5655C78.5918 18.15 78.705 18.4158 78.8997 18.6079C79.0945 18.8 79.3392 18.8973 79.6366 18.8973C80.0523 18.8973 80.3892 18.7289 80.6497 18.3947L81.1366 18.8605C80.976 19.1026 80.7602 19.2895 80.4892 19.421C80.2181 19.5526 79.9181 19.621 79.5813 19.621ZM79.4734 16.1658C79.226 16.1658 79.0234 16.2526 78.8708 16.4263C78.7181 16.6 78.6208 16.8421 78.5787 17.1526H80.305V17.0868C80.2839 16.7842 80.205 16.5552 80.0629 16.4C79.9208 16.2447 79.726 16.1658 79.4734 16.1658Z" fill="#878E9B"/>
<path d="M82.7491 15.5131L82.7754 15.9789C83.0728 15.6184 83.4649 15.4395 83.9491 15.4395C84.7886 15.4395 85.2149 15.921 85.2307 16.8816V19.5447H84.3254V16.9316C84.3254 16.6763 84.2702 16.4868 84.1596 16.3631C84.0491 16.2395 83.8675 16.1789 83.6175 16.1789C83.2517 16.1789 82.9807 16.3447 82.8017 16.6737V19.5421H81.8965V15.5105H82.7491V15.5131Z" fill="#878E9B"/>
<path d="M87.126 19.545H86.2207V13.8213H87.126V19.545Z" fill="#878E9B"/>
<path d="M90.5258 19.5449C90.4863 19.4686 90.4521 19.3423 90.4205 19.1686C90.1311 19.4686 89.7784 19.6186 89.3626 19.6186C88.9574 19.6186 88.6284 19.5028 88.3705 19.2712C88.1153 19.0396 87.9863 18.7554 87.9863 18.4133C87.9863 17.9844 88.1469 17.6528 88.4653 17.4239C88.7837 17.1949 89.2416 17.0791 89.8337 17.0791H90.389V16.8133C90.389 16.6054 90.3311 16.437 90.2126 16.3133C90.0942 16.1896 89.9179 16.1265 89.6784 16.1265C89.4732 16.1265 89.3048 16.1791 89.1705 16.2817C89.039 16.3844 88.9732 16.516 88.9732 16.6739H88.0679C88.0679 16.4528 88.1416 16.2449 88.289 16.0528C88.4363 15.8607 88.6337 15.7081 88.8863 15.6002C89.139 15.4923 89.4205 15.437 89.7311 15.437C90.2021 15.437 90.5784 15.5554 90.86 15.7923C91.1416 16.0291 91.2837 16.3633 91.2916 16.7923V18.6107C91.2916 18.9739 91.3416 19.2633 91.4442 19.4791V19.5423H90.5258V19.5449ZM89.5311 18.8923C89.71 18.8923 89.8784 18.8475 90.0363 18.7607C90.1942 18.6739 90.3126 18.5581 90.3916 18.4107V17.6502H89.9021C89.5679 17.6502 89.3153 17.7081 89.1442 17.8265C88.9758 17.9423 88.8916 18.1081 88.8916 18.3212C88.8916 18.4949 88.9495 18.6344 89.0653 18.737C89.1837 18.8423 89.339 18.8923 89.5311 18.8923Z" fill="#878E9B"/>
<path d="M95.7914 17.5711C95.7914 18.1974 95.652 18.6948 95.373 19.0658C95.0941 19.4369 94.7099 19.6211 94.2204 19.6211C93.7493 19.6211 93.3809 19.45 93.1177 19.1106L93.073 19.5474H92.252V13.8237H93.1572V15.9027C93.4177 15.5948 93.7704 15.4395 94.2125 15.4395C94.7046 15.4395 95.0914 15.6211 95.3704 15.9869C95.652 16.3527 95.7914 16.8632 95.7914 17.5185V17.5711ZM94.8862 17.4922C94.8862 17.0553 94.8099 16.7264 94.6546 16.5079C94.502 16.2895 94.2783 16.179 93.9835 16.179C93.5914 16.179 93.3151 16.35 93.1572 16.6948V18.3553C93.3177 18.7053 93.5967 18.8816 93.9914 18.8816C94.2756 18.8816 94.4941 18.7764 94.6467 18.5658C94.7993 18.3553 94.8809 18.0369 94.8862 17.6079V17.4922Z" fill="#878E9B"/>
<path d="M27.4095 7.31047H21.9727V0.74468C21.9727 0.620996 22.0727 0.520996 22.1963 0.520996H27.1858C27.3095 0.520996 27.4095 0.620996 27.4095 0.74468V7.31047Z" fill="#878E9B"/>
<path d="M16.3239 5.95784H5.66602V0.520996H16.3239C16.4476 0.520996 16.5476 0.620996 16.5476 0.74468V5.73415C16.5476 5.85784 16.4476 5.95784 16.3239 5.95784Z" fill="#878E9B"/>
<path d="M16.3134 19.5448H5.66602V14.1079H16.3134C16.4371 14.1079 16.5371 14.2079 16.5371 14.3316V19.3211C16.5371 19.4448 16.4371 19.5448 16.3134 19.5448Z" fill="#878E9B"/>
<path d="M38.0608 5.95784H33.0713C32.9477 5.95784 32.8477 5.85784 32.8477 5.73415V0.74468C32.8477 0.620996 32.9477 0.520996 33.0713 0.520996H38.0608C38.1845 0.520996 38.2845 0.620996 38.2845 0.74468V5.73415C38.2845 5.85784 38.1845 5.95784 38.0608 5.95784Z" fill="#363B43"/>
<path d="M38.0608 19.5447H33.0713C32.9477 19.5447 32.8477 19.4447 32.8477 19.3211V12.75H38.2845V19.3211C38.2845 19.4447 38.1845 19.5447 38.0608 19.5447Z" fill="#878E9B"/>
<path d="M5.66602 7.31592H38.0608C38.1844 7.31592 38.2844 7.41592 38.2844 7.5396V12.7528H5.66602V7.31592Z" fill="#FFDB00"/>
<path d="M27.1858 19.5448H22.1963C22.0727 19.5448 21.9727 19.4448 21.9727 19.3211V14.3316C21.9727 14.2079 22.0727 14.1079 22.1963 14.1079H27.1858C27.3095 14.1079 27.4095 14.2079 27.4095 14.3316V19.3211C27.4095 19.4448 27.3095 19.5448 27.1858 19.5448Z" fill="#363B43"/>
<path d="M5.66536 19.5447H0.452199C0.328515 19.5447 0.228516 19.4447 0.228516 19.321V0.74468C0.228516 0.620996 0.328515 0.520996 0.452199 0.520996H5.66536V19.5447Z" fill="#363B43"/>
<path d="M65.6326 0.750051V11.1843C65.6326 11.3079 65.5326 11.4079 65.4089 11.4079H62.722C62.6562 11.4079 62.5931 11.379 62.551 11.329L58.4826 6.46584V11.1843C58.4826 11.3079 58.3826 11.4079 58.2589 11.4079H55.1299C55.0062 11.4079 54.9062 11.3079 54.9062 11.1843V0.750051C54.9062 0.626367 55.0062 0.526367 55.1299 0.526367H57.8168C57.8826 0.526367 57.9457 0.555315 57.9878 0.605315L62.0562 5.46847V0.750051C62.0562 0.626367 62.1562 0.526367 62.2799 0.526367H65.4089C65.5326 0.526367 65.6326 0.626367 65.6326 0.750051Z" fill="#363B43"/>
<path d="M98.074 5.6711H100.813C100.937 5.6711 101.037 5.7711 101.037 5.89479V10.1501C101.037 10.2264 101 10.2974 100.937 10.3395C100.316 10.7527 99.603 11.0711 98.7977 11.2974C97.9477 11.5369 97.1135 11.6553 96.2951 11.6553C95.1345 11.6553 94.0924 11.4132 93.1714 10.9316C92.2477 10.4501 91.5266 9.77637 91.003 8.91058C90.4793 8.04479 90.2188 7.06321 90.2188 5.96584C90.2188 4.86847 90.4793 3.88426 91.003 3.0211C91.5266 2.15531 92.2582 1.48163 93.1951 1.00005C94.1345 0.518472 95.1924 0.276367 96.374 0.276367C97.4424 0.276367 98.3977 0.455313 99.2424 0.813208C100.016 1.13952 100.669 1.60531 101.206 2.20531C101.287 2.29742 101.277 2.43952 101.185 2.5211L99.1687 4.29742C99.0766 4.379 98.9398 4.36847 98.8556 4.279C98.203 3.58952 97.4398 3.24742 96.5635 3.24742C95.7556 3.24742 95.1135 3.48953 94.6372 3.979C94.1609 4.46584 93.9214 5.129 93.9214 5.96847C93.9214 6.78689 94.1582 7.44479 94.6293 7.94216C95.1003 8.43952 95.7293 8.68952 96.5187 8.68952C96.9845 8.68952 97.4319 8.60268 97.8556 8.42637V5.90005C97.8503 5.7711 97.9503 5.6711 98.074 5.6711Z" fill="#363B43"/>
<path d="M126.159 0.53418H129.38C129.504 0.53418 129.604 0.634179 129.604 0.757863V11.1921C129.604 11.3158 129.504 11.4158 129.38 11.4158H126.159C126.036 11.4158 125.936 11.3158 125.936 11.1921V0.757863C125.936 0.634179 126.036 0.53418 126.159 0.53418Z" fill="#363B43"/>
<path d="M133.988 10.9424C133.064 10.4608 132.343 9.78711 131.819 8.92132C131.296 8.05553 131.035 7.07395 131.035 5.97658C131.035 4.87921 131.296 3.895 131.819 3.03185C132.343 2.16606 133.067 1.49237 133.988 1.01079C134.909 0.529215 135.946 0.287109 137.096 0.287109C138.154 0.287109 139.096 0.473953 139.925 0.847637C140.688 1.18974 141.327 1.67395 141.843 2.29764C141.919 2.38974 141.906 2.52922 141.817 2.60816L139.833 4.37922C139.738 4.46343 139.596 4.45027 139.511 4.35553C138.872 3.62395 138.127 3.25816 137.28 3.25816C136.514 3.25816 135.896 3.50553 135.43 3.99764C134.964 4.48974 134.73 5.15027 134.73 5.97922C134.73 6.80816 134.964 7.46869 135.43 7.96079C135.896 8.4529 136.514 8.70027 137.28 8.70027C138.127 8.70027 138.869 8.33448 139.511 7.6029C139.596 7.50816 139.738 7.49501 139.833 7.57922L141.817 9.35027C141.906 9.42921 141.919 9.56869 141.843 9.66079C141.327 10.2845 140.685 10.7661 139.925 11.1108C139.096 11.4845 138.154 11.6713 137.096 11.6713C135.946 11.6661 134.909 11.424 133.988 10.9424Z" fill="#363B43"/>
<path d="M112.266 3.01058V0.750051C112.266 0.626367 112.166 0.526367 112.042 0.526367H103.442C103.319 0.526367 103.219 0.626367 103.219 0.750051V11.1843C103.219 11.3079 103.319 11.4079 103.442 11.4079H112.042C112.166 11.4079 112.266 11.3079 112.266 11.1843V8.94479C112.266 8.8211 112.166 8.7211 112.042 8.7211H106.827V7.28163H111.203C111.327 7.28163 111.427 7.18163 111.427 7.05795V4.86321C111.427 4.73953 111.327 4.63952 111.203 4.63952H106.827V3.23426H112.042C112.166 3.23426 112.266 3.13426 112.266 3.01058Z" fill="#363B43"/>
<path d="M76.8423 3.01058V0.750051C76.8423 0.626367 76.7423 0.526367 76.6186 0.526367H68.0186C67.8949 0.526367 67.7949 0.626367 67.7949 0.750051V11.1843C67.7949 11.3079 67.8949 11.4079 68.0186 11.4079H76.6186C76.7423 11.4079 76.8423 11.3079 76.8423 11.1843V8.94479C76.8423 8.8211 76.7423 8.7211 76.6186 8.7211H71.4028V7.28163H75.7791C75.9028 7.28163 76.0028 7.18163 76.0028 7.05795V4.86321C76.0028 4.73953 75.9028 4.63952 75.7791 4.63952H71.4028V3.23426H76.6186C76.7423 3.23426 76.8423 3.13426 76.8423 3.01058Z" fill="#363B43"/>
<path d="M52.7661 3.01058V0.750051C52.7661 0.626367 52.6661 0.526367 52.5424 0.526367H43.9424C43.8188 0.526367 43.7188 0.626367 43.7188 0.750051V11.1843C43.7188 11.3079 43.8188 11.4079 43.9424 11.4079H52.5424C52.6661 11.4079 52.7661 11.3079 52.7661 11.1843V8.94479C52.7661 8.8211 52.6661 8.7211 52.5424 8.7211H47.3266V7.28163H51.703C51.8266 7.28163 51.9266 7.18163 51.9266 7.05795V4.86321C51.9266 4.73953 51.8266 4.63952 51.703 4.63952H47.3266V3.23426H52.5424C52.6661 3.23426 52.7661 3.13426 52.7661 3.01058Z" fill="#363B43"/>
<path d="M123.877 0.515625H114.282C114.159 0.515625 114.059 0.615625 114.059 0.739309V3.00773C114.059 3.13142 114.159 3.23141 114.282 3.23141H117.245V11.1735C117.245 11.2972 117.345 11.3972 117.469 11.3972H120.69C120.814 11.3972 120.914 11.2972 120.914 11.1735V3.23405H123.877C124.001 3.23405 124.101 3.13405 124.101 3.01036V0.741941C124.101 0.615625 124.001 0.515625 123.877 0.515625Z" fill="#363B43"/>
<path d="M89.1601 11.0422L87.1233 8.05005C87.7864 7.70795 88.2943 7.24742 88.6469 6.66584C88.9996 6.08689 89.1759 5.40795 89.1759 4.629C89.1759 3.80005 88.9733 3.07374 88.5706 2.45268C88.1654 1.83163 87.5917 1.35531 86.8443 1.02374C86.0969 0.692157 85.2206 0.526367 84.218 0.526367H79.2127C79.0838 0.526367 78.9785 0.63163 78.9785 0.760578V11.1764C78.9785 11.3053 79.0838 11.4106 79.2127 11.4106H82.4154C82.5443 11.4106 82.6496 11.3053 82.6496 11.1764V8.72374H83.6443L85.4259 11.3079C85.468 11.3711 85.5417 11.4106 85.618 11.4106H88.9706C89.1548 11.4079 89.2654 11.1974 89.1601 11.0422ZM85.0759 5.60795C84.8075 5.84742 84.4075 5.96584 83.8733 5.96584H82.6443V3.229H83.8733C84.4075 3.229 84.8075 3.35005 85.0759 3.58689C85.3417 3.82637 85.4759 4.16321 85.4759 4.59479C85.4759 5.03163 85.3417 5.36847 85.0759 5.60795Z" fill="#363B43"/>
<path d="M157.793 10.3131C156.861 9.4105 156.393 8.14734 156.393 6.52102V0.757864C156.393 0.634179 156.493 0.53418 156.616 0.53418H159.837C159.961 0.53418 160.061 0.634179 160.061 0.757864V6.4105C160.061 7.20786 160.203 7.78944 160.49 8.1526C160.774 8.51576 161.187 8.69734 161.727 8.69734C162.266 8.69734 162.677 8.51576 162.964 8.1526C163.248 7.78944 163.393 7.2105 163.393 6.4105V0.757864C163.393 0.634179 163.493 0.53418 163.616 0.53418H166.774C166.898 0.53418 166.998 0.634179 166.998 0.757864V6.51839C166.998 8.14471 166.532 9.4105 165.598 10.3105C164.666 11.2105 163.364 11.6631 161.695 11.6631C160.027 11.6631 158.727 11.2131 157.793 10.3131Z" fill="#878E9B"/>
<path d="M179.235 6.7682C179.588 7.22346 179.764 7.77346 179.764 8.41557C179.764 9.3682 179.369 10.1077 178.583 10.6314C177.796 11.155 176.656 11.4156 175.161 11.4156H169.259C169.135 11.4156 169.035 11.3156 169.035 11.1919V0.760305C169.035 0.636621 169.135 0.536621 169.259 0.536621H174.848C176.298 0.536621 177.396 0.797147 178.135 1.31557C178.875 1.83399 179.246 2.52346 179.246 3.38399C179.246 3.89188 179.119 4.34715 178.864 4.75241C178.609 5.15767 178.235 5.48399 177.738 5.73136C178.385 5.96557 178.883 6.31294 179.235 6.7682ZM172.643 3.09978V4.71557H174.354C175.151 4.71557 175.551 4.44715 175.551 3.90767C175.551 3.3682 175.151 3.09978 174.354 3.09978H172.643ZM176.064 7.99715C176.064 7.42873 175.659 7.14188 174.851 7.14188H172.643V8.85241H174.851C175.659 8.85241 176.064 8.5682 176.064 7.99715Z" fill="#878E9B"/>
<path d="M150.685 0.757863V4.46313H147.295V0.757863C147.295 0.634179 147.195 0.53418 147.072 0.53418H143.851C143.727 0.53418 143.627 0.634179 143.627 0.757863V11.1921C143.627 11.3158 143.727 11.4158 143.851 11.4158H147.072C147.195 11.4158 147.295 11.3158 147.295 11.1921V7.47365H150.685V11.1921C150.685 11.3158 150.785 11.4158 150.909 11.4158H154.13C154.253 11.4158 154.353 11.3158 154.353 11.1921V0.757863C154.353 0.634179 154.253 0.53418 154.13 0.53418H150.909C150.785 0.53418 150.685 0.634179 150.685 0.757863Z" fill="#878E9B"/>
</svg>
