<svg width="140" height="64" viewBox="0 0 140 64" fill="none" xmlns="http://www.w3.org/2000/svg">
<path d="M35.8754 38.9454L32.1228 34.1089H30.7112V38.9454H26.4079V26.2158H32.8112C37.4932 26.2158 40.4887 27.5432 40.4887 30.1803C40.4887 31.9625 38.7671 33.0707 36.4265 33.6525L40.5575 38.9448L35.8754 38.9454ZM32.6049 28.434H30.7112V31.9806H32.8455C35.0493 31.9806 36.1847 31.3797 36.1847 30.2162C36.1851 29.071 35.1873 28.434 32.6049 28.434ZM51.2687 34.1435V38.9442H46.9654V34.18L40.7679 26.2147H45.5195L47.3784 28.797C48.1706 29.9056 48.9628 31.1614 49.1692 31.7614C49.4098 31.1614 50.2019 29.8514 50.9594 28.797L52.8183 26.2147H57.5004L51.2687 34.1435ZM67.5392 38.9454L66.4039 36.2908H60.9995L59.8638 38.9454H55.457L61.6193 26.2158H65.8197L71.9811 38.9454H67.5392ZM64.8211 32.6539C64.4076 31.6717 63.8573 30.1979 63.6853 29.5626C63.5125 30.2166 63.0312 31.5806 62.5835 32.6168L61.9294 34.1638H65.4752L64.8211 32.6539ZM83.689 38.9454L79.2484 33.2719C78.6282 32.4718 77.8707 31.4346 77.4238 30.6899C77.458 31.4725 77.4921 32.7812 77.4921 33.5808V38.9454H73.567V26.2169H77.9051L82.1398 31.8003C82.7253 32.5629 83.5862 33.746 84.033 34.4554C83.9988 33.6727 83.8958 32.291 83.8958 31.49V26.217H87.8204V38.9454H83.689ZM101.714 38.9454L100.577 36.2908H95.1718L94.0361 38.9454H89.6293L95.7912 26.2158H99.992L106.154 38.9454H101.714ZM98.9935 32.6539C98.5805 31.6717 98.0302 30.1979 97.8573 29.5626C97.6849 30.2166 97.2032 31.5806 96.7554 32.6168L96.1013 34.1638H99.6481L98.9935 32.6539ZM107.842 26.2136H112.145V38.9432H107.842V26.2136ZM125.319 38.9454L121.566 34.1089H120.155V38.9454H115.851V26.2158H122.254C126.936 26.2158 129.931 27.5432 129.931 30.1803C129.931 31.9625 128.211 33.0707 125.87 33.6525L130 38.9448L125.319 38.9454ZM122.048 28.434H120.155V31.9806H122.289C124.492 31.9806 125.628 31.3797 125.628 30.2162C125.628 29.071 124.63 28.434 122.048 28.434Z" fill="#2B4779"/>
<path d="M19.3622 25.7617C20.254 26.0609 21.1975 26.2902 22.1595 26.4L22.8306 26.4066L22.8513 26.3879C23.2525 26.3989 23.549 26.222 23.9392 26.1356C23.9812 26.1256 24.082 26.1002 24.1248 26.1577C24.1443 26.2326 24.1138 26.3139 24.0294 26.3696C23.5516 26.7369 22.9817 27.0101 22.4446 27.2067V27.1957C22.2683 27.2297 22.0798 27.306 21.8968 27.3664C21.2351 27.5677 20.4818 27.694 19.7701 27.6425C18.4069 27.5723 17.2482 27.0829 16.0446 27.1408C14.8627 27.0714 13.7387 27.5251 13.1096 28.4205C12.7868 28.889 12.53 29.3831 12.45 29.9265C12.4856 30.4185 13.1731 30.6074 13.4307 31.0143C13.5785 31.2603 13.6519 31.5313 13.7633 31.7867C14.0488 32.3012 14.3318 32.8153 14.6826 33.2995L14.6738 33.3094C14.8793 33.6333 15.2067 33.9138 15.5939 34.104C16.0959 34.4644 16.5391 34.9164 16.8026 35.402L16.7889 35.4097C17.0854 35.8846 17.2519 36.377 17.4815 36.8723C17.5845 37.1762 17.698 37.4434 17.7861 37.7392C17.8163 37.7669 17.8163 37.8115 17.8339 37.8503C17.9151 38.0844 17.9843 38.3337 18.0835 38.5508C18.0407 38.5835 18.1169 38.596 18.1076 38.6278C18.1131 38.7593 18.2407 38.9563 18.0703 39.0444C17.8225 38.8244 17.6924 38.5018 17.5585 38.2673C17.2658 37.7545 16.9307 37.2588 16.5697 36.771L16.5807 36.7611C16.3591 36.4815 16.1143 36.1665 15.8609 35.8772C14.793 34.6894 13.2234 33.9762 12.0761 32.8454L12.0652 32.8553C11.9674 32.7672 11.9046 32.6506 11.8254 32.5502L11.833 32.5392C11.6932 32.3426 11.6102 32.1183 11.4751 31.917L11.4827 31.9071C11.1277 31.376 10.7863 30.8121 10.5567 30.2534C10.5089 30.0061 10.4245 29.7933 10.4059 29.5086L10.3791 29.4154C10.3939 29.1562 9.7538 29.006 10.1059 28.5089C10.327 28.2694 11.1827 27.974 11.4739 27.5242C11.4804 27.457 11.4959 27.3769 11.4382 27.3161C11.4382 27.2681 11.3885 27.2174 11.3539 27.1676C11.192 26.9654 10.7531 27.1251 10.7603 26.8267C10.8053 26.8245 10.7625 26.7849 10.7921 26.7679C10.7676 26.6206 10.7574 26.5232 10.7987 26.3989C10.8873 26.1542 10.9737 25.8725 10.9563 25.6257C10.9742 25.5329 11.0665 25.4776 11.1597 25.4414C11.3419 25.3955 11.5011 25.3708 11.6799 25.3469L11.7024 25.3652C12.1154 25.3311 12.6115 25.3607 12.8856 25.6869C13.0041 25.9342 12.9115 26.2274 12.8449 26.4763C12.8242 26.6198 12.6678 26.7368 12.7043 26.8879C12.7585 26.9436 12.8725 26.9402 12.9449 26.9092C13.5685 26.5296 14.1129 26.0028 14.567 25.4708C14.9856 25.0771 15.602 24.941 16.1689 25.0227C17.3173 25.1117 18.2879 25.4985 19.3585 25.7611L19.3622 25.7617Z" fill="#F1C932"/>
<path d="M16.4015 27.8454C16.5633 28.0616 16.3468 28.2523 16.2824 28.4425C15.6084 29.4592 15.3733 30.6108 14.926 31.6998C14.8925 31.7373 14.8261 31.7487 14.7781 31.7339C14.659 31.6484 14.659 31.5074 14.6727 31.384C14.7625 30.2035 15.073 29.0958 15.5733 28.0404C15.6902 27.8714 15.8897 27.68 16.1469 27.72C16.2439 27.7403 16.3307 27.7744 16.4015 27.8455V27.8454ZM18.1777 28.1538C18.2637 28.542 17.9866 28.8603 17.8638 29.2075C17.208 30.5226 16.4208 31.8094 16.0319 33.2151C16.0137 33.2598 15.9877 33.3203 15.9357 33.3398C15.8803 33.3551 15.8337 33.3274 15.8193 33.2879C15.688 32.7292 15.8391 32.1478 15.9819 31.6167C16.3556 30.4366 16.8076 29.2293 17.4397 28.1318C17.513 28.0756 17.5244 28.028 17.6159 28.002C17.8358 27.9789 18.0561 27.9954 18.1777 28.1539V28.1538ZM20.0744 28.2199C20.2511 28.3536 20.1599 28.6063 20.0905 28.763C19.322 30.4725 18.0773 31.9465 17.5622 33.7395C17.4199 34.1195 17.3276 34.5123 17.2094 34.8953C17.1885 34.9642 17.0882 34.9663 17.0166 34.9493C16.9483 34.7868 16.9684 34.5804 16.9684 34.4046C17.1306 32.964 17.4734 31.5644 18.1741 30.3103C18.4926 29.6838 18.8006 29.1203 19.1348 28.5089C19.2292 28.3361 19.3874 28.1795 19.617 28.1229C19.786 28.113 19.9487 28.1526 20.0745 28.2199L20.0744 28.2199ZM22.1795 28.308C22.3027 28.5153 22.1839 28.7434 22.1278 28.9417C21.639 30.3154 20.7248 31.4525 19.9905 32.7041C19.3618 33.7323 18.9505 34.874 18.5319 35.9904C18.387 36.3257 18.3349 36.6981 18.1591 37.0168C18.1447 37.0511 18.0998 37.0306 18.069 37.0394C17.961 36.9478 17.9749 36.8172 17.9495 36.7014C18.0325 35.3039 18.5688 34.0412 19.0725 32.7799C19.7029 31.3735 20.548 30.0304 21.1225 28.5762C21.2025 28.3928 21.3606 28.1681 21.6046 28.0992C21.849 28.0622 22.0342 28.1507 22.1795 28.3081V28.308Z" fill="#F1C932"/>
</svg>
