<svg width="140" height="64" viewBox="0 0 140 64" fill="none" xmlns="http://www.w3.org/2000/svg">
<path fill-rule="evenodd" clip-rule="evenodd" d="M12.358 40.2267V36.6326C14.3438 37.2765 16.1009 37.5984 17.6295 37.5984C19.7399 37.5984 20.7952 37.0237 20.7952 35.8753C20.7952 35.4471 20.6417 35.0873 20.3338 34.796C20.019 34.4869 19.2126 34.0586 17.9169 33.5097C15.5921 32.5249 14.0761 31.6851 13.3709 30.9905C12.4569 30.0736 12 28.9173 12 27.52C12 25.7207 12.6658 24.3492 13.9966 23.4067C15.3126 22.4725 17.0263 22.0059 19.1403 22.0059C20.305 22.0059 21.9908 22.2267 24.1959 22.6689V26.1264C22.5552 25.4512 21.0322 25.1143 19.6251 25.1143C17.6437 25.1143 16.6531 25.6748 16.6531 26.7982C16.6531 27.2181 16.8526 27.5606 17.2522 27.8261C17.5846 28.0409 18.5003 28.4948 19.9974 29.1891C22.153 30.1753 23.5881 31.0325 24.3031 31.7617C25.1515 32.6266 25.5765 33.7458 25.5765 35.1177C25.5765 37.0895 24.744 38.5936 23.0801 39.63C21.7321 40.4704 19.984 40.8889 17.8371 40.8889C16.024 40.8889 14.1973 40.6689 12.358 40.2267Z" fill="#009999"/>
<path fill-rule="evenodd" clip-rule="evenodd" d="M28.3634 22.3223H33.298V40.5213H28.3634V22.3223Z" fill="#009999"/>
<path fill-rule="evenodd" clip-rule="evenodd" d="M37.8235 40.5213V22.3223H50.4797V25.6139H42.5795V29.7233H49.4562V32.7258H42.5795V37.0445H50.6832V40.5213H37.8235Z" fill="#009999"/>
<path fill-rule="evenodd" clip-rule="evenodd" d="M53.9046 40.5213V22.3223H60.3026L64.7476 33.9506L69.3041 22.3223H75.3812V40.5213H70.7025V27.6359L65.5214 40.706H62.4626L57.3814 27.6359V40.5213H53.9046Z" fill="#009999"/>
<path fill-rule="evenodd" clip-rule="evenodd" d="M79.9078 40.5213V22.3223H92.5637V25.6139H84.6642V29.7233H91.5407V32.7258H84.6642V37.0445H92.7686V40.5213H79.9078Z" fill="#009999"/>
<path fill-rule="evenodd" clip-rule="evenodd" d="M96.0154 40.5213V22.3223H101.735L107.802 34.5051V22.3223H111.278V40.5213H105.721L99.4927 28.1745V40.5213H96.0154Z" fill="#009999"/>
<path fill-rule="evenodd" clip-rule="evenodd" d="M114.781 40.2272V36.6331C116.75 37.277 118.507 37.5989 120.054 37.5989C122.164 37.5989 123.219 37.0242 123.219 35.8757C123.219 35.4476 123.069 35.0878 122.771 34.7965C122.455 34.4874 121.645 34.059 120.342 33.5102C118.024 32.5335 116.506 31.6941 115.795 30.991C114.881 30.0822 114.425 28.9216 114.425 27.5081C114.425 25.7165 115.089 24.3496 116.422 23.4071C117.736 22.4729 119.451 22.0062 121.565 22.0062C122.754 22.0062 124.294 22.2006 126.183 22.5913L126.62 22.6693V26.1267C124.979 25.4516 123.451 25.1147 122.037 25.1147C120.063 25.1147 119.078 25.6751 119.078 26.7985C119.078 27.2184 119.277 27.5609 119.675 27.8264C119.992 28.0331 120.912 28.4871 122.434 29.1894C124.573 30.1756 126.005 31.0329 126.726 31.7621C127.576 32.627 128 33.7462 128 35.118C128 37.0898 127.172 38.5939 125.517 39.6303C124.161 40.4708 122.409 40.8892 120.262 40.8892C118.447 40.8894 116.619 40.6694 114.781 40.2272Z" fill="#009999"/>
</svg>
