<svg width="140" height="64" viewBox="0 0 140 64" fill="none" xmlns="http://www.w3.org/2000/svg">
<path d="M15.7102 32.6217L14.457 32.0075C12.6101 31.1064 11.8585 30.5979 11.8567 29.1796C11.8522 28.8666 11.9132 28.5561 12.0358 28.2681C12.1584 27.98 12.3399 27.7208 12.5686 27.5071C13.0809 27.0564 13.7449 26.8163 14.427 26.8352C15.0303 26.7928 15.6334 26.9207 16.1675 27.2044C16.7016 27.4881 17.1452 27.9162 17.4478 28.4398L17.5322 28.5754L18.307 28.1218L18.2184 27.9788C17.8424 27.3153 17.2867 26.7714 16.6153 26.4096C15.944 26.0478 15.1841 25.8829 14.4232 25.9338C13.975 25.9003 13.5248 25.9591 13.1003 26.1067C12.6759 26.2542 12.2862 26.4873 11.9555 26.7915C11.6247 27.0958 11.36 27.4647 11.1776 27.8754C10.9952 28.2861 10.899 28.7298 10.8951 29.1792C10.8951 31.1531 12.193 31.9384 14.0275 32.8361L15.3 33.4503C17.4422 34.4765 18.1661 35.3457 18.1661 36.8941C18.1793 37.2657 18.1092 37.6357 17.9609 37.9768C17.8126 38.3178 17.5898 38.6214 17.3089 38.8652C16.5939 39.4058 15.7106 39.6758 14.8155 39.6273C14.0108 39.6405 13.2188 39.4267 12.5299 39.0106C11.8411 38.5945 11.2833 37.9928 10.9205 37.2745L10.8419 37.1266L10.0009 37.5954L10.0765 37.7357C10.5188 38.606 11.1994 39.3327 12.039 39.831C12.8785 40.3293 13.8424 40.5787 14.8182 40.5502H14.8219C17.4403 40.5502 19.1317 39.1125 19.1308 36.8941C19.129 35.0024 18.203 33.8434 15.7102 32.6217Z" fill="#1D1D1B"/>
<path d="M31.3087 26.0854L30.1323 26.0882L23.3798 34.6729L23.3742 26.0929H22.3905L22.399 40.3821H23.3827L23.3798 36.1054L25.128 33.9037L30.5547 40.3765L31.8246 40.3746L25.7459 33.1695L31.3087 26.0854Z" fill="#1D1D1B"/>
<path d="M43.6429 26.0777L38.7984 34.8971L33.9625 26.0842H32.8907L38.3061 35.9381L38.3088 40.3692H39.2925V40.205C39.2925 40.205 39.2907 36.3755 39.2907 35.9362L44.694 26.0767L43.6429 26.0777Z" fill="#1D1D1B"/>
<path d="M95.5817 37.0957C94.9881 37.8792 94.2187 38.5122 93.3355 38.9437C92.4523 39.3752 91.48 39.5931 90.4971 39.5798C89.659 39.5931 88.8268 39.4366 88.0508 39.1196C87.2748 38.8026 86.571 38.3317 85.9819 37.7353C85.3928 37.139 84.9306 36.4295 84.6231 35.6497C84.3156 34.8698 84.1692 34.0358 84.1928 33.1979C84.1601 32.3675 84.2961 31.5392 84.5924 30.7629C84.8888 29.9865 85.3394 29.2783 85.917 28.681C86.4947 28.0836 87.1874 27.6095 87.9533 27.2873C88.7193 26.9651 89.5426 26.8014 90.3735 26.8062C91.2922 26.7921 92.2019 26.9881 93.0332 27.3793C93.8646 27.7705 94.5955 28.3465 95.1702 29.0633L95.2707 29.187L96.0237 28.6186L95.9176 28.4863C94.9666 27.3394 93.6828 26.5162 92.2438 26.1303C90.8047 25.7444 89.2813 25.8149 87.884 26.3321C86.4868 26.8492 85.2845 27.7875 84.4435 29.0173C83.6024 30.2471 83.164 31.7078 83.1888 33.1975C83.1694 34.1565 83.3408 35.1099 83.6931 36.0021C84.0454 36.8943 84.5716 37.7075 85.241 38.3946C85.9336 39.0765 86.7549 39.6138 87.6571 39.9753C88.5594 40.3368 89.5245 40.5153 90.4963 40.5003H90.5009C91.6274 40.5131 92.7414 40.2632 93.7545 39.7705C94.7676 39.2778 95.6519 38.5559 96.3375 37.6619L96.4362 37.5308L95.6814 36.9639L95.5817 37.0957Z" fill="#1D1D1B"/>
<path d="M100.189 39.4302L100.185 33.8655L106.818 33.8617V32.9612L100.183 32.965L100.181 26.9449L107.575 26.9402L107.572 26.0387L99.1968 26.0434L99.2053 40.3326L107.87 40.325L107.867 39.4245L100.189 39.4302Z" fill="#1D1D1B"/>
<path d="M112.364 39.421L112.356 26.0352L111.372 26.0362L111.381 40.3235L119.12 40.3197L119.119 39.4173L112.364 39.421Z" fill="#1D1D1B"/>
<path d="M123.245 39.4168L123.237 26.1935L123.236 26.03H122.253L122.263 40.1548V40.3192L130 40.3135V39.4111L123.245 39.4168Z" fill="#1D1D1B"/>
<path d="M70.6518 36.5015L70.6462 26.906L77.9842 26.9018L77.9887 22.4342L62.7417 14L47.5292 22.4545L47.5103 40.9733L62.7573 49.4038L77.9713 40.9493L77.9759 36.4969L70.6518 36.5015ZM70.6268 36.4886L62.7546 40.8643L54.863 36.4996L54.8731 26.9181L62.7463 22.5414L70.6351 26.9051L70.6268 36.4886Z" fill="#62C6E9"/>
<path d="M80.2451 26.903H70.6473V36.4986H80.2451V26.903Z" fill="#E63329"/>
<path d="M78.8744 32.871L78.8716 30.5276L76.617 30.5285L76.616 28.2739L74.2735 28.2749L74.2754 30.5304L72.0199 30.5314L72.0208 32.8748L74.2754 32.8729L74.2764 35.1284L76.6207 35.1265L76.6189 32.8729L78.8744 32.871Z" fill="white"/>
</svg>
