<svg width="10" height="420" viewBox="0 0 10 420" fill="none" xmlns="http://www.w3.org/2000/svg">
<path d="M6 5C6 4.44772 5.55228 4 5 4C4.44772 4 4 4.44772 4 5H6ZM4 5.49342C4 6.04571 4.44772 6.49342 5 6.49342C5.55228 6.49342 6 6.04571 6 5.49342L4 5.49342ZM6 15.3618C6 14.8096 5.55228 14.3618 5 14.3618C4.44772 14.3618 4 14.8096 4 15.3618L6 15.3618ZM4 16.3487C4 16.901 4.44772 17.3487 5 17.3487C5.55228 17.3487 6 16.901 6 16.3487L4 16.3487ZM6 26.2171C6 25.6648 5.55228 25.2171 5 25.2171C4.44772 25.2171 4 25.6648 4 26.2171L6 26.2171ZM4 27.2039C4 27.7562 4.44772 28.2039 5 28.2039C5.55228 28.2039 6 27.7562 6 27.2039L4 27.2039ZM6 37.0724C6 36.5201 5.55228 36.0724 5 36.0724C4.44772 36.0724 4 36.5201 4 37.0724L6 37.0724ZM4 38.0592C4 38.6115 4.44772 39.0592 5 39.0592C5.55228 39.0592 6 38.6115 6 38.0592L4 38.0592ZM6 47.9276C6 47.3753 5.55228 46.9276 5 46.9276C4.44772 46.9276 4 47.3753 4 47.9276L6 47.9276ZM4 48.9145C4 49.4668 4.44772 49.9145 5 49.9145C5.55228 49.9145 6 49.4668 6 48.9145L4 48.9145ZM6 58.7829C6 58.2306 5.55228 57.7829 5 57.7829C4.44772 57.7829 4 58.2306 4 58.7829L6 58.7829ZM4 59.7697C4 60.322 4.44772 60.7697 5 60.7697C5.55228 60.7697 6 60.322 6 59.7697L4 59.7697ZM6 69.6382C6 69.0859 5.55228 68.6382 5 68.6382C4.44772 68.6382 4 69.0859 4 69.6382L6 69.6382ZM4 70.625C4 71.1773 4.44772 71.625 5 71.625C5.55228 71.625 6 71.1773 6 70.625L4 70.625ZM6 80.4934C6 79.9411 5.55228 79.4934 5 79.4934C4.44772 79.4934 4 79.9411 4 80.4934L6 80.4934ZM4 81.4803C4 82.0325 4.44772 82.4803 5 82.4803C5.55228 82.4803 6 82.0325 6 81.4803L4 81.4803ZM6 91.3487C6 90.7964 5.55228 90.3487 5 90.3487C4.44772 90.3487 4 90.7964 4 91.3487L6 91.3487ZM4 92.3355C4 92.8878 4.44772 93.3355 5 93.3355C5.55228 93.3355 6 92.8878 6 92.3355L4 92.3355ZM6 102.204C6 101.652 5.55228 101.204 5 101.204C4.44772 101.204 4 101.652 4 102.204L6 102.204ZM4 103.191C4 103.743 4.44772 104.191 5 104.191C5.55228 104.191 6 103.743 6 103.191L4 103.191ZM6 113.059C6 112.507 5.55228 112.059 5 112.059C4.44772 112.059 4 112.507 4 113.059L6 113.059ZM4 114.046C4 114.598 4.44772 115.046 5 115.046C5.55228 115.046 6 114.598 6 114.046L4 114.046ZM6 123.914C6 123.362 5.55228 122.914 5 122.914C4.44772 122.914 4 123.362 4 123.914L6 123.914ZM4 124.901C4 125.454 4.44772 125.901 5 125.901C5.55228 125.901 6 125.454 6 124.901L4 124.901ZM6 134.77C6 134.217 5.55228 133.77 5 133.77C4.44772 133.77 4 134.217 4 134.77L6 134.77ZM4 135.757C4 136.309 4.44772 136.757 5 136.757C5.55228 136.757 6 136.309 6 135.757L4 135.757ZM6 145.625C6 145.073 5.55228 144.625 5 144.625C4.44772 144.625 4 145.073 4 145.625L6 145.625ZM4 146.612C4 147.164 4.44772 147.612 5 147.612C5.55228 147.612 6 147.164 6 146.612L4 146.612ZM6 156.48C6 155.928 5.55228 155.48 5 155.48C4.44772 155.48 4 155.928 4 156.48L6 156.48ZM4 157.467C4 158.019 4.44772 158.467 5 158.467C5.55228 158.467 6 158.019 6 157.467L4 157.467ZM6 167.336C6 166.783 5.55228 166.336 5 166.336C4.44772 166.336 4 166.783 4 167.336L6 167.336ZM4 168.322C4 168.875 4.44772 169.322 5 169.322C5.55228 169.322 6 168.875 6 168.322L4 168.322ZM6 178.191C6 177.639 5.55228 177.191 5 177.191C4.44772 177.191 4 177.639 4 178.191L6 178.191ZM4 179.178C4 179.73 4.44772 180.178 5 180.178C5.55228 180.178 6 179.73 6 179.178L4 179.178ZM6 189.046C6 188.494 5.55228 188.046 5 188.046C4.44772 188.046 4 188.494 4 189.046L6 189.046ZM4 190.033C4 190.585 4.44772 191.033 5 191.033C5.55228 191.033 6 190.585 6 190.033L4 190.033ZM6 199.901C6 199.349 5.55228 198.901 5 198.901C4.44772 198.901 4 199.349 4 199.901L6 199.901ZM4 200.888C4 201.44 4.44772 201.888 5 201.888C5.55228 201.888 6 201.44 6 200.888L4 200.888ZM6 210.757C6 210.204 5.55228 209.757 5 209.757C4.44772 209.757 4 210.204 4 210.757L6 210.757ZM4 211.743C4 212.296 4.44772 212.743 5 212.743C5.55228 212.743 6 212.296 6 211.743L4 211.743ZM6 221.612C6 221.06 5.55228 220.612 5 220.612C4.44772 220.612 4 221.06 4 221.612L6 221.612ZM4 222.599C4 223.151 4.44772 223.599 5 223.599C5.55228 223.599 6 223.151 6 222.599L4 222.599ZM6 232.467C6 231.915 5.55228 231.467 5 231.467C4.44772 231.467 4 231.915 4 232.467L6 232.467ZM4 233.454C4 234.006 4.44772 234.454 5 234.454C5.55228 234.454 6 234.006 6 233.454L4 233.454ZM6 243.322C6 242.77 5.55228 242.322 5 242.322C4.44772 242.322 4 242.77 4 243.322L6 243.322ZM4 244.309C4 244.862 4.44772 245.309 5 245.309C5.55228 245.309 6 244.862 6 244.309L4 244.309ZM6 254.178C6 253.625 5.55228 253.178 5 253.178C4.44772 253.178 4 253.625 4 254.178L6 254.178ZM4 255.165C4 255.717 4.44772 256.165 5 256.165C5.55228 256.165 6 255.717 6 255.165L4 255.165ZM6 265.033C6 264.481 5.55228 264.033 5 264.033C4.44772 264.033 4 264.481 4 265.033L6 265.033ZM4 266.02C4 266.572 4.44772 267.02 5 267.02C5.55228 267.02 6 266.572 6 266.02L4 266.02ZM6 275.888C6 275.336 5.55228 274.888 5 274.888C4.44772 274.888 4 275.336 4 275.888L6 275.888ZM4 276.875C4 277.427 4.44772 277.875 5 277.875C5.55228 277.875 6 277.427 6 276.875L4 276.875ZM6 286.743C6 286.191 5.55228 285.743 5 285.743C4.44772 285.743 4 286.191 4 286.743L6 286.743ZM4 287.73C4 288.283 4.44772 288.73 5 288.73C5.55228 288.73 6 288.283 6 287.73L4 287.73ZM6 297.599C6 297.046 5.55228 296.599 5 296.599C4.44772 296.599 4 297.046 4 297.599L6 297.599ZM4 298.586C4 299.138 4.44772 299.586 5 299.586C5.55228 299.586 6 299.138 6 298.586L4 298.586ZM6 308.454C6 307.902 5.55228 307.454 5 307.454C4.44772 307.454 4 307.902 4 308.454L6 308.454ZM4 309.441C4 309.993 4.44772 310.441 5 310.441C5.55228 310.441 6 309.993 6 309.441L4 309.441ZM6 319.309C6 318.757 5.55228 318.309 5 318.309C4.44772 318.309 4 318.757 4 319.309L6 319.309ZM4 320.296C4 320.848 4.44772 321.296 5 321.296C5.55228 321.296 6 320.848 6 320.296L4 320.296ZM6 330.164C6 329.612 5.55228 329.164 5 329.164C4.44772 329.164 4 329.612 4 330.164L6 330.164ZM4 331.151C4 331.704 4.44772 332.151 5 332.151C5.55228 332.151 6 331.704 6 331.151L4 331.151ZM6 341.02C6 340.467 5.55228 340.02 5 340.02C4.44772 340.02 4 340.467 4 341.02L6 341.02ZM4 342.007C4 342.559 4.44772 343.007 5 343.007C5.55228 343.007 6 342.559 6 342.007L4 342.007ZM6 351.875C6 351.323 5.55228 350.875 5 350.875C4.44772 350.875 4 351.323 4 351.875L6 351.875ZM4 352.862C4 353.414 4.44772 353.862 5 353.862C5.55228 353.862 6 353.414 6 352.862L4 352.862ZM6 362.73C6 362.178 5.55228 361.73 5 361.73C4.44772 361.73 4 362.178 4 362.73L6 362.73ZM4 363.717C4 364.269 4.44772 364.717 5 364.717C5.55228 364.717 6 364.269 6 363.717L4 363.717ZM6 373.586C6 373.033 5.55228 372.586 5 372.586C4.44772 372.586 4 373.033 4 373.586L6 373.586ZM4 374.572C4 375.125 4.44772 375.572 5 375.572C5.55228 375.572 6 375.125 6 374.572L4 374.572ZM6 384.441C6 383.888 5.55228 383.441 5 383.441C4.44772 383.441 4 383.888 4 384.441L6 384.441ZM4 385.428C4 385.98 4.44772 386.428 5 386.428C5.55228 386.428 6 385.98 6 385.428L4 385.428ZM6 395.296C6 394.744 5.55228 394.296 5 394.296C4.44772 394.296 4 394.744 4 395.296L6 395.296ZM4 396.283C4 396.835 4.44772 397.283 5 397.283C5.55228 397.283 6 396.835 6 396.283L4 396.283ZM6 406.151C6 405.599 5.55228 405.151 5 405.151C4.44772 405.151 4 405.599 4 406.151L6 406.151ZM4 407.138C4 407.69 4.44772 408.138 5 408.138C5.55228 408.138 6 407.69 6 407.138L4 407.138ZM6 417.007C6 416.454 5.55228 416.007 5 416.007C4.44772 416.007 4 416.454 4 417.007L6 417.007ZM4 5L4 5.49342L6 5.49342L6 5H4ZM4 15.3618L4 16.3487L6 16.3487L6 15.3618L4 15.3618ZM4 26.2171L4 27.2039L6 27.2039L6 26.2171L4 26.2171ZM4 37.0724L4 38.0592L6 38.0592L6 37.0724L4 37.0724ZM4 47.9276L4 48.9145L6 48.9145L6 47.9276L4 47.9276ZM4 58.7829L4 59.7697L6 59.7697L6 58.7829L4 58.7829ZM4 69.6382L4 70.625L6 70.625L6 69.6382L4 69.6382ZM4 80.4934L4 81.4803L6 81.4803L6 80.4934L4 80.4934ZM4 91.3487L4 92.3355L6 92.3355L6 91.3487L4 91.3487ZM4 102.204L4 103.191L6 103.191L6 102.204L4 102.204ZM4 113.059L4 114.046L6 114.046L6 113.059L4 113.059ZM4 123.914L4 124.901L6 124.901L6 123.914L4 123.914ZM4 134.77L4 135.757L6 135.757L6 134.77L4 134.77ZM4 145.625L4 146.612L6 146.612L6 145.625L4 145.625ZM4 156.48L4 157.467L6 157.467L6 156.48L4 156.48ZM4 167.336L4 168.322L6 168.322L6 167.336L4 167.336ZM4 178.191L4 179.178L6 179.178L6 178.191L4 178.191ZM4 189.046L4 190.033L6 190.033L6 189.046L4 189.046ZM4 199.901L4 200.888L6 200.888L6 199.901L4 199.901ZM4 210.757L4 211.743L6 211.743L6 210.757L4 210.757ZM4 221.612L4 222.599L6 222.599L6 221.612L4 221.612ZM4 232.467L4 233.454L6 233.454L6 232.467L4 232.467ZM4 243.322L4 244.309L6 244.309L6 243.322L4 243.322ZM4 254.178L4 255.165L6 255.165L6 254.178L4 254.178ZM4 265.033L4 266.02L6 266.02L6 265.033L4 265.033ZM4 275.888L4 276.875L6 276.875L6 275.888L4 275.888ZM4 286.743L4 287.73L6 287.73L6 286.743L4 286.743ZM4 297.599L4 298.586L6 298.586L6 297.599L4 297.599ZM4 308.454L4 309.441L6 309.441L6 308.454L4 308.454ZM4 319.309L4 320.296L6 320.296L6 319.309L4 319.309ZM4 330.164L4 331.151L6 331.151L6 330.164L4 330.164ZM4 341.02L4 342.007L6 342.007L6 341.02L4 341.02ZM4 351.875L4 352.862L6 352.862L6 351.875L4 351.875ZM4 362.73L4 363.717L6 363.717L6 362.73L4 362.73ZM4 373.586L4 374.572L6 374.572L6 373.586L4 373.586ZM4 384.441L4 385.428L6 385.428L6 384.441L4 384.441ZM4 395.296L4 396.283L6 396.283L6 395.296L4 395.296ZM4 406.151L4 407.138L6 407.138L6 406.151L4 406.151ZM4 417.007L4 417.5L6 417.5L6 417.007L4 417.007Z" fill="#D6D8D9"/>
<circle cx="5" cy="5" r="5" fill="#D6D8D9"/>
<circle cx="5" cy="210" r="5" fill="#D6D8D9"/>
<circle cx="5" cy="415" r="5" fill="#D6D8D9"/>
</svg>
