<svg width="17" height="17" viewBox="0 0 17 17" fill="none" xmlns="http://www.w3.org/2000/svg">
<path fill-rule="evenodd" clip-rule="evenodd" d="M0.869521 6.06809V16.9996H4.26885V6.06809H0.869521ZM0.59668 2.61061C0.59668 3.6975 1.47782 4.57864 2.56919 4.57864C3.65608 4.57864 4.53722 3.69303 4.53722 2.61061C4.53722 1.52372 3.65608 0.642578 2.56919 0.642578C1.47782 0.642578 0.59668 1.52372 0.59668 2.61061ZM13.5946 16.9996H16.9895V11.0016C16.9895 8.05849 16.3544 5.79525 12.9148 5.79525C11.2643 5.79525 10.1551 6.70323 9.7033 7.562H9.65858V6.06809H6.40238V16.9996H9.79276V11.5965C9.79276 10.1696 10.0611 8.78755 11.8279 8.78755C13.5723 8.78755 13.5946 10.4201 13.5946 11.6859V16.9996Z" fill="white"/>
</svg>
