<svg width="140" height="64" viewBox="0 0 140 64" fill="none" xmlns="http://www.w3.org/2000/svg">
<path d="M104.763 46.6659C104.532 46.8438 104.282 46.9949 104.017 47.1164C103.541 47.3571 103.024 47.6029 102.554 47.6029C102.231 47.6029 101.998 47.5155 101.818 47.3643C101.745 47.3022 101.68 47.2317 101.624 47.1545C101.584 47.101 101.548 47.0475 101.51 46.9971C101.36 46.7853 101.237 46.5555 101.144 46.3131C100.395 47.0608 99.0593 47.6934 97.1152 47.6934C95.4726 47.6934 94.1714 47.2707 93.2416 46.3768C92.3344 45.5067 91.8181 44.2549 91.8181 42.5258V32.6556C91.8181 32.238 91.9003 31.9551 92.1955 31.7298C92.501 31.4933 93.0842 31.4141 93.8269 31.4141C94.551 31.4141 95.1363 31.4953 95.4387 31.734C95.7308 31.9582 95.812 32.24 95.812 32.6566V42.0722C95.812 43.4732 96.3788 44.1654 98.0111 44.1654C99.6466 44.1654 100.613 43.178 100.613 41.8233V32.6556C100.613 32.238 100.696 31.9551 100.991 31.7298C101.294 31.4933 101.855 31.4141 102.6 31.4141C103.324 31.4141 103.909 31.4953 104.211 31.734C104.504 31.9582 104.586 32.24 104.586 32.6566V43.6151C104.586 43.9772 104.641 44.3001 104.709 44.5593C104.774 44.8124 104.849 45.0027 104.892 45.1117C105.026 45.3822 105.145 45.6465 105.145 45.9973C105.144 46.2935 104.944 46.5157 104.763 46.6659Z" fill="#F10710"/>
<path d="M86.956 35.2463V46.1904C86.956 46.608 86.8727 46.8919 86.5775 47.1161C86.2731 47.3527 85.6909 47.4329 84.9698 47.4329C84.2241 47.4329 83.6378 47.3516 83.3344 47.113C83.0423 46.8888 82.961 46.6059 82.961 46.1904V35.5394L81.1199 35.6741C79.4711 35.7955 79.4062 34.3771 79.4062 33.5882C79.4062 32.0288 79.974 31.4693 80.9934 31.4693H88.933C89.7106 31.4693 90.2979 31.7213 90.5283 32.8486C90.7854 34.1035 90.6795 34.9757 89.2961 35.0755L86.956 35.2463Z" fill="#F10710"/>
<path d="M111.923 47.1503C111.618 47.3869 111.036 47.4671 110.314 47.4671C109.569 47.4671 108.983 47.3859 108.68 47.1462C108.389 46.922 108.306 46.6402 108.306 46.2246V32.6566C108.306 32.238 108.389 31.9551 108.685 31.7309C108.989 31.4943 109.573 31.4141 110.315 31.4141C111.039 31.4141 111.625 31.4953 111.927 31.734C112.219 31.9582 112.301 32.241 112.301 32.6566V46.2246C112.301 46.6422 112.218 46.9261 111.923 47.1503Z" fill="#F10710"/>
<path d="M29.1086 24.0279H39.6598C40.6935 24.0279 41.4742 24.3591 41.7807 25.8485C42.1222 27.5045 41.9813 28.6575 40.1432 28.7902L36.8312 29.0289C39.2689 44.6479 53.523 49.7383 61.2837 32.9169C62.5684 30.1325 62.989 29.6254 64.3961 29.9803C66.3031 30.4596 66.5644 31.4543 65.6551 34.2613C58.9447 54.9985 36.392 57.0773 31.968 29.3837L29.2773 29.5812C27.0864 29.7406 27 27.8676 27 26.8246C27 24.7664 27.754 24.0279 29.1086 24.0279Z" fill="#F10710"/>
<path d="M67.4666 14C69.6297 14 71.3834 15.7774 71.3834 17.9703C71.3834 20.1633 69.6297 21.9407 67.4666 21.9407C65.3045 21.9407 63.5508 20.1633 63.5508 17.9703C63.5508 15.7774 65.3035 14 67.4666 14Z" fill="#F10710"/>
</svg>
