<svg width="140" height="64" viewBox="0 0 140 64" fill="none" xmlns="http://www.w3.org/2000/svg">
<path d="M35.9324 54.3186C35.8664 56.0936 34.744 57.1454 32.9614 57.1454C31.1788 57.1454 30.0564 56.0936 29.9903 54.3186V48.0733H29V54.3186C29 56.4223 30.3205 57.9343 32.9614 57.9343C35.6023 57.9343 36.9227 56.4223 36.9227 54.3186V48.0733H35.9324V54.3186ZM45.9018 56.7509L39.9598 48.0733H38.9034V57.9343H39.8277V49.3881L45.5717 57.9343H46.8261V48.0733H45.9018V56.7509ZM49.4671 57.9343H50.3914V48.0733H49.4671V57.9343ZM55.8052 57.0139L52.4381 48.0733H51.4477L55.211 57.9343H56.2674L60.0307 48.0733H59.1064L55.8052 57.0139ZM62.3415 53.2668H67.5573V52.4779H62.3415V48.9279H67.7554V48.0733H61.3512V57.9343H67.9534V57.1454H62.3415V53.2668ZM75.546 52.8066C76.7345 52.4779 77.5928 51.7547 77.5928 50.6372C77.5928 49.7168 77.2626 48.9937 76.5364 48.5992C75.7441 48.1391 74.9518 48.0733 74.0935 48.0733H70.5943V57.9343H71.5187V53.2668H74.0935C76.0082 53.2668 76.1402 53.6612 76.3383 55.8963C76.4043 56.6195 76.4704 57.2769 76.7345 57.9343H77.8568C77.4607 57.3426 77.4607 56.6195 77.3287 54.976C77.1966 53.8584 76.8665 53.0038 75.546 52.8066ZM73.5654 52.4121H71.5187V48.8622H73.6314C74.6217 48.8622 76.5364 48.7307 76.5364 50.6372C76.5364 52.3464 74.8858 52.4121 73.5654 52.4121ZM83.7989 52.0834C82.8746 51.8862 81.8842 51.7547 81.8842 50.7686C81.8842 49.914 82.7425 49.5196 83.5348 49.5196C84.6572 49.5196 85.1854 49.9798 85.3174 50.9659H87.4962C87.4962 49.0594 85.9116 48.0733 83.8649 48.0733C81.6862 48.0733 79.5074 49.0594 79.5074 51.1631C79.5074 52.8723 81.4881 53.464 83.0066 53.7927C83.9309 53.9899 85.3834 54.0556 85.3834 55.1732C85.3834 56.1593 84.195 56.4222 83.2707 56.4222C82.0823 56.4222 81.4221 55.6991 81.4881 54.6473H79.1773C79.1113 57.0139 80.8279 57.8685 83.2047 57.8685C85.4495 57.8685 87.7603 57.0796 87.7603 54.713C87.7603 52.8723 85.3834 52.4779 83.7989 52.0834ZM97.3336 48.0733H94.7587L91.3255 52.3464V48.0733H89.0807V57.9343H91.3255V52.9381L94.8907 57.9343H97.6637L93.5703 52.4779L97.3336 48.0733ZM98.3239 57.9343H100.305V48.0733H98.3239V57.9343ZM109.482 48.0733V55.8306L105.52 48.0733H102.285V57.9343H104.332V49.7826L108.359 58H111.462V48.0733H109.482ZM91.7216 42.1568H95.6174L95.617 38.6068V36.6346C95.617 36.6346 95.617 22.4349 95.617 22.3034C95.683 13.2971 88.0904 6 78.7151 6C75.9422 6 73.2352 6.6574 70.9245 7.84071C68.6137 6.6574 65.9067 6 63.1338 6C53.7585 6 46.1659 13.2971 46.1659 22.3034C46.1659 22.4349 46.1659 36.6346 46.1659 36.6346V38.6068V42.1568H50.1273V38.6068C54.1547 38.6068 63.0017 38.6068 63.1338 38.6068C65.9727 38.6068 68.6137 37.9494 70.9245 36.7661C73.2352 37.9494 75.9422 38.6068 78.7151 38.6068C78.8472 38.6068 87.6942 38.6068 91.7216 38.6068V42.1568ZM63.2658 34.9254C63.1338 34.9254 54.1547 34.9254 50.0613 34.9254V22.5006V22.4349C50.0613 15.5322 56.0033 9.94437 63.2658 9.94437C64.6523 9.94437 66.0388 10.1416 67.2932 10.536C63.9921 13.5601 61.8793 17.7674 61.8793 22.4349C61.8793 27.1024 63.926 31.3755 67.2932 34.3338C66.0388 34.7282 64.7183 34.9254 63.2658 34.9254ZM70.9245 32.1643C67.6893 29.8635 65.6426 26.2478 65.6426 22.1719C65.6426 18.0961 67.6893 14.4147 70.9245 12.1795C74.1596 14.4804 76.2063 18.0961 76.2063 22.1719C76.2063 26.2478 74.1596 29.8635 70.9245 32.1643ZM78.5831 34.9254C77.1966 34.9254 75.8101 34.7282 74.5557 34.3338C77.8568 31.3097 79.9696 27.1024 79.9696 22.4349C79.9696 17.7674 77.9229 13.4943 74.5557 10.536C75.8101 10.1416 77.1966 9.94437 78.5831 9.94437C85.8456 9.94437 91.7876 15.5322 91.7876 22.4349V22.5006V34.9254C87.6942 34.9254 78.7151 34.9254 78.5831 34.9254Z" fill="black"/>
</svg>
